%FSLAX24Y24*%
%MOIN*%
G70*
G01*
G75*
G04 Layer_Color=65535*
%ADD10C,0.0080*%
%ADD11R,0.0650X0.1122*%
%ADD12R,0.0354X0.0118*%
G04:AMPARAMS|DCode=13|XSize=29.9mil|YSize=50mil|CornerRadius=0mil|HoleSize=0mil|Usage=FLASHONLY|Rotation=327.000|XOffset=0mil|YOffset=0mil|HoleType=Round|Shape=Rectangle|*
%AMROTATEDRECTD13*
4,1,4,-0.0262,-0.0128,0.0011,0.0291,0.0262,0.0128,-0.0011,-0.0291,-0.0262,-0.0128,0.0*
%
%ADD13ROTATEDRECTD13*%

%ADD14R,0.2598X0.2598*%
%ADD15O,0.0354X0.0098*%
%ADD16O,0.0098X0.0354*%
%ADD17O,0.0098X0.0335*%
%ADD18O,0.0335X0.0098*%
%ADD19R,0.1417X0.1417*%
G04:AMPARAMS|DCode=20|XSize=50mil|YSize=100mil|CornerRadius=0mil|HoleSize=0mil|Usage=FLASHONLY|Rotation=56.000|XOffset=0mil|YOffset=0mil|HoleType=Round|Shape=Rectangle|*
%AMROTATEDRECTD20*
4,1,4,0.0275,-0.0487,-0.0554,0.0072,-0.0275,0.0487,0.0554,-0.0072,0.0275,-0.0487,0.0*
%
%ADD20ROTATEDRECTD20*%

%ADD21R,0.0276X0.0079*%
%ADD22R,0.0157X0.0236*%
%ADD23R,0.0591X0.1024*%
%ADD24R,0.0236X0.0157*%
%ADD25R,0.0138X0.0217*%
%ADD26R,0.0335X0.0118*%
%ADD27R,0.0197X0.0315*%
%ADD28R,0.0551X0.0453*%
%ADD29R,0.0197X0.0354*%
%ADD30R,0.0394X0.0197*%
%ADD31R,0.0374X0.0335*%
%ADD32R,0.2126X0.0374*%
%ADD33R,0.1378X0.0768*%
%ADD34R,0.0984X0.1260*%
G04:AMPARAMS|DCode=35|XSize=28.7mil|YSize=135mil|CornerRadius=0mil|HoleSize=0mil|Usage=FLASHONLY|Rotation=108.600|XOffset=0mil|YOffset=0mil|HoleType=Round|Shape=Rectangle|*
%AMROTATEDRECTD35*
4,1,4,0.0686,0.0079,-0.0594,-0.0352,-0.0686,-0.0079,0.0594,0.0352,0.0686,0.0079,0.0*
%
%ADD35ROTATEDRECTD35*%

%ADD36C,0.0130*%
%ADD37C,0.0060*%
%ADD38C,0.0200*%
%ADD39C,0.0100*%
%ADD40C,0.0300*%
%ADD41C,0.0123*%
%ADD42C,0.0630*%
%ADD43R,0.0591X0.0591*%
%ADD44C,0.0591*%
%ADD45C,0.0217*%
%ADD46C,0.0315*%
%ADD47C,0.0200*%
%ADD48C,0.0400*%
%ADD49C,0.0300*%
%ADD50C,0.0220*%
%ADD51R,0.0354X0.0157*%
%ADD52O,0.0315X0.0098*%
%ADD53O,0.0098X0.0315*%
%ADD54R,0.1299X0.1299*%
G04:AMPARAMS|DCode=55|XSize=189mil|YSize=236.2mil|CornerRadius=0mil|HoleSize=0mil|Usage=FLASHONLY|Rotation=237.000|XOffset=0mil|YOffset=0mil|HoleType=Round|Shape=Rectangle|*
%AMROTATEDRECTD55*
4,1,4,-0.0476,0.1436,0.1505,0.0149,0.0476,-0.1436,-0.1505,-0.0149,-0.0476,0.1436,0.0*
%
%ADD55ROTATEDRECTD55*%

G04:AMPARAMS|DCode=56|XSize=15.7mil|YSize=31.5mil|CornerRadius=0mil|HoleSize=0mil|Usage=FLASHONLY|Rotation=237.000|XOffset=0mil|YOffset=0mil|HoleType=Round|Shape=Round|*
%AMOVALD56*
21,1,0.0157,0.0157,0.0000,0.0000,327.0*
1,1,0.0157,-0.0066,0.0043*
1,1,0.0157,0.0066,-0.0043*
%
%ADD56OVALD56*%

%ADD57R,0.1102X0.0492*%
%ADD58R,0.0157X0.0532*%
%ADD59R,0.0748X0.0630*%
%ADD60R,0.0630X0.0551*%
%ADD61R,0.0354X0.0197*%
%ADD62C,0.0150*%
%ADD63C,0.0098*%
%ADD64C,0.0039*%
%ADD65C,0.0079*%
%ADD66C,0.0050*%
%ADD67R,0.0433X0.0551*%
G04:AMPARAMS|DCode=68|XSize=54mil|YSize=31.5mil|CornerRadius=0mil|HoleSize=0mil|Usage=FLASHONLY|Rotation=108.600|XOffset=0mil|YOffset=0mil|HoleType=Round|Shape=Rectangle|*
%AMROTATEDRECTD68*
4,1,4,0.0236,-0.0205,-0.0063,-0.0306,-0.0236,0.0205,0.0063,0.0306,0.0236,-0.0205,0.0*
%
%ADD68ROTATEDRECTD68*%

G36*
X-2975Y-1695D02*
X-3113D01*
Y-2242D01*
X-2975D01*
Y-2605D01*
X-3654D01*
Y-2242D01*
X-3516D01*
Y-1914D01*
X-3859Y-2386D01*
X-3882D01*
X-4218Y-1914D01*
Y-2242D01*
X-4080D01*
Y-2605D01*
X-4760D01*
Y-2242D01*
X-4627D01*
Y-1695D01*
X-4760D01*
Y-1332D01*
X-4221D01*
X-3876Y-1810D01*
X-3859D01*
X-3513Y-1332D01*
X-2975D01*
Y-1695D01*
D02*
G37*
D39*
X2396Y-3826D02*
G03*
X2396Y-3826I-14J0D01*
G01*
X6655Y-3218D02*
G03*
X6655Y-3218I-28J0D01*
G01*
X-1711Y-4274D02*
G03*
X-1711Y-4274I-31J0D01*
G01*
X1791Y4032D02*
X3209D01*
D63*
X-3125Y2335D02*
G03*
X-3125Y2335I-49J0D01*
G01*
X972Y652D02*
G03*
X972Y652I-49J0D01*
G01*
X5255Y-432D02*
G03*
X5255Y-432I-49J0D01*
G01*
X3459Y-4985D02*
G03*
X3459Y-4985I-49J0D01*
G01*
D64*
X4777Y-4019D02*
G03*
X4777Y-4019I-20J0D01*
G01*
X156Y-5358D02*
G03*
X156Y-5358I-20J0D01*
G01*
X-5515Y-5552D02*
X-5425Y-5611D01*
X-2985Y-7196D02*
X-2896Y-7253D01*
X-1481Y-5074D01*
X-1569Y-5017D02*
X-1481Y-5074D01*
X-5515Y-5552D02*
X-4100Y-3373D01*
X-4009Y-3432D01*
X4241Y-3433D02*
X4596D01*
X4241Y-4102D02*
X4596D01*
X2902Y-3876D02*
X2981D01*
X2902Y-3660D02*
X2981D01*
X1879Y-5976D02*
X1958D01*
X1879Y-5760D02*
X1958D01*
X2977Y-6507D02*
Y-6428D01*
X2760Y-6507D02*
Y-6428D01*
X3779Y-5976D02*
X3858D01*
X3779Y-5760D02*
X3858D01*
X1879Y-4910D02*
X1958D01*
X1879Y-5126D02*
X1958D01*
X3779Y-5076D02*
X3858D01*
X3779Y-4860D02*
X3858D01*
X-538Y-4604D02*
X-26D01*
X-538Y-5431D02*
X-26D01*
X521Y-4328D02*
X599D01*
X521Y-4112D02*
X599D01*
X827Y-3507D02*
Y-3428D01*
X610Y-3507D02*
Y-3428D01*
X2339Y-4465D02*
Y-3924D01*
X901Y-4465D02*
Y-3875D01*
X2902Y-4326D02*
X2981D01*
X2902Y-4110D02*
X2981D01*
X5255Y-4647D02*
X5334D01*
X5255Y-4431D02*
X5334D01*
X5702Y-3208D02*
X5898D01*
X5702Y-4192D02*
X5898D01*
X6692Y-3139D02*
Y-3061D01*
X6908Y-3139D02*
Y-3061D01*
X5758Y-2739D02*
Y-2661D01*
X5542Y-2739D02*
Y-2661D01*
X5981Y-1350D02*
X6256D01*
X5981Y-1695D02*
X6256D01*
X5929Y-910D02*
X6008D01*
X5929Y-1126D02*
X6008D01*
X5981Y-685D02*
X6256D01*
X5981Y-341D02*
X6256D01*
X4260Y-157D02*
Y-78D01*
X4477Y-157D02*
Y-78D01*
X4710Y-157D02*
Y-78D01*
X4927Y-157D02*
Y-78D01*
X5160Y-7D02*
Y72D01*
X5377Y-7D02*
Y72D01*
X2108Y-2189D02*
Y-2111D01*
X1892Y-2189D02*
Y-2111D01*
X1253Y-2529D02*
Y-2371D01*
X1647Y-2529D02*
Y-2371D01*
X1892Y-2889D02*
Y-2811D01*
X2108Y-2889D02*
Y-2811D01*
X1560Y-3241D02*
Y-3162D01*
X1344Y-3241D02*
Y-3162D01*
X-1221Y-4660D02*
X-1142D01*
X-1221Y-4876D02*
X-1142D01*
X-2108Y-4339D02*
Y-4261D01*
X-1892Y-4339D02*
Y-4261D01*
X-1181Y-4333D02*
X-1082D01*
X-738Y-4028D02*
Y-4008D01*
X-1181Y-3703D02*
X-1082D01*
X-1525Y-4028D02*
Y-4008D01*
X-2822Y1041D02*
Y1119D01*
X-3038Y1041D02*
Y1119D01*
X-2402Y1041D02*
Y1119D01*
X-2618Y1041D02*
Y1119D01*
X-2159Y1031D02*
X-2021D01*
X-2090Y1060D02*
X-2021Y1129D01*
X-2159D02*
X-2090Y1060D01*
X-2159Y1129D02*
X-2021D01*
X-1729Y1031D02*
X-1591D01*
X-1660Y1060D02*
X-1591Y1129D01*
X-1729D02*
X-1660Y1060D01*
X-1729Y1129D02*
X-1591D01*
X-2839Y142D02*
X-2761D01*
X-2839Y358D02*
X-2761D01*
X-438Y1271D02*
Y1349D01*
X-222Y1271D02*
Y1349D01*
X188Y1131D02*
Y1209D01*
X-28Y1131D02*
Y1209D01*
X628Y1131D02*
Y1209D01*
X412Y1131D02*
Y1209D01*
X822Y1271D02*
Y1349D01*
X1038Y1271D02*
Y1349D01*
X-2842Y5361D02*
Y5439D01*
X-3058Y5361D02*
Y5439D01*
X-3388Y5883D02*
X-3112D01*
X-3388Y6227D02*
X-3112D01*
X-3339Y6492D02*
X-3261D01*
X-3339Y6708D02*
X-3261D01*
X1408Y2042D02*
Y3381D01*
X-2608Y2042D02*
X1408D01*
X-2608D02*
Y3381D01*
Y4719D02*
Y6058D01*
X1408D01*
Y4719D02*
Y6058D01*
X-2089Y7308D02*
X-2011D01*
X-2089Y7092D02*
X-2011D01*
X2902Y-3210D02*
X2981D01*
X2902Y-3426D02*
X2981D01*
X3727Y-4007D02*
Y-3928D01*
X3510Y-4007D02*
Y-3928D01*
X4930Y3649D02*
X6135Y67D01*
X4930Y3649D02*
X6665Y4233D01*
X7870Y651D01*
X6135Y67D02*
X7870Y651D01*
X-7870Y-651D02*
X-6135Y-67D01*
X-7870Y-651D02*
X-6665Y-4233D01*
X-4930Y-3649D01*
X-6135Y-67D02*
X-4930Y-3649D01*
D65*
X-4503Y4117D02*
X-3597D01*
X-4503Y2483D02*
X-3597D01*
X-2345Y218D02*
Y396D01*
X-2168D01*
X-2345Y-2931D02*
Y-2754D01*
Y-2931D02*
X-2168D01*
X805D02*
X982D01*
Y-2754D01*
Y218D02*
Y396D01*
X805D02*
X982D01*
X5097Y-688D02*
X5264D01*
Y-855D02*
Y-688D01*
Y-2814D02*
Y-2647D01*
X5097Y-2814D02*
X5264D01*
X3138D02*
X3306D01*
X3138D02*
Y-2647D01*
Y-688D02*
X3306D01*
X3138Y-855D02*
Y-688D01*
X3301Y-5615D02*
Y-5221D01*
X2435Y-5615D02*
Y-5221D01*
X3301D01*
X2435Y-5615D02*
X3301D01*
X-5424Y-7D02*
Y1607D01*
X-3376Y-7D02*
Y1607D01*
X1850Y1591D02*
Y3009D01*
X3150Y1591D02*
Y3009D01*
D66*
X-6200Y200D02*
Y3200D01*
X-7200Y200D02*
Y3200D01*
X-6200D01*
X-7200Y200D02*
X-6200D01*
X4250Y-4200D02*
Y-4500D01*
X4400D01*
X4450Y-4450D01*
Y-4400D01*
X4400Y-4350D01*
X4250D01*
X4400D01*
X4450Y-4300D01*
Y-4250D01*
X4400Y-4200D01*
X4250D01*
X4550Y-4500D02*
X4650D01*
X4600D01*
Y-4200D01*
X4550Y-4250D01*
X-3050Y-50D02*
X-3100Y-0D01*
X-3200D01*
X-3250Y-50D01*
Y-250D01*
X-3200Y-300D01*
X-3100D01*
X-3050Y-250D01*
X-2950Y-50D02*
X-2900Y-0D01*
X-2800D01*
X-2750Y-50D01*
Y-100D01*
X-2800Y-150D01*
X-2750Y-200D01*
Y-250D01*
X-2800Y-300D01*
X-2900D01*
X-2950Y-250D01*
Y-200D01*
X-2900Y-150D01*
X-2950Y-100D01*
Y-50D01*
X-2900Y-150D02*
X-2800D01*
X-4000Y-700D02*
X-4050Y-650D01*
X-4150D01*
X-4200Y-700D01*
Y-900D01*
X-4150Y-950D01*
X-4050D01*
X-4000Y-900D01*
X-3900Y-950D02*
X-3800D01*
X-3850D01*
Y-650D01*
X-3900Y-700D01*
X-3650D02*
X-3600Y-650D01*
X-3500D01*
X-3450Y-700D01*
Y-750D01*
X-3500Y-800D01*
X-3550D01*
X-3500D01*
X-3450Y-850D01*
Y-900D01*
X-3500Y-950D01*
X-3600D01*
X-3650Y-900D01*
X2300Y4500D02*
X2250Y4550D01*
X2150D01*
X2100Y4500D01*
Y4300D01*
X2150Y4250D01*
X2250D01*
X2300Y4300D01*
X2400Y4250D02*
X2500D01*
X2450D01*
Y4550D01*
X2400Y4500D01*
X2850Y4550D02*
X2650D01*
Y4400D01*
X2750Y4450D01*
X2800D01*
X2850Y4400D01*
Y4300D01*
X2800Y4250D01*
X2700D01*
X2650Y4300D01*
X-2250Y7000D02*
X-2300Y7050D01*
X-2400D01*
X-2450Y7000D01*
Y6800D01*
X-2400Y6750D01*
X-2300D01*
X-2250Y6800D01*
X-2150Y6750D02*
X-2050D01*
X-2100D01*
Y7050D01*
X-2150Y7000D01*
X-1700Y7050D02*
X-1800Y7000D01*
X-1900Y6900D01*
Y6800D01*
X-1850Y6750D01*
X-1750D01*
X-1700Y6800D01*
Y6850D01*
X-1750Y6900D01*
X-1900D01*
X-4250Y6450D02*
X-4300Y6500D01*
X-4400D01*
X-4450Y6450D01*
Y6250D01*
X-4400Y6200D01*
X-4300D01*
X-4250Y6250D01*
X-4150Y6200D02*
X-4050D01*
X-4100D01*
Y6500D01*
X-4150Y6450D01*
X-3900Y6500D02*
X-3700D01*
Y6450D01*
X-3900Y6250D01*
Y6200D01*
X-4350Y5800D02*
X-4400Y5850D01*
X-4500D01*
X-4550Y5800D01*
Y5600D01*
X-4500Y5550D01*
X-4400D01*
X-4350Y5600D01*
X-4250Y5550D02*
X-4150D01*
X-4200D01*
Y5850D01*
X-4250Y5800D01*
X-4000D02*
X-3950Y5850D01*
X-3850D01*
X-3800Y5800D01*
Y5750D01*
X-3850Y5700D01*
X-3800Y5650D01*
Y5600D01*
X-3850Y5550D01*
X-3950D01*
X-4000Y5600D01*
Y5650D01*
X-3950Y5700D01*
X-4000Y5750D01*
Y5800D01*
X-3950Y5700D02*
X-3850D01*
X1300Y950D02*
X1250Y900D01*
Y800D01*
X1300Y750D01*
X1500D01*
X1550Y800D01*
Y900D01*
X1500Y950D01*
X1550Y1250D02*
Y1050D01*
X1350Y1250D01*
X1300D01*
X1250Y1200D01*
Y1100D01*
X1300Y1050D01*
X1550Y1500D02*
X1250D01*
X1400Y1350D01*
Y1550D01*
X-850Y1200D02*
X-900Y1150D01*
Y1050D01*
X-850Y1000D01*
X-650D01*
X-600Y1050D01*
Y1150D01*
X-650Y1200D01*
X-600Y1500D02*
Y1300D01*
X-800Y1500D01*
X-850D01*
X-900Y1450D01*
Y1350D01*
X-850Y1300D01*
X-900Y1800D02*
Y1600D01*
X-750D01*
X-800Y1700D01*
Y1750D01*
X-750Y1800D01*
X-650D01*
X-600Y1750D01*
Y1650D01*
X-650Y1600D01*
X1900Y-600D02*
X1850Y-650D01*
Y-750D01*
X1900Y-800D01*
X2100D01*
X2150Y-750D01*
Y-650D01*
X2100Y-600D01*
X2150Y-300D02*
Y-500D01*
X1950Y-300D01*
X1900D01*
X1850Y-350D01*
Y-450D01*
X1900Y-500D01*
X1850Y-0D02*
X1900Y-100D01*
X2000Y-200D01*
X2100D01*
X2150Y-150D01*
Y-50D01*
X2100Y-0D01*
X2050D01*
X2000Y-50D01*
Y-200D01*
X1900Y-1550D02*
X1850Y-1600D01*
Y-1700D01*
X1900Y-1750D01*
X2100D01*
X2150Y-1700D01*
Y-1600D01*
X2100Y-1550D01*
X2150Y-1250D02*
Y-1450D01*
X1950Y-1250D01*
X1900D01*
X1850Y-1300D01*
Y-1400D01*
X1900Y-1450D01*
X1850Y-1150D02*
Y-950D01*
X1900D01*
X2100Y-1150D01*
X2150D01*
X6850Y-1400D02*
X6800Y-1350D01*
X6700D01*
X6650Y-1400D01*
Y-1600D01*
X6700Y-1650D01*
X6800D01*
X6850Y-1600D01*
X7150Y-1650D02*
X6950D01*
X7150Y-1450D01*
Y-1400D01*
X7100Y-1350D01*
X7000D01*
X6950Y-1400D01*
X7250Y-1600D02*
X7300Y-1650D01*
X7400D01*
X7450Y-1600D01*
Y-1400D01*
X7400Y-1350D01*
X7300D01*
X7250Y-1400D01*
Y-1450D01*
X7300Y-1500D01*
X7450D01*
X4700Y800D02*
X4650Y750D01*
Y650D01*
X4700Y600D01*
X4900D01*
X4950Y650D01*
Y750D01*
X4900Y800D01*
X4700Y900D02*
X4650Y950D01*
Y1050D01*
X4700Y1100D01*
X4750D01*
X4800Y1050D01*
Y1000D01*
Y1050D01*
X4850Y1100D01*
X4900D01*
X4950Y1050D01*
Y950D01*
X4900Y900D01*
X4700Y1200D02*
X4650Y1250D01*
Y1350D01*
X4700Y1400D01*
X4900D01*
X4950Y1350D01*
Y1250D01*
X4900Y1200D01*
X4700D01*
X3800Y-150D02*
X3750Y-200D01*
Y-300D01*
X3800Y-350D01*
X4000D01*
X4050Y-300D01*
Y-200D01*
X4000Y-150D01*
X3800Y-50D02*
X3750Y-0D01*
Y100D01*
X3800Y150D01*
X3850D01*
X3900Y100D01*
Y50D01*
Y100D01*
X3950Y150D01*
X4000D01*
X4050Y100D01*
Y-0D01*
X4000Y-50D01*
X4050Y250D02*
Y350D01*
Y300D01*
X3750D01*
X3800Y250D01*
X5600Y-50D02*
X5550Y-100D01*
Y-200D01*
X5600Y-250D01*
X5800D01*
X5850Y-200D01*
Y-100D01*
X5800Y-50D01*
X5600Y50D02*
X5550Y100D01*
Y200D01*
X5600Y250D01*
X5650D01*
X5700Y200D01*
Y150D01*
Y200D01*
X5750Y250D01*
X5800D01*
X5850Y200D01*
Y100D01*
X5800Y50D01*
X5600Y350D02*
X5550Y400D01*
Y500D01*
X5600Y550D01*
X5650D01*
X5700Y500D01*
Y450D01*
Y500D01*
X5750Y550D01*
X5800D01*
X5850Y500D01*
Y400D01*
X5800Y350D01*
X3600Y-3100D02*
X3550Y-3050D01*
X3450D01*
X3400Y-3100D01*
Y-3300D01*
X3450Y-3350D01*
X3550D01*
X3600Y-3300D01*
X3700Y-3100D02*
X3750Y-3050D01*
X3850D01*
X3900Y-3100D01*
Y-3150D01*
X3850Y-3200D01*
X3800D01*
X3850D01*
X3900Y-3250D01*
Y-3300D01*
X3850Y-3350D01*
X3750D01*
X3700Y-3300D01*
X4200Y-3050D02*
X4000D01*
Y-3200D01*
X4100Y-3150D01*
X4150D01*
X4200Y-3200D01*
Y-3300D01*
X4150Y-3350D01*
X4050D01*
X4000Y-3300D01*
X6700Y-2450D02*
X6650Y-2500D01*
Y-2600D01*
X6700Y-2650D01*
X6900D01*
X6950Y-2600D01*
Y-2500D01*
X6900Y-2450D01*
X6700Y-2350D02*
X6650Y-2300D01*
Y-2200D01*
X6700Y-2150D01*
X6750D01*
X6800Y-2200D01*
Y-2250D01*
Y-2200D01*
X6850Y-2150D01*
X6900D01*
X6950Y-2200D01*
Y-2300D01*
X6900Y-2350D01*
X6650Y-2050D02*
Y-1850D01*
X6700D01*
X6900Y-2050D01*
X6950D01*
X5050Y-4900D02*
X5000Y-4850D01*
X4900D01*
X4850Y-4900D01*
Y-5100D01*
X4900Y-5150D01*
X5000D01*
X5050Y-5100D01*
X5150Y-4900D02*
X5200Y-4850D01*
X5300D01*
X5350Y-4900D01*
Y-4950D01*
X5300Y-5000D01*
X5250D01*
X5300D01*
X5350Y-5050D01*
Y-5100D01*
X5300Y-5150D01*
X5200D01*
X5150Y-5100D01*
X5450Y-4900D02*
X5500Y-4850D01*
X5600D01*
X5650Y-4900D01*
Y-4950D01*
X5600Y-5000D01*
X5650Y-5050D01*
Y-5100D01*
X5600Y-5150D01*
X5500D01*
X5450Y-5100D01*
Y-5050D01*
X5500Y-5000D01*
X5450Y-4950D01*
Y-4900D01*
X5500Y-5000D02*
X5600D01*
X3600Y-6150D02*
X3550Y-6100D01*
X3450D01*
X3400Y-6150D01*
Y-6350D01*
X3450Y-6400D01*
X3550D01*
X3600Y-6350D01*
X3700Y-6150D02*
X3750Y-6100D01*
X3850D01*
X3900Y-6150D01*
Y-6200D01*
X3850Y-6250D01*
X3800D01*
X3850D01*
X3900Y-6300D01*
Y-6350D01*
X3850Y-6400D01*
X3750D01*
X3700Y-6350D01*
X4000D02*
X4050Y-6400D01*
X4150D01*
X4200Y-6350D01*
Y-6150D01*
X4150Y-6100D01*
X4050D01*
X4000Y-6150D01*
Y-6200D01*
X4050Y-6250D01*
X4200D01*
X3550Y-4500D02*
X3500Y-4450D01*
X3400D01*
X3350Y-4500D01*
Y-4700D01*
X3400Y-4750D01*
X3500D01*
X3550Y-4700D01*
X3800Y-4750D02*
Y-4450D01*
X3650Y-4600D01*
X3850D01*
X3950Y-4500D02*
X4000Y-4450D01*
X4100D01*
X4150Y-4500D01*
Y-4700D01*
X4100Y-4750D01*
X4000D01*
X3950Y-4700D01*
Y-4500D01*
X2550Y-6400D02*
X2600Y-6350D01*
Y-6250D01*
X2550Y-6200D01*
X2350D01*
X2300Y-6250D01*
Y-6350D01*
X2350Y-6400D01*
X2300Y-6650D02*
X2600D01*
X2450Y-6500D01*
Y-6700D01*
X2300Y-6800D02*
Y-6900D01*
Y-6850D01*
X2600D01*
X2550Y-6800D01*
X950Y-4900D02*
X900Y-4850D01*
X800D01*
X750Y-4900D01*
Y-5100D01*
X800Y-5150D01*
X900D01*
X950Y-5100D01*
X1200Y-5150D02*
Y-4850D01*
X1050Y-5000D01*
X1250D01*
X1550Y-5150D02*
X1350D01*
X1550Y-4950D01*
Y-4900D01*
X1500Y-4850D01*
X1400D01*
X1350Y-4900D01*
X1600Y-5350D02*
X1550Y-5300D01*
X1450D01*
X1400Y-5350D01*
Y-5550D01*
X1450Y-5600D01*
X1550D01*
X1600Y-5550D01*
X1850Y-5600D02*
Y-5300D01*
X1700Y-5450D01*
X1900D01*
X2000Y-5350D02*
X2050Y-5300D01*
X2150D01*
X2200Y-5350D01*
Y-5400D01*
X2150Y-5450D01*
X2100D01*
X2150D01*
X2200Y-5500D01*
Y-5550D01*
X2150Y-5600D01*
X2050D01*
X2000Y-5550D01*
X-2500Y-4100D02*
X-2550Y-4150D01*
Y-4250D01*
X-2500Y-4300D01*
X-2300D01*
X-2250Y-4250D01*
Y-4150D01*
X-2300Y-4100D01*
X-2250Y-3850D02*
X-2550D01*
X-2400Y-4000D01*
Y-3800D01*
X-2250Y-3550D02*
X-2550D01*
X-2400Y-3700D01*
Y-3500D01*
X-1150Y-5600D02*
X-1200Y-5650D01*
Y-5750D01*
X-1150Y-5800D01*
X-950D01*
X-900Y-5750D01*
Y-5650D01*
X-950Y-5600D01*
X-900Y-5350D02*
X-1200D01*
X-1050Y-5500D01*
Y-5300D01*
X-1200Y-5000D02*
Y-5200D01*
X-1050D01*
X-1100Y-5100D01*
Y-5050D01*
X-1050Y-5000D01*
X-950D01*
X-900Y-5050D01*
Y-5150D01*
X-950Y-5200D01*
X-350Y-4100D02*
X-400Y-4050D01*
X-500D01*
X-550Y-4100D01*
Y-4300D01*
X-500Y-4350D01*
X-400D01*
X-350Y-4300D01*
X-100Y-4350D02*
Y-4050D01*
X-250Y-4200D01*
X-50D01*
X50Y-4050D02*
X250D01*
Y-4100D01*
X50Y-4300D01*
Y-4350D01*
X-1800Y1450D02*
X-1500D01*
Y1600D01*
X-1550Y1650D01*
X-1750D01*
X-1800Y1600D01*
Y1450D01*
X-1500Y1950D02*
Y1750D01*
X-1700Y1950D01*
X-1750D01*
X-1800Y1900D01*
Y1800D01*
X-1750Y1750D01*
X-2200Y1450D02*
X-1900D01*
Y1600D01*
X-1950Y1650D01*
X-2150D01*
X-2200Y1600D01*
Y1450D01*
X-2150Y1750D02*
X-2200Y1800D01*
Y1900D01*
X-2150Y1950D01*
X-2100D01*
X-2050Y1900D01*
Y1850D01*
Y1900D01*
X-2000Y1950D01*
X-1950D01*
X-1900Y1900D01*
Y1800D01*
X-1950Y1750D01*
X-3550Y5200D02*
Y5000D01*
X-3400D01*
Y5100D01*
Y5000D01*
X-3250D01*
X-3550Y5300D02*
X-3250D01*
Y5450D01*
X-3300Y5500D01*
X-3350D01*
X-3400Y5450D01*
Y5300D01*
Y5450D01*
X-3450Y5500D01*
X-3500D01*
X-3550Y5450D01*
Y5300D01*
X-3250Y5600D02*
Y5700D01*
Y5650D01*
X-3550D01*
X-3500Y5600D01*
X-2450Y5350D02*
Y5050D01*
X-2250D01*
X-2150D02*
X-2050D01*
X-2100D01*
Y5350D01*
X-2150Y5300D01*
X6500Y-850D02*
Y-1150D01*
X6700D01*
X7000D02*
X6800D01*
X7000Y-950D01*
Y-900D01*
X6950Y-850D01*
X6850D01*
X6800Y-900D01*
X6850Y-350D02*
Y-650D01*
X7050D01*
X7150Y-400D02*
X7200Y-350D01*
X7300D01*
X7350Y-400D01*
Y-450D01*
X7300Y-500D01*
X7250D01*
X7300D01*
X7350Y-550D01*
Y-600D01*
X7300Y-650D01*
X7200D01*
X7150Y-600D01*
X450Y-3850D02*
X150D01*
Y-3700D01*
X200Y-3650D01*
X300D01*
X350Y-3700D01*
Y-3850D01*
Y-3750D02*
X450Y-3650D01*
X200Y-3550D02*
X150Y-3500D01*
Y-3400D01*
X200Y-3350D01*
X250D01*
X300Y-3400D01*
Y-3450D01*
Y-3400D01*
X350Y-3350D01*
X400D01*
X450Y-3400D01*
Y-3500D01*
X400Y-3550D01*
X250Y1500D02*
X-50D01*
Y1650D01*
X0Y1700D01*
X100D01*
X150Y1650D01*
Y1500D01*
Y1600D02*
X250Y1700D01*
X0Y1800D02*
X-50Y1850D01*
Y1950D01*
X0Y2000D01*
X50D01*
X100Y1950D01*
X150Y2000D01*
X200D01*
X250Y1950D01*
Y1850D01*
X200Y1800D01*
X150D01*
X100Y1850D01*
X50Y1800D01*
X0D01*
X100Y1850D02*
Y1950D01*
X700Y1500D02*
X400D01*
Y1650D01*
X450Y1700D01*
X550D01*
X600Y1650D01*
Y1500D01*
Y1600D02*
X700Y1700D01*
X650Y1800D02*
X700Y1850D01*
Y1950D01*
X650Y2000D01*
X450D01*
X400Y1950D01*
Y1850D01*
X450Y1800D01*
X500D01*
X550Y1850D01*
Y2000D01*
X-2800Y1450D02*
X-3100D01*
Y1600D01*
X-3050Y1650D01*
X-2950D01*
X-2900Y1600D01*
Y1450D01*
Y1550D02*
X-2800Y1650D01*
Y1750D02*
Y1850D01*
Y1800D01*
X-3100D01*
X-3050Y1750D01*
Y2000D02*
X-3100Y2050D01*
Y2150D01*
X-3050Y2200D01*
X-2850D01*
X-2800Y2150D01*
Y2050D01*
X-2850Y2000D01*
X-3050D01*
X-2350Y1450D02*
X-2650D01*
Y1600D01*
X-2600Y1650D01*
X-2500D01*
X-2450Y1600D01*
Y1450D01*
Y1550D02*
X-2350Y1650D01*
Y1750D02*
Y1850D01*
Y1800D01*
X-2650D01*
X-2600Y1750D01*
X-2350Y2000D02*
Y2100D01*
Y2050D01*
X-2650D01*
X-2600Y2000D01*
X1200Y-3700D02*
X900D01*
Y-3550D01*
X950Y-3500D01*
X1050D01*
X1100Y-3550D01*
Y-3700D01*
Y-3600D02*
X1200Y-3500D01*
Y-3400D02*
Y-3300D01*
Y-3350D01*
X900D01*
X950Y-3400D01*
X1200Y-3000D02*
X900D01*
X1050Y-3150D01*
Y-2950D01*
X2300Y-3100D02*
Y-2800D01*
X2450D01*
X2500Y-2850D01*
Y-2950D01*
X2450Y-3000D01*
X2300D01*
X2400D02*
X2500Y-3100D01*
X2800D02*
X2600D01*
X2800Y-2900D01*
Y-2850D01*
X2750Y-2800D01*
X2650D01*
X2600Y-2850D01*
X2900D02*
X2950Y-2800D01*
X3050D01*
X3100Y-2850D01*
Y-3050D01*
X3050Y-3100D01*
X2950D01*
X2900Y-3050D01*
Y-2850D01*
X5600Y-2300D02*
Y-2000D01*
X5750D01*
X5800Y-2050D01*
Y-2150D01*
X5750Y-2200D01*
X5600D01*
X5700D02*
X5800Y-2300D01*
X6100D02*
X5900D01*
X6100Y-2100D01*
Y-2050D01*
X6050Y-2000D01*
X5950D01*
X5900Y-2050D01*
X6400Y-2300D02*
X6200D01*
X6400Y-2100D01*
Y-2050D01*
X6350Y-2000D01*
X6250D01*
X6200Y-2050D01*
X3850Y-5250D02*
Y-5500D01*
X3900Y-5550D01*
X4000D01*
X4050Y-5500D01*
Y-5250D01*
X4150D02*
X4350D01*
Y-5300D01*
X4150Y-5500D01*
Y-5550D01*
X1200Y450D02*
Y200D01*
X1250Y150D01*
X1350D01*
X1400Y200D01*
Y450D01*
X1500Y150D02*
X1600D01*
X1550D01*
Y450D01*
X1500Y400D01*
X-4250Y4600D02*
Y4350D01*
X-4200Y4300D01*
X-4100D01*
X-4050Y4350D01*
Y4600D01*
X-3750Y4300D02*
X-3950D01*
X-3750Y4500D01*
Y4550D01*
X-3800Y4600D01*
X-3900D01*
X-3950Y4550D01*
X3050Y-250D02*
Y-500D01*
X3100Y-550D01*
X3200D01*
X3250Y-500D01*
Y-250D01*
X3500Y-550D02*
Y-250D01*
X3350Y-400D01*
X3550D01*
X1250Y-1700D02*
Y-1750D01*
X1350Y-1850D01*
X1450Y-1750D01*
Y-1700D01*
X1350Y-1850D02*
Y-2000D01*
X1550D02*
X1650D01*
X1600D01*
Y-1700D01*
X1550Y-1750D01*
X4450Y-3000D02*
Y-3050D01*
X4550Y-3150D01*
X4650Y-3050D01*
Y-3000D01*
X4550Y-3150D02*
Y-3300D01*
X4950D02*
X4750D01*
X4950Y-3100D01*
Y-3050D01*
X4900Y-3000D01*
X4800D01*
X4750Y-3050D01*
X-550Y-3500D02*
Y-3550D01*
X-450Y-3650D01*
X-350Y-3550D01*
Y-3500D01*
X-450Y-3650D02*
Y-3800D01*
X-250Y-3550D02*
X-200Y-3500D01*
X-100D01*
X-50Y-3550D01*
Y-3600D01*
X-100Y-3650D01*
X-150D01*
X-100D01*
X-50Y-3700D01*
Y-3750D01*
X-100Y-3800D01*
X-200D01*
X-250Y-3750D01*
X1850Y-3350D02*
Y-3400D01*
X1950Y-3500D01*
X2050Y-3400D01*
Y-3350D01*
X1950Y-3500D02*
Y-3650D01*
X2300D02*
Y-3350D01*
X2150Y-3500D01*
X2350D01*
X-500Y-5500D02*
Y-5800D01*
X-350D01*
X-300Y-5750D01*
Y-5700D01*
X-350Y-5650D01*
X-500D01*
X-350D01*
X-300Y-5600D01*
Y-5550D01*
X-350Y-5500D01*
X-500D01*
X-0Y-5800D02*
X-200D01*
X-0Y-5600D01*
Y-5550D01*
X-50Y-5500D01*
X-150D01*
X-200Y-5550D01*
X-350Y-6300D02*
Y-6100D01*
X-250Y-6000D01*
X-150Y-6100D01*
Y-6300D01*
Y-6150D01*
X-350D01*
X-50Y-6300D02*
Y-6000D01*
X150Y-6300D01*
Y-6000D01*
X250D02*
X450D01*
X350D01*
Y-6300D01*
X550D02*
X650D01*
X600D01*
Y-6000D01*
X550Y-6050D01*
X1950Y5500D02*
X1900Y5550D01*
X1800D01*
X1750Y5500D01*
Y5300D01*
X1800Y5250D01*
X1900D01*
X1950Y5300D01*
Y5400D01*
X1850D01*
X2050Y5250D02*
Y5550D01*
X2250Y5250D01*
Y5550D01*
X2350D02*
Y5250D01*
X2500D01*
X2550Y5300D01*
Y5500D01*
X2500Y5550D01*
X2350D01*
X3650Y4000D02*
Y4300D01*
X3800D01*
X3850Y4250D01*
Y4150D01*
X3800Y4100D01*
X3650D01*
X3750D02*
X3850Y4000D01*
X4150Y4250D02*
X4100Y4300D01*
X4000D01*
X3950Y4250D01*
Y4200D01*
X4000Y4150D01*
X4100D01*
X4150Y4100D01*
Y4050D01*
X4100Y4000D01*
X4000D01*
X3950Y4050D01*
X4250Y4300D02*
X4450D01*
X4350D01*
Y4000D01*
X5200Y4850D02*
X5400D01*
X5300D01*
Y4550D01*
X5700Y4800D02*
X5650Y4850D01*
X5550D01*
X5500Y4800D01*
Y4600D01*
X5550Y4550D01*
X5650D01*
X5700Y4600D01*
X5800Y4850D02*
Y4550D01*
Y4650D01*
X6000Y4850D01*
X5850Y4700D01*
X6000Y4550D01*
X1850Y7200D02*
X2050D01*
X1950D01*
Y6900D01*
X2150D02*
Y7200D01*
X2250Y7100D01*
X2350Y7200D01*
Y6900D01*
X2650Y7150D02*
X2600Y7200D01*
X2500D01*
X2450Y7150D01*
Y7100D01*
X2500Y7050D01*
X2600D01*
X2650Y7000D01*
Y6950D01*
X2600Y6900D01*
X2500D01*
X2450Y6950D01*
X-6050Y2300D02*
X-5800D01*
X-5750Y2350D01*
Y2450D01*
X-5800Y2500D01*
X-6050D01*
X-6000Y2800D02*
X-6050Y2750D01*
Y2650D01*
X-6000Y2600D01*
X-5950D01*
X-5900Y2650D01*
Y2750D01*
X-5850Y2800D01*
X-5800D01*
X-5750Y2750D01*
Y2650D01*
X-5800Y2600D01*
X-6050Y2900D02*
X-5750D01*
Y3050D01*
X-5800Y3100D01*
X-5850D01*
X-5900Y3050D01*
Y2900D01*
Y3050D01*
X-5950Y3100D01*
X-6000D01*
X-6050Y3050D01*
Y2900D01*
Y200D02*
X-5850D01*
X-5750Y300D01*
X-5850Y400D01*
X-6050D01*
Y500D02*
Y600D01*
Y550D01*
X-5750D01*
Y500D01*
Y600D01*
Y750D02*
X-6050D01*
X-5750Y950D01*
X-6050D01*
D67*
X1266Y-6135D02*
D03*
D68*
X6199Y373D02*
D03*
X-6199Y-373D02*
D03*
M02*
