%FSLAX24Y24*%
%MOIN*%
G70*
G01*
G75*
G04 Layer_Color=32896*
%ADD10C,0.0080*%
%ADD11R,0.0650X0.1122*%
%ADD12R,0.0354X0.0118*%
G04:AMPARAMS|DCode=13|XSize=29.9mil|YSize=50mil|CornerRadius=0mil|HoleSize=0mil|Usage=FLASHONLY|Rotation=327.000|XOffset=0mil|YOffset=0mil|HoleType=Round|Shape=Rectangle|*
%AMROTATEDRECTD13*
4,1,4,-0.0262,-0.0128,0.0011,0.0291,0.0262,0.0128,-0.0011,-0.0291,-0.0262,-0.0128,0.0*
%
%ADD13ROTATEDRECTD13*%

%ADD14R,0.2598X0.2598*%
%ADD15O,0.0354X0.0098*%
%ADD16O,0.0098X0.0354*%
%ADD17O,0.0098X0.0335*%
%ADD18O,0.0335X0.0098*%
%ADD19R,0.1417X0.1417*%
G04:AMPARAMS|DCode=20|XSize=50mil|YSize=100mil|CornerRadius=0mil|HoleSize=0mil|Usage=FLASHONLY|Rotation=56.000|XOffset=0mil|YOffset=0mil|HoleType=Round|Shape=Rectangle|*
%AMROTATEDRECTD20*
4,1,4,0.0275,-0.0487,-0.0554,0.0072,-0.0275,0.0487,0.0554,-0.0072,0.0275,-0.0487,0.0*
%
%ADD20ROTATEDRECTD20*%

%ADD21R,0.0276X0.0079*%
%ADD22R,0.0157X0.0236*%
%ADD23R,0.0591X0.1024*%
%ADD24R,0.0236X0.0157*%
%ADD25R,0.0138X0.0217*%
%ADD26R,0.0335X0.0118*%
%ADD27R,0.0197X0.0315*%
%ADD28R,0.0551X0.0453*%
%ADD29R,0.0197X0.0354*%
%ADD30R,0.0394X0.0197*%
%ADD31R,0.0374X0.0335*%
%ADD32R,0.2126X0.0374*%
%ADD33R,0.1378X0.0768*%
%ADD34R,0.0984X0.1260*%
G04:AMPARAMS|DCode=35|XSize=28.7mil|YSize=135mil|CornerRadius=0mil|HoleSize=0mil|Usage=FLASHONLY|Rotation=108.600|XOffset=0mil|YOffset=0mil|HoleType=Round|Shape=Rectangle|*
%AMROTATEDRECTD35*
4,1,4,0.0686,0.0079,-0.0594,-0.0352,-0.0686,-0.0079,0.0594,0.0352,0.0686,0.0079,0.0*
%
%ADD35ROTATEDRECTD35*%

%ADD36C,0.0130*%
%ADD37C,0.0060*%
%ADD38C,0.0200*%
%ADD39C,0.0100*%
%ADD40C,0.0300*%
%ADD41C,0.0123*%
%ADD42C,0.0630*%
%ADD43R,0.0591X0.0591*%
%ADD44C,0.0591*%
%ADD45C,0.0217*%
%ADD46C,0.0315*%
%ADD47C,0.0200*%
%ADD48C,0.0400*%
%ADD49C,0.0300*%
%ADD50C,0.0220*%
%ADD51R,0.0354X0.0157*%
%ADD52O,0.0315X0.0098*%
%ADD53O,0.0098X0.0315*%
%ADD54R,0.1299X0.1299*%
G04:AMPARAMS|DCode=55|XSize=189mil|YSize=236.2mil|CornerRadius=0mil|HoleSize=0mil|Usage=FLASHONLY|Rotation=237.000|XOffset=0mil|YOffset=0mil|HoleType=Round|Shape=Rectangle|*
%AMROTATEDRECTD55*
4,1,4,-0.0476,0.1436,0.1505,0.0149,0.0476,-0.1436,-0.1505,-0.0149,-0.0476,0.1436,0.0*
%
%ADD55ROTATEDRECTD55*%

G04:AMPARAMS|DCode=56|XSize=15.7mil|YSize=31.5mil|CornerRadius=0mil|HoleSize=0mil|Usage=FLASHONLY|Rotation=237.000|XOffset=0mil|YOffset=0mil|HoleType=Round|Shape=Round|*
%AMOVALD56*
21,1,0.0157,0.0157,0.0000,0.0000,327.0*
1,1,0.0157,-0.0066,0.0043*
1,1,0.0157,0.0066,-0.0043*
%
%ADD56OVALD56*%

%ADD57R,0.1102X0.0492*%
%ADD58R,0.0157X0.0532*%
%ADD59R,0.0748X0.0630*%
%ADD60R,0.0630X0.0551*%
%ADD61R,0.0354X0.0197*%
%ADD62C,0.0150*%
%ADD63C,0.0098*%
%ADD64C,0.0039*%
%ADD65C,0.0079*%
%ADD66C,0.0050*%
%ADD67R,0.0433X0.0551*%
G04:AMPARAMS|DCode=68|XSize=54mil|YSize=31.5mil|CornerRadius=0mil|HoleSize=0mil|Usage=FLASHONLY|Rotation=108.600|XOffset=0mil|YOffset=0mil|HoleType=Round|Shape=Rectangle|*
%AMROTATEDRECTD68*
4,1,4,0.0236,-0.0205,-0.0063,-0.0306,-0.0236,0.0205,0.0063,0.0306,0.0236,-0.0205,0.0*
%
%ADD68ROTATEDRECTD68*%

%ADD69R,0.0710X0.1182*%
%ADD70R,0.0414X0.0178*%
G04:AMPARAMS|DCode=71|XSize=35.9mil|YSize=56mil|CornerRadius=0mil|HoleSize=0mil|Usage=FLASHONLY|Rotation=327.000|XOffset=0mil|YOffset=0mil|HoleType=Round|Shape=Rectangle|*
%AMROTATEDRECTD71*
4,1,4,-0.0303,-0.0137,0.0002,0.0333,0.0303,0.0137,-0.0002,-0.0333,-0.0303,-0.0137,0.0*
%
%ADD71ROTATEDRECTD71*%

%ADD72R,0.2658X0.2658*%
%ADD73O,0.0414X0.0158*%
%ADD74O,0.0158X0.0414*%
%ADD75O,0.0158X0.0395*%
%ADD76O,0.0395X0.0158*%
%ADD77R,0.1477X0.1477*%
G04:AMPARAMS|DCode=78|XSize=56mil|YSize=106mil|CornerRadius=0mil|HoleSize=0mil|Usage=FLASHONLY|Rotation=56.000|XOffset=0mil|YOffset=0mil|HoleType=Round|Shape=Rectangle|*
%AMROTATEDRECTD78*
4,1,4,0.0283,-0.0529,-0.0596,0.0064,-0.0283,0.0529,0.0596,-0.0064,0.0283,-0.0529,0.0*
%
%ADD78ROTATEDRECTD78*%

%ADD79R,0.0336X0.0139*%
%ADD80R,0.0217X0.0296*%
%ADD81R,0.0651X0.1084*%
%ADD82R,0.0296X0.0217*%
%ADD83R,0.0198X0.0277*%
%ADD84R,0.0395X0.0178*%
%ADD85R,0.0257X0.0375*%
%ADD86R,0.0611X0.0513*%
%ADD87R,0.0257X0.0414*%
%ADD88R,0.0454X0.0257*%
%ADD89R,0.0434X0.0395*%
%ADD90R,0.2186X0.0434*%
%ADD91R,0.1438X0.0828*%
%ADD92R,0.1044X0.1320*%
G04:AMPARAMS|DCode=93|XSize=34.7mil|YSize=141mil|CornerRadius=0mil|HoleSize=0mil|Usage=FLASHONLY|Rotation=108.600|XOffset=0mil|YOffset=0mil|HoleType=Round|Shape=Rectangle|*
%AMROTATEDRECTD93*
4,1,4,0.0724,0.0060,-0.0613,-0.0390,-0.0724,-0.0060,0.0613,0.0390,0.0724,0.0060,0.0*
%
%ADD93ROTATEDRECTD93*%

%ADD94C,0.0690*%
%ADD95R,0.0651X0.0651*%
%ADD96C,0.0651*%
%ADD97C,0.0297*%
%ADD98C,0.0160*%
%ADD99O,0.0375X0.0158*%
%ADD100O,0.0158X0.0375*%
%ADD101R,0.1359X0.1359*%
G04:AMPARAMS|DCode=102|XSize=195mil|YSize=242.2mil|CornerRadius=0mil|HoleSize=0mil|Usage=FLASHONLY|Rotation=237.000|XOffset=0mil|YOffset=0mil|HoleType=Round|Shape=Rectangle|*
%AMROTATEDRECTD102*
4,1,4,-0.0485,0.1477,0.1547,0.0158,0.0485,-0.1477,-0.1547,-0.0158,-0.0485,0.1477,0.0*
%
%ADD102ROTATEDRECTD102*%

G04:AMPARAMS|DCode=103|XSize=21.7mil|YSize=37.5mil|CornerRadius=0mil|HoleSize=0mil|Usage=FLASHONLY|Rotation=237.000|XOffset=0mil|YOffset=0mil|HoleType=Round|Shape=Round|*
%AMOVALD103*
21,1,0.0157,0.0217,0.0000,0.0000,327.0*
1,1,0.0217,-0.0066,0.0043*
1,1,0.0217,0.0066,-0.0043*
%
%ADD103OVALD103*%

%ADD104R,0.1162X0.0552*%
%ADD105R,0.0236X0.0610*%
%ADD106R,0.0827X0.0709*%
%ADD107R,0.0709X0.0630*%
%ADD108R,0.0414X0.0257*%
%ADD109C,0.0395*%
D39*
X3785Y-4157D02*
G03*
X3785Y-4157I-22J0D01*
G01*
D63*
X-1909Y3051D02*
G03*
X-1909Y3051I-49J0D01*
G01*
X-1245Y-5301D02*
G03*
X-1245Y-5301I-49J0D01*
G01*
D64*
X3576Y-5033D02*
Y-4954D01*
X3024Y-5033D02*
X3576D01*
X3024D02*
Y-4964D01*
X3576Y-4246D02*
Y-4167D01*
X3024D02*
X3576D01*
X3024Y-4236D02*
Y-4167D01*
Y-4748D02*
Y-4452D01*
X5961Y-2358D02*
X6039D01*
X5961Y-2142D02*
X6039D01*
X760Y-3357D02*
Y-3278D01*
X977Y-3357D02*
Y-3278D01*
X310Y-3707D02*
Y-3628D01*
X527Y-3707D02*
Y-3628D01*
X-190Y-3707D02*
Y-3628D01*
X27Y-3707D02*
Y-3628D01*
X-740Y-3707D02*
Y-3628D01*
X-523Y-3707D02*
Y-3628D01*
X-1140Y-3907D02*
Y-3828D01*
X-923Y-3907D02*
Y-3828D01*
X-1558Y-3789D02*
Y-3711D01*
X-1342Y-3789D02*
Y-3711D01*
X-2689Y-3558D02*
X-2611D01*
X-2689Y-3342D02*
X-2611D01*
X-2739Y-2892D02*
X-2661D01*
X-2739Y-3108D02*
X-2661D01*
X-3089Y-2492D02*
X-3011D01*
X-3089Y-2708D02*
X-3011D01*
X-3158Y-1339D02*
Y-1261D01*
X-2942Y-1339D02*
Y-1261D01*
X-2452Y-1319D02*
Y-1241D01*
X-2668Y-1319D02*
Y-1241D01*
X-3758Y-339D02*
Y-261D01*
X-3542Y-339D02*
Y-261D01*
X-4208Y-339D02*
Y-261D01*
X-3992Y-339D02*
Y-261D01*
X-4658Y-339D02*
Y-261D01*
X-4442Y-339D02*
Y-261D01*
X-5108Y-339D02*
Y-261D01*
X-4892Y-339D02*
Y-261D01*
X-5558Y-339D02*
Y-261D01*
X-5342Y-339D02*
Y-261D01*
X-1022Y1311D02*
Y1389D01*
X-1238Y1311D02*
Y1389D01*
X1561Y-4508D02*
X1639D01*
X1561Y-4292D02*
X1639D01*
X1561Y-4058D02*
X1639D01*
X1561Y-3842D02*
X1639D01*
X-1889Y2558D02*
X-1811D01*
X-1889Y2342D02*
X-1811D01*
X1150Y4200D02*
X1550D01*
X1183Y3612D02*
Y3888D01*
X1527Y3612D02*
Y3888D01*
X692Y3811D02*
Y3889D01*
X908Y3811D02*
Y3889D01*
X761Y4642D02*
X839D01*
X761Y4858D02*
X839D01*
X1261Y5142D02*
X1339D01*
X1261Y5358D02*
X1339D01*
X649Y5181D02*
Y5319D01*
X551Y5181D02*
X620Y5250D01*
X551Y5319D02*
X620Y5250D01*
X551Y5181D02*
Y5319D01*
X-2092Y5461D02*
Y5539D01*
X-2308Y5461D02*
Y5539D01*
X-1542Y5461D02*
Y5539D01*
X-1758Y5461D02*
Y5539D01*
X-1208Y5461D02*
Y5539D01*
X-992Y5461D02*
Y5539D01*
X108Y5361D02*
Y5439D01*
X-108Y5361D02*
Y5439D01*
X-292Y5361D02*
Y5439D01*
X-508Y5361D02*
Y5439D01*
X3358Y-639D02*
Y-561D01*
X3142Y-639D02*
Y-561D01*
X5712Y-767D02*
X5988D01*
X5712Y-423D02*
X5988D01*
X-4542Y-3339D02*
Y-3261D01*
X-4758Y-3339D02*
Y-3261D01*
X-1542Y-6589D02*
Y-6511D01*
X-1758Y-6589D02*
Y-6511D01*
X1458Y261D02*
Y339D01*
X1242Y261D02*
Y339D01*
X1008Y611D02*
Y689D01*
X792Y611D02*
Y689D01*
X4930Y3649D02*
X6135Y67D01*
X7870Y651D01*
X6665Y4233D02*
X7870Y651D01*
X4930Y3649D02*
X6665Y4233D01*
X-7870Y-651D02*
X-6135Y-67D01*
X-4930Y-3649D01*
X-6665Y-4233D02*
X-4930Y-3649D01*
X-7870Y-651D02*
X-6665Y-4233D01*
D65*
X296Y2716D02*
X424D01*
Y2844D01*
X296Y4764D02*
X424D01*
Y4636D02*
Y4764D01*
X-1624D02*
X-1496D01*
X-1624Y4636D02*
Y4764D01*
Y2716D02*
X-1496D01*
X-1624D02*
Y2844D01*
X-1576Y-5373D02*
X-1427Y-5144D01*
X-2825Y-4236D02*
X-1427Y-5144D01*
X-2799Y-7257D02*
X-2650Y-7028D01*
X-4198Y-6349D02*
X-2799Y-7257D01*
X-5573Y-5456D02*
X-4175Y-6364D01*
X-5573Y-5456D02*
X-5424Y-5227D01*
X-4350Y-3572D02*
X-4201Y-3343D01*
X-2802Y-4251D01*
X3022Y2753D02*
Y3147D01*
X1998Y2753D02*
Y3147D01*
D66*
X-1555Y5993D02*
X-1545Y5983D01*
X1555D01*
X-1555Y5993D02*
Y7971D01*
X1555Y5983D02*
Y7971D01*
X-1555D02*
X1555D01*
X-950Y-4400D02*
X-900Y-4450D01*
Y-4550D01*
X-950Y-4600D01*
X-1150D01*
X-1200Y-4550D01*
Y-4450D01*
X-1150Y-4400D01*
X-1200Y-4300D02*
Y-4200D01*
Y-4250D01*
X-900D01*
X-950Y-4300D01*
X600Y800D02*
X650Y750D01*
Y650D01*
X600Y600D01*
X400D01*
X350Y650D01*
Y750D01*
X400Y800D01*
X350Y1100D02*
Y900D01*
X550Y1100D01*
X600D01*
X650Y1050D01*
Y950D01*
X600Y900D01*
X-500Y-4400D02*
X-450Y-4450D01*
Y-4550D01*
X-500Y-4600D01*
X-700D01*
X-750Y-4550D01*
Y-4450D01*
X-700Y-4400D01*
X-500Y-4300D02*
X-450Y-4250D01*
Y-4150D01*
X-500Y-4100D01*
X-550D01*
X-600Y-4150D01*
Y-4200D01*
Y-4150D01*
X-650Y-4100D01*
X-700D01*
X-750Y-4150D01*
Y-4250D01*
X-700Y-4300D01*
X-1350Y-4400D02*
X-1300Y-4450D01*
Y-4550D01*
X-1350Y-4600D01*
X-1550D01*
X-1600Y-4550D01*
Y-4450D01*
X-1550Y-4400D01*
X-1600Y-4150D02*
X-1300D01*
X-1450Y-4300D01*
Y-4100D01*
X500Y-4400D02*
X550Y-4450D01*
Y-4550D01*
X500Y-4600D01*
X300D01*
X250Y-4550D01*
Y-4450D01*
X300Y-4400D01*
X550Y-4100D02*
Y-4300D01*
X400D01*
X450Y-4200D01*
Y-4150D01*
X400Y-4100D01*
X300D01*
X250Y-4150D01*
Y-4250D01*
X300Y-4300D01*
X-650Y1250D02*
X-600Y1200D01*
Y1100D01*
X-650Y1050D01*
X-850D01*
X-900Y1100D01*
Y1200D01*
X-850Y1250D01*
X-600Y1550D02*
X-650Y1450D01*
X-750Y1350D01*
X-850D01*
X-900Y1400D01*
Y1500D01*
X-850Y1550D01*
X-800D01*
X-750Y1500D01*
Y1350D01*
X-0Y-4400D02*
X50Y-4450D01*
Y-4550D01*
X-0Y-4600D01*
X-200D01*
X-250Y-4550D01*
Y-4450D01*
X-200Y-4400D01*
X50Y-4300D02*
Y-4100D01*
X-0D01*
X-200Y-4300D01*
X-250D01*
X-2100Y-1350D02*
X-2050Y-1400D01*
Y-1500D01*
X-2100Y-1550D01*
X-2300D01*
X-2350Y-1500D01*
Y-1400D01*
X-2300Y-1350D01*
Y-1250D02*
X-2350Y-1200D01*
Y-1100D01*
X-2300Y-1050D01*
X-2100D01*
X-2050Y-1100D01*
Y-1200D01*
X-2100Y-1250D01*
X-2150D01*
X-2200Y-1200D01*
Y-1050D01*
X1400Y-3050D02*
X1450Y-3100D01*
Y-3200D01*
X1400Y-3250D01*
X1200D01*
X1150Y-3200D01*
Y-3100D01*
X1200Y-3050D01*
X1150Y-2950D02*
Y-2850D01*
Y-2900D01*
X1450D01*
X1400Y-2950D01*
Y-2700D02*
X1450Y-2650D01*
Y-2550D01*
X1400Y-2500D01*
X1200D01*
X1150Y-2550D01*
Y-2650D01*
X1200Y-2700D01*
X1400D01*
X1800Y100D02*
X1850Y50D01*
Y-50D01*
X1800Y-100D01*
X1600D01*
X1550Y-50D01*
Y50D01*
X1600Y100D01*
X1550Y200D02*
Y300D01*
Y250D01*
X1850D01*
X1800Y200D01*
X1550Y450D02*
Y550D01*
Y500D01*
X1850D01*
X1800Y450D01*
X-3250Y-3250D02*
X-3200Y-3200D01*
X-3100D01*
X-3050Y-3250D01*
Y-3450D01*
X-3100Y-3500D01*
X-3200D01*
X-3250Y-3450D01*
X-3350Y-3500D02*
X-3450D01*
X-3400D01*
Y-3200D01*
X-3350Y-3250D01*
X-3800Y-3500D02*
X-3600D01*
X-3800Y-3300D01*
Y-3250D01*
X-3750Y-3200D01*
X-3650D01*
X-3600Y-3250D01*
X2920Y4400D02*
X2970Y4450D01*
X3070D01*
X3120Y4400D01*
Y4200D01*
X3070Y4150D01*
X2970D01*
X2920Y4200D01*
X2820Y4150D02*
X2720D01*
X2770D01*
Y4450D01*
X2820Y4400D01*
X2420Y4150D02*
Y4450D01*
X2570Y4300D01*
X2370D01*
X1702Y4828D02*
X1752Y4878D01*
X1852D01*
X1902Y4828D01*
Y4628D01*
X1852Y4578D01*
X1752D01*
X1702Y4628D01*
X1602Y4578D02*
X1502D01*
X1552D01*
Y4878D01*
X1602Y4828D01*
X1352Y4628D02*
X1302Y4578D01*
X1202D01*
X1152Y4628D01*
Y4828D01*
X1202Y4878D01*
X1302D01*
X1352Y4828D01*
Y4778D01*
X1302Y4728D01*
X1152D01*
X1450Y2650D02*
X1500Y2600D01*
Y2500D01*
X1450Y2450D01*
X1250D01*
X1200Y2500D01*
Y2600D01*
X1250Y2650D01*
X1200Y2950D02*
Y2750D01*
X1400Y2950D01*
X1450D01*
X1500Y2900D01*
Y2800D01*
X1450Y2750D01*
Y3050D02*
X1500Y3100D01*
Y3200D01*
X1450Y3250D01*
X1250D01*
X1200Y3200D01*
Y3100D01*
X1250Y3050D01*
X1450D01*
X-3750Y5400D02*
X-3700Y5350D01*
Y5250D01*
X-3750Y5200D01*
X-3950D01*
X-4000Y5250D01*
Y5350D01*
X-3950Y5400D01*
X-4000Y5700D02*
Y5500D01*
X-3800Y5700D01*
X-3750D01*
X-3700Y5650D01*
Y5550D01*
X-3750Y5500D01*
X-4000Y5800D02*
Y5900D01*
Y5850D01*
X-3700D01*
X-3750Y5800D01*
X-4200Y5400D02*
X-4150Y5350D01*
Y5250D01*
X-4200Y5200D01*
X-4400D01*
X-4450Y5250D01*
Y5350D01*
X-4400Y5400D01*
X-4450Y5700D02*
Y5500D01*
X-4250Y5700D01*
X-4200D01*
X-4150Y5650D01*
Y5550D01*
X-4200Y5500D01*
X-4450Y6000D02*
Y5800D01*
X-4250Y6000D01*
X-4200D01*
X-4150Y5950D01*
Y5850D01*
X-4200Y5800D01*
X900Y2900D02*
X950Y2850D01*
Y2750D01*
X900Y2700D01*
X700D01*
X650Y2750D01*
Y2850D01*
X700Y2900D01*
X650Y3200D02*
Y3000D01*
X850Y3200D01*
X900D01*
X950Y3150D01*
Y3050D01*
X900Y3000D01*
Y3300D02*
X950Y3350D01*
Y3450D01*
X900Y3500D01*
X850D01*
X800Y3450D01*
Y3400D01*
Y3450D01*
X750Y3500D01*
X700D01*
X650Y3450D01*
Y3350D01*
X700Y3300D01*
X6150Y-2550D02*
X6200Y-2500D01*
X6300D01*
X6350Y-2550D01*
Y-2750D01*
X6300Y-2800D01*
X6200D01*
X6150Y-2750D01*
X5850Y-2800D02*
X6050D01*
X5850Y-2600D01*
Y-2550D01*
X5900Y-2500D01*
X6000D01*
X6050Y-2550D01*
X5750D02*
X5700Y-2500D01*
X5600D01*
X5550Y-2550D01*
Y-2600D01*
X5600Y-2650D01*
X5550Y-2700D01*
Y-2750D01*
X5600Y-2800D01*
X5700D01*
X5750Y-2750D01*
Y-2700D01*
X5700Y-2650D01*
X5750Y-2600D01*
Y-2550D01*
X5700Y-2650D02*
X5600D01*
X6150Y-950D02*
X6200Y-900D01*
X6300D01*
X6350Y-950D01*
Y-1150D01*
X6300Y-1200D01*
X6200D01*
X6150Y-1150D01*
X6050Y-950D02*
X6000Y-900D01*
X5900D01*
X5850Y-950D01*
Y-1000D01*
X5900Y-1050D01*
X5950D01*
X5900D01*
X5850Y-1100D01*
Y-1150D01*
X5900Y-1200D01*
X6000D01*
X6050Y-1150D01*
X5550Y-1200D02*
X5750D01*
X5550Y-1000D01*
Y-950D01*
X5600Y-900D01*
X5700D01*
X5750Y-950D01*
X3800Y-750D02*
X3850Y-800D01*
Y-900D01*
X3800Y-950D01*
X3600D01*
X3550Y-900D01*
Y-800D01*
X3600Y-750D01*
X3800Y-650D02*
X3850Y-600D01*
Y-500D01*
X3800Y-450D01*
X3750D01*
X3700Y-500D01*
Y-550D01*
Y-500D01*
X3650Y-450D01*
X3600D01*
X3550Y-500D01*
Y-600D01*
X3600Y-650D01*
X3550Y-200D02*
X3850D01*
X3700Y-350D01*
Y-150D01*
X-4500Y-2700D02*
X-4450Y-2750D01*
Y-2850D01*
X-4500Y-2900D01*
X-4700D01*
X-4750Y-2850D01*
Y-2750D01*
X-4700Y-2700D01*
X-4750Y-2450D02*
X-4450D01*
X-4600Y-2600D01*
Y-2400D01*
X-4450Y-2100D02*
X-4500Y-2200D01*
X-4600Y-2300D01*
X-4700D01*
X-4750Y-2250D01*
Y-2150D01*
X-4700Y-2100D01*
X-4650D01*
X-4600Y-2150D01*
Y-2300D01*
X900Y5800D02*
Y5500D01*
X750D01*
X700Y5550D01*
Y5750D01*
X750Y5800D01*
X900D01*
X600Y5500D02*
X500D01*
X550D01*
Y5800D01*
X600Y5750D01*
X-3300Y5400D02*
Y5200D01*
X-3450D01*
Y5300D01*
Y5200D01*
X-3600D01*
X-3300Y5500D02*
X-3600D01*
Y5650D01*
X-3550Y5700D01*
X-3500D01*
X-3450Y5650D01*
Y5500D01*
Y5650D01*
X-3400Y5700D01*
X-3350D01*
X-3300Y5650D01*
Y5500D01*
X-3600Y6000D02*
Y5800D01*
X-3400Y6000D01*
X-3350D01*
X-3300Y5950D01*
Y5850D01*
X-3350Y5800D01*
X-3100Y-3100D02*
Y-2800D01*
X-3250D01*
X-3300Y-2850D01*
Y-2950D01*
X-3250Y-3000D01*
X-3100D01*
X-3200D02*
X-3300Y-3100D01*
X-3400D02*
X-3500D01*
X-3450D01*
Y-2800D01*
X-3400Y-2850D01*
X-3650Y-2750D02*
Y-2450D01*
X-3800D01*
X-3850Y-2500D01*
Y-2600D01*
X-3800Y-2650D01*
X-3650D01*
X-3750D02*
X-3850Y-2750D01*
X-4150D02*
X-3950D01*
X-4150Y-2550D01*
Y-2500D01*
X-4100Y-2450D01*
X-4000D01*
X-3950Y-2500D01*
X1550Y5500D02*
Y5800D01*
X1400D01*
X1350Y5750D01*
Y5650D01*
X1400Y5600D01*
X1550D01*
X1450D02*
X1350Y5500D01*
X1100D02*
Y5800D01*
X1250Y5650D01*
X1050D01*
X-2800Y5200D02*
X-2500D01*
Y5350D01*
X-2550Y5400D01*
X-2650D01*
X-2700Y5350D01*
Y5200D01*
Y5300D02*
X-2800Y5400D01*
X-2500Y5700D02*
Y5500D01*
X-2650D01*
X-2600Y5600D01*
Y5650D01*
X-2650Y5700D01*
X-2750D01*
X-2800Y5650D01*
Y5550D01*
X-2750Y5500D01*
X-2250Y2300D02*
Y2600D01*
X-2400D01*
X-2450Y2550D01*
Y2450D01*
X-2400Y2400D01*
X-2250D01*
X-2350D02*
X-2450Y2300D01*
X-2750Y2600D02*
X-2650Y2550D01*
X-2550Y2450D01*
Y2350D01*
X-2600Y2300D01*
X-2700D01*
X-2750Y2350D01*
Y2400D01*
X-2700Y2450D01*
X-2550D01*
X-3200Y5200D02*
X-2900D01*
Y5350D01*
X-2950Y5400D01*
X-3050D01*
X-3100Y5350D01*
Y5200D01*
Y5300D02*
X-3200Y5400D01*
X-2900Y5500D02*
Y5700D01*
X-2950D01*
X-3150Y5500D01*
X-3200D01*
X1950Y-5100D02*
Y-4800D01*
X1800D01*
X1750Y-4850D01*
Y-4950D01*
X1800Y-5000D01*
X1950D01*
X1850D02*
X1750Y-5100D01*
X1650D02*
X1550D01*
X1600D01*
Y-4800D01*
X1650Y-4850D01*
X1200Y-5100D02*
X1400D01*
X1200Y-4900D01*
Y-4850D01*
X1250Y-4800D01*
X1350D01*
X1400Y-4850D01*
X2750Y-4050D02*
Y-3750D01*
X2600D01*
X2550Y-3800D01*
Y-3900D01*
X2600Y-3950D01*
X2750D01*
X2650D02*
X2550Y-4050D01*
X2450D02*
X2350D01*
X2400D01*
Y-3750D01*
X2450Y-3800D01*
X2200D02*
X2150Y-3750D01*
X2050D01*
X2000Y-3800D01*
Y-3850D01*
X2050Y-3900D01*
X2100D01*
X2050D01*
X2000Y-3950D01*
Y-4000D01*
X2050Y-4050D01*
X2150D01*
X2200Y-4000D01*
X-5600Y150D02*
X-5300D01*
Y300D01*
X-5350Y350D01*
X-5450D01*
X-5500Y300D01*
Y150D01*
Y250D02*
X-5600Y350D01*
Y450D02*
Y550D01*
Y500D01*
X-5300D01*
X-5350Y450D01*
X-5300Y900D02*
Y700D01*
X-5450D01*
X-5400Y800D01*
Y850D01*
X-5450Y900D01*
X-5550D01*
X-5600Y850D01*
Y750D01*
X-5550Y700D01*
X-5150Y150D02*
X-4850D01*
Y300D01*
X-4900Y350D01*
X-5000D01*
X-5050Y300D01*
Y150D01*
Y250D02*
X-5150Y350D01*
Y450D02*
Y550D01*
Y500D01*
X-4850D01*
X-4900Y450D01*
X-4850Y900D02*
X-4900Y800D01*
X-5000Y700D01*
X-5100D01*
X-5150Y750D01*
Y850D01*
X-5100Y900D01*
X-5050D01*
X-5000Y850D01*
Y700D01*
X-4700Y150D02*
X-4400D01*
Y300D01*
X-4450Y350D01*
X-4550D01*
X-4600Y300D01*
Y150D01*
Y250D02*
X-4700Y350D01*
Y450D02*
Y550D01*
Y500D01*
X-4400D01*
X-4450Y450D01*
X-4400Y700D02*
Y900D01*
X-4450D01*
X-4650Y700D01*
X-4700D01*
X-4250Y150D02*
X-3950D01*
Y300D01*
X-4000Y350D01*
X-4100D01*
X-4150Y300D01*
Y150D01*
Y250D02*
X-4250Y350D01*
Y450D02*
Y550D01*
Y500D01*
X-3950D01*
X-4000Y450D01*
Y700D02*
X-3950Y750D01*
Y850D01*
X-4000Y900D01*
X-4050D01*
X-4100Y850D01*
X-4150Y900D01*
X-4200D01*
X-4250Y850D01*
Y750D01*
X-4200Y700D01*
X-4150D01*
X-4100Y750D01*
X-4050Y700D01*
X-4000D01*
X-4100Y750D02*
Y850D01*
X-3800Y150D02*
X-3500D01*
Y300D01*
X-3550Y350D01*
X-3650D01*
X-3700Y300D01*
Y150D01*
Y250D02*
X-3800Y350D01*
Y450D02*
Y550D01*
Y500D01*
X-3500D01*
X-3550Y450D01*
X-3750Y700D02*
X-3800Y750D01*
Y850D01*
X-3750Y900D01*
X-3550D01*
X-3500Y850D01*
Y750D01*
X-3550Y700D01*
X-3600D01*
X-3650Y750D01*
Y900D01*
X-3650Y-1600D02*
X-3350D01*
Y-1450D01*
X-3400Y-1400D01*
X-3500D01*
X-3550Y-1450D01*
Y-1600D01*
Y-1500D02*
X-3650Y-1400D01*
Y-1100D02*
Y-1300D01*
X-3450Y-1100D01*
X-3400D01*
X-3350Y-1150D01*
Y-1250D01*
X-3400Y-1300D01*
Y-1000D02*
X-3350Y-950D01*
Y-850D01*
X-3400Y-800D01*
X-3450D01*
X-3500Y-850D01*
Y-900D01*
Y-850D01*
X-3550Y-800D01*
X-3600D01*
X-3650Y-850D01*
Y-950D01*
X-3600Y-1000D01*
X-1300Y-6850D02*
X-1000D01*
Y-6700D01*
X-1050Y-6650D01*
X-1150D01*
X-1200Y-6700D01*
Y-6850D01*
Y-6750D02*
X-1300Y-6650D01*
Y-6350D02*
Y-6550D01*
X-1100Y-6350D01*
X-1050D01*
X-1000Y-6400D01*
Y-6500D01*
X-1050Y-6550D01*
X-1300Y-6100D02*
X-1000D01*
X-1150Y-6250D01*
Y-6050D01*
X-1900Y4700D02*
Y4450D01*
X-1950Y4400D01*
X-2050D01*
X-2100Y4450D01*
Y4700D01*
X-2200Y4650D02*
X-2250Y4700D01*
X-2350D01*
X-2400Y4650D01*
Y4600D01*
X-2350Y4550D01*
X-2300D01*
X-2350D01*
X-2400Y4500D01*
Y4450D01*
X-2350Y4400D01*
X-2250D01*
X-2200Y4450D01*
X3600Y-3650D02*
Y-3900D01*
X3550Y-3950D01*
X3450D01*
X3400Y-3900D01*
Y-3650D01*
X3100D02*
X3300D01*
Y-3800D01*
X3200Y-3750D01*
X3150D01*
X3100Y-3800D01*
Y-3900D01*
X3150Y-3950D01*
X3250D01*
X3300Y-3900D01*
X-650Y-5350D02*
Y-5600D01*
X-700Y-5650D01*
X-800D01*
X-850Y-5600D01*
Y-5350D01*
X-1150D02*
X-1050Y-5400D01*
X-950Y-5500D01*
Y-5600D01*
X-1000Y-5650D01*
X-1100D01*
X-1150Y-5600D01*
Y-5550D01*
X-1100Y-5500D01*
X-950D01*
D68*
X5165Y3444D02*
D03*
X-7635Y-856D02*
D03*
M02*
