%FSLAX24Y24*%
%MOIN*%
G70*
G01*
G75*
G04 Layer_Physical_Order=4*
G04 Layer_Color=16440176*
%ADD10C,0.0080*%
%ADD11R,0.0650X0.1122*%
%ADD12R,0.0354X0.0118*%
G04:AMPARAMS|DCode=13|XSize=29.9mil|YSize=50mil|CornerRadius=0mil|HoleSize=0mil|Usage=FLASHONLY|Rotation=327.000|XOffset=0mil|YOffset=0mil|HoleType=Round|Shape=Rectangle|*
%AMROTATEDRECTD13*
4,1,4,-0.0262,-0.0128,0.0011,0.0291,0.0262,0.0128,-0.0011,-0.0291,-0.0262,-0.0128,0.0*
%
%ADD13ROTATEDRECTD13*%

%ADD14R,0.2598X0.2598*%
%ADD15O,0.0354X0.0098*%
%ADD16O,0.0098X0.0354*%
%ADD17O,0.0098X0.0335*%
%ADD18O,0.0335X0.0098*%
%ADD19R,0.1417X0.1417*%
G04:AMPARAMS|DCode=20|XSize=50mil|YSize=100mil|CornerRadius=0mil|HoleSize=0mil|Usage=FLASHONLY|Rotation=56.000|XOffset=0mil|YOffset=0mil|HoleType=Round|Shape=Rectangle|*
%AMROTATEDRECTD20*
4,1,4,0.0275,-0.0487,-0.0554,0.0072,-0.0275,0.0487,0.0554,-0.0072,0.0275,-0.0487,0.0*
%
%ADD20ROTATEDRECTD20*%

%ADD21R,0.0276X0.0079*%
%ADD22R,0.0157X0.0236*%
%ADD23R,0.0591X0.1024*%
%ADD24R,0.0236X0.0157*%
%ADD25R,0.0138X0.0217*%
%ADD26R,0.0335X0.0118*%
%ADD27R,0.0197X0.0315*%
%ADD28R,0.0551X0.0453*%
%ADD29R,0.0197X0.0354*%
%ADD30R,0.0394X0.0197*%
%ADD31R,0.0374X0.0335*%
%ADD32R,0.2126X0.0374*%
%ADD33R,0.1378X0.0768*%
%ADD34R,0.0984X0.1260*%
G04:AMPARAMS|DCode=35|XSize=28.7mil|YSize=135mil|CornerRadius=0mil|HoleSize=0mil|Usage=FLASHONLY|Rotation=108.600|XOffset=0mil|YOffset=0mil|HoleType=Round|Shape=Rectangle|*
%AMROTATEDRECTD35*
4,1,4,0.0686,0.0079,-0.0594,-0.0352,-0.0686,-0.0079,0.0594,0.0352,0.0686,0.0079,0.0*
%
%ADD35ROTATEDRECTD35*%

%ADD36C,0.0130*%
%ADD37C,0.0060*%
%ADD38C,0.0200*%
%ADD39C,0.0100*%
%ADD40C,0.0300*%
%ADD41C,0.0123*%
%ADD42C,0.0630*%
%ADD43R,0.0591X0.0591*%
%ADD44C,0.0591*%
%ADD45C,0.0217*%
%ADD46C,0.0315*%
%ADD47C,0.0200*%
%ADD48C,0.0400*%
%ADD49C,0.0300*%
%ADD50C,0.0220*%
D10*
X5150Y4150D02*
Y4250D01*
X3450Y2450D02*
X5150Y4150D01*
X-2750Y2450D02*
X3450D01*
X-1350Y5550D02*
X400D01*
X-1584Y5316D02*
X-1350Y5550D01*
X-1584Y2800D02*
Y5316D01*
X-3500Y1700D02*
X-2900Y2300D01*
X-3500Y-2400D02*
Y1700D01*
X-250Y1050D02*
X1850D01*
X-386Y914D02*
X-250Y1050D01*
X-400Y1250D02*
X1950D01*
X-583Y1067D02*
X-400Y1250D01*
X-583Y767D02*
Y1067D01*
X1850Y1050D02*
X2250Y650D01*
Y-1299D02*
Y650D01*
Y-1299D02*
X2818Y-1868D01*
X1950Y1250D02*
X2500Y700D01*
Y-1049D02*
Y700D01*
Y-1049D02*
X2868Y-1418D01*
X-1297Y-4703D02*
X1443D01*
X-2900Y2300D02*
X-2750Y2450D01*
X-190Y760D02*
X-163Y787D01*
X743D01*
X2030Y-500D01*
Y-1429D02*
Y-500D01*
Y-1429D02*
X2818Y-2218D01*
X-1779Y-3200D02*
X-1675D01*
X-1453Y-2979D01*
X2229D01*
X2384Y-3134D01*
Y-3934D02*
Y-3134D01*
X2200Y-4200D02*
X2406Y-4406D01*
X-1800Y-3500D02*
X-1100Y-4200D01*
X2200D01*
X-2100Y-3900D02*
X-1297Y-4703D01*
X-2100Y-3900D02*
Y-3300D01*
X-780Y1130D02*
X-500Y1410D01*
X4410D01*
X4750Y1750D01*
X-977Y1500D02*
X-527Y1950D01*
X-977Y773D02*
Y1500D01*
X-1371Y779D02*
Y1379D01*
X-650Y2100D01*
X-1571Y571D02*
X-1567Y567D01*
X-1571Y571D02*
Y1679D01*
X-1000Y2250D01*
X4000D01*
X4250Y2500D01*
X-650Y2100D02*
X4250D01*
X-527Y1950D02*
X4050D01*
X4250Y1750D01*
D37*
X-386Y586D02*
Y914D01*
X-780Y580D02*
Y1130D01*
D47*
X5150Y4250D02*
D03*
X-3500Y-2400D02*
D03*
X-2900Y2300D02*
D03*
X2818Y-2218D02*
D03*
Y-1868D02*
D03*
X2868Y-1418D02*
D03*
X-977Y773D02*
D03*
X-583Y767D02*
D03*
X-386Y586D02*
D03*
X-190Y760D02*
D03*
X1443Y-4703D02*
D03*
X400Y5550D02*
D03*
X-1584Y2800D02*
D03*
X-780Y580D02*
D03*
X4750Y1750D02*
D03*
X2384Y-3934D02*
D03*
X2406Y-4406D02*
D03*
X-1779Y-3200D02*
D03*
X-2100Y-3300D02*
D03*
X-1800Y-3500D02*
D03*
X-1567Y567D02*
D03*
X-1371Y779D02*
D03*
X4250Y2500D02*
D03*
Y2100D02*
D03*
Y1750D02*
D03*
M02*
