%FSLAX24Y24*%
%MOIN*%
G70*
G01*
G75*
G04 Layer_Physical_Order=6*
G04 Layer_Color=16711680*
%ADD10C,0.0080*%
%ADD11R,0.0650X0.1122*%
%ADD12R,0.0354X0.0118*%
G04:AMPARAMS|DCode=13|XSize=29.9mil|YSize=50mil|CornerRadius=0mil|HoleSize=0mil|Usage=FLASHONLY|Rotation=327.000|XOffset=0mil|YOffset=0mil|HoleType=Round|Shape=Rectangle|*
%AMROTATEDRECTD13*
4,1,4,-0.0262,-0.0128,0.0011,0.0291,0.0262,0.0128,-0.0011,-0.0291,-0.0262,-0.0128,0.0*
%
%ADD13ROTATEDRECTD13*%

%ADD14R,0.2598X0.2598*%
%ADD15O,0.0354X0.0098*%
%ADD16O,0.0098X0.0354*%
%ADD17O,0.0098X0.0335*%
%ADD18O,0.0335X0.0098*%
%ADD19R,0.1417X0.1417*%
G04:AMPARAMS|DCode=20|XSize=50mil|YSize=100mil|CornerRadius=0mil|HoleSize=0mil|Usage=FLASHONLY|Rotation=56.000|XOffset=0mil|YOffset=0mil|HoleType=Round|Shape=Rectangle|*
%AMROTATEDRECTD20*
4,1,4,0.0275,-0.0487,-0.0554,0.0072,-0.0275,0.0487,0.0554,-0.0072,0.0275,-0.0487,0.0*
%
%ADD20ROTATEDRECTD20*%

%ADD21R,0.0276X0.0079*%
%ADD22R,0.0157X0.0236*%
%ADD23R,0.0591X0.1024*%
%ADD24R,0.0236X0.0157*%
%ADD25R,0.0138X0.0217*%
%ADD26R,0.0335X0.0118*%
%ADD27R,0.0197X0.0315*%
%ADD28R,0.0551X0.0453*%
%ADD29R,0.0197X0.0354*%
%ADD30R,0.0394X0.0197*%
%ADD31R,0.0374X0.0335*%
%ADD32R,0.2126X0.0374*%
%ADD33R,0.1378X0.0768*%
%ADD34R,0.0984X0.1260*%
G04:AMPARAMS|DCode=35|XSize=28.7mil|YSize=135mil|CornerRadius=0mil|HoleSize=0mil|Usage=FLASHONLY|Rotation=108.600|XOffset=0mil|YOffset=0mil|HoleType=Round|Shape=Rectangle|*
%AMROTATEDRECTD35*
4,1,4,0.0686,0.0079,-0.0594,-0.0352,-0.0686,-0.0079,0.0594,0.0352,0.0686,0.0079,0.0*
%
%ADD35ROTATEDRECTD35*%

%ADD36C,0.0130*%
%ADD37C,0.0060*%
%ADD38C,0.0200*%
%ADD39C,0.0100*%
%ADD40C,0.0300*%
%ADD41C,0.0123*%
%ADD42C,0.0630*%
%ADD43R,0.0591X0.0591*%
%ADD44C,0.0591*%
%ADD45C,0.0217*%
%ADD46C,0.0315*%
%ADD47C,0.0200*%
%ADD48C,0.0400*%
%ADD49C,0.0300*%
%ADD50C,0.0220*%
%ADD51R,0.0354X0.0157*%
%ADD52O,0.0315X0.0098*%
%ADD53O,0.0098X0.0315*%
%ADD54R,0.1299X0.1299*%
G04:AMPARAMS|DCode=55|XSize=189mil|YSize=236.2mil|CornerRadius=0mil|HoleSize=0mil|Usage=FLASHONLY|Rotation=237.000|XOffset=0mil|YOffset=0mil|HoleType=Round|Shape=Rectangle|*
%AMROTATEDRECTD55*
4,1,4,-0.0476,0.1436,0.1505,0.0149,0.0476,-0.1436,-0.1505,-0.0149,-0.0476,0.1436,0.0*
%
%ADD55ROTATEDRECTD55*%

G04:AMPARAMS|DCode=56|XSize=15.7mil|YSize=31.5mil|CornerRadius=0mil|HoleSize=0mil|Usage=FLASHONLY|Rotation=237.000|XOffset=0mil|YOffset=0mil|HoleType=Round|Shape=Round|*
%AMOVALD56*
21,1,0.0157,0.0157,0.0000,0.0000,327.0*
1,1,0.0157,-0.0066,0.0043*
1,1,0.0157,0.0066,-0.0043*
%
%ADD56OVALD56*%

%ADD57R,0.1102X0.0492*%
%ADD58R,0.0157X0.0532*%
%ADD59R,0.0748X0.0630*%
%ADD60R,0.0630X0.0551*%
%ADD61R,0.0354X0.0197*%
%ADD62C,0.0150*%
G36*
X-6033Y-2069D02*
X-6767Y-2316D01*
X-6714Y-2473D01*
X-6702Y-2509D01*
X-6741Y-2535D01*
X-7407Y-2759D01*
X-7407D01*
Y-2759D01*
X-7429Y-2718D01*
X-7494Y-2544D01*
X-7576Y-2275D01*
X-7571Y-2274D01*
X-7524Y-2258D01*
X-6904Y-2049D01*
X-6846Y-2082D01*
X-6793Y-2240D01*
X-6058Y-1993D01*
X-6033Y-2069D01*
D02*
G37*
G36*
X3400Y4000D02*
X6827D01*
X6854Y3957D01*
X6991Y3701D01*
X6972Y3655D01*
X6389Y3459D01*
X6352Y3499D01*
X6353Y3502D01*
X6362Y3570D01*
X6353Y3638D01*
X6327Y3701D01*
X6285Y3755D01*
X6231Y3797D01*
X6168Y3823D01*
X6100Y3832D01*
X6032Y3823D01*
X5969Y3797D01*
X5915Y3755D01*
X5873Y3701D01*
X5847Y3638D01*
X5838Y3570D01*
X5847Y3502D01*
X5873Y3439D01*
X5915Y3385D01*
X5944Y3362D01*
X5935Y3306D01*
X5623Y3201D01*
X5688Y3008D01*
X6423Y3255D01*
X6448Y3179D01*
X5714Y2932D01*
X5765Y2778D01*
X5737Y2716D01*
X5210Y2548D01*
X5100Y2500D01*
X4550Y3050D01*
X1700D01*
Y4006D01*
X1872Y4178D01*
X1894Y4211D01*
X1902Y4250D01*
Y4866D01*
X1913Y4867D01*
Y4933D01*
X1902Y4934D01*
Y5300D01*
X3400D01*
Y4000D01*
D02*
G37*
G36*
X3750Y1776D02*
X3700Y1771D01*
X3698Y1782D01*
X3651Y1851D01*
X3582Y1898D01*
X3540Y1906D01*
Y1700D01*
X3500D01*
Y1660D01*
X3294D01*
X3302Y1618D01*
X3349Y1549D01*
X3418Y1502D01*
X3432Y1499D01*
Y1448D01*
D01*
D01*
X3411Y1444D01*
X3378Y1422D01*
X3106Y1150D01*
X978Y-978D01*
X956Y-1011D01*
X948Y-1050D01*
Y-1433D01*
X956Y-1472D01*
X978Y-1505D01*
X1054Y-1581D01*
X1055Y-1587D01*
X1056Y-1589D01*
X1078Y-1622D01*
X1096Y-1634D01*
X1111Y-1655D01*
X1111Y-1695D01*
X1089Y-1728D01*
X1077Y-1790D01*
X1089Y-1853D01*
X1125Y-1905D01*
X1178Y-1941D01*
X1240Y-1953D01*
X1303Y-1941D01*
X1355Y-1905D01*
X1391Y-1853D01*
X1403Y-1790D01*
X1394Y-1744D01*
X1395Y-1742D01*
X1427Y-1708D01*
X1433Y-1705D01*
X1476Y-1713D01*
X1494Y-1710D01*
X1537Y-1750D01*
X1549Y-1812D01*
X1585Y-1865D01*
X1638Y-1901D01*
X1700Y-1913D01*
X1762Y-1901D01*
X1815Y-1865D01*
X1851Y-1812D01*
X1863Y-1750D01*
X1858Y-1722D01*
X1904Y-1697D01*
X2516Y-2310D01*
Y-2538D01*
X2524Y-2577D01*
X2546Y-2610D01*
X3198Y-3262D01*
Y-4705D01*
X3196Y-4707D01*
X3188Y-4750D01*
X3188Y-4750D01*
Y-5252D01*
X3128Y-5312D01*
X3124Y-5311D01*
X3062Y-5324D01*
X3009Y-5359D01*
X2974Y-5412D01*
X2961Y-5474D01*
X2974Y-5537D01*
X3009Y-5590D01*
X3062Y-5625D01*
X3124Y-5637D01*
X3187Y-5625D01*
X3240Y-5590D01*
X3275Y-5537D01*
X3287Y-5474D01*
X3287Y-5470D01*
X3379Y-5378D01*
X3379Y-5378D01*
X3394Y-5356D01*
X3441Y-5376D01*
X3436Y-5400D01*
X3452Y-5482D01*
X3499Y-5551D01*
X3568Y-5598D01*
X3610Y-5606D01*
Y-5400D01*
Y-5194D01*
X3568Y-5202D01*
X3499Y-5249D01*
X3461Y-5305D01*
X3441Y-5303D01*
X3412Y-5288D01*
Y-5050D01*
X3456Y-5035D01*
X3456Y-5035D01*
Y-5035D01*
X3456Y-5035D01*
X3693D01*
Y-4856D01*
X3733D01*
Y-4816D01*
X4010D01*
Y-4677D01*
X3970D01*
Y-4483D01*
Y-4205D01*
X3496D01*
Y-4476D01*
X3448Y-4486D01*
X3402Y-4446D01*
Y-3220D01*
X3394Y-3181D01*
X3372Y-3148D01*
X3182Y-2958D01*
X3208Y-2913D01*
X3282Y-2898D01*
X3351Y-2851D01*
X3398Y-2782D01*
X3406Y-2740D01*
X3200D01*
Y-2700D01*
X3160D01*
Y-2494D01*
X3118Y-2502D01*
X3049Y-2549D01*
X3002Y-2618D01*
X2987Y-2692D01*
X2942Y-2718D01*
X2720Y-2496D01*
Y-2400D01*
X2770Y-2371D01*
X2818Y-2381D01*
X2881Y-2369D01*
X2934Y-2333D01*
X2969Y-2280D01*
X2981Y-2218D01*
X2969Y-2155D01*
X2934Y-2102D01*
X2884Y-2069D01*
X2881Y-2048D01*
Y-2038D01*
X2884Y-2017D01*
X2934Y-1983D01*
X2969Y-1930D01*
X2981Y-1868D01*
X2969Y-1805D01*
X2934Y-1752D01*
X2881Y-1717D01*
X2818Y-1705D01*
X2756Y-1717D01*
X2703Y-1752D01*
X2668Y-1805D01*
X2655Y-1868D01*
X2668Y-1930D01*
X2703Y-1983D01*
X2753Y-2017D01*
X2756Y-2038D01*
Y-2048D01*
X2753Y-2069D01*
X2703Y-2102D01*
X2689Y-2123D01*
X2625Y-2131D01*
X1678Y-1184D01*
X1681Y-1168D01*
X1669Y-1105D01*
X1634Y-1052D01*
X1593Y-1025D01*
X1578Y-969D01*
X3146Y598D01*
X3398D01*
X3425Y548D01*
X3412Y528D01*
X3404Y490D01*
X3796D01*
X3788Y528D01*
X3775Y548D01*
X3802Y598D01*
X4900D01*
X4939Y606D01*
X4972Y628D01*
X5509Y1164D01*
X5566Y1151D01*
X5573Y1129D01*
X6583Y1469D01*
X6967Y1598D01*
X6837Y1984D01*
X5446Y1516D01*
X5392Y1669D01*
X5414Y1714D01*
X6090Y1940D01*
X6123Y1842D01*
X7513Y2310D01*
X7563Y2317D01*
X7645Y2048D01*
X7705Y1791D01*
X7034Y1565D01*
X7111Y1334D01*
X7189Y1103D01*
X7535Y1220D01*
D01*
X7764Y1297D01*
X7807Y1271D01*
X7847Y1033D01*
X7860Y894D01*
X7878Y718D01*
X7897Y518D01*
X7906Y262D01*
X7914Y0D01*
X7897Y-518D01*
X7847Y-1033D01*
X7762Y-1544D01*
X7645Y-2048D01*
X7494Y-2544D01*
X7312Y-3029D01*
X7098Y-3500D01*
X6854Y-3957D01*
X6580Y-4397D01*
X6279Y-4818D01*
X6158Y-4965D01*
X6104Y-4951D01*
X6098Y-4918D01*
X6051Y-4849D01*
X5982Y-4802D01*
X5940Y-4794D01*
Y-5000D01*
X5900D01*
Y-5040D01*
X5694D01*
X5702Y-5082D01*
X5749Y-5151D01*
X5818Y-5198D01*
X5888Y-5212D01*
X5905Y-5246D01*
X5908Y-5263D01*
X5596Y-5596D01*
X5559Y-5631D01*
X5513Y-5606D01*
X5514Y-5600D01*
X5498Y-5518D01*
X5451Y-5449D01*
X5382Y-5402D01*
X5340Y-5394D01*
Y-5600D01*
X5300D01*
Y-5640D01*
X5094D01*
X5102Y-5682D01*
X5149Y-5751D01*
X5218Y-5798D01*
X5292Y-5813D01*
X5317Y-5858D01*
X5218Y-5950D01*
X4818Y-6279D01*
X4397Y-6580D01*
X4218Y-6692D01*
X4182Y-6655D01*
X4198Y-6632D01*
X4206Y-6590D01*
X3794D01*
X3802Y-6632D01*
X3849Y-6701D01*
X3918Y-6748D01*
X4000Y-6764D01*
X4010Y-6762D01*
X4029Y-6809D01*
X3957Y-6854D01*
X3500Y-7098D01*
X3029Y-7312D01*
X2544Y-7494D01*
X2245Y-7585D01*
X2205Y-7555D01*
X2205Y-6196D01*
X-2033D01*
X-2043Y-6194D01*
X-2054Y-6196D01*
X-2320D01*
X-2321Y-6195D01*
X-2372Y-6175D01*
X-2427Y-6175D01*
X-2474Y-6196D01*
X-2502D01*
X-2526Y-6152D01*
X-2447Y-6031D01*
X-3522Y-5334D01*
X-4596Y-4636D01*
X-5144Y-5479D01*
X-4113Y-6148D01*
X-4127Y-6196D01*
X-4919D01*
X-5218Y-5950D01*
X-5295Y-5878D01*
Y-5249D01*
X-5252Y-5226D01*
X-5224Y-5244D01*
X-5172Y-5264D01*
X-5117Y-5263D01*
X-5067Y-5241D01*
X-5028Y-5202D01*
X-5008Y-5151D01*
X-5008Y-5095D01*
X-5030Y-5045D01*
X-5070Y-5006D01*
X-5202Y-4920D01*
X-5249Y-4902D01*
X-5283Y-4868D01*
X-5259Y-4824D01*
X-5257Y-4822D01*
X-5237Y-4826D01*
X-5175Y-4813D01*
X-5122Y-4778D01*
X-5113Y-4765D01*
X-5043D01*
X-4951Y-4824D01*
X-4900Y-4845D01*
X-4845Y-4844D01*
X-4794Y-4822D01*
X-4756Y-4783D01*
X-4735Y-4731D01*
X-4736Y-4676D01*
X-4758Y-4625D01*
X-4797Y-4587D01*
X-4929Y-4501D01*
X-4981Y-4481D01*
X-5036Y-4481D01*
X-5087Y-4503D01*
X-5125Y-4543D01*
X-5128Y-4544D01*
X-5175Y-4512D01*
X-5237Y-4500D01*
X-5257Y-4503D01*
X-5295Y-4472D01*
Y-3762D01*
X-6694Y-4214D01*
X-6854Y-3957D01*
X-7098Y-3500D01*
X-7213Y-3247D01*
X-7193Y-3201D01*
X-6585Y-2997D01*
X-6527Y-3030D01*
X-6474Y-3188D01*
X-5739Y-2941D01*
X-5673Y-2918D01*
X-5005Y-2693D01*
X-5070Y-2500D01*
X-5255Y-2563D01*
X-5736Y-2725D01*
X-5794Y-2691D01*
X-5848Y-2534D01*
X-6582Y-2781D01*
X-6608Y-2705D01*
X-5873Y-2458D01*
X-5926Y-2300D01*
X-5938Y-2265D01*
X-5900Y-2239D01*
X-5233Y-2014D01*
X-5241Y-1992D01*
X-5229Y-1976D01*
X-5201Y-1953D01*
X-5150Y-1963D01*
X-5088Y-1951D01*
X-5035Y-1915D01*
X-4999Y-1862D01*
X-4987Y-1800D01*
X-4999Y-1738D01*
X-5035Y-1685D01*
X-5088Y-1649D01*
X-5150Y-1637D01*
X-5212Y-1649D01*
X-5245Y-1671D01*
D01*
X-5265Y-1685D01*
X-5283Y-1710D01*
X-5338Y-1703D01*
X-5389Y-1552D01*
X-6055Y-1777D01*
X-6113Y-1744D01*
X-6166Y-1586D01*
X-6901Y-1833D01*
X-6914Y-1795D01*
X-6952Y-1808D01*
X-7030Y-1577D01*
X-7666Y-1792D01*
X-7710Y-1767D01*
X-7762Y-1544D01*
X-7847Y-1033D01*
X-7883Y-662D01*
X-6955Y-334D01*
X-6914Y-363D01*
Y-747D01*
X-6898Y-829D01*
X-6851Y-899D01*
X-6785Y-965D01*
X-6797Y-1014D01*
X-7126Y-1124D01*
X-6996Y-1510D01*
X-6387Y-1305D01*
X-6383Y-1307D01*
X-6386Y-1360D01*
X-6954Y-1552D01*
X-6889Y-1745D01*
X-6192Y-1510D01*
X-6257Y-1317D01*
X-6257Y-1317D01*
X-6267Y-1270D01*
X-6251Y-1260D01*
X-5603Y-1041D01*
X-5733Y-655D01*
X-6299Y-846D01*
X-6486Y-659D01*
Y-169D01*
X-5527Y170D01*
X-5483Y148D01*
X-5465Y96D01*
X-5495Y56D01*
X-5668D01*
Y-83D01*
X-5450D01*
Y-163D01*
X-5668D01*
Y-302D01*
X-5660D01*
X-5628Y-338D01*
Y-616D01*
X-5552D01*
Y-750D01*
X-5544Y-789D01*
X-5522Y-822D01*
X-5272Y-1072D01*
X-5245Y-1090D01*
X-5239Y-1094D01*
X-5200Y-1102D01*
X-4874D01*
X-4865Y-1115D01*
X-4812Y-1151D01*
X-4750Y-1163D01*
X-4688Y-1151D01*
X-4685Y-1149D01*
X-4649Y-1185D01*
X-4651Y-1188D01*
X-4663Y-1250D01*
X-4651Y-1312D01*
X-4615Y-1365D01*
X-4562Y-1401D01*
X-4500Y-1413D01*
X-4438Y-1401D01*
X-4435Y-1399D01*
X-4399Y-1435D01*
X-4401Y-1438D01*
X-4413Y-1500D01*
X-4401Y-1562D01*
X-4365Y-1615D01*
X-4312Y-1651D01*
X-4250Y-1663D01*
X-4188Y-1651D01*
X-4185Y-1649D01*
X-4149Y-1685D01*
X-4151Y-1688D01*
X-4163Y-1750D01*
X-4151Y-1812D01*
X-4115Y-1865D01*
X-4062Y-1901D01*
X-4000Y-1913D01*
X-3938Y-1901D01*
X-3935Y-1899D01*
X-3899Y-1935D01*
X-3901Y-1938D01*
X-3913Y-2000D01*
X-3901Y-2062D01*
X-3865Y-2115D01*
X-3812Y-2151D01*
X-3750Y-2163D01*
X-3688Y-2151D01*
X-3635Y-2115D01*
X-3599Y-2062D01*
X-3587Y-2000D01*
X-3599Y-1938D01*
X-3635Y-1885D01*
X-3648Y-1876D01*
Y-619D01*
X-3645Y-616D01*
X-3472D01*
Y-352D01*
X-3472Y-338D01*
X-3440Y-302D01*
X-3432D01*
Y-163D01*
X-3650D01*
Y-123D01*
X-3690D01*
Y56D01*
X-3832D01*
X-3868Y56D01*
X-3875D01*
X-3882D01*
X-3918Y56D01*
X-4046D01*
X-4051Y106D01*
X-4022Y112D01*
X-3956Y156D01*
X-3912Y222D01*
X-3904Y260D01*
X-4100D01*
Y300D01*
X-4140D01*
Y496D01*
X-4178Y488D01*
X-4244Y444D01*
X-4288Y378D01*
X-4300Y322D01*
X-4350D01*
X-4362Y378D01*
X-4406Y444D01*
X-4472Y488D01*
X-4510Y496D01*
Y300D01*
X-4590D01*
Y496D01*
X-4628Y488D01*
X-4694Y444D01*
X-4738Y378D01*
X-4750Y322D01*
X-4800D01*
X-4812Y378D01*
X-4856Y444D01*
X-4922Y488D01*
X-4960Y496D01*
Y300D01*
X-5000D01*
Y260D01*
X-5196D01*
X-5188Y222D01*
X-5144Y156D01*
X-5078Y112D01*
X-5049Y106D01*
X-5054Y56D01*
X-5182D01*
X-5218Y56D01*
X-5225D01*
X-5232D01*
X-5245D01*
X-5295Y95D01*
Y1469D01*
X-5260Y1504D01*
X-3342D01*
Y-600D01*
X-3335Y-635D01*
X-3315Y-665D01*
X-3115Y-865D01*
X-3085Y-885D01*
X-3050Y-892D01*
X-2815D01*
X-2778Y-924D01*
X-2778Y-942D01*
Y-1063D01*
X-2342D01*
Y-924D01*
X-2384D01*
X-2399Y-874D01*
X-2385Y-865D01*
X-2235Y-715D01*
X-2215Y-685D01*
X-2208Y-650D01*
Y-450D01*
X-2215Y-415D01*
X-2235Y-385D01*
X-2303Y-317D01*
X-2333Y-297D01*
X-2368Y-290D01*
X-2375D01*
X-2378Y-286D01*
X-2397Y-240D01*
X-2386Y-185D01*
X-2398Y-123D01*
X-2434Y-70D01*
X-2457Y-54D01*
Y565D01*
X-2407Y570D01*
X-2401Y538D01*
X-2365Y485D01*
X-2312Y449D01*
X-2283Y443D01*
X-2283D01*
X-2280Y443D01*
X-2250Y436D01*
X-2248Y428D01*
X-2242Y394D01*
X-2242Y394D01*
X-2242Y393D01*
X-2242Y388D01*
X-2276Y381D01*
X-2276D01*
X-2289Y378D01*
X-2342Y343D01*
X-2378Y290D01*
X-2390Y227D01*
X-2378Y165D01*
X-2342Y112D01*
X-2289Y77D01*
X-2227Y64D01*
X-2165Y77D01*
X-2112Y112D01*
X-2076Y165D01*
X-2064Y227D01*
X-2076Y290D01*
X-2112Y343D01*
X-2165Y378D01*
X-2194Y384D01*
X-2194D01*
X-2197Y385D01*
X-2227Y391D01*
X-2229Y399D01*
X-2235Y433D01*
X-2235Y433D01*
X-2235Y435D01*
X-2235Y440D01*
X-2201Y447D01*
X-2201D01*
X-2188Y449D01*
X-2135Y485D01*
X-2099Y538D01*
X-2087Y600D01*
X-2099Y662D01*
X-2135Y715D01*
X-2188Y751D01*
X-2250Y763D01*
X-2312Y751D01*
X-2365Y715D01*
X-2401Y662D01*
X-2407Y630D01*
X-2457Y635D01*
Y1504D01*
X-1348D01*
Y1348D01*
X-1340D01*
X-1308Y1312D01*
X-1308Y1298D01*
Y1034D01*
X-1266D01*
Y953D01*
X-1270Y951D01*
X-1316Y932D01*
X-1371Y943D01*
X-1433Y930D01*
X-1486Y895D01*
X-1521Y842D01*
X-1534Y779D01*
X-1531Y766D01*
X-1557Y740D01*
X-1575Y729D01*
X-1630Y718D01*
X-1683Y683D01*
X-1718Y630D01*
X-1731Y567D01*
X-1718Y505D01*
X-1683Y452D01*
X-1630Y417D01*
X-1567Y404D01*
X-1505Y417D01*
X-1452Y452D01*
X-1417Y505D01*
X-1404Y567D01*
X-1365Y599D01*
X-1336Y584D01*
X-1324Y524D01*
X-1289Y471D01*
X-1236Y435D01*
X-1174Y423D01*
X-1111Y435D01*
X-1058Y471D01*
X-1023Y524D01*
X-1015Y566D01*
X-1002Y581D01*
X-952Y580D01*
X-940Y566D01*
X-931Y518D01*
X-895Y465D01*
X-843Y429D01*
X-780Y417D01*
X-718Y429D01*
X-665Y465D01*
X-629Y518D01*
X-619Y570D01*
X-587Y585D01*
X-543Y555D01*
X-537Y524D01*
X-502Y471D01*
X-449Y436D01*
X-386Y423D01*
X-324Y436D01*
X-271Y471D01*
X-236Y524D01*
X-227Y567D01*
X-226Y568D01*
X-192Y578D01*
X-147Y545D01*
X-143Y525D01*
X-108Y472D01*
X-55Y437D01*
X7Y424D01*
X70Y437D01*
X123Y472D01*
X158Y525D01*
X170Y587D01*
X158Y650D01*
X123Y703D01*
X70Y738D01*
X22Y748D01*
X6Y752D01*
X-33Y793D01*
X-39Y823D01*
X-74Y876D01*
X-127Y911D01*
X-190Y924D01*
X-252Y911D01*
X-305Y876D01*
X-340Y823D01*
X-349Y780D01*
X-383Y771D01*
X-427Y803D01*
X-433Y829D01*
X-468Y882D01*
X-521Y917D01*
X-583Y930D01*
X-646Y917D01*
X-699Y882D01*
X-734Y829D01*
X-742Y787D01*
X-755Y772D01*
X-805Y773D01*
X-817Y787D01*
X-826Y835D01*
X-862Y888D01*
X-914Y924D01*
X-977Y936D01*
X-1032Y925D01*
X-1078Y944D01*
X-1082Y947D01*
Y1034D01*
X-952D01*
Y1298D01*
X-952Y1312D01*
X-920Y1348D01*
X-912D01*
Y1504D01*
X-372D01*
X-370Y1504D01*
Y1700D01*
X-290D01*
Y1504D01*
X-288Y1504D01*
X1050D01*
Y1599D01*
X1100Y1614D01*
X1106Y1606D01*
X1172Y1562D01*
X1210Y1554D01*
Y1750D01*
Y1946D01*
X1172Y1938D01*
X1106Y1894D01*
X1100Y1885D01*
X1050Y1901D01*
Y2800D01*
X3750D01*
Y1776D01*
D02*
G37*
G36*
X5476Y1419D02*
X5461Y1394D01*
X5428Y1372D01*
X4858Y802D01*
X3734D01*
X3730Y852D01*
X3778Y862D01*
X3844Y906D01*
X3888Y972D01*
X3896Y1010D01*
X3700D01*
Y1090D01*
X3896D01*
X3888Y1128D01*
X3844Y1194D01*
X3838Y1198D01*
X3854Y1248D01*
X4800D01*
X4839Y1256D01*
X4872Y1278D01*
X5099Y1504D01*
X5447D01*
X5476Y1419D01*
D02*
G37*
G36*
X7428Y2719D02*
X7428Y2719D01*
X7384Y2696D01*
X5993Y2228D01*
X6013Y2167D01*
X5991Y2122D01*
X5313Y1895D01*
X5265Y2030D01*
X5297Y2091D01*
X6648Y2546D01*
Y2546D01*
X6650Y2550D01*
X7398Y2799D01*
X7428Y2719D01*
D02*
G37*
%LPC*%
G36*
X-5050Y-2037D02*
X-5112Y-2049D01*
X-5165Y-2085D01*
X-5201Y-2138D01*
X-5213Y-2200D01*
X-5201Y-2262D01*
X-5165Y-2315D01*
X-5112Y-2351D01*
X-5050Y-2363D01*
X-4988Y-2351D01*
X-4935Y-2315D01*
X-4899Y-2262D01*
X-4887Y-2200D01*
X-4899Y-2138D01*
X-4935Y-2085D01*
X-4988Y-2049D01*
X-5050Y-2037D01*
D02*
G37*
G36*
X4839Y-2224D02*
X4674D01*
Y-2388D01*
X4716Y-2380D01*
X4785Y-2334D01*
X4831Y-2265D01*
X4839Y-2224D01*
D02*
G37*
G36*
X3973Y-1791D02*
X3564D01*
X3572Y-1832D01*
X3618Y-1901D01*
X3676Y-1940D01*
X3680Y-1956D01*
Y-1979D01*
X3676Y-1995D01*
X3618Y-2034D01*
X3572Y-2103D01*
X3564Y-2144D01*
X3768D01*
Y-2184D01*
X3808D01*
Y-2388D01*
X3850Y-2380D01*
X3918Y-2334D01*
X3957Y-2276D01*
X3973Y-2273D01*
X3996D01*
X4013Y-2276D01*
X4051Y-2334D01*
X4120Y-2380D01*
X4161Y-2388D01*
Y-2184D01*
Y-1980D01*
X4120Y-1988D01*
X4051Y-2034D01*
X4013Y-2092D01*
X3996Y-2095D01*
X3973D01*
X3957Y-2092D01*
X3918Y-2034D01*
X3861Y-1995D01*
X3857Y-1979D01*
Y-1956D01*
X3861Y-1940D01*
X3918Y-1901D01*
X3965Y-1832D01*
X3973Y-1791D01*
D02*
G37*
G36*
X6356Y-2032D02*
X6356Y-2032D01*
X6217D01*
Y-2250D01*
Y-2468D01*
X6356D01*
X6356Y-2468D01*
Y-2468D01*
X6406Y-2445D01*
X6410Y-2446D01*
Y-2250D01*
Y-2054D01*
X6406Y-2055D01*
X6356Y-2032D01*
Y-2032D01*
D02*
G37*
G36*
X6646Y-2290D02*
X6490D01*
Y-2446D01*
X6528Y-2438D01*
X6594Y-2394D01*
X6638Y-2328D01*
X6646Y-2290D01*
D02*
G37*
G36*
X3728Y-2224D02*
X3564D01*
X3572Y-2265D01*
X3618Y-2334D01*
X3687Y-2380D01*
X3728Y-2388D01*
Y-2224D01*
D02*
G37*
G36*
X8Y-2146D02*
Y-2310D01*
X172D01*
X164Y-2269D01*
X118Y-2200D01*
X49Y-2154D01*
X8Y-2146D01*
D02*
G37*
G36*
X-72D02*
X-113Y-2154D01*
X-182Y-2200D01*
X-228Y-2269D01*
X-236Y-2310D01*
X-72D01*
Y-2146D01*
D02*
G37*
G36*
X6860Y-1990D02*
X6694D01*
X6702Y-2032D01*
X6749Y-2101D01*
X6818Y-2148D01*
X6860Y-2156D01*
Y-1990D01*
D02*
G37*
G36*
X6490Y-2054D02*
Y-2210D01*
X6646D01*
X6638Y-2172D01*
X6594Y-2106D01*
X6528Y-2062D01*
X6490Y-2054D01*
D02*
G37*
G36*
X-1724Y-2146D02*
Y-2310D01*
X-1560D01*
X-1568Y-2269D01*
X-1614Y-2200D01*
X-1683Y-2154D01*
X-1724Y-2146D01*
D02*
G37*
G36*
X-1804D02*
X-1846Y-2154D01*
X-1914Y-2200D01*
X-1961Y-2269D01*
X-1969Y-2310D01*
X-1804D01*
Y-2146D01*
D02*
G37*
G36*
X-858D02*
Y-2310D01*
X-694D01*
X-702Y-2269D01*
X-748Y-2200D01*
X-817Y-2154D01*
X-858Y-2146D01*
D02*
G37*
G36*
X-938D02*
X-979Y-2154D01*
X-1048Y-2200D01*
X-1094Y-2269D01*
X-1103Y-2310D01*
X-938D01*
Y-2146D01*
D02*
G37*
G36*
X7190Y-2344D02*
Y-2510D01*
X7356D01*
X7348Y-2468D01*
X7301Y-2399D01*
X7232Y-2352D01*
X7190Y-2344D01*
D02*
G37*
G36*
X-4495Y-2944D02*
D01*
X-4610D01*
Y-3083D01*
X-4432D01*
Y-2944D01*
X-4495D01*
D02*
G37*
G36*
X-4979Y-2769D02*
X-5676Y-3004D01*
X-5611Y-3197D01*
X-5295Y-3091D01*
D01*
D01*
X-4918Y-2964D01*
X-4868Y-2966D01*
Y-2994D01*
Y-3083D01*
X-4690D01*
Y-2944D01*
X-4868D01*
Y-2944D01*
X-4918Y-2950D01*
X-4930Y-2916D01*
D01*
X-4979Y-2769D01*
D02*
G37*
G36*
X7110Y-2590D02*
X6944D01*
X6952Y-2632D01*
X6999Y-2701D01*
X7068Y-2748D01*
X7110Y-2756D01*
Y-2590D01*
D02*
G37*
G36*
X-3500Y-2237D02*
X-3562Y-2249D01*
X-3615Y-2285D01*
X-3651Y-2338D01*
X-3663Y-2400D01*
X-3651Y-2462D01*
X-3615Y-2515D01*
X-3562Y-2551D01*
X-3500Y-2563D01*
X-3484Y-2560D01*
X-3372Y-2672D01*
X-3366Y-2676D01*
Y-2778D01*
X-3088D01*
Y-2422D01*
X-3290D01*
X-3337Y-2400D01*
X-3349Y-2338D01*
X-3385Y-2285D01*
X-3438Y-2249D01*
X-3500Y-2237D01*
D02*
G37*
G36*
X-6060Y-3454D02*
Y-3610D01*
X-5904D01*
X-5912Y-3572D01*
X-5956Y-3506D01*
X-6022Y-3462D01*
X-6060Y-3454D01*
D02*
G37*
G36*
X2050Y-3287D02*
X1988Y-3299D01*
X1935Y-3335D01*
X1899Y-3388D01*
X1887Y-3450D01*
X1899Y-3512D01*
X1935Y-3565D01*
X1988Y-3601D01*
X2050Y-3613D01*
X2112Y-3601D01*
X2165Y-3565D01*
X2201Y-3512D01*
X2213Y-3450D01*
X2201Y-3388D01*
X2165Y-3335D01*
X2112Y-3299D01*
X2050Y-3287D01*
D02*
G37*
G36*
X-5752Y-3029D02*
X-6449Y-3264D01*
X-6384Y-3457D01*
X-5687Y-3222D01*
X-5752Y-3029D01*
D02*
G37*
G36*
X-6140Y-3454D02*
X-6178Y-3462D01*
X-6244Y-3506D01*
X-6288Y-3572D01*
X-6341Y-3582D01*
X-6372Y-3562D01*
X-6410Y-3554D01*
Y-3750D01*
Y-3946D01*
X-6372Y-3938D01*
X-6306Y-3894D01*
X-6262Y-3828D01*
X-6209Y-3818D01*
X-6178Y-3838D01*
X-6140Y-3846D01*
Y-3650D01*
Y-3454D01*
D02*
G37*
G36*
X7356Y-2590D02*
X7190D01*
Y-2756D01*
X7232Y-2748D01*
X7301Y-2701D01*
X7348Y-2632D01*
X7356Y-2590D01*
D02*
G37*
G36*
X-72Y-2390D02*
X-236D01*
X-228Y-2432D01*
X-182Y-2501D01*
X-113Y-2547D01*
X-72Y-2555D01*
Y-2390D01*
D02*
G37*
G36*
X-694D02*
X-858D01*
Y-2555D01*
X-817Y-2547D01*
X-748Y-2501D01*
X-702Y-2432D01*
X-694Y-2390D01*
D02*
G37*
G36*
X7110Y-2344D02*
X7068Y-2352D01*
X6999Y-2399D01*
X6952Y-2468D01*
X6944Y-2510D01*
X7110D01*
Y-2344D01*
D02*
G37*
G36*
X172Y-2390D02*
X8D01*
Y-2555D01*
X49Y-2547D01*
X118Y-2501D01*
X164Y-2432D01*
X172Y-2390D01*
D02*
G37*
G36*
X-1804D02*
X-1969D01*
X-1961Y-2432D01*
X-1914Y-2501D01*
X-1846Y-2547D01*
X-1804Y-2555D01*
Y-2390D01*
D02*
G37*
G36*
X3240Y-2494D02*
Y-2660D01*
X3406D01*
X3398Y-2618D01*
X3351Y-2549D01*
X3282Y-2502D01*
X3240Y-2494D01*
D02*
G37*
G36*
X-938Y-2390D02*
X-1103D01*
X-1094Y-2432D01*
X-1048Y-2501D01*
X-979Y-2547D01*
X-938Y-2555D01*
Y-2390D01*
D02*
G37*
G36*
X-1560D02*
X-1724D01*
Y-2555D01*
X-1683Y-2547D01*
X-1614Y-2501D01*
X-1568Y-2432D01*
X-1560Y-2390D01*
D02*
G37*
G36*
X7506Y-1990D02*
X7340D01*
Y-2156D01*
X7382Y-2148D01*
X7451Y-2101D01*
X7498Y-2032D01*
X7506Y-1990D01*
D02*
G37*
G36*
X-72Y-1524D02*
X-236D01*
X-228Y-1566D01*
X-182Y-1634D01*
X-113Y-1681D01*
X-72Y-1689D01*
Y-1524D01*
D02*
G37*
G36*
X-694D02*
X-858D01*
Y-1689D01*
X-817Y-1681D01*
X-748Y-1634D01*
X-702Y-1566D01*
X-694Y-1524D01*
D02*
G37*
G36*
X6068Y-1355D02*
X6006Y-1367D01*
X5953Y-1402D01*
X5918Y-1455D01*
X5905Y-1518D01*
X5906Y-1522D01*
X5414Y-2014D01*
X5389Y-2050D01*
X5381Y-2093D01*
X5381Y-2093D01*
Y-2125D01*
X5378Y-2128D01*
X5342Y-2181D01*
X5330Y-2243D01*
X5342Y-2305D01*
X5346Y-2310D01*
X5110Y-2546D01*
X5094Y-2542D01*
X5032Y-2555D01*
X4979Y-2590D01*
X4944Y-2643D01*
X4931Y-2706D01*
X4944Y-2768D01*
X4979Y-2821D01*
X5032Y-2856D01*
X5094Y-2869D01*
X5157Y-2856D01*
X5210Y-2821D01*
X5245Y-2768D01*
X5258Y-2706D01*
X5254Y-2690D01*
X5549Y-2395D01*
X5555Y-2394D01*
X5608Y-2358D01*
X5617Y-2345D01*
X5684D01*
Y-2428D01*
X5948D01*
X5962Y-2428D01*
X5998Y-2460D01*
Y-2468D01*
X6137D01*
Y-2250D01*
Y-2032D01*
X5998D01*
Y-2040D01*
X5998Y-2040D01*
X5962Y-2072D01*
X5948Y-2072D01*
X5744D01*
X5723Y-2022D01*
X6065Y-1680D01*
X6068Y-1681D01*
X6131Y-1669D01*
X6184Y-1633D01*
X6219Y-1580D01*
X6231Y-1518D01*
X6219Y-1455D01*
X6184Y-1402D01*
X6131Y-1367D01*
X6068Y-1355D01*
D02*
G37*
G36*
X172Y-1524D02*
X8D01*
Y-1689D01*
X49Y-1681D01*
X118Y-1634D01*
X164Y-1566D01*
X172Y-1524D01*
D02*
G37*
G36*
X-1804D02*
X-1969D01*
X-1961Y-1566D01*
X-1914Y-1634D01*
X-1846Y-1681D01*
X-1804Y-1689D01*
Y-1524D01*
D02*
G37*
G36*
X7260Y-1744D02*
X7218Y-1752D01*
X7149Y-1799D01*
X7130Y-1826D01*
X7070D01*
X7051Y-1799D01*
X6982Y-1752D01*
X6940Y-1744D01*
Y-1950D01*
Y-2156D01*
X6982Y-2148D01*
X7051Y-2101D01*
X7070Y-2074D01*
X7130D01*
X7149Y-2101D01*
X7218Y-2148D01*
X7260Y-2156D01*
Y-1950D01*
Y-1744D01*
D02*
G37*
G36*
X-938Y-1524D02*
X-1103D01*
X-1094Y-1566D01*
X-1048Y-1634D01*
X-979Y-1681D01*
X-938Y-1689D01*
Y-1524D01*
D02*
G37*
G36*
X-1560D02*
X-1724D01*
Y-1689D01*
X-1683Y-1681D01*
X-1614Y-1634D01*
X-1568Y-1566D01*
X-1560Y-1524D01*
D02*
G37*
G36*
X-5400Y-1137D02*
X-5462Y-1149D01*
X-5515Y-1185D01*
X-5551Y-1238D01*
X-5563Y-1300D01*
X-5551Y-1362D01*
X-5515Y-1415D01*
X-5462Y-1451D01*
X-5400Y-1463D01*
X-5338Y-1451D01*
X-5285Y-1415D01*
X-5249Y-1362D01*
X-5237Y-1300D01*
X-5249Y-1238D01*
X-5285Y-1185D01*
X-5338Y-1149D01*
X-5400Y-1137D01*
D02*
G37*
G36*
X-1724Y-1280D02*
Y-1444D01*
X-1560D01*
X-1568Y-1403D01*
X-1614Y-1334D01*
X-1683Y-1288D01*
X-1724Y-1280D01*
D02*
G37*
G36*
X-1804D02*
X-1846Y-1288D01*
X-1914Y-1334D01*
X-1961Y-1403D01*
X-1969Y-1444D01*
X-1804D01*
Y-1280D01*
D02*
G37*
G36*
X-858D02*
Y-1444D01*
X-694D01*
X-702Y-1403D01*
X-748Y-1334D01*
X-817Y-1288D01*
X-858Y-1280D01*
D02*
G37*
G36*
X-938D02*
X-979Y-1288D01*
X-1048Y-1334D01*
X-1094Y-1403D01*
X-1103Y-1444D01*
X-938D01*
Y-1280D01*
D02*
G37*
G36*
X7106Y-1290D02*
X6940D01*
Y-1456D01*
X6982Y-1448D01*
X7051Y-1401D01*
X7098Y-1332D01*
X7106Y-1290D01*
D02*
G37*
G36*
X6860D02*
X6694D01*
X6702Y-1332D01*
X6749Y-1401D01*
X6818Y-1448D01*
X6860Y-1456D01*
Y-1290D01*
D02*
G37*
G36*
X7656D02*
X7490D01*
Y-1456D01*
X7532Y-1448D01*
X7601Y-1401D01*
X7648Y-1332D01*
X7656Y-1290D01*
D02*
G37*
G36*
X7410D02*
X7244D01*
X7252Y-1332D01*
X7299Y-1401D01*
X7368Y-1448D01*
X7410Y-1456D01*
Y-1290D01*
D02*
G37*
G36*
X361Y-1957D02*
X197D01*
X205Y-1999D01*
X251Y-2068D01*
X320Y-2114D01*
X361Y-2122D01*
Y-1957D01*
D02*
G37*
G36*
X-261D02*
X-425D01*
Y-2122D01*
X-384Y-2114D01*
X-315Y-2068D01*
X-269Y-1999D01*
X-261Y-1957D01*
D02*
G37*
G36*
X4839Y-1791D02*
X4430D01*
X4438Y-1832D01*
X4484Y-1901D01*
X4542Y-1940D01*
X4546Y-1956D01*
Y-1979D01*
X4542Y-1995D01*
X4484Y-2034D01*
X4446Y-2092D01*
X4430Y-2095D01*
X4406D01*
X4390Y-2092D01*
X4352Y-2034D01*
X4283Y-1988D01*
X4241Y-1980D01*
Y-2184D01*
Y-2388D01*
X4283Y-2380D01*
X4352Y-2334D01*
X4390Y-2276D01*
X4406Y-2273D01*
X4430D01*
X4446Y-2276D01*
X4484Y-2334D01*
X4553Y-2380D01*
X4594Y-2388D01*
Y-2184D01*
X4634D01*
Y-2144D01*
X4839D01*
X4831Y-2103D01*
X4785Y-2034D01*
X4727Y-1995D01*
X4723Y-1979D01*
Y-1956D01*
X4727Y-1940D01*
X4785Y-1901D01*
X4831Y-1832D01*
X4839Y-1791D01*
D02*
G37*
G36*
X605Y-1957D02*
X441D01*
Y-2122D01*
X482Y-2114D01*
X551Y-2068D01*
X597Y-1999D01*
X605Y-1957D01*
D02*
G37*
G36*
X-1371D02*
X-1536D01*
X-1527Y-1999D01*
X-1481Y-2068D01*
X-1413Y-2114D01*
X-1371Y-2122D01*
Y-1957D01*
D02*
G37*
G36*
X-2596Y-1990D02*
X-2658Y-2003D01*
X-2711Y-2038D01*
X-2747Y-2091D01*
X-2749Y-2104D01*
X-2805Y-2127D01*
X-2819Y-2117D01*
X-2882Y-2105D01*
X-2944Y-2117D01*
X-2997Y-2152D01*
X-3032Y-2205D01*
X-3045Y-2268D01*
X-3032Y-2330D01*
X-3005Y-2372D01*
X-3012Y-2422D01*
X-3012D01*
X-3012Y-2422D01*
Y-2778D01*
X-3012Y-2778D01*
D01*
X-3016Y-2822D01*
X-3016D01*
X-3016Y-2826D01*
Y-3178D01*
X-2956D01*
Y-3272D01*
X-2966D01*
Y-3628D01*
X-2702D01*
X-2688Y-3628D01*
X-2652Y-3660D01*
Y-3668D01*
X-2513D01*
Y-3450D01*
Y-3232D01*
X-2652D01*
Y-3240D01*
X-2652Y-3240D01*
X-2688Y-3272D01*
X-2702Y-3272D01*
X-2753D01*
Y-3178D01*
X-2738D01*
Y-2822D01*
X-2738Y-2822D01*
D01*
X-2734Y-2778D01*
X-2734D01*
X-2734Y-2774D01*
Y-2649D01*
X-2685D01*
X-2677Y-2663D01*
X-2624Y-2698D01*
X-2561Y-2710D01*
X-2499Y-2698D01*
X-2446Y-2663D01*
X-2410Y-2610D01*
X-2398Y-2547D01*
X-2410Y-2485D01*
X-2446Y-2432D01*
X-2499Y-2397D01*
X-2561Y-2384D01*
X-2624Y-2397D01*
X-2677Y-2432D01*
X-2685Y-2445D01*
X-2734D01*
Y-2422D01*
X-2737D01*
X-2745Y-2411D01*
X-2759Y-2372D01*
X-2731Y-2330D01*
X-2728Y-2318D01*
X-2673Y-2295D01*
X-2658Y-2304D01*
X-2596Y-2317D01*
X-2533Y-2304D01*
X-2480Y-2269D01*
X-2445Y-2216D01*
X-2433Y-2154D01*
X-2445Y-2091D01*
X-2480Y-2038D01*
X-2533Y-2003D01*
X-2596Y-1990D01*
D02*
G37*
G36*
X-505Y-1957D02*
X-670D01*
X-661Y-1999D01*
X-615Y-2068D01*
X-546Y-2114D01*
X-505Y-2122D01*
Y-1957D01*
D02*
G37*
G36*
X-1127D02*
X-1291D01*
Y-2122D01*
X-1250Y-2114D01*
X-1181Y-2068D01*
X-1135Y-1999D01*
X-1127Y-1957D01*
D02*
G37*
G36*
X-2872Y-984D02*
X-3228D01*
Y-1262D01*
X-3059D01*
X-3035Y-1292D01*
X-3055Y-1338D01*
X-3228D01*
Y-1616D01*
X-3139D01*
X-3135Y-1635D01*
X-3115Y-1665D01*
X-3008Y-1772D01*
X-3013Y-1800D01*
X-3001Y-1862D01*
X-2965Y-1915D01*
X-2912Y-1951D01*
X-2850Y-1963D01*
X-2788Y-1951D01*
X-2735Y-1915D01*
X-2728Y-1905D01*
X-2689Y-1875D01*
X-2664Y-1892D01*
X-2636Y-1911D01*
X-2574Y-1923D01*
X-2511Y-1911D01*
X-2458Y-1875D01*
X-2423Y-1822D01*
X-2411Y-1760D01*
X-2423Y-1697D01*
X-2458Y-1646D01*
X-2456Y-1638D01*
X-2441Y-1596D01*
X-2382D01*
Y-1318D01*
X-2350Y-1282D01*
X-2342D01*
Y-1143D01*
X-2778D01*
Y-1198D01*
X-2831D01*
X-2872Y-1157D01*
Y-984D01*
D02*
G37*
G36*
X-425Y-1713D02*
Y-1877D01*
X-261D01*
X-269Y-1836D01*
X-315Y-1767D01*
X-384Y-1721D01*
X-425Y-1713D01*
D02*
G37*
G36*
X-505D02*
X-546Y-1721D01*
X-615Y-1767D01*
X-661Y-1836D01*
X-670Y-1877D01*
X-505D01*
Y-1713D01*
D02*
G37*
G36*
X441D02*
Y-1877D01*
X605D01*
X597Y-1836D01*
X551Y-1767D01*
X482Y-1721D01*
X441Y-1713D01*
D02*
G37*
G36*
X361D02*
X320Y-1721D01*
X251Y-1767D01*
X205Y-1836D01*
X197Y-1877D01*
X361D01*
Y-1713D01*
D02*
G37*
G36*
X7340Y-1744D02*
Y-1910D01*
X7506D01*
X7498Y-1868D01*
X7451Y-1799D01*
X7382Y-1752D01*
X7340Y-1744D01*
D02*
G37*
G36*
X6860D02*
X6818Y-1752D01*
X6749Y-1799D01*
X6702Y-1868D01*
X6694Y-1910D01*
X6860D01*
Y-1744D01*
D02*
G37*
G36*
X-1291Y-1713D02*
Y-1877D01*
X-1127D01*
X-1135Y-1836D01*
X-1181Y-1767D01*
X-1250Y-1721D01*
X-1291Y-1713D01*
D02*
G37*
G36*
X-1371D02*
X-1413Y-1721D01*
X-1481Y-1767D01*
X-1527Y-1836D01*
X-1536Y-1877D01*
X-1371D01*
Y-1713D01*
D02*
G37*
G36*
X1483Y-3461D02*
Y-3617D01*
X1639D01*
X1631Y-3579D01*
X1587Y-3513D01*
X1521Y-3469D01*
X1483Y-3461D01*
D02*
G37*
G36*
X-1090Y-5694D02*
X-1132Y-5702D01*
X-1201Y-5749D01*
X-1248Y-5818D01*
X-1256Y-5860D01*
X-1090D01*
Y-5694D01*
D02*
G37*
G36*
X-2897Y-4445D02*
X-3445Y-5288D01*
X-2404Y-5964D01*
X-1856Y-5121D01*
X-2897Y-4445D01*
D02*
G37*
G36*
X-540Y-5694D02*
X-582Y-5702D01*
X-651Y-5749D01*
X-698Y-5818D01*
X-706Y-5860D01*
X-540D01*
Y-5694D01*
D02*
G37*
G36*
X-1010D02*
Y-5860D01*
X-844D01*
X-852Y-5818D01*
X-899Y-5749D01*
X-968Y-5702D01*
X-1010Y-5694D01*
D02*
G37*
G36*
X-2100Y-5755D02*
X-2155Y-5756D01*
X-2206Y-5778D01*
X-2244Y-5817D01*
X-2265Y-5869D01*
X-2264Y-5924D01*
X-2242Y-5975D01*
X-2203Y-6013D01*
X-2071Y-6099D01*
X-2019Y-6119D01*
X-1964Y-6119D01*
X-1913Y-6097D01*
X-1875Y-6057D01*
X-1868Y-6039D01*
X-1787D01*
X-1778Y-6053D01*
X-1725Y-6088D01*
X-1663Y-6100D01*
X-1600Y-6088D01*
X-1547Y-6053D01*
X-1512Y-6000D01*
X-1500Y-5937D01*
X-1512Y-5875D01*
X-1547Y-5822D01*
X-1600Y-5787D01*
X-1663Y-5774D01*
X-1725Y-5787D01*
X-1778Y-5822D01*
X-1787Y-5835D01*
X-1957D01*
X-2049Y-5776D01*
X-2100Y-5755D01*
D02*
G37*
G36*
X1206Y-5940D02*
X1040D01*
Y-6106D01*
X1082Y-6098D01*
X1151Y-6051D01*
X1198Y-5982D01*
X1206Y-5940D01*
D02*
G37*
G36*
X4640Y-5894D02*
Y-6060D01*
X4806D01*
X4798Y-6018D01*
X4751Y-5949D01*
X4682Y-5902D01*
X4640Y-5894D01*
D02*
G37*
G36*
X4560D02*
X4518Y-5902D01*
X4449Y-5949D01*
X4402Y-6018D01*
X4394Y-6060D01*
X4560D01*
Y-5894D01*
D02*
G37*
G36*
X-460Y-5694D02*
Y-5860D01*
X-294D01*
X-302Y-5818D01*
X-349Y-5749D01*
X-418Y-5702D01*
X-460Y-5694D01*
D02*
G37*
G36*
X1040D02*
Y-5860D01*
X1206D01*
X1198Y-5818D01*
X1151Y-5749D01*
X1082Y-5702D01*
X1040Y-5694D01*
D02*
G37*
G36*
X960D02*
X918Y-5702D01*
X849Y-5749D01*
X802Y-5818D01*
X794Y-5860D01*
X960D01*
Y-5694D01*
D02*
G37*
G36*
X3104Y-4205D02*
X2630D01*
Y-4483D01*
X2686D01*
X2714Y-4533D01*
X2704Y-4583D01*
X2716Y-4645D01*
X2731Y-4667D01*
X2704Y-4717D01*
X2630D01*
Y-4934D01*
X2533Y-5031D01*
X2509Y-5067D01*
X2500Y-5110D01*
X2500Y-5110D01*
Y-5345D01*
X2497Y-5347D01*
X2462Y-5400D01*
X2449Y-5462D01*
X2462Y-5525D01*
X2497Y-5578D01*
X2550Y-5613D01*
X2612Y-5626D01*
X2675Y-5613D01*
X2728Y-5578D01*
X2763Y-5525D01*
X2776Y-5462D01*
X2763Y-5400D01*
X2728Y-5347D01*
X2725Y-5345D01*
Y-5157D01*
X2887Y-4995D01*
X3104D01*
Y-4717D01*
X3030D01*
X3003Y-4667D01*
X3018Y-4645D01*
X3030Y-4583D01*
X3020Y-4533D01*
X3048Y-4483D01*
X3104D01*
Y-4205D01*
D02*
G37*
G36*
X-1828Y-5336D02*
X-1883Y-5337D01*
X-1933Y-5359D01*
X-1972Y-5398D01*
X-1992Y-5449D01*
X-1992Y-5505D01*
X-1970Y-5555D01*
X-1930Y-5594D01*
X-1798Y-5680D01*
X-1747Y-5700D01*
X-1692Y-5699D01*
X-1641Y-5677D01*
X-1625Y-5661D01*
X-1594Y-5640D01*
X-1555Y-5653D01*
X-1530Y-5669D01*
X-1468Y-5681D01*
X-1406Y-5669D01*
X-1353Y-5633D01*
X-1317Y-5580D01*
X-1305Y-5518D01*
X-1317Y-5456D01*
X-1353Y-5403D01*
X-1406Y-5367D01*
X-1468Y-5355D01*
X-1530Y-5367D01*
X-1583Y-5403D01*
X-1592Y-5416D01*
X-1685D01*
X-1776Y-5356D01*
X-1828Y-5336D01*
D02*
G37*
G36*
X40Y-5694D02*
Y-5860D01*
X206D01*
X198Y-5818D01*
X151Y-5749D01*
X82Y-5702D01*
X40Y-5694D01*
D02*
G37*
G36*
X-40D02*
X-82Y-5702D01*
X-151Y-5749D01*
X-198Y-5818D01*
X-206Y-5860D01*
X-40D01*
Y-5694D01*
D02*
G37*
G36*
X540D02*
Y-5860D01*
X706D01*
X698Y-5818D01*
X651Y-5749D01*
X582Y-5702D01*
X540Y-5694D01*
D02*
G37*
G36*
X460D02*
X418Y-5702D01*
X349Y-5749D01*
X302Y-5818D01*
X294Y-5860D01*
X460D01*
Y-5694D01*
D02*
G37*
G36*
X4040Y-6344D02*
Y-6510D01*
X4206D01*
X4198Y-6468D01*
X4151Y-6399D01*
X4082Y-6352D01*
X4040Y-6344D01*
D02*
G37*
G36*
X3960D02*
X3918Y-6352D01*
X3849Y-6399D01*
X3802Y-6468D01*
X3794Y-6510D01*
X3960D01*
Y-6344D01*
D02*
G37*
G36*
X4806Y-6140D02*
X4640D01*
Y-6306D01*
X4682Y-6298D01*
X4751Y-6251D01*
X4798Y-6182D01*
X4806Y-6140D01*
D02*
G37*
G36*
X4560D02*
X4394D01*
X4402Y-6182D01*
X4449Y-6251D01*
X4518Y-6298D01*
X4560Y-6306D01*
Y-6140D01*
D02*
G37*
G36*
X3556Y-6890D02*
X3390D01*
Y-7056D01*
X3432Y-7048D01*
X3501Y-7001D01*
X3548Y-6932D01*
X3556Y-6890D01*
D02*
G37*
G36*
X3310D02*
X3144D01*
X3152Y-6932D01*
X3199Y-7001D01*
X3268Y-7048D01*
X3310Y-7056D01*
Y-6890D01*
D02*
G37*
G36*
X3390Y-6644D02*
Y-6810D01*
X3556D01*
X3548Y-6768D01*
X3501Y-6699D01*
X3432Y-6652D01*
X3390Y-6644D01*
D02*
G37*
G36*
X3310D02*
X3268Y-6652D01*
X3199Y-6699D01*
X3152Y-6768D01*
X3144Y-6810D01*
X3310D01*
Y-6644D01*
D02*
G37*
G36*
X-1090Y-5940D02*
X-1256D01*
X-1248Y-5982D01*
X-1201Y-6051D01*
X-1132Y-6098D01*
X-1090Y-6106D01*
Y-5940D01*
D02*
G37*
G36*
X460D02*
X294D01*
X302Y-5982D01*
X349Y-6051D01*
X418Y-6098D01*
X460Y-6106D01*
Y-5940D01*
D02*
G37*
G36*
X206D02*
X40D01*
Y-6106D01*
X82Y-6098D01*
X151Y-6051D01*
X198Y-5982D01*
X206Y-5940D01*
D02*
G37*
G36*
X960D02*
X794D01*
X802Y-5982D01*
X849Y-6051D01*
X918Y-6098D01*
X960Y-6106D01*
Y-5940D01*
D02*
G37*
G36*
X706D02*
X540D01*
Y-6106D01*
X582Y-6098D01*
X651Y-6051D01*
X698Y-5982D01*
X706Y-5940D01*
D02*
G37*
G36*
X-540D02*
X-706D01*
X-698Y-5982D01*
X-651Y-6051D01*
X-582Y-6098D01*
X-540Y-6106D01*
Y-5940D01*
D02*
G37*
G36*
X-844D02*
X-1010D01*
Y-6106D01*
X-968Y-6098D01*
X-899Y-6051D01*
X-852Y-5982D01*
X-844Y-5940D01*
D02*
G37*
G36*
X-40D02*
X-206D01*
X-198Y-5982D01*
X-151Y-6051D01*
X-82Y-6098D01*
X-40Y-6106D01*
Y-5940D01*
D02*
G37*
G36*
X-294D02*
X-460D01*
Y-6106D01*
X-418Y-6098D01*
X-349Y-6051D01*
X-302Y-5982D01*
X-294Y-5940D01*
D02*
G37*
G36*
X946Y-3940D02*
X790D01*
Y-4096D01*
X828Y-4088D01*
X894Y-4044D01*
X938Y-3978D01*
X946Y-3940D01*
D02*
G37*
G36*
X1181Y-3299D02*
Y-3495D01*
Y-3691D01*
X1219Y-3683D01*
X1246Y-3695D01*
X1254Y-3735D01*
X1284Y-3780D01*
Y-4128D01*
X1311D01*
Y-4222D01*
X1284D01*
Y-4405D01*
X868D01*
X853Y-4382D01*
X800Y-4346D01*
X737Y-4334D01*
X675Y-4346D01*
X622Y-4382D01*
X586Y-4435D01*
X574Y-4497D01*
X586Y-4560D01*
X622Y-4613D01*
X675Y-4648D01*
X737Y-4660D01*
X800Y-4648D01*
X853Y-4613D01*
X868Y-4589D01*
X1266D01*
X1293Y-4639D01*
X1292Y-4640D01*
X1280Y-4703D01*
X1292Y-4765D01*
X1327Y-4818D01*
X1380Y-4854D01*
X1443Y-4866D01*
X1505Y-4854D01*
X1558Y-4818D01*
X1594Y-4765D01*
X1606Y-4703D01*
X1594Y-4640D01*
X1581Y-4621D01*
X1562Y-4578D01*
Y-4578D01*
X1562Y-4578D01*
X1562Y-4578D01*
Y-4222D01*
X1535D01*
Y-4128D01*
X1562D01*
Y-3837D01*
X1588Y-3817D01*
X1638Y-3840D01*
Y-4128D01*
X1916D01*
Y-4036D01*
X2259D01*
X2268Y-4049D01*
X2321Y-4085D01*
X2384Y-4097D01*
X2446Y-4085D01*
X2499Y-4049D01*
X2535Y-3996D01*
X2547Y-3934D01*
X2535Y-3871D01*
X2499Y-3818D01*
X2446Y-3783D01*
X2384Y-3771D01*
X2321Y-3783D01*
X2268Y-3818D01*
X2259Y-3832D01*
X1916D01*
Y-3772D01*
X1667D01*
X1655Y-3760D01*
X1633Y-3724D01*
X1639Y-3697D01*
X1443D01*
Y-3657D01*
X1403D01*
Y-3461D01*
X1365Y-3469D01*
X1338Y-3458D01*
X1330Y-3417D01*
X1285Y-3351D01*
X1219Y-3307D01*
X1181Y-3299D01*
D02*
G37*
G36*
X-414Y-3885D02*
X-592D01*
Y-4024D01*
X-414D01*
Y-3885D01*
D02*
G37*
G36*
X-1849D02*
X-2005D01*
X-1997Y-3923D01*
X-1953Y-3989D01*
X-1887Y-4033D01*
X-1849Y-4041D01*
Y-3885D01*
D02*
G37*
G36*
X1916Y-4222D02*
X1638D01*
Y-4578D01*
X1916D01*
Y-4508D01*
X2282D01*
X2291Y-4522D01*
X2344Y-4557D01*
X2406Y-4569D01*
X2469Y-4557D01*
X2522Y-4522D01*
X2557Y-4469D01*
X2569Y-4406D01*
X2557Y-4344D01*
X2522Y-4291D01*
X2469Y-4256D01*
X2406Y-4243D01*
X2344Y-4256D01*
X2291Y-4291D01*
X2282Y-4304D01*
X1916D01*
Y-4222D01*
D02*
G37*
G36*
X4346Y-4660D02*
Y-4816D01*
X4502D01*
X4494Y-4778D01*
X4450Y-4712D01*
X4384Y-4668D01*
X4346Y-4660D01*
D02*
G37*
G36*
X-4708Y-4061D02*
X-4764Y-4062D01*
X-4814Y-4084D01*
X-4834Y-4104D01*
X-4865Y-4121D01*
X-4902Y-4112D01*
X-4931Y-4093D01*
X-4993Y-4080D01*
X-5056Y-4093D01*
X-5109Y-4128D01*
X-5144Y-4181D01*
X-5156Y-4243D01*
X-5144Y-4306D01*
X-5109Y-4359D01*
X-5056Y-4394D01*
X-4993Y-4406D01*
X-4931Y-4394D01*
X-4878Y-4359D01*
X-4862Y-4335D01*
X-4787D01*
X-4679Y-4405D01*
X-4628Y-4425D01*
X-4573Y-4425D01*
X-4522Y-4403D01*
X-4483Y-4363D01*
X-4463Y-4312D01*
X-4464Y-4257D01*
X-4485Y-4206D01*
X-4525Y-4168D01*
X-4657Y-4082D01*
X-4708Y-4061D01*
D02*
G37*
G36*
X-2384Y-2822D02*
X-2662D01*
Y-3178D01*
X-2384D01*
Y-3163D01*
X-2334Y-3136D01*
X-2312Y-3151D01*
X-2288Y-3156D01*
X-2257Y-3208D01*
X-2258Y-3210D01*
X-2277Y-3231D01*
X-2294Y-3232D01*
X-2294D01*
X-2301Y-3232D01*
X-2433D01*
Y-3410D01*
X-2294D01*
Y-3381D01*
X-2244Y-3372D01*
X-2215Y-3415D01*
X-2162Y-3451D01*
X-2100Y-3463D01*
X-2038Y-3451D01*
X-1997Y-3424D01*
X-1954Y-3452D01*
X-1963Y-3500D01*
X-1951Y-3562D01*
X-1915Y-3615D01*
X-1915Y-3615D01*
Y-3676D01*
X-1953Y-3701D01*
X-1997Y-3767D01*
X-2005Y-3805D01*
X-1809D01*
Y-3845D01*
X-1769D01*
Y-4041D01*
X-1731Y-4033D01*
X-1712Y-4021D01*
X-1668Y-4045D01*
Y-4106D01*
X-1490D01*
Y-3927D01*
X-1410D01*
Y-4106D01*
X-1250D01*
Y-4224D01*
X-1072D01*
Y-4045D01*
X-992D01*
Y-4224D01*
X-814D01*
Y-4024D01*
X-672D01*
Y-3845D01*
X-632D01*
Y-3805D01*
X-414D01*
Y-3666D01*
X-422D01*
X-422Y-3666D01*
X-454Y-3629D01*
X-454Y-3616D01*
Y-3352D01*
X-480D01*
Y-3274D01*
X-469Y-3218D01*
X-481Y-3155D01*
X-516Y-3102D01*
X-569Y-3067D01*
X-632Y-3055D01*
X-694Y-3067D01*
X-747Y-3102D01*
X-782Y-3155D01*
X-795Y-3218D01*
X-782Y-3280D01*
X-768Y-3302D01*
X-795Y-3352D01*
X-810D01*
Y-3537D01*
X-854Y-3552D01*
X-860Y-3552D01*
X-1026D01*
X-1047Y-3531D01*
X-1066Y-3483D01*
X-1031Y-3430D01*
X-1019Y-3368D01*
X-1031Y-3305D01*
X-1066Y-3252D01*
X-1119Y-3217D01*
X-1162Y-3208D01*
X-1192Y-3189D01*
X-1211Y-3160D01*
X-1220Y-3116D01*
X-1255Y-3063D01*
X-1308Y-3028D01*
X-1371Y-3016D01*
X-1433Y-3028D01*
X-1486Y-3063D01*
X-1521Y-3116D01*
X-1534Y-3179D01*
X-1530Y-3198D01*
X-1544Y-3219D01*
X-1552Y-3258D01*
Y-3399D01*
X-1585Y-3432D01*
X-1602Y-3434D01*
X-1628Y-3434D01*
X-1668Y-3410D01*
X-1685Y-3385D01*
X-1681Y-3327D01*
X-1663Y-3315D01*
X-1628Y-3262D01*
X-1616Y-3200D01*
X-1628Y-3138D01*
X-1663Y-3085D01*
X-1716Y-3049D01*
X-1779Y-3037D01*
X-1841Y-3049D01*
X-1894Y-3085D01*
X-1929Y-3138D01*
X-1935Y-3168D01*
X-1964Y-3178D01*
X-1989Y-3182D01*
X-2038Y-3149D01*
X-2090Y-3139D01*
X-2110Y-3109D01*
X-2117Y-3089D01*
X-2099Y-3062D01*
X-2087Y-3000D01*
X-2099Y-2938D01*
X-2135Y-2885D01*
X-2188Y-2849D01*
X-2250Y-2837D01*
X-2312Y-2849D01*
X-2334Y-2864D01*
X-2384Y-2837D01*
Y-2822D01*
D02*
G37*
G36*
X-122Y-3885D02*
X-300D01*
Y-4024D01*
X-122D01*
Y-3885D01*
D02*
G37*
G36*
X-6490Y-3554D02*
X-6528Y-3562D01*
X-6594Y-3606D01*
X-6638Y-3672D01*
X-6646Y-3710D01*
X-6490D01*
Y-3554D01*
D02*
G37*
G36*
X-5904Y-3690D02*
X-6060D01*
Y-3846D01*
X-6022Y-3838D01*
X-5956Y-3794D01*
X-5912Y-3728D01*
X-5904Y-3690D01*
D02*
G37*
G36*
X864Y-2600D02*
X801Y-2612D01*
X748Y-2648D01*
X713Y-2701D01*
X700Y-2763D01*
X713Y-2826D01*
X748Y-2878D01*
X762Y-2887D01*
Y-3002D01*
X690D01*
Y-3266D01*
X690Y-3279D01*
X658Y-3316D01*
X650D01*
Y-3455D01*
X868D01*
Y-3535D01*
X650D01*
Y-3615D01*
X646Y-3618D01*
X642Y-3618D01*
X630Y-3614D01*
X596Y-3579D01*
Y-3352D01*
X531D01*
X505Y-3302D01*
X519Y-3280D01*
X531Y-3218D01*
X519Y-3155D01*
X484Y-3102D01*
X431Y-3067D01*
X368Y-3055D01*
X306Y-3067D01*
X253Y-3102D01*
X243Y-3117D01*
X193D01*
X184Y-3102D01*
X131Y-3067D01*
X68Y-3055D01*
X6Y-3067D01*
X-47Y-3102D01*
X-82Y-3155D01*
X-95Y-3218D01*
X-82Y-3280D01*
X-61Y-3313D01*
X-92Y-3352D01*
X-260D01*
Y-3616D01*
X-260Y-3629D01*
X-292Y-3666D01*
X-300D01*
Y-3805D01*
X136D01*
Y-3666D01*
X128D01*
X128Y-3666D01*
X96Y-3629D01*
X96Y-3616D01*
Y-3457D01*
X140Y-3413D01*
X163Y-3380D01*
X169Y-3346D01*
X197Y-3339D01*
X229Y-3352D01*
X240Y-3367D01*
Y-3616D01*
X240Y-3629D01*
X208Y-3666D01*
X200D01*
Y-3805D01*
X418D01*
Y-3845D01*
X458D01*
Y-4024D01*
X592D01*
X606Y-4044D01*
X672Y-4088D01*
X710Y-4096D01*
Y-3900D01*
X750D01*
Y-3860D01*
X946D01*
X938Y-3822D01*
X894Y-3756D01*
X846Y-3724D01*
X861Y-3674D01*
X1049D01*
X1063Y-3683D01*
X1101Y-3691D01*
Y-3495D01*
Y-3299D01*
X1087Y-3302D01*
X1046Y-3262D01*
Y-3002D01*
X966D01*
Y-2887D01*
X979Y-2878D01*
X1014Y-2826D01*
X1027Y-2763D01*
X1014Y-2701D01*
X979Y-2648D01*
X926Y-2612D01*
X864Y-2600D01*
D02*
G37*
G36*
X-2294Y-3490D02*
X-2433D01*
Y-3668D01*
X-2294D01*
Y-3490D01*
D02*
G37*
G36*
X378Y-3885D02*
X200D01*
Y-4024D01*
X378D01*
Y-3885D01*
D02*
G37*
G36*
X136D02*
X-42D01*
Y-4024D01*
X136D01*
Y-3885D01*
D02*
G37*
G36*
X-6490Y-3790D02*
X-6646D01*
X-6638Y-3828D01*
X-6594Y-3894D01*
X-6528Y-3938D01*
X-6490Y-3946D01*
Y-3790D01*
D02*
G37*
G36*
X-4432Y-3163D02*
X-4868D01*
Y-3302D01*
X-4860D01*
X-4828Y-3338D01*
Y-3352D01*
Y-3616D01*
X-4826D01*
Y-3700D01*
X-4839Y-3709D01*
X-4875Y-3762D01*
X-4887Y-3824D01*
X-4875Y-3886D01*
X-4839Y-3939D01*
X-4786Y-3975D01*
X-4724Y-3987D01*
X-4662Y-3975D01*
X-4609Y-3939D01*
X-4600Y-3926D01*
X-4498D01*
X-4407Y-3986D01*
X-4355Y-4006D01*
X-4300Y-4005D01*
X-4250Y-3983D01*
X-4211Y-3944D01*
X-4191Y-3893D01*
X-4191Y-3837D01*
X-4213Y-3787D01*
X-4253Y-3748D01*
X-4385Y-3663D01*
X-4433Y-3643D01*
X-4437Y-3640D01*
X-4472Y-3593D01*
Y-3352D01*
X-4472Y-3338D01*
X-4440Y-3302D01*
X-4432D01*
Y-3163D01*
D02*
G37*
G36*
X4560Y-5194D02*
X4518Y-5202D01*
X4449Y-5249D01*
X4402Y-5318D01*
X4394Y-5360D01*
X4560D01*
Y-5194D01*
D02*
G37*
G36*
X3690D02*
Y-5360D01*
X3856D01*
X3848Y-5318D01*
X3801Y-5249D01*
X3732Y-5202D01*
X3690Y-5194D01*
D02*
G37*
G36*
X5060Y-5140D02*
X4894D01*
X4902Y-5182D01*
X4949Y-5251D01*
X5018Y-5298D01*
X5060Y-5306D01*
Y-5140D01*
D02*
G37*
G36*
X4640Y-5194D02*
Y-5360D01*
X4806D01*
X4798Y-5318D01*
X4751Y-5249D01*
X4682Y-5202D01*
X4640Y-5194D01*
D02*
G37*
G36*
X4560Y-5440D02*
X4394D01*
X4402Y-5482D01*
X4449Y-5551D01*
X4518Y-5598D01*
X4560Y-5606D01*
Y-5440D01*
D02*
G37*
G36*
X3856D02*
X3690D01*
Y-5606D01*
X3732Y-5598D01*
X3801Y-5551D01*
X3848Y-5482D01*
X3856Y-5440D01*
D02*
G37*
G36*
X5260Y-5394D02*
X5218Y-5402D01*
X5149Y-5449D01*
X5102Y-5518D01*
X5094Y-5560D01*
X5260D01*
Y-5394D01*
D02*
G37*
G36*
X4806Y-5440D02*
X4640D01*
Y-5606D01*
X4682Y-5598D01*
X4751Y-5551D01*
X4798Y-5482D01*
X4806Y-5440D01*
D02*
G37*
G36*
X5306Y-5140D02*
X5140D01*
Y-5306D01*
X5182Y-5298D01*
X5251Y-5251D01*
X5298Y-5182D01*
X5306Y-5140D01*
D02*
G37*
G36*
X4010Y-4896D02*
X3773D01*
Y-5035D01*
X4010D01*
Y-4896D01*
D02*
G37*
G36*
X4502D02*
X4346D01*
Y-5052D01*
X4384Y-5044D01*
X4450Y-5000D01*
X4494Y-4934D01*
X4502Y-4896D01*
D02*
G37*
G36*
X4266Y-4660D02*
X4228Y-4668D01*
X4162Y-4712D01*
X4118Y-4778D01*
X4110Y-4816D01*
X4266D01*
Y-4660D01*
D02*
G37*
G36*
X5860Y-4794D02*
X5818Y-4802D01*
X5749Y-4849D01*
X5702Y-4918D01*
X5694Y-4960D01*
X5860D01*
Y-4794D01*
D02*
G37*
G36*
X5060Y-4894D02*
X5018Y-4902D01*
X4949Y-4949D01*
X4902Y-5018D01*
X4894Y-5060D01*
X5060D01*
Y-4894D01*
D02*
G37*
G36*
X-4005Y-3726D02*
X-4553Y-4569D01*
X-3512Y-5245D01*
X-2964Y-4402D01*
X-4005Y-3726D01*
D02*
G37*
G36*
X4266Y-4896D02*
X4110D01*
X4118Y-4934D01*
X4162Y-5000D01*
X4228Y-5044D01*
X4266Y-5052D01*
Y-4896D01*
D02*
G37*
G36*
X5140Y-4894D02*
Y-5060D01*
X5306D01*
X5298Y-5018D01*
X5251Y-4949D01*
X5182Y-4902D01*
X5140Y-4894D01*
D02*
G37*
G36*
X4778Y528D02*
X4740Y521D01*
X4674Y476D01*
X4630Y410D01*
X4629Y406D01*
X4622Y372D01*
X4778D01*
Y528D01*
D02*
G37*
G36*
X4408D02*
Y372D01*
X4564D01*
X4558Y406D01*
X4557Y410D01*
X4513Y476D01*
X4446Y521D01*
X4408Y528D01*
D02*
G37*
G36*
X6910Y646D02*
X6872Y638D01*
X6806Y594D01*
X6762Y528D01*
X6754Y490D01*
X6910D01*
Y646D01*
D02*
G37*
G36*
X4858Y528D02*
Y372D01*
X5014D01*
X5007Y410D01*
X4963Y476D01*
X4896Y521D01*
X4858Y528D01*
D02*
G37*
G36*
X-5040Y496D02*
X-5078Y488D01*
X-5144Y444D01*
X-5188Y378D01*
X-5196Y340D01*
X-5040D01*
Y496D01*
D02*
G37*
G36*
X5464Y442D02*
X5308D01*
Y286D01*
X5346Y293D01*
X5413Y337D01*
X5457Y404D01*
X5464Y442D01*
D02*
G37*
G36*
X4328Y528D02*
X4290Y521D01*
X4224Y476D01*
X4180Y410D01*
X4172Y372D01*
X4328D01*
Y528D01*
D02*
G37*
G36*
X-4060Y496D02*
Y340D01*
X-3904D01*
X-3912Y378D01*
X-3956Y444D01*
X-4022Y488D01*
X-4060Y496D01*
D02*
G37*
G36*
X6990Y646D02*
Y490D01*
X7146D01*
X7138Y528D01*
X7094Y594D01*
X7028Y638D01*
X6990Y646D01*
D02*
G37*
G36*
X7510Y896D02*
X7472Y888D01*
X7406Y844D01*
X7362Y778D01*
X7354Y740D01*
X7510D01*
Y896D01*
D02*
G37*
G36*
X5308Y678D02*
Y522D01*
X5464D01*
X5457Y560D01*
X5413Y626D01*
X5346Y670D01*
X5308Y678D01*
D02*
G37*
G36*
X7048Y1271D02*
X6351Y1036D01*
X6416Y843D01*
X7113Y1078D01*
X7048Y1271D01*
D02*
G37*
G36*
X7590Y896D02*
Y740D01*
X7746D01*
X7738Y778D01*
X7694Y844D01*
X7628Y888D01*
X7590Y896D01*
D02*
G37*
G36*
X7746Y660D02*
X7590D01*
Y504D01*
X7628Y512D01*
X7694Y556D01*
X7738Y622D01*
X7746Y660D01*
D02*
G37*
G36*
X7510D02*
X7354D01*
X7362Y622D01*
X7406Y556D01*
X7472Y512D01*
X7510Y504D01*
Y660D01*
D02*
G37*
G36*
X5228Y678D02*
X5190Y670D01*
X5124Y626D01*
X5080Y560D01*
X5072Y522D01*
X5228D01*
Y678D01*
D02*
G37*
G36*
X1137Y1023D02*
X1099Y1016D01*
X1085Y1006D01*
X940D01*
Y827D01*
X900D01*
Y787D01*
X682D01*
Y648D01*
X690D01*
X722Y612D01*
X722Y598D01*
Y371D01*
X722Y339D01*
X713Y290D01*
X713Y290D01*
X713Y289D01*
X703Y241D01*
X700Y227D01*
X713Y165D01*
X748Y112D01*
X801Y77D01*
X864Y64D01*
X926Y77D01*
X979Y112D01*
X1014Y165D01*
X1027Y227D01*
X1015Y284D01*
X1019Y296D01*
X1045Y334D01*
X1078D01*
Y548D01*
X1128Y581D01*
X1132Y579D01*
Y517D01*
X1568D01*
Y656D01*
X1363D01*
X1337Y706D01*
X1366Y749D01*
X1373Y787D01*
X1177D01*
Y827D01*
X1137D01*
Y1023D01*
D02*
G37*
G36*
X3290Y196D02*
Y40D01*
X3446D01*
X3438Y78D01*
X3394Y144D01*
X3328Y188D01*
X3290Y196D01*
D02*
G37*
G36*
X3210D02*
X3172Y188D01*
X3106Y144D01*
X3062Y78D01*
X3054Y40D01*
X3210D01*
Y196D01*
D02*
G37*
G36*
X4564Y292D02*
X4408D01*
Y136D01*
X4446Y144D01*
X4513Y188D01*
X4557Y254D01*
X4558Y258D01*
X4564Y292D01*
D02*
G37*
G36*
X4328D02*
X4172D01*
X4180Y254D01*
X4224Y188D01*
X4290Y144D01*
X4328Y136D01*
Y292D01*
D02*
G37*
G36*
X-3610Y56D02*
Y-83D01*
X-3432D01*
Y56D01*
X-3610D01*
D02*
G37*
G36*
X441Y19D02*
Y-145D01*
X605D01*
X597Y-104D01*
X551Y-35D01*
X482Y11D01*
X441Y19D01*
D02*
G37*
G36*
X6446Y160D02*
X6290D01*
Y4D01*
X6328Y12D01*
X6394Y56D01*
X6438Y122D01*
X6446Y160D01*
D02*
G37*
G36*
X6210D02*
X6054D01*
X6062Y122D01*
X6106Y56D01*
X6172Y12D01*
X6210Y4D01*
Y160D01*
D02*
G37*
G36*
X4778Y292D02*
X4622D01*
X4629Y258D01*
X4630Y254D01*
X4674Y188D01*
X4740Y144D01*
X4778Y136D01*
Y292D01*
D02*
G37*
G36*
X6910Y410D02*
X6754D01*
X6762Y372D01*
X6806Y306D01*
X6872Y262D01*
X6910Y254D01*
Y410D01*
D02*
G37*
G36*
X3796D02*
X3640D01*
Y254D01*
X3678Y262D01*
X3744Y306D01*
X3788Y372D01*
X3796Y410D01*
D02*
G37*
G36*
X5228Y442D02*
X5072D01*
X5080Y404D01*
X5124Y337D01*
X5190Y293D01*
X5228Y286D01*
Y442D01*
D02*
G37*
G36*
X7146Y410D02*
X6990D01*
Y254D01*
X7028Y262D01*
X7094Y306D01*
X7138Y372D01*
X7146Y410D01*
D02*
G37*
G36*
X6210Y396D02*
X6172Y388D01*
X6106Y344D01*
X6062Y278D01*
X6054Y240D01*
X6210D01*
Y396D01*
D02*
G37*
G36*
X5014Y292D02*
X4858D01*
Y136D01*
X4896Y144D01*
X4963Y188D01*
X5007Y254D01*
X5014Y292D01*
D02*
G37*
G36*
X3560Y410D02*
X3404D01*
X3412Y372D01*
X3456Y306D01*
X3522Y262D01*
X3560Y254D01*
Y410D01*
D02*
G37*
G36*
X6290Y396D02*
Y240D01*
X6446D01*
X6438Y278D01*
X6394Y344D01*
X6328Y388D01*
X6290Y396D01*
D02*
G37*
G36*
X2110Y4110D02*
X1954D01*
X1962Y4072D01*
X2006Y4006D01*
X2072Y3962D01*
X2110Y3954D01*
Y4110D01*
D02*
G37*
G36*
X3161Y3896D02*
X2550D01*
Y3590D01*
X3161D01*
Y3896D01*
D02*
G37*
G36*
X2110Y4346D02*
X2072Y4338D01*
X2006Y4294D01*
X1962Y4228D01*
X1954Y4190D01*
X2110D01*
Y4346D01*
D02*
G37*
G36*
X2346Y4110D02*
X2190D01*
Y3954D01*
X2228Y3962D01*
X2294Y4006D01*
X2338Y4072D01*
X2346Y4110D01*
D02*
G37*
G36*
X2470Y3510D02*
X1859D01*
Y3204D01*
X2470D01*
Y3510D01*
D02*
G37*
G36*
X3161Y2696D02*
X2550D01*
Y2390D01*
X3161D01*
Y2696D01*
D02*
G37*
G36*
X2470Y3896D02*
X1859D01*
Y3590D01*
X2470D01*
Y3896D01*
D02*
G37*
G36*
X3161Y3510D02*
X2550D01*
Y3204D01*
X3161D01*
Y3510D01*
D02*
G37*
G36*
X2190Y4346D02*
Y4190D01*
X2346D01*
X2338Y4228D01*
X2294Y4294D01*
X2228Y4338D01*
X2190Y4346D01*
D02*
G37*
G36*
X2346Y4860D02*
X2190D01*
Y4704D01*
X2228Y4712D01*
X2294Y4756D01*
X2338Y4822D01*
X2346Y4860D01*
D02*
G37*
G36*
X2110D02*
X1954D01*
X1962Y4822D01*
X2006Y4756D01*
X2072Y4712D01*
X2110Y4704D01*
Y4860D01*
D02*
G37*
G36*
X2190Y5096D02*
Y4940D01*
X2346D01*
X2338Y4978D01*
X2294Y5044D01*
X2228Y5088D01*
X2190Y5096D01*
D02*
G37*
G36*
X2110D02*
X2072Y5088D01*
X2006Y5044D01*
X1962Y4978D01*
X1954Y4940D01*
X2110D01*
Y5096D01*
D02*
G37*
G36*
X2746Y4460D02*
X2590D01*
Y4304D01*
X2628Y4312D01*
X2694Y4356D01*
X2738Y4422D01*
X2746Y4460D01*
D02*
G37*
G36*
X2510D02*
X2354D01*
X2362Y4422D01*
X2406Y4356D01*
X2472Y4312D01*
X2510Y4304D01*
Y4460D01*
D02*
G37*
G36*
X2590Y4696D02*
Y4540D01*
X2746D01*
X2738Y4578D01*
X2694Y4644D01*
X2628Y4688D01*
X2590Y4696D01*
D02*
G37*
G36*
X2510D02*
X2472Y4688D01*
X2406Y4644D01*
X2362Y4578D01*
X2354Y4540D01*
X2510D01*
Y4696D01*
D02*
G37*
G36*
X2460Y1660D02*
X2304D01*
X2312Y1622D01*
X2356Y1556D01*
X2422Y1512D01*
X2458Y1504D01*
D01*
X2460Y1504D01*
Y1660D01*
D02*
G37*
G36*
X3206D02*
X3040D01*
Y1494D01*
X3082Y1502D01*
X3151Y1549D01*
X3198Y1618D01*
X3206Y1660D01*
D02*
G37*
G36*
X1446Y1710D02*
X1290D01*
Y1554D01*
X1328Y1562D01*
X1394Y1606D01*
X1438Y1672D01*
X1446Y1710D01*
D02*
G37*
G36*
X2696Y1660D02*
X2540D01*
Y1504D01*
X2542Y1504D01*
D01*
X2578Y1512D01*
X2644Y1556D01*
X2688Y1622D01*
X2696Y1660D01*
D02*
G37*
G36*
X1217Y1023D02*
Y867D01*
X1373D01*
X1366Y905D01*
X1321Y971D01*
X1255Y1016D01*
X1217Y1023D01*
D02*
G37*
G36*
X860Y1006D02*
X682D01*
Y867D01*
X860D01*
Y1006D01*
D02*
G37*
G36*
X2960Y1660D02*
X2794D01*
X2802Y1618D01*
X2849Y1549D01*
X2918Y1502D01*
X2960Y1494D01*
Y1660D01*
D02*
G37*
G36*
X6958Y1540D02*
X6347Y1334D01*
X6261Y1305D01*
X6326Y1112D01*
X7023Y1347D01*
X6958Y1540D01*
D02*
G37*
G36*
X2460Y1896D02*
X2422Y1888D01*
X2356Y1844D01*
X2312Y1778D01*
X2304Y1740D01*
X2460D01*
Y1896D01*
D02*
G37*
G36*
X2470Y2310D02*
X1859D01*
Y2004D01*
X2470D01*
Y2310D01*
D02*
G37*
G36*
X1290Y1946D02*
Y1790D01*
X1446D01*
X1438Y1828D01*
X1394Y1894D01*
X1328Y1938D01*
X1290Y1946D01*
D02*
G37*
G36*
X2470Y2696D02*
X1859D01*
Y2390D01*
X2470D01*
Y2696D01*
D02*
G37*
G36*
X3161Y2310D02*
X2550D01*
Y2004D01*
X3161D01*
Y2310D01*
D02*
G37*
G36*
X2960Y1906D02*
X2918Y1898D01*
X2849Y1851D01*
X2802Y1782D01*
X2794Y1740D01*
X2960D01*
Y1906D01*
D02*
G37*
G36*
X2540Y1896D02*
Y1740D01*
X2696D01*
X2688Y1778D01*
X2644Y1844D01*
X2578Y1888D01*
X2540Y1896D01*
D02*
G37*
G36*
X3460Y1906D02*
X3418Y1898D01*
X3349Y1851D01*
X3302Y1782D01*
X3294Y1740D01*
X3460D01*
Y1906D01*
D02*
G37*
G36*
X3040D02*
Y1740D01*
X3206D01*
X3198Y1782D01*
X3151Y1851D01*
X3082Y1898D01*
X3040Y1906D01*
D02*
G37*
G36*
X361Y19D02*
X320Y11D01*
X251Y-35D01*
X205Y-104D01*
X197Y-145D01*
X361D01*
Y19D01*
D02*
G37*
G36*
X-7290Y-790D02*
X-7446D01*
X-7438Y-828D01*
X-7394Y-894D01*
X-7328Y-938D01*
X-7290Y-946D01*
Y-790D01*
D02*
G37*
G36*
X441Y-847D02*
Y-1011D01*
X605D01*
X597Y-970D01*
X551Y-901D01*
X482Y-855D01*
X441Y-847D01*
D02*
G37*
G36*
X3468Y-463D02*
X3032D01*
Y-602D01*
X3040D01*
X3072Y-638D01*
X3072Y-652D01*
Y-797D01*
X2950Y-904D01*
X2924Y-899D01*
X2862Y-911D01*
X2809Y-947D01*
X2774Y-999D01*
X2761Y-1062D01*
X2774Y-1124D01*
X2809Y-1177D01*
X2853Y-1207D01*
X2853Y-1243D01*
X2848Y-1259D01*
X2806Y-1267D01*
X2753Y-1302D01*
X2718Y-1355D01*
X2705Y-1418D01*
X2718Y-1480D01*
X2753Y-1533D01*
X2806Y-1569D01*
X2868Y-1581D01*
X2931Y-1569D01*
X2984Y-1533D01*
X3019Y-1480D01*
X3031Y-1418D01*
X3019Y-1355D01*
X2984Y-1302D01*
X2940Y-1273D01*
X2940Y-1237D01*
X2945Y-1221D01*
X2987Y-1213D01*
X3040Y-1177D01*
X3075Y-1124D01*
X3087Y-1062D01*
X3086Y-1056D01*
X3246Y-916D01*
X3428D01*
Y-652D01*
X3428Y-638D01*
X3460Y-602D01*
X3468D01*
Y-463D01*
D02*
G37*
G36*
X-7054Y-790D02*
X-7210D01*
Y-946D01*
X-7172Y-938D01*
X-7106Y-894D01*
X-7062Y-828D01*
X-7054Y-790D01*
D02*
G37*
G36*
X-505Y-847D02*
X-546Y-855D01*
X-615Y-901D01*
X-661Y-970D01*
X-670Y-1011D01*
X-505D01*
Y-847D01*
D02*
G37*
G36*
X-1291D02*
Y-1011D01*
X-1127D01*
X-1135Y-970D01*
X-1181Y-901D01*
X-1250Y-855D01*
X-1291Y-847D01*
D02*
G37*
G36*
X361D02*
X320Y-855D01*
X251Y-901D01*
X205Y-970D01*
X197Y-1011D01*
X361D01*
Y-847D01*
D02*
G37*
G36*
X-425D02*
Y-1011D01*
X-261D01*
X-269Y-970D01*
X-315Y-901D01*
X-384Y-855D01*
X-425Y-847D01*
D02*
G37*
G36*
X6105Y-640D02*
X5947D01*
Y-877D01*
X6105D01*
Y-640D01*
D02*
G37*
G36*
X-938Y-658D02*
X-1103D01*
X-1094Y-699D01*
X-1048Y-768D01*
X-979Y-814D01*
X-938Y-823D01*
Y-658D01*
D02*
G37*
G36*
X-1560D02*
X-1724D01*
Y-823D01*
X-1683Y-814D01*
X-1614Y-768D01*
X-1568Y-699D01*
X-1560Y-658D01*
D02*
G37*
G36*
X-72D02*
X-236D01*
X-228Y-699D01*
X-182Y-768D01*
X-113Y-814D01*
X-72Y-823D01*
Y-658D01*
D02*
G37*
G36*
X-694D02*
X-858D01*
Y-823D01*
X-817Y-814D01*
X-748Y-768D01*
X-702Y-699D01*
X-694Y-658D01*
D02*
G37*
G36*
X2710Y-690D02*
X2544D01*
X2552Y-732D01*
X2599Y-801D01*
X2668Y-848D01*
X2710Y-856D01*
Y-690D01*
D02*
G37*
G36*
X6344Y-640D02*
X6185D01*
Y-877D01*
X6344D01*
Y-640D01*
D02*
G37*
G36*
X-1804Y-658D02*
X-1969D01*
X-1961Y-699D01*
X-1914Y-768D01*
X-1846Y-814D01*
X-1804Y-823D01*
Y-658D01*
D02*
G37*
G36*
X2956Y-690D02*
X2790D01*
Y-856D01*
X2832Y-848D01*
X2901Y-801D01*
X2948Y-732D01*
X2956Y-690D01*
D02*
G37*
G36*
X-1127Y-1091D02*
X-1291D01*
Y-1256D01*
X-1250Y-1247D01*
X-1181Y-1201D01*
X-1135Y-1133D01*
X-1127Y-1091D01*
D02*
G37*
G36*
X-1371D02*
X-1536D01*
X-1527Y-1133D01*
X-1481Y-1201D01*
X-1413Y-1247D01*
X-1371Y-1256D01*
Y-1091D01*
D02*
G37*
G36*
X-261D02*
X-425D01*
Y-1256D01*
X-384Y-1247D01*
X-315Y-1201D01*
X-269Y-1133D01*
X-261Y-1091D01*
D02*
G37*
G36*
X-505D02*
X-670D01*
X-661Y-1133D01*
X-615Y-1201D01*
X-546Y-1247D01*
X-505Y-1256D01*
Y-1091D01*
D02*
G37*
G36*
X8Y-1280D02*
Y-1444D01*
X172D01*
X164Y-1403D01*
X118Y-1334D01*
X49Y-1288D01*
X8Y-1280D01*
D02*
G37*
G36*
X-72D02*
X-113Y-1288D01*
X-182Y-1334D01*
X-228Y-1403D01*
X-236Y-1444D01*
X-72D01*
Y-1280D01*
D02*
G37*
G36*
X4674Y-1113D02*
Y-1278D01*
X4839D01*
X4831Y-1237D01*
X4785Y-1168D01*
X4716Y-1122D01*
X4674Y-1113D01*
D02*
G37*
G36*
X3728D02*
X3687Y-1122D01*
X3618Y-1168D01*
X3572Y-1237D01*
X3564Y-1278D01*
X3728D01*
Y-1113D01*
D02*
G37*
G36*
X361Y-1091D02*
X197D01*
X205Y-1133D01*
X251Y-1201D01*
X320Y-1247D01*
X361Y-1256D01*
Y-1091D01*
D02*
G37*
G36*
X7410Y-1044D02*
X7368Y-1052D01*
X7299Y-1099D01*
X7252Y-1168D01*
X7244Y-1210D01*
X7410D01*
Y-1044D01*
D02*
G37*
G36*
X6940D02*
Y-1210D01*
X7106D01*
X7098Y-1168D01*
X7051Y-1099D01*
X6982Y-1052D01*
X6940Y-1044D01*
D02*
G37*
G36*
X-1371Y-847D02*
X-1413Y-855D01*
X-1481Y-901D01*
X-1527Y-970D01*
X-1536Y-1011D01*
X-1371D01*
Y-847D01*
D02*
G37*
G36*
X7490Y-1044D02*
Y-1210D01*
X7656D01*
X7648Y-1168D01*
X7601Y-1099D01*
X7532Y-1052D01*
X7490Y-1044D01*
D02*
G37*
G36*
X4161Y-1113D02*
X4120Y-1122D01*
X4051Y-1168D01*
X4013Y-1225D01*
X3996Y-1229D01*
X3973D01*
X3957Y-1225D01*
X3918Y-1168D01*
X3850Y-1122D01*
X3808Y-1113D01*
Y-1318D01*
X3768D01*
Y-1358D01*
X3564D01*
X3572Y-1399D01*
X3618Y-1468D01*
X3676Y-1507D01*
X3680Y-1523D01*
Y-1546D01*
X3676Y-1562D01*
X3618Y-1601D01*
X3572Y-1670D01*
X3564Y-1711D01*
X3973D01*
X3965Y-1670D01*
X3918Y-1601D01*
X3861Y-1562D01*
X3857Y-1546D01*
Y-1523D01*
X3861Y-1507D01*
X3918Y-1468D01*
X3957Y-1410D01*
X3973Y-1406D01*
X3996D01*
X4013Y-1410D01*
X4051Y-1468D01*
X4120Y-1514D01*
X4161Y-1522D01*
Y-1318D01*
Y-1113D01*
D02*
G37*
G36*
X605Y-1091D02*
X441D01*
Y-1256D01*
X482Y-1247D01*
X551Y-1201D01*
X597Y-1133D01*
X605Y-1091D01*
D02*
G37*
G36*
X6860Y-1044D02*
X6818Y-1052D01*
X6749Y-1099D01*
X6702Y-1168D01*
X6694Y-1210D01*
X6860D01*
Y-1044D01*
D02*
G37*
G36*
X4594Y-1113D02*
X4553Y-1122D01*
X4484Y-1168D01*
X4446Y-1225D01*
X4430Y-1229D01*
X4406D01*
X4390Y-1225D01*
X4352Y-1168D01*
X4283Y-1122D01*
X4241Y-1113D01*
Y-1318D01*
Y-1522D01*
X4283Y-1514D01*
X4352Y-1468D01*
X4390Y-1410D01*
X4406Y-1406D01*
X4430D01*
X4446Y-1410D01*
X4484Y-1468D01*
X4542Y-1507D01*
X4546Y-1523D01*
Y-1546D01*
X4542Y-1562D01*
X4484Y-1601D01*
X4438Y-1670D01*
X4430Y-1711D01*
X4839D01*
X4831Y-1670D01*
X4785Y-1601D01*
X4727Y-1562D01*
X4723Y-1546D01*
Y-1523D01*
X4727Y-1507D01*
X4785Y-1468D01*
X4831Y-1399D01*
X4839Y-1358D01*
X4634D01*
Y-1318D01*
X4594D01*
Y-1113D01*
D02*
G37*
G36*
X-1371Y-225D02*
X-1536D01*
X-1527Y-266D01*
X-1481Y-335D01*
X-1413Y-381D01*
X-1371Y-390D01*
Y-225D01*
D02*
G37*
G36*
X5713Y-363D02*
X5396D01*
Y-456D01*
X5336D01*
X5334Y-452D01*
X5281Y-417D01*
X5218Y-405D01*
X5156Y-417D01*
X5103Y-452D01*
X5068Y-505D01*
X5055Y-568D01*
X5068Y-630D01*
X5103Y-683D01*
X5156Y-719D01*
X5218Y-731D01*
X5281Y-719D01*
X5334Y-683D01*
X5336Y-680D01*
X5396D01*
Y-837D01*
X5713D01*
Y-363D01*
D02*
G37*
G36*
X-505Y-225D02*
X-670D01*
X-661Y-266D01*
X-615Y-335D01*
X-546Y-381D01*
X-505Y-390D01*
Y-225D01*
D02*
G37*
G36*
X-1127D02*
X-1291D01*
Y-390D01*
X-1250Y-381D01*
X-1181Y-335D01*
X-1135Y-266D01*
X-1127Y-225D01*
D02*
G37*
G36*
X6740Y-404D02*
Y-560D01*
X6896D01*
X6888Y-522D01*
X6844Y-456D01*
X6778Y-412D01*
X6740Y-404D01*
D02*
G37*
G36*
X6660D02*
X6622Y-412D01*
X6556Y-456D01*
X6512Y-522D01*
X6504Y-560D01*
X6660D01*
Y-404D01*
D02*
G37*
G36*
X7540Y-394D02*
Y-560D01*
X7706D01*
X7698Y-518D01*
X7651Y-449D01*
X7582Y-402D01*
X7540Y-394D01*
D02*
G37*
G36*
X7460D02*
X7418Y-402D01*
X7349Y-449D01*
X7302Y-518D01*
X7294Y-560D01*
X7460D01*
Y-394D01*
D02*
G37*
G36*
X-261Y-225D02*
X-425D01*
Y-390D01*
X-384Y-381D01*
X-315Y-335D01*
X-269Y-266D01*
X-261Y-225D01*
D02*
G37*
G36*
X-1291Y19D02*
Y-145D01*
X-1127D01*
X-1135Y-104D01*
X-1181Y-35D01*
X-1250Y11D01*
X-1291Y19D01*
D02*
G37*
G36*
X-1371D02*
X-1413Y11D01*
X-1481Y-35D01*
X-1527Y-104D01*
X-1536Y-145D01*
X-1371D01*
Y19D01*
D02*
G37*
G36*
X-425D02*
Y-145D01*
X-261D01*
X-269Y-104D01*
X-315Y-35D01*
X-384Y11D01*
X-425Y19D01*
D02*
G37*
G36*
X-505D02*
X-546Y11D01*
X-615Y-35D01*
X-661Y-104D01*
X-670Y-145D01*
X-505D01*
Y19D01*
D02*
G37*
G36*
X605Y-225D02*
X441D01*
Y-390D01*
X482Y-381D01*
X551Y-335D01*
X597Y-266D01*
X605Y-225D01*
D02*
G37*
G36*
X361D02*
X197D01*
X205Y-266D01*
X251Y-335D01*
X320Y-381D01*
X361Y-390D01*
Y-225D01*
D02*
G37*
G36*
X1568Y437D02*
X1132D01*
Y298D01*
X1140D01*
X1172Y262D01*
X1172Y248D01*
Y18D01*
X1172Y-1D01*
X1139Y-34D01*
Y-34D01*
X1139D01*
X1139Y-34D01*
X1086Y-70D01*
X1050Y-123D01*
X1038Y-185D01*
X1050Y-248D01*
X1086Y-300D01*
X1139Y-336D01*
X1201Y-348D01*
X1263Y-336D01*
X1316Y-300D01*
X1352Y-248D01*
X1364Y-185D01*
X1361Y-169D01*
X1422Y-108D01*
X1444Y-75D01*
X1452Y-36D01*
Y-16D01*
X1528D01*
Y248D01*
X1528Y262D01*
X1560Y298D01*
X1568D01*
Y437D01*
D02*
G37*
G36*
X3446Y-40D02*
X3054D01*
X3062Y-78D01*
X3106Y-144D01*
X3172Y-188D01*
X3201Y-194D01*
X3196Y-244D01*
X3032D01*
Y-383D01*
X3468D01*
Y-244D01*
X3304D01*
X3299Y-194D01*
X3328Y-188D01*
X3394Y-144D01*
X3438Y-78D01*
X3446Y-40D01*
D02*
G37*
G36*
X-7290Y-554D02*
X-7328Y-562D01*
X-7394Y-606D01*
X-7438Y-672D01*
X-7446Y-710D01*
X-7290D01*
Y-554D01*
D02*
G37*
G36*
X6896Y-640D02*
X6740D01*
Y-796D01*
X6778Y-788D01*
X6844Y-744D01*
X6888Y-678D01*
X6896Y-640D01*
D02*
G37*
G36*
X2710Y-444D02*
X2668Y-452D01*
X2599Y-499D01*
X2552Y-568D01*
X2544Y-610D01*
X2710D01*
Y-444D01*
D02*
G37*
G36*
X-7210Y-554D02*
Y-710D01*
X-7054D01*
X-7062Y-672D01*
X-7106Y-606D01*
X-7172Y-562D01*
X-7210Y-554D01*
D02*
G37*
G36*
X7460Y-640D02*
X7294D01*
X7302Y-682D01*
X7349Y-751D01*
X7418Y-798D01*
X7460Y-806D01*
Y-640D01*
D02*
G37*
G36*
X172Y-658D02*
X8D01*
Y-823D01*
X49Y-814D01*
X118Y-768D01*
X164Y-699D01*
X172Y-658D01*
D02*
G37*
G36*
X6660Y-640D02*
X6504D01*
X6512Y-678D01*
X6556Y-744D01*
X6622Y-788D01*
X6660Y-796D01*
Y-640D01*
D02*
G37*
G36*
X7706D02*
X7540D01*
Y-806D01*
X7582Y-798D01*
X7651Y-751D01*
X7698Y-682D01*
X7706Y-640D01*
D02*
G37*
G36*
X2790Y-444D02*
Y-610D01*
X2956D01*
X2948Y-568D01*
X2901Y-499D01*
X2832Y-452D01*
X2790Y-444D01*
D02*
G37*
G36*
X8Y-414D02*
Y-578D01*
X172D01*
X164Y-537D01*
X118Y-468D01*
X49Y-422D01*
X8Y-414D01*
D02*
G37*
G36*
X-72D02*
X-113Y-422D01*
X-182Y-468D01*
X-228Y-537D01*
X-236Y-578D01*
X-72D01*
Y-414D01*
D02*
G37*
G36*
X6344Y-323D02*
X6185D01*
Y-560D01*
X6344D01*
Y-323D01*
D02*
G37*
G36*
X6105D02*
X5947D01*
Y-560D01*
X6105D01*
Y-323D01*
D02*
G37*
G36*
X-1724Y-414D02*
Y-578D01*
X-1560D01*
X-1568Y-537D01*
X-1614Y-468D01*
X-1683Y-422D01*
X-1724Y-414D01*
D02*
G37*
G36*
X-1804D02*
X-1846Y-422D01*
X-1914Y-468D01*
X-1961Y-537D01*
X-1969Y-578D01*
X-1804D01*
Y-414D01*
D02*
G37*
G36*
X-858D02*
Y-578D01*
X-694D01*
X-702Y-537D01*
X-748Y-468D01*
X-817Y-422D01*
X-858Y-414D01*
D02*
G37*
G36*
X-938D02*
X-979Y-422D01*
X-1048Y-468D01*
X-1094Y-537D01*
X-1103Y-578D01*
X-938D01*
Y-414D01*
D02*
G37*
%LPD*%
D10*
X3450Y1350D02*
X4800D01*
X1050Y-1050D02*
X3450Y1350D01*
X1050Y-1433D02*
Y-1050D01*
Y-1433D02*
X1150Y-1533D01*
Y-1550D02*
Y-1533D01*
Y-1550D02*
X1476D01*
X5531Y1300D02*
X6205Y1557D01*
X5500Y1300D02*
X5531D01*
X4900Y700D02*
X5500Y1300D01*
X3103Y700D02*
X4900D01*
X1318Y-1085D02*
X3103Y700D01*
X1318Y-1282D02*
Y-1085D01*
X1250Y-1350D02*
X1318Y-1282D01*
X2618Y-2538D02*
X3300Y-3220D01*
X2618Y-2538D02*
Y-2268D01*
X1518Y-1168D02*
X2618Y-2268D01*
X-5500Y-4795D02*
Y-4100D01*
Y-4795D02*
X-5213Y-5082D01*
X-5237Y-4663D02*
X-4940D01*
X695Y-3845D02*
X750Y-3900D01*
X5493Y-2307D02*
Y-2243D01*
X5094Y-2706D02*
X5493Y-2307D01*
X418Y-3845D02*
X695D01*
X-4100Y-123D02*
Y300D01*
X-4550Y-123D02*
Y300D01*
X-5000Y-123D02*
Y300D01*
X-4100Y-123D02*
X-3650D01*
X-4550D02*
X-4100D01*
X-5000D02*
X-4550D01*
X-5450D02*
X-5000D01*
X0Y6750D02*
X50Y6800D01*
X0Y6347D02*
Y6750D01*
X-400Y5577D02*
Y5800D01*
X-256Y6347D02*
Y6706D01*
X0Y5577D02*
Y5800D01*
X-350Y6800D02*
X-256Y6706D01*
X-3500Y-2400D02*
X-3300Y-2600D01*
X-3227D01*
X-2523Y-3000D02*
X-2250D01*
X-2255Y-3845D02*
X-1809D01*
X-2473Y-3627D02*
X-2255Y-3845D01*
X-2473Y-3627D02*
Y-3450D01*
X-1450Y-3573D02*
Y-3258D01*
X-1371Y-3179D01*
X-1809Y-3845D02*
X-1727Y-3927D01*
X-1450D01*
X-1332Y-4045D01*
X-1032D01*
X1177Y827D02*
X1350Y654D01*
Y477D02*
Y654D01*
X1201Y-185D02*
X1350Y-36D01*
Y123D01*
X900Y827D02*
X1177D01*
X864Y227D02*
X900Y264D01*
Y473D01*
X3300Y-4750D02*
Y-3220D01*
X2867Y-4583D02*
Y-4344D01*
X-1977Y-6727D02*
X-1650D01*
X-2043Y-6357D02*
X-2027Y-6373D01*
X-1650D01*
X-2717Y-1300D02*
X-2560Y-1457D01*
X-2873Y-1300D02*
X-2717D01*
X-3050Y-1123D02*
X-2873Y-1300D01*
X-4724Y-3551D02*
X-4650Y-3477D01*
X-4724Y-3824D02*
Y-3551D01*
Y-3824D02*
X-4396D01*
X-2604Y-6776D02*
X-2274D01*
X-2332Y-6357D02*
X-2043D01*
X-1787Y-5518D02*
X-1468D01*
X-2060Y-5937D02*
X-1663D01*
X-3750Y-2000D02*
Y-577D01*
X-3650Y-477D01*
X-4100D02*
X-4000Y-577D01*
Y-1750D02*
Y-577D01*
X-4550Y-550D02*
X-4250Y-850D01*
X-4550Y-550D02*
Y-477D01*
X-4250Y-1500D02*
Y-850D01*
X-5000Y-477D02*
X-4973D01*
X-4500Y-950D01*
Y-1250D02*
Y-950D01*
X-5200Y-1000D02*
X-4750D01*
X-5450Y-750D02*
Y-477D01*
Y-750D02*
X-5200Y-1000D01*
X-2854Y-3018D02*
Y-2568D01*
Y-3423D02*
Y-3018D01*
X-1182Y-3541D02*
X-1032Y-3691D01*
X-1182Y-3541D02*
Y-3368D01*
X-632Y-3218D02*
X-582Y-3268D01*
Y-3491D02*
Y-3268D01*
X68Y-3341D02*
Y-3218D01*
X-82Y-3491D02*
X68Y-3341D01*
X368Y-3441D02*
Y-3218D01*
X864Y-3136D02*
Y-2763D01*
X868Y-2768D01*
X2918Y-1068D02*
X2924Y-1062D01*
X-2750Y2450D02*
X-2027D01*
X-2900Y2300D02*
X-2750Y2450D01*
X0Y5104D02*
Y5223D01*
X-108Y4996D02*
X0Y5104D01*
X-108Y4724D02*
Y4996D01*
X-400Y5104D02*
Y5223D01*
Y5104D02*
X-305Y5009D01*
Y4724D02*
Y5009D01*
X6177Y-2250D02*
X6450D01*
X5493Y-2243D02*
X5816D01*
X868Y-3495D02*
X1141D01*
X-82Y-3845D02*
X418D01*
X-1032Y-4045D02*
X-832D01*
X-632Y-3845D01*
X-2854Y-2568D02*
X-2834Y-2547D01*
X-2561D01*
X-1100Y5677D02*
Y5900D01*
X89Y4724D02*
X597D01*
X623Y4750D01*
X423Y4950D02*
Y5250D01*
Y4950D02*
X623Y4750D01*
X777Y5250D02*
X1123D01*
X400Y5550D02*
X423Y5527D01*
Y5250D02*
Y5527D01*
X400Y5850D02*
X1600D01*
X1800Y5650D01*
Y4250D02*
Y5650D01*
X1595Y4045D02*
X1800Y4250D01*
X1350Y4045D02*
X1595D01*
X818D02*
X1350D01*
X800Y4027D02*
X818Y4045D01*
X392Y4027D02*
X800D01*
X384Y4035D02*
X392Y4027D01*
X-1584Y2800D02*
Y3051D01*
X6145Y-600D02*
X6700D01*
X2924Y-1062D02*
X3250Y-777D01*
X-2733Y-930D02*
X-2560Y-1103D01*
X-3104Y-930D02*
X-2733D01*
X-3380Y-654D02*
X-3104Y-930D01*
X-3380Y-654D02*
Y-283D01*
X-3540Y-123D02*
X-3380Y-283D01*
X-3650Y-123D02*
X-3540D01*
X-1130Y1527D02*
X-957Y1700D01*
X-330D01*
X4750Y1750D02*
Y2050D01*
X4825Y2125D02*
X5886Y2505D01*
X4750Y2050D02*
X4825Y2125D01*
X1783Y-4406D02*
X2406D01*
X1793Y-3934D02*
X2384D01*
X4800Y1350D02*
X5200Y1750D01*
X6754Y2269D01*
D22*
X6177Y-2250D02*
D03*
X5823D02*
D03*
X-2473Y-3450D02*
D03*
X-2827D02*
D03*
X-2877Y-3000D02*
D03*
X-2523D02*
D03*
X-3227Y-2600D02*
D03*
X-2873D02*
D03*
X1777Y-4400D02*
D03*
X1423D02*
D03*
X1777Y-3950D02*
D03*
X1423D02*
D03*
X-2027Y2450D02*
D03*
X-1673D02*
D03*
X977Y4750D02*
D03*
X623D02*
D03*
X1477Y5250D02*
D03*
X1123D02*
D03*
X777D02*
D03*
X423D02*
D03*
D24*
X868Y-3495D02*
D03*
Y-3141D02*
D03*
X418Y-3845D02*
D03*
Y-3491D02*
D03*
X-82Y-3845D02*
D03*
Y-3491D02*
D03*
X-632Y-3845D02*
D03*
Y-3491D02*
D03*
X-1032Y-4045D02*
D03*
Y-3691D02*
D03*
X-1450Y-3927D02*
D03*
Y-3573D02*
D03*
X-3050Y-1477D02*
D03*
Y-1123D02*
D03*
X-2560Y-1103D02*
D03*
Y-1457D02*
D03*
X-3650Y-477D02*
D03*
Y-123D02*
D03*
X-4100Y-477D02*
D03*
Y-123D02*
D03*
X-4550Y-477D02*
D03*
Y-123D02*
D03*
X-5000Y-477D02*
D03*
Y-123D02*
D03*
X-5450Y-477D02*
D03*
Y-123D02*
D03*
X-1130Y1527D02*
D03*
Y1173D02*
D03*
X800Y3673D02*
D03*
Y4027D02*
D03*
X-2200Y5677D02*
D03*
Y5323D02*
D03*
X-1650Y5677D02*
D03*
Y5323D02*
D03*
X-1100D02*
D03*
Y5677D02*
D03*
X0Y5577D02*
D03*
Y5223D02*
D03*
X-400Y5577D02*
D03*
Y5223D02*
D03*
X3250Y-423D02*
D03*
Y-777D02*
D03*
X-4650Y-3123D02*
D03*
Y-3477D02*
D03*
X-1650Y-6373D02*
D03*
Y-6727D02*
D03*
X1350Y477D02*
D03*
Y123D02*
D03*
X900Y827D02*
D03*
Y473D02*
D03*
D29*
X6145Y-600D02*
D03*
X5555D02*
D03*
D35*
X6436Y3217D02*
D03*
X5886Y2505D02*
D03*
X6754Y2269D02*
D03*
X6205Y1557D02*
D03*
X7073Y1322D02*
D03*
X-5727Y-2978D02*
D03*
X-6595Y-2743D02*
D03*
X-6046Y-2031D02*
D03*
X-6914Y-1795D02*
D03*
X-6364Y-1083D02*
D03*
D37*
X-3050Y-1600D02*
X-2850Y-1800D01*
X-3050Y-1600D02*
Y-1477D01*
X-4993Y-4243D02*
X-4668D01*
X-2574Y-1760D02*
Y-1471D01*
X-1174Y586D02*
Y1129D01*
X-1130Y1173D01*
X-3250Y-600D02*
Y2900D01*
X-2902Y3248D01*
X-1584D01*
X-895Y2255D02*
Y2756D01*
X-2767Y-382D02*
X-2368D01*
X-2300Y-450D01*
Y-650D02*
Y-450D01*
X-3050Y-800D02*
X-2450D01*
X-3250Y-600D02*
X-3050Y-800D01*
X-2450D02*
X-2300Y-650D01*
X-2921Y-579D02*
X-2543D01*
X-3100Y-400D02*
X-2921Y-579D01*
X-3100Y-400D02*
Y-150D01*
X-2750Y200D01*
Y1900D01*
X-1092Y2258D02*
Y2756D01*
X-1289Y2561D02*
Y2756D01*
X-1400Y2450D02*
X-1289Y2561D01*
X-1673Y2450D02*
X-1400D01*
X-2750Y1900D02*
X-2500Y2150D01*
X-1200D01*
X-1092Y2258D01*
X-1150Y2000D02*
X-895Y2255D01*
X-2300Y2000D02*
X-1150D01*
X-2549Y-185D02*
Y1751D01*
X-2300Y2000D01*
X737Y-4497D02*
X1326D01*
X1423Y-4400D01*
D38*
X-1250Y7400D02*
X-472D01*
X-1260Y6416D02*
Y7390D01*
X-1250Y7400D01*
X472D02*
X1250D01*
X1260Y6416D02*
Y7390D01*
X1250Y7400D02*
X1260Y7390D01*
D39*
X5493Y-2243D02*
Y-2093D01*
X6068Y-1518D01*
X5523Y-568D02*
X5555Y-600D01*
X5218Y-568D02*
X5523D01*
X3450Y-4600D02*
X3733D01*
X3300Y-4750D02*
X3450Y-4600D01*
X3300Y-5299D02*
Y-4750D01*
X3124Y-5474D02*
X3300Y-5299D01*
X2612Y-5110D02*
X2867Y-4856D01*
X2612Y-5462D02*
Y-5110D01*
X512Y6347D02*
X1191D01*
X1260Y6416D01*
X-2200Y5677D02*
X-1650D01*
X-1260Y6067D01*
Y6416D01*
X977Y4750D02*
X1400D01*
X1477Y4827D01*
Y5250D01*
Y5573D01*
X800Y3673D02*
X1132D01*
X1350Y3455D01*
X384Y3838D02*
X634D01*
X800Y3673D01*
X-108Y1922D02*
Y2756D01*
X-330Y1700D02*
X-108Y1922D01*
X384Y4429D02*
X829D01*
X977Y4577D01*
Y4750D01*
X-2142Y3642D02*
X-1584D01*
X-3250Y4750D02*
X-2142Y3642D01*
X-502Y3838D02*
X384D01*
X-1584Y3642D02*
X-698D01*
X-600Y3740D01*
X-108Y2756D02*
Y3248D01*
X-600Y3740D02*
X-108Y3248D01*
X3733Y-4856D02*
X4306D01*
X3250Y-423D02*
Y0D01*
X89Y4429D02*
X384D01*
X-600Y3740D02*
X-502Y3838D01*
X89Y4429D01*
X1423Y-4400D02*
Y-3950D01*
X1250Y1750D02*
Y2185D01*
X384Y3051D02*
X1250Y2185D01*
X1350Y2650D02*
Y3455D01*
D40*
X-6046Y-2031D02*
X-5886Y-2505D01*
X-5727Y-2978D01*
X-6914Y-1795D02*
X-6754Y-2269D01*
X-6595Y-2743D01*
X-6700Y-747D02*
Y450D01*
Y-747D02*
X-6364Y-1083D01*
D42*
X1250Y7400D02*
D03*
X-1250D02*
D03*
D43*
X-6700Y700D02*
D03*
D44*
Y1700D02*
D03*
Y2700D02*
D03*
D45*
X-4267Y3733D02*
D03*
X-3833D02*
D03*
X-4267Y3300D02*
D03*
X-3833D02*
D03*
X-4267Y2867D02*
D03*
X-3833D02*
D03*
X-1764Y-2350D02*
D03*
Y-1484D02*
D03*
Y-618D02*
D03*
X-1331Y-1917D02*
D03*
Y-1051D02*
D03*
Y-185D02*
D03*
X-898Y-2350D02*
D03*
Y-1484D02*
D03*
Y-618D02*
D03*
X-465Y-1917D02*
D03*
Y-1051D02*
D03*
Y-185D02*
D03*
X-32Y-2350D02*
D03*
Y-1484D02*
D03*
Y-618D02*
D03*
X401Y-1917D02*
D03*
Y-1051D02*
D03*
Y-185D02*
D03*
X4634Y-1318D02*
D03*
Y-1751D02*
D03*
Y-2184D02*
D03*
X4201Y-1318D02*
D03*
Y-2184D02*
D03*
X3768Y-1318D02*
D03*
Y-1751D02*
D03*
Y-2184D02*
D03*
X-3009Y-6135D02*
D03*
X-2538Y-5409D02*
D03*
X-3137Y-5536D02*
D03*
X-3736Y-5663D02*
D03*
X-3264Y-4937D02*
D03*
X-4462Y-5191D02*
D03*
X-3991Y-4465D02*
D03*
X-3863Y-5064D02*
D03*
D46*
X-600Y3740D02*
D03*
D47*
X3750Y6100D02*
D03*
X4500Y5250D02*
D03*
X1700Y-1750D02*
D03*
X1240Y-1790D02*
D03*
X1250Y-1350D02*
D03*
X1476Y-1550D02*
D03*
X5150Y4250D02*
D03*
X2550Y4500D02*
D03*
X3600Y450D02*
D03*
X3700Y1050D02*
D03*
X7550Y700D02*
D03*
X6950Y450D02*
D03*
X6250Y200D02*
D03*
X-5500Y-4100D02*
D03*
X-5237Y-4663D02*
D03*
X-7250Y-750D02*
D03*
X-6100Y-3650D02*
D03*
X-6450Y-3750D02*
D03*
X-4000Y5900D02*
D03*
X-4350Y5550D02*
D03*
X-4000Y6400D02*
D03*
X-4450Y6100D02*
D03*
X-4900Y5700D02*
D03*
X-4800Y5150D02*
D03*
X-5500Y4250D02*
D03*
X-5200Y4750D02*
D03*
X-5750Y3750D02*
D03*
X-5350Y5250D02*
D03*
X-5750Y4800D02*
D03*
X-6100Y4300D02*
D03*
X-6450Y3750D02*
D03*
X750Y-3900D02*
D03*
X5094Y-2706D02*
D03*
X-4100Y300D02*
D03*
X-4550D02*
D03*
X-5000D02*
D03*
X1250Y1750D02*
D03*
X50Y6800D02*
D03*
X-400Y5800D02*
D03*
X0D02*
D03*
X-350Y6800D02*
D03*
X520Y1730D02*
D03*
X80D02*
D03*
X2500Y1700D02*
D03*
X-3500Y-2400D02*
D03*
X-5150Y-1800D02*
D03*
X-2250Y-3000D02*
D03*
X1177Y827D02*
D03*
X2150Y4150D02*
D03*
Y4900D02*
D03*
X5268Y482D02*
D03*
X2867Y-4583D02*
D03*
X3124Y-5474D02*
D03*
X2612Y-5462D02*
D03*
X-1977Y-6727D02*
D03*
X-4724Y-3824D02*
D03*
X-4993Y-4243D02*
D03*
X-2274Y-6776D02*
D03*
X-2043Y-6357D02*
D03*
X-1663Y-5937D02*
D03*
X-1468Y-5518D02*
D03*
X-2850Y-1800D02*
D03*
X-3750Y-2000D02*
D03*
X-4000Y-1750D02*
D03*
X-4250Y-1500D02*
D03*
X-4500Y-1250D02*
D03*
X-4750Y-1000D02*
D03*
X-1182Y-3368D02*
D03*
X-2574Y-1760D02*
D03*
X-2227Y227D02*
D03*
X-2250Y600D02*
D03*
X-1174Y586D02*
D03*
X-632Y-3218D02*
D03*
X737Y-4497D02*
D03*
X68Y-3218D02*
D03*
X368D02*
D03*
X864Y-2763D02*
D03*
X1201Y-185D02*
D03*
X2924Y-1062D02*
D03*
X5218Y-568D02*
D03*
X-2900Y2300D02*
D03*
X-5050Y-2200D02*
D03*
X-5400Y-1300D02*
D03*
X6450Y-2250D02*
D03*
X5493Y-2243D02*
D03*
X-330Y1700D02*
D03*
X7Y587D02*
D03*
X-2549Y-185D02*
D03*
X-2767Y-382D02*
D03*
X-2543Y-579D02*
D03*
X-2882Y-2268D02*
D03*
X-2596Y-2154D02*
D03*
X2818Y-2218D02*
D03*
Y-1868D02*
D03*
X2868Y-1418D02*
D03*
X1518Y-1168D02*
D03*
X1141Y-3495D02*
D03*
X-1809Y-3845D02*
D03*
X-2561Y-2547D02*
D03*
X864Y227D02*
D03*
X-1371Y-3179D02*
D03*
X4818Y332D02*
D03*
X4368D02*
D03*
X6068Y-1518D02*
D03*
X-977Y773D02*
D03*
X-583Y767D02*
D03*
X-386Y586D02*
D03*
X-190Y760D02*
D03*
X1443Y-4703D02*
D03*
X-1100Y5900D02*
D03*
X1477Y5573D02*
D03*
X400Y5550D02*
D03*
Y5850D02*
D03*
X-2977Y573D02*
D03*
X-1584Y2800D02*
D03*
X-3243Y4343D02*
D03*
X6700Y-600D02*
D03*
X-5239Y2611D02*
D03*
X-5245Y3005D02*
D03*
X-3250Y4750D02*
D03*
X2050Y-3450D02*
D03*
X4306Y-4856D02*
D03*
X3250Y0D02*
D03*
X1443Y-3657D02*
D03*
X-780Y580D02*
D03*
X4750Y1750D02*
D03*
X2384Y-3934D02*
D03*
X2406Y-4406D02*
D03*
X-1779Y-3200D02*
D03*
X-2100Y-3300D02*
D03*
X-1800Y-3500D02*
D03*
X-1567Y567D02*
D03*
X-1371Y779D02*
D03*
X4250Y2500D02*
D03*
Y2100D02*
D03*
Y1750D02*
D03*
D48*
X2050Y6450D02*
D03*
X6100Y3570D02*
D03*
D49*
X-5750Y-4900D02*
D03*
D50*
X-2850Y7050D02*
D03*
X-2450Y6150D02*
D03*
Y6650D02*
D03*
X-1950D02*
D03*
Y6150D02*
D03*
X-1050Y-5900D02*
D03*
X-500D02*
D03*
X0D02*
D03*
X500D02*
D03*
X1000D02*
D03*
X3350Y-6850D02*
D03*
X4000Y-6550D02*
D03*
X4600Y-6100D02*
D03*
X5300Y-5600D02*
D03*
X5900Y-5000D02*
D03*
X3650Y-5400D02*
D03*
X4600D02*
D03*
X7500Y-600D02*
D03*
X7450Y-1250D02*
D03*
X7300Y-1950D02*
D03*
X7150Y-2550D02*
D03*
X6900Y-1250D02*
D03*
Y-1950D02*
D03*
X5100Y-5100D02*
D03*
X3200Y-2700D02*
D03*
X2750Y-650D02*
D03*
X3500Y1700D02*
D03*
X3000D02*
D03*
D51*
X3733Y-4344D02*
D03*
Y-4600D02*
D03*
Y-4856D02*
D03*
X2867D02*
D03*
Y-4344D02*
D03*
D52*
X-1584Y3051D02*
D03*
Y3248D02*
D03*
Y3445D02*
D03*
Y3642D02*
D03*
Y3838D02*
D03*
Y4035D02*
D03*
Y4232D02*
D03*
Y4429D02*
D03*
X384D02*
D03*
Y4232D02*
D03*
Y4035D02*
D03*
Y3838D02*
D03*
Y3642D02*
D03*
Y3445D02*
D03*
Y3248D02*
D03*
Y3051D02*
D03*
D53*
X-1289Y4724D02*
D03*
X-1092D02*
D03*
X-895D02*
D03*
X-698D02*
D03*
X-502D02*
D03*
X-305D02*
D03*
X-108D02*
D03*
X89D02*
D03*
Y2756D02*
D03*
X-108D02*
D03*
X-305D02*
D03*
X-502D02*
D03*
X-698D02*
D03*
X-895D02*
D03*
X-1092D02*
D03*
X-1289D02*
D03*
D54*
X-600Y3740D02*
D03*
D55*
X-3500Y-5300D02*
D03*
D56*
X-4396Y-3824D02*
D03*
X-4668Y-4243D02*
D03*
X-4940Y-4663D02*
D03*
X-5213Y-5082D02*
D03*
X-2604Y-6776D02*
D03*
X-2332Y-6357D02*
D03*
X-2060Y-5937D02*
D03*
X-1787Y-5518D02*
D03*
D57*
X2510Y2350D02*
D03*
Y3550D02*
D03*
D58*
X-512Y6347D02*
D03*
X-256D02*
D03*
X512D02*
D03*
X256D02*
D03*
X0D02*
D03*
D59*
X472Y7400D02*
D03*
X-472D02*
D03*
D60*
X1260Y6416D02*
D03*
X-1260D02*
D03*
D61*
X1350Y3455D02*
D03*
Y4045D02*
D03*
D62*
X-1100Y5323D02*
X-827D01*
X-1650D02*
X-1100D01*
X-2200D02*
X-1650D01*
X-512Y6065D02*
Y6347D01*
X-750Y5827D02*
X-512Y6065D01*
X-827Y5323D02*
X-750Y5400D01*
Y5827D01*
X-6700Y2700D02*
X-6350D01*
X-3727Y5323D01*
X-2200D01*
M02*
