%FSLAX24Y24*%
%MOIN*%
G70*
G01*
G75*
G04 Layer_Physical_Order=5*
G04 Layer_Color=16737945*
%ADD10C,0.0080*%
%ADD11R,0.0650X0.1122*%
%ADD12R,0.0354X0.0118*%
G04:AMPARAMS|DCode=13|XSize=29.9mil|YSize=50mil|CornerRadius=0mil|HoleSize=0mil|Usage=FLASHONLY|Rotation=327.000|XOffset=0mil|YOffset=0mil|HoleType=Round|Shape=Rectangle|*
%AMROTATEDRECTD13*
4,1,4,-0.0262,-0.0128,0.0011,0.0291,0.0262,0.0128,-0.0011,-0.0291,-0.0262,-0.0128,0.0*
%
%ADD13ROTATEDRECTD13*%

%ADD14R,0.2598X0.2598*%
%ADD15O,0.0354X0.0098*%
%ADD16O,0.0098X0.0354*%
%ADD17O,0.0098X0.0335*%
%ADD18O,0.0335X0.0098*%
%ADD19R,0.1417X0.1417*%
G04:AMPARAMS|DCode=20|XSize=50mil|YSize=100mil|CornerRadius=0mil|HoleSize=0mil|Usage=FLASHONLY|Rotation=56.000|XOffset=0mil|YOffset=0mil|HoleType=Round|Shape=Rectangle|*
%AMROTATEDRECTD20*
4,1,4,0.0275,-0.0487,-0.0554,0.0072,-0.0275,0.0487,0.0554,-0.0072,0.0275,-0.0487,0.0*
%
%ADD20ROTATEDRECTD20*%

%ADD21R,0.0276X0.0079*%
%ADD22R,0.0157X0.0236*%
%ADD23R,0.0591X0.1024*%
%ADD24R,0.0236X0.0157*%
%ADD25R,0.0138X0.0217*%
%ADD26R,0.0335X0.0118*%
%ADD27R,0.0197X0.0315*%
%ADD28R,0.0551X0.0453*%
%ADD29R,0.0197X0.0354*%
%ADD30R,0.0394X0.0197*%
%ADD31R,0.0374X0.0335*%
%ADD32R,0.2126X0.0374*%
%ADD33R,0.1378X0.0768*%
%ADD34R,0.0984X0.1260*%
G04:AMPARAMS|DCode=35|XSize=28.7mil|YSize=135mil|CornerRadius=0mil|HoleSize=0mil|Usage=FLASHONLY|Rotation=108.600|XOffset=0mil|YOffset=0mil|HoleType=Round|Shape=Rectangle|*
%AMROTATEDRECTD35*
4,1,4,0.0686,0.0079,-0.0594,-0.0352,-0.0686,-0.0079,0.0594,0.0352,0.0686,0.0079,0.0*
%
%ADD35ROTATEDRECTD35*%

%ADD36C,0.0130*%
%ADD37C,0.0060*%
%ADD38C,0.0200*%
%ADD39C,0.0100*%
%ADD40C,0.0300*%
%ADD41C,0.0123*%
%ADD42C,0.0630*%
%ADD43R,0.0591X0.0591*%
%ADD44C,0.0591*%
%ADD45C,0.0217*%
%ADD46C,0.0315*%
%ADD47C,0.0200*%
%ADD48C,0.0400*%
%ADD49C,0.0300*%
%ADD50C,0.0220*%
G36*
X518Y7897D02*
X1033Y7847D01*
X1190Y7821D01*
X1189Y7770D01*
X1152Y7765D01*
X1061Y7728D01*
X983Y7667D01*
X922Y7589D01*
X885Y7498D01*
X872Y7400D01*
X885Y7302D01*
X922Y7211D01*
X983Y7133D01*
X1061Y7072D01*
X1152Y7035D01*
X1250Y7022D01*
X1348Y7035D01*
X1439Y7072D01*
X1517Y7133D01*
X1578Y7211D01*
X1615Y7302D01*
X1628Y7400D01*
X1615Y7498D01*
X1578Y7589D01*
X1517Y7667D01*
X1439Y7728D01*
X1434Y7730D01*
X1448Y7778D01*
X1544Y7762D01*
X2048Y7645D01*
X2544Y7494D01*
X3029Y7312D01*
X3500Y7098D01*
X3957Y6854D01*
X4397Y6580D01*
X4818Y6279D01*
X5218Y5950D01*
X5596Y5596D01*
X5950Y5218D01*
X6279Y4818D01*
X6580Y4397D01*
X6854Y3957D01*
X7098Y3500D01*
X7312Y3029D01*
X7494Y2544D01*
X7645Y2048D01*
X7762Y1544D01*
X7847Y1033D01*
X7897Y518D01*
X7914Y0D01*
X7897Y-518D01*
X7847Y-1033D01*
X7762Y-1544D01*
X7645Y-2048D01*
X7494Y-2544D01*
X7312Y-3029D01*
X7098Y-3500D01*
X6854Y-3957D01*
X6580Y-4397D01*
X6279Y-4818D01*
X6122Y-5009D01*
X6097Y-5004D01*
X6072Y-4991D01*
X6060Y-4934D01*
X6023Y-4877D01*
X5966Y-4840D01*
X5900Y-4827D01*
X5834Y-4840D01*
X5777Y-4877D01*
X5740Y-4934D01*
X5727Y-5000D01*
X5740Y-5066D01*
X5777Y-5123D01*
X5834Y-5160D01*
X5900Y-5173D01*
X5927Y-5168D01*
X5954Y-5214D01*
X5950Y-5218D01*
X5596Y-5596D01*
X5506Y-5680D01*
X5463Y-5653D01*
X5473Y-5600D01*
X5460Y-5534D01*
X5423Y-5477D01*
X5366Y-5440D01*
X5300Y-5427D01*
X5234Y-5440D01*
X5177Y-5477D01*
X5140Y-5534D01*
X5127Y-5600D01*
X5140Y-5666D01*
X5177Y-5723D01*
X5234Y-5760D01*
X5300Y-5773D01*
X5343Y-5765D01*
X5367Y-5811D01*
X5218Y-5950D01*
X4818Y-6279D01*
X4397Y-6580D01*
X3957Y-6854D01*
X3500Y-7098D01*
X3029Y-7312D01*
X2544Y-7494D01*
X2230Y-7589D01*
X2190Y-7560D01*
Y-6170D01*
X2200Y-6160D01*
X-2823Y-6153D01*
X-2838Y-6135D01*
X-2851Y-6069D01*
X-2888Y-6014D01*
X-2944Y-5976D01*
X-3009Y-5963D01*
X-3075Y-5976D01*
X-3131Y-6014D01*
X-3168Y-6069D01*
X-3181Y-6135D01*
X-3196Y-6153D01*
X-4974Y-6150D01*
X-5218Y-5950D01*
X-5596Y-5596D01*
X-5950Y-5218D01*
X-6279Y-4818D01*
X-6580Y-4397D01*
X-6854Y-3957D01*
X-7098Y-3500D01*
X-7312Y-3029D01*
X-7494Y-2544D01*
X-7645Y-2048D01*
X-7762Y-1544D01*
X-7847Y-1033D01*
X-7897Y-518D01*
X-7914Y0D01*
X-7897Y518D01*
X-7847Y1033D01*
X-7762Y1544D01*
X-7645Y2048D01*
X-7494Y2544D01*
X-7312Y3029D01*
X-7098Y3500D01*
X-6854Y3957D01*
X-6580Y4397D01*
X-6279Y4818D01*
X-5950Y5218D01*
X-5596Y5596D01*
X-5218Y5950D01*
X-4818Y6279D01*
X-4397Y6580D01*
X-3957Y6854D01*
X-3500Y7098D01*
X-3029Y7312D01*
X-2544Y7494D01*
X-2048Y7645D01*
X-1544Y7762D01*
X-1448Y7778D01*
X-1434Y7730D01*
X-1439Y7728D01*
X-1517Y7667D01*
X-1578Y7589D01*
X-1615Y7498D01*
X-1628Y7400D01*
X-1615Y7302D01*
X-1578Y7211D01*
X-1517Y7133D01*
X-1439Y7072D01*
X-1348Y7035D01*
X-1250Y7022D01*
X-1152Y7035D01*
X-1061Y7072D01*
X-983Y7133D01*
X-922Y7211D01*
X-885Y7302D01*
X-872Y7400D01*
X-885Y7498D01*
X-922Y7589D01*
X-983Y7667D01*
X-1061Y7728D01*
X-1152Y7765D01*
X-1189Y7770D01*
X-1190Y7821D01*
X-1033Y7847D01*
X-518Y7897D01*
X0Y7914D01*
X518Y7897D01*
D02*
G37*
%LPC*%
G36*
X824Y-2567D02*
X786Y-2575D01*
X719Y-2619D01*
X675Y-2685D01*
X668Y-2723D01*
X824D01*
Y-2567D01*
D02*
G37*
G36*
X-2561Y-2384D02*
X-2624Y-2397D01*
X-2677Y-2432D01*
X-2712Y-2485D01*
X-2724Y-2547D01*
X-2712Y-2610D01*
X-2677Y-2663D01*
X-2624Y-2698D01*
X-2561Y-2710D01*
X-2499Y-2698D01*
X-2446Y-2663D01*
X-2410Y-2610D01*
X-2398Y-2547D01*
X-2410Y-2485D01*
X-2446Y-2432D01*
X-2499Y-2397D01*
X-2561Y-2384D01*
D02*
G37*
G36*
X904Y-2567D02*
Y-2723D01*
X1060D01*
X1052Y-2685D01*
X1008Y-2619D01*
X942Y-2575D01*
X904Y-2567D01*
D02*
G37*
G36*
X3200Y-2527D02*
X3134Y-2540D01*
X3077Y-2577D01*
X3040Y-2634D01*
X3027Y-2700D01*
X3040Y-2766D01*
X3077Y-2823D01*
X3134Y-2860D01*
X3200Y-2873D01*
X3266Y-2860D01*
X3323Y-2823D01*
X3360Y-2766D01*
X3373Y-2700D01*
X3360Y-2634D01*
X3323Y-2577D01*
X3266Y-2540D01*
X3200Y-2527D01*
D02*
G37*
G36*
X5094Y-2542D02*
X5032Y-2555D01*
X4979Y-2590D01*
X4944Y-2643D01*
X4931Y-2706D01*
X4944Y-2768D01*
X4979Y-2821D01*
X5032Y-2856D01*
X5094Y-2869D01*
X5157Y-2856D01*
X5210Y-2821D01*
X5245Y-2768D01*
X5258Y-2706D01*
X5245Y-2643D01*
X5210Y-2590D01*
X5157Y-2555D01*
X5094Y-2542D01*
D02*
G37*
G36*
X7150Y-2377D02*
X7084Y-2390D01*
X7027Y-2427D01*
X6990Y-2484D01*
X6977Y-2550D01*
X6990Y-2616D01*
X7027Y-2673D01*
X7084Y-2710D01*
X7150Y-2723D01*
X7216Y-2710D01*
X7273Y-2673D01*
X7310Y-2616D01*
X7323Y-2550D01*
X7310Y-2484D01*
X7273Y-2427D01*
X7216Y-2390D01*
X7150Y-2377D01*
D02*
G37*
G36*
X-3500Y-2237D02*
X-3562Y-2249D01*
X-3615Y-2285D01*
X-3651Y-2338D01*
X-3663Y-2400D01*
X-3651Y-2462D01*
X-3615Y-2515D01*
X-3562Y-2551D01*
X-3500Y-2563D01*
X-3438Y-2551D01*
X-3385Y-2515D01*
X-3349Y-2462D01*
X-3337Y-2400D01*
X-3349Y-2338D01*
X-3385Y-2285D01*
X-3438Y-2249D01*
X-3500Y-2237D01*
D02*
G37*
G36*
X6450Y-2087D02*
X6388Y-2099D01*
X6335Y-2135D01*
X6299Y-2188D01*
X6287Y-2250D01*
X6299Y-2312D01*
X6335Y-2365D01*
X6388Y-2401D01*
X6450Y-2413D01*
X6512Y-2401D01*
X6565Y-2365D01*
X6601Y-2312D01*
X6613Y-2250D01*
X6601Y-2188D01*
X6565Y-2135D01*
X6512Y-2099D01*
X6450Y-2087D01*
D02*
G37*
G36*
X5493Y-2080D02*
X5431Y-2092D01*
X5378Y-2128D01*
X5342Y-2181D01*
X5330Y-2243D01*
X5342Y-2305D01*
X5378Y-2358D01*
X5431Y-2394D01*
X5493Y-2406D01*
X5555Y-2394D01*
X5608Y-2358D01*
X5644Y-2305D01*
X5656Y-2243D01*
X5644Y-2181D01*
X5608Y-2128D01*
X5555Y-2092D01*
X5493Y-2080D01*
D02*
G37*
G36*
X2818Y-1705D02*
X2756Y-1717D01*
X2703Y-1752D01*
X2668Y-1805D01*
X2655Y-1868D01*
X2668Y-1930D01*
X2703Y-1983D01*
X2753Y-2017D01*
X2756Y-2038D01*
Y-2048D01*
X2753Y-2069D01*
X2703Y-2102D01*
X2668Y-2155D01*
X2655Y-2218D01*
X2668Y-2280D01*
X2703Y-2333D01*
X2756Y-2369D01*
X2818Y-2381D01*
X2881Y-2369D01*
X2934Y-2333D01*
X2969Y-2280D01*
X2981Y-2218D01*
X2969Y-2155D01*
X2934Y-2102D01*
X2884Y-2069D01*
X2881Y-2048D01*
Y-2038D01*
X2884Y-2017D01*
X2934Y-1983D01*
X2969Y-1930D01*
X2981Y-1868D01*
X2969Y-1805D01*
X2934Y-1752D01*
X2881Y-1717D01*
X2818Y-1705D01*
D02*
G37*
G36*
X-1764Y-2179D02*
X-1830Y-2192D01*
X-1886Y-2229D01*
X-1923Y-2285D01*
X-1936Y-2350D01*
X-1923Y-2416D01*
X-1886Y-2472D01*
X-1830Y-2509D01*
X-1764Y-2522D01*
X-1699Y-2509D01*
X-1643Y-2472D01*
X-1606Y-2416D01*
X-1593Y-2350D01*
X-1606Y-2285D01*
X-1643Y-2229D01*
X-1699Y-2192D01*
X-1764Y-2179D01*
D02*
G37*
G36*
X-898D02*
X-964Y-2192D01*
X-1019Y-2229D01*
X-1057Y-2285D01*
X-1070Y-2350D01*
X-1057Y-2416D01*
X-1019Y-2472D01*
X-964Y-2509D01*
X-898Y-2522D01*
X-833Y-2509D01*
X-777Y-2472D01*
X-740Y-2416D01*
X-727Y-2350D01*
X-740Y-2285D01*
X-777Y-2229D01*
X-833Y-2192D01*
X-898Y-2179D01*
D02*
G37*
G36*
X-32D02*
X-98Y-2192D01*
X-153Y-2229D01*
X-191Y-2285D01*
X-204Y-2350D01*
X-191Y-2416D01*
X-153Y-2472D01*
X-98Y-2509D01*
X-32Y-2522D01*
X34Y-2509D01*
X89Y-2472D01*
X126Y-2416D01*
X140Y-2350D01*
X126Y-2285D01*
X89Y-2229D01*
X34Y-2192D01*
X-32Y-2179D01*
D02*
G37*
G36*
X1060Y-2803D02*
X904D01*
Y-2959D01*
X942Y-2951D01*
X1008Y-2907D01*
X1052Y-2841D01*
X1060Y-2803D01*
D02*
G37*
G36*
X2090Y-3254D02*
Y-3410D01*
X2246D01*
X2238Y-3372D01*
X2194Y-3306D01*
X2128Y-3262D01*
X2090Y-3254D01*
D02*
G37*
G36*
X-1779Y-3037D02*
X-1841Y-3049D01*
X-1894Y-3085D01*
X-1929Y-3138D01*
X-1935Y-3168D01*
X-1964Y-3178D01*
X-1989Y-3182D01*
X-2038Y-3149D01*
X-2048Y-3147D01*
X-2071Y-3092D01*
X-2062Y-3078D01*
X-2054Y-3040D01*
X-2446D01*
X-2438Y-3078D01*
X-2394Y-3144D01*
X-2328Y-3188D01*
X-2284Y-3197D01*
X-2275Y-3208D01*
X-2254Y-3252D01*
X-2263Y-3300D01*
X-2251Y-3362D01*
X-2215Y-3415D01*
X-2162Y-3451D01*
X-2100Y-3463D01*
X-2038Y-3451D01*
X-1997Y-3424D01*
X-1954Y-3452D01*
X-1963Y-3500D01*
X-1951Y-3562D01*
X-1915Y-3615D01*
X-1873Y-3644D01*
X-1872Y-3679D01*
X-1872Y-3685D01*
X-1876Y-3697D01*
X-1924Y-3730D01*
X-1960Y-3783D01*
X-1972Y-3845D01*
X-1960Y-3907D01*
X-1924Y-3960D01*
X-1871Y-3996D01*
X-1809Y-4008D01*
X-1746Y-3996D01*
X-1693Y-3960D01*
X-1658Y-3907D01*
X-1646Y-3845D01*
X-1658Y-3783D01*
X-1693Y-3730D01*
X-1736Y-3701D01*
X-1737Y-3665D01*
X-1736Y-3660D01*
X-1733Y-3648D01*
X-1685Y-3615D01*
X-1649Y-3562D01*
X-1637Y-3500D01*
X-1649Y-3438D01*
X-1685Y-3385D01*
X-1681Y-3327D01*
X-1663Y-3315D01*
X-1628Y-3262D01*
X-1616Y-3200D01*
X-1628Y-3138D01*
X-1663Y-3085D01*
X-1716Y-3049D01*
X-1779Y-3037D01*
D02*
G37*
G36*
X-672Y-3022D02*
X-710Y-3029D01*
X-776Y-3074D01*
X-820Y-3140D01*
X-828Y-3178D01*
X-672D01*
Y-3022D01*
D02*
G37*
G36*
X28Y-3258D02*
X-128D01*
X-120Y-3296D01*
X-76Y-3362D01*
X-10Y-3406D01*
X28Y-3414D01*
Y-3258D01*
D02*
G37*
G36*
X564D02*
X408D01*
Y-3414D01*
X446Y-3406D01*
X513Y-3362D01*
X557Y-3296D01*
X564Y-3258D01*
D02*
G37*
G36*
X2010Y-3254D02*
X1972Y-3262D01*
X1906Y-3306D01*
X1862Y-3372D01*
X1854Y-3410D01*
X2010D01*
Y-3254D01*
D02*
G37*
G36*
X-592Y-3022D02*
Y-3178D01*
X-436D01*
X-443Y-3140D01*
X-487Y-3074D01*
X-554Y-3029D01*
X-592Y-3022D01*
D02*
G37*
G36*
X-2290Y-2804D02*
X-2328Y-2812D01*
X-2394Y-2856D01*
X-2438Y-2922D01*
X-2446Y-2960D01*
X-2290D01*
Y-2804D01*
D02*
G37*
G36*
X-2210D02*
Y-2960D01*
X-2054D01*
X-2062Y-2922D01*
X-2106Y-2856D01*
X-2172Y-2812D01*
X-2210Y-2804D01*
D02*
G37*
G36*
X824Y-2803D02*
X668D01*
X675Y-2841D01*
X719Y-2907D01*
X786Y-2951D01*
X824Y-2959D01*
Y-2803D01*
D02*
G37*
G36*
X28Y-3022D02*
X-10Y-3029D01*
X-76Y-3074D01*
X-120Y-3140D01*
X-128Y-3178D01*
X28D01*
Y-3022D01*
D02*
G37*
G36*
X408D02*
Y-3178D01*
X564D01*
X557Y-3140D01*
X513Y-3074D01*
X446Y-3029D01*
X408Y-3022D01*
D02*
G37*
G36*
X328D02*
X290Y-3029D01*
X224Y-3074D01*
X213D01*
X146Y-3029D01*
X108Y-3022D01*
Y-3218D01*
Y-3414D01*
X146Y-3406D01*
X179Y-3384D01*
X218Y-3365D01*
X258Y-3384D01*
X290Y-3406D01*
X328Y-3414D01*
Y-3218D01*
Y-3022D01*
D02*
G37*
G36*
X-898Y-1313D02*
X-964Y-1326D01*
X-1019Y-1363D01*
X-1057Y-1419D01*
X-1070Y-1484D01*
X-1057Y-1550D01*
X-1019Y-1606D01*
X-964Y-1643D01*
X-898Y-1656D01*
X-833Y-1643D01*
X-777Y-1606D01*
X-740Y-1550D01*
X-727Y-1484D01*
X-740Y-1419D01*
X-777Y-1363D01*
X-833Y-1326D01*
X-898Y-1313D01*
D02*
G37*
G36*
X-32D02*
X-98Y-1326D01*
X-153Y-1363D01*
X-191Y-1419D01*
X-204Y-1484D01*
X-191Y-1550D01*
X-153Y-1606D01*
X-98Y-1643D01*
X-32Y-1656D01*
X34Y-1643D01*
X89Y-1606D01*
X126Y-1550D01*
X140Y-1484D01*
X126Y-1419D01*
X89Y-1363D01*
X34Y-1326D01*
X-32Y-1313D01*
D02*
G37*
G36*
X3120Y-1102D02*
X2728D01*
X2736Y-1140D01*
X2780Y-1206D01*
X2798Y-1218D01*
X2800Y-1233D01*
X2794Y-1275D01*
X2753Y-1302D01*
X2718Y-1355D01*
X2705Y-1418D01*
X2718Y-1480D01*
X2753Y-1533D01*
X2806Y-1569D01*
X2868Y-1581D01*
X2931Y-1569D01*
X2984Y-1533D01*
X3019Y-1480D01*
X3031Y-1418D01*
X3019Y-1355D01*
X2984Y-1302D01*
X2997Y-1251D01*
X3002Y-1250D01*
X3068Y-1206D01*
X3113Y-1140D01*
X3120Y-1102D01*
D02*
G37*
G36*
X6068Y-1355D02*
X6006Y-1367D01*
X5953Y-1402D01*
X5918Y-1455D01*
X5905Y-1518D01*
X5918Y-1580D01*
X5953Y-1633D01*
X6006Y-1669D01*
X6068Y-1681D01*
X6131Y-1669D01*
X6184Y-1633D01*
X6219Y-1580D01*
X6231Y-1518D01*
X6219Y-1455D01*
X6184Y-1402D01*
X6131Y-1367D01*
X6068Y-1355D01*
D02*
G37*
G36*
X-2614Y-1564D02*
X-2652Y-1572D01*
X-2718Y-1616D01*
X-2755Y-1671D01*
X-2788Y-1649D01*
X-2850Y-1637D01*
X-2912Y-1649D01*
X-2965Y-1685D01*
X-3001Y-1738D01*
X-3013Y-1800D01*
X-3001Y-1862D01*
X-2965Y-1915D01*
X-2912Y-1951D01*
X-2850Y-1963D01*
X-2788Y-1951D01*
X-2735Y-1915D01*
X-2683Y-1928D01*
X-2652Y-1948D01*
X-2646Y-1949D01*
Y-2000D01*
X-2658Y-2003D01*
X-2711Y-2038D01*
X-2747Y-2091D01*
X-2749Y-2104D01*
X-2805Y-2127D01*
X-2819Y-2117D01*
X-2882Y-2105D01*
X-2944Y-2117D01*
X-2997Y-2152D01*
X-3032Y-2205D01*
X-3045Y-2268D01*
X-3032Y-2330D01*
X-2997Y-2383D01*
X-2944Y-2419D01*
X-2882Y-2431D01*
X-2819Y-2419D01*
X-2766Y-2383D01*
X-2731Y-2330D01*
X-2728Y-2318D01*
X-2673Y-2295D01*
X-2658Y-2304D01*
X-2596Y-2317D01*
X-2533Y-2304D01*
X-2480Y-2269D01*
X-2445Y-2216D01*
X-2433Y-2154D01*
X-2445Y-2091D01*
X-2480Y-2038D01*
X-2529Y-2006D01*
X-2530Y-1988D01*
X-2524Y-1954D01*
X-2496Y-1948D01*
X-2430Y-1904D01*
X-2385Y-1838D01*
X-2378Y-1800D01*
X-2574D01*
Y-1760D01*
X-2614D01*
Y-1564D01*
D02*
G37*
G36*
X-1764Y-1313D02*
X-1830Y-1326D01*
X-1886Y-1363D01*
X-1923Y-1419D01*
X-1936Y-1484D01*
X-1923Y-1550D01*
X-1886Y-1606D01*
X-1830Y-1643D01*
X-1764Y-1656D01*
X-1699Y-1643D01*
X-1643Y-1606D01*
X-1606Y-1550D01*
X-1593Y-1484D01*
X-1606Y-1419D01*
X-1643Y-1363D01*
X-1699Y-1326D01*
X-1764Y-1313D01*
D02*
G37*
G36*
X3768Y-1146D02*
X3703Y-1159D01*
X3647Y-1196D01*
X3610Y-1252D01*
X3597Y-1318D01*
X3610Y-1383D01*
X3647Y-1439D01*
X3703Y-1476D01*
X3768Y-1489D01*
X3834Y-1476D01*
X3890Y-1439D01*
X3927Y-1383D01*
X3940Y-1318D01*
X3927Y-1252D01*
X3890Y-1196D01*
X3834Y-1159D01*
X3768Y-1146D01*
D02*
G37*
G36*
X6900Y-1077D02*
X6834Y-1090D01*
X6777Y-1127D01*
X6740Y-1184D01*
X6727Y-1250D01*
X6740Y-1316D01*
X6777Y-1373D01*
X6834Y-1410D01*
X6900Y-1423D01*
X6966Y-1410D01*
X7023Y-1373D01*
X7060Y-1316D01*
X7073Y-1250D01*
X7060Y-1184D01*
X7023Y-1127D01*
X6966Y-1090D01*
X6900Y-1077D01*
D02*
G37*
G36*
X7450D02*
X7384Y-1090D01*
X7327Y-1127D01*
X7290Y-1184D01*
X7277Y-1250D01*
X7290Y-1316D01*
X7327Y-1373D01*
X7384Y-1410D01*
X7450Y-1423D01*
X7516Y-1410D01*
X7573Y-1373D01*
X7610Y-1316D01*
X7623Y-1250D01*
X7610Y-1184D01*
X7573Y-1127D01*
X7516Y-1090D01*
X7450Y-1077D01*
D02*
G37*
G36*
X-1331Y-880D02*
X-1397Y-893D01*
X-1453Y-930D01*
X-1490Y-986D01*
X-1503Y-1051D01*
X-1490Y-1117D01*
X-1453Y-1173D01*
X-1397Y-1210D01*
X-1331Y-1223D01*
X-1266Y-1210D01*
X-1210Y-1173D01*
X-1173Y-1117D01*
X-1160Y-1051D01*
X-1173Y-986D01*
X-1210Y-930D01*
X-1266Y-893D01*
X-1331Y-880D01*
D02*
G37*
G36*
X4201Y-1146D02*
X4136Y-1159D01*
X4080Y-1196D01*
X4043Y-1252D01*
X4030Y-1318D01*
X4043Y-1383D01*
X4080Y-1439D01*
X4136Y-1476D01*
X4201Y-1489D01*
X4267Y-1476D01*
X4323Y-1439D01*
X4360Y-1383D01*
X4373Y-1318D01*
X4360Y-1252D01*
X4323Y-1196D01*
X4267Y-1159D01*
X4201Y-1146D01*
D02*
G37*
G36*
X4634D02*
X4569Y-1159D01*
X4513Y-1196D01*
X4476Y-1252D01*
X4463Y-1318D01*
X4476Y-1383D01*
X4513Y-1439D01*
X4569Y-1476D01*
X4634Y-1489D01*
X4700Y-1476D01*
X4756Y-1439D01*
X4793Y-1383D01*
X4806Y-1318D01*
X4793Y-1252D01*
X4756Y-1196D01*
X4700Y-1159D01*
X4634Y-1146D01*
D02*
G37*
G36*
X-5400Y-1137D02*
X-5462Y-1149D01*
X-5515Y-1185D01*
X-5551Y-1238D01*
X-5563Y-1300D01*
X-5551Y-1362D01*
X-5515Y-1415D01*
X-5462Y-1451D01*
X-5400Y-1463D01*
X-5338Y-1451D01*
X-5285Y-1415D01*
X-5249Y-1362D01*
X-5237Y-1300D01*
X-5249Y-1238D01*
X-5285Y-1185D01*
X-5338Y-1149D01*
X-5400Y-1137D01*
D02*
G37*
G36*
X-2534Y-1564D02*
Y-1720D01*
X-2378D01*
X-2385Y-1682D01*
X-2430Y-1616D01*
X-2496Y-1572D01*
X-2534Y-1564D01*
D02*
G37*
G36*
X4634Y-2012D02*
X4569Y-2025D01*
X4513Y-2063D01*
X4476Y-2118D01*
X4463Y-2184D01*
X4476Y-2250D01*
X4513Y-2305D01*
X4569Y-2342D01*
X4634Y-2356D01*
X4700Y-2342D01*
X4756Y-2305D01*
X4793Y-2250D01*
X4806Y-2184D01*
X4793Y-2118D01*
X4756Y-2063D01*
X4700Y-2025D01*
X4634Y-2012D01*
D02*
G37*
G36*
X-4750Y-837D02*
X-4812Y-849D01*
X-4865Y-885D01*
X-4901Y-938D01*
X-4913Y-1000D01*
X-4901Y-1062D01*
X-4865Y-1115D01*
X-4812Y-1151D01*
X-4750Y-1163D01*
X-4688Y-1151D01*
X-4685Y-1149D01*
X-4649Y-1185D01*
X-4651Y-1188D01*
X-4663Y-1250D01*
X-4651Y-1312D01*
X-4615Y-1365D01*
X-4562Y-1401D01*
X-4500Y-1413D01*
X-4438Y-1401D01*
X-4435Y-1399D01*
X-4399Y-1435D01*
X-4401Y-1438D01*
X-4413Y-1500D01*
X-4401Y-1562D01*
X-4365Y-1615D01*
X-4312Y-1651D01*
X-4250Y-1663D01*
X-4188Y-1651D01*
X-4185Y-1649D01*
X-4149Y-1685D01*
X-4151Y-1688D01*
X-4163Y-1750D01*
X-4151Y-1812D01*
X-4115Y-1865D01*
X-4062Y-1901D01*
X-4000Y-1913D01*
X-3938Y-1901D01*
X-3935Y-1899D01*
X-3899Y-1935D01*
X-3901Y-1938D01*
X-3913Y-2000D01*
X-3901Y-2062D01*
X-3865Y-2115D01*
X-3812Y-2151D01*
X-3750Y-2163D01*
X-3688Y-2151D01*
X-3635Y-2115D01*
X-3599Y-2062D01*
X-3587Y-2000D01*
X-3599Y-1938D01*
X-3635Y-1885D01*
X-3688Y-1849D01*
X-3750Y-1837D01*
X-3812Y-1849D01*
X-3815Y-1851D01*
X-3851Y-1815D01*
X-3849Y-1812D01*
X-3837Y-1750D01*
X-3849Y-1688D01*
X-3885Y-1635D01*
X-3938Y-1599D01*
X-4000Y-1587D01*
X-4062Y-1599D01*
X-4065Y-1601D01*
X-4101Y-1565D01*
X-4099Y-1562D01*
X-4087Y-1500D01*
X-4099Y-1438D01*
X-4135Y-1385D01*
X-4188Y-1349D01*
X-4250Y-1337D01*
X-4312Y-1349D01*
X-4315Y-1351D01*
X-4351Y-1315D01*
X-4349Y-1312D01*
X-4337Y-1250D01*
X-4349Y-1188D01*
X-4385Y-1135D01*
X-4438Y-1099D01*
X-4500Y-1087D01*
X-4562Y-1099D01*
X-4565Y-1101D01*
X-4601Y-1065D01*
X-4599Y-1062D01*
X-4587Y-1000D01*
X-4599Y-938D01*
X-4635Y-885D01*
X-4688Y-849D01*
X-4750Y-837D01*
D02*
G37*
G36*
X6900Y-1777D02*
X6834Y-1790D01*
X6777Y-1827D01*
X6740Y-1884D01*
X6727Y-1950D01*
X6740Y-2016D01*
X6777Y-2073D01*
X6834Y-2110D01*
X6900Y-2123D01*
X6966Y-2110D01*
X7023Y-2073D01*
X7060Y-2016D01*
X7073Y-1950D01*
X7060Y-1884D01*
X7023Y-1827D01*
X6966Y-1790D01*
X6900Y-1777D01*
D02*
G37*
G36*
X-5050Y-2037D02*
X-5112Y-2049D01*
X-5165Y-2085D01*
X-5201Y-2138D01*
X-5213Y-2200D01*
X-5201Y-2262D01*
X-5165Y-2315D01*
X-5112Y-2351D01*
X-5050Y-2363D01*
X-4988Y-2351D01*
X-4935Y-2315D01*
X-4899Y-2262D01*
X-4887Y-2200D01*
X-4899Y-2138D01*
X-4935Y-2085D01*
X-4988Y-2049D01*
X-5050Y-2037D01*
D02*
G37*
G36*
X3768Y-2012D02*
X3703Y-2025D01*
X3647Y-2063D01*
X3610Y-2118D01*
X3597Y-2184D01*
X3610Y-2250D01*
X3647Y-2305D01*
X3703Y-2342D01*
X3768Y-2356D01*
X3834Y-2342D01*
X3890Y-2305D01*
X3927Y-2250D01*
X3940Y-2184D01*
X3927Y-2118D01*
X3890Y-2063D01*
X3834Y-2025D01*
X3768Y-2012D01*
D02*
G37*
G36*
X4201D02*
X4136Y-2025D01*
X4080Y-2063D01*
X4043Y-2118D01*
X4030Y-2184D01*
X4043Y-2250D01*
X4080Y-2305D01*
X4136Y-2342D01*
X4201Y-2356D01*
X4267Y-2342D01*
X4323Y-2305D01*
X4360Y-2250D01*
X4373Y-2184D01*
X4360Y-2118D01*
X4323Y-2063D01*
X4267Y-2025D01*
X4201Y-2012D01*
D02*
G37*
G36*
X7300Y-1777D02*
X7234Y-1790D01*
X7177Y-1827D01*
X7140Y-1884D01*
X7127Y-1950D01*
X7140Y-2016D01*
X7177Y-2073D01*
X7234Y-2110D01*
X7300Y-2123D01*
X7366Y-2110D01*
X7423Y-2073D01*
X7460Y-2016D01*
X7473Y-1950D01*
X7460Y-1884D01*
X7423Y-1827D01*
X7366Y-1790D01*
X7300Y-1777D01*
D02*
G37*
G36*
X-5150Y-1637D02*
X-5212Y-1649D01*
X-5265Y-1685D01*
X-5301Y-1738D01*
X-5313Y-1800D01*
X-5301Y-1862D01*
X-5265Y-1915D01*
X-5212Y-1951D01*
X-5150Y-1963D01*
X-5088Y-1951D01*
X-5035Y-1915D01*
X-4999Y-1862D01*
X-4987Y-1800D01*
X-4999Y-1738D01*
X-5035Y-1685D01*
X-5088Y-1649D01*
X-5150Y-1637D01*
D02*
G37*
G36*
X3768Y-1579D02*
X3703Y-1592D01*
X3647Y-1630D01*
X3610Y-1685D01*
X3597Y-1751D01*
X3610Y-1817D01*
X3647Y-1872D01*
X3703Y-1909D01*
X3768Y-1922D01*
X3834Y-1909D01*
X3890Y-1872D01*
X3927Y-1817D01*
X3940Y-1751D01*
X3927Y-1685D01*
X3890Y-1630D01*
X3834Y-1592D01*
X3768Y-1579D01*
D02*
G37*
G36*
X4634D02*
X4569Y-1592D01*
X4513Y-1630D01*
X4476Y-1685D01*
X4463Y-1751D01*
X4476Y-1817D01*
X4513Y-1872D01*
X4569Y-1909D01*
X4634Y-1922D01*
X4700Y-1909D01*
X4756Y-1872D01*
X4793Y-1817D01*
X4806Y-1751D01*
X4793Y-1685D01*
X4756Y-1630D01*
X4700Y-1592D01*
X4634Y-1579D01*
D02*
G37*
G36*
X-1331Y-1746D02*
X-1397Y-1759D01*
X-1453Y-1796D01*
X-1490Y-1852D01*
X-1503Y-1917D01*
X-1490Y-1983D01*
X-1453Y-2039D01*
X-1397Y-2076D01*
X-1331Y-2089D01*
X-1266Y-2076D01*
X-1210Y-2039D01*
X-1173Y-1983D01*
X-1160Y-1917D01*
X-1173Y-1852D01*
X-1210Y-1796D01*
X-1266Y-1759D01*
X-1331Y-1746D01*
D02*
G37*
G36*
X-465D02*
X-531Y-1759D01*
X-586Y-1796D01*
X-624Y-1852D01*
X-637Y-1917D01*
X-624Y-1983D01*
X-586Y-2039D01*
X-531Y-2076D01*
X-465Y-2089D01*
X-399Y-2076D01*
X-344Y-2039D01*
X-307Y-1983D01*
X-294Y-1917D01*
X-307Y-1852D01*
X-344Y-1796D01*
X-399Y-1759D01*
X-465Y-1746D01*
D02*
G37*
G36*
X401D02*
X335Y-1759D01*
X280Y-1796D01*
X243Y-1852D01*
X229Y-1917D01*
X243Y-1983D01*
X280Y-2039D01*
X335Y-2076D01*
X401Y-2089D01*
X467Y-2076D01*
X522Y-2039D01*
X560Y-1983D01*
X573Y-1917D01*
X560Y-1852D01*
X522Y-1796D01*
X467Y-1759D01*
X401Y-1746D01*
D02*
G37*
G36*
X-4462Y-5020D02*
X-4528Y-5033D01*
X-4584Y-5070D01*
X-4621Y-5126D01*
X-4634Y-5191D01*
X-4621Y-5257D01*
X-4584Y-5313D01*
X-4528Y-5350D01*
X-4462Y-5363D01*
X-4397Y-5350D01*
X-4341Y-5313D01*
X-4304Y-5257D01*
X-4291Y-5191D01*
X-4304Y-5126D01*
X-4341Y-5070D01*
X-4397Y-5033D01*
X-4462Y-5020D01*
D02*
G37*
G36*
X5100Y-4927D02*
X5034Y-4940D01*
X4977Y-4977D01*
X4940Y-5034D01*
X4927Y-5100D01*
X4940Y-5166D01*
X4977Y-5223D01*
X5034Y-5260D01*
X5100Y-5273D01*
X5166Y-5260D01*
X5223Y-5223D01*
X5260Y-5166D01*
X5273Y-5100D01*
X5260Y-5034D01*
X5223Y-4977D01*
X5166Y-4940D01*
X5100Y-4927D01*
D02*
G37*
G36*
X-3863Y-4893D02*
X-3929Y-4906D01*
X-3985Y-4943D01*
X-4022Y-4998D01*
X-4035Y-5064D01*
X-4022Y-5130D01*
X-3985Y-5185D01*
X-3929Y-5223D01*
X-3863Y-5236D01*
X-3798Y-5223D01*
X-3742Y-5185D01*
X-3705Y-5130D01*
X-3692Y-5064D01*
X-3705Y-4998D01*
X-3742Y-4943D01*
X-3798Y-4906D01*
X-3863Y-4893D01*
D02*
G37*
G36*
X-2538Y-5237D02*
X-2603Y-5250D01*
X-2659Y-5287D01*
X-2696Y-5343D01*
X-2709Y-5409D01*
X-2696Y-5474D01*
X-2659Y-5530D01*
X-2603Y-5567D01*
X-2538Y-5580D01*
X-2472Y-5567D01*
X-2416Y-5530D01*
X-2379Y-5474D01*
X-2366Y-5409D01*
X-2379Y-5343D01*
X-2416Y-5287D01*
X-2472Y-5250D01*
X-2538Y-5237D01*
D02*
G37*
G36*
X3650Y-5227D02*
X3584Y-5240D01*
X3527Y-5277D01*
X3490Y-5334D01*
X3477Y-5400D01*
X3490Y-5466D01*
X3527Y-5523D01*
X3584Y-5560D01*
X3650Y-5573D01*
X3716Y-5560D01*
X3773Y-5523D01*
X3810Y-5466D01*
X3823Y-5400D01*
X3810Y-5334D01*
X3773Y-5277D01*
X3716Y-5240D01*
X3650Y-5227D01*
D02*
G37*
G36*
X4600D02*
X4534Y-5240D01*
X4477Y-5277D01*
X4440Y-5334D01*
X4427Y-5400D01*
X4440Y-5466D01*
X4477Y-5523D01*
X4534Y-5560D01*
X4600Y-5573D01*
X4666Y-5560D01*
X4723Y-5523D01*
X4760Y-5466D01*
X4773Y-5400D01*
X4760Y-5334D01*
X4723Y-5277D01*
X4666Y-5240D01*
X4600Y-5227D01*
D02*
G37*
G36*
X-5790Y-4940D02*
X-5997D01*
X-5985Y-4998D01*
X-5930Y-5080D01*
X-5848Y-5135D01*
X-5790Y-5147D01*
Y-4940D01*
D02*
G37*
G36*
X1443Y-4540D02*
X1380Y-4552D01*
X1327Y-4587D01*
X1292Y-4640D01*
X1280Y-4703D01*
X1292Y-4765D01*
X1327Y-4818D01*
X1380Y-4854D01*
X1443Y-4866D01*
X1505Y-4854D01*
X1558Y-4818D01*
X1594Y-4765D01*
X1606Y-4703D01*
X1594Y-4640D01*
X1558Y-4587D01*
X1505Y-4552D01*
X1443Y-4540D01*
D02*
G37*
G36*
X-5790Y-4653D02*
X-5848Y-4665D01*
X-5930Y-4720D01*
X-5985Y-4802D01*
X-5997Y-4860D01*
X-5790D01*
Y-4653D01*
D02*
G37*
G36*
X-5710D02*
Y-4860D01*
X-5503D01*
X-5515Y-4802D01*
X-5570Y-4720D01*
X-5652Y-4665D01*
X-5710Y-4653D01*
D02*
G37*
G36*
X-5503Y-4940D02*
X-5710D01*
Y-5147D01*
X-5652Y-5135D01*
X-5570Y-5080D01*
X-5515Y-4998D01*
X-5503Y-4940D01*
D02*
G37*
G36*
X-3264Y-4765D02*
X-3330Y-4778D01*
X-3385Y-4815D01*
X-3423Y-4871D01*
X-3436Y-4937D01*
X-3423Y-5002D01*
X-3385Y-5058D01*
X-3330Y-5095D01*
X-3264Y-5108D01*
X-3198Y-5095D01*
X-3143Y-5058D01*
X-3106Y-5002D01*
X-3093Y-4937D01*
X-3106Y-4871D01*
X-3143Y-4815D01*
X-3198Y-4778D01*
X-3264Y-4765D01*
D02*
G37*
G36*
X4306Y-4693D02*
X4243Y-4705D01*
X4191Y-4741D01*
X4155Y-4793D01*
X4143Y-4856D01*
X4155Y-4918D01*
X4191Y-4971D01*
X4243Y-5007D01*
X4306Y-5019D01*
X4368Y-5007D01*
X4421Y-4971D01*
X4457Y-4918D01*
X4469Y-4856D01*
X4457Y-4793D01*
X4421Y-4741D01*
X4368Y-4705D01*
X4306Y-4693D01*
D02*
G37*
G36*
X2612Y-5299D02*
X2550Y-5312D01*
X2497Y-5347D01*
X2462Y-5400D01*
X2449Y-5462D01*
X2462Y-5525D01*
X2497Y-5578D01*
X2550Y-5613D01*
X2612Y-5626D01*
X2675Y-5613D01*
X2728Y-5578D01*
X2763Y-5525D01*
X2776Y-5462D01*
X2763Y-5400D01*
X2728Y-5347D01*
X2675Y-5312D01*
X2612Y-5299D01*
D02*
G37*
G36*
X-1663Y-5774D02*
X-1725Y-5787D01*
X-1778Y-5822D01*
X-1813Y-5875D01*
X-1826Y-5937D01*
X-1813Y-6000D01*
X-1778Y-6053D01*
X-1725Y-6088D01*
X-1663Y-6100D01*
X-1600Y-6088D01*
X-1547Y-6053D01*
X-1512Y-6000D01*
X-1500Y-5937D01*
X-1512Y-5875D01*
X-1547Y-5822D01*
X-1600Y-5787D01*
X-1663Y-5774D01*
D02*
G37*
G36*
X-1050Y-5727D02*
X-1116Y-5740D01*
X-1173Y-5777D01*
X-1210Y-5834D01*
X-1223Y-5900D01*
X-1210Y-5966D01*
X-1173Y-6023D01*
X-1116Y-6060D01*
X-1050Y-6073D01*
X-984Y-6060D01*
X-927Y-6023D01*
X-890Y-5966D01*
X-877Y-5900D01*
X-890Y-5834D01*
X-927Y-5777D01*
X-984Y-5740D01*
X-1050Y-5727D01*
D02*
G37*
G36*
X-500D02*
X-566Y-5740D01*
X-623Y-5777D01*
X-660Y-5834D01*
X-673Y-5900D01*
X-660Y-5966D01*
X-623Y-6023D01*
X-566Y-6060D01*
X-500Y-6073D01*
X-434Y-6060D01*
X-377Y-6023D01*
X-340Y-5966D01*
X-327Y-5900D01*
X-340Y-5834D01*
X-377Y-5777D01*
X-434Y-5740D01*
X-500Y-5727D01*
D02*
G37*
G36*
X3350Y-6677D02*
X3284Y-6690D01*
X3227Y-6727D01*
X3190Y-6784D01*
X3177Y-6850D01*
X3190Y-6916D01*
X3227Y-6973D01*
X3284Y-7010D01*
X3350Y-7023D01*
X3416Y-7010D01*
X3473Y-6973D01*
X3510Y-6916D01*
X3523Y-6850D01*
X3510Y-6784D01*
X3473Y-6727D01*
X3416Y-6690D01*
X3350Y-6677D01*
D02*
G37*
G36*
X4000Y-6377D02*
X3934Y-6390D01*
X3877Y-6427D01*
X3840Y-6484D01*
X3827Y-6550D01*
X3840Y-6616D01*
X3877Y-6673D01*
X3934Y-6710D01*
X4000Y-6723D01*
X4066Y-6710D01*
X4123Y-6673D01*
X4160Y-6616D01*
X4173Y-6550D01*
X4160Y-6484D01*
X4123Y-6427D01*
X4066Y-6390D01*
X4000Y-6377D01*
D02*
G37*
G36*
X4600Y-5927D02*
X4534Y-5940D01*
X4477Y-5977D01*
X4440Y-6034D01*
X4427Y-6100D01*
X4440Y-6166D01*
X4477Y-6223D01*
X4534Y-6260D01*
X4600Y-6273D01*
X4666Y-6260D01*
X4723Y-6223D01*
X4760Y-6166D01*
X4773Y-6100D01*
X4760Y-6034D01*
X4723Y-5977D01*
X4666Y-5940D01*
X4600Y-5927D01*
D02*
G37*
G36*
X0Y-5727D02*
X-66Y-5740D01*
X-123Y-5777D01*
X-160Y-5834D01*
X-173Y-5900D01*
X-160Y-5966D01*
X-123Y-6023D01*
X-66Y-6060D01*
X0Y-6073D01*
X66Y-6060D01*
X123Y-6023D01*
X160Y-5966D01*
X173Y-5900D01*
X160Y-5834D01*
X123Y-5777D01*
X66Y-5740D01*
X0Y-5727D01*
D02*
G37*
G36*
X-3137Y-5364D02*
X-3202Y-5377D01*
X-3258Y-5415D01*
X-3295Y-5470D01*
X-3308Y-5536D01*
X-3295Y-5602D01*
X-3258Y-5657D01*
X-3202Y-5694D01*
X-3137Y-5707D01*
X-3071Y-5694D01*
X-3015Y-5657D01*
X-2978Y-5602D01*
X-2965Y-5536D01*
X-2978Y-5470D01*
X-3015Y-5415D01*
X-3071Y-5377D01*
X-3137Y-5364D01*
D02*
G37*
G36*
X-1468Y-5355D02*
X-1530Y-5367D01*
X-1583Y-5403D01*
X-1619Y-5456D01*
X-1631Y-5518D01*
X-1619Y-5580D01*
X-1583Y-5633D01*
X-1530Y-5669D01*
X-1468Y-5681D01*
X-1406Y-5669D01*
X-1353Y-5633D01*
X-1317Y-5580D01*
X-1305Y-5518D01*
X-1317Y-5456D01*
X-1353Y-5403D01*
X-1406Y-5367D01*
X-1468Y-5355D01*
D02*
G37*
G36*
X3124Y-5311D02*
X3062Y-5324D01*
X3009Y-5359D01*
X2974Y-5412D01*
X2961Y-5474D01*
X2974Y-5537D01*
X3009Y-5590D01*
X3062Y-5625D01*
X3124Y-5637D01*
X3187Y-5625D01*
X3240Y-5590D01*
X3275Y-5537D01*
X3287Y-5474D01*
X3275Y-5412D01*
X3240Y-5359D01*
X3187Y-5324D01*
X3124Y-5311D01*
D02*
G37*
G36*
X500Y-5727D02*
X434Y-5740D01*
X377Y-5777D01*
X340Y-5834D01*
X327Y-5900D01*
X340Y-5966D01*
X377Y-6023D01*
X434Y-6060D01*
X500Y-6073D01*
X566Y-6060D01*
X623Y-6023D01*
X660Y-5966D01*
X673Y-5900D01*
X660Y-5834D01*
X623Y-5777D01*
X566Y-5740D01*
X500Y-5727D01*
D02*
G37*
G36*
X1000D02*
X934Y-5740D01*
X877Y-5777D01*
X840Y-5834D01*
X827Y-5900D01*
X840Y-5966D01*
X877Y-6023D01*
X934Y-6060D01*
X1000Y-6073D01*
X1066Y-6060D01*
X1123Y-6023D01*
X1160Y-5966D01*
X1173Y-5900D01*
X1160Y-5834D01*
X1123Y-5777D01*
X1066Y-5740D01*
X1000Y-5727D01*
D02*
G37*
G36*
X-3736Y-5492D02*
X-3802Y-5505D01*
X-3857Y-5542D01*
X-3894Y-5598D01*
X-3907Y-5663D01*
X-3894Y-5729D01*
X-3857Y-5785D01*
X-3802Y-5822D01*
X-3736Y-5835D01*
X-3670Y-5822D01*
X-3615Y-5785D01*
X-3577Y-5729D01*
X-3564Y-5663D01*
X-3577Y-5598D01*
X-3615Y-5542D01*
X-3670Y-5505D01*
X-3736Y-5492D01*
D02*
G37*
G36*
X1141Y-3332D02*
X1079Y-3344D01*
X1026Y-3380D01*
X990Y-3433D01*
X978Y-3495D01*
X990Y-3557D01*
X1026Y-3610D01*
X1079Y-3646D01*
X1141Y-3658D01*
X1204Y-3646D01*
X1235Y-3625D01*
X1280Y-3655D01*
X1280Y-3657D01*
X1292Y-3720D01*
X1327Y-3773D01*
X1380Y-3808D01*
X1443Y-3820D01*
X1505Y-3808D01*
X1558Y-3773D01*
X1594Y-3720D01*
X1606Y-3657D01*
X1594Y-3595D01*
X1558Y-3542D01*
X1505Y-3506D01*
X1443Y-3494D01*
X1380Y-3506D01*
X1349Y-3528D01*
X1304Y-3497D01*
X1304Y-3495D01*
X1292Y-3433D01*
X1257Y-3380D01*
X1204Y-3344D01*
X1141Y-3332D01*
D02*
G37*
G36*
X-4764Y-3628D02*
X-4802Y-3636D01*
X-4868Y-3680D01*
X-4912Y-3746D01*
X-4920Y-3784D01*
X-4764D01*
Y-3628D01*
D02*
G37*
G36*
X-4684D02*
Y-3784D01*
X-4528D01*
X-4536Y-3746D01*
X-4580Y-3680D01*
X-4646Y-3636D01*
X-4684Y-3628D01*
D02*
G37*
G36*
X750Y-3737D02*
X688Y-3749D01*
X635Y-3785D01*
X599Y-3838D01*
X587Y-3900D01*
X599Y-3962D01*
X635Y-4015D01*
X688Y-4051D01*
X750Y-4063D01*
X812Y-4051D01*
X865Y-4015D01*
X901Y-3962D01*
X913Y-3900D01*
X901Y-3838D01*
X865Y-3785D01*
X812Y-3749D01*
X750Y-3737D01*
D02*
G37*
G36*
X-4764Y-3864D02*
X-4920D01*
X-4912Y-3902D01*
X-4868Y-3968D01*
X-4802Y-4012D01*
X-4764Y-4020D01*
Y-3864D01*
D02*
G37*
G36*
X-4528D02*
X-4684D01*
Y-4020D01*
X-4646Y-4012D01*
X-4580Y-3968D01*
X-4536Y-3902D01*
X-4528Y-3864D01*
D02*
G37*
G36*
X-6100Y-3487D02*
X-6162Y-3499D01*
X-6215Y-3535D01*
X-6251Y-3588D01*
X-6263Y-3650D01*
X-6263Y-3652D01*
X-6310Y-3672D01*
X-6335Y-3635D01*
X-6388Y-3599D01*
X-6450Y-3587D01*
X-6512Y-3599D01*
X-6565Y-3635D01*
X-6601Y-3688D01*
X-6613Y-3750D01*
X-6601Y-3812D01*
X-6565Y-3865D01*
X-6512Y-3901D01*
X-6450Y-3913D01*
X-6388Y-3901D01*
X-6335Y-3865D01*
X-6299Y-3812D01*
X-6287Y-3750D01*
X-6287Y-3748D01*
X-6240Y-3728D01*
X-6215Y-3765D01*
X-6162Y-3801D01*
X-6100Y-3813D01*
X-6038Y-3801D01*
X-5985Y-3765D01*
X-5949Y-3712D01*
X-5937Y-3650D01*
X-5949Y-3588D01*
X-5985Y-3535D01*
X-6038Y-3499D01*
X-6100Y-3487D01*
D02*
G37*
G36*
X-986Y-3408D02*
X-1142D01*
Y-3564D01*
X-1104Y-3556D01*
X-1037Y-3512D01*
X-993Y-3446D01*
X-986Y-3408D01*
D02*
G37*
G36*
X-672Y-3258D02*
X-828D01*
X-820Y-3296D01*
X-776Y-3362D01*
X-710Y-3406D01*
X-672Y-3414D01*
Y-3258D01*
D02*
G37*
G36*
X-436D02*
X-592D01*
Y-3414D01*
X-554Y-3406D01*
X-487Y-3362D01*
X-443Y-3296D01*
X-436Y-3258D01*
D02*
G37*
G36*
X2010Y-3490D02*
X1854D01*
X1862Y-3528D01*
X1906Y-3594D01*
X1972Y-3638D01*
X2010Y-3646D01*
Y-3490D01*
D02*
G37*
G36*
X2246D02*
X2090D01*
Y-3646D01*
X2128Y-3638D01*
X2194Y-3594D01*
X2238Y-3528D01*
X2246Y-3490D01*
D02*
G37*
G36*
X-1371Y-3016D02*
X-1433Y-3028D01*
X-1486Y-3063D01*
X-1521Y-3116D01*
X-1534Y-3179D01*
X-1521Y-3241D01*
X-1486Y-3294D01*
X-1433Y-3330D01*
X-1380Y-3340D01*
X-1386Y-3368D01*
X-1370Y-3446D01*
X-1326Y-3512D01*
X-1260Y-3556D01*
X-1222Y-3564D01*
Y-3368D01*
X-1182D01*
Y-3328D01*
X-986D01*
X-993Y-3290D01*
X-1037Y-3224D01*
X-1104Y-3179D01*
X-1182Y-3164D01*
X-1209Y-3169D01*
X-1220Y-3116D01*
X-1255Y-3063D01*
X-1308Y-3028D01*
X-1371Y-3016D01*
D02*
G37*
G36*
X2384Y-3771D02*
X2321Y-3783D01*
X2268Y-3818D01*
X2233Y-3871D01*
X2221Y-3934D01*
X2233Y-3996D01*
X2268Y-4049D01*
X2321Y-4085D01*
X2384Y-4097D01*
X2446Y-4085D01*
X2499Y-4049D01*
X2535Y-3996D01*
X2547Y-3934D01*
X2535Y-3871D01*
X2499Y-3818D01*
X2446Y-3783D01*
X2384Y-3771D01*
D02*
G37*
G36*
X697Y-4537D02*
X541D01*
X549Y-4575D01*
X593Y-4641D01*
X659Y-4686D01*
X697Y-4693D01*
Y-4537D01*
D02*
G37*
G36*
X933D02*
X777D01*
Y-4693D01*
X815Y-4686D01*
X881Y-4641D01*
X926Y-4575D01*
X933Y-4537D01*
D02*
G37*
G36*
X-3991Y-4293D02*
X-4056Y-4307D01*
X-4112Y-4344D01*
X-4149Y-4399D01*
X-4162Y-4465D01*
X-4149Y-4531D01*
X-4112Y-4586D01*
X-4056Y-4624D01*
X-3991Y-4637D01*
X-3925Y-4624D01*
X-3869Y-4586D01*
X-3832Y-4531D01*
X-3819Y-4465D01*
X-3832Y-4399D01*
X-3869Y-4344D01*
X-3925Y-4307D01*
X-3991Y-4293D01*
D02*
G37*
G36*
X-5237Y-4500D02*
X-5300Y-4512D01*
X-5353Y-4547D01*
X-5388Y-4600D01*
X-5400Y-4663D01*
X-5388Y-4725D01*
X-5353Y-4778D01*
X-5300Y-4813D01*
X-5237Y-4826D01*
X-5175Y-4813D01*
X-5122Y-4778D01*
X-5087Y-4725D01*
X-5074Y-4663D01*
X-5087Y-4600D01*
X-5122Y-4547D01*
X-5175Y-4512D01*
X-5237Y-4500D01*
D02*
G37*
G36*
X2827Y-4623D02*
X2671D01*
X2679Y-4661D01*
X2723Y-4727D01*
X2789Y-4771D01*
X2827Y-4779D01*
Y-4623D01*
D02*
G37*
G36*
X3063D02*
X2907D01*
Y-4779D01*
X2945Y-4771D01*
X3011Y-4727D01*
X3055Y-4661D01*
X3063Y-4623D01*
D02*
G37*
G36*
X2406Y-4243D02*
X2344Y-4256D01*
X2291Y-4291D01*
X2255Y-4344D01*
X2243Y-4406D01*
X2255Y-4469D01*
X2291Y-4522D01*
X2344Y-4557D01*
X2406Y-4569D01*
X2469Y-4557D01*
X2522Y-4522D01*
X2557Y-4469D01*
X2569Y-4406D01*
X2557Y-4344D01*
X2522Y-4291D01*
X2469Y-4256D01*
X2406Y-4243D01*
D02*
G37*
G36*
X777Y-4301D02*
Y-4457D01*
X933D01*
X926Y-4419D01*
X881Y-4353D01*
X815Y-4309D01*
X777Y-4301D01*
D02*
G37*
G36*
X-4993Y-4080D02*
X-5056Y-4093D01*
X-5109Y-4128D01*
X-5144Y-4181D01*
X-5156Y-4243D01*
X-5144Y-4306D01*
X-5109Y-4359D01*
X-5056Y-4394D01*
X-4993Y-4406D01*
X-4931Y-4394D01*
X-4878Y-4359D01*
X-4843Y-4306D01*
X-4830Y-4243D01*
X-4843Y-4181D01*
X-4878Y-4128D01*
X-4931Y-4093D01*
X-4993Y-4080D01*
D02*
G37*
G36*
X-5500Y-3937D02*
X-5562Y-3949D01*
X-5615Y-3985D01*
X-5651Y-4038D01*
X-5663Y-4100D01*
X-5651Y-4162D01*
X-5615Y-4215D01*
X-5562Y-4251D01*
X-5500Y-4263D01*
X-5438Y-4251D01*
X-5385Y-4215D01*
X-5349Y-4162D01*
X-5337Y-4100D01*
X-5349Y-4038D01*
X-5385Y-3985D01*
X-5438Y-3949D01*
X-5500Y-3937D01*
D02*
G37*
G36*
X2827Y-4387D02*
X2789Y-4395D01*
X2723Y-4439D01*
X2679Y-4505D01*
X2671Y-4543D01*
X2827D01*
Y-4387D01*
D02*
G37*
G36*
X2907D02*
Y-4543D01*
X3063D01*
X3055Y-4505D01*
X3011Y-4439D01*
X2945Y-4395D01*
X2907Y-4387D01*
D02*
G37*
G36*
X697Y-4301D02*
X659Y-4309D01*
X593Y-4353D01*
X549Y-4419D01*
X541Y-4457D01*
X697D01*
Y-4301D01*
D02*
G37*
G36*
X-465Y-880D02*
X-531Y-893D01*
X-586Y-930D01*
X-624Y-986D01*
X-637Y-1051D01*
X-624Y-1117D01*
X-586Y-1173D01*
X-531Y-1210D01*
X-465Y-1223D01*
X-399Y-1210D01*
X-344Y-1173D01*
X-307Y-1117D01*
X-294Y-1051D01*
X-307Y-986D01*
X-344Y-930D01*
X-399Y-893D01*
X-465Y-880D01*
D02*
G37*
G36*
X5150Y4413D02*
X5088Y4401D01*
X5035Y4365D01*
X4999Y4312D01*
X4987Y4250D01*
X4999Y4188D01*
X5035Y4135D01*
X5088Y4099D01*
X5150Y4087D01*
X5212Y4099D01*
X5265Y4135D01*
X5301Y4188D01*
X5313Y4250D01*
X5301Y4312D01*
X5265Y4365D01*
X5212Y4401D01*
X5150Y4413D01*
D02*
G37*
G36*
X-6100Y4463D02*
X-6162Y4451D01*
X-6215Y4415D01*
X-6251Y4362D01*
X-6263Y4300D01*
X-6251Y4238D01*
X-6215Y4185D01*
X-6162Y4149D01*
X-6100Y4137D01*
X-6038Y4149D01*
X-5985Y4185D01*
X-5949Y4238D01*
X-5937Y4300D01*
X-5949Y4362D01*
X-5985Y4415D01*
X-6038Y4451D01*
X-6100Y4463D01*
D02*
G37*
G36*
X-3243Y4506D02*
X-3305Y4494D01*
X-3358Y4458D01*
X-3394Y4405D01*
X-3406Y4343D01*
X-3394Y4280D01*
X-3358Y4228D01*
X-3305Y4192D01*
X-3243Y4180D01*
X-3180Y4192D01*
X-3128Y4228D01*
X-3092Y4280D01*
X-3080Y4343D01*
X-3092Y4405D01*
X-3128Y4458D01*
X-3180Y4494D01*
X-3243Y4506D01*
D02*
G37*
G36*
X-5750Y3913D02*
X-5812Y3901D01*
X-5865Y3865D01*
X-5901Y3812D01*
X-5913Y3750D01*
X-5901Y3688D01*
X-5865Y3635D01*
X-5812Y3599D01*
X-5750Y3587D01*
X-5688Y3599D01*
X-5635Y3635D01*
X-5599Y3688D01*
X-5587Y3750D01*
X-5599Y3812D01*
X-5635Y3865D01*
X-5688Y3901D01*
X-5750Y3913D01*
D02*
G37*
G36*
X2150Y4313D02*
X2088Y4301D01*
X2035Y4265D01*
X1999Y4212D01*
X1987Y4150D01*
X1999Y4088D01*
X2035Y4035D01*
X2088Y3999D01*
X2150Y3987D01*
X2212Y3999D01*
X2265Y4035D01*
X2301Y4088D01*
X2313Y4150D01*
X2301Y4212D01*
X2265Y4265D01*
X2212Y4301D01*
X2150Y4313D01*
D02*
G37*
G36*
X-5500Y4413D02*
X-5562Y4401D01*
X-5615Y4365D01*
X-5651Y4312D01*
X-5663Y4250D01*
X-5651Y4188D01*
X-5615Y4135D01*
X-5562Y4099D01*
X-5500Y4087D01*
X-5438Y4099D01*
X-5385Y4135D01*
X-5349Y4188D01*
X-5337Y4250D01*
X-5349Y4312D01*
X-5385Y4365D01*
X-5438Y4401D01*
X-5500Y4413D01*
D02*
G37*
G36*
X2550Y4663D02*
X2488Y4651D01*
X2435Y4615D01*
X2399Y4562D01*
X2387Y4500D01*
X2399Y4438D01*
X2435Y4385D01*
X2488Y4349D01*
X2550Y4337D01*
X2612Y4349D01*
X2665Y4385D01*
X2701Y4438D01*
X2713Y4500D01*
X2701Y4562D01*
X2665Y4615D01*
X2612Y4651D01*
X2550Y4663D01*
D02*
G37*
G36*
X2150Y5063D02*
X2088Y5051D01*
X2035Y5015D01*
X1999Y4962D01*
X1987Y4900D01*
X1999Y4838D01*
X2035Y4785D01*
X2088Y4749D01*
X2150Y4737D01*
X2212Y4749D01*
X2265Y4785D01*
X2301Y4838D01*
X2313Y4900D01*
X2301Y4962D01*
X2265Y5015D01*
X2212Y5051D01*
X2150Y5063D01*
D02*
G37*
G36*
X-4800Y5313D02*
X-4862Y5301D01*
X-4915Y5265D01*
X-4951Y5212D01*
X-4963Y5150D01*
X-4951Y5088D01*
X-4915Y5035D01*
X-4862Y4999D01*
X-4800Y4987D01*
X-4738Y4999D01*
X-4685Y5035D01*
X-4649Y5088D01*
X-4637Y5150D01*
X-4649Y5212D01*
X-4685Y5265D01*
X-4738Y5301D01*
X-4800Y5313D01*
D02*
G37*
G36*
X-5350Y5413D02*
X-5412Y5401D01*
X-5465Y5365D01*
X-5501Y5312D01*
X-5513Y5250D01*
X-5501Y5188D01*
X-5465Y5135D01*
X-5412Y5099D01*
X-5350Y5087D01*
X-5288Y5099D01*
X-5235Y5135D01*
X-5199Y5188D01*
X-5187Y5250D01*
X-5199Y5312D01*
X-5235Y5365D01*
X-5288Y5401D01*
X-5350Y5413D01*
D02*
G37*
G36*
X-5200Y4913D02*
X-5262Y4901D01*
X-5315Y4865D01*
X-5351Y4812D01*
X-5363Y4750D01*
X-5351Y4688D01*
X-5315Y4635D01*
X-5262Y4599D01*
X-5200Y4587D01*
X-5138Y4599D01*
X-5085Y4635D01*
X-5049Y4688D01*
X-5037Y4750D01*
X-5049Y4812D01*
X-5085Y4865D01*
X-5138Y4901D01*
X-5200Y4913D01*
D02*
G37*
G36*
X-3250D02*
X-3312Y4901D01*
X-3365Y4865D01*
X-3401Y4812D01*
X-3413Y4750D01*
X-3401Y4688D01*
X-3365Y4635D01*
X-3312Y4599D01*
X-3250Y4587D01*
X-3188Y4599D01*
X-3135Y4635D01*
X-3099Y4688D01*
X-3087Y4750D01*
X-3099Y4812D01*
X-3135Y4865D01*
X-3188Y4901D01*
X-3250Y4913D01*
D02*
G37*
G36*
X-5750Y4963D02*
X-5812Y4951D01*
X-5865Y4915D01*
X-5901Y4862D01*
X-5913Y4800D01*
X-5901Y4738D01*
X-5865Y4685D01*
X-5812Y4649D01*
X-5750Y4637D01*
X-5688Y4649D01*
X-5635Y4685D01*
X-5599Y4738D01*
X-5587Y4800D01*
X-5599Y4862D01*
X-5635Y4915D01*
X-5688Y4951D01*
X-5750Y4963D01*
D02*
G37*
G36*
X-6450Y3913D02*
X-6512Y3901D01*
X-6565Y3865D01*
X-6601Y3812D01*
X-6613Y3750D01*
X-6601Y3688D01*
X-6565Y3635D01*
X-6512Y3599D01*
X-6450Y3587D01*
X-6388Y3599D01*
X-6335Y3635D01*
X-6299Y3688D01*
X-6287Y3750D01*
X-6299Y3812D01*
X-6335Y3865D01*
X-6388Y3901D01*
X-6450Y3913D01*
D02*
G37*
G36*
X-6700Y3058D02*
X-6793Y3046D01*
X-6879Y3010D01*
X-6953Y2953D01*
X-7010Y2879D01*
X-7046Y2793D01*
X-7058Y2700D01*
X-7046Y2607D01*
X-7010Y2521D01*
X-6953Y2447D01*
X-6879Y2390D01*
X-6793Y2354D01*
X-6700Y2342D01*
X-6607Y2354D01*
X-6521Y2390D01*
X-6447Y2447D01*
X-6390Y2521D01*
X-6354Y2607D01*
X-6342Y2700D01*
X-6354Y2793D01*
X-6390Y2879D01*
X-6447Y2953D01*
X-6521Y3010D01*
X-6607Y3046D01*
X-6700Y3058D01*
D02*
G37*
G36*
X-5239Y2774D02*
X-5301Y2762D01*
X-5354Y2726D01*
X-5390Y2673D01*
X-5402Y2611D01*
X-5390Y2549D01*
X-5354Y2496D01*
X-5301Y2460D01*
X-5239Y2448D01*
X-5177Y2460D01*
X-5124Y2496D01*
X-5088Y2549D01*
X-5076Y2611D01*
X-5088Y2673D01*
X-5124Y2726D01*
X-5177Y2762D01*
X-5239Y2774D01*
D02*
G37*
G36*
X-4267Y3038D02*
X-4332Y3025D01*
X-4388Y2988D01*
X-4425Y2933D01*
X-4438Y2867D01*
X-4425Y2801D01*
X-4388Y2746D01*
X-4332Y2708D01*
X-4267Y2695D01*
X-4201Y2708D01*
X-4145Y2746D01*
X-4108Y2801D01*
X-4095Y2867D01*
X-4108Y2933D01*
X-4145Y2988D01*
X-4201Y3025D01*
X-4267Y3038D01*
D02*
G37*
G36*
X4750Y1913D02*
X4688Y1901D01*
X4635Y1865D01*
X4599Y1812D01*
X4587Y1750D01*
X4599Y1688D01*
X4635Y1635D01*
X4688Y1599D01*
X4750Y1587D01*
X4812Y1599D01*
X4865Y1635D01*
X4901Y1688D01*
X4913Y1750D01*
X4901Y1812D01*
X4865Y1865D01*
X4812Y1901D01*
X4750Y1913D01*
D02*
G37*
G36*
X-2900Y2463D02*
X-2962Y2451D01*
X-3015Y2415D01*
X-3051Y2362D01*
X-3063Y2300D01*
X-3051Y2238D01*
X-3015Y2185D01*
X-2962Y2149D01*
X-2900Y2137D01*
X-2838Y2149D01*
X-2785Y2185D01*
X-2749Y2238D01*
X-2737Y2300D01*
X-2749Y2362D01*
X-2785Y2415D01*
X-2838Y2451D01*
X-2900Y2463D01*
D02*
G37*
G36*
X4250Y2663D02*
X4188Y2651D01*
X4135Y2615D01*
X4099Y2562D01*
X4087Y2500D01*
X4099Y2438D01*
X4135Y2385D01*
X4188Y2349D01*
X4250Y2337D01*
X4312Y2349D01*
X4365Y2385D01*
X4401Y2438D01*
X4413Y2500D01*
X4401Y2562D01*
X4365Y2615D01*
X4312Y2651D01*
X4250Y2663D01*
D02*
G37*
G36*
X-3833Y3038D02*
X-3899Y3025D01*
X-3955Y2988D01*
X-3992Y2933D01*
X-4005Y2867D01*
X-3992Y2801D01*
X-3955Y2746D01*
X-3899Y2708D01*
X-3833Y2695D01*
X-3768Y2708D01*
X-3712Y2746D01*
X-3675Y2801D01*
X-3662Y2867D01*
X-3675Y2933D01*
X-3712Y2988D01*
X-3768Y3025D01*
X-3833Y3038D01*
D02*
G37*
G36*
X6100Y3832D02*
X6032Y3823D01*
X5969Y3797D01*
X5915Y3755D01*
X5873Y3701D01*
X5847Y3638D01*
X5838Y3570D01*
X5847Y3502D01*
X5873Y3439D01*
X5915Y3385D01*
X5969Y3343D01*
X6032Y3317D01*
X6100Y3308D01*
X6168Y3317D01*
X6231Y3343D01*
X6285Y3385D01*
X6327Y3439D01*
X6353Y3502D01*
X6362Y3570D01*
X6353Y3638D01*
X6327Y3701D01*
X6285Y3755D01*
X6231Y3797D01*
X6168Y3823D01*
X6100Y3832D01*
D02*
G37*
G36*
X-4267Y3905D02*
X-4332Y3892D01*
X-4388Y3854D01*
X-4425Y3799D01*
X-4438Y3733D01*
X-4425Y3667D01*
X-4388Y3612D01*
X-4332Y3575D01*
X-4267Y3562D01*
X-4201Y3575D01*
X-4145Y3612D01*
X-4108Y3667D01*
X-4095Y3733D01*
X-4108Y3799D01*
X-4145Y3854D01*
X-4201Y3892D01*
X-4267Y3905D01*
D02*
G37*
G36*
X-3833D02*
X-3899Y3892D01*
X-3955Y3854D01*
X-3992Y3799D01*
X-4005Y3733D01*
X-3992Y3667D01*
X-3955Y3612D01*
X-3899Y3575D01*
X-3833Y3562D01*
X-3768Y3575D01*
X-3712Y3612D01*
X-3675Y3667D01*
X-3662Y3733D01*
X-3675Y3799D01*
X-3712Y3854D01*
X-3768Y3892D01*
X-3833Y3905D01*
D02*
G37*
G36*
X-5245Y3168D02*
X-5308Y3155D01*
X-5361Y3120D01*
X-5396Y3067D01*
X-5408Y3005D01*
X-5396Y2942D01*
X-5361Y2889D01*
X-5308Y2854D01*
X-5245Y2842D01*
X-5183Y2854D01*
X-5130Y2889D01*
X-5095Y2942D01*
X-5082Y3005D01*
X-5095Y3067D01*
X-5130Y3120D01*
X-5183Y3155D01*
X-5245Y3168D01*
D02*
G37*
G36*
X-4267Y3472D02*
X-4332Y3458D01*
X-4388Y3421D01*
X-4425Y3366D01*
X-4438Y3300D01*
X-4425Y3234D01*
X-4388Y3179D01*
X-4332Y3142D01*
X-4267Y3128D01*
X-4201Y3142D01*
X-4145Y3179D01*
X-4108Y3234D01*
X-4095Y3300D01*
X-4108Y3366D01*
X-4145Y3421D01*
X-4201Y3458D01*
X-4267Y3472D01*
D02*
G37*
G36*
X-3833D02*
X-3899Y3458D01*
X-3955Y3421D01*
X-3992Y3366D01*
X-4005Y3300D01*
X-3992Y3234D01*
X-3955Y3179D01*
X-3899Y3142D01*
X-3833Y3128D01*
X-3768Y3142D01*
X-3712Y3179D01*
X-3675Y3234D01*
X-3662Y3300D01*
X-3675Y3366D01*
X-3712Y3421D01*
X-3768Y3458D01*
X-3833Y3472D01*
D02*
G37*
G36*
X-350Y6963D02*
X-412Y6951D01*
X-465Y6915D01*
X-501Y6862D01*
X-513Y6800D01*
X-501Y6738D01*
X-465Y6685D01*
X-412Y6649D01*
X-350Y6637D01*
X-288Y6649D01*
X-235Y6685D01*
X-199Y6738D01*
X-187Y6800D01*
X-199Y6862D01*
X-235Y6915D01*
X-288Y6951D01*
X-350Y6963D01*
D02*
G37*
G36*
X50D02*
X-12Y6951D01*
X-65Y6915D01*
X-101Y6862D01*
X-113Y6800D01*
X-101Y6738D01*
X-65Y6685D01*
X-12Y6649D01*
X50Y6637D01*
X112Y6649D01*
X165Y6685D01*
X201Y6738D01*
X213Y6800D01*
X201Y6862D01*
X165Y6915D01*
X112Y6951D01*
X50Y6963D01*
D02*
G37*
G36*
X-2490Y6856D02*
X-2532Y6848D01*
X-2601Y6801D01*
X-2648Y6732D01*
X-2656Y6690D01*
X-2490D01*
Y6856D01*
D02*
G37*
G36*
X-2244Y6610D02*
X-2410D01*
Y6444D01*
X-2368Y6452D01*
X-2299Y6499D01*
X-2252Y6568D01*
X-2244Y6610D01*
D02*
G37*
G36*
X-1990D02*
X-2156D01*
X-2148Y6568D01*
X-2101Y6499D01*
X-2032Y6452D01*
X-1990Y6444D01*
Y6610D01*
D02*
G37*
G36*
X-1744D02*
X-1910D01*
Y6444D01*
X-1868Y6452D01*
X-1799Y6499D01*
X-1752Y6568D01*
X-1744Y6610D01*
D02*
G37*
G36*
X-2410Y6856D02*
Y6690D01*
X-2244D01*
X-2252Y6732D01*
X-2299Y6801D01*
X-2368Y6848D01*
X-2410Y6856D01*
D02*
G37*
G36*
X-2644Y7010D02*
X-2810D01*
Y6844D01*
X-2768Y6852D01*
X-2699Y6899D01*
X-2652Y6968D01*
X-2644Y7010D01*
D02*
G37*
G36*
X-2890Y7256D02*
X-2932Y7248D01*
X-3001Y7201D01*
X-3048Y7132D01*
X-3056Y7090D01*
X-2890D01*
Y7256D01*
D02*
G37*
G36*
X-2810D02*
Y7090D01*
X-2644D01*
X-2652Y7132D01*
X-2699Y7201D01*
X-2768Y7248D01*
X-2810Y7256D01*
D02*
G37*
G36*
X-1990Y6856D02*
X-2032Y6848D01*
X-2101Y6801D01*
X-2148Y6732D01*
X-2156Y6690D01*
X-1990D01*
Y6856D01*
D02*
G37*
G36*
X-1910D02*
Y6690D01*
X-1744D01*
X-1752Y6732D01*
X-1799Y6801D01*
X-1868Y6848D01*
X-1910Y6856D01*
D02*
G37*
G36*
X-2890Y7010D02*
X-3056D01*
X-3048Y6968D01*
X-3001Y6899D01*
X-2932Y6852D01*
X-2890Y6844D01*
Y7010D01*
D02*
G37*
G36*
X-2490Y6610D02*
X-2656D01*
X-2648Y6568D01*
X-2601Y6499D01*
X-2532Y6452D01*
X-2490Y6444D01*
Y6610D01*
D02*
G37*
G36*
X-4000Y6063D02*
X-4062Y6051D01*
X-4115Y6015D01*
X-4151Y5962D01*
X-4163Y5900D01*
X-4151Y5838D01*
X-4115Y5785D01*
X-4062Y5749D01*
X-4000Y5737D01*
X-3938Y5749D01*
X-3885Y5785D01*
X-3849Y5838D01*
X-3837Y5900D01*
X-3849Y5962D01*
X-3885Y6015D01*
X-3938Y6051D01*
X-4000Y6063D01*
D02*
G37*
G36*
X-4450Y6263D02*
X-4512Y6251D01*
X-4565Y6215D01*
X-4601Y6162D01*
X-4613Y6100D01*
X-4601Y6038D01*
X-4565Y5985D01*
X-4512Y5949D01*
X-4450Y5937D01*
X-4388Y5949D01*
X-4335Y5985D01*
X-4299Y6038D01*
X-4287Y6100D01*
X-4299Y6162D01*
X-4335Y6215D01*
X-4388Y6251D01*
X-4450Y6263D01*
D02*
G37*
G36*
X3750D02*
X3688Y6251D01*
X3635Y6215D01*
X3599Y6162D01*
X3587Y6100D01*
X3599Y6038D01*
X3635Y5985D01*
X3688Y5949D01*
X3750Y5937D01*
X3812Y5949D01*
X3865Y5985D01*
X3901Y6038D01*
X3913Y6100D01*
X3901Y6162D01*
X3865Y6215D01*
X3812Y6251D01*
X3750Y6263D01*
D02*
G37*
G36*
X4500Y5413D02*
X4438Y5401D01*
X4385Y5365D01*
X4349Y5312D01*
X4337Y5250D01*
X4349Y5188D01*
X4385Y5135D01*
X4438Y5099D01*
X4500Y5087D01*
X4562Y5099D01*
X4615Y5135D01*
X4651Y5188D01*
X4663Y5250D01*
X4651Y5312D01*
X4615Y5365D01*
X4562Y5401D01*
X4500Y5413D01*
D02*
G37*
G36*
X-4350Y5713D02*
X-4412Y5701D01*
X-4465Y5665D01*
X-4501Y5612D01*
X-4513Y5550D01*
X-4501Y5488D01*
X-4465Y5435D01*
X-4412Y5399D01*
X-4350Y5387D01*
X-4288Y5399D01*
X-4235Y5435D01*
X-4199Y5488D01*
X-4187Y5550D01*
X-4199Y5612D01*
X-4235Y5665D01*
X-4288Y5701D01*
X-4350Y5713D01*
D02*
G37*
G36*
X-4900Y5863D02*
X-4962Y5851D01*
X-5015Y5815D01*
X-5051Y5762D01*
X-5063Y5700D01*
X-5051Y5638D01*
X-5015Y5585D01*
X-4962Y5549D01*
X-4900Y5537D01*
X-4838Y5549D01*
X-4785Y5585D01*
X-4749Y5638D01*
X-4737Y5700D01*
X-4749Y5762D01*
X-4785Y5815D01*
X-4838Y5851D01*
X-4900Y5863D01*
D02*
G37*
G36*
X-1744Y6110D02*
X-2191D01*
X-2200Y6099D01*
X-2209Y6110D01*
X-2656D01*
X-2648Y6068D01*
X-2601Y5999D01*
X-2540Y5958D01*
Y2050D01*
X1470D01*
Y5404D01*
X1477Y5410D01*
X1540Y5422D01*
X1593Y5457D01*
X1628Y5510D01*
X1640Y5573D01*
X1628Y5635D01*
X1593Y5688D01*
X1540Y5724D01*
X1477Y5736D01*
X1470Y5742D01*
Y6060D01*
X-1084D01*
X-1100Y6063D01*
X-1116Y6060D01*
X-1703D01*
X-1744Y6110D01*
D02*
G37*
G36*
X-1990Y6356D02*
X-2032Y6348D01*
X-2101Y6301D01*
X-2148Y6232D01*
X-2156Y6190D01*
X-1990D01*
Y6356D01*
D02*
G37*
G36*
X-1910D02*
Y6190D01*
X-1744D01*
X-1752Y6232D01*
X-1799Y6301D01*
X-1868Y6348D01*
X-1910Y6356D01*
D02*
G37*
G36*
X-4000Y6563D02*
X-4062Y6551D01*
X-4115Y6515D01*
X-4151Y6462D01*
X-4163Y6400D01*
X-4151Y6338D01*
X-4115Y6285D01*
X-4062Y6249D01*
X-4000Y6237D01*
X-3938Y6249D01*
X-3885Y6285D01*
X-3849Y6338D01*
X-3837Y6400D01*
X-3849Y6462D01*
X-3885Y6515D01*
X-3938Y6551D01*
X-4000Y6563D01*
D02*
G37*
G36*
X2050Y6712D02*
X1982Y6703D01*
X1919Y6677D01*
X1865Y6635D01*
X1823Y6581D01*
X1797Y6518D01*
X1788Y6450D01*
X1797Y6382D01*
X1823Y6319D01*
X1865Y6265D01*
X1919Y6223D01*
X1982Y6197D01*
X2050Y6188D01*
X2118Y6197D01*
X2181Y6223D01*
X2235Y6265D01*
X2277Y6319D01*
X2303Y6382D01*
X2312Y6450D01*
X2303Y6518D01*
X2277Y6581D01*
X2235Y6635D01*
X2181Y6677D01*
X2118Y6703D01*
X2050Y6712D01*
D02*
G37*
G36*
X-2490Y6356D02*
X-2532Y6348D01*
X-2601Y6301D01*
X-2648Y6232D01*
X-2656Y6190D01*
X-2490D01*
Y6356D01*
D02*
G37*
G36*
X-2410D02*
Y6190D01*
X-2244D01*
X-2252Y6232D01*
X-2299Y6301D01*
X-2368Y6348D01*
X-2410Y6356D01*
D02*
G37*
G36*
X-1331Y-14D02*
X-1397Y-27D01*
X-1453Y-64D01*
X-1490Y-119D01*
X-1503Y-185D01*
X-1490Y-251D01*
X-1453Y-306D01*
X-1397Y-344D01*
X-1331Y-357D01*
X-1266Y-344D01*
X-1210Y-306D01*
X-1173Y-251D01*
X-1160Y-185D01*
X-1173Y-119D01*
X-1210Y-64D01*
X-1266Y-27D01*
X-1331Y-14D01*
D02*
G37*
G36*
X-465D02*
X-531Y-27D01*
X-586Y-64D01*
X-624Y-119D01*
X-637Y-185D01*
X-624Y-251D01*
X-586Y-306D01*
X-531Y-344D01*
X-465Y-357D01*
X-399Y-344D01*
X-344Y-306D01*
X-307Y-251D01*
X-294Y-185D01*
X-307Y-119D01*
X-344Y-64D01*
X-399Y-27D01*
X-465Y-14D01*
D02*
G37*
G36*
X401D02*
X335Y-27D01*
X280Y-64D01*
X243Y-119D01*
X229Y-185D01*
X243Y-251D01*
X280Y-306D01*
X335Y-344D01*
X401Y-357D01*
X467Y-344D01*
X522Y-306D01*
X560Y-251D01*
X573Y-185D01*
X560Y-119D01*
X522Y-64D01*
X467Y-27D01*
X401Y-14D01*
D02*
G37*
G36*
X5258Y-372D02*
Y-528D01*
X5414D01*
X5407Y-490D01*
X5363Y-424D01*
X5296Y-379D01*
X5258Y-372D01*
D02*
G37*
G36*
X1161Y-225D02*
X1005D01*
X1013Y-263D01*
X1057Y-329D01*
X1123Y-374D01*
X1161Y-381D01*
Y-225D01*
D02*
G37*
G36*
X1397D02*
X1241D01*
Y-381D01*
X1279Y-374D01*
X1345Y-329D01*
X1389Y-263D01*
X1397Y-225D01*
D02*
G37*
G36*
X-2549Y-22D02*
X-2611Y-34D01*
X-2664Y-70D01*
X-2700Y-123D01*
X-2712Y-185D01*
X-2756Y-221D01*
X-2767Y-219D01*
X-2830Y-231D01*
X-2883Y-267D01*
X-2918Y-320D01*
X-2931Y-382D01*
X-2918Y-444D01*
X-2883Y-497D01*
X-2830Y-533D01*
X-2767Y-545D01*
X-2749Y-542D01*
X-2706Y-579D01*
X-2693Y-641D01*
X-2658Y-694D01*
X-2605Y-730D01*
X-2543Y-742D01*
X-2480Y-730D01*
X-2427Y-694D01*
X-2392Y-641D01*
X-2380Y-579D01*
X-2392Y-516D01*
X-2427Y-463D01*
X-2480Y-428D01*
X-2543Y-416D01*
X-2560Y-380D01*
X-2549Y-348D01*
X-2487Y-336D01*
X-2434Y-300D01*
X-2398Y-248D01*
X-2386Y-185D01*
X-2398Y-123D01*
X-2434Y-70D01*
X-2487Y-34D01*
X-2549Y-22D01*
D02*
G37*
G36*
X-2267Y187D02*
X-2423D01*
X-2415Y149D01*
X-2371Y83D01*
X-2305Y39D01*
X-2267Y32D01*
Y187D01*
D02*
G37*
G36*
X-2031D02*
X-2187D01*
Y32D01*
X-2149Y39D01*
X-2083Y83D01*
X-2039Y149D01*
X-2031Y187D01*
D02*
G37*
G36*
X6250Y363D02*
X6188Y351D01*
X6135Y315D01*
X6099Y262D01*
X6087Y200D01*
X6099Y138D01*
X6135Y85D01*
X6188Y49D01*
X6250Y37D01*
X6312Y49D01*
X6365Y85D01*
X6401Y138D01*
X6413Y200D01*
X6401Y262D01*
X6365Y315D01*
X6312Y351D01*
X6250Y363D01*
D02*
G37*
G36*
X3250Y163D02*
X3188Y151D01*
X3135Y115D01*
X3099Y62D01*
X3087Y0D01*
X3099Y-62D01*
X3135Y-115D01*
X3188Y-151D01*
X3250Y-163D01*
X3312Y-151D01*
X3365Y-115D01*
X3401Y-62D01*
X3413Y0D01*
X3401Y62D01*
X3365Y115D01*
X3312Y151D01*
X3250Y163D01*
D02*
G37*
G36*
X1161Y11D02*
X1123Y3D01*
X1057Y-41D01*
X1013Y-107D01*
X1005Y-145D01*
X1161D01*
Y11D01*
D02*
G37*
G36*
X1241D02*
Y-145D01*
X1397D01*
X1389Y-107D01*
X1345Y-41D01*
X1279Y3D01*
X1241Y11D01*
D02*
G37*
G36*
X5178Y-372D02*
X5140Y-379D01*
X5074Y-424D01*
X5030Y-490D01*
X5022Y-528D01*
X5178D01*
Y-372D01*
D02*
G37*
G36*
X2964Y-866D02*
Y-1022D01*
X3120D01*
X3113Y-984D01*
X3068Y-918D01*
X3002Y-873D01*
X2964Y-866D01*
D02*
G37*
G36*
X-7250Y-587D02*
X-7312Y-599D01*
X-7365Y-635D01*
X-7401Y-688D01*
X-7413Y-750D01*
X-7401Y-812D01*
X-7365Y-865D01*
X-7312Y-901D01*
X-7250Y-913D01*
X-7188Y-901D01*
X-7135Y-865D01*
X-7099Y-812D01*
X-7087Y-750D01*
X-7099Y-688D01*
X-7135Y-635D01*
X-7188Y-599D01*
X-7250Y-587D01*
D02*
G37*
G36*
X2750Y-477D02*
X2684Y-490D01*
X2627Y-527D01*
X2590Y-584D01*
X2577Y-650D01*
X2590Y-716D01*
X2627Y-773D01*
X2684Y-810D01*
X2750Y-823D01*
X2816Y-810D01*
X2873Y-773D01*
X2910Y-716D01*
X2923Y-650D01*
X2910Y-584D01*
X2873Y-527D01*
X2816Y-490D01*
X2750Y-477D01*
D02*
G37*
G36*
X401Y-880D02*
X335Y-893D01*
X280Y-930D01*
X243Y-986D01*
X229Y-1051D01*
X243Y-1117D01*
X280Y-1173D01*
X335Y-1210D01*
X401Y-1223D01*
X467Y-1210D01*
X522Y-1173D01*
X560Y-1117D01*
X573Y-1051D01*
X560Y-986D01*
X522Y-930D01*
X467Y-893D01*
X401Y-880D01*
D02*
G37*
G36*
X1518Y-1005D02*
X1456Y-1017D01*
X1403Y-1052D01*
X1368Y-1105D01*
X1355Y-1168D01*
X1312Y-1199D01*
X1250Y-1187D01*
X1188Y-1199D01*
X1135Y-1235D01*
X1099Y-1288D01*
X1087Y-1350D01*
X1099Y-1412D01*
X1135Y-1465D01*
X1188Y-1501D01*
X1250Y-1513D01*
X1270Y-1509D01*
X1313Y-1550D01*
X1322Y-1596D01*
X1321Y-1598D01*
X1289Y-1632D01*
X1283Y-1635D01*
X1240Y-1627D01*
X1178Y-1639D01*
X1125Y-1675D01*
X1089Y-1728D01*
X1077Y-1790D01*
X1089Y-1853D01*
X1125Y-1905D01*
X1178Y-1941D01*
X1240Y-1953D01*
X1303Y-1941D01*
X1355Y-1905D01*
X1391Y-1853D01*
X1403Y-1790D01*
X1394Y-1744D01*
X1395Y-1742D01*
X1427Y-1708D01*
X1433Y-1705D01*
X1476Y-1713D01*
X1494Y-1710D01*
X1537Y-1750D01*
X1549Y-1812D01*
X1585Y-1865D01*
X1638Y-1901D01*
X1700Y-1913D01*
X1762Y-1901D01*
X1815Y-1865D01*
X1851Y-1812D01*
X1863Y-1750D01*
X1851Y-1688D01*
X1815Y-1635D01*
X1762Y-1599D01*
X1700Y-1587D01*
X1682Y-1590D01*
X1639Y-1550D01*
X1627Y-1488D01*
X1591Y-1435D01*
X1539Y-1399D01*
X1476Y-1387D01*
X1453Y-1356D01*
X1493Y-1326D01*
X1518Y-1331D01*
X1581Y-1319D01*
X1634Y-1283D01*
X1669Y-1230D01*
X1681Y-1168D01*
X1669Y-1105D01*
X1634Y-1052D01*
X1581Y-1017D01*
X1518Y-1005D01*
D02*
G37*
G36*
X2884Y-866D02*
X2846Y-873D01*
X2780Y-918D01*
X2736Y-984D01*
X2728Y-1022D01*
X2884D01*
Y-866D01*
D02*
G37*
G36*
X-1764Y-447D02*
X-1830Y-460D01*
X-1886Y-497D01*
X-1923Y-553D01*
X-1936Y-618D01*
X-1923Y-684D01*
X-1886Y-740D01*
X-1830Y-777D01*
X-1764Y-790D01*
X-1699Y-777D01*
X-1643Y-740D01*
X-1606Y-684D01*
X-1593Y-618D01*
X-1606Y-553D01*
X-1643Y-497D01*
X-1699Y-460D01*
X-1764Y-447D01*
D02*
G37*
G36*
X5178Y-608D02*
X5022D01*
X5030Y-646D01*
X5074Y-712D01*
X5140Y-756D01*
X5178Y-764D01*
Y-608D01*
D02*
G37*
G36*
X5414D02*
X5258D01*
Y-764D01*
X5296Y-756D01*
X5363Y-712D01*
X5407Y-646D01*
X5414Y-608D01*
D02*
G37*
G36*
X6700Y-437D02*
X6638Y-449D01*
X6585Y-485D01*
X6549Y-538D01*
X6537Y-600D01*
X6549Y-662D01*
X6585Y-715D01*
X6638Y-751D01*
X6700Y-763D01*
X6762Y-751D01*
X6815Y-715D01*
X6851Y-662D01*
X6863Y-600D01*
X6851Y-538D01*
X6815Y-485D01*
X6762Y-449D01*
X6700Y-437D01*
D02*
G37*
G36*
X-898Y-447D02*
X-964Y-460D01*
X-1019Y-497D01*
X-1057Y-553D01*
X-1070Y-618D01*
X-1057Y-684D01*
X-1019Y-740D01*
X-964Y-777D01*
X-898Y-790D01*
X-833Y-777D01*
X-777Y-740D01*
X-740Y-684D01*
X-727Y-618D01*
X-740Y-553D01*
X-777Y-497D01*
X-833Y-460D01*
X-898Y-447D01*
D02*
G37*
G36*
X-32D02*
X-98Y-460D01*
X-153Y-497D01*
X-191Y-553D01*
X-204Y-618D01*
X-191Y-684D01*
X-153Y-740D01*
X-98Y-777D01*
X-32Y-790D01*
X34Y-777D01*
X89Y-740D01*
X126Y-684D01*
X140Y-618D01*
X126Y-553D01*
X89Y-497D01*
X34Y-460D01*
X-32Y-447D01*
D02*
G37*
G36*
X7500Y-427D02*
X7434Y-440D01*
X7377Y-477D01*
X7340Y-534D01*
X7327Y-600D01*
X7340Y-666D01*
X7377Y-723D01*
X7434Y-760D01*
X7500Y-773D01*
X7566Y-760D01*
X7623Y-723D01*
X7660Y-666D01*
X7673Y-600D01*
X7660Y-534D01*
X7623Y-477D01*
X7566Y-440D01*
X7500Y-427D01*
D02*
G37*
G36*
X3700Y1213D02*
X3638Y1201D01*
X3585Y1165D01*
X3549Y1112D01*
X3537Y1050D01*
X3549Y988D01*
X3585Y935D01*
X3638Y899D01*
X3700Y887D01*
X3762Y899D01*
X3815Y935D01*
X3851Y988D01*
X3863Y1050D01*
X3851Y1112D01*
X3815Y1165D01*
X3762Y1201D01*
X3700Y1213D01*
D02*
G37*
G36*
X-6700Y2058D02*
X-6793Y2046D01*
X-6879Y2010D01*
X-6953Y1953D01*
X-7010Y1879D01*
X-7046Y1793D01*
X-7058Y1700D01*
X-7046Y1607D01*
X-7010Y1521D01*
X-6953Y1447D01*
X-6879Y1390D01*
X-6793Y1354D01*
X-6700Y1342D01*
X-6607Y1354D01*
X-6521Y1390D01*
X-6447Y1447D01*
X-6390Y1521D01*
X-6354Y1607D01*
X-6342Y1700D01*
X-6354Y1793D01*
X-6390Y1879D01*
X-6447Y1953D01*
X-6521Y2010D01*
X-6607Y2046D01*
X-6700Y2058D01*
D02*
G37*
G36*
X3000Y1873D02*
X2934Y1860D01*
X2877Y1823D01*
X2840Y1766D01*
X2827Y1700D01*
X2840Y1634D01*
X2877Y1577D01*
X2934Y1540D01*
X3000Y1527D01*
X3066Y1540D01*
X3123Y1577D01*
X3160Y1634D01*
X3173Y1700D01*
X3160Y1766D01*
X3123Y1823D01*
X3066Y1860D01*
X3000Y1873D01*
D02*
G37*
G36*
X-2210Y796D02*
Y640D01*
X-2054D01*
X-2062Y678D01*
X-2106Y744D01*
X-2172Y788D01*
X-2210Y796D01*
D02*
G37*
G36*
X1177Y990D02*
X1115Y978D01*
X1062Y943D01*
X1026Y890D01*
X1014Y827D01*
X1026Y765D01*
X1062Y712D01*
X1115Y676D01*
X1177Y664D01*
X1240Y676D01*
X1293Y712D01*
X1328Y765D01*
X1340Y827D01*
X1328Y890D01*
X1293Y943D01*
X1240Y978D01*
X1177Y990D01*
D02*
G37*
G36*
X-1371Y943D02*
X-1433Y930D01*
X-1486Y895D01*
X-1521Y842D01*
X-1534Y779D01*
X-1531Y766D01*
X-1566Y730D01*
X-1567Y731D01*
X-1630Y718D01*
X-1683Y683D01*
X-1718Y630D01*
X-1731Y567D01*
X-1718Y505D01*
X-1683Y452D01*
X-1630Y417D01*
X-1567Y404D01*
X-1505Y417D01*
X-1452Y452D01*
X-1417Y505D01*
X-1415Y516D01*
X-1364D01*
X-1362Y508D01*
X-1318Y442D01*
X-1252Y398D01*
X-1214Y390D01*
Y586D01*
X-1134D01*
Y390D01*
X-1096Y398D01*
X-1030Y442D01*
X-985Y508D01*
X-983Y522D01*
X-932D01*
X-931Y518D01*
X-895Y465D01*
X-843Y429D01*
X-780Y417D01*
X-718Y429D01*
X-665Y465D01*
X-629Y518D01*
X-619Y570D01*
X-587Y585D01*
X-543Y555D01*
X-537Y524D01*
X-502Y471D01*
X-449Y436D01*
X-386Y423D01*
X-324Y436D01*
X-271Y471D01*
X-236Y524D01*
X-227Y567D01*
X-226Y568D01*
X-192Y578D01*
X-147Y545D01*
X-143Y525D01*
X-108Y472D01*
X-55Y437D01*
X7Y424D01*
X70Y437D01*
X123Y472D01*
X158Y525D01*
X170Y587D01*
X158Y650D01*
X123Y703D01*
X70Y738D01*
X22Y748D01*
X6Y752D01*
X-33Y793D01*
X-39Y823D01*
X-74Y876D01*
X-127Y911D01*
X-190Y924D01*
X-252Y911D01*
X-305Y876D01*
X-340Y823D01*
X-349Y780D01*
X-383Y771D01*
X-427Y803D01*
X-433Y829D01*
X-468Y882D01*
X-521Y917D01*
X-583Y930D01*
X-646Y917D01*
X-699Y882D01*
X-734Y829D01*
X-741Y792D01*
X-785Y762D01*
X-815Y779D01*
X-826Y835D01*
X-862Y888D01*
X-914Y924D01*
X-977Y936D01*
X-1039Y924D01*
X-1092Y888D01*
X-1128Y835D01*
X-1138Y783D01*
X-1174Y790D01*
X-1208Y783D01*
X-1220Y842D01*
X-1255Y895D01*
X-1308Y930D01*
X-1371Y943D01*
D02*
G37*
G36*
X3500Y1873D02*
X3434Y1860D01*
X3377Y1823D01*
X3340Y1766D01*
X3327Y1700D01*
X3340Y1634D01*
X3377Y1577D01*
X3434Y1540D01*
X3500Y1527D01*
X3566Y1540D01*
X3623Y1577D01*
X3660Y1634D01*
X3673Y1700D01*
X3660Y1766D01*
X3623Y1823D01*
X3566Y1860D01*
X3500Y1873D01*
D02*
G37*
G36*
X520Y1893D02*
X458Y1881D01*
X405Y1845D01*
X369Y1792D01*
X357Y1730D01*
X369Y1668D01*
X405Y1615D01*
X458Y1579D01*
X520Y1567D01*
X582Y1579D01*
X635Y1615D01*
X671Y1668D01*
X683Y1730D01*
X671Y1792D01*
X635Y1845D01*
X582Y1881D01*
X520Y1893D01*
D02*
G37*
G36*
X1250Y1913D02*
X1188Y1901D01*
X1135Y1865D01*
X1099Y1812D01*
X1087Y1750D01*
X1099Y1688D01*
X1135Y1635D01*
X1188Y1599D01*
X1250Y1587D01*
X1312Y1599D01*
X1365Y1635D01*
X1401Y1688D01*
X1413Y1750D01*
X1401Y1812D01*
X1365Y1865D01*
X1312Y1901D01*
X1250Y1913D01*
D02*
G37*
G36*
X4250Y2263D02*
X4188Y2251D01*
X4135Y2215D01*
X4099Y2162D01*
X4087Y2100D01*
X4099Y2038D01*
X4135Y1985D01*
X4185Y1951D01*
X4188Y1930D01*
Y1920D01*
X4185Y1899D01*
X4135Y1865D01*
X4099Y1812D01*
X4087Y1750D01*
X4099Y1688D01*
X4135Y1635D01*
X4188Y1599D01*
X4250Y1587D01*
X4312Y1599D01*
X4365Y1635D01*
X4401Y1688D01*
X4413Y1750D01*
X4401Y1812D01*
X4365Y1865D01*
X4315Y1899D01*
X4312Y1920D01*
Y1930D01*
X4315Y1951D01*
X4365Y1985D01*
X4401Y2038D01*
X4413Y2100D01*
X4401Y2162D01*
X4365Y2215D01*
X4312Y2251D01*
X4250Y2263D01*
D02*
G37*
G36*
X-330Y1863D02*
X-392Y1851D01*
X-445Y1815D01*
X-481Y1762D01*
X-493Y1700D01*
X-481Y1638D01*
X-445Y1585D01*
X-392Y1549D01*
X-330Y1537D01*
X-268Y1549D01*
X-215Y1585D01*
X-179Y1638D01*
X-167Y1700D01*
X-179Y1762D01*
X-215Y1815D01*
X-268Y1851D01*
X-330Y1863D01*
D02*
G37*
G36*
X2500D02*
X2438Y1851D01*
X2385Y1815D01*
X2349Y1762D01*
X2337Y1700D01*
X2349Y1638D01*
X2385Y1585D01*
X2438Y1549D01*
X2500Y1537D01*
X2562Y1549D01*
X2615Y1585D01*
X2651Y1638D01*
X2663Y1700D01*
X2651Y1762D01*
X2615Y1815D01*
X2562Y1851D01*
X2500Y1863D01*
D02*
G37*
G36*
X80Y1893D02*
X18Y1881D01*
X-35Y1845D01*
X-71Y1792D01*
X-83Y1730D01*
X-71Y1668D01*
X-35Y1615D01*
X18Y1579D01*
X80Y1567D01*
X142Y1579D01*
X195Y1615D01*
X231Y1668D01*
X243Y1730D01*
X231Y1792D01*
X195Y1845D01*
X142Y1881D01*
X80Y1893D01*
D02*
G37*
G36*
X-2290Y796D02*
X-2328Y788D01*
X-2394Y744D01*
X-2438Y678D01*
X-2446Y640D01*
X-2290D01*
Y796D01*
D02*
G37*
G36*
X-4100Y463D02*
X-4162Y451D01*
X-4215Y415D01*
X-4251Y362D01*
X-4263Y300D01*
X-4251Y238D01*
X-4215Y185D01*
X-4162Y149D01*
X-4100Y137D01*
X-4038Y149D01*
X-3985Y185D01*
X-3949Y238D01*
X-3937Y300D01*
X-3949Y362D01*
X-3985Y415D01*
X-4038Y451D01*
X-4100Y463D01*
D02*
G37*
G36*
X4368Y495D02*
X4306Y483D01*
X4253Y448D01*
X4218Y395D01*
X4205Y332D01*
X4218Y270D01*
X4253Y217D01*
X4306Y181D01*
X4368Y169D01*
X4431Y181D01*
X4484Y217D01*
X4519Y270D01*
X4531Y332D01*
X4519Y395D01*
X4484Y448D01*
X4431Y483D01*
X4368Y495D01*
D02*
G37*
G36*
X4818D02*
X4756Y483D01*
X4703Y448D01*
X4668Y395D01*
X4655Y332D01*
X4668Y270D01*
X4703Y217D01*
X4756Y181D01*
X4818Y169D01*
X4881Y181D01*
X4934Y217D01*
X4969Y270D01*
X4981Y332D01*
X4969Y395D01*
X4934Y448D01*
X4881Y483D01*
X4818Y495D01*
D02*
G37*
G36*
X864Y391D02*
X801Y378D01*
X748Y343D01*
X713Y290D01*
X700Y227D01*
X713Y165D01*
X748Y112D01*
X801Y77D01*
X864Y64D01*
X926Y77D01*
X979Y112D01*
X1014Y165D01*
X1027Y227D01*
X1014Y290D01*
X979Y343D01*
X926Y378D01*
X864Y391D01*
D02*
G37*
G36*
X-5000Y463D02*
X-5062Y451D01*
X-5115Y415D01*
X-5151Y362D01*
X-5163Y300D01*
X-5151Y238D01*
X-5115Y185D01*
X-5062Y149D01*
X-5000Y137D01*
X-4938Y149D01*
X-4885Y185D01*
X-4849Y238D01*
X-4837Y300D01*
X-4849Y362D01*
X-4885Y415D01*
X-4938Y451D01*
X-5000Y463D01*
D02*
G37*
G36*
X-4550D02*
X-4612Y451D01*
X-4665Y415D01*
X-4701Y362D01*
X-4713Y300D01*
X-4701Y238D01*
X-4665Y185D01*
X-4612Y149D01*
X-4550Y137D01*
X-4488Y149D01*
X-4435Y185D01*
X-4399Y238D01*
X-4387Y300D01*
X-4399Y362D01*
X-4435Y415D01*
X-4488Y451D01*
X-4550Y463D01*
D02*
G37*
G36*
X-2054Y560D02*
X-2446D01*
X-2438Y522D01*
X-2394Y456D01*
X-2365Y436D01*
Y376D01*
X-2371Y372D01*
X-2415Y306D01*
X-2423Y267D01*
X-2031D01*
X-2039Y306D01*
X-2083Y372D01*
X-2112Y391D01*
Y452D01*
X-2106Y456D01*
X-2062Y522D01*
X-2054Y560D01*
D02*
G37*
G36*
X-6345Y1055D02*
X-7055D01*
Y345D01*
X-6345D01*
Y1055D01*
D02*
G37*
G36*
X-2977Y736D02*
X-3040Y724D01*
X-3093Y688D01*
X-3128Y635D01*
X-3140Y573D01*
X-3128Y510D01*
X-3093Y457D01*
X-3040Y422D01*
X-2977Y410D01*
X-2915Y422D01*
X-2862Y457D01*
X-2826Y510D01*
X-2814Y573D01*
X-2826Y635D01*
X-2862Y688D01*
X-2915Y724D01*
X-2977Y736D01*
D02*
G37*
G36*
X7550Y863D02*
X7488Y851D01*
X7435Y815D01*
X7399Y762D01*
X7387Y700D01*
X7399Y638D01*
X7435Y585D01*
X7488Y549D01*
X7550Y537D01*
X7612Y549D01*
X7665Y585D01*
X7701Y638D01*
X7713Y700D01*
X7701Y762D01*
X7665Y815D01*
X7612Y851D01*
X7550Y863D01*
D02*
G37*
G36*
X3600Y613D02*
X3538Y601D01*
X3485Y565D01*
X3449Y512D01*
X3437Y450D01*
X3449Y388D01*
X3485Y335D01*
X3538Y299D01*
X3600Y287D01*
X3662Y299D01*
X3715Y335D01*
X3751Y388D01*
X3763Y450D01*
X3751Y512D01*
X3715Y565D01*
X3662Y601D01*
X3600Y613D01*
D02*
G37*
G36*
X6950D02*
X6888Y601D01*
X6835Y565D01*
X6799Y512D01*
X6787Y450D01*
X6799Y388D01*
X6835Y335D01*
X6888Y299D01*
X6950Y287D01*
X7012Y299D01*
X7065Y335D01*
X7101Y388D01*
X7113Y450D01*
X7101Y512D01*
X7065Y565D01*
X7012Y601D01*
X6950Y613D01*
D02*
G37*
G36*
X5268Y645D02*
X5206Y632D01*
X5153Y597D01*
X5118Y544D01*
X5105Y482D01*
X5118Y419D01*
X5153Y366D01*
X5206Y331D01*
X5268Y319D01*
X5331Y331D01*
X5384Y366D01*
X5419Y419D01*
X5431Y482D01*
X5419Y544D01*
X5384Y597D01*
X5331Y632D01*
X5268Y645D01*
D02*
G37*
%LPD*%
D47*
X-2250Y-3000D02*
D03*
X2867Y-4583D02*
D03*
X-4724Y-3824D02*
D03*
X-1182Y-3368D02*
D03*
X-2574Y-1760D02*
D03*
X-2227Y227D02*
D03*
X-2250Y600D02*
D03*
X-1174Y586D02*
D03*
X-632Y-3218D02*
D03*
X737Y-4497D02*
D03*
X68Y-3218D02*
D03*
X368D02*
D03*
X864Y-2763D02*
D03*
X1201Y-185D02*
D03*
X2924Y-1062D02*
D03*
X5218Y-568D02*
D03*
X2050Y-3450D02*
D03*
D49*
X-5750Y-4900D02*
D03*
D50*
X-2850Y7050D02*
D03*
X-2450Y6150D02*
D03*
Y6650D02*
D03*
X-1950D02*
D03*
Y6150D02*
D03*
M02*
