M48
;Layer_Color=9474304
;FILE_FORMAT=2:4
INCH,LZ
;TYPE=PLATED
T1F00S00C0.0079
T2F00S00C0.0080
T3F00S00C0.0100
T4F00S00C0.0140
T5F00S00C0.0157
T6F00S00C0.0200
T7F00S00C0.0354
T8F00S00C0.0472
%
T01
X-003736Y-005663
X-003137Y-005536
X-003009Y-006135
X-002538Y-005409
X-003264Y-004937
X-001764Y-00235
Y-001484
Y-000618
X-001331Y-001051
Y-001917
X-000898Y-00235
Y-001484
Y-000618
X-001331Y-000185
X-000465
Y-001051
Y-001917
X-000032Y-00235
Y-001484
Y-000618
X000401Y-001051
Y-001917
Y-000185
X003768Y-001318
Y-001751
Y-002184
X004201
X004634
Y-001751
Y-001318
X004201
X-003991Y-004465
X-003863Y-005064
X-004462Y-005191
X-004267Y002867
Y0033
Y003733
X-003833
Y0033
Y002867
T02
X-002274Y-006776
X-001977Y-006727
X-002043Y-006357
X-001663Y-005937
X-001468Y-005518
X-001809Y-003845
X-0018Y-0035
X-001779Y-0032
X-0021Y-0033
X-00225Y-003
X-002561Y-002547
X-002596Y-002154
X-002882Y-002268
X-00285Y-0018
X-002574Y-00176
X-002543Y-000579
X-002549Y-000185
X-002767Y-000382
X-002227Y000227
X-00225Y0006
X-001567Y000567
X-001371Y000779
X-001174Y000586
X-000977Y000773
X-00078Y00058
X-000583Y000767
X-000386Y000586
X-00019Y00076
X000007Y000587
X00008Y00173
X00052
X00125Y00175
X001177Y000827
X000864Y000227
X001201Y-000185
X00125Y-00135
X001476Y-00155
X0017Y-00175
X00124Y-00179
X001518Y-001168
X002924Y-001062
X002868Y-001418
X002818Y-001868
Y-002218
X00205Y-00345
X001443Y-003657
X001141Y-003495
X00075Y-0039
X000737Y-004497
X001443Y-004703
X002406Y-004406
X002384Y-003934
X002867Y-004583
X002612Y-005462
X003124Y-005474
X004306Y-004856
X005094Y-002706
X005493Y-002243
X00645Y-00225
X006068Y-001518
X0067Y-0006
X00625Y0002
X00695Y00045
X00755Y0007
X005268Y000482
X004818Y000332
X004368
X0036Y00045
X0037Y00105
X00425Y00175
Y0021
Y0025
X00475Y00175
X0025Y0017
X00325Y0
X005218Y-000568
X00515Y00425
X00215Y00415
X-00033Y0017
X-001584Y0028
X-0029Y0023
X-002977Y000573
X-00375Y-002
X-0035Y-0024
X-001371Y-003179
X-001182Y-003368
X-000632Y-003218
X000068
X000368
X000864Y-002763
X-004Y-00175
X-00425Y-0015
X-0045Y-00125
X-00475Y-001
X-0054Y-0013
X-00515Y-0018
X-00505Y-0022
X-004724Y-003824
X-004993Y-004243
X-0055Y-0041
X-005237Y-004663
X-0061Y-00365
X-00645Y-00375
X-00725Y-00075
X-005Y0003
X-00455
X-0041
X-005239Y002611
X-005245Y003005
X-00575Y00375
X-00645
X-0061Y0043
X-0055Y00425
X-0052Y00475
X-00575Y0048
X-00535Y00525
X-0048Y00515
X-0049Y0057
X-00435Y00555
X-00445Y0061
X-004Y0059
Y0064
X-00325Y00475
X-003243Y004343
X-0011Y0059
X-0004Y0058
X0
X0004Y00585
Y00555
X001477Y005573
X00215Y0049
X00255Y0045
X0045Y00525
X00375Y0061
X00005Y0068
X-00035
T03
X-00105Y-0059
X-0005
X0
X0005
X001
X00365Y-0054
X0046
Y-0061
X004Y-00655
X00335Y-00685
X0053Y-0056
X0051Y-0051
X0059Y-005
X00715Y-00255
X0073Y-00195
X0069
Y-00125
X00745
X0075Y-0006
X00275Y-00065
X0032Y-0027
X003Y0017
X0035
X-00195Y00615
X-00245
Y00665
X-00195
X-00285Y00705
T04
X-00575Y-0049
T05
X-0006Y00374
T06
X0061Y00357
X00205Y00645
T07
X-0067Y0007
Y0017
Y0027
T08
X-00125Y0074
X00125
M30
