M48
;Layer_Color=9474304
;FILE_FORMAT=2:4
INCH,LZ
;TYPE=PLATED
T1F00S00C0.0200
T2F00S00C0.0900
T3F00S00C0.1250
%
T01
X-0015Y-0105
X0
X001039Y-010288
X0024Y-0083
X0034Y-008
X004
X0046
X004Y-005
X003
X002
X001
X0
X-001
X-002
X-003
X-004
X-005
Y-004
Y-003
Y-002
Y-001
Y0
Y001
Y002
Y003
Y004
X-004Y005
X-003
X-002
X-001
X0
X001
X002
X003
X004
X005
Y004
Y003
Y002
Y001
Y-0005
Y-0015
Y-0025
Y-0035
X002362Y-002362
Y-001575
Y-000787
Y0
X001575
X000787
X0
X-000787
X-001575
X-002362
Y-000787
Y-001575
X-001575
Y-000787
X-000787
Y-001575
X0
Y-000787
X000787
X001575
Y-001575
X000787
Y-002362
X001575
X0
X-000787
X-001575
X-002362
Y000787
Y001575
X-001575
Y000787
X-000787
Y001575
X0
Y000787
X000787
X001575
Y001575
X000787
Y002362
X001575
X002362
Y001575
Y000787
X0Y002362
X-000787
X-001575
X-002362
X008Y0
Y-001
Y-002
X-0085
Y-001
Y0
X-0084Y0017
Y0025
Y0032
X-0092
Y0025
X-0099
Y0032
Y004
X-0092
X-0005Y00735
X0005
X0Y01025
X-0015
X002
T02
X-00613Y-00666
X00613Y00666
T03
X-005358Y004937
X005358Y-004937
M30
