M48
;Layer_Color=9474304
;FILE_FORMAT=2:4
INCH,LZ
;TYPE=PLATED
T1F00S00C0.0200
T2F00S00C0.0315
T3F00S00C0.0354
T4F00S00C0.0472
T5F00S00C0.0551
T6F00S00C0.0630
T7F00S00C0.0752
%
T01
X0107Y00135
X01185Y00085
X01235
X0061Y0049
Y00615
X005Y0067
X0034Y0049
X0017Y00485
X000846Y006746
T02
X000913Y00585
X0017
X002487
T03
X00675Y00075
X00775
Y0025
X00675
T04
X01315Y00145
X01415
T05
X01315Y00045
X01415
T06
X00425Y0008
X014262Y009304
X007538
X005431Y00265
X003069
T07
X013672Y004544
X0109
X008128
M30
