M48
;Layer_Color=9474304
;FILE_FORMAT=2:4
INCH,LZ
;TYPE=PLATED
T1F00S00C0.0315
T2F00S00C0.0354
T3F00S00C0.0472
T4F00S00C0.0551
T5F00S00C0.0630
%
T01
X0187Y014287
Y015074
Y015862
T02
X0145Y01085
Y01185
X018Y01075
X019
Y018
X018
Y01925
X019
X0145Y01915
Y01815
T03
X01175Y01085
Y01185
Y01815
Y01915
T04
X01075Y01085
Y01185
Y01815
Y01915
T05
X0148Y0135
X013619Y01535
X015981
M30
