M48
;Layer_Color=9474304
;FILE_FORMAT=2:4
INCH,LZ
;TYPE=PLATED
T1F00S00C0.0200
T2F00S00C0.0295
T3F00S00C0.0315
T4F00S00C0.0354
T5F00S00C0.0472
T6F00S00C0.0551
T7F00S00C0.0630
T8F00S00C0.0752
%
T01
X0116Y0148
X01265Y0153
X014205Y012645
X016372Y011778
X017858Y010408
X022Y01045
Y0112
X01665Y01475
X01375Y01585
T02
X0114Y0124
X0124Y0114
X0134Y0124
T03
X01555Y013963
Y01475
Y015537
T04
X0154Y011
X0164
T05
X0229Y01175
X0239
T06
X0229Y01075
X0239
T07
X015881Y01875
X017488Y019354
X024212
X013519Y01875
X0147Y0169
T08
X018078Y014594
X02085
X023622
M30
