G04 Layer_Color=32896*
%FSLAX24Y24*%
%MOIN*%
G70*
G01*
G75*
%ADD28C,0.0100*%
G36*
X5461Y-11878D02*
X5250D01*
Y-12750D01*
X5461D01*
Y-13328D01*
X4378D01*
Y-12750D01*
X4598D01*
Y-12227D01*
X4061Y-12979D01*
X4025D01*
X3479Y-12227D01*
Y-12750D01*
X3699D01*
Y-13328D01*
X2616D01*
Y-12750D01*
X2836D01*
Y-11878D01*
X2616D01*
Y-11300D01*
X3474D01*
X4025Y-12062D01*
X4052D01*
X4603Y-11300D01*
X5461D01*
Y-11878D01*
D02*
G37*
D28*
X10250Y0D02*
G03*
X10250Y0I-10250J0D01*
G01*
X11400Y2000D02*
X13600D01*
Y1800D02*
Y2000D01*
Y800D02*
Y1200D01*
Y-200D02*
Y200D01*
Y-1200D02*
Y-800D01*
Y-2000D02*
Y-1800D01*
X11400Y-2000D02*
X13600D01*
X11400D02*
Y-1800D01*
Y-1200D02*
Y-800D01*
Y-200D02*
Y200D01*
Y800D02*
Y1200D01*
Y1800D02*
Y2000D01*
X-13600D02*
X-11400D01*
Y1800D02*
Y2000D01*
Y800D02*
Y1200D01*
Y-200D02*
Y200D01*
Y-1200D02*
Y-800D01*
Y-2000D02*
Y-1800D01*
X-13600Y-2000D02*
X-11400D01*
X-13600D02*
Y-1800D01*
Y-1200D02*
Y-800D01*
Y-200D02*
Y200D01*
Y800D02*
Y1200D01*
Y1800D02*
Y2000D01*
X12900Y2250D02*
Y2850D01*
X12600D01*
X12500Y2750D01*
Y2550D01*
X12600Y2450D01*
X12900D01*
X12300Y2250D02*
X12100D01*
X12200D01*
Y2850D01*
X12300Y2750D01*
X-11600Y-2950D02*
Y-2350D01*
X-11900D01*
X-12000Y-2450D01*
Y-2650D01*
X-11900Y-2750D01*
X-11600D01*
X-12600Y-2950D02*
X-12200D01*
X-12600Y-2550D01*
Y-2450D01*
X-12500Y-2350D01*
X-12300D01*
X-12200Y-2450D01*
X-11850Y4350D02*
Y4950D01*
X-12150D01*
X-12250Y4850D01*
Y4650D01*
X-12150Y4550D01*
X-11850D01*
X-12450Y4850D02*
X-12550Y4950D01*
X-12750D01*
X-12850Y4850D01*
Y4750D01*
X-12750Y4650D01*
X-12650D01*
X-12750D01*
X-12850Y4550D01*
Y4450D01*
X-12750Y4350D01*
X-12550D01*
X-12450Y4450D01*
X1100Y-12000D02*
Y-12600D01*
X700D01*
X100Y-12000D02*
X500D01*
Y-12600D01*
X100D01*
X500Y-12300D02*
X300D01*
X-100Y-12000D02*
Y-12600D01*
X-400D01*
X-499Y-12500D01*
Y-12100D01*
X-400Y-12000D01*
X-100D01*
X-1399Y-12600D02*
Y-12100D01*
Y-12300D01*
X-1299D01*
X-1499D01*
X-1399D01*
Y-12100D01*
X-1499Y-12000D01*
X-1799Y-12200D02*
Y-12600D01*
Y-12400D01*
X-1899Y-12300D01*
X-1999Y-12200D01*
X-2099D01*
X-2499Y-12600D02*
X-2699D01*
X-2799Y-12500D01*
Y-12300D01*
X-2699Y-12200D01*
X-2499D01*
X-2399Y-12300D01*
Y-12500D01*
X-2499Y-12600D01*
X-2999D02*
Y-12200D01*
X-3299D01*
X-3399Y-12300D01*
Y-12600D01*
X-3698Y-12100D02*
Y-12200D01*
X-3598D01*
X-3798D01*
X-3698D01*
Y-12500D01*
X-3798Y-12600D01*
X-4398D02*
X-4198D01*
X-4098Y-12500D01*
Y-12300D01*
X-4198Y-12200D01*
X-4398D01*
X-4498Y-12300D01*
Y-12400D01*
X-4098D01*
X-4698Y-12600D02*
Y-12200D01*
X-4998D01*
X-5098Y-12300D01*
Y-12600D01*
X-5698Y-12000D02*
Y-12600D01*
X-5398D01*
X-5298Y-12500D01*
Y-12300D01*
X-5398Y-12200D01*
X-5698D01*
X-9700Y4650D02*
Y4050D01*
X-10000D01*
X-10100Y4150D01*
Y4550D01*
X-10000Y4650D01*
X-9700D01*
X-10300Y4050D02*
Y4650D01*
X-10600D01*
X-10700Y4550D01*
Y4350D01*
X-10600Y4250D01*
X-10300D01*
X-10500D02*
X-10700Y4050D01*
M02*
