%FSLAX24Y24*%
%MOIN*%
G70*
G01*
G75*
G04 Layer_Color=8421504*
%ADD10C,0.0150*%
%ADD11R,0.0591X0.0394*%
%ADD12O,0.0571X0.0236*%
%ADD13R,0.0197X0.0354*%
%ADD14R,0.0354X0.0197*%
%ADD15R,0.0374X0.2126*%
%ADD16R,0.0492X0.1102*%
%ADD17R,0.0768X0.1378*%
%ADD18R,0.0354X0.0118*%
%ADD19R,0.0650X0.1122*%
%ADD20R,0.0984X0.1260*%
%ADD21R,0.0512X0.0236*%
%ADD22R,0.0354X0.0157*%
%ADD23O,0.1181X0.1969*%
%ADD24R,0.8661X0.8661*%
%ADD25R,0.0433X0.0669*%
%ADD26R,0.1000X0.1000*%
%ADD27C,0.0100*%
%ADD28C,0.0300*%
%ADD29C,0.0200*%
%ADD30O,0.0669X0.1102*%
%ADD31R,0.0866X0.0866*%
%ADD32C,0.0400*%
%ADD33C,0.0217*%
%ADD34C,0.1575*%
%ADD35R,0.1250X0.0449*%
%ADD36R,0.1000X0.0500*%
%ADD37C,0.0098*%
%ADD38C,0.0236*%
%ADD39C,0.0079*%
%ADD40C,0.0039*%
%ADD41C,0.0050*%
D11*
X-5150Y9022D02*
D03*
Y8078D02*
D03*
D12*
X-8123Y9000D02*
D03*
Y8500D02*
D03*
Y8000D02*
D03*
Y7500D02*
D03*
X-5977Y9000D02*
D03*
Y8500D02*
D03*
Y8000D02*
D03*
Y7500D02*
D03*
D13*
X-6895Y10650D02*
D03*
X-6305D02*
D03*
X5905Y11550D02*
D03*
X6495D02*
D03*
X-12755Y-950D02*
D03*
X-13345D02*
D03*
D14*
X8650Y11145D02*
D03*
Y10555D02*
D03*
X7950Y11145D02*
D03*
Y10555D02*
D03*
X7250Y11145D02*
D03*
Y10555D02*
D03*
X-10350Y-1605D02*
D03*
Y-2195D02*
D03*
D15*
X2152Y-9150D02*
D03*
X-152D02*
D03*
X-1452Y8000D02*
D03*
X852D02*
D03*
D16*
X6900Y9340D02*
D03*
X5700D02*
D03*
X-12250Y-5090D02*
D03*
X-11050D02*
D03*
D17*
X6900Y7800D02*
D03*
X4400D02*
D03*
D18*
X1643Y8739D02*
D03*
Y8345D02*
D03*
Y7952D02*
D03*
Y7755D02*
D03*
Y7558D02*
D03*
Y7361D02*
D03*
X3257Y8739D02*
D03*
Y8345D02*
D03*
Y7952D02*
D03*
Y7755D02*
D03*
Y7558D02*
D03*
Y7361D02*
D03*
D19*
X2450Y8050D02*
D03*
D20*
X1606Y11400D02*
D03*
X4794D02*
D03*
D21*
X-11087Y-1524D02*
D03*
Y-776D02*
D03*
X-11913Y-1150D02*
D03*
Y-2326D02*
D03*
Y-3074D02*
D03*
X-11087Y-2700D02*
D03*
X-10163Y-4326D02*
D03*
Y-5074D02*
D03*
X-9337Y-4700D02*
D03*
Y-3574D02*
D03*
Y-2826D02*
D03*
X-10163Y-3200D02*
D03*
D22*
X-12767Y-1544D02*
D03*
Y-2056D02*
D03*
X-13633D02*
D03*
Y-1800D02*
D03*
Y-1544D02*
D03*
D23*
X7677Y4724D02*
D03*
X-7677Y-4724D02*
D03*
D24*
X0Y0D02*
D03*
D25*
X-7018Y9900D02*
D03*
X-8081D02*
D03*
D26*
X-3500Y11300D02*
D03*
X-5250D02*
D03*
M02*
