G04 Layer_Physical_Order=1*
G04 Layer_Color=255*
%FSLAX24Y24*%
%MOIN*%
G70*
G01*
G75*
%ADD10C,0.0150*%
%ADD11R,0.0591X0.0394*%
%ADD12O,0.0571X0.0236*%
%ADD13R,0.0197X0.0354*%
%ADD14R,0.0354X0.0197*%
%ADD15R,0.0374X0.2126*%
%ADD16R,0.0492X0.1102*%
%ADD17R,0.0768X0.1378*%
%ADD18R,0.0354X0.0118*%
%ADD19R,0.0650X0.1122*%
%ADD20R,0.0984X0.1260*%
%ADD21R,0.0512X0.0236*%
%ADD22R,0.0354X0.0157*%
%ADD23O,0.1181X0.1969*%
%ADD24R,0.8661X0.8661*%
%ADD25R,0.0433X0.0669*%
%ADD26R,0.1000X0.1000*%
%ADD27C,0.0200*%
%ADD28C,0.0100*%
%ADD29C,0.0300*%
%ADD30O,0.0669X0.1102*%
%ADD31R,0.0866X0.0866*%
%ADD32C,0.0400*%
%ADD33C,0.0217*%
%ADD34C,0.1575*%
%ADD35C,0.1300*%
G36*
X2300Y12250D02*
X2300Y10550D01*
X1150Y10550D01*
X1150Y9600D01*
X1865Y9600D01*
X1900Y9565D01*
X1900Y8933D01*
X1865Y8898D01*
X1718D01*
Y8739D01*
X1568D01*
Y8898D01*
X1400D01*
Y9300D01*
X763D01*
X750Y9305D01*
Y12215D01*
X785Y12250D01*
X2300Y12250D01*
D02*
G37*
G36*
X4780Y9350D02*
X4722Y9342D01*
X4649Y9312D01*
X4586Y9264D01*
X4538Y9201D01*
X4508Y9128D01*
X4507Y9125D01*
X4800D01*
Y8975D01*
X4507D01*
X4508Y8972D01*
X4538Y8899D01*
X4586Y8836D01*
X4649Y8788D01*
X4704Y8765D01*
X4694Y8715D01*
X3956D01*
X3946Y8765D01*
X4001Y8788D01*
X4064Y8836D01*
X4112Y8899D01*
X4142Y8972D01*
X4143Y8975D01*
X3557D01*
X3558Y8972D01*
X3588Y8899D01*
X3636Y8836D01*
X3699Y8788D01*
X3754Y8765D01*
X3751Y8724D01*
X3747Y8714D01*
X3704Y8696D01*
X3685Y8650D01*
X3685Y7615D01*
X3572D01*
X3552Y7607D01*
X3544Y7605D01*
X3494Y7630D01*
Y8071D01*
X3020D01*
Y7718D01*
X3008Y7670D01*
X2965Y7661D01*
X2929Y7637D01*
X2929Y7637D01*
X2926Y7635D01*
X2912Y7636D01*
X2875Y7654D01*
Y7975D01*
X2450D01*
Y8125D01*
X2875D01*
Y8408D01*
X2667D01*
Y8483D01*
X2592D01*
Y8711D01*
X2590D01*
X2578Y8758D01*
X2651Y8788D01*
X2714Y8836D01*
X2762Y8899D01*
X2792Y8972D01*
X2793Y8975D01*
X2500D01*
Y9125D01*
X2793D01*
X2792Y9128D01*
X2762Y9201D01*
X2714Y9264D01*
X2651Y9312D01*
X2578Y9342D01*
X2520Y9350D01*
X2523Y9400D01*
X4777D01*
X4780Y9350D01*
D02*
G37*
G36*
X6100Y11827D02*
X5980D01*
Y11550D01*
Y11273D01*
X6100D01*
Y8250D01*
Y6950D01*
X2850D01*
Y7241D01*
X2934Y7325D01*
X2980Y7306D01*
Y7202D01*
X3182D01*
Y7361D01*
X3257D01*
Y7436D01*
X3534D01*
Y7520D01*
X3572Y7550D01*
X3750D01*
X3750Y8650D01*
X5300D01*
Y10600D01*
X4100D01*
Y12250D01*
X6100D01*
Y11827D01*
D02*
G37*
G36*
X-4276Y9491D02*
X-4259Y9474D01*
X-4250Y9452D01*
Y9414D01*
X-4250Y8583D01*
Y8583D01*
Y7321D01*
X-4250Y6600D01*
Y6500D01*
X450D01*
Y6600D01*
X450Y8533D01*
Y9202D01*
X459Y9224D01*
X476Y9241D01*
X498Y9250D01*
X720D01*
X725Y9245D01*
X738Y9240D01*
X751Y9240D01*
X763Y9235D01*
X1300D01*
X1300Y8550D01*
X1355D01*
X1366Y8504D01*
X1366Y8500D01*
Y8420D01*
X1920D01*
Y8500D01*
X1931Y8550D01*
X2000D01*
Y8135D01*
X1965Y8100D01*
X1300Y8100D01*
X1300Y6500D01*
X8702Y6500D01*
X8724Y6491D01*
X8741Y6474D01*
X8750Y6452D01*
X8750Y5266D01*
X8750Y3000D01*
X9173D01*
X9182Y2986D01*
X9178Y2971D01*
X9161Y2938D01*
X9099Y2912D01*
X9036Y2864D01*
X8988Y2801D01*
X8958Y2728D01*
X8957Y2725D01*
X9543D01*
X9542Y2728D01*
X9512Y2801D01*
X9464Y2864D01*
X9401Y2912D01*
X9339Y2938D01*
X9322Y2971D01*
X9318Y2986D01*
X9327Y3000D01*
X9923D01*
X9932Y2986D01*
X9928Y2972D01*
X9911Y2938D01*
X9849Y2912D01*
X9786Y2864D01*
X9738Y2801D01*
X9708Y2728D01*
X9707Y2725D01*
X10293D01*
X10292Y2728D01*
X10262Y2801D01*
X10214Y2864D01*
X10151Y2912D01*
X10089Y2938D01*
X10072Y2972D01*
X10068Y2986D01*
X10077Y3000D01*
X10344D01*
X10673Y3000D01*
X10682Y2986D01*
X10678Y2972D01*
X10661Y2938D01*
X10599Y2912D01*
X10536Y2864D01*
X10488Y2801D01*
X10458Y2728D01*
X10457Y2725D01*
X11043D01*
X11042Y2728D01*
X11012Y2801D01*
X10964Y2864D01*
X10901Y2912D01*
X10839Y2938D01*
X10822Y2971D01*
X10818Y2986D01*
X10827Y3000D01*
X11423D01*
X11432Y2986D01*
X11428Y2972D01*
X11411Y2938D01*
X11349Y2912D01*
X11286Y2864D01*
X11238Y2801D01*
X11208Y2728D01*
X11207Y2725D01*
X11793D01*
X11792Y2728D01*
X11762Y2801D01*
X11714Y2864D01*
X11651Y2912D01*
X11589Y2938D01*
X11572Y2971D01*
X11568Y2986D01*
X11577Y3000D01*
X12202D01*
X12224Y2991D01*
X12241Y2974D01*
X12250Y2952D01*
X12250Y1063D01*
X12246Y1054D01*
X12237Y1050D01*
X10227D01*
X10199Y1078D01*
X10207Y1131D01*
X10214Y1136D01*
X10262Y1199D01*
X10292Y1272D01*
X10293Y1275D01*
X9707D01*
X9708Y1272D01*
X9738Y1199D01*
X9786Y1136D01*
X9793Y1131D01*
X9801Y1078D01*
X9773Y1050D01*
X9477D01*
X9449Y1078D01*
X9457Y1131D01*
X9464Y1136D01*
X9512Y1199D01*
X9542Y1272D01*
X9543Y1275D01*
X8957D01*
X8958Y1272D01*
X8988Y1199D01*
X9036Y1136D01*
X9043Y1131D01*
X9051Y1078D01*
X9023Y1050D01*
X7850D01*
X7750D01*
Y950D01*
X7750Y-5087D01*
X7750Y-7202D01*
X7741Y-7224D01*
X7724Y-7241D01*
X7702Y-7250D01*
X5926Y-7250D01*
X850Y-7250D01*
X750D01*
Y-7350D01*
X750Y-10577D01*
X750Y-11702D01*
X741Y-11724D01*
X724Y-11741D01*
X702Y-11750D01*
X-737Y-11750D01*
X-746Y-11746D01*
X-750Y-11737D01*
X-750Y-8870D01*
Y-6263D01*
X-746Y-6254D01*
X-737Y-6250D01*
X6750D01*
Y-6150D01*
X6750Y1034D01*
X6750Y5750D01*
X-696Y5750D01*
X-4702D01*
X-4724Y5759D01*
X-4741Y5776D01*
X-4750Y5798D01*
X-4750Y7518D01*
Y7745D01*
X-4750Y8374D01*
Y8374D01*
Y8718D01*
Y8750D01*
X-4755D01*
Y8947D01*
X-5150D01*
Y9022D01*
X-5225D01*
Y9319D01*
X-5545D01*
Y9105D01*
X-5587Y9072D01*
X-5604Y9085D01*
X-5604Y9085D01*
Y9085D01*
X-5653Y9157D01*
X-5725Y9205D01*
X-5810Y9222D01*
X-5902D01*
Y9000D01*
X-5977D01*
Y8925D01*
X-6352D01*
X-6350Y8915D01*
X-6302Y8843D01*
X-6259Y8814D01*
X-6259Y8757D01*
X-6270Y8750D01*
X-6537D01*
X-6546Y8754D01*
X-6550Y8763D01*
Y9487D01*
X-6546Y9496D01*
X-6537Y9500D01*
X-4298Y9500D01*
X-4276Y9491D01*
D02*
G37*
G36*
X731Y14872D02*
X1459Y14818D01*
X2185Y14728D01*
X2905Y14603D01*
X3618Y14443D01*
X4322Y14248D01*
X5016Y14019D01*
X5698Y13756D01*
X6366Y13460D01*
X7019Y13131D01*
X7655Y12771D01*
X8272Y12380D01*
X8510Y12213D01*
X8495Y12165D01*
X6666Y12165D01*
X6659Y12168D01*
X6621Y12200D01*
X6620Y12219D01*
X6578Y12392D01*
X6510Y12557D01*
X6416Y12710D01*
X6300Y12846D01*
X6300Y12845D01*
X5590Y13554D01*
X5591Y13555D01*
X5455Y13671D01*
X5303Y13764D01*
X5138Y13833D01*
X4964Y13874D01*
X4786Y13888D01*
Y13888D01*
X-3350D01*
X-3378Y13882D01*
X-3379Y13883D01*
X-3532Y13853D01*
X-4187Y13684D01*
X-4832Y13478D01*
X-5463Y13237D01*
X-6080Y12961D01*
X-6681Y12651D01*
X-7264Y12307D01*
X-7826Y11932D01*
X-8366Y11525D01*
X-8883Y11089D01*
X-9374Y10624D01*
X-9839Y10133D01*
X-10275Y9616D01*
X-10682Y9076D01*
X-11057Y8514D01*
X-11401Y7931D01*
X-11711Y7330D01*
X-11987Y6713D01*
X-12228Y6082D01*
X-12434Y5437D01*
X-12603Y4782D01*
X-12735Y4119D01*
X-12829Y3450D01*
X-12886Y2776D01*
X-12894Y2507D01*
X-12895Y2497D01*
X-12895Y2497D01*
X-12898Y2447D01*
X-12898Y2447D01*
X-12898Y2402D01*
Y-658D01*
X-12918Y-688D01*
X-12930Y-750D01*
X-12918Y-812D01*
X-12913Y-819D01*
Y-1187D01*
X-12905D01*
Y-1405D01*
X-13004D01*
Y-1683D01*
X-12530D01*
Y-1405D01*
X-12629D01*
Y-1187D01*
X-12596D01*
Y-939D01*
X-12266D01*
X-12229Y-972D01*
X-12229Y-989D01*
Y-1328D01*
X-11597D01*
Y-1288D01*
X-10899D01*
X-10893Y-1296D01*
X-10920Y-1346D01*
X-11403D01*
Y-1702D01*
X-11224D01*
Y-2180D01*
X-11233Y-2188D01*
X-11597D01*
Y-2148D01*
X-12229D01*
Y-2188D01*
X-12440D01*
X-12530Y-2098D01*
Y-1917D01*
X-13004D01*
Y-2195D01*
X-12823D01*
X-12594Y-2423D01*
X-12550Y-2453D01*
X-12497Y-2464D01*
X-12229D01*
Y-2504D01*
X-11597D01*
Y-2464D01*
X-11176D01*
X-11123Y-2453D01*
X-11079Y-2423D01*
X-10989Y-2334D01*
X-10959Y-2289D01*
X-10949Y-2237D01*
Y-1702D01*
X-10771D01*
Y-1444D01*
X-10725Y-1425D01*
X-10587Y-1562D01*
Y-1763D01*
X-10113D01*
Y-1446D01*
X-10314D01*
X-10707Y-1053D01*
X-10752Y-1023D01*
X-10805Y-1012D01*
X-11562D01*
X-11569Y-1005D01*
X-11571Y-968D01*
X-11546Y-939D01*
X-11403D01*
Y-954D01*
X-10771D01*
Y-598D01*
X-11403D01*
Y-613D01*
X-12623D01*
Y2441D01*
X-12620Y2443D01*
X-12619Y2488D01*
X-12619Y2493D01*
X-12611Y2761D01*
X-12556Y3419D01*
X-12463Y4073D01*
X-12335Y4721D01*
X-12169Y5361D01*
X-11969Y5991D01*
X-11733Y6608D01*
X-11463Y7211D01*
X-11160Y7798D01*
X-10824Y8367D01*
X-10457Y8917D01*
X-10060Y9445D01*
X-9634Y9949D01*
X-9180Y10430D01*
X-8699Y10884D01*
X-8195Y11310D01*
X-7667Y11707D01*
X-7117Y12074D01*
X-6548Y12410D01*
X-5961Y12713D01*
X-5358Y12983D01*
X-4741Y13219D01*
X-4111Y13419D01*
X-3471Y13585D01*
X-3331Y13612D01*
X4786D01*
X4792Y13614D01*
X4954Y13598D01*
X5117Y13548D01*
X5266Y13469D01*
X5359Y13392D01*
X5396Y13360D01*
X5396Y13360D01*
X5396Y13360D01*
X5431Y13324D01*
X6105Y12650D01*
X6110Y12647D01*
X6214Y12521D01*
X6294Y12371D01*
X6341Y12215D01*
X6329Y12186D01*
X6310Y12165D01*
X6235D01*
X6215Y12156D01*
X6165Y12187D01*
Y12250D01*
X6146Y12296D01*
X6100Y12315D01*
X5200D01*
Y13400D01*
X1200D01*
Y12350D01*
X1165Y12315D01*
X785D01*
X739Y12296D01*
X704Y12261D01*
X685Y12215D01*
Y9315D01*
X498D01*
X486Y9310D01*
X473D01*
X451Y9301D01*
X442Y9292D01*
X430Y9287D01*
X413Y9270D01*
X408Y9258D01*
X399Y9249D01*
X390Y9227D01*
Y9214D01*
X385Y9202D01*
Y8533D01*
X385Y6615D01*
X350Y6565D01*
X-4150D01*
X-4185Y6615D01*
X-4185Y7321D01*
Y8017D01*
X-4137Y8024D01*
X-4058Y7877D01*
X-3952Y7748D01*
X-3823Y7642D01*
X-3676Y7563D01*
X-3516Y7515D01*
X-3350Y7498D01*
X-3184Y7515D01*
X-3024Y7563D01*
X-2877Y7642D01*
X-2748Y7748D01*
X-2642Y7877D01*
X-2563Y8024D01*
X-2515Y8184D01*
X-2499Y8350D01*
X-2515Y8516D01*
X-2563Y8676D01*
X-2642Y8823D01*
X-2748Y8952D01*
X-2877Y9058D01*
X-3024Y9137D01*
X-3184Y9185D01*
X-3350Y9201D01*
X-3516Y9185D01*
X-3676Y9137D01*
X-3823Y9058D01*
X-3952Y8952D01*
X-4058Y8823D01*
X-4137Y8676D01*
X-4185Y8689D01*
X-4185Y9452D01*
X-4190Y9464D01*
Y9477D01*
X-4199Y9499D01*
X-4208Y9508D01*
X-4213Y9520D01*
X-4230Y9537D01*
X-4242Y9542D01*
X-4251Y9551D01*
X-4273Y9560D01*
X-4286D01*
X-4298Y9565D01*
X-6537Y9565D01*
X-6549Y9560D01*
X-6562Y9560D01*
X-6571Y9556D01*
X-6580Y9547D01*
X-6583Y9546D01*
X-6584Y9543D01*
X-6593Y9534D01*
X-6596Y9533D01*
X-6597Y9530D01*
X-6606Y9521D01*
X-6610Y9512D01*
X-6610Y9499D01*
X-6615Y9487D01*
Y8763D01*
X-6610Y8751D01*
X-6610Y8738D01*
X-6606Y8729D01*
X-6597Y8720D01*
X-6596Y8717D01*
X-6593Y8716D01*
X-6584Y8707D01*
X-6583Y8704D01*
X-6580Y8703D01*
X-6571Y8694D01*
X-6562Y8690D01*
X-6549Y8690D01*
X-6537Y8685D01*
X-6343D01*
X-6317Y8635D01*
X-6350Y8585D01*
X-6352Y8575D01*
X-6052D01*
Y8722D01*
X-6144D01*
X-6153Y8721D01*
X-6176Y8735D01*
X-6194Y8763D01*
X-6194Y8777D01*
X-6146Y8819D01*
X-6144Y8818D01*
X-5810D01*
X-5740Y8832D01*
X-5681Y8872D01*
X-5642Y8931D01*
X-5634Y8970D01*
X-5632Y8975D01*
X-5598Y9005D01*
X-5594Y9006D01*
X-5579Y9009D01*
X-5576Y9008D01*
X-5562Y9017D01*
X-5555Y9019D01*
X-5523Y9003D01*
X-5505Y8990D01*
Y8766D01*
X-4820D01*
Y8750D01*
X-4815Y8739D01*
Y8374D01*
X-5075D01*
Y8078D01*
Y7781D01*
X-4850D01*
X-4815Y7745D01*
Y7518D01*
X-4815Y5798D01*
X-4810Y5786D01*
Y5773D01*
X-4801Y5751D01*
X-4792Y5742D01*
X-4787Y5730D01*
X-4770Y5713D01*
X-4758Y5708D01*
X-4749Y5699D01*
X-4727Y5690D01*
X-4714D01*
X-4702Y5685D01*
X-696D01*
X6685Y5685D01*
X6685Y1034D01*
X6685Y-6135D01*
X6650Y-6185D01*
X-737D01*
X-749Y-6190D01*
X-762Y-6190D01*
X-771Y-6194D01*
X-780Y-6203D01*
X-783Y-6204D01*
X-784Y-6207D01*
X-793Y-6216D01*
X-796Y-6217D01*
X-797Y-6220D01*
X-806Y-6229D01*
X-810Y-6238D01*
X-810Y-6251D01*
X-815Y-6263D01*
Y-8870D01*
X-815Y-11737D01*
X-810Y-11749D01*
X-810Y-11762D01*
X-806Y-11771D01*
X-797Y-11780D01*
X-796Y-11783D01*
X-793Y-11784D01*
X-784Y-11793D01*
X-783Y-11796D01*
X-780Y-11797D01*
X-771Y-11806D01*
X-762Y-11810D01*
X-749Y-11810D01*
X-737Y-11815D01*
X702Y-11815D01*
X714Y-11810D01*
X727D01*
X749Y-11801D01*
X758Y-11792D01*
X770Y-11787D01*
X787Y-11770D01*
X792Y-11758D01*
X801Y-11749D01*
X810Y-11727D01*
Y-11714D01*
X815Y-11702D01*
X815Y-10577D01*
X815Y-7365D01*
X836Y-7336D01*
X865Y-7315D01*
X5926Y-7315D01*
X7702Y-7315D01*
X7714Y-7310D01*
X7727D01*
X7749Y-7301D01*
X7758Y-7292D01*
X7770Y-7287D01*
X7787Y-7270D01*
X7792Y-7258D01*
X7801Y-7249D01*
X7810Y-7227D01*
Y-7214D01*
X7815Y-7202D01*
X7815Y-5087D01*
X7815Y935D01*
X7850Y985D01*
X9023D01*
X9046Y994D01*
X9068Y1004D01*
X9097Y1031D01*
X9099Y1036D01*
X9104Y1039D01*
X9108Y1058D01*
X9116Y1076D01*
X9116Y1077D01*
X9134Y1092D01*
X9142Y1097D01*
X9163Y1104D01*
X9182Y1097D01*
X9250Y1088D01*
X9318Y1097D01*
X9337Y1104D01*
X9358Y1097D01*
X9366Y1092D01*
X9384Y1077D01*
X9384Y1076D01*
X9392Y1058D01*
X9396Y1039D01*
X9401Y1036D01*
X9403Y1031D01*
X9432Y1004D01*
X9454Y994D01*
X9477Y985D01*
X9773D01*
X9796Y994D01*
X9818Y1004D01*
X9847Y1031D01*
X9849Y1036D01*
X9854Y1039D01*
X9858Y1058D01*
X9866Y1076D01*
X9866Y1077D01*
X9884Y1092D01*
X9892Y1097D01*
X9913Y1104D01*
X9932Y1097D01*
X10000Y1088D01*
X10068Y1097D01*
X10087Y1104D01*
X10108Y1097D01*
X10116Y1092D01*
X10134Y1077D01*
X10134Y1076D01*
X10142Y1058D01*
X10146Y1039D01*
X10151Y1036D01*
X10153Y1031D01*
X10182Y1004D01*
X10204Y994D01*
X10227Y985D01*
X12237D01*
X12249Y990D01*
X12262Y990D01*
X12271Y994D01*
X12280Y1003D01*
X12283Y1004D01*
X12284Y1007D01*
X12293Y1016D01*
X12296Y1017D01*
X12297Y1020D01*
X12306Y1029D01*
X12310Y1038D01*
X12310Y1051D01*
X12315Y1063D01*
X12315Y2952D01*
X12310Y2964D01*
Y2977D01*
X12301Y2999D01*
X12292Y3008D01*
X12287Y3020D01*
X12270Y3037D01*
X12258Y3042D01*
X12249Y3051D01*
X12227Y3060D01*
X12214D01*
X12202Y3065D01*
X11577D01*
X11570Y3062D01*
X11563Y3063D01*
X11548Y3053D01*
X11531Y3046D01*
X11530Y3043D01*
X11511Y3038D01*
X11500Y3037D01*
X11489Y3038D01*
X11470Y3043D01*
X11469Y3046D01*
X11452Y3053D01*
X11438Y3063D01*
X11430Y3062D01*
X11423Y3065D01*
X10827D01*
X10820Y3062D01*
X10813Y3063D01*
X10798Y3053D01*
X10781Y3046D01*
X10780Y3043D01*
X10761Y3038D01*
X10750Y3037D01*
X10739Y3037D01*
X10720Y3043D01*
X10719Y3046D01*
X10702Y3053D01*
X10688Y3063D01*
X10680Y3062D01*
X10673Y3065D01*
X10344Y3065D01*
X10077D01*
X10070Y3062D01*
X10062Y3063D01*
X10048Y3053D01*
X10031Y3046D01*
X10030Y3043D01*
X10011Y3037D01*
X10000Y3037D01*
X9989Y3037D01*
X9970Y3043D01*
X9969Y3046D01*
X9952Y3053D01*
X9938Y3063D01*
X9930Y3062D01*
X9923Y3065D01*
X9327D01*
X9320Y3062D01*
X9312Y3063D01*
X9298Y3053D01*
X9281Y3046D01*
X9280Y3043D01*
X9261Y3037D01*
X9250Y3037D01*
X9239Y3037D01*
X9220Y3043D01*
X9219Y3046D01*
X9202Y3053D01*
X9188Y3063D01*
X9180Y3062D01*
X9173Y3065D01*
X8815D01*
X8815Y5266D01*
X8815Y6452D01*
X8810Y6464D01*
Y6477D01*
X8801Y6499D01*
X8792Y6508D01*
X8787Y6520D01*
X8770Y6537D01*
X8758Y6542D01*
X8749Y6551D01*
X8727Y6560D01*
X8714D01*
X8702Y6565D01*
X1906Y6565D01*
X1896Y6615D01*
X1951Y6638D01*
X2014Y6686D01*
X2062Y6749D01*
X2092Y6822D01*
X2093Y6825D01*
X1800D01*
Y6975D01*
X2093D01*
X2092Y6978D01*
X2062Y7051D01*
X2014Y7114D01*
X1951Y7162D01*
X1948Y7163D01*
X1920Y7202D01*
Y7251D01*
X1970Y7271D01*
X2021Y7221D01*
X2021Y7221D01*
X2057Y7196D01*
X2100Y7188D01*
X2750D01*
X2750Y7188D01*
X2785Y7159D01*
Y6950D01*
X2804Y6904D01*
X2850Y6885D01*
X6100D01*
X6146Y6904D01*
X6165Y6950D01*
Y8250D01*
Y10913D01*
X6215Y10944D01*
X6235Y10935D01*
X6973Y10935D01*
X7019Y10954D01*
X7032Y10987D01*
X7468D01*
X7481Y10954D01*
X7527Y10935D01*
X7673D01*
X7719Y10954D01*
X7732Y10987D01*
X8187D01*
X8187Y10987D01*
Y10987D01*
X8224Y10959D01*
X8236Y10950D01*
X8257Y10943D01*
X8277Y10935D01*
X8373D01*
X8419Y10954D01*
X8432Y10987D01*
X8884D01*
X8917Y10954D01*
X8963Y10935D01*
X8975D01*
X10151Y9843D01*
X11794Y7617D01*
X12437Y6221D01*
X12435Y5800D01*
X12435Y5800D01*
X12435Y5800D01*
X12435Y5250D01*
X12435Y4350D01*
X12435Y3750D01*
X12435Y115D01*
X10184Y115D01*
X10170Y109D01*
X10155Y108D01*
X10148Y100D01*
X10138Y96D01*
X10132Y82D01*
X10122Y71D01*
X10112Y39D01*
X10079Y12D01*
X10056Y5D01*
X10000Y12D01*
X9944Y5D01*
X9921Y12D01*
X9888Y39D01*
X9878Y71D01*
X9868Y82D01*
X9862Y96D01*
X9852Y100D01*
X9845Y108D01*
X9830Y109D01*
X9816Y115D01*
X9434D01*
X9420Y109D01*
X9405Y108D01*
X9398Y100D01*
X9388Y96D01*
X9382Y82D01*
X9372Y71D01*
X9362Y39D01*
X9329Y12D01*
X9306Y5D01*
X9250Y12D01*
X9194Y5D01*
X9171Y12D01*
X9138Y39D01*
X9128Y71D01*
X9118Y82D01*
X9112Y96D01*
X9102Y100D01*
X9095Y108D01*
X9080Y109D01*
X9066Y115D01*
X8813D01*
X8767Y96D01*
X8748Y50D01*
X8748Y-2150D01*
X8767Y-2196D01*
X8813Y-2215D01*
X14465Y-2215D01*
X14511Y-2196D01*
X14546Y-2161D01*
X14565Y-2115D01*
X14565Y2500D01*
X14565Y2834D01*
X14615Y2838D01*
X14728Y2185D01*
X14818Y1459D01*
X14872Y731D01*
X14889Y0D01*
X14872Y-731D01*
X14818Y-1459D01*
X14728Y-2185D01*
X14603Y-2905D01*
X14443Y-3618D01*
X14248Y-4322D01*
X14019Y-5016D01*
X13756Y-5698D01*
X13460Y-6366D01*
X13131Y-7019D01*
X12771Y-7655D01*
X12380Y-8272D01*
X11959Y-8870D01*
X11510Y-9446D01*
X11032Y-9999D01*
X10528Y-10528D01*
X9999Y-11032D01*
X9446Y-11510D01*
X8870Y-11959D01*
X8272Y-12380D01*
X7655Y-12771D01*
X7019Y-13131D01*
X6366Y-13460D01*
X5698Y-13756D01*
X5016Y-14019D01*
X4322Y-14248D01*
X3618Y-14443D01*
X2905Y-14603D01*
X2185Y-14728D01*
X1459Y-14818D01*
X731Y-14872D01*
X0Y-14889D01*
X-731Y-14872D01*
X-1459Y-14818D01*
X-2185Y-14728D01*
X-2905Y-14603D01*
X-3618Y-14443D01*
X-4322Y-14248D01*
X-5016Y-14019D01*
X-5698Y-13756D01*
X-6366Y-13460D01*
X-7019Y-13131D01*
X-7655Y-12771D01*
X-8272Y-12380D01*
X-8870Y-11959D01*
X-9446Y-11510D01*
X-9999Y-11032D01*
X-10528Y-10528D01*
X-11032Y-9999D01*
X-11510Y-9446D01*
X-11959Y-8870D01*
X-12380Y-8272D01*
X-12771Y-7655D01*
X-13131Y-7019D01*
X-13460Y-6366D01*
X-13756Y-5698D01*
X-14019Y-5016D01*
X-14248Y-4322D01*
X-14443Y-3618D01*
X-14603Y-2905D01*
X-14728Y-2185D01*
X-14818Y-1459D01*
X-14872Y-731D01*
X-14889Y0D01*
X-14872Y731D01*
X-14818Y1459D01*
X-14728Y2185D01*
X-14603Y2905D01*
X-14443Y3618D01*
X-14248Y4322D01*
X-14019Y5016D01*
X-13756Y5698D01*
X-13460Y6366D01*
X-13131Y7019D01*
X-12771Y7655D01*
X-12380Y8272D01*
X-11959Y8870D01*
X-11510Y9446D01*
X-11032Y9999D01*
X-10528Y10528D01*
X-9999Y11032D01*
X-9446Y11510D01*
X-8870Y11959D01*
X-8272Y12380D01*
X-7655Y12771D01*
X-7019Y13131D01*
X-6366Y13460D01*
X-5698Y13756D01*
X-5016Y14019D01*
X-4322Y14248D01*
X-3618Y14443D01*
X-2905Y14603D01*
X-2185Y14728D01*
X-1459Y14818D01*
X-731Y14872D01*
X0Y14889D01*
X731Y14872D01*
D02*
G37*
G36*
X8870Y11959D02*
X9446Y11510D01*
X9999Y11032D01*
X10528Y10528D01*
X11032Y9999D01*
X11510Y9446D01*
X11959Y8870D01*
X12380Y8272D01*
X12771Y7655D01*
X13131Y7019D01*
X13460Y6366D01*
X13756Y5698D01*
X14019Y5016D01*
X14248Y4322D01*
X14443Y3618D01*
X14500Y3365D01*
X14500Y2500D01*
X14500Y-2115D01*
X14465Y-2150D01*
X8813Y-2150D01*
X8813Y50D01*
X9066D01*
X9083Y-0D01*
X9036Y-36D01*
X8988Y-99D01*
X8958Y-172D01*
X8957Y-175D01*
X9543D01*
X9542Y-172D01*
X9512Y-99D01*
X9464Y-36D01*
X9417Y-0D01*
X9434Y50D01*
X9816D01*
X9833Y-0D01*
X9786Y-36D01*
X9738Y-99D01*
X9708Y-172D01*
X9707Y-175D01*
X10293D01*
X10292Y-172D01*
X10262Y-99D01*
X10214Y-36D01*
X10167Y-0D01*
X10184Y50D01*
X12500Y50D01*
X12500Y3750D01*
X12500Y4350D01*
X12500Y5250D01*
X12500Y5800D01*
X12502Y6235D01*
X11851Y7650D01*
X10200Y9887D01*
X9000Y11000D01*
X8963D01*
X8927Y11035D01*
Y11070D01*
X8373D01*
Y11000D01*
X8277D01*
X8227Y11041D01*
Y11070D01*
X7673D01*
Y11000D01*
X7527D01*
Y11070D01*
X6973D01*
Y11000D01*
X6235Y11000D01*
X6200Y11035D01*
X6200Y12065D01*
X6235Y12100D01*
X6354D01*
X6359Y12047D01*
X6358Y12041D01*
Y11827D01*
X6297D01*
Y11625D01*
X6694D01*
Y11827D01*
X6633D01*
Y12041D01*
X6634D01*
X6632Y12063D01*
X6666Y12100D01*
X8670Y12100D01*
X8870Y11959D01*
D02*
G37*
%LPC*%
G36*
X12425Y-2457D02*
X12422Y-2458D01*
X12349Y-2488D01*
X12286Y-2536D01*
X12238Y-2599D01*
X12208Y-2672D01*
X12207Y-2675D01*
X12425D01*
Y-2457D01*
D02*
G37*
G36*
X13325D02*
Y-2675D01*
X13543D01*
X13542Y-2672D01*
X13512Y-2599D01*
X13464Y-2536D01*
X13401Y-2488D01*
X13328Y-2458D01*
X13325Y-2457D01*
D02*
G37*
G36*
X13175D02*
X13172Y-2458D01*
X13099Y-2488D01*
X13036Y-2536D01*
X12988Y-2599D01*
X12958Y-2672D01*
X12957Y-2675D01*
X13175D01*
Y-2457D01*
D02*
G37*
G36*
X12575D02*
Y-2675D01*
X12793D01*
X12792Y-2672D01*
X12762Y-2599D01*
X12714Y-2536D01*
X12651Y-2488D01*
X12578Y-2458D01*
X12575Y-2457D01*
D02*
G37*
G36*
X10175D02*
X10172Y-2458D01*
X10099Y-2488D01*
X10036Y-2536D01*
X9988Y-2599D01*
X9958Y-2672D01*
X9957Y-2675D01*
X10175D01*
Y-2457D01*
D02*
G37*
G36*
X10325D02*
Y-2675D01*
X10543D01*
X10542Y-2672D01*
X10512Y-2599D01*
X10464Y-2536D01*
X10401Y-2488D01*
X10328Y-2458D01*
X10325Y-2457D01*
D02*
G37*
G36*
X9425D02*
X9422Y-2458D01*
X9349Y-2488D01*
X9286Y-2536D01*
X9238Y-2599D01*
X9208Y-2672D01*
X9207Y-2675D01*
X9425D01*
Y-2457D01*
D02*
G37*
G36*
X9575D02*
Y-2675D01*
X9793D01*
X9792Y-2672D01*
X9762Y-2599D01*
X9714Y-2536D01*
X9651Y-2488D01*
X9578Y-2458D01*
X9575Y-2457D01*
D02*
G37*
G36*
X11675D02*
X11672Y-2458D01*
X11599Y-2488D01*
X11536Y-2536D01*
X11488Y-2599D01*
X11458Y-2672D01*
X11457Y-2675D01*
X11675D01*
Y-2457D01*
D02*
G37*
G36*
X11825D02*
Y-2675D01*
X12043D01*
X12042Y-2672D01*
X12012Y-2599D01*
X11964Y-2536D01*
X11901Y-2488D01*
X11828Y-2458D01*
X11825Y-2457D01*
D02*
G37*
G36*
X10925D02*
X10922Y-2458D01*
X10849Y-2488D01*
X10786Y-2536D01*
X10738Y-2599D01*
X10708Y-2672D01*
X10707Y-2675D01*
X10925D01*
Y-2457D01*
D02*
G37*
G36*
X11075D02*
Y-2675D01*
X11293D01*
X11292Y-2672D01*
X11262Y-2599D01*
X11214Y-2536D01*
X11151Y-2488D01*
X11078Y-2458D01*
X11075Y-2457D01*
D02*
G37*
G36*
X13925D02*
X13922Y-2458D01*
X13849Y-2488D01*
X13786Y-2536D01*
X13738Y-2599D01*
X13708Y-2672D01*
X13707Y-2675D01*
X13925D01*
Y-2457D01*
D02*
G37*
G36*
X-5075Y-1707D02*
X-5078Y-1708D01*
X-5151Y-1738D01*
X-5214Y-1786D01*
X-5262Y-1849D01*
X-5292Y-1922D01*
X-5293Y-1925D01*
X-5075D01*
Y-1707D01*
D02*
G37*
G36*
X10293Y-1825D02*
X10075D01*
Y-2043D01*
X10078Y-2042D01*
X10151Y-2012D01*
X10214Y-1964D01*
X10262Y-1901D01*
X10292Y-1828D01*
X10293Y-1825D01*
D02*
G37*
G36*
X9925D02*
X9707D01*
X9708Y-1828D01*
X9738Y-1901D01*
X9786Y-1964D01*
X9849Y-2012D01*
X9922Y-2042D01*
X9925Y-2043D01*
Y-1825D01*
D02*
G37*
G36*
X-4925Y-1707D02*
Y-1925D01*
X-4707D01*
X-4708Y-1922D01*
X-4738Y-1849D01*
X-4786Y-1786D01*
X-4849Y-1738D01*
X-4922Y-1708D01*
X-4925Y-1707D01*
D02*
G37*
G36*
X9175Y-1457D02*
X9172Y-1458D01*
X9099Y-1488D01*
X9036Y-1536D01*
X8988Y-1599D01*
X8958Y-1672D01*
X8957Y-1675D01*
X9175D01*
Y-1457D01*
D02*
G37*
G36*
X5075Y-1707D02*
Y-1925D01*
X5293D01*
X5292Y-1922D01*
X5262Y-1849D01*
X5214Y-1786D01*
X5151Y-1738D01*
X5078Y-1708D01*
X5075Y-1707D01*
D02*
G37*
G36*
X4925D02*
X4922Y-1708D01*
X4849Y-1738D01*
X4786Y-1786D01*
X4738Y-1849D01*
X4708Y-1922D01*
X4707Y-1925D01*
X4925D01*
Y-1707D01*
D02*
G37*
G36*
X9543Y-1825D02*
X9325D01*
Y-2043D01*
X9328Y-2042D01*
X9401Y-2012D01*
X9464Y-1964D01*
X9512Y-1901D01*
X9542Y-1828D01*
X9543Y-1825D01*
D02*
G37*
G36*
X-4707Y-2075D02*
X-4925D01*
Y-2293D01*
X-4922Y-2292D01*
X-4849Y-2262D01*
X-4786Y-2214D01*
X-4738Y-2151D01*
X-4708Y-2078D01*
X-4707Y-2075D01*
D02*
G37*
G36*
X-5075D02*
X-5293D01*
X-5292Y-2078D01*
X-5262Y-2151D01*
X-5214Y-2214D01*
X-5151Y-2262D01*
X-5078Y-2292D01*
X-5075Y-2293D01*
Y-2075D01*
D02*
G37*
G36*
X14075Y-2457D02*
Y-2675D01*
X14293D01*
X14292Y-2672D01*
X14262Y-2599D01*
X14214Y-2536D01*
X14151Y-2488D01*
X14078Y-2458D01*
X14075Y-2457D01*
D02*
G37*
G36*
X4925Y-2075D02*
X4707D01*
X4708Y-2078D01*
X4738Y-2151D01*
X4786Y-2214D01*
X4849Y-2262D01*
X4922Y-2292D01*
X4925Y-2293D01*
Y-2075D01*
D02*
G37*
G36*
X9175Y-1825D02*
X8957D01*
X8958Y-1828D01*
X8988Y-1901D01*
X9036Y-1964D01*
X9099Y-2012D01*
X9172Y-2042D01*
X9175Y-2043D01*
Y-1825D01*
D02*
G37*
G36*
X-13708Y-2131D02*
X-13910D01*
Y-2235D01*
X-13708D01*
Y-2131D01*
D02*
G37*
G36*
X5293Y-2075D02*
X5075D01*
Y-2293D01*
X5078Y-2292D01*
X5151Y-2262D01*
X5214Y-2214D01*
X5262Y-2151D01*
X5292Y-2078D01*
X5293Y-2075D01*
D02*
G37*
G36*
X10925Y-2825D02*
X10707D01*
X10708Y-2828D01*
X10738Y-2901D01*
X10786Y-2964D01*
X10849Y-3012D01*
X10922Y-3042D01*
X10925Y-3043D01*
Y-2825D01*
D02*
G37*
G36*
X10543D02*
X10325D01*
Y-3043D01*
X10328Y-3042D01*
X10401Y-3012D01*
X10464Y-2964D01*
X10512Y-2901D01*
X10542Y-2828D01*
X10543Y-2825D01*
D02*
G37*
G36*
X10175D02*
X9957D01*
X9958Y-2828D01*
X9988Y-2901D01*
X10036Y-2964D01*
X10099Y-3012D01*
X10172Y-3042D01*
X10175Y-3043D01*
Y-2825D01*
D02*
G37*
G36*
X11293D02*
X11075D01*
Y-3043D01*
X11078Y-3042D01*
X11151Y-3012D01*
X11214Y-2964D01*
X11262Y-2901D01*
X11292Y-2828D01*
X11293Y-2825D01*
D02*
G37*
G36*
X12425D02*
X12207D01*
X12208Y-2828D01*
X12238Y-2901D01*
X12286Y-2964D01*
X12349Y-3012D01*
X12422Y-3042D01*
X12425Y-3043D01*
Y-2825D01*
D02*
G37*
G36*
X12043D02*
X11825D01*
Y-3043D01*
X11828Y-3042D01*
X11901Y-3012D01*
X11964Y-2964D01*
X12012Y-2901D01*
X12042Y-2828D01*
X12043Y-2825D01*
D02*
G37*
G36*
X11675D02*
X11457D01*
X11458Y-2828D01*
X11488Y-2901D01*
X11536Y-2964D01*
X11599Y-3012D01*
X11672Y-3042D01*
X11675Y-3043D01*
Y-2825D01*
D02*
G37*
G36*
X9793D02*
X9575D01*
Y-3043D01*
X9578Y-3042D01*
X9651Y-3012D01*
X9714Y-2964D01*
X9762Y-2901D01*
X9792Y-2828D01*
X9793Y-2825D01*
D02*
G37*
G36*
X-9412Y-2901D02*
X-9693D01*
Y-3044D01*
X-9412D01*
Y-2901D01*
D02*
G37*
G36*
X-13396Y-1405D02*
X-13870D01*
Y-1877D01*
X-13910D01*
Y-1981D01*
X-13633D01*
Y-2056D01*
X-13558D01*
Y-2235D01*
X-13388D01*
Y-2778D01*
X-13435Y-2815D01*
X-13477Y-2869D01*
X-13503Y-2932D01*
X-13512Y-3000D01*
X-13503Y-3068D01*
X-13477Y-3131D01*
X-13435Y-3185D01*
X-13381Y-3227D01*
X-13318Y-3253D01*
X-13250Y-3262D01*
X-13182Y-3253D01*
X-13119Y-3227D01*
X-13065Y-3185D01*
X-13023Y-3131D01*
X-12997Y-3068D01*
X-12988Y-3000D01*
X-12997Y-2932D01*
X-13023Y-2869D01*
X-13065Y-2815D01*
X-13112Y-2778D01*
Y-1900D01*
X-13123Y-1847D01*
X-13153Y-1803D01*
X-13153Y-1803D01*
X-13253Y-1703D01*
X-13297Y-1673D01*
X-13350Y-1662D01*
X-13396D01*
Y-1405D01*
D02*
G37*
G36*
X-11557Y-3149D02*
X-11838D01*
Y-3292D01*
X-11557D01*
Y-3149D01*
D02*
G37*
G36*
X-8981Y-2901D02*
X-9262D01*
Y-3044D01*
X-8981D01*
Y-2901D01*
D02*
G37*
G36*
X9425Y-2825D02*
X9207D01*
X9208Y-2828D01*
X9238Y-2901D01*
X9286Y-2964D01*
X9349Y-3012D01*
X9422Y-3042D01*
X9425Y-3043D01*
Y-2825D01*
D02*
G37*
G36*
X-8207D02*
X-8425D01*
Y-3043D01*
X-8422Y-3042D01*
X-8349Y-3012D01*
X-8286Y-2964D01*
X-8238Y-2901D01*
X-8208Y-2828D01*
X-8207Y-2825D01*
D02*
G37*
G36*
X-8575D02*
X-8793D01*
X-8792Y-2828D01*
X-8762Y-2901D01*
X-8714Y-2964D01*
X-8651Y-3012D01*
X-8578Y-3042D01*
X-8575Y-3043D01*
Y-2825D01*
D02*
G37*
G36*
X5075Y-2707D02*
Y-2925D01*
X5293D01*
X5292Y-2922D01*
X5262Y-2849D01*
X5214Y-2786D01*
X5151Y-2738D01*
X5078Y-2708D01*
X5075Y-2707D01*
D02*
G37*
G36*
X4925D02*
X4922Y-2708D01*
X4849Y-2738D01*
X4786Y-2786D01*
X4738Y-2849D01*
X4708Y-2922D01*
X4707Y-2925D01*
X4925D01*
Y-2707D01*
D02*
G37*
G36*
X-4925D02*
Y-2925D01*
X-4707D01*
X-4708Y-2922D01*
X-4738Y-2849D01*
X-4786Y-2786D01*
X-4849Y-2738D01*
X-4922Y-2708D01*
X-4925Y-2707D01*
D02*
G37*
G36*
X-9412Y-2608D02*
X-9693D01*
Y-2751D01*
X-9412D01*
Y-2608D01*
D02*
G37*
G36*
X-8425Y-2457D02*
Y-2675D01*
X-8207D01*
X-8208Y-2672D01*
X-8238Y-2599D01*
X-8286Y-2536D01*
X-8349Y-2488D01*
X-8422Y-2458D01*
X-8425Y-2457D01*
D02*
G37*
G36*
X-8575D02*
X-8578Y-2458D01*
X-8651Y-2488D01*
X-8714Y-2536D01*
X-8762Y-2599D01*
X-8792Y-2672D01*
X-8793Y-2675D01*
X-8575D01*
Y-2457D01*
D02*
G37*
G36*
X-8981Y-2608D02*
X-9262D01*
Y-2751D01*
X-8981D01*
Y-2608D01*
D02*
G37*
G36*
X-5075Y-2707D02*
X-5078Y-2708D01*
X-5151Y-2738D01*
X-5214Y-2786D01*
X-5262Y-2849D01*
X-5292Y-2922D01*
X-5293Y-2925D01*
X-5075D01*
Y-2707D01*
D02*
G37*
G36*
X13543Y-2825D02*
X13325D01*
Y-3043D01*
X13328Y-3042D01*
X13401Y-3012D01*
X13464Y-2964D01*
X13512Y-2901D01*
X13542Y-2828D01*
X13543Y-2825D01*
D02*
G37*
G36*
X13175D02*
X12957D01*
X12958Y-2828D01*
X12988Y-2901D01*
X13036Y-2964D01*
X13099Y-3012D01*
X13172Y-3042D01*
X13175Y-3043D01*
Y-2825D01*
D02*
G37*
G36*
X12793D02*
X12575D01*
Y-3043D01*
X12578Y-3042D01*
X12651Y-3012D01*
X12714Y-2964D01*
X12762Y-2901D01*
X12792Y-2828D01*
X12793Y-2825D01*
D02*
G37*
G36*
X13925D02*
X13707D01*
X13708Y-2828D01*
X13738Y-2901D01*
X13786Y-2964D01*
X13849Y-3012D01*
X13922Y-3042D01*
X13925Y-3043D01*
Y-2825D01*
D02*
G37*
G36*
X-11557Y-2856D02*
X-11838D01*
Y-2999D01*
X-11557D01*
Y-2856D01*
D02*
G37*
G36*
X-11988D02*
X-12269D01*
Y-2999D01*
X-11988D01*
Y-2856D01*
D02*
G37*
G36*
X14293Y-2825D02*
X14075D01*
Y-3043D01*
X14078Y-3042D01*
X14151Y-3012D01*
X14214Y-2964D01*
X14262Y-2901D01*
X14292Y-2828D01*
X14293Y-2825D01*
D02*
G37*
G36*
X9325Y-1457D02*
Y-1675D01*
X9543D01*
X9542Y-1672D01*
X9512Y-1599D01*
X9464Y-1536D01*
X9401Y-1488D01*
X9328Y-1458D01*
X9325Y-1457D01*
D02*
G37*
G36*
X5075Y293D02*
Y75D01*
X5293D01*
X5292Y78D01*
X5262Y151D01*
X5214Y214D01*
X5151Y262D01*
X5078Y292D01*
X5075Y293D01*
D02*
G37*
G36*
X4925D02*
X4922Y292D01*
X4849Y262D01*
X4786Y214D01*
X4738Y151D01*
X4708Y78D01*
X4707Y75D01*
X4925D01*
Y293D01*
D02*
G37*
G36*
X-4925D02*
Y75D01*
X-4707D01*
X-4708Y78D01*
X-4738Y151D01*
X-4786Y214D01*
X-4849Y262D01*
X-4922Y292D01*
X-4925Y293D01*
D02*
G37*
G36*
X8675Y425D02*
X8457D01*
X8458Y422D01*
X8488Y349D01*
X8536Y286D01*
X8599Y238D01*
X8672Y208D01*
X8675Y207D01*
Y425D01*
D02*
G37*
G36*
X9793D02*
X9575D01*
Y207D01*
X9578Y208D01*
X9651Y238D01*
X9714Y286D01*
X9762Y349D01*
X9792Y422D01*
X9793Y425D01*
D02*
G37*
G36*
X9425D02*
X9207D01*
X9208Y422D01*
X9238Y349D01*
X9286Y286D01*
X9349Y238D01*
X9422Y208D01*
X9425Y207D01*
Y425D01*
D02*
G37*
G36*
X9043D02*
X8825D01*
Y207D01*
X8828Y208D01*
X8901Y238D01*
X8964Y286D01*
X9012Y349D01*
X9042Y422D01*
X9043Y425D01*
D02*
G37*
G36*
X-5075Y293D02*
X-5078Y292D01*
X-5151Y262D01*
X-5214Y214D01*
X-5262Y151D01*
X-5292Y78D01*
X-5293Y75D01*
X-5075D01*
Y293D01*
D02*
G37*
G36*
X-4707Y-75D02*
X-4925D01*
Y-293D01*
X-4922Y-292D01*
X-4849Y-262D01*
X-4786Y-214D01*
X-4738Y-151D01*
X-4708Y-78D01*
X-4707Y-75D01*
D02*
G37*
G36*
X-5075D02*
X-5293D01*
X-5292Y-78D01*
X-5262Y-151D01*
X-5214Y-214D01*
X-5151Y-262D01*
X-5078Y-292D01*
X-5075Y-293D01*
Y-75D01*
D02*
G37*
G36*
X-9207D02*
X-9425D01*
Y-293D01*
X-9422Y-292D01*
X-9349Y-262D01*
X-9286Y-214D01*
X-9238Y-151D01*
X-9208Y-78D01*
X-9207Y-75D01*
D02*
G37*
G36*
X4925D02*
X4707D01*
X4708Y-78D01*
X4738Y-151D01*
X4786Y-214D01*
X4849Y-262D01*
X4922Y-292D01*
X4925Y-293D01*
Y-75D01*
D02*
G37*
G36*
X-9425Y293D02*
Y75D01*
X-9207D01*
X-9208Y78D01*
X-9238Y151D01*
X-9286Y214D01*
X-9349Y262D01*
X-9422Y292D01*
X-9425Y293D01*
D02*
G37*
G36*
X-9575D02*
X-9578Y292D01*
X-9651Y262D01*
X-9714Y214D01*
X-9762Y151D01*
X-9792Y78D01*
X-9793Y75D01*
X-9575D01*
Y293D01*
D02*
G37*
G36*
X5293Y-75D02*
X5075D01*
Y-293D01*
X5078Y-292D01*
X5151Y-262D01*
X5214Y-214D01*
X5262Y-151D01*
X5292Y-78D01*
X5293Y-75D01*
D02*
G37*
G36*
X10175Y425D02*
X9957D01*
X9958Y422D01*
X9988Y349D01*
X10036Y286D01*
X10099Y238D01*
X10172Y208D01*
X10175Y207D01*
Y425D01*
D02*
G37*
G36*
X-4707Y925D02*
X-4925D01*
Y707D01*
X-4922Y708D01*
X-4849Y738D01*
X-4786Y786D01*
X-4738Y849D01*
X-4708Y922D01*
X-4707Y925D01*
D02*
G37*
G36*
X-5075D02*
X-5293D01*
X-5292Y922D01*
X-5262Y849D01*
X-5214Y786D01*
X-5151Y738D01*
X-5078Y708D01*
X-5075Y707D01*
Y925D01*
D02*
G37*
G36*
X10325Y793D02*
Y575D01*
X10543D01*
X10542Y578D01*
X10512Y651D01*
X10464Y714D01*
X10401Y762D01*
X10328Y792D01*
X10325Y793D01*
D02*
G37*
G36*
X4925Y925D02*
X4707D01*
X4708Y922D01*
X4738Y849D01*
X4786Y786D01*
X4849Y738D01*
X4922Y708D01*
X4925Y707D01*
Y925D01*
D02*
G37*
G36*
X-9425Y1043D02*
Y825D01*
X-9207D01*
X-9208Y828D01*
X-9238Y901D01*
X-9286Y964D01*
X-9349Y1012D01*
X-9422Y1042D01*
X-9425Y1043D01*
D02*
G37*
G36*
X-9575D02*
X-9578Y1042D01*
X-9651Y1012D01*
X-9714Y964D01*
X-9762Y901D01*
X-9792Y828D01*
X-9793Y825D01*
X-9575D01*
Y1043D01*
D02*
G37*
G36*
X5293Y925D02*
X5075D01*
Y707D01*
X5078Y708D01*
X5151Y738D01*
X5214Y786D01*
X5262Y849D01*
X5292Y922D01*
X5293Y925D01*
D02*
G37*
G36*
X10175Y793D02*
X10172Y792D01*
X10099Y762D01*
X10036Y714D01*
X9988Y651D01*
X9958Y578D01*
X9957Y575D01*
X10175D01*
Y793D01*
D02*
G37*
G36*
X-9207Y675D02*
X-9425D01*
Y457D01*
X-9422Y458D01*
X-9349Y488D01*
X-9286Y536D01*
X-9238Y599D01*
X-9208Y672D01*
X-9207Y675D01*
D02*
G37*
G36*
X-9575D02*
X-9793D01*
X-9792Y672D01*
X-9762Y599D01*
X-9714Y536D01*
X-9651Y488D01*
X-9578Y458D01*
X-9575Y457D01*
Y675D01*
D02*
G37*
G36*
X10543Y425D02*
X10325D01*
Y207D01*
X10328Y208D01*
X10401Y238D01*
X10464Y286D01*
X10512Y349D01*
X10542Y422D01*
X10543Y425D01*
D02*
G37*
G36*
X8675Y793D02*
X8672Y792D01*
X8599Y762D01*
X8536Y714D01*
X8488Y651D01*
X8458Y578D01*
X8457Y575D01*
X8675D01*
Y793D01*
D02*
G37*
G36*
X9575D02*
Y575D01*
X9793D01*
X9792Y578D01*
X9762Y651D01*
X9714Y714D01*
X9651Y762D01*
X9578Y792D01*
X9575Y793D01*
D02*
G37*
G36*
X9425D02*
X9422Y792D01*
X9349Y762D01*
X9286Y714D01*
X9238Y651D01*
X9208Y578D01*
X9207Y575D01*
X9425D01*
Y793D01*
D02*
G37*
G36*
X8825D02*
Y575D01*
X9043D01*
X9042Y578D01*
X9012Y651D01*
X8964Y714D01*
X8901Y762D01*
X8828Y792D01*
X8825Y793D01*
D02*
G37*
G36*
X-13420Y-1025D02*
X-13544D01*
Y-1227D01*
X-13420D01*
Y-1025D01*
D02*
G37*
G36*
X10293Y-1075D02*
X10075D01*
Y-1293D01*
X10078Y-1292D01*
X10151Y-1262D01*
X10214Y-1214D01*
X10262Y-1151D01*
X10292Y-1078D01*
X10293Y-1075D01*
D02*
G37*
G36*
X9925D02*
X9707D01*
X9708Y-1078D01*
X9738Y-1151D01*
X9786Y-1214D01*
X9849Y-1262D01*
X9922Y-1292D01*
X9925Y-1293D01*
Y-1075D01*
D02*
G37*
G36*
X-13147Y-1025D02*
X-13270D01*
Y-1227D01*
X-13147D01*
Y-1025D01*
D02*
G37*
G36*
X-5075Y-707D02*
X-5078Y-708D01*
X-5151Y-738D01*
X-5214Y-786D01*
X-5262Y-849D01*
X-5292Y-922D01*
X-5293Y-925D01*
X-5075D01*
Y-707D01*
D02*
G37*
G36*
X-9207Y-825D02*
X-9425D01*
Y-1043D01*
X-9422Y-1042D01*
X-9349Y-1012D01*
X-9286Y-964D01*
X-9238Y-901D01*
X-9208Y-828D01*
X-9207Y-825D01*
D02*
G37*
G36*
X-9575D02*
X-9793D01*
X-9792Y-828D01*
X-9762Y-901D01*
X-9714Y-964D01*
X-9651Y-1012D01*
X-9578Y-1042D01*
X-9575Y-1043D01*
Y-825D01*
D02*
G37*
G36*
X9543Y-1075D02*
X9325D01*
Y-1293D01*
X9328Y-1292D01*
X9401Y-1262D01*
X9464Y-1214D01*
X9512Y-1151D01*
X9542Y-1078D01*
X9543Y-1075D01*
D02*
G37*
G36*
X-5075D02*
X-5293D01*
X-5292Y-1078D01*
X-5262Y-1151D01*
X-5214Y-1214D01*
X-5151Y-1262D01*
X-5078Y-1292D01*
X-5075Y-1293D01*
Y-1075D01*
D02*
G37*
G36*
X10075Y-1457D02*
Y-1675D01*
X10293D01*
X10292Y-1672D01*
X10262Y-1599D01*
X10214Y-1536D01*
X10151Y-1488D01*
X10078Y-1458D01*
X10075Y-1457D01*
D02*
G37*
G36*
X9925D02*
X9922Y-1458D01*
X9849Y-1488D01*
X9786Y-1536D01*
X9738Y-1599D01*
X9708Y-1672D01*
X9707Y-1675D01*
X9925D01*
Y-1457D01*
D02*
G37*
G36*
X-4707Y-1075D02*
X-4925D01*
Y-1293D01*
X-4922Y-1292D01*
X-4849Y-1262D01*
X-4786Y-1214D01*
X-4738Y-1151D01*
X-4708Y-1078D01*
X-4707Y-1075D01*
D02*
G37*
G36*
X9175D02*
X8957D01*
X8958Y-1078D01*
X8988Y-1151D01*
X9036Y-1214D01*
X9099Y-1262D01*
X9172Y-1292D01*
X9175Y-1293D01*
Y-1075D01*
D02*
G37*
G36*
X5293D02*
X5075D01*
Y-1293D01*
X5078Y-1292D01*
X5151Y-1262D01*
X5214Y-1214D01*
X5262Y-1151D01*
X5292Y-1078D01*
X5293Y-1075D01*
D02*
G37*
G36*
X4925D02*
X4707D01*
X4708Y-1078D01*
X4738Y-1151D01*
X4786Y-1214D01*
X4849Y-1262D01*
X4922Y-1292D01*
X4925Y-1293D01*
Y-1075D01*
D02*
G37*
G36*
X-4925Y-707D02*
Y-925D01*
X-4707D01*
X-4708Y-922D01*
X-4738Y-849D01*
X-4786Y-786D01*
X-4849Y-738D01*
X-4922Y-708D01*
X-4925Y-707D01*
D02*
G37*
G36*
X9175Y-325D02*
X8957D01*
X8958Y-328D01*
X8988Y-401D01*
X9036Y-464D01*
X9099Y-512D01*
X9172Y-542D01*
X9175Y-543D01*
Y-325D01*
D02*
G37*
G36*
X-9425Y-457D02*
Y-675D01*
X-9207D01*
X-9208Y-672D01*
X-9238Y-599D01*
X-9286Y-536D01*
X-9349Y-488D01*
X-9422Y-458D01*
X-9425Y-457D01*
D02*
G37*
G36*
X-9575D02*
X-9578Y-458D01*
X-9651Y-488D01*
X-9714Y-536D01*
X-9762Y-599D01*
X-9792Y-672D01*
X-9793Y-675D01*
X-9575D01*
Y-457D01*
D02*
G37*
G36*
X9543Y-325D02*
X9325D01*
Y-543D01*
X9328Y-542D01*
X9401Y-512D01*
X9464Y-464D01*
X9512Y-401D01*
X9542Y-328D01*
X9543Y-325D01*
D02*
G37*
G36*
X-9575Y-75D02*
X-9793D01*
X-9792Y-78D01*
X-9762Y-151D01*
X-9714Y-214D01*
X-9651Y-262D01*
X-9578Y-292D01*
X-9575Y-293D01*
Y-75D01*
D02*
G37*
G36*
X10293Y-325D02*
X10075D01*
Y-543D01*
X10078Y-542D01*
X10151Y-512D01*
X10214Y-464D01*
X10262Y-401D01*
X10292Y-328D01*
X10293Y-325D01*
D02*
G37*
G36*
X9925D02*
X9707D01*
X9708Y-328D01*
X9738Y-401D01*
X9786Y-464D01*
X9849Y-512D01*
X9922Y-542D01*
X9925Y-543D01*
Y-325D01*
D02*
G37*
G36*
X-13147Y-673D02*
X-13270D01*
Y-875D01*
X-13147D01*
Y-673D01*
D02*
G37*
G36*
X9175Y-707D02*
X9172Y-708D01*
X9099Y-738D01*
X9036Y-786D01*
X8988Y-849D01*
X8958Y-922D01*
X8957Y-925D01*
X9175D01*
Y-707D01*
D02*
G37*
G36*
X5075D02*
Y-925D01*
X5293D01*
X5292Y-922D01*
X5262Y-849D01*
X5214Y-786D01*
X5151Y-738D01*
X5078Y-708D01*
X5075Y-707D01*
D02*
G37*
G36*
X4925D02*
X4922Y-708D01*
X4849Y-738D01*
X4786Y-786D01*
X4738Y-849D01*
X4708Y-922D01*
X4707Y-925D01*
X4925D01*
Y-707D01*
D02*
G37*
G36*
X9325D02*
Y-925D01*
X9543D01*
X9542Y-922D01*
X9512Y-849D01*
X9464Y-786D01*
X9401Y-738D01*
X9328Y-708D01*
X9325Y-707D01*
D02*
G37*
G36*
X-13420Y-673D02*
X-13544D01*
Y-875D01*
X-13420D01*
Y-673D01*
D02*
G37*
G36*
X10075Y-707D02*
Y-925D01*
X10293D01*
X10292Y-922D01*
X10262Y-849D01*
X10214Y-786D01*
X10151Y-738D01*
X10078Y-708D01*
X10075Y-707D01*
D02*
G37*
G36*
X9925D02*
X9922Y-708D01*
X9849Y-738D01*
X9786Y-786D01*
X9738Y-849D01*
X9708Y-922D01*
X9707Y-925D01*
X9925D01*
Y-707D01*
D02*
G37*
G36*
X-11988Y-3149D02*
X-12269D01*
Y-3292D01*
X-11988D01*
Y-3149D01*
D02*
G37*
G36*
X-13325Y-5575D02*
X-13543D01*
X-13542Y-5578D01*
X-13512Y-5651D01*
X-13464Y-5714D01*
X-13401Y-5762D01*
X-13328Y-5792D01*
X-13325Y-5793D01*
Y-5575D01*
D02*
G37*
G36*
X-9425Y-6457D02*
Y-6675D01*
X-9207D01*
X-9208Y-6672D01*
X-9238Y-6599D01*
X-9286Y-6536D01*
X-9349Y-6488D01*
X-9422Y-6458D01*
X-9425Y-6457D01*
D02*
G37*
G36*
X-9575D02*
X-9578Y-6458D01*
X-9651Y-6488D01*
X-9714Y-6536D01*
X-9762Y-6599D01*
X-9792Y-6672D01*
X-9793Y-6675D01*
X-9575D01*
Y-6457D01*
D02*
G37*
G36*
X-12957Y-5575D02*
X-13175D01*
Y-5793D01*
X-13172Y-5792D01*
X-13099Y-5762D01*
X-13036Y-5714D01*
X-12988Y-5651D01*
X-12958Y-5578D01*
X-12957Y-5575D01*
D02*
G37*
G36*
X-13325Y-5207D02*
X-13328Y-5208D01*
X-13401Y-5238D01*
X-13464Y-5286D01*
X-13512Y-5349D01*
X-13542Y-5422D01*
X-13543Y-5425D01*
X-13325D01*
Y-5207D01*
D02*
G37*
G36*
X-11904Y-5165D02*
X-12175D01*
Y-5741D01*
X-11904D01*
Y-5165D01*
D02*
G37*
G36*
X-12325D02*
X-12596D01*
Y-5741D01*
X-12325D01*
Y-5165D01*
D02*
G37*
G36*
X-10175Y-6457D02*
Y-6675D01*
X-9957D01*
X-9958Y-6672D01*
X-9988Y-6599D01*
X-10036Y-6536D01*
X-10099Y-6488D01*
X-10172Y-6458D01*
X-10175Y-6457D01*
D02*
G37*
G36*
X-11825D02*
X-11828Y-6458D01*
X-11901Y-6488D01*
X-11964Y-6536D01*
X-12012Y-6599D01*
X-12042Y-6672D01*
X-12043Y-6675D01*
X-11825D01*
Y-6457D01*
D02*
G37*
G36*
X-12425D02*
Y-6675D01*
X-12207D01*
X-12208Y-6672D01*
X-12238Y-6599D01*
X-12286Y-6536D01*
X-12349Y-6488D01*
X-12422Y-6458D01*
X-12425Y-6457D01*
D02*
G37*
G36*
X-12575D02*
X-12578Y-6458D01*
X-12651Y-6488D01*
X-12714Y-6536D01*
X-12762Y-6599D01*
X-12792Y-6672D01*
X-12793Y-6675D01*
X-12575D01*
Y-6457D01*
D02*
G37*
G36*
X-11675D02*
Y-6675D01*
X-11457D01*
X-11458Y-6672D01*
X-11488Y-6599D01*
X-11536Y-6536D01*
X-11599Y-6488D01*
X-11672Y-6458D01*
X-11675Y-6457D01*
D02*
G37*
G36*
X-10325D02*
X-10328Y-6458D01*
X-10401Y-6488D01*
X-10464Y-6536D01*
X-10512Y-6599D01*
X-10542Y-6672D01*
X-10543Y-6675D01*
X-10325D01*
Y-6457D01*
D02*
G37*
G36*
X-10925D02*
Y-6675D01*
X-10707D01*
X-10708Y-6672D01*
X-10738Y-6599D01*
X-10786Y-6536D01*
X-10849Y-6488D01*
X-10922Y-6458D01*
X-10925Y-6457D01*
D02*
G37*
G36*
X-11075D02*
X-11078Y-6458D01*
X-11151Y-6488D01*
X-11214Y-6536D01*
X-11262Y-6599D01*
X-11292Y-6672D01*
X-11293Y-6675D01*
X-11075D01*
Y-6457D01*
D02*
G37*
G36*
X293Y-5075D02*
X75D01*
Y-5293D01*
X78Y-5292D01*
X151Y-5262D01*
X214Y-5214D01*
X262Y-5151D01*
X292Y-5078D01*
X293Y-5075D01*
D02*
G37*
G36*
X-75D02*
X-293D01*
X-292Y-5078D01*
X-262Y-5151D01*
X-214Y-5214D01*
X-151Y-5262D01*
X-78Y-5292D01*
X-75Y-5293D01*
Y-5075D01*
D02*
G37*
G36*
X-707D02*
X-925D01*
Y-5293D01*
X-922Y-5292D01*
X-849Y-5262D01*
X-786Y-5214D01*
X-738Y-5151D01*
X-708Y-5078D01*
X-707Y-5075D01*
D02*
G37*
G36*
X925D02*
X707D01*
X708Y-5078D01*
X738Y-5151D01*
X786Y-5214D01*
X849Y-5262D01*
X922Y-5292D01*
X925Y-5293D01*
Y-5075D01*
D02*
G37*
G36*
X2293D02*
X2075D01*
Y-5293D01*
X2078Y-5292D01*
X2151Y-5262D01*
X2214Y-5214D01*
X2262Y-5151D01*
X2292Y-5078D01*
X2293Y-5075D01*
D02*
G37*
G36*
X1925D02*
X1707D01*
X1708Y-5078D01*
X1738Y-5151D01*
X1786Y-5214D01*
X1849Y-5262D01*
X1922Y-5292D01*
X1925Y-5293D01*
Y-5075D01*
D02*
G37*
G36*
X1293D02*
X1075D01*
Y-5293D01*
X1078Y-5292D01*
X1151Y-5262D01*
X1214Y-5214D01*
X1262Y-5151D01*
X1292Y-5078D01*
X1293Y-5075D01*
D02*
G37*
G36*
X-1075D02*
X-1293D01*
X-1292Y-5078D01*
X-1262Y-5151D01*
X-1214Y-5214D01*
X-1151Y-5262D01*
X-1078Y-5292D01*
X-1075Y-5293D01*
Y-5075D01*
D02*
G37*
G36*
X-3707D02*
X-3925D01*
Y-5293D01*
X-3922Y-5292D01*
X-3849Y-5262D01*
X-3786Y-5214D01*
X-3738Y-5151D01*
X-3708Y-5078D01*
X-3707Y-5075D01*
D02*
G37*
G36*
X-4075D02*
X-4293D01*
X-4292Y-5078D01*
X-4262Y-5151D01*
X-4214Y-5214D01*
X-4151Y-5262D01*
X-4078Y-5292D01*
X-4075Y-5293D01*
Y-5075D01*
D02*
G37*
G36*
X-13175Y-5207D02*
Y-5425D01*
X-12957D01*
X-12958Y-5422D01*
X-12988Y-5349D01*
X-13036Y-5286D01*
X-13099Y-5238D01*
X-13172Y-5208D01*
X-13175Y-5207D01*
D02*
G37*
G36*
X-3075Y-5075D02*
X-3293D01*
X-3292Y-5078D01*
X-3262Y-5151D01*
X-3214Y-5214D01*
X-3151Y-5262D01*
X-3078Y-5292D01*
X-3075Y-5293D01*
Y-5075D01*
D02*
G37*
G36*
X-1707D02*
X-1925D01*
Y-5293D01*
X-1922Y-5292D01*
X-1849Y-5262D01*
X-1786Y-5214D01*
X-1738Y-5151D01*
X-1708Y-5078D01*
X-1707Y-5075D01*
D02*
G37*
G36*
X-2075D02*
X-2293D01*
X-2292Y-5078D01*
X-2262Y-5151D01*
X-2214Y-5214D01*
X-2151Y-5262D01*
X-2078Y-5292D01*
X-2075Y-5293D01*
Y-5075D01*
D02*
G37*
G36*
X-2707D02*
X-2925D01*
Y-5293D01*
X-2922Y-5292D01*
X-2849Y-5262D01*
X-2786Y-5214D01*
X-2738Y-5151D01*
X-2708Y-5078D01*
X-2707Y-5075D01*
D02*
G37*
G36*
X-9207Y-6825D02*
X-9425D01*
Y-7043D01*
X-9422Y-7042D01*
X-9349Y-7012D01*
X-9286Y-6964D01*
X-9238Y-6901D01*
X-9208Y-6828D01*
X-9207Y-6825D01*
D02*
G37*
G36*
X-75Y-10536D02*
X-533D01*
Y-10994D01*
X-75D01*
Y-10536D01*
D02*
G37*
G36*
X533Y-11144D02*
X75D01*
Y-11602D01*
X533D01*
Y-11144D01*
D02*
G37*
G36*
X-75D02*
X-533D01*
Y-11602D01*
X-75D01*
Y-11144D01*
D02*
G37*
G36*
X533Y-10536D02*
X75D01*
Y-10994D01*
X533D01*
Y-10536D01*
D02*
G37*
G36*
X-2527Y-9175D02*
X-2739D01*
Y-10263D01*
X-2527D01*
Y-9175D01*
D02*
G37*
G36*
X135Y-9225D02*
X-77D01*
Y-10313D01*
X135D01*
Y-9225D01*
D02*
G37*
G36*
X-227D02*
X-439D01*
Y-10313D01*
X-227D01*
Y-9225D01*
D02*
G37*
G36*
X2383Y-11717D02*
X1925D01*
Y-12175D01*
X2383D01*
Y-11717D01*
D02*
G37*
G36*
X-75Y-12898D02*
X-533D01*
Y-13356D01*
X-75D01*
Y-12898D01*
D02*
G37*
G36*
X533Y-13506D02*
X75D01*
Y-13964D01*
X533D01*
Y-13506D01*
D02*
G37*
G36*
X-75D02*
X-533D01*
Y-13964D01*
X-75D01*
Y-13506D01*
D02*
G37*
G36*
X533Y-12898D02*
X75D01*
Y-13356D01*
X533D01*
Y-12898D01*
D02*
G37*
G36*
X1775Y-11717D02*
X1317D01*
Y-12175D01*
X1775D01*
Y-11717D01*
D02*
G37*
G36*
X2383Y-12325D02*
X1925D01*
Y-12783D01*
X2383D01*
Y-12325D01*
D02*
G37*
G36*
X1775D02*
X1317D01*
Y-12783D01*
X1775D01*
Y-12325D01*
D02*
G37*
G36*
X-11075Y-6825D02*
X-11293D01*
X-11292Y-6828D01*
X-11262Y-6901D01*
X-11214Y-6964D01*
X-11151Y-7012D01*
X-11078Y-7042D01*
X-11075Y-7043D01*
Y-6825D01*
D02*
G37*
G36*
X-11457D02*
X-11675D01*
Y-7043D01*
X-11672Y-7042D01*
X-11599Y-7012D01*
X-11536Y-6964D01*
X-11488Y-6901D01*
X-11458Y-6828D01*
X-11457Y-6825D01*
D02*
G37*
G36*
X-11825D02*
X-12043D01*
X-12042Y-6828D01*
X-12012Y-6901D01*
X-11964Y-6964D01*
X-11901Y-7012D01*
X-11828Y-7042D01*
X-11825Y-7043D01*
Y-6825D01*
D02*
G37*
G36*
X-10707D02*
X-10925D01*
Y-7043D01*
X-10922Y-7042D01*
X-10849Y-7012D01*
X-10786Y-6964D01*
X-10738Y-6901D01*
X-10708Y-6828D01*
X-10707Y-6825D01*
D02*
G37*
G36*
X-9575D02*
X-9793D01*
X-9792Y-6828D01*
X-9762Y-6901D01*
X-9714Y-6964D01*
X-9651Y-7012D01*
X-9578Y-7042D01*
X-9575Y-7043D01*
Y-6825D01*
D02*
G37*
G36*
X-9957D02*
X-10175D01*
Y-7043D01*
X-10172Y-7042D01*
X-10099Y-7012D01*
X-10036Y-6964D01*
X-9988Y-6901D01*
X-9958Y-6828D01*
X-9957Y-6825D01*
D02*
G37*
G36*
X-10325D02*
X-10543D01*
X-10542Y-6828D01*
X-10512Y-6901D01*
X-10464Y-6964D01*
X-10401Y-7012D01*
X-10328Y-7042D01*
X-10325Y-7043D01*
Y-6825D01*
D02*
G37*
G36*
X-12207D02*
X-12425D01*
Y-7043D01*
X-12422Y-7042D01*
X-12349Y-7012D01*
X-12286Y-6964D01*
X-12238Y-6901D01*
X-12208Y-6828D01*
X-12207Y-6825D01*
D02*
G37*
G36*
X-227Y-7987D02*
X-439D01*
Y-9075D01*
X-227D01*
Y-7987D01*
D02*
G37*
G36*
X3350Y-7398D02*
X3184Y-7415D01*
X3024Y-7463D01*
X2877Y-7542D01*
X2748Y-7648D01*
X2642Y-7777D01*
X2563Y-7924D01*
X2515Y-8084D01*
X2499Y-8250D01*
X2515Y-8416D01*
X2563Y-8576D01*
X2642Y-8723D01*
X2748Y-8852D01*
X2877Y-8958D01*
X3024Y-9037D01*
X3184Y-9085D01*
X3350Y-9101D01*
X3516Y-9085D01*
X3676Y-9037D01*
X3823Y-8958D01*
X3952Y-8852D01*
X4058Y-8723D01*
X4137Y-8576D01*
X4185Y-8416D01*
X4202Y-8250D01*
X4185Y-8084D01*
X4137Y-7924D01*
X4058Y-7777D01*
X3952Y-7648D01*
X3823Y-7542D01*
X3676Y-7463D01*
X3516Y-7415D01*
X3350Y-7398D01*
D02*
G37*
G36*
X-2165Y-9175D02*
X-2377D01*
Y-10263D01*
X-2165D01*
Y-9175D01*
D02*
G37*
G36*
X135Y-7987D02*
X-77D01*
Y-9075D01*
X135D01*
Y-7987D01*
D02*
G37*
G36*
X-12575Y-6825D02*
X-12793D01*
X-12792Y-6828D01*
X-12762Y-6901D01*
X-12714Y-6964D01*
X-12651Y-7012D01*
X-12578Y-7042D01*
X-12575Y-7043D01*
Y-6825D01*
D02*
G37*
G36*
X-2165Y-7937D02*
X-2377D01*
Y-9025D01*
X-2165D01*
Y-7937D01*
D02*
G37*
G36*
X-2527D02*
X-2739D01*
Y-9025D01*
X-2527D01*
Y-7937D01*
D02*
G37*
G36*
X5293Y-4075D02*
X5075D01*
Y-4293D01*
X5078Y-4292D01*
X5151Y-4262D01*
X5214Y-4214D01*
X5262Y-4151D01*
X5292Y-4078D01*
X5293Y-4075D01*
D02*
G37*
G36*
X4925D02*
X4707D01*
X4708Y-4078D01*
X4738Y-4151D01*
X4786Y-4214D01*
X4849Y-4262D01*
X4922Y-4292D01*
X4925Y-4293D01*
Y-4075D01*
D02*
G37*
G36*
X-10707D02*
X-10925D01*
Y-4293D01*
X-10922Y-4292D01*
X-10849Y-4262D01*
X-10786Y-4214D01*
X-10738Y-4151D01*
X-10708Y-4078D01*
X-10707Y-4075D01*
D02*
G37*
G36*
X-4707D02*
X-5293D01*
X-5292Y-4078D01*
X-5262Y-4151D01*
X-5214Y-4214D01*
X-5213Y-4214D01*
X-5216Y-4228D01*
X-5235Y-4261D01*
X-5358Y-4249D01*
X-5493Y-4262D01*
X-5622Y-4301D01*
X-5741Y-4365D01*
X-5845Y-4450D01*
X-5931Y-4555D01*
X-5994Y-4674D01*
X-6033Y-4803D01*
X-6047Y-4937D01*
X-6033Y-5071D01*
X-5994Y-5200D01*
X-5931Y-5319D01*
X-5845Y-5424D01*
X-5741Y-5509D01*
X-5622Y-5573D01*
X-5493Y-5612D01*
X-5358Y-5625D01*
X-5224Y-5612D01*
X-5095Y-5573D01*
X-4976Y-5509D01*
X-4872Y-5424D01*
X-4786Y-5319D01*
X-4722Y-5200D01*
X-4683Y-5071D01*
X-4670Y-4937D01*
X-4683Y-4803D01*
X-4722Y-4674D01*
X-4786Y-4555D01*
X-4872Y-4450D01*
X-4976Y-4365D01*
X-5002Y-4351D01*
X-5001Y-4338D01*
X-4989Y-4301D01*
X-4922Y-4292D01*
X-4849Y-4262D01*
X-4786Y-4214D01*
X-4738Y-4151D01*
X-4708Y-4078D01*
X-4707Y-4075D01*
D02*
G37*
G36*
X-12575Y-3707D02*
X-12578Y-3708D01*
X-12651Y-3738D01*
X-12714Y-3786D01*
X-12762Y-3849D01*
X-12792Y-3922D01*
X-12793Y-3925D01*
X-12575D01*
Y-3707D01*
D02*
G37*
G36*
X-13175D02*
Y-3925D01*
X-12957D01*
X-12958Y-3922D01*
X-12988Y-3849D01*
X-13036Y-3786D01*
X-13099Y-3738D01*
X-13172Y-3708D01*
X-13175Y-3707D01*
D02*
G37*
G36*
X-13325D02*
X-13328Y-3708D01*
X-13401Y-3738D01*
X-13464Y-3786D01*
X-13512Y-3849D01*
X-13542Y-3922D01*
X-13543Y-3925D01*
X-13325D01*
Y-3707D01*
D02*
G37*
G36*
X-11075Y-4075D02*
X-11293D01*
X-11292Y-4078D01*
X-11262Y-4151D01*
X-11214Y-4214D01*
X-11151Y-4262D01*
X-11078Y-4292D01*
X-11075Y-4293D01*
Y-4075D01*
D02*
G37*
G36*
X4391Y4391D02*
X-4391D01*
Y-4391D01*
X4391D01*
Y4391D01*
D02*
G37*
G36*
X-13175Y-4457D02*
Y-4675D01*
X-12957D01*
X-12958Y-4672D01*
X-12988Y-4599D01*
X-13036Y-4536D01*
X-13099Y-4488D01*
X-13172Y-4458D01*
X-13175Y-4457D01*
D02*
G37*
G36*
X-13325D02*
X-13328Y-4458D01*
X-13401Y-4488D01*
X-13464Y-4536D01*
X-13512Y-4599D01*
X-13542Y-4672D01*
X-13543Y-4675D01*
X-13325D01*
Y-4457D01*
D02*
G37*
G36*
Y-4075D02*
X-13543D01*
X-13542Y-4078D01*
X-13512Y-4151D01*
X-13464Y-4214D01*
X-13401Y-4262D01*
X-13328Y-4292D01*
X-13325Y-4293D01*
Y-4075D01*
D02*
G37*
G36*
X-12207D02*
X-12425D01*
Y-4293D01*
X-12422Y-4292D01*
X-12349Y-4262D01*
X-12286Y-4214D01*
X-12238Y-4151D01*
X-12208Y-4078D01*
X-12207Y-4075D01*
D02*
G37*
G36*
X-12575D02*
X-12793D01*
X-12792Y-4078D01*
X-12762Y-4151D01*
X-12714Y-4214D01*
X-12651Y-4262D01*
X-12578Y-4292D01*
X-12575Y-4293D01*
Y-4075D01*
D02*
G37*
G36*
X-12957D02*
X-13175D01*
Y-4293D01*
X-13172Y-4292D01*
X-13099Y-4262D01*
X-13036Y-4214D01*
X-12988Y-4151D01*
X-12958Y-4078D01*
X-12957Y-4075D01*
D02*
G37*
G36*
X-8425Y-3207D02*
Y-3425D01*
X-8207D01*
X-8208Y-3422D01*
X-8238Y-3349D01*
X-8286Y-3286D01*
X-8349Y-3238D01*
X-8422Y-3208D01*
X-8425Y-3207D01*
D02*
G37*
G36*
X-8575D02*
X-8578Y-3208D01*
X-8651Y-3238D01*
X-8714Y-3286D01*
X-8762Y-3349D01*
X-8792Y-3422D01*
X-8793Y-3425D01*
X-8575D01*
Y-3207D01*
D02*
G37*
G36*
X-8207Y-3575D02*
X-8425D01*
Y-3793D01*
X-8422Y-3792D01*
X-8349Y-3762D01*
X-8286Y-3714D01*
X-8238Y-3651D01*
X-8208Y-3578D01*
X-8207Y-3575D01*
D02*
G37*
G36*
X-5075Y-3075D02*
X-5293D01*
X-5292Y-3078D01*
X-5262Y-3151D01*
X-5214Y-3214D01*
X-5151Y-3262D01*
X-5078Y-3292D01*
X-5075Y-3293D01*
Y-3075D01*
D02*
G37*
G36*
X5293D02*
X5075D01*
Y-3293D01*
X5078Y-3292D01*
X5151Y-3262D01*
X5214Y-3214D01*
X5262Y-3151D01*
X5292Y-3078D01*
X5293Y-3075D01*
D02*
G37*
G36*
X4925D02*
X4707D01*
X4708Y-3078D01*
X4738Y-3151D01*
X4786Y-3214D01*
X4849Y-3262D01*
X4922Y-3292D01*
X4925Y-3293D01*
Y-3075D01*
D02*
G37*
G36*
X-4707D02*
X-4925D01*
Y-3293D01*
X-4922Y-3292D01*
X-4849Y-3262D01*
X-4786Y-3214D01*
X-4738Y-3151D01*
X-4708Y-3078D01*
X-4707Y-3075D01*
D02*
G37*
G36*
X-8575Y-3575D02*
X-8793D01*
X-8792Y-3578D01*
X-8762Y-3651D01*
X-8714Y-3714D01*
X-8651Y-3762D01*
X-8578Y-3792D01*
X-8575Y-3793D01*
Y-3575D01*
D02*
G37*
G36*
X-10925Y-3707D02*
Y-3925D01*
X-10707D01*
X-10708Y-3922D01*
X-10738Y-3849D01*
X-10786Y-3786D01*
X-10849Y-3738D01*
X-10922Y-3708D01*
X-10925Y-3707D01*
D02*
G37*
G36*
X-11075D02*
X-11078Y-3708D01*
X-11151Y-3738D01*
X-11214Y-3786D01*
X-11262Y-3849D01*
X-11292Y-3922D01*
X-11293Y-3925D01*
X-11075D01*
Y-3707D01*
D02*
G37*
G36*
X-12425D02*
Y-3925D01*
X-12207D01*
X-12208Y-3922D01*
X-12238Y-3849D01*
X-12286Y-3786D01*
X-12349Y-3738D01*
X-12422Y-3708D01*
X-12425Y-3707D01*
D02*
G37*
G36*
X-5075D02*
X-5078Y-3708D01*
X-5151Y-3738D01*
X-5214Y-3786D01*
X-5262Y-3849D01*
X-5292Y-3922D01*
X-5293Y-3925D01*
X-5075D01*
Y-3707D01*
D02*
G37*
G36*
X5075D02*
Y-3925D01*
X5293D01*
X5292Y-3922D01*
X5262Y-3849D01*
X5214Y-3786D01*
X5151Y-3738D01*
X5078Y-3708D01*
X5075Y-3707D01*
D02*
G37*
G36*
X4925D02*
X4922Y-3708D01*
X4849Y-3738D01*
X4786Y-3786D01*
X4738Y-3849D01*
X4708Y-3922D01*
X4707Y-3925D01*
X4925D01*
Y-3707D01*
D02*
G37*
G36*
X-4925D02*
Y-3925D01*
X-4707D01*
X-4708Y-3922D01*
X-4738Y-3849D01*
X-4786Y-3786D01*
X-4849Y-3738D01*
X-4922Y-3708D01*
X-4925Y-3707D01*
D02*
G37*
G36*
X-10113Y-2037D02*
X-10587D01*
Y-2238D01*
X-10871Y-2522D01*
X-11403D01*
Y-2878D01*
X-10771D01*
Y-2838D01*
X-10457D01*
X-10323Y-2972D01*
X-10343Y-3022D01*
X-10479D01*
Y-3378D01*
X-10301D01*
Y-4148D01*
X-10479D01*
Y-4504D01*
X-9888D01*
Y-4893D01*
X-9891Y-4896D01*
X-10052D01*
X-10081Y-4876D01*
X-10163Y-4860D01*
X-10744D01*
Y-4479D01*
X-11356D01*
Y-5701D01*
X-10744D01*
Y-5288D01*
X-10163D01*
X-10081Y-5272D01*
X-10052Y-5252D01*
X-9847D01*
Y-5206D01*
X-9821Y-5201D01*
X-9777Y-5171D01*
X-9653Y-5047D01*
X-9653Y-5047D01*
X-9623Y-5003D01*
X-9612Y-4950D01*
X-9612Y-4950D01*
Y-4878D01*
X-9448D01*
X-9419Y-4898D01*
X-9337Y-4914D01*
X-8331D01*
Y-5118D01*
X-8318Y-5246D01*
X-8281Y-5368D01*
X-8221Y-5481D01*
X-8139Y-5580D01*
X-8040Y-5662D01*
X-7927Y-5722D01*
X-7805Y-5759D01*
X-7677Y-5772D01*
X-7550Y-5759D01*
X-7427Y-5722D01*
X-7314Y-5662D01*
X-7215Y-5580D01*
X-7134Y-5481D01*
X-7073Y-5368D01*
X-7036Y-5246D01*
X-7023Y-5118D01*
Y-4331D01*
X-7036Y-4203D01*
X-7073Y-4081D01*
X-7134Y-3968D01*
X-7215Y-3868D01*
X-7314Y-3787D01*
X-7427Y-3727D01*
X-7550Y-3690D01*
X-7677Y-3677D01*
X-7805Y-3690D01*
X-7927Y-3727D01*
X-8040Y-3787D01*
X-8139Y-3868D01*
X-8221Y-3968D01*
X-8281Y-4081D01*
X-8318Y-4203D01*
X-8331Y-4331D01*
Y-4486D01*
X-9337D01*
X-9419Y-4502D01*
X-9448Y-4522D01*
X-9612D01*
Y-3907D01*
X-9457Y-3752D01*
X-9021D01*
Y-3396D01*
X-9653D01*
Y-3558D01*
X-9847Y-3753D01*
X-9877Y-3797D01*
X-9888Y-3850D01*
Y-4148D01*
X-10026D01*
Y-3378D01*
X-9847D01*
Y-3022D01*
X-10026D01*
Y-2937D01*
X-10026Y-2937D01*
X-10036Y-2884D01*
X-10066Y-2839D01*
X-10303Y-2603D01*
X-10347Y-2573D01*
X-10400Y-2562D01*
X-10457D01*
X-10476Y-2516D01*
X-10314Y-2354D01*
X-10113D01*
Y-2037D01*
D02*
G37*
G36*
X-4075Y-4707D02*
X-4078Y-4708D01*
X-4151Y-4738D01*
X-4214Y-4786D01*
X-4262Y-4849D01*
X-4292Y-4922D01*
X-4293Y-4925D01*
X-4075D01*
Y-4707D01*
D02*
G37*
G36*
X-11904Y-4439D02*
X-12175D01*
Y-5015D01*
X-11904D01*
Y-4439D01*
D02*
G37*
G36*
X-12325D02*
X-12596D01*
Y-5015D01*
X-12325D01*
Y-4439D01*
D02*
G37*
G36*
X-3925Y-4707D02*
Y-4925D01*
X-3707D01*
X-3708Y-4922D01*
X-3738Y-4849D01*
X-3786Y-4786D01*
X-3849Y-4738D01*
X-3922Y-4708D01*
X-3925Y-4707D01*
D02*
G37*
G36*
X-2075D02*
X-2078Y-4708D01*
X-2151Y-4738D01*
X-2214Y-4786D01*
X-2262Y-4849D01*
X-2292Y-4922D01*
X-2293Y-4925D01*
X-2075D01*
Y-4707D01*
D02*
G37*
G36*
X-2925D02*
Y-4925D01*
X-2707D01*
X-2708Y-4922D01*
X-2738Y-4849D01*
X-2786Y-4786D01*
X-2849Y-4738D01*
X-2922Y-4708D01*
X-2925Y-4707D01*
D02*
G37*
G36*
X-3075D02*
X-3078Y-4708D01*
X-3151Y-4738D01*
X-3214Y-4786D01*
X-3262Y-4849D01*
X-3292Y-4922D01*
X-3293Y-4925D01*
X-3075D01*
Y-4707D01*
D02*
G37*
G36*
X-12957Y-4825D02*
X-13175D01*
Y-5043D01*
X-13172Y-5042D01*
X-13099Y-5012D01*
X-13036Y-4964D01*
X-12988Y-4901D01*
X-12958Y-4828D01*
X-12957Y-4825D01*
D02*
G37*
G36*
X3925Y-5075D02*
X3707D01*
X3708Y-5078D01*
X3738Y-5151D01*
X3786Y-5214D01*
X3849Y-5262D01*
X3922Y-5292D01*
X3925Y-5293D01*
Y-5075D01*
D02*
G37*
G36*
X3293D02*
X3075D01*
Y-5293D01*
X3078Y-5292D01*
X3151Y-5262D01*
X3214Y-5214D01*
X3262Y-5151D01*
X3292Y-5078D01*
X3293Y-5075D01*
D02*
G37*
G36*
X2925D02*
X2707D01*
X2708Y-5078D01*
X2738Y-5151D01*
X2786Y-5214D01*
X2849Y-5262D01*
X2922Y-5292D01*
X2925Y-5293D01*
Y-5075D01*
D02*
G37*
G36*
X4293D02*
X4075D01*
Y-5293D01*
X4078Y-5292D01*
X4151Y-5262D01*
X4214Y-5214D01*
X4262Y-5151D01*
X4292Y-5078D01*
X4293Y-5075D01*
D02*
G37*
G36*
X-13325Y-4825D02*
X-13543D01*
X-13542Y-4828D01*
X-13512Y-4901D01*
X-13464Y-4964D01*
X-13401Y-5012D01*
X-13328Y-5042D01*
X-13325Y-5043D01*
Y-4825D01*
D02*
G37*
G36*
X5293Y-5075D02*
X5075D01*
Y-5293D01*
X5078Y-5292D01*
X5151Y-5262D01*
X5214Y-5214D01*
X5262Y-5151D01*
X5292Y-5078D01*
X5293Y-5075D01*
D02*
G37*
G36*
X4925D02*
X4707D01*
X4708Y-5078D01*
X4738Y-5151D01*
X4786Y-5214D01*
X4849Y-5262D01*
X4922Y-5292D01*
X4925Y-5293D01*
Y-5075D01*
D02*
G37*
G36*
X3075Y-4707D02*
Y-4925D01*
X3293D01*
X3292Y-4922D01*
X3262Y-4849D01*
X3214Y-4786D01*
X3151Y-4738D01*
X3078Y-4708D01*
X3075Y-4707D01*
D02*
G37*
G36*
X2925D02*
X2922Y-4708D01*
X2849Y-4738D01*
X2786Y-4786D01*
X2738Y-4849D01*
X2708Y-4922D01*
X2707Y-4925D01*
X2925D01*
Y-4707D01*
D02*
G37*
G36*
X2075D02*
Y-4925D01*
X2293D01*
X2292Y-4922D01*
X2262Y-4849D01*
X2214Y-4786D01*
X2151Y-4738D01*
X2078Y-4708D01*
X2075Y-4707D01*
D02*
G37*
G36*
X3925D02*
X3922Y-4708D01*
X3849Y-4738D01*
X3786Y-4786D01*
X3738Y-4849D01*
X3708Y-4922D01*
X3707Y-4925D01*
X3925D01*
Y-4707D01*
D02*
G37*
G36*
X5075D02*
Y-4925D01*
X5293D01*
X5292Y-4922D01*
X5262Y-4849D01*
X5214Y-4786D01*
X5151Y-4738D01*
X5078Y-4708D01*
X5075Y-4707D01*
D02*
G37*
G36*
X4925D02*
X4922Y-4708D01*
X4849Y-4738D01*
X4786Y-4786D01*
X4738Y-4849D01*
X4708Y-4922D01*
X4707Y-4925D01*
X4925D01*
Y-4707D01*
D02*
G37*
G36*
X4075D02*
Y-4925D01*
X4293D01*
X4292Y-4922D01*
X4262Y-4849D01*
X4214Y-4786D01*
X4151Y-4738D01*
X4078Y-4708D01*
X4075Y-4707D01*
D02*
G37*
G36*
X1925D02*
X1922Y-4708D01*
X1849Y-4738D01*
X1786Y-4786D01*
X1738Y-4849D01*
X1708Y-4922D01*
X1707Y-4925D01*
X1925D01*
Y-4707D01*
D02*
G37*
G36*
X-925D02*
Y-4925D01*
X-707D01*
X-708Y-4922D01*
X-738Y-4849D01*
X-786Y-4786D01*
X-849Y-4738D01*
X-922Y-4708D01*
X-925Y-4707D01*
D02*
G37*
G36*
X-1075D02*
X-1078Y-4708D01*
X-1151Y-4738D01*
X-1214Y-4786D01*
X-1262Y-4849D01*
X-1292Y-4922D01*
X-1293Y-4925D01*
X-1075D01*
Y-4707D01*
D02*
G37*
G36*
X-1925D02*
Y-4925D01*
X-1707D01*
X-1708Y-4922D01*
X-1738Y-4849D01*
X-1786Y-4786D01*
X-1849Y-4738D01*
X-1922Y-4708D01*
X-1925Y-4707D01*
D02*
G37*
G36*
X-75D02*
X-78Y-4708D01*
X-151Y-4738D01*
X-214Y-4786D01*
X-262Y-4849D01*
X-292Y-4922D01*
X-293Y-4925D01*
X-75D01*
Y-4707D01*
D02*
G37*
G36*
X1075D02*
Y-4925D01*
X1293D01*
X1292Y-4922D01*
X1262Y-4849D01*
X1214Y-4786D01*
X1151Y-4738D01*
X1078Y-4708D01*
X1075Y-4707D01*
D02*
G37*
G36*
X925D02*
X922Y-4708D01*
X849Y-4738D01*
X786Y-4786D01*
X738Y-4849D01*
X708Y-4922D01*
X707Y-4925D01*
X925D01*
Y-4707D01*
D02*
G37*
G36*
X75D02*
Y-4925D01*
X293D01*
X292Y-4922D01*
X262Y-4849D01*
X214Y-4786D01*
X151Y-4738D01*
X78Y-4708D01*
X75Y-4707D01*
D02*
G37*
G36*
X-5075Y1293D02*
X-5078Y1292D01*
X-5151Y1262D01*
X-5214Y1214D01*
X-5262Y1151D01*
X-5292Y1078D01*
X-5293Y1075D01*
X-5075D01*
Y1293D01*
D02*
G37*
G36*
X7246Y9265D02*
X6975D01*
Y8689D01*
X7246D01*
Y9265D01*
D02*
G37*
G36*
X6825D02*
X6554D01*
Y8689D01*
X6825D01*
Y9265D01*
D02*
G37*
G36*
X6046Y9991D02*
X5775D01*
Y9340D01*
Y8689D01*
X6046D01*
Y9991D01*
D02*
G37*
G36*
X3182Y8898D02*
X2980D01*
Y8814D01*
X3182D01*
Y8898D01*
D02*
G37*
G36*
X8025Y9093D02*
Y8875D01*
X8243D01*
X8242Y8878D01*
X8212Y8951D01*
X8164Y9014D01*
X8101Y9062D01*
X8028Y9092D01*
X8025Y9093D01*
D02*
G37*
G36*
X7875D02*
X7872Y9092D01*
X7799Y9062D01*
X7736Y9014D01*
X7688Y8951D01*
X7658Y8878D01*
X7657Y8875D01*
X7875D01*
Y9093D01*
D02*
G37*
G36*
X3534Y8898D02*
X3332D01*
Y8814D01*
X3534D01*
Y8898D01*
D02*
G37*
G36*
X5625Y9991D02*
X5354D01*
Y8689D01*
X5625D01*
Y9340D01*
Y9991D01*
D02*
G37*
G36*
X-8198Y8722D02*
X-8290D01*
X-8375Y8705D01*
X-8447Y8657D01*
X-8496Y8585D01*
X-8498Y8575D01*
X-8198D01*
Y8722D01*
D02*
G37*
G36*
X2875Y8711D02*
X2742D01*
Y8558D01*
X2875D01*
Y8711D01*
D02*
G37*
G36*
X9743Y8725D02*
X9525D01*
Y8507D01*
X9528Y8508D01*
X9601Y8538D01*
X9664Y8586D01*
X9712Y8649D01*
X9742Y8722D01*
X9743Y8725D01*
D02*
G37*
G36*
X-7956Y8722D02*
X-8048D01*
Y8575D01*
X-7748D01*
X-7750Y8585D01*
X-7798Y8657D01*
X-7870Y8705D01*
X-7956Y8722D01*
D02*
G37*
G36*
X3534Y8664D02*
X3332D01*
Y8580D01*
X3534D01*
Y8664D01*
D02*
G37*
G36*
X3182D02*
X2980D01*
Y8580D01*
X3182D01*
Y8664D01*
D02*
G37*
G36*
X-5810Y8722D02*
X-5902D01*
Y8575D01*
X-5602D01*
X-5604Y8585D01*
X-5653Y8657D01*
X-5725Y8705D01*
X-5810Y8722D01*
D02*
G37*
G36*
X8675Y9475D02*
X8457D01*
X8458Y9472D01*
X8488Y9399D01*
X8536Y9336D01*
X8599Y9288D01*
X8672Y9258D01*
X8675Y9257D01*
Y9475D01*
D02*
G37*
G36*
X8243D02*
X8025D01*
Y9257D01*
X8028Y9258D01*
X8101Y9288D01*
X8164Y9336D01*
X8212Y9399D01*
X8242Y9472D01*
X8243Y9475D01*
D02*
G37*
G36*
X7875D02*
X7657D01*
X7658Y9472D01*
X7688Y9399D01*
X7736Y9336D01*
X7799Y9288D01*
X7872Y9258D01*
X7875Y9257D01*
Y9475D01*
D02*
G37*
G36*
X9043D02*
X8825D01*
Y9257D01*
X8828Y9258D01*
X8901Y9288D01*
X8964Y9336D01*
X9012Y9399D01*
X9042Y9472D01*
X9043Y9475D01*
D02*
G37*
G36*
X6825Y9991D02*
X6554D01*
Y9415D01*
X6825D01*
Y9991D01*
D02*
G37*
G36*
X9743Y9475D02*
X9525D01*
Y9257D01*
X9528Y9258D01*
X9601Y9288D01*
X9664Y9336D01*
X9712Y9399D01*
X9742Y9472D01*
X9743Y9475D01*
D02*
G37*
G36*
X9375D02*
X9157D01*
X9158Y9472D01*
X9188Y9399D01*
X9236Y9336D01*
X9299Y9288D01*
X9372Y9258D01*
X9375Y9257D01*
Y9475D01*
D02*
G37*
G36*
X3925Y9343D02*
Y9125D01*
X4143D01*
X4142Y9128D01*
X4112Y9201D01*
X4064Y9264D01*
X4001Y9312D01*
X3928Y9342D01*
X3925Y9343D01*
D02*
G37*
G36*
X9375Y9093D02*
X9372Y9092D01*
X9299Y9062D01*
X9236Y9014D01*
X9188Y8951D01*
X9158Y8878D01*
X9157Y8875D01*
X9375D01*
Y9093D01*
D02*
G37*
G36*
X8825D02*
Y8875D01*
X9043D01*
X9042Y8878D01*
X9012Y8951D01*
X8964Y9014D01*
X8901Y9062D01*
X8828Y9092D01*
X8825Y9093D01*
D02*
G37*
G36*
X8675D02*
X8672Y9092D01*
X8599Y9062D01*
X8536Y9014D01*
X8488Y8951D01*
X8458Y8878D01*
X8457Y8875D01*
X8675D01*
Y9093D01*
D02*
G37*
G36*
X9525D02*
Y8875D01*
X9743D01*
X9742Y8878D01*
X9712Y8951D01*
X9664Y9014D01*
X9601Y9062D01*
X9528Y9092D01*
X9525Y9093D01*
D02*
G37*
G36*
X3775Y9343D02*
X3772Y9342D01*
X3699Y9312D01*
X3636Y9264D01*
X3588Y9201D01*
X3558Y9128D01*
X3557Y9125D01*
X3775D01*
Y9343D01*
D02*
G37*
G36*
X-4755Y9319D02*
X-5075D01*
Y9097D01*
X-4755D01*
Y9319D01*
D02*
G37*
G36*
X-6052Y9222D02*
X-6144D01*
X-6230Y9205D01*
X-6302Y9157D01*
X-6350Y9085D01*
X-6352Y9075D01*
X-6052D01*
Y9222D01*
D02*
G37*
G36*
X9375Y8725D02*
X9157D01*
X9158Y8722D01*
X9188Y8649D01*
X9236Y8586D01*
X9299Y8538D01*
X9372Y8508D01*
X9375Y8507D01*
Y8725D01*
D02*
G37*
G36*
X777Y9163D02*
X565D01*
Y8075D01*
X777D01*
Y9163D01*
D02*
G37*
G36*
X-1165D02*
X-1377D01*
Y8075D01*
X-1165D01*
Y9163D01*
D02*
G37*
G36*
X-1527D02*
X-1739D01*
Y8075D01*
X-1527D01*
Y9163D01*
D02*
G37*
G36*
X1139D02*
X927D01*
Y8075D01*
X1139D01*
Y9163D01*
D02*
G37*
G36*
X8675Y8293D02*
X8672Y8292D01*
X8599Y8262D01*
X8536Y8214D01*
X8488Y8151D01*
X8458Y8078D01*
X8457Y8075D01*
X8675D01*
Y8293D01*
D02*
G37*
G36*
X8025D02*
Y8075D01*
X8243D01*
X8242Y8078D01*
X8212Y8151D01*
X8164Y8214D01*
X8101Y8262D01*
X8028Y8292D01*
X8025Y8293D01*
D02*
G37*
G36*
X7875D02*
X7872Y8292D01*
X7799Y8262D01*
X7736Y8214D01*
X7688Y8151D01*
X7658Y8078D01*
X7657Y8075D01*
X7875D01*
Y8293D01*
D02*
G37*
G36*
X-7956Y8222D02*
X-8290D01*
X-8375Y8205D01*
X-8447Y8157D01*
X-8496Y8085D01*
X-8498Y8075D01*
X-7748D01*
X-7750Y8085D01*
X-7798Y8157D01*
X-7870Y8205D01*
X-7956Y8222D01*
D02*
G37*
G36*
X-6052Y7925D02*
X-6352D01*
X-6350Y7915D01*
X-6302Y7843D01*
X-6230Y7795D01*
X-6144Y7778D01*
X-6052D01*
Y7925D01*
D02*
G37*
G36*
X-7748D02*
X-8048D01*
Y7778D01*
X-7956D01*
X-7870Y7795D01*
X-7798Y7843D01*
X-7750Y7915D01*
X-7748Y7925D01*
D02*
G37*
G36*
X-8198D02*
X-8498D01*
X-8496Y7915D01*
X-8447Y7843D01*
X-8375Y7795D01*
X-8290Y7778D01*
X-8198D01*
Y7925D01*
D02*
G37*
G36*
X4884Y8589D02*
X3916D01*
Y7875D01*
X4884D01*
Y8589D01*
D02*
G37*
G36*
X-5225Y8374D02*
X-5545D01*
Y8044D01*
X-5595Y8039D01*
X-5604Y8085D01*
X-5653Y8157D01*
X-5725Y8205D01*
X-5810Y8222D01*
X-6144D01*
X-6230Y8205D01*
X-6302Y8157D01*
X-6350Y8085D01*
X-6352Y8075D01*
X-5977D01*
Y8000D01*
X-5902D01*
Y7778D01*
X-5810D01*
X-5725Y7795D01*
X-5653Y7843D01*
X-5604Y7915D01*
X-5595Y7961D01*
X-5545Y7956D01*
Y7781D01*
X-5225D01*
Y8078D01*
Y8374D01*
D02*
G37*
G36*
X7384Y8589D02*
X6975D01*
Y7875D01*
X7384D01*
Y8589D01*
D02*
G37*
G36*
X6825D02*
X6416D01*
Y7875D01*
X6825D01*
Y8589D01*
D02*
G37*
G36*
X3534Y8504D02*
X3332D01*
Y8420D01*
X3534D01*
Y8504D01*
D02*
G37*
G36*
X3182D02*
X2980D01*
Y8420D01*
X3182D01*
Y8504D01*
D02*
G37*
G36*
X-5602Y8425D02*
X-6352D01*
X-6350Y8415D01*
X-6302Y8343D01*
X-6230Y8295D01*
X-6144Y8278D01*
X-5810D01*
X-5725Y8295D01*
X-5653Y8343D01*
X-5604Y8415D01*
X-5602Y8425D01*
D02*
G37*
G36*
X7875Y8725D02*
X7657D01*
X7658Y8722D01*
X7688Y8649D01*
X7736Y8586D01*
X7799Y8538D01*
X7872Y8508D01*
X7875Y8507D01*
Y8725D01*
D02*
G37*
G36*
X9043D02*
X8825D01*
Y8507D01*
X8828Y8508D01*
X8901Y8538D01*
X8964Y8586D01*
X9012Y8649D01*
X9042Y8722D01*
X9043Y8725D01*
D02*
G37*
G36*
X8675D02*
X8457D01*
X8458Y8722D01*
X8488Y8649D01*
X8536Y8586D01*
X8599Y8538D01*
X8672Y8508D01*
X8675Y8507D01*
Y8725D01*
D02*
G37*
G36*
X8243D02*
X8025D01*
Y8507D01*
X8028Y8508D01*
X8101Y8538D01*
X8164Y8586D01*
X8212Y8649D01*
X8242Y8722D01*
X8243Y8725D01*
D02*
G37*
G36*
X-7748Y8425D02*
X-8498D01*
X-8496Y8415D01*
X-8447Y8343D01*
X-8375Y8295D01*
X-8290Y8278D01*
X-7956D01*
X-7870Y8295D01*
X-7798Y8343D01*
X-7750Y8415D01*
X-7748Y8425D01*
D02*
G37*
G36*
X9525Y8293D02*
Y8075D01*
X9743D01*
X9742Y8078D01*
X9712Y8151D01*
X9664Y8214D01*
X9601Y8262D01*
X9528Y8292D01*
X9525Y8293D01*
D02*
G37*
G36*
X9375D02*
X9372Y8292D01*
X9299Y8262D01*
X9236Y8214D01*
X9188Y8151D01*
X9158Y8078D01*
X9157Y8075D01*
X9375D01*
Y8293D01*
D02*
G37*
G36*
X8825D02*
Y8075D01*
X9043D01*
X9042Y8078D01*
X9012Y8151D01*
X8964Y8214D01*
X8901Y8262D01*
X8828Y8292D01*
X8825Y8293D01*
D02*
G37*
G36*
X1568Y8270D02*
X1366D01*
Y8186D01*
X1568D01*
Y8270D01*
D02*
G37*
G36*
X3534D02*
X3332D01*
Y8186D01*
X3534D01*
Y8270D01*
D02*
G37*
G36*
X3182D02*
X2980D01*
Y8186D01*
X3182D01*
Y8270D01*
D02*
G37*
G36*
X1920D02*
X1718D01*
Y8186D01*
X1920D01*
Y8270D01*
D02*
G37*
G36*
X-6380Y10927D02*
X-6503D01*
Y10725D01*
X-6380D01*
Y10927D01*
D02*
G37*
G36*
X5387Y11325D02*
X4202D01*
Y10670D01*
X5387D01*
Y11325D01*
D02*
G37*
G36*
X2198D02*
X1681D01*
Y10670D01*
X2198D01*
Y11325D01*
D02*
G37*
G36*
X-6106Y10927D02*
X-6230D01*
Y10725D01*
X-6106D01*
Y10927D01*
D02*
G37*
G36*
X-2800Y11550D02*
X-3325D01*
Y11025D01*
X-2800D01*
Y11550D01*
D02*
G37*
G36*
X-3475D02*
X-4000D01*
Y11025D01*
X-3475D01*
Y11550D01*
D02*
G37*
G36*
X-1000Y12313D02*
X-1139Y12300D01*
X-1273Y12259D01*
X-1396Y12193D01*
X-1504Y12104D01*
X-1593Y11996D01*
X-1659Y11873D01*
X-1700Y11739D01*
X-1713Y11600D01*
X-1700Y11461D01*
X-1659Y11327D01*
X-1593Y11204D01*
X-1504Y11096D01*
X-1396Y11007D01*
X-1273Y10941D01*
X-1139Y10900D01*
X-1000Y10887D01*
X-861Y10900D01*
X-727Y10941D01*
X-604Y11007D01*
X-496Y11096D01*
X-407Y11204D01*
X-341Y11327D01*
X-300Y11461D01*
X-287Y11600D01*
X-300Y11739D01*
X-341Y11873D01*
X-407Y11996D01*
X-496Y12104D01*
X-604Y12193D01*
X-727Y12259D01*
X-861Y12300D01*
X-1000Y12313D01*
D02*
G37*
G36*
X1531Y11325D02*
X1013D01*
Y10670D01*
X1531D01*
Y11325D01*
D02*
G37*
G36*
X7527Y10753D02*
X7325D01*
Y10630D01*
X7527D01*
Y10753D01*
D02*
G37*
G36*
X7175D02*
X6973D01*
Y10630D01*
X7175D01*
Y10753D01*
D02*
G37*
G36*
X-6106Y10575D02*
X-6503D01*
Y10373D01*
X-6106D01*
Y10575D01*
D02*
G37*
G36*
X7875Y10753D02*
X7673D01*
Y10630D01*
X7875D01*
Y10753D01*
D02*
G37*
G36*
X8927D02*
X8725D01*
Y10630D01*
X8927D01*
Y10753D01*
D02*
G37*
G36*
X8575D02*
X8373D01*
Y10630D01*
X8575D01*
Y10753D01*
D02*
G37*
G36*
X8227D02*
X8025D01*
Y10630D01*
X8227D01*
Y10753D01*
D02*
G37*
G36*
X2198Y12130D02*
X1681D01*
Y11475D01*
X2198D01*
Y12130D01*
D02*
G37*
G36*
X1531D02*
X1013D01*
Y11475D01*
X1531D01*
Y12130D01*
D02*
G37*
G36*
X6694Y11475D02*
X6570D01*
Y11273D01*
X6694D01*
Y11475D01*
D02*
G37*
G36*
X4719Y12130D02*
X4202D01*
Y11475D01*
X4719D01*
Y12130D01*
D02*
G37*
G36*
X-2840Y12960D02*
X-3960D01*
Y12563D01*
X-5950D01*
X-5950Y12563D01*
X-6012Y12551D01*
X-6065Y12515D01*
X-8197Y10384D01*
X-8232Y10331D01*
X-8239Y10295D01*
X-8358D01*
Y9505D01*
X-8286D01*
Y9182D01*
X-8290D01*
X-8360Y9168D01*
X-8419Y9128D01*
X-8458Y9069D01*
X-8472Y9000D01*
X-8458Y8931D01*
X-8419Y8872D01*
X-8360Y8832D01*
X-8290Y8818D01*
X-7956D01*
X-7886Y8832D01*
X-7827Y8872D01*
X-7788Y8931D01*
X-7774Y9000D01*
X-7788Y9069D01*
X-7827Y9128D01*
X-7886Y9168D01*
X-7956Y9182D01*
X-7960D01*
Y9505D01*
X-7805D01*
Y10295D01*
X-7805Y10295D01*
X-7805D01*
X-7784Y10336D01*
X-5882Y12237D01*
X-3960D01*
Y11840D01*
X-2840D01*
Y12960D01*
D02*
G37*
G36*
X5830Y11827D02*
X5706D01*
Y11625D01*
X5830D01*
Y11827D01*
D02*
G37*
G36*
X5387Y12130D02*
X4869D01*
Y11475D01*
X5387D01*
Y12130D01*
D02*
G37*
G36*
X6420Y11475D02*
X6297D01*
Y11273D01*
X6420D01*
Y11475D01*
D02*
G37*
G36*
X7875Y11344D02*
X7673D01*
Y11220D01*
X7875D01*
Y11344D01*
D02*
G37*
G36*
X7527D02*
X7325D01*
Y11220D01*
X7527D01*
Y11344D01*
D02*
G37*
G36*
X7175D02*
X6973D01*
Y11220D01*
X7175D01*
Y11344D01*
D02*
G37*
G36*
X8227D02*
X8025D01*
Y11220D01*
X8227D01*
Y11344D01*
D02*
G37*
G36*
X5830Y11475D02*
X5706D01*
Y11273D01*
X5830D01*
Y11475D01*
D02*
G37*
G36*
X8927Y11344D02*
X8725D01*
Y11220D01*
X8927D01*
Y11344D01*
D02*
G37*
G36*
X8575D02*
X8373D01*
Y11220D01*
X8575D01*
Y11344D01*
D02*
G37*
G36*
X8927Y10480D02*
X8725D01*
Y10356D01*
X8927D01*
Y10480D01*
D02*
G37*
G36*
X-5575Y9925D02*
X-5793D01*
X-5792Y9922D01*
X-5762Y9849D01*
X-5714Y9786D01*
X-5651Y9738D01*
X-5578Y9708D01*
X-5575Y9707D01*
Y9925D01*
D02*
G37*
G36*
X-5957D02*
X-6175D01*
Y9707D01*
X-6172Y9708D01*
X-6099Y9738D01*
X-6036Y9786D01*
X-5988Y9849D01*
X-5958Y9922D01*
X-5957Y9925D01*
D02*
G37*
G36*
X-6325D02*
X-6543D01*
X-6542Y9922D01*
X-6512Y9849D01*
X-6464Y9786D01*
X-6401Y9738D01*
X-6328Y9708D01*
X-6325Y9707D01*
Y9925D01*
D02*
G37*
G36*
X-5207D02*
X-5425D01*
Y9707D01*
X-5422Y9708D01*
X-5349Y9738D01*
X-5286Y9786D01*
X-5238Y9849D01*
X-5208Y9922D01*
X-5207Y9925D01*
D02*
G37*
G36*
X-4075D02*
X-4293D01*
X-4292Y9922D01*
X-4262Y9849D01*
X-4214Y9786D01*
X-4151Y9738D01*
X-4078Y9708D01*
X-4075Y9707D01*
Y9925D01*
D02*
G37*
G36*
X-4457D02*
X-4675D01*
Y9707D01*
X-4672Y9708D01*
X-4599Y9738D01*
X-4536Y9786D01*
X-4488Y9849D01*
X-4458Y9922D01*
X-4457Y9925D01*
D02*
G37*
G36*
X-4825D02*
X-5043D01*
X-5042Y9922D01*
X-5012Y9849D01*
X-4964Y9786D01*
X-4901Y9738D01*
X-4828Y9708D01*
X-4825Y9707D01*
Y9925D01*
D02*
G37*
G36*
X9525Y9843D02*
Y9625D01*
X9743D01*
X9742Y9628D01*
X9712Y9701D01*
X9664Y9764D01*
X9601Y9812D01*
X9528Y9842D01*
X9525Y9843D01*
D02*
G37*
G36*
X7875D02*
X7872Y9842D01*
X7799Y9812D01*
X7736Y9764D01*
X7688Y9701D01*
X7658Y9628D01*
X7657Y9625D01*
X7875D01*
Y9843D01*
D02*
G37*
G36*
X-6737Y10887D02*
X-7054D01*
Y10715D01*
X-7055Y10712D01*
X-7068Y10650D01*
Y10295D01*
X-7295D01*
Y9505D01*
X-6742D01*
Y10012D01*
X-6742Y10014D01*
Y10413D01*
X-6737D01*
Y10887D01*
D02*
G37*
G36*
X7246Y9991D02*
X6975D01*
Y9415D01*
X7246D01*
Y9991D01*
D02*
G37*
G36*
X8025Y9843D02*
Y9625D01*
X8243D01*
X8242Y9628D01*
X8212Y9701D01*
X8164Y9764D01*
X8101Y9812D01*
X8028Y9842D01*
X8025Y9843D01*
D02*
G37*
G36*
X9375D02*
X9372Y9842D01*
X9299Y9812D01*
X9236Y9764D01*
X9188Y9701D01*
X9158Y9628D01*
X9157Y9625D01*
X9375D01*
Y9843D01*
D02*
G37*
G36*
X8825D02*
Y9625D01*
X9043D01*
X9042Y9628D01*
X9012Y9701D01*
X8964Y9764D01*
X8901Y9812D01*
X8828Y9842D01*
X8825Y9843D01*
D02*
G37*
G36*
X8675D02*
X8672Y9842D01*
X8599Y9812D01*
X8536Y9764D01*
X8488Y9701D01*
X8458Y9628D01*
X8457Y9625D01*
X8675D01*
Y9843D01*
D02*
G37*
G36*
X7175Y10480D02*
X6973D01*
Y10356D01*
X7175D01*
Y10480D01*
D02*
G37*
G36*
X-2800Y10875D02*
X-4000D01*
Y10391D01*
X-4000Y10350D01*
X-4000Y10350D01*
X-4005Y10302D01*
X-4029Y10299D01*
X-4078Y10292D01*
X-4151Y10262D01*
X-4214Y10214D01*
X-4262Y10151D01*
X-4292Y10078D01*
X-4293Y10075D01*
X-3707D01*
X-3708Y10078D01*
X-3738Y10151D01*
X-3786Y10214D01*
X-3849Y10262D01*
X-3922Y10292D01*
X-3980Y10300D01*
X-3977Y10350D01*
X-3950Y10350D01*
X-3273D01*
X-3270Y10300D01*
X-3279Y10299D01*
X-3328Y10292D01*
X-3401Y10262D01*
X-3464Y10214D01*
X-3512Y10151D01*
X-3542Y10078D01*
X-3543Y10075D01*
X-2957D01*
X-2958Y10078D01*
X-2988Y10151D01*
X-3036Y10214D01*
X-3099Y10262D01*
X-3172Y10292D01*
X-3221Y10299D01*
X-3230Y10300D01*
X-3227Y10350D01*
X-2800D01*
Y10875D01*
D02*
G37*
G36*
X-4675Y10293D02*
Y10075D01*
X-4457D01*
X-4458Y10078D01*
X-4488Y10151D01*
X-4536Y10214D01*
X-4599Y10262D01*
X-4672Y10292D01*
X-4675Y10293D01*
D02*
G37*
G36*
X7527Y10480D02*
X7325D01*
Y10356D01*
X7527D01*
Y10480D01*
D02*
G37*
G36*
X8575D02*
X8373D01*
Y10356D01*
X8575D01*
Y10480D01*
D02*
G37*
G36*
X8227D02*
X8025D01*
Y10356D01*
X8227D01*
Y10480D01*
D02*
G37*
G36*
X7875D02*
X7673D01*
Y10356D01*
X7875D01*
Y10480D01*
D02*
G37*
G36*
X-4825Y10293D02*
X-4828Y10292D01*
X-4901Y10262D01*
X-4964Y10214D01*
X-5012Y10151D01*
X-5042Y10078D01*
X-5043Y10075D01*
X-4825D01*
Y10293D01*
D02*
G37*
G36*
X-2957Y9925D02*
X-3175D01*
Y9707D01*
X-3172Y9708D01*
X-3099Y9738D01*
X-3036Y9786D01*
X-2988Y9849D01*
X-2958Y9922D01*
X-2957Y9925D01*
D02*
G37*
G36*
X-3325D02*
X-3543D01*
X-3542Y9922D01*
X-3512Y9849D01*
X-3464Y9786D01*
X-3401Y9738D01*
X-3328Y9708D01*
X-3325Y9707D01*
Y9925D01*
D02*
G37*
G36*
X-3707D02*
X-3925D01*
Y9707D01*
X-3922Y9708D01*
X-3849Y9738D01*
X-3786Y9786D01*
X-3738Y9849D01*
X-3708Y9922D01*
X-3707Y9925D01*
D02*
G37*
G36*
X-6325Y10293D02*
X-6328Y10292D01*
X-6401Y10262D01*
X-6464Y10214D01*
X-6512Y10151D01*
X-6542Y10078D01*
X-6543Y10075D01*
X-6325D01*
Y10293D01*
D02*
G37*
G36*
X-5425D02*
Y10075D01*
X-5207D01*
X-5208Y10078D01*
X-5238Y10151D01*
X-5286Y10214D01*
X-5349Y10262D01*
X-5422Y10292D01*
X-5425Y10293D01*
D02*
G37*
G36*
X-5575D02*
X-5578Y10292D01*
X-5651Y10262D01*
X-5714Y10214D01*
X-5762Y10151D01*
X-5792Y10078D01*
X-5793Y10075D01*
X-5575D01*
Y10293D01*
D02*
G37*
G36*
X-6175D02*
Y10075D01*
X-5957D01*
X-5958Y10078D01*
X-5988Y10151D01*
X-6036Y10214D01*
X-6099Y10262D01*
X-6172Y10292D01*
X-6175Y10293D01*
D02*
G37*
G36*
X10425Y3425D02*
X10207D01*
X10208Y3422D01*
X10238Y3349D01*
X10286Y3286D01*
X10349Y3238D01*
X10422Y3208D01*
X10425Y3207D01*
Y3425D01*
D02*
G37*
G36*
X10043D02*
X9825D01*
Y3207D01*
X9828Y3208D01*
X9901Y3238D01*
X9964Y3286D01*
X10012Y3349D01*
X10042Y3422D01*
X10043Y3425D01*
D02*
G37*
G36*
X9675D02*
X9457D01*
X9458Y3422D01*
X9488Y3349D01*
X9536Y3286D01*
X9599Y3238D01*
X9672Y3208D01*
X9675Y3207D01*
Y3425D01*
D02*
G37*
G36*
X10793D02*
X10575D01*
Y3207D01*
X10578Y3208D01*
X10651Y3238D01*
X10714Y3286D01*
X10762Y3349D01*
X10792Y3422D01*
X10793Y3425D01*
D02*
G37*
G36*
X11925D02*
X11707D01*
X11708Y3422D01*
X11738Y3349D01*
X11786Y3286D01*
X11849Y3238D01*
X11922Y3208D01*
X11925Y3207D01*
Y3425D01*
D02*
G37*
G36*
X11543D02*
X11325D01*
Y3207D01*
X11328Y3208D01*
X11401Y3238D01*
X11464Y3286D01*
X11512Y3349D01*
X11542Y3422D01*
X11543Y3425D01*
D02*
G37*
G36*
X11175D02*
X10957D01*
X10958Y3422D01*
X10988Y3349D01*
X11036Y3286D01*
X11099Y3238D01*
X11172Y3208D01*
X11175Y3207D01*
Y3425D01*
D02*
G37*
G36*
X5075Y3293D02*
Y3075D01*
X5293D01*
X5292Y3078D01*
X5262Y3151D01*
X5214Y3214D01*
X5151Y3262D01*
X5078Y3292D01*
X5075Y3293D01*
D02*
G37*
G36*
X-9575D02*
X-9578Y3292D01*
X-9651Y3262D01*
X-9714Y3214D01*
X-9762Y3151D01*
X-9792Y3078D01*
X-9793Y3075D01*
X-9575D01*
Y3293D01*
D02*
G37*
G36*
X5293Y2925D02*
X5075D01*
Y2707D01*
X5078Y2708D01*
X5151Y2738D01*
X5214Y2786D01*
X5262Y2849D01*
X5292Y2922D01*
X5293Y2925D01*
D02*
G37*
G36*
X4925D02*
X4707D01*
X4708Y2922D01*
X4738Y2849D01*
X4786Y2786D01*
X4849Y2738D01*
X4922Y2708D01*
X4925Y2707D01*
Y2925D01*
D02*
G37*
G36*
X-9425Y3293D02*
Y3075D01*
X-9207D01*
X-9208Y3078D01*
X-9238Y3151D01*
X-9286Y3214D01*
X-9349Y3262D01*
X-9422Y3292D01*
X-9425Y3293D01*
D02*
G37*
G36*
X4925D02*
X4922Y3292D01*
X4849Y3262D01*
X4786Y3214D01*
X4738Y3151D01*
X4708Y3078D01*
X4707Y3075D01*
X4925D01*
Y3293D01*
D02*
G37*
G36*
X-4925D02*
Y3075D01*
X-4707D01*
X-4708Y3078D01*
X-4738Y3151D01*
X-4786Y3214D01*
X-4849Y3262D01*
X-4922Y3292D01*
X-4925Y3293D01*
D02*
G37*
G36*
X-5075D02*
X-5078Y3292D01*
X-5151Y3262D01*
X-5214Y3214D01*
X-5262Y3151D01*
X-5292Y3078D01*
X-5293Y3075D01*
X-5075D01*
Y3293D01*
D02*
G37*
G36*
X8371Y4649D02*
X7752D01*
Y3644D01*
X7813Y3650D01*
X7943Y3690D01*
X8063Y3754D01*
X8168Y3840D01*
X8254Y3945D01*
X8318Y4065D01*
X8358Y4195D01*
X8371Y4331D01*
Y4649D01*
D02*
G37*
G36*
X7602D02*
X6983D01*
Y4331D01*
X6997Y4195D01*
X7036Y4065D01*
X7100Y3945D01*
X7187Y3840D01*
X7292Y3754D01*
X7412Y3690D01*
X7542Y3650D01*
X7602Y3644D01*
Y4649D01*
D02*
G37*
G36*
X12075Y3793D02*
Y3575D01*
X12293D01*
X12292Y3578D01*
X12262Y3651D01*
X12214Y3714D01*
X12151Y3762D01*
X12078Y3792D01*
X12075Y3793D01*
D02*
G37*
G36*
X-5075Y3925D02*
X-5293D01*
X-5292Y3922D01*
X-5262Y3849D01*
X-5214Y3786D01*
X-5151Y3738D01*
X-5078Y3708D01*
X-5075Y3707D01*
Y3925D01*
D02*
G37*
G36*
X5293D02*
X5075D01*
Y3707D01*
X5078Y3708D01*
X5151Y3738D01*
X5214Y3786D01*
X5262Y3849D01*
X5292Y3922D01*
X5293Y3925D01*
D02*
G37*
G36*
X4925D02*
X4707D01*
X4708Y3922D01*
X4738Y3849D01*
X4786Y3786D01*
X4849Y3738D01*
X4922Y3708D01*
X4925Y3707D01*
Y3925D01*
D02*
G37*
G36*
X-4707D02*
X-4925D01*
Y3707D01*
X-4922Y3708D01*
X-4849Y3738D01*
X-4786Y3786D01*
X-4738Y3849D01*
X-4708Y3922D01*
X-4707Y3925D01*
D02*
G37*
G36*
X11925Y3793D02*
X11922Y3792D01*
X11849Y3762D01*
X11786Y3714D01*
X11738Y3651D01*
X11708Y3578D01*
X11707Y3575D01*
X11925D01*
Y3793D01*
D02*
G37*
G36*
X9825D02*
Y3575D01*
X10043D01*
X10042Y3578D01*
X10012Y3651D01*
X9964Y3714D01*
X9901Y3762D01*
X9828Y3792D01*
X9825Y3793D01*
D02*
G37*
G36*
X9675D02*
X9672Y3792D01*
X9599Y3762D01*
X9536Y3714D01*
X9488Y3651D01*
X9458Y3578D01*
X9457Y3575D01*
X9675D01*
Y3793D01*
D02*
G37*
G36*
X12293Y3425D02*
X12075D01*
Y3207D01*
X12078Y3208D01*
X12151Y3238D01*
X12214Y3286D01*
X12262Y3349D01*
X12292Y3422D01*
X12293Y3425D01*
D02*
G37*
G36*
X10425Y3793D02*
X10422Y3792D01*
X10349Y3762D01*
X10286Y3714D01*
X10238Y3651D01*
X10208Y3578D01*
X10207Y3575D01*
X10425D01*
Y3793D01*
D02*
G37*
G36*
X11325D02*
Y3575D01*
X11543D01*
X11542Y3578D01*
X11512Y3651D01*
X11464Y3714D01*
X11401Y3762D01*
X11328Y3792D01*
X11325Y3793D01*
D02*
G37*
G36*
X11175D02*
X11172Y3792D01*
X11099Y3762D01*
X11036Y3714D01*
X10988Y3651D01*
X10958Y3578D01*
X10957Y3575D01*
X11175D01*
Y3793D01*
D02*
G37*
G36*
X10575D02*
Y3575D01*
X10793D01*
X10792Y3578D01*
X10762Y3651D01*
X10714Y3714D01*
X10651Y3762D01*
X10578Y3792D01*
X10575Y3793D01*
D02*
G37*
G36*
X-4707Y2925D02*
X-4925D01*
Y2707D01*
X-4922Y2708D01*
X-4849Y2738D01*
X-4786Y2786D01*
X-4738Y2849D01*
X-4708Y2922D01*
X-4707Y2925D01*
D02*
G37*
G36*
Y1925D02*
X-4925D01*
Y1707D01*
X-4922Y1708D01*
X-4849Y1738D01*
X-4786Y1786D01*
X-4738Y1849D01*
X-4708Y1922D01*
X-4707Y1925D01*
D02*
G37*
G36*
X-5075D02*
X-5293D01*
X-5292Y1922D01*
X-5262Y1849D01*
X-5214Y1786D01*
X-5151Y1738D01*
X-5078Y1708D01*
X-5075Y1707D01*
Y1925D01*
D02*
G37*
G36*
X-9425Y1793D02*
Y1575D01*
X-9207D01*
X-9208Y1578D01*
X-9238Y1651D01*
X-9286Y1714D01*
X-9349Y1762D01*
X-9422Y1792D01*
X-9425Y1793D01*
D02*
G37*
G36*
X4925Y1925D02*
X4707D01*
X4708Y1922D01*
X4738Y1849D01*
X4786Y1786D01*
X4849Y1738D01*
X4922Y1708D01*
X4925Y1707D01*
Y1925D01*
D02*
G37*
G36*
X-9207Y2175D02*
X-9425D01*
Y1957D01*
X-9422Y1958D01*
X-9349Y1988D01*
X-9286Y2036D01*
X-9238Y2099D01*
X-9208Y2172D01*
X-9207Y2175D01*
D02*
G37*
G36*
X-9575D02*
X-9793D01*
X-9792Y2172D01*
X-9762Y2099D01*
X-9714Y2036D01*
X-9651Y1988D01*
X-9578Y1958D01*
X-9575Y1957D01*
Y2175D01*
D02*
G37*
G36*
X5293Y1925D02*
X5075D01*
Y1707D01*
X5078Y1708D01*
X5151Y1738D01*
X5214Y1786D01*
X5262Y1849D01*
X5292Y1922D01*
X5293Y1925D01*
D02*
G37*
G36*
X-9575Y1793D02*
X-9578Y1792D01*
X-9651Y1762D01*
X-9714Y1714D01*
X-9762Y1651D01*
X-9792Y1578D01*
X-9793Y1575D01*
X-9575D01*
Y1793D01*
D02*
G37*
G36*
X5075Y1293D02*
Y1075D01*
X5293D01*
X5292Y1078D01*
X5262Y1151D01*
X5214Y1214D01*
X5151Y1262D01*
X5078Y1292D01*
X5075Y1293D01*
D02*
G37*
G36*
X4925D02*
X4922Y1292D01*
X4849Y1262D01*
X4786Y1214D01*
X4738Y1151D01*
X4708Y1078D01*
X4707Y1075D01*
X4925D01*
Y1293D01*
D02*
G37*
G36*
X-4925D02*
Y1075D01*
X-4707D01*
X-4708Y1078D01*
X-4738Y1151D01*
X-4786Y1214D01*
X-4849Y1262D01*
X-4922Y1292D01*
X-4925Y1293D01*
D02*
G37*
G36*
X-9575Y1425D02*
X-9793D01*
X-9792Y1422D01*
X-9762Y1349D01*
X-9714Y1286D01*
X-9651Y1238D01*
X-9578Y1208D01*
X-9575Y1207D01*
Y1425D01*
D02*
G37*
G36*
X10293Y1925D02*
X9707D01*
X9708Y1922D01*
X9738Y1849D01*
X9786Y1786D01*
X9849Y1738D01*
X9922Y1708D01*
X9979Y1700D01*
Y1650D01*
X9922Y1642D01*
X9849Y1612D01*
X9786Y1564D01*
X9738Y1501D01*
X9708Y1428D01*
X9707Y1425D01*
X10293D01*
X10292Y1428D01*
X10262Y1501D01*
X10214Y1564D01*
X10151Y1612D01*
X10078Y1642D01*
X10021Y1650D01*
Y1700D01*
X10078Y1708D01*
X10151Y1738D01*
X10214Y1786D01*
X10262Y1849D01*
X10292Y1922D01*
X10293Y1925D01*
D02*
G37*
G36*
X9543D02*
X8957D01*
X8958Y1922D01*
X8988Y1849D01*
X9036Y1786D01*
X9099Y1738D01*
X9172Y1708D01*
X9229Y1700D01*
Y1650D01*
X9172Y1642D01*
X9099Y1612D01*
X9036Y1564D01*
X8988Y1501D01*
X8958Y1428D01*
X8957Y1425D01*
X9543D01*
X9542Y1428D01*
X9512Y1501D01*
X9464Y1564D01*
X9401Y1612D01*
X9328Y1642D01*
X9271Y1650D01*
Y1700D01*
X9328Y1708D01*
X9401Y1738D01*
X9464Y1786D01*
X9512Y1849D01*
X9542Y1922D01*
X9543Y1925D01*
D02*
G37*
G36*
X-9207Y1425D02*
X-9425D01*
Y1207D01*
X-9422Y1208D01*
X-9349Y1238D01*
X-9286Y1286D01*
X-9238Y1349D01*
X-9208Y1422D01*
X-9207Y1425D01*
D02*
G37*
G36*
X11425Y2575D02*
X11207D01*
X11208Y2572D01*
X11238Y2499D01*
X11286Y2436D01*
X11349Y2388D01*
X11422Y2358D01*
X11425Y2357D01*
Y2575D01*
D02*
G37*
G36*
X11043D02*
X10825D01*
Y2357D01*
X10828Y2358D01*
X10901Y2388D01*
X10964Y2436D01*
X11012Y2499D01*
X11042Y2572D01*
X11043Y2575D01*
D02*
G37*
G36*
X10675D02*
X10457D01*
X10458Y2572D01*
X10488Y2499D01*
X10536Y2436D01*
X10599Y2388D01*
X10672Y2358D01*
X10675Y2357D01*
Y2575D01*
D02*
G37*
G36*
X11793D02*
X11575D01*
Y2357D01*
X11578Y2358D01*
X11651Y2388D01*
X11714Y2436D01*
X11762Y2499D01*
X11792Y2572D01*
X11793Y2575D01*
D02*
G37*
G36*
X-5075Y2925D02*
X-5293D01*
X-5292Y2922D01*
X-5262Y2849D01*
X-5214Y2786D01*
X-5151Y2738D01*
X-5078Y2708D01*
X-5075Y2707D01*
Y2925D01*
D02*
G37*
G36*
X-9207D02*
X-9425D01*
Y2707D01*
X-9422Y2708D01*
X-9349Y2738D01*
X-9286Y2786D01*
X-9238Y2849D01*
X-9208Y2922D01*
X-9207Y2925D01*
D02*
G37*
G36*
X-9575D02*
X-9793D01*
X-9792Y2922D01*
X-9762Y2849D01*
X-9714Y2786D01*
X-9651Y2738D01*
X-9578Y2708D01*
X-9575Y2707D01*
Y2925D01*
D02*
G37*
G36*
X-9425Y2543D02*
Y2325D01*
X-9207D01*
X-9208Y2328D01*
X-9238Y2401D01*
X-9286Y2464D01*
X-9349Y2512D01*
X-9422Y2542D01*
X-9425Y2543D01*
D02*
G37*
G36*
X4925Y2293D02*
X4922Y2292D01*
X4849Y2262D01*
X4786Y2214D01*
X4738Y2151D01*
X4708Y2078D01*
X4707Y2075D01*
X4925D01*
Y2293D01*
D02*
G37*
G36*
X-4925D02*
Y2075D01*
X-4707D01*
X-4708Y2078D01*
X-4738Y2151D01*
X-4786Y2214D01*
X-4849Y2262D01*
X-4922Y2292D01*
X-4925Y2293D01*
D02*
G37*
G36*
X-5075D02*
X-5078Y2292D01*
X-5151Y2262D01*
X-5214Y2214D01*
X-5262Y2151D01*
X-5292Y2078D01*
X-5293Y2075D01*
X-5075D01*
Y2293D01*
D02*
G37*
G36*
X5075D02*
Y2075D01*
X5293D01*
X5292Y2078D01*
X5262Y2151D01*
X5214Y2214D01*
X5151Y2262D01*
X5078Y2292D01*
X5075Y2293D01*
D02*
G37*
G36*
X-9575Y2543D02*
X-9578Y2542D01*
X-9651Y2512D01*
X-9714Y2464D01*
X-9762Y2401D01*
X-9792Y2328D01*
X-9793Y2325D01*
X-9575D01*
Y2543D01*
D02*
G37*
G36*
X10293Y2575D02*
X9707D01*
X9708Y2572D01*
X9738Y2499D01*
X9786Y2436D01*
X9849Y2388D01*
X9922Y2358D01*
X9979Y2350D01*
Y2300D01*
X9922Y2292D01*
X9849Y2262D01*
X9786Y2214D01*
X9738Y2151D01*
X9708Y2078D01*
X9707Y2075D01*
X10293D01*
X10292Y2078D01*
X10262Y2151D01*
X10214Y2214D01*
X10151Y2262D01*
X10078Y2292D01*
X10021Y2300D01*
Y2350D01*
X10078Y2358D01*
X10151Y2388D01*
X10214Y2436D01*
X10262Y2499D01*
X10292Y2572D01*
X10293Y2575D01*
D02*
G37*
G36*
X9543D02*
X8957D01*
X8958Y2572D01*
X8988Y2499D01*
X9036Y2436D01*
X9099Y2388D01*
X9172Y2358D01*
X9229Y2350D01*
Y2300D01*
X9172Y2292D01*
X9099Y2262D01*
X9036Y2214D01*
X8988Y2151D01*
X8958Y2078D01*
X8957Y2075D01*
X9543D01*
X9542Y2078D01*
X9512Y2151D01*
X9464Y2214D01*
X9401Y2262D01*
X9328Y2292D01*
X9271Y2300D01*
Y2350D01*
X9328Y2358D01*
X9401Y2388D01*
X9464Y2436D01*
X9512Y2499D01*
X9542Y2572D01*
X9543Y2575D01*
D02*
G37*
G36*
X2925Y5293D02*
X2922Y5292D01*
X2849Y5262D01*
X2786Y5214D01*
X2738Y5151D01*
X2708Y5078D01*
X2707Y5075D01*
X2925D01*
Y5293D01*
D02*
G37*
G36*
X2075D02*
Y5075D01*
X2293D01*
X2292Y5078D01*
X2262Y5151D01*
X2214Y5214D01*
X2151Y5262D01*
X2078Y5292D01*
X2075Y5293D01*
D02*
G37*
G36*
X1925D02*
X1922Y5292D01*
X1849Y5262D01*
X1786Y5214D01*
X1738Y5151D01*
X1708Y5078D01*
X1707Y5075D01*
X1925D01*
Y5293D01*
D02*
G37*
G36*
X3075D02*
Y5075D01*
X3293D01*
X3292Y5078D01*
X3262Y5151D01*
X3214Y5214D01*
X3151Y5262D01*
X3078Y5292D01*
X3075Y5293D01*
D02*
G37*
G36*
X-1527Y7925D02*
X-1739D01*
Y6837D01*
X-1527D01*
Y7925D01*
D02*
G37*
G36*
X4075Y5293D02*
Y5075D01*
X4293D01*
X4292Y5078D01*
X4262Y5151D01*
X4214Y5214D01*
X4151Y5262D01*
X4078Y5292D01*
X4075Y5293D01*
D02*
G37*
G36*
X3925D02*
X3922Y5292D01*
X3849Y5262D01*
X3786Y5214D01*
X3738Y5151D01*
X3708Y5078D01*
X3707Y5075D01*
X3925D01*
Y5293D01*
D02*
G37*
G36*
X1075D02*
Y5075D01*
X1293D01*
X1292Y5078D01*
X1262Y5151D01*
X1214Y5214D01*
X1151Y5262D01*
X1078Y5292D01*
X1075Y5293D01*
D02*
G37*
G36*
X-1075D02*
X-1078Y5292D01*
X-1151Y5262D01*
X-1214Y5214D01*
X-1262Y5151D01*
X-1292Y5078D01*
X-1293Y5075D01*
X-1075D01*
Y5293D01*
D02*
G37*
G36*
X-1925D02*
Y5075D01*
X-1707D01*
X-1708Y5078D01*
X-1738Y5151D01*
X-1786Y5214D01*
X-1849Y5262D01*
X-1922Y5292D01*
X-1925Y5293D01*
D02*
G37*
G36*
X-2075D02*
X-2078Y5292D01*
X-2151Y5262D01*
X-2214Y5214D01*
X-2262Y5151D01*
X-2292Y5078D01*
X-2293Y5075D01*
X-2075D01*
Y5293D01*
D02*
G37*
G36*
X-925D02*
Y5075D01*
X-707D01*
X-708Y5078D01*
X-738Y5151D01*
X-786Y5214D01*
X-849Y5262D01*
X-922Y5292D01*
X-925Y5293D01*
D02*
G37*
G36*
X925D02*
X922Y5292D01*
X849Y5262D01*
X786Y5214D01*
X738Y5151D01*
X708Y5078D01*
X707Y5075D01*
X925D01*
Y5293D01*
D02*
G37*
G36*
X75D02*
Y5075D01*
X293D01*
X292Y5078D01*
X262Y5151D01*
X214Y5214D01*
X151Y5262D01*
X78Y5292D01*
X75Y5293D01*
D02*
G37*
G36*
X-75D02*
X-78Y5292D01*
X-151Y5262D01*
X-214Y5214D01*
X-262Y5151D01*
X-292Y5078D01*
X-293Y5075D01*
X-75D01*
Y5293D01*
D02*
G37*
G36*
X8243Y7925D02*
X8025D01*
Y7707D01*
X8028Y7708D01*
X8101Y7738D01*
X8164Y7786D01*
X8212Y7849D01*
X8242Y7922D01*
X8243Y7925D01*
D02*
G37*
G36*
X7875D02*
X7657D01*
X7658Y7922D01*
X7688Y7849D01*
X7736Y7786D01*
X7799Y7738D01*
X7872Y7708D01*
X7875Y7707D01*
Y7925D01*
D02*
G37*
G36*
X-5810Y7682D02*
X-6144D01*
X-6214Y7668D01*
X-6273Y7628D01*
X-6312Y7569D01*
X-6326Y7500D01*
X-6312Y7431D01*
X-6273Y7372D01*
X-6214Y7332D01*
X-6144Y7318D01*
X-5810D01*
X-5740Y7332D01*
X-5681Y7372D01*
X-5642Y7431D01*
X-5628Y7500D01*
X-5642Y7569D01*
X-5681Y7628D01*
X-5740Y7668D01*
X-5810Y7682D01*
D02*
G37*
G36*
X8675Y7925D02*
X8457D01*
X8458Y7922D01*
X8488Y7849D01*
X8536Y7786D01*
X8599Y7738D01*
X8672Y7708D01*
X8675Y7707D01*
Y7925D01*
D02*
G37*
G36*
X9743D02*
X9525D01*
Y7707D01*
X9528Y7708D01*
X9601Y7738D01*
X9664Y7786D01*
X9712Y7849D01*
X9742Y7922D01*
X9743Y7925D01*
D02*
G37*
G36*
X9375D02*
X9157D01*
X9158Y7922D01*
X9188Y7849D01*
X9236Y7786D01*
X9299Y7738D01*
X9372Y7708D01*
X9375Y7707D01*
Y7925D01*
D02*
G37*
G36*
X9043D02*
X8825D01*
Y7707D01*
X8828Y7708D01*
X8901Y7738D01*
X8964Y7786D01*
X9012Y7849D01*
X9042Y7922D01*
X9043Y7925D01*
D02*
G37*
G36*
X-7956Y7682D02*
X-8290D01*
X-8360Y7668D01*
X-8419Y7628D01*
X-8458Y7569D01*
X-8472Y7500D01*
X-8458Y7431D01*
X-8419Y7372D01*
X-8360Y7332D01*
X-8290Y7318D01*
X-7956D01*
X-7886Y7332D01*
X-7827Y7372D01*
X-7788Y7431D01*
X-7774Y7500D01*
X-7788Y7569D01*
X-7827Y7628D01*
X-7886Y7668D01*
X-7956Y7682D01*
D02*
G37*
G36*
X1139Y7925D02*
X927D01*
Y6837D01*
X1139D01*
Y7925D01*
D02*
G37*
G36*
X777D02*
X565D01*
Y6837D01*
X777D01*
Y7925D01*
D02*
G37*
G36*
X-1165D02*
X-1377D01*
Y6837D01*
X-1165D01*
Y7925D01*
D02*
G37*
G36*
X4884Y7725D02*
X3916D01*
Y7011D01*
X4884D01*
Y7725D01*
D02*
G37*
G36*
X3534Y7286D02*
X3332D01*
Y7202D01*
X3534D01*
Y7286D01*
D02*
G37*
G36*
X7384Y7725D02*
X6975D01*
Y7011D01*
X7384D01*
Y7725D01*
D02*
G37*
G36*
X6825D02*
X6416D01*
Y7011D01*
X6825D01*
Y7725D01*
D02*
G37*
G36*
X-2925Y5293D02*
Y5075D01*
X-2707D01*
X-2708Y5078D01*
X-2738Y5151D01*
X-2786Y5214D01*
X-2849Y5262D01*
X-2922Y5292D01*
X-2925Y5293D01*
D02*
G37*
G36*
X-1707Y4925D02*
X-1925D01*
Y4707D01*
X-1922Y4708D01*
X-1849Y4738D01*
X-1786Y4786D01*
X-1738Y4849D01*
X-1708Y4922D01*
X-1707Y4925D01*
D02*
G37*
G36*
X-2075D02*
X-2293D01*
X-2292Y4922D01*
X-2262Y4849D01*
X-2214Y4786D01*
X-2151Y4738D01*
X-2078Y4708D01*
X-2075Y4707D01*
Y4925D01*
D02*
G37*
G36*
X-2707D02*
X-2925D01*
Y4707D01*
X-2922Y4708D01*
X-2849Y4738D01*
X-2786Y4786D01*
X-2738Y4849D01*
X-2708Y4922D01*
X-2707Y4925D01*
D02*
G37*
G36*
X-1075D02*
X-1293D01*
X-1292Y4922D01*
X-1262Y4849D01*
X-1214Y4786D01*
X-1151Y4738D01*
X-1078Y4708D01*
X-1075Y4707D01*
Y4925D01*
D02*
G37*
G36*
X293D02*
X75D01*
Y4707D01*
X78Y4708D01*
X151Y4738D01*
X214Y4786D01*
X262Y4849D01*
X292Y4922D01*
X293Y4925D01*
D02*
G37*
G36*
X-75D02*
X-293D01*
X-292Y4922D01*
X-262Y4849D01*
X-214Y4786D01*
X-151Y4738D01*
X-78Y4708D01*
X-75Y4707D01*
Y4925D01*
D02*
G37*
G36*
X-707D02*
X-925D01*
Y4707D01*
X-922Y4708D01*
X-849Y4738D01*
X-786Y4786D01*
X-738Y4849D01*
X-708Y4922D01*
X-707Y4925D01*
D02*
G37*
G36*
X-3075D02*
X-3293D01*
X-3292Y4922D01*
X-3262Y4849D01*
X-3214Y4786D01*
X-3151Y4738D01*
X-3078Y4708D01*
X-3075Y4707D01*
Y4925D01*
D02*
G37*
G36*
X5358Y5625D02*
X5224Y5612D01*
X5095Y5573D01*
X4976Y5509D01*
X4872Y5424D01*
X4786Y5319D01*
X4722Y5200D01*
X4683Y5071D01*
X4670Y4937D01*
X4683Y4803D01*
X4722Y4674D01*
X4786Y4555D01*
X4872Y4450D01*
X4976Y4365D01*
X5002Y4351D01*
X5001Y4338D01*
X4989Y4301D01*
X4922Y4292D01*
X4849Y4262D01*
X4786Y4214D01*
X4738Y4151D01*
X4708Y4078D01*
X4707Y4075D01*
X5293D01*
X5292Y4078D01*
X5262Y4151D01*
X5214Y4214D01*
X5213Y4214D01*
X5216Y4228D01*
X5235Y4261D01*
X5358Y4249D01*
X5493Y4262D01*
X5622Y4301D01*
X5741Y4365D01*
X5845Y4450D01*
X5931Y4555D01*
X5994Y4674D01*
X6033Y4803D01*
X6047Y4937D01*
X6033Y5071D01*
X5994Y5200D01*
X5931Y5319D01*
X5845Y5424D01*
X5741Y5509D01*
X5622Y5573D01*
X5493Y5612D01*
X5358Y5625D01*
D02*
G37*
G36*
X-4925Y4293D02*
Y4075D01*
X-4707D01*
X-4708Y4078D01*
X-4738Y4151D01*
X-4786Y4214D01*
X-4849Y4262D01*
X-4922Y4292D01*
X-4925Y4293D01*
D02*
G37*
G36*
X-5075D02*
X-5078Y4292D01*
X-5151Y4262D01*
X-5214Y4214D01*
X-5262Y4151D01*
X-5292Y4078D01*
X-5293Y4075D01*
X-5075D01*
Y4293D01*
D02*
G37*
G36*
Y4925D02*
X-5293D01*
X-5292Y4922D01*
X-5262Y4849D01*
X-5214Y4786D01*
X-5151Y4738D01*
X-5078Y4708D01*
X-5075Y4707D01*
Y4925D01*
D02*
G37*
G36*
X-3707D02*
X-3925D01*
Y4707D01*
X-3922Y4708D01*
X-3849Y4738D01*
X-3786Y4786D01*
X-3738Y4849D01*
X-3708Y4922D01*
X-3707Y4925D01*
D02*
G37*
G36*
X-4075D02*
X-4293D01*
X-4292Y4922D01*
X-4262Y4849D01*
X-4214Y4786D01*
X-4151Y4738D01*
X-4078Y4708D01*
X-4075Y4707D01*
Y4925D01*
D02*
G37*
G36*
X-4707D02*
X-4925D01*
Y4707D01*
X-4922Y4708D01*
X-4849Y4738D01*
X-4786Y4786D01*
X-4738Y4849D01*
X-4708Y4922D01*
X-4707Y4925D01*
D02*
G37*
G36*
X-5075Y5293D02*
X-5078Y5292D01*
X-5151Y5262D01*
X-5214Y5214D01*
X-5262Y5151D01*
X-5292Y5078D01*
X-5293Y5075D01*
X-5075D01*
Y5293D01*
D02*
G37*
G36*
X7752Y5805D02*
Y4799D01*
X8371D01*
Y5118D01*
X8358Y5253D01*
X8318Y5384D01*
X8254Y5504D01*
X8168Y5609D01*
X8063Y5695D01*
X7943Y5759D01*
X7813Y5799D01*
X7752Y5805D01*
D02*
G37*
G36*
X7602D02*
X7542Y5799D01*
X7412Y5759D01*
X7292Y5695D01*
X7187Y5609D01*
X7100Y5504D01*
X7036Y5384D01*
X6997Y5253D01*
X6983Y5118D01*
Y4799D01*
X7602D01*
Y5805D01*
D02*
G37*
G36*
X-4925Y5293D02*
Y5075D01*
X-4707D01*
X-4708Y5078D01*
X-4738Y5151D01*
X-4786Y5214D01*
X-4849Y5262D01*
X-4922Y5292D01*
X-4925Y5293D01*
D02*
G37*
G36*
X-3075D02*
X-3078Y5292D01*
X-3151Y5262D01*
X-3214Y5214D01*
X-3262Y5151D01*
X-3292Y5078D01*
X-3293Y5075D01*
X-3075D01*
Y5293D01*
D02*
G37*
G36*
X-3925D02*
Y5075D01*
X-3707D01*
X-3708Y5078D01*
X-3738Y5151D01*
X-3786Y5214D01*
X-3849Y5262D01*
X-3922Y5292D01*
X-3925Y5293D01*
D02*
G37*
G36*
X-4075D02*
X-4078Y5292D01*
X-4151Y5262D01*
X-4214Y5214D01*
X-4262Y5151D01*
X-4292Y5078D01*
X-4293Y5075D01*
X-4075D01*
Y5293D01*
D02*
G37*
G36*
X4293Y4925D02*
X4075D01*
Y4707D01*
X4078Y4708D01*
X4151Y4738D01*
X4214Y4786D01*
X4262Y4849D01*
X4292Y4922D01*
X4293Y4925D01*
D02*
G37*
G36*
X1925D02*
X1707D01*
X1708Y4922D01*
X1738Y4849D01*
X1786Y4786D01*
X1849Y4738D01*
X1922Y4708D01*
X1925Y4707D01*
Y4925D01*
D02*
G37*
G36*
X1293D02*
X1075D01*
Y4707D01*
X1078Y4708D01*
X1151Y4738D01*
X1214Y4786D01*
X1262Y4849D01*
X1292Y4922D01*
X1293Y4925D01*
D02*
G37*
G36*
X925D02*
X707D01*
X708Y4922D01*
X738Y4849D01*
X786Y4786D01*
X849Y4738D01*
X922Y4708D01*
X925Y4707D01*
Y4925D01*
D02*
G37*
G36*
X2293D02*
X2075D01*
Y4707D01*
X2078Y4708D01*
X2151Y4738D01*
X2214Y4786D01*
X2262Y4849D01*
X2292Y4922D01*
X2293Y4925D01*
D02*
G37*
G36*
X3925D02*
X3707D01*
X3708Y4922D01*
X3738Y4849D01*
X3786Y4786D01*
X3849Y4738D01*
X3922Y4708D01*
X3925Y4707D01*
Y4925D01*
D02*
G37*
G36*
X3293D02*
X3075D01*
Y4707D01*
X3078Y4708D01*
X3151Y4738D01*
X3214Y4786D01*
X3262Y4849D01*
X3292Y4922D01*
X3293Y4925D01*
D02*
G37*
G36*
X2925D02*
X2707D01*
X2708Y4922D01*
X2738Y4849D01*
X2786Y4786D01*
X2849Y4738D01*
X2922Y4708D01*
X2925Y4707D01*
Y4925D01*
D02*
G37*
%LPD*%
D10*
X-3350Y13750D02*
G03*
X-12760Y2447I2500J-11650D01*
G01*
X-12759Y2493D02*
G03*
X-12760Y2447I11909J-393D01*
G01*
X-3350Y13750D02*
G03*
X-3553Y13705I2500J-11650D01*
G01*
X5493Y13457D02*
G03*
X4786Y13750I-707J-707D01*
G01*
X6495Y12041D02*
G03*
X6202Y12748I-1000J0D01*
G01*
X-13350Y-1800D02*
X-13250Y-1900D01*
X-13633Y-1800D02*
X-13350D01*
X-13250Y-3000D02*
Y-1900D01*
X-11913Y-1150D02*
X-10805D01*
X-10350Y-1605D01*
X-12767Y-2056D02*
X-12497Y-2326D01*
X-11913D02*
X-11176D01*
X-11087Y-2237D01*
Y-1524D01*
X-12497Y-2326D02*
X-11913D01*
X-10855Y-2700D02*
X-10350Y-2195D01*
X-10400Y-2700D02*
X-10163Y-2937D01*
Y-3200D02*
Y-2937D01*
X-11087Y-2700D02*
X-10855D01*
X-10400D01*
X-10163Y-4326D02*
Y-3200D01*
X-9474Y-3574D02*
X-9337D01*
X-9750Y-3850D02*
X-9474Y-3574D01*
X-9750Y-4950D02*
Y-3850D01*
X-9874Y-5074D02*
X-9750Y-4950D01*
X-10163Y-5074D02*
X-9874D01*
X-3350Y13750D02*
X-3350D01*
X4786D01*
X5493Y13457D02*
X6202Y12748D01*
X6495Y11550D02*
Y12041D01*
X-12760Y-950D02*
X-12755D01*
X-12760D02*
Y-757D01*
Y2447D01*
X-12767Y-1544D02*
Y-750D01*
X1643Y7361D02*
Y7558D01*
Y6900D02*
X1800D01*
X1643D02*
Y7361D01*
D11*
X-5150Y9022D02*
D03*
Y8078D02*
D03*
D12*
X-8123Y9000D02*
D03*
Y8500D02*
D03*
Y8000D02*
D03*
Y7500D02*
D03*
X-5977Y9000D02*
D03*
Y8500D02*
D03*
Y8000D02*
D03*
Y7500D02*
D03*
D13*
X-6895Y10650D02*
D03*
X-6305D02*
D03*
X5905Y11550D02*
D03*
X6495D02*
D03*
X-12755Y-950D02*
D03*
X-13345D02*
D03*
D14*
X8650Y11145D02*
D03*
Y10555D02*
D03*
X7950Y11145D02*
D03*
Y10555D02*
D03*
X7250Y11145D02*
D03*
Y10555D02*
D03*
X-10350Y-1605D02*
D03*
Y-2195D02*
D03*
D15*
X-2452Y-9100D02*
D03*
X-148D02*
D03*
X-1452Y8000D02*
D03*
X852D02*
D03*
D16*
X6900Y9340D02*
D03*
X5700D02*
D03*
X-12250Y-5090D02*
D03*
X-11050D02*
D03*
D17*
X6900Y7800D02*
D03*
X4400D02*
D03*
D18*
X1643Y8739D02*
D03*
Y8345D02*
D03*
Y7952D02*
D03*
Y7755D02*
D03*
Y7558D02*
D03*
Y7361D02*
D03*
X3257Y8739D02*
D03*
Y8345D02*
D03*
Y7952D02*
D03*
Y7755D02*
D03*
Y7558D02*
D03*
Y7361D02*
D03*
D19*
X2450Y8050D02*
D03*
D20*
X1606Y11400D02*
D03*
X4794D02*
D03*
D21*
X-11087Y-1524D02*
D03*
Y-776D02*
D03*
X-11913Y-1150D02*
D03*
Y-2326D02*
D03*
Y-3074D02*
D03*
X-11087Y-2700D02*
D03*
X-10163Y-4326D02*
D03*
Y-5074D02*
D03*
X-9337Y-4700D02*
D03*
Y-3574D02*
D03*
Y-2826D02*
D03*
X-10163Y-3200D02*
D03*
D22*
X-12767Y-1544D02*
D03*
Y-2056D02*
D03*
X-13633D02*
D03*
Y-1800D02*
D03*
Y-1544D02*
D03*
D23*
X7677Y4724D02*
D03*
X-7677Y-4724D02*
D03*
D24*
X0Y0D02*
D03*
D25*
X-7018Y9900D02*
D03*
X-8081D02*
D03*
D26*
X-3400Y10950D02*
D03*
Y12400D02*
D03*
D27*
X-5950D02*
X-3400D01*
X-8081Y10268D02*
X-5950Y12400D01*
X-8123Y9859D02*
X-8081Y9900D01*
X-8123Y9000D02*
Y9859D01*
X-6905Y10014D02*
Y10650D01*
X-7018Y9900D02*
X-6905Y10014D01*
X-8081Y9900D02*
Y10268D01*
X-12741Y-776D02*
X-11087D01*
X-12767Y-750D02*
X-12760Y-757D01*
X-12741Y-776D01*
D28*
X3008Y7558D02*
X3257D01*
X2750Y7300D02*
X3008Y7558D01*
X2100Y7300D02*
X2750D01*
X2000Y7400D02*
X2100Y7300D01*
X2000Y7400D02*
Y7700D01*
X1945Y7755D02*
X2000Y7700D01*
X1643Y7755D02*
X1945D01*
D29*
X-9337Y-4700D02*
X-7702D01*
X-7677Y-4724D01*
X-11034Y-5074D02*
X-10163D01*
D30*
X5358Y4937D02*
D03*
X-5358Y-4937D02*
D03*
D31*
X0Y-11069D02*
D03*
Y-13431D02*
D03*
X1850Y-12250D02*
D03*
D32*
X11500Y2650D02*
D03*
X10750D02*
D03*
X10000D02*
D03*
Y2000D02*
D03*
Y1350D02*
D03*
X9250D02*
D03*
Y2000D02*
D03*
Y2650D02*
D03*
X9750Y3500D02*
D03*
X10500D02*
D03*
X11250D02*
D03*
X12000D02*
D03*
X9500Y-2750D02*
D03*
X10250D02*
D03*
X11000D02*
D03*
X11750D02*
D03*
X12500D02*
D03*
X13250D02*
D03*
X14000D02*
D03*
X8750Y500D02*
D03*
X9500D02*
D03*
X10250D02*
D03*
X9250Y-1000D02*
D03*
X10000D02*
D03*
X-13250Y-3000D02*
D03*
X0Y0D02*
D03*
X-787D02*
D03*
X-1575D02*
D03*
X-2362D02*
D03*
X787D02*
D03*
X1575D02*
D03*
X2362D02*
D03*
Y-787D02*
D03*
X1575D02*
D03*
X787D02*
D03*
X-2362D02*
D03*
X-1575D02*
D03*
X-787D02*
D03*
X0D02*
D03*
X2362Y-1575D02*
D03*
X1575D02*
D03*
X787D02*
D03*
X-2362D02*
D03*
X-1575D02*
D03*
X-787D02*
D03*
X0D02*
D03*
X2362Y787D02*
D03*
X1575D02*
D03*
X787D02*
D03*
X-2362D02*
D03*
X-1575D02*
D03*
X-787D02*
D03*
X0D02*
D03*
X2362Y1575D02*
D03*
X1575D02*
D03*
X787D02*
D03*
X-2362D02*
D03*
X-1575D02*
D03*
X-787D02*
D03*
X0D02*
D03*
X2362Y2362D02*
D03*
X1575D02*
D03*
X787D02*
D03*
X-2362D02*
D03*
X-1575D02*
D03*
X-787D02*
D03*
X0D02*
D03*
X2362Y-2362D02*
D03*
X1575D02*
D03*
X787D02*
D03*
X-2362D02*
D03*
X-1575D02*
D03*
X-787D02*
D03*
X0D02*
D03*
X10000Y-1750D02*
D03*
X9250D02*
D03*
Y-250D02*
D03*
X10000D02*
D03*
X7950Y9550D02*
D03*
X8750D02*
D03*
X7950Y8800D02*
D03*
X8750D02*
D03*
X7950Y8000D02*
D03*
X8750D02*
D03*
X9450Y9550D02*
D03*
Y8800D02*
D03*
Y8000D02*
D03*
X-4000Y5000D02*
D03*
X-3000D02*
D03*
X-2000D02*
D03*
X-1000D02*
D03*
X0D02*
D03*
X1000D02*
D03*
X2000D02*
D03*
X3000D02*
D03*
X4000D02*
D03*
X-5000D02*
D03*
Y4000D02*
D03*
Y3000D02*
D03*
Y2000D02*
D03*
Y1000D02*
D03*
Y0D02*
D03*
Y-1000D02*
D03*
Y-2000D02*
D03*
Y-3000D02*
D03*
Y-4000D02*
D03*
X5000D02*
D03*
Y-3000D02*
D03*
Y-2000D02*
D03*
Y-1000D02*
D03*
Y0D02*
D03*
Y1000D02*
D03*
Y2000D02*
D03*
Y3000D02*
D03*
Y4000D02*
D03*
Y-5000D02*
D03*
X4000D02*
D03*
X3000D02*
D03*
X2000D02*
D03*
X1000D02*
D03*
X0D02*
D03*
X-1000D02*
D03*
X-2000D02*
D03*
X-3000D02*
D03*
X-4000D02*
D03*
X1800Y6900D02*
D03*
X4800Y9050D02*
D03*
X3850D02*
D03*
X2500D02*
D03*
X-13250Y-4750D02*
D03*
Y-5500D02*
D03*
Y-4000D02*
D03*
X-12500Y-6750D02*
D03*
X-11750D02*
D03*
X-11000D02*
D03*
X-10250D02*
D03*
X-12500Y-4000D02*
D03*
X-11000D02*
D03*
X-8500Y-2750D02*
D03*
Y-3500D02*
D03*
X-9500Y-6750D02*
D03*
Y1500D02*
D03*
Y750D02*
D03*
Y2250D02*
D03*
Y3000D02*
D03*
Y0D02*
D03*
Y-750D02*
D03*
X-4750Y10000D02*
D03*
X-4000D02*
D03*
X-3250D02*
D03*
X-6250D02*
D03*
X-5500D02*
D03*
D33*
X2233Y8483D02*
D03*
X2667D02*
D03*
X2233Y8050D02*
D03*
X2667D02*
D03*
X2233Y7617D02*
D03*
X2667D02*
D03*
D34*
X3350Y-8250D02*
D03*
X-3350Y8350D02*
D03*
D35*
X-1000Y11600D02*
D03*
M02*
