G04 Layer_Color=65535*
%FSLAX24Y24*%
%MOIN*%
G70*
G01*
G75*
%ADD28C,0.0100*%
%ADD38C,0.0098*%
%ADD39C,0.0236*%
%ADD40C,0.0079*%
%ADD41C,0.0039*%
%ADD42C,0.0050*%
G36*
X13886Y375D02*
X13665D01*
Y-497D01*
X13886D01*
Y-1075D01*
X12803D01*
Y-497D01*
X13023D01*
Y26D01*
X12477Y-726D01*
X12440D01*
X11903Y26D01*
Y-497D01*
X12124D01*
Y-1075D01*
X11041D01*
Y-497D01*
X11252D01*
Y375D01*
X11041D01*
Y953D01*
X11899D01*
X12449Y191D01*
X12477D01*
X13028Y953D01*
X13886D01*
Y375D01*
D02*
G37*
D28*
X-13641Y-1357D02*
G03*
X-13641Y-1357I-22J0D01*
G01*
X3918Y7091D02*
Y8509D01*
X2362Y-16463D02*
Y-12250D01*
X-1693Y-16463D02*
X2362D01*
X-1693D02*
Y-10557D01*
X2362D01*
Y-12250D02*
Y-10557D01*
X5900Y12650D02*
X5500D01*
Y12350D01*
X5700D01*
X5500D01*
Y12050D01*
X6100Y12650D02*
Y12050D01*
X6400D01*
X6500Y12150D01*
Y12250D01*
X6400Y12350D01*
X6100D01*
X6400D01*
X6500Y12450D01*
Y12550D01*
X6400Y12650D01*
X6100D01*
X6700Y12050D02*
X6900D01*
X6800D01*
Y12650D01*
X6700Y12550D01*
X-5050Y7450D02*
X-5150Y7550D01*
X-5350D01*
X-5450Y7450D01*
Y7050D01*
X-5350Y6950D01*
X-5150D01*
X-5050Y7050D01*
X-4850Y6950D02*
X-4650D01*
X-4750D01*
Y7550D01*
X-4850Y7450D01*
X-7860Y11090D02*
X-7960Y11190D01*
X-8160D01*
X-8260Y11090D01*
Y10690D01*
X-8160Y10590D01*
X-7960D01*
X-7860Y10690D01*
X-7260Y10590D02*
X-7660D01*
X-7260Y10990D01*
Y11090D01*
X-7360Y11190D01*
X-7560D01*
X-7660Y11090D01*
X-400Y9850D02*
X-500Y9950D01*
X-700D01*
X-800Y9850D01*
Y9450D01*
X-700Y9350D01*
X-500D01*
X-400Y9450D01*
X-200Y9850D02*
X-100Y9950D01*
X100D01*
X200Y9850D01*
Y9750D01*
X100Y9650D01*
X-0D01*
X100D01*
X200Y9550D01*
Y9450D01*
X100Y9350D01*
X-100D01*
X-200Y9450D01*
X6150Y10600D02*
X6050Y10700D01*
X5850D01*
X5750Y10600D01*
Y10200D01*
X5850Y10100D01*
X6050D01*
X6150Y10200D01*
X6650Y10100D02*
Y10700D01*
X6350Y10400D01*
X6750D01*
X5600Y6750D02*
X5500Y6850D01*
X5300D01*
X5200Y6750D01*
Y6350D01*
X5300Y6250D01*
X5500D01*
X5600Y6350D01*
X6200Y6850D02*
X5800D01*
Y6550D01*
X6000Y6650D01*
X6100D01*
X6200Y6550D01*
Y6350D01*
X6100Y6250D01*
X5900D01*
X5800Y6350D01*
X-13150Y50D02*
X-13250Y150D01*
X-13450D01*
X-13550Y50D01*
Y-350D01*
X-13450Y-450D01*
X-13250D01*
X-13150Y-350D01*
X-12950D02*
X-12850Y-450D01*
X-12650D01*
X-12550Y-350D01*
Y50D01*
X-12650Y150D01*
X-12850D01*
X-12950Y50D01*
Y-50D01*
X-12850Y-150D01*
X-12550D01*
X2550Y14250D02*
Y13650D01*
X2950D01*
X3150D02*
X3350D01*
X3250D01*
Y14250D01*
X3150Y14150D01*
X-9900Y-6000D02*
Y-5600D01*
X-10000Y-5500D01*
X-10200D01*
X-10300Y-5600D01*
Y-6000D01*
X-10200Y-6100D01*
X-10000D01*
X-10100Y-5900D02*
X-9900Y-6100D01*
X-10000D02*
X-9900Y-6000D01*
X-9700Y-6100D02*
X-9500D01*
X-9600D01*
Y-5500D01*
X-9700Y-5600D01*
X-11400Y-200D02*
Y200D01*
X-11500Y300D01*
X-11700D01*
X-11800Y200D01*
Y-200D01*
X-11700Y-300D01*
X-11500D01*
X-11600Y-100D02*
X-11400Y-300D01*
X-11500D02*
X-11400Y-200D01*
X-10800Y-300D02*
X-11200D01*
X-10800Y100D01*
Y200D01*
X-10900Y300D01*
X-11100D01*
X-11200Y200D01*
X-9550Y-2200D02*
Y-1800D01*
X-9650Y-1700D01*
X-9850D01*
X-9950Y-1800D01*
Y-2200D01*
X-9850Y-2300D01*
X-9650D01*
X-9750Y-2100D02*
X-9550Y-2300D01*
X-9650D02*
X-9550Y-2200D01*
X-9350Y-1800D02*
X-9250Y-1700D01*
X-9050D01*
X-8950Y-1800D01*
Y-1900D01*
X-9050Y-2000D01*
X-9150D01*
X-9050D01*
X-8950Y-2100D01*
Y-2200D01*
X-9050Y-2300D01*
X-9250D01*
X-9350Y-2200D01*
X-11800Y-4050D02*
Y-3650D01*
X-11900Y-3550D01*
X-12100D01*
X-12200Y-3650D01*
Y-4050D01*
X-12100Y-4150D01*
X-11900D01*
X-12000Y-3950D02*
X-11800Y-4150D01*
X-11900D02*
X-11800Y-4050D01*
X-11300Y-4150D02*
Y-3550D01*
X-11600Y-3850D01*
X-11200D01*
X-6982Y11137D02*
Y11737D01*
X-6683D01*
X-6583Y11637D01*
Y11437D01*
X-6683Y11337D01*
X-6982D01*
X-6782D02*
X-6583Y11137D01*
X-6383D02*
X-6183D01*
X-6283D01*
Y11737D01*
X-6383Y11637D01*
X-10500Y-300D02*
X-9900D01*
Y-600D01*
X-10000Y-700D01*
X-10200D01*
X-10300Y-600D01*
Y-300D01*
Y-500D02*
X-10500Y-700D01*
Y-1300D02*
Y-900D01*
X-10100Y-1300D01*
X-10000D01*
X-9900Y-1200D01*
Y-1000D01*
X-10000Y-900D01*
X-12100Y-6550D02*
Y-5950D01*
X-11800D01*
X-11700Y-6050D01*
Y-6250D01*
X-11800Y-6350D01*
X-12100D01*
X-11900D02*
X-11700Y-6550D01*
X-11500Y-6050D02*
X-11400Y-5950D01*
X-11200D01*
X-11100Y-6050D01*
Y-6150D01*
X-11200Y-6250D01*
X-11300D01*
X-11200D01*
X-11100Y-6350D01*
Y-6450D01*
X-11200Y-6550D01*
X-11400D01*
X-11500Y-6450D01*
X-7400Y7000D02*
Y6500D01*
X-7300Y6400D01*
X-7100D01*
X-7000Y6500D01*
Y7000D01*
X-6800Y6400D02*
X-6600D01*
X-6700D01*
Y7000D01*
X-6800Y6900D01*
X2200Y6900D02*
Y6400D01*
X2300Y6300D01*
X2500D01*
X2600Y6400D01*
Y6900D01*
X3200Y6300D02*
X2800D01*
X3200Y6700D01*
Y6800D01*
X3100Y6900D01*
X2900D01*
X2800Y6800D01*
X-13750Y-2500D02*
Y-3000D01*
X-13650Y-3100D01*
X-13450D01*
X-13350Y-3000D01*
Y-2500D01*
X-13150Y-2600D02*
X-13050Y-2500D01*
X-12850D01*
X-12750Y-2600D01*
Y-2700D01*
X-12850Y-2800D01*
X-12950D01*
X-12850D01*
X-12750Y-2900D01*
Y-3000D01*
X-12850Y-3100D01*
X-13050D01*
X-13150Y-3000D01*
X800Y-8750D02*
X900Y-8650D01*
Y-8450D01*
X800Y-8350D01*
X400D01*
X300Y-8450D01*
Y-8650D01*
X400Y-8750D01*
X300Y-8950D02*
Y-9150D01*
Y-9050D01*
X900D01*
X800Y-8950D01*
Y-9450D02*
X900Y-9550D01*
Y-9750D01*
X800Y-9850D01*
X400D01*
X300Y-9750D01*
Y-9550D01*
X400Y-9450D01*
X800D01*
X4650Y-8300D02*
Y-8900D01*
Y-8700D01*
X5050Y-8300D01*
X4750Y-8600D01*
X5050Y-8900D01*
X5250Y-8500D02*
Y-8800D01*
X5350Y-8900D01*
X5650D01*
Y-8500D01*
X5950Y-8900D02*
X6150D01*
X6249Y-8800D01*
Y-8600D01*
X6150Y-8500D01*
X5950D01*
X5850Y-8600D01*
Y-8800D01*
X5950Y-8900D01*
X6549Y-9000D02*
X6649Y-8900D01*
Y-8800D01*
X6549D01*
Y-8900D01*
X6649D01*
X6549Y-9000D01*
X6449Y-9100D01*
X7649Y-8400D02*
X7749Y-8300D01*
X7949D01*
X8049Y-8400D01*
Y-8800D01*
X7949Y-8900D01*
X7749D01*
X7649Y-8800D01*
Y-8400D01*
X8649Y-8900D02*
X8249D01*
X8649Y-8500D01*
Y-8400D01*
X8549Y-8300D01*
X8349D01*
X8249Y-8400D01*
X9548Y-8200D02*
Y-8400D01*
X9448Y-8500D01*
X9848Y-8900D02*
X10048D01*
X9948D01*
Y-8300D01*
X9848Y-8400D01*
X10748Y-8300D02*
X10348D01*
Y-8600D01*
X10548Y-8500D01*
X10648D01*
X10748Y-8600D01*
Y-8800D01*
X10648Y-8900D01*
X10448D01*
X10348Y-8800D01*
X4650Y-7200D02*
Y-7800D01*
X5050D01*
X5650Y-7200D02*
X5250D01*
Y-7800D01*
X5650D01*
X5250Y-7500D02*
X5450D01*
X5850Y-7200D02*
Y-7800D01*
X6150D01*
X6249Y-7700D01*
Y-7300D01*
X6150Y-7200D01*
X5850D01*
X7149Y-7800D02*
Y-7300D01*
Y-7500D01*
X7049D01*
X7249D01*
X7149D01*
Y-7300D01*
X7249Y-7200D01*
X7549Y-7400D02*
Y-7800D01*
Y-7600D01*
X7649Y-7500D01*
X7749Y-7400D01*
X7849D01*
X8249Y-7800D02*
X8449D01*
X8549Y-7700D01*
Y-7500D01*
X8449Y-7400D01*
X8249D01*
X8149Y-7500D01*
Y-7700D01*
X8249Y-7800D01*
X8749D02*
Y-7400D01*
X9049D01*
X9149Y-7500D01*
Y-7800D01*
X9448Y-7300D02*
Y-7400D01*
X9348D01*
X9548D01*
X9448D01*
Y-7700D01*
X9548Y-7800D01*
X10148D02*
X9948D01*
X9848Y-7700D01*
Y-7500D01*
X9948Y-7400D01*
X10148D01*
X10248Y-7500D01*
Y-7600D01*
X9848D01*
X10448Y-7800D02*
Y-7400D01*
X10748D01*
X10848Y-7500D01*
Y-7800D01*
X11448Y-7200D02*
Y-7800D01*
X11148D01*
X11048Y-7700D01*
Y-7500D01*
X11148Y-7400D01*
X11448D01*
X-5400Y11050D02*
X-5500Y11150D01*
X-5700D01*
X-5800Y11050D01*
Y10650D01*
X-5700Y10550D01*
X-5500D01*
X-5400Y10650D01*
Y10850D01*
X-5600D01*
X-5200Y10550D02*
Y11150D01*
X-4800Y10550D01*
Y11150D01*
X-4600D02*
Y10550D01*
X-4300D01*
X-4201Y10650D01*
Y11050D01*
X-4300Y11150D01*
X-4600D01*
X-4850Y12650D02*
X-5250D01*
Y12350D01*
X-5050Y12450D01*
X-4950D01*
X-4850Y12350D01*
Y12150D01*
X-4950Y12050D01*
X-5150D01*
X-5250Y12150D01*
X-4650Y12650D02*
Y12250D01*
X-4450Y12050D01*
X-4250Y12250D01*
Y12650D01*
X-7510Y-2652D02*
X-7910D01*
X7943Y2623D02*
X7543D01*
X7743Y2423D02*
Y2823D01*
D38*
X-8074Y9335D02*
G03*
X-8074Y9335I-49J0D01*
G01*
X1623Y9015D02*
G03*
X1623Y9015I-49J0D01*
G01*
X-11037Y-1859D02*
G03*
X-11037Y-1859I-49J0D01*
G01*
X-11864Y-1991D02*
G03*
X-11864Y-1991I-49J0D01*
G01*
X-10114Y-3991D02*
G03*
X-10114Y-3991I-49J0D01*
G01*
X-9287Y-3909D02*
G03*
X-9287Y-3909I-49J0D01*
G01*
D39*
X-7168Y8841D02*
G03*
X-7168Y8841I-118J0D01*
G01*
D40*
X-5406Y8550D02*
X-4894D01*
X-7680Y7266D02*
Y9234D01*
X-6420Y7266D02*
Y9234D01*
X-7680D02*
X-6420D01*
X-7680Y7266D02*
X-6420D01*
X-2107Y-8076D02*
X-493D01*
X-2107Y-10124D02*
X-493D01*
X6103Y8828D02*
X6497D01*
X6103Y9852D02*
X6497D01*
X4941Y7150D02*
X6359D01*
X4941Y8450D02*
X6359D01*
X1997Y8867D02*
X2903D01*
X1997Y7233D02*
X2903D01*
X-1107Y9024D02*
X507D01*
X-1107Y6976D02*
X507D01*
X-11776Y-1741D02*
X-11500D01*
X-11776D02*
Y-1426D01*
Y-559D02*
X-11500D01*
X-11776Y-874D02*
Y-559D01*
X-11500Y-2109D02*
X-11224D01*
Y-2424D02*
Y-2109D01*
X-11500Y-3291D02*
X-11224D01*
Y-2976D01*
X-11847Y-4578D02*
X-11453D01*
X-11847Y-5602D02*
X-11453D01*
X-7707Y9605D02*
X-7393D01*
X-7707Y10195D02*
X-7393D01*
X-9750Y-4109D02*
X-9474D01*
Y-4424D02*
Y-4109D01*
X-9750Y-5291D02*
X-9474D01*
Y-4976D01*
X-10026Y-3791D02*
X-9750D01*
X-10026D02*
Y-3476D01*
Y-2609D02*
X-9750D01*
X-10026Y-2924D02*
Y-2609D01*
D41*
X-6738Y10473D02*
X-6462D01*
X-6738Y10817D02*
X-6462D01*
X8473Y10712D02*
Y10988D01*
X8817Y10712D02*
Y10988D01*
X7773Y10712D02*
Y10988D01*
X8117Y10712D02*
Y10988D01*
X7073Y10712D02*
Y10988D01*
X7417Y10712D02*
Y10988D01*
X6062Y11383D02*
X6338D01*
X6062Y11727D02*
X6338D01*
X5208Y12069D02*
Y13408D01*
X1192D02*
X5208D01*
X1192Y12069D02*
Y13408D01*
Y9392D02*
Y10731D01*
Y9392D02*
X5208D01*
Y10731D01*
X-10527Y-2038D02*
Y-1762D01*
X-10183Y-2038D02*
Y-1762D01*
X-13188Y-773D02*
X-12912D01*
X-13188Y-1117D02*
X-12912D01*
X-12924Y-1948D02*
Y-1652D01*
Y-1436D02*
Y-1367D01*
X-13476D02*
X-12924D01*
X-13476Y-1446D02*
Y-1367D01*
X-12924Y-2233D02*
Y-2164D01*
X-13476Y-2233D02*
X-12924D01*
X-13476D02*
Y-2154D01*
X8661Y-6024D02*
Y1880D01*
X-6644Y-6024D02*
X8661D01*
X-6644D02*
Y-1890D01*
X-8661D02*
X-6644D01*
X-8661D02*
Y6024D01*
X6654D01*
Y1880D02*
Y6024D01*
Y1880D02*
X8661D01*
D42*
X8050Y11750D02*
X8100Y11800D01*
Y11900D01*
X8050Y11950D01*
X7850D01*
X7800Y11900D01*
Y11800D01*
X7850Y11750D01*
X8100Y11450D02*
X8050Y11550D01*
X7950Y11650D01*
X7850D01*
X7800Y11600D01*
Y11500D01*
X7850Y11450D01*
X7900D01*
X7950Y11500D01*
Y11650D01*
X8700Y11750D02*
X8750Y11800D01*
Y11900D01*
X8700Y11950D01*
X8500D01*
X8450Y11900D01*
Y11800D01*
X8500Y11750D01*
X8750Y11650D02*
Y11450D01*
X8700D01*
X8500Y11650D01*
X8450D01*
X7350Y11750D02*
X7400Y11800D01*
Y11900D01*
X7350Y11950D01*
X7150D01*
X7100Y11900D01*
Y11800D01*
X7150Y11750D01*
X7350Y11650D02*
X7400Y11600D01*
Y11500D01*
X7350Y11450D01*
X7300D01*
X7250Y11500D01*
X7200Y11450D01*
X7150D01*
X7100Y11500D01*
Y11600D01*
X7150Y11650D01*
X7200D01*
X7250Y11600D01*
X7300Y11650D01*
X7350D01*
X7250Y11600D02*
Y11500D01*
M02*
