%FSLAX24Y24*%
%MOIN*%
G70*
G01*
G75*
G04 Layer_Color=16711935*
%ADD10C,0.0150*%
%ADD11R,0.1000X0.0291*%
%ADD12R,0.8661X0.8661*%
%ADD13O,0.0669X0.1102*%
%ADD14C,0.1100*%
%ADD15C,0.0400*%
%ADD16C,0.0300*%
%ADD17R,0.1000X0.1000*%
%ADD18R,0.1500X0.1000*%
%ADD19R,0.0394X0.0591*%
%ADD20R,0.0551X0.0547*%
%ADD21R,0.1913X0.1323*%
%ADD22R,0.0354X0.0197*%
%ADD23R,0.0591X0.0394*%
%ADD24R,0.0236X0.0551*%
%ADD25R,0.0236X0.0709*%
%ADD26R,0.0236X0.0512*%
%ADD27R,0.0197X0.0354*%
%ADD28R,0.0157X0.0354*%
%ADD29R,0.0512X0.0236*%
%ADD30R,0.1299X0.0532*%
%ADD31O,0.1181X0.1969*%
%ADD32C,0.0039*%
%ADD33C,0.0100*%
%ADD34R,0.0315X0.0540*%
%ADD35R,0.1060X0.0351*%
%ADD36R,0.8721X0.8721*%
%ADD37O,0.0729X0.1162*%
%ADD38C,0.0700*%
%ADD39C,0.0500*%
%ADD40C,0.0460*%
%ADD41R,0.1060X0.1060*%
%ADD42R,0.1560X0.1060*%
%ADD43R,0.0454X0.0651*%
%ADD44R,0.0611X0.0607*%
%ADD45R,0.1973X0.1383*%
%ADD46R,0.0414X0.0257*%
%ADD47R,0.0651X0.0454*%
%ADD48R,0.0296X0.0611*%
%ADD49R,0.0296X0.0769*%
%ADD50R,0.0296X0.0572*%
%ADD51R,0.0257X0.0414*%
%ADD52R,0.0197X0.0394*%
%ADD53R,0.0572X0.0296*%
%ADD54R,0.1359X0.0592*%
%ADD55O,0.1241X0.2029*%
G36*
X-2877Y-8620D02*
X-2873Y-8621D01*
X-2868Y-8623D01*
X-2864Y-8626D01*
X-2861Y-8629D01*
X-2605Y-8885D01*
X-2602Y-8888D01*
X-2599Y-8892D01*
X-2597Y-8897D01*
X-2596Y-8901D01*
X-2596Y-8906D01*
Y-9654D01*
X-2596Y-9659D01*
X-2597Y-9663D01*
X-2599Y-9668D01*
X-2602Y-9672D01*
X-2605Y-9675D01*
X-2861Y-9931D01*
X-2864Y-9934D01*
X-2868Y-9937D01*
X-2873Y-9938D01*
X-2877Y-9940D01*
X-2882Y-9940D01*
X-3118D01*
X-3123Y-9940D01*
X-3127Y-9938D01*
X-3132Y-9937D01*
X-3136Y-9934D01*
X-3139Y-9931D01*
X-3395Y-9675D01*
X-3398Y-9672D01*
X-3401Y-9668D01*
X-3403Y-9663D01*
X-3404Y-9659D01*
X-3404Y-9654D01*
Y-8906D01*
X-3404Y-8901D01*
X-3403Y-8897D01*
X-3401Y-8892D01*
X-3398Y-8888D01*
X-3395Y-8885D01*
X-3139Y-8629D01*
X-3136Y-8626D01*
X-3132Y-8623D01*
X-3127Y-8621D01*
X-3123Y-8620D01*
X-3118Y-8620D01*
X-2882D01*
X-2877Y-8620D01*
D02*
G37*
D36*
X0Y0D02*
D03*
D37*
X-5358Y4937D02*
D03*
X5358Y-4937D02*
D03*
D38*
X-6130Y-6660D02*
D03*
X6130Y6660D02*
D03*
D39*
X1039Y-10288D02*
D03*
D40*
X450Y-9750D02*
D03*
X5250Y-8100D02*
D03*
X6800Y-6250D02*
D03*
D41*
X2700Y9250D02*
D03*
X1050D02*
D03*
D42*
X-9750Y-1500D02*
D03*
Y1500D02*
D03*
D43*
X-2522Y7350D02*
D03*
X-1578D02*
D03*
D44*
X-882Y8488D02*
D03*
Y9212D02*
D03*
D45*
X-2450Y8850D02*
D03*
D46*
X-100Y8505D02*
D03*
Y9095D02*
D03*
X-1400Y-8905D02*
D03*
Y-9495D02*
D03*
X-800Y-8905D02*
D03*
Y-9495D02*
D03*
X-200Y-8905D02*
D03*
Y-9495D02*
D03*
X1900Y-8305D02*
D03*
Y-8895D02*
D03*
D47*
X-4600Y-9148D02*
D03*
Y-8203D02*
D03*
D48*
X-3591Y-8217D02*
D03*
X-2409D02*
D03*
D49*
X-3000Y-8296D02*
D03*
D50*
X-2900Y-6537D02*
D03*
X-3274Y-7363D02*
D03*
X-2526D02*
D03*
X-1150Y-7187D02*
D03*
X-1524Y-8013D02*
D03*
X-776D02*
D03*
X450Y-6537D02*
D03*
X76Y-7363D02*
D03*
X824D02*
D03*
D51*
X-1495Y-6450D02*
D03*
X-905D02*
D03*
D52*
X1306Y-9183D02*
D03*
X1050D02*
D03*
X794D02*
D03*
Y-8317D02*
D03*
X1306D02*
D03*
D53*
X1837Y-6950D02*
D03*
X2663Y-7324D02*
D03*
Y-6576D02*
D03*
X6113Y-6900D02*
D03*
X5287Y-6526D02*
D03*
Y-7274D02*
D03*
D54*
X3950Y-6548D02*
D03*
Y-8852D02*
D03*
D55*
X-7677Y4724D02*
D03*
X7677Y-4724D02*
D03*
M02*
