%FSLAX24Y24*%
%MOIN*%
G70*
G01*
G75*
G04 Layer_Physical_Order=2*
G04 Layer_Color=16711680*
%ADD10C,0.0150*%
%ADD11R,0.1000X0.0291*%
%ADD12R,0.8661X0.8661*%
%ADD13O,0.0669X0.1102*%
%ADD14C,0.1100*%
%ADD15C,0.0400*%
%ADD16C,0.0300*%
%ADD17R,0.1000X0.1000*%
%ADD18R,0.1500X0.1000*%
%ADD19R,0.0394X0.0591*%
%ADD20R,0.0551X0.0547*%
%ADD21R,0.1913X0.1323*%
%ADD22R,0.0354X0.0197*%
%ADD23R,0.0591X0.0394*%
%ADD24R,0.0236X0.0551*%
%ADD25R,0.0236X0.0709*%
%ADD26R,0.0236X0.0512*%
%ADD27R,0.0197X0.0354*%
%ADD28R,0.0157X0.0354*%
%ADD29R,0.0512X0.0236*%
%ADD30R,0.1299X0.0532*%
%ADD31O,0.1181X0.1969*%
G36*
X-2626Y-8906D02*
Y-9654D01*
X-2882Y-9910D01*
X-3118D01*
X-3374Y-9654D01*
Y-8906D01*
X-3118Y-8650D01*
X-2882D01*
X-2626Y-8906D01*
D02*
G37*
G36*
X659Y10895D02*
X1316Y10835D01*
X1967Y10736D01*
X2612Y10598D01*
X3247Y10421D01*
X3871Y10206D01*
X4480Y9953D01*
X5072Y9665D01*
X5647Y9341D01*
X6200Y8983D01*
X6731Y8592D01*
X7238Y8170D01*
X7718Y7718D01*
X8170Y7238D01*
X8592Y6731D01*
X8983Y6200D01*
X9341Y5647D01*
X9665Y5072D01*
X9953Y4480D01*
X10206Y3871D01*
X10421Y3247D01*
X10598Y2612D01*
X10736Y1967D01*
X10835Y1316D01*
X10895Y659D01*
X10915Y0D01*
X10895Y-659D01*
X10835Y-1316D01*
X10736Y-1967D01*
X10598Y-2612D01*
X10421Y-3247D01*
X10206Y-3871D01*
X9953Y-4480D01*
X9665Y-5072D01*
X9341Y-5647D01*
X8983Y-6200D01*
X8592Y-6731D01*
X8170Y-7238D01*
X7718Y-7718D01*
X7238Y-8170D01*
X6731Y-8592D01*
X6200Y-8983D01*
X5647Y-9341D01*
X5072Y-9665D01*
X4480Y-9953D01*
X3871Y-10206D01*
X3247Y-10421D01*
X2612Y-10598D01*
X1967Y-10736D01*
X1316Y-10835D01*
X659Y-10895D01*
X0Y-10915D01*
X-659Y-10895D01*
X-1316Y-10835D01*
X-1374Y-10827D01*
X-1380Y-10775D01*
X-1349Y-10762D01*
X-1286Y-10714D01*
X-1238Y-10651D01*
X-1217Y-10600D01*
X-1783D01*
X-1762Y-10651D01*
X-1714Y-10714D01*
X-1697Y-10727D01*
X-1718Y-10774D01*
X-1967Y-10736D01*
X-2612Y-10598D01*
X-3247Y-10421D01*
X-3871Y-10206D01*
X-4480Y-9953D01*
X-5072Y-9665D01*
X-5647Y-9341D01*
X-6200Y-8983D01*
X-6731Y-8592D01*
X-7238Y-8170D01*
X-7718Y-7718D01*
X-8170Y-7238D01*
X-8592Y-6731D01*
X-8983Y-6200D01*
X-9341Y-5647D01*
X-9665Y-5072D01*
X-9953Y-4480D01*
X-10206Y-3871D01*
X-10421Y-3247D01*
X-10598Y-2612D01*
X-10736Y-1967D01*
X-10835Y-1316D01*
X-10895Y-659D01*
X-10915Y0D01*
X-10895Y650D01*
X-10895Y650D01*
X-10868Y676D01*
X-10863Y679D01*
X-10850Y685D01*
X-7891D01*
Y-6721D01*
X-7875Y-6803D01*
X-7829Y-6872D01*
X-7728Y-6973D01*
X-7722Y-6977D01*
X-7627Y-7078D01*
X-7612Y-7094D01*
X-7612Y-7098D01*
X-7612Y-7098D01*
X-7612Y-7098D01*
X-7612Y-7098D01*
X-7607Y-7104D01*
X-7576Y-7133D01*
X-7576Y-7133D01*
X-7576D01*
X-7361Y-7361D01*
X-6903Y-7792D01*
X-6420Y-8194D01*
X-5913Y-8567D01*
X-5385Y-8908D01*
X-4955Y-9151D01*
Y-9405D01*
X-4245D01*
Y-9362D01*
X-3439D01*
Y-9654D01*
X-3420Y-9700D01*
X-3164Y-9956D01*
X-3118Y-9975D01*
X-2882D01*
X-2836Y-9956D01*
X-2580Y-9700D01*
X-2561Y-9654D01*
Y-8906D01*
X-2580Y-8860D01*
X-2822Y-8618D01*
Y-7881D01*
X-3178D01*
Y-8618D01*
X-3420Y-8860D01*
X-3439Y-8906D01*
Y-8934D01*
X-4245D01*
Y-8891D01*
X-4537D01*
X-4640Y-8841D01*
X-5165Y-8545D01*
X-5672Y-8217D01*
X-6158Y-7860D01*
X-6621Y-7473D01*
X-7060Y-7060D01*
X-7323Y-6781D01*
X-7393Y-6706D01*
X-7425Y-6670D01*
X-7425D01*
X-7458Y-6637D01*
X-7460Y-6635D01*
X-7463Y-6632D01*
Y685D01*
X-6240D01*
X-6194Y704D01*
X-6175Y750D01*
Y5923D01*
X-3513Y8586D01*
X-3467Y8567D01*
Y8129D01*
X-2664D01*
Y7705D01*
X-2779D01*
Y6995D01*
X-2266D01*
Y7320D01*
X-2252Y7340D01*
X-2236Y7422D01*
Y8129D01*
X-1433D01*
Y9571D01*
X-3467D01*
Y9064D01*
X-3552D01*
X-3634Y9048D01*
X-3703Y9001D01*
X-6639Y6065D01*
X-9018Y6065D01*
X-9042Y6109D01*
X-8983Y6200D01*
X-8592Y6731D01*
X-8170Y7238D01*
X-7718Y7718D01*
X-7238Y8170D01*
X-6731Y8592D01*
X-6200Y8983D01*
X-5647Y9341D01*
X-5072Y9665D01*
X-4480Y9953D01*
X-3871Y10206D01*
X-3247Y10421D01*
X-2612Y10598D01*
X-1967Y10736D01*
X-1316Y10835D01*
X-659Y10895D01*
X0Y10915D01*
X659Y10895D01*
D02*
G37*
G36*
X-6240Y5965D02*
Y750D01*
X-10850D01*
X-10883Y787D01*
X-10835Y1316D01*
X-10736Y1967D01*
X-10598Y2612D01*
X-10421Y3247D01*
X-10215Y3845D01*
X-10169Y3848D01*
X-10161Y3847D01*
X-10114Y3786D01*
X-10051Y3738D01*
X-10000Y3717D01*
Y4000D01*
Y4309D01*
X-10017Y4326D01*
X-9953Y4480D01*
X-9665Y5072D01*
X-9341Y5647D01*
X-9112Y6000D01*
X-6276Y6000D01*
X-6240Y5965D01*
D02*
G37*
%LPC*%
G36*
X-4900Y-2717D02*
Y-2900D01*
X-4717D01*
X-4738Y-2849D01*
X-4786Y-2786D01*
X-4849Y-2738D01*
X-4900Y-2717D01*
D02*
G37*
G36*
X-5100D02*
X-5151Y-2738D01*
X-5214Y-2786D01*
X-5262Y-2849D01*
X-5283Y-2900D01*
X-5100D01*
Y-2717D01*
D02*
G37*
G36*
X-4717Y-3100D02*
X-4900D01*
Y-3283D01*
X-4849Y-3262D01*
X-4786Y-3214D01*
X-4738Y-3151D01*
X-4717Y-3100D01*
D02*
G37*
G36*
X5283Y-3600D02*
X5100D01*
Y-3783D01*
X5151Y-3762D01*
X5214Y-3714D01*
X5262Y-3651D01*
X5283Y-3600D01*
D02*
G37*
G36*
X4900D02*
X4717D01*
X4738Y-3651D01*
X4786Y-3714D01*
X4849Y-3762D01*
X4900Y-3783D01*
Y-3600D01*
D02*
G37*
G36*
Y-3217D02*
X4849Y-3238D01*
X4786Y-3286D01*
X4738Y-3349D01*
X4717Y-3400D01*
X4900D01*
Y-3217D01*
D02*
G37*
G36*
X-5100Y-3100D02*
X-5283D01*
X-5262Y-3151D01*
X-5214Y-3214D01*
X-5151Y-3262D01*
X-5100Y-3283D01*
Y-3100D01*
D02*
G37*
G36*
X5100Y-3217D02*
Y-3400D01*
X5283D01*
X5262Y-3349D01*
X5214Y-3286D01*
X5151Y-3238D01*
X5100Y-3217D01*
D02*
G37*
G36*
X4900Y-2600D02*
X4717D01*
X4738Y-2651D01*
X4786Y-2714D01*
X4849Y-2762D01*
X4900Y-2783D01*
Y-2600D01*
D02*
G37*
G36*
X-4717Y-2100D02*
X-4900D01*
Y-2283D01*
X-4849Y-2262D01*
X-4786Y-2214D01*
X-4738Y-2151D01*
X-4717Y-2100D01*
D02*
G37*
G36*
X-5100D02*
X-5283D01*
X-5262Y-2151D01*
X-5214Y-2214D01*
X-5151Y-2262D01*
X-5100Y-2283D01*
Y-2100D01*
D02*
G37*
G36*
X8283D02*
X8100D01*
Y-2283D01*
X8151Y-2262D01*
X8214Y-2214D01*
X8262Y-2151D01*
X8283Y-2100D01*
D02*
G37*
G36*
X7900D02*
X7717D01*
X7738Y-2151D01*
X7786Y-2214D01*
X7849Y-2262D01*
X7900Y-2283D01*
Y-2100D01*
D02*
G37*
G36*
X-8217D02*
X-8400D01*
Y-2283D01*
X-8349Y-2262D01*
X-8286Y-2214D01*
X-8238Y-2151D01*
X-8217Y-2100D01*
D02*
G37*
G36*
X4900Y-2217D02*
X4849Y-2238D01*
X4786Y-2286D01*
X4738Y-2349D01*
X4717Y-2400D01*
X4900D01*
Y-2217D01*
D02*
G37*
G36*
X5283Y-2600D02*
X5100D01*
Y-2783D01*
X5151Y-2762D01*
X5214Y-2714D01*
X5262Y-2651D01*
X5283Y-2600D01*
D02*
G37*
G36*
X-8600Y-2100D02*
X-8783D01*
X-8762Y-2151D01*
X-8714Y-2214D01*
X-8651Y-2262D01*
X-8600Y-2283D01*
Y-2100D01*
D02*
G37*
G36*
X5100Y-2217D02*
Y-2400D01*
X5283D01*
X5262Y-2349D01*
X5214Y-2286D01*
X5151Y-2238D01*
X5100Y-2217D01*
D02*
G37*
G36*
X900Y-4717D02*
X849Y-4738D01*
X786Y-4786D01*
X738Y-4849D01*
X717Y-4900D01*
X900D01*
Y-4717D01*
D02*
G37*
G36*
X100D02*
Y-4900D01*
X283D01*
X262Y-4849D01*
X214Y-4786D01*
X151Y-4738D01*
X100Y-4717D01*
D02*
G37*
G36*
X1900D02*
X1849Y-4738D01*
X1786Y-4786D01*
X1738Y-4849D01*
X1717Y-4900D01*
X1900D01*
Y-4717D01*
D02*
G37*
G36*
X1100D02*
Y-4900D01*
X1283D01*
X1262Y-4849D01*
X1214Y-4786D01*
X1151Y-4738D01*
X1100Y-4717D01*
D02*
G37*
G36*
X-100D02*
X-151Y-4738D01*
X-214Y-4786D01*
X-262Y-4849D01*
X-283Y-4900D01*
X-100D01*
Y-4717D01*
D02*
G37*
G36*
X-1900D02*
Y-4900D01*
X-1717D01*
X-1738Y-4849D01*
X-1786Y-4786D01*
X-1849Y-4738D01*
X-1900Y-4717D01*
D02*
G37*
G36*
X-2100D02*
X-2151Y-4738D01*
X-2214Y-4786D01*
X-2262Y-4849D01*
X-2283Y-4900D01*
X-2100D01*
Y-4717D01*
D02*
G37*
G36*
X-900D02*
Y-4900D01*
X-717D01*
X-738Y-4849D01*
X-786Y-4786D01*
X-849Y-4738D01*
X-900Y-4717D01*
D02*
G37*
G36*
X-1100D02*
X-1151Y-4738D01*
X-1214Y-4786D01*
X-1262Y-4849D01*
X-1283Y-4900D01*
X-1100D01*
Y-4717D01*
D02*
G37*
G36*
X2100D02*
Y-4900D01*
X2283D01*
X2262Y-4849D01*
X2214Y-4786D01*
X2151Y-4738D01*
X2100Y-4717D01*
D02*
G37*
G36*
X-4717Y-4100D02*
X-4900D01*
Y-4283D01*
X-4849Y-4262D01*
X-4786Y-4214D01*
X-4738Y-4151D01*
X-4717Y-4100D01*
D02*
G37*
G36*
X-5100D02*
X-5283D01*
X-5262Y-4151D01*
X-5214Y-4214D01*
X-5151Y-4262D01*
X-5100Y-4283D01*
Y-4100D01*
D02*
G37*
G36*
X-4900Y-3717D02*
Y-3900D01*
X-4717D01*
X-4738Y-3849D01*
X-4786Y-3786D01*
X-4849Y-3738D01*
X-4900Y-3717D01*
D02*
G37*
G36*
X-5100D02*
X-5151Y-3738D01*
X-5214Y-3786D01*
X-5262Y-3849D01*
X-5283Y-3900D01*
X-5100D01*
Y-3717D01*
D02*
G37*
G36*
X4391Y4391D02*
X-4391D01*
Y-4391D01*
X4391D01*
Y4391D01*
D02*
G37*
G36*
X3100Y-4717D02*
Y-4900D01*
X3283D01*
X3262Y-4849D01*
X3214Y-4786D01*
X3151Y-4738D01*
X3100Y-4717D01*
D02*
G37*
G36*
X2900D02*
X2849Y-4738D01*
X2786Y-4786D01*
X2738Y-4849D01*
X2717Y-4900D01*
X2900D01*
Y-4717D01*
D02*
G37*
G36*
X4100D02*
Y-4900D01*
X4283D01*
X4262Y-4849D01*
X4214Y-4786D01*
X4151Y-4738D01*
X4100Y-4717D01*
D02*
G37*
G36*
X3900D02*
X3849Y-4738D01*
X3786Y-4786D01*
X3738Y-4849D01*
X3717Y-4900D01*
X3900D01*
Y-4717D01*
D02*
G37*
G36*
X8100Y-717D02*
Y-900D01*
X8283D01*
X8262Y-849D01*
X8214Y-786D01*
X8151Y-738D01*
X8100Y-717D01*
D02*
G37*
G36*
X7900D02*
X7849Y-738D01*
X7786Y-786D01*
X7738Y-849D01*
X7717Y-900D01*
X7900D01*
Y-717D01*
D02*
G37*
G36*
X5283Y-600D02*
X5100D01*
Y-783D01*
X5151Y-762D01*
X5214Y-714D01*
X5262Y-651D01*
X5283Y-600D01*
D02*
G37*
G36*
X4900D02*
X4717D01*
X4738Y-651D01*
X4786Y-714D01*
X4849Y-762D01*
X4900Y-783D01*
Y-600D01*
D02*
G37*
G36*
X-4900Y-717D02*
Y-900D01*
X-4717D01*
X-4738Y-849D01*
X-4786Y-786D01*
X-4849Y-738D01*
X-4900Y-717D01*
D02*
G37*
G36*
X-8600D02*
X-8651Y-738D01*
X-8714Y-786D01*
X-8762Y-849D01*
X-8783Y-900D01*
X-8600D01*
Y-717D01*
D02*
G37*
G36*
X8283Y-1100D02*
X8100D01*
Y-1283D01*
X8151Y-1262D01*
X8214Y-1214D01*
X8262Y-1151D01*
X8283Y-1100D01*
D02*
G37*
G36*
X-5100Y-717D02*
X-5151Y-738D01*
X-5214Y-786D01*
X-5262Y-849D01*
X-5283Y-900D01*
X-5100D01*
Y-717D01*
D02*
G37*
G36*
X-8400D02*
Y-900D01*
X-8217D01*
X-8238Y-849D01*
X-8286Y-786D01*
X-8349Y-738D01*
X-8400Y-717D01*
D02*
G37*
G36*
X4900Y-217D02*
X4849Y-238D01*
X4786Y-286D01*
X4738Y-349D01*
X4717Y-400D01*
X4900D01*
Y-217D01*
D02*
G37*
G36*
X8283Y-100D02*
X8100D01*
Y-283D01*
X8151Y-262D01*
X8214Y-214D01*
X8262Y-151D01*
X8283Y-100D01*
D02*
G37*
G36*
X7900D02*
X7717D01*
X7738Y-151D01*
X7786Y-214D01*
X7849Y-262D01*
X7900Y-283D01*
Y-100D01*
D02*
G37*
G36*
X-8400Y283D02*
Y100D01*
X-8217D01*
X-8238Y151D01*
X-8286Y214D01*
X-8349Y262D01*
X-8400Y283D01*
D02*
G37*
G36*
X-8600D02*
X-8651Y262D01*
X-8714Y214D01*
X-8762Y151D01*
X-8783Y100D01*
X-8600D01*
Y283D01*
D02*
G37*
G36*
X-4717Y-100D02*
X-4900D01*
Y-283D01*
X-4849Y-262D01*
X-4786Y-214D01*
X-4738Y-151D01*
X-4717Y-100D01*
D02*
G37*
G36*
X-8600D02*
X-8783D01*
X-8762Y-151D01*
X-8714Y-214D01*
X-8651Y-262D01*
X-8600Y-283D01*
Y-100D01*
D02*
G37*
G36*
X5100Y-217D02*
Y-400D01*
X5283D01*
X5262Y-349D01*
X5214Y-286D01*
X5151Y-238D01*
X5100Y-217D01*
D02*
G37*
G36*
X-5100Y-100D02*
X-5283D01*
X-5262Y-151D01*
X-5214Y-214D01*
X-5151Y-262D01*
X-5100Y-283D01*
Y-100D01*
D02*
G37*
G36*
X-8217D02*
X-8400D01*
Y-283D01*
X-8349Y-262D01*
X-8286Y-214D01*
X-8238Y-151D01*
X-8217Y-100D01*
D02*
G37*
G36*
X7900Y-1717D02*
X7849Y-1738D01*
X7786Y-1786D01*
X7738Y-1849D01*
X7717Y-1900D01*
X7900D01*
Y-1717D01*
D02*
G37*
G36*
X-4900D02*
Y-1900D01*
X-4717D01*
X-4738Y-1849D01*
X-4786Y-1786D01*
X-4849Y-1738D01*
X-4900Y-1717D01*
D02*
G37*
G36*
X4900Y-1600D02*
X4717D01*
X4738Y-1651D01*
X4786Y-1714D01*
X4849Y-1762D01*
X4900Y-1783D01*
Y-1600D01*
D02*
G37*
G36*
X8100Y-1717D02*
Y-1900D01*
X8283D01*
X8262Y-1849D01*
X8214Y-1786D01*
X8151Y-1738D01*
X8100Y-1717D01*
D02*
G37*
G36*
X-5100D02*
X-5151Y-1738D01*
X-5214Y-1786D01*
X-5262Y-1849D01*
X-5283Y-1900D01*
X-5100D01*
Y-1717D01*
D02*
G37*
G36*
X-8900Y-1600D02*
X-9650D01*
Y-2100D01*
X-8900D01*
Y-1600D01*
D02*
G37*
G36*
X-9850D02*
X-10600D01*
Y-2100D01*
X-9850D01*
Y-1600D01*
D02*
G37*
G36*
X-8400Y-1717D02*
Y-1900D01*
X-8217D01*
X-8238Y-1849D01*
X-8286Y-1786D01*
X-8349Y-1738D01*
X-8400Y-1717D01*
D02*
G37*
G36*
X-8600D02*
X-8651Y-1738D01*
X-8714Y-1786D01*
X-8762Y-1849D01*
X-8783Y-1900D01*
X-8600D01*
Y-1717D01*
D02*
G37*
G36*
X5283Y-1600D02*
X5100D01*
Y-1783D01*
X5151Y-1762D01*
X5214Y-1714D01*
X5262Y-1651D01*
X5283Y-1600D01*
D02*
G37*
G36*
X-5100Y-1100D02*
X-5283D01*
X-5262Y-1151D01*
X-5214Y-1214D01*
X-5151Y-1262D01*
X-5100Y-1283D01*
Y-1100D01*
D02*
G37*
G36*
X-8217D02*
X-8400D01*
Y-1283D01*
X-8349Y-1262D01*
X-8286Y-1214D01*
X-8238Y-1151D01*
X-8217Y-1100D01*
D02*
G37*
G36*
X7900D02*
X7717D01*
X7738Y-1151D01*
X7786Y-1214D01*
X7849Y-1262D01*
X7900Y-1283D01*
Y-1100D01*
D02*
G37*
G36*
X-4717D02*
X-4900D01*
Y-1283D01*
X-4849Y-1262D01*
X-4786Y-1214D01*
X-4738Y-1151D01*
X-4717Y-1100D01*
D02*
G37*
G36*
X-8600D02*
X-8783D01*
X-8762Y-1151D01*
X-8714Y-1214D01*
X-8651Y-1262D01*
X-8600Y-1283D01*
Y-1100D01*
D02*
G37*
G36*
X-8900Y-900D02*
X-9650D01*
Y-1400D01*
X-8900D01*
Y-900D01*
D02*
G37*
G36*
X-9850D02*
X-10600D01*
Y-1400D01*
X-9850D01*
Y-900D01*
D02*
G37*
G36*
X5100Y-1217D02*
Y-1400D01*
X5283D01*
X5262Y-1349D01*
X5214Y-1286D01*
X5151Y-1238D01*
X5100Y-1217D01*
D02*
G37*
G36*
X4900D02*
X4849Y-1238D01*
X4786Y-1286D01*
X4738Y-1349D01*
X4717Y-1400D01*
X4900D01*
Y-1217D01*
D02*
G37*
G36*
X-2900Y-4717D02*
Y-4900D01*
X-2717D01*
X-2738Y-4849D01*
X-2786Y-4786D01*
X-2849Y-4738D01*
X-2900Y-4717D01*
D02*
G37*
G36*
X-746Y-6213D02*
X-1063D01*
Y-6687D01*
X-746D01*
Y-6674D01*
X272D01*
Y-6853D01*
X628D01*
Y-6674D01*
X1366D01*
X1521Y-6829D01*
Y-7128D01*
X2153D01*
Y-7088D01*
X2265D01*
X2307Y-7106D01*
Y-7224D01*
X2663D01*
Y-7324D01*
X2763D01*
Y-7542D01*
X3019D01*
Y-7279D01*
X3065Y-7260D01*
X3177Y-7371D01*
X3221Y-7401D01*
X3274Y-7412D01*
X3274Y-7412D01*
X4971D01*
Y-7452D01*
X5112D01*
Y-7878D01*
X5065Y-7915D01*
X5023Y-7969D01*
X4997Y-8032D01*
X4988Y-8100D01*
X4997Y-8168D01*
X5023Y-8231D01*
X5065Y-8285D01*
X5119Y-8327D01*
X5182Y-8353D01*
X5250Y-8362D01*
X5318Y-8353D01*
X5381Y-8327D01*
X5435Y-8285D01*
X5477Y-8231D01*
X5503Y-8168D01*
X5512Y-8100D01*
X5503Y-8032D01*
X5477Y-7969D01*
X5435Y-7915D01*
X5388Y-7878D01*
Y-7452D01*
X5603D01*
Y-7096D01*
X4971D01*
Y-7136D01*
X3331D01*
X3047Y-6853D01*
X3003Y-6823D01*
X2950Y-6812D01*
X2153D01*
Y-6772D01*
X1853D01*
X1521Y-6439D01*
X1476Y-6409D01*
X1423Y-6399D01*
X628D01*
Y-6221D01*
X272D01*
Y-6399D01*
X-746D01*
Y-6213D01*
D02*
G37*
G36*
X-4205Y-8303D02*
X-4500D01*
Y-8500D01*
X-4205D01*
Y-8303D01*
D02*
G37*
G36*
X4883Y-8100D02*
X4700D01*
Y-8283D01*
X4751Y-8262D01*
X4814Y-8214D01*
X4862Y-8151D01*
X4883Y-8100D01*
D02*
G37*
G36*
X3300D02*
X3117D01*
X3138Y-8151D01*
X3186Y-8214D01*
X3249Y-8262D01*
X3300Y-8283D01*
Y-8100D01*
D02*
G37*
G36*
X-4700Y-8303D02*
X-4995D01*
Y-8500D01*
X-4700D01*
Y-8303D01*
D02*
G37*
G36*
X4700Y-8486D02*
X4050D01*
Y-8752D01*
X4700D01*
Y-8486D01*
D02*
G37*
G36*
X3850D02*
X3200D01*
Y-8752D01*
X3850D01*
Y-8486D01*
D02*
G37*
G36*
X-3372Y-8317D02*
X-3491D01*
Y-8593D01*
X-3372D01*
Y-8317D01*
D02*
G37*
G36*
X-3691D02*
X-3809D01*
Y-8593D01*
X-3691D01*
Y-8317D01*
D02*
G37*
G36*
X2400Y-8038D02*
X2332Y-8047D01*
X2269Y-8073D01*
X2215Y-8115D01*
X2187Y-8150D01*
X2137Y-8146D01*
X2137Y-8146D01*
X2137Y-8146D01*
X1663D01*
Y-8179D01*
X1445D01*
Y-8080D01*
X1167D01*
Y-8554D01*
X1445D01*
Y-8455D01*
X1663D01*
Y-8463D01*
X2137D01*
Y-8455D01*
X2191D01*
X2215Y-8485D01*
X2269Y-8527D01*
X2332Y-8553D01*
X2400Y-8562D01*
X2468Y-8553D01*
X2531Y-8527D01*
X2585Y-8485D01*
X2627Y-8431D01*
X2653Y-8368D01*
X2662Y-8300D01*
X2653Y-8232D01*
X2627Y-8169D01*
X2585Y-8115D01*
X2531Y-8073D01*
X2468Y-8047D01*
X2400Y-8038D01*
D02*
G37*
G36*
X3300Y-7717D02*
X3249Y-7738D01*
X3186Y-7786D01*
X3138Y-7849D01*
X3117Y-7900D01*
X3300D01*
Y-7717D01*
D02*
G37*
G36*
X1002Y-7047D02*
X646D01*
Y-7679D01*
X656D01*
Y-7919D01*
X610Y-7938D01*
X588Y-7916D01*
X543Y-7886D01*
X491Y-7876D01*
X-598D01*
Y-7697D01*
X-954D01*
Y-8329D01*
X-598D01*
Y-8151D01*
X434D01*
X574Y-8292D01*
Y-8342D01*
X353Y-8564D01*
X323Y-8608D01*
X312Y-8661D01*
Y-9528D01*
X265Y-9565D01*
X223Y-9619D01*
X197Y-9682D01*
X188Y-9750D01*
X197Y-9818D01*
X223Y-9881D01*
X265Y-9935D01*
X319Y-9977D01*
X382Y-10003D01*
X450Y-10012D01*
X518Y-10003D01*
X581Y-9977D01*
X635Y-9935D01*
X677Y-9881D01*
X703Y-9818D01*
X712Y-9750D01*
X703Y-9682D01*
X677Y-9619D01*
X635Y-9565D01*
X588Y-9528D01*
Y-9499D01*
X615Y-9460D01*
X638Y-9460D01*
X694D01*
Y-9183D01*
Y-8906D01*
X638D01*
X615Y-8906D01*
X588Y-8867D01*
X588Y-8867D01*
Y-8718D01*
X752Y-8554D01*
X933D01*
Y-8080D01*
X932D01*
Y-7679D01*
X1002D01*
Y-7047D01*
D02*
G37*
G36*
X3900Y-7717D02*
X3849Y-7738D01*
X3786Y-7786D01*
X3738Y-7849D01*
X3727Y-7875D01*
X3673D01*
X3662Y-7849D01*
X3614Y-7786D01*
X3551Y-7738D01*
X3500Y-7717D01*
Y-8000D01*
Y-8283D01*
X3551Y-8262D01*
X3614Y-8214D01*
X3662Y-8151D01*
X3673Y-8125D01*
X3727D01*
X3738Y-8151D01*
X3786Y-8214D01*
X3849Y-8262D01*
X3900Y-8283D01*
Y-8000D01*
Y-7717D01*
D02*
G37*
G36*
X4700D02*
Y-7900D01*
X4883D01*
X4862Y-7849D01*
X4814Y-7786D01*
X4751Y-7738D01*
X4700Y-7717D01*
D02*
G37*
G36*
X-1346Y-7697D02*
X-1702D01*
Y-7997D01*
X-1785Y-8079D01*
X-2231D01*
Y-7881D01*
X-2588D01*
Y-8553D01*
X-2231D01*
Y-8355D01*
X-1728D01*
X-1712Y-8351D01*
X-1662Y-8391D01*
Y-8781D01*
X-1651Y-8833D01*
X-1637Y-8854D01*
Y-9063D01*
X-1163D01*
Y-9042D01*
X-1037D01*
Y-9063D01*
X-563D01*
Y-9042D01*
X-437D01*
Y-9063D01*
X37D01*
Y-8746D01*
X-437D01*
Y-8767D01*
X-563D01*
Y-8746D01*
X-1037D01*
Y-8767D01*
X-1163D01*
Y-8746D01*
X-1364D01*
X-1386Y-8724D01*
Y-8329D01*
X-1346D01*
Y-7697D01*
D02*
G37*
G36*
X-3372Y-7841D02*
X-3491D01*
Y-8117D01*
X-3372D01*
Y-7841D01*
D02*
G37*
G36*
X-3691D02*
X-3809D01*
Y-8117D01*
X-3691D01*
Y-7841D01*
D02*
G37*
G36*
X-4205Y-7906D02*
X-4500D01*
Y-8103D01*
X-4205D01*
Y-7906D01*
D02*
G37*
G36*
X-4700D02*
X-4995D01*
Y-8103D01*
X-4700D01*
Y-7906D01*
D02*
G37*
G36*
X100Y-10217D02*
Y-10400D01*
X283D01*
X262Y-10349D01*
X214Y-10286D01*
X151Y-10238D01*
X100Y-10217D01*
D02*
G37*
G36*
X-100D02*
X-151Y-10238D01*
X-214Y-10286D01*
X-262Y-10349D01*
X-283Y-10400D01*
X-100D01*
Y-10217D01*
D02*
G37*
G36*
X77Y-9595D02*
X-100D01*
Y-9694D01*
X77D01*
Y-9595D01*
D02*
G37*
G36*
X-1500D02*
X-1677D01*
Y-9694D01*
X-1500D01*
Y-9595D01*
D02*
G37*
G36*
X-1400Y-10217D02*
Y-10400D01*
X-1217D01*
X-1238Y-10349D01*
X-1286Y-10286D01*
X-1349Y-10238D01*
X-1400Y-10217D01*
D02*
G37*
G36*
X283Y-10600D02*
X100D01*
Y-10783D01*
X151Y-10762D01*
X214Y-10714D01*
X262Y-10651D01*
X283Y-10600D01*
D02*
G37*
G36*
X-100D02*
X-283D01*
X-262Y-10651D01*
X-214Y-10714D01*
X-151Y-10762D01*
X-100Y-10783D01*
Y-10600D01*
D02*
G37*
G36*
X-1600Y-10217D02*
X-1651Y-10238D01*
X-1714Y-10286D01*
X-1762Y-10349D01*
X-1783Y-10400D01*
X-1600D01*
Y-10217D01*
D02*
G37*
G36*
X894Y-8906D02*
Y-9183D01*
Y-9460D01*
X912D01*
Y-10059D01*
X908Y-10061D01*
X854Y-10103D01*
X812Y-10157D01*
X786Y-10220D01*
X777Y-10288D01*
X786Y-10356D01*
X812Y-10419D01*
X854Y-10474D01*
X908Y-10515D01*
X971Y-10542D01*
X1039Y-10551D01*
X1107Y-10542D01*
X1170Y-10515D01*
X1225Y-10474D01*
X1266Y-10419D01*
X1293Y-10356D01*
X1301Y-10288D01*
X1293Y-10220D01*
X1266Y-10157D01*
X1225Y-10103D01*
X1188Y-10074D01*
Y-9420D01*
X1445D01*
Y-8946D01*
X973D01*
Y-8906D01*
X894D01*
D02*
G37*
G36*
X-1500Y-9297D02*
X-1677D01*
Y-9395D01*
X-1500D01*
Y-9297D01*
D02*
G37*
G36*
X2177Y-8995D02*
X2000D01*
Y-9094D01*
X2177D01*
Y-8995D01*
D02*
G37*
G36*
X1800D02*
X1623D01*
Y-9094D01*
X1800D01*
Y-8995D01*
D02*
G37*
G36*
X2177Y-8697D02*
X2000D01*
Y-8795D01*
X2177D01*
Y-8697D01*
D02*
G37*
G36*
X1800D02*
X1623D01*
Y-8795D01*
X1800D01*
Y-8697D01*
D02*
G37*
G36*
X4700Y-8952D02*
X4050D01*
Y-9217D01*
X4700D01*
Y-8952D01*
D02*
G37*
G36*
X-1077Y-9297D02*
X-1100D01*
X-1123D01*
X-1127Y-9297D01*
X-1300D01*
Y-9495D01*
Y-9694D01*
X-1127D01*
X-1123Y-9694D01*
X-1100D01*
X-1077D01*
X-1073Y-9694D01*
X-900D01*
Y-9495D01*
Y-9297D01*
X-1073D01*
X-1077Y-9297D01*
D02*
G37*
G36*
X-100Y-9297D02*
Y-9395D01*
X77D01*
Y-9297D01*
X-100D01*
D02*
G37*
G36*
X3850Y-8952D02*
X3200D01*
Y-9217D01*
X3850D01*
Y-8952D01*
D02*
G37*
G36*
X-477Y-9297D02*
X-500D01*
X-523D01*
X-527Y-9297D01*
X-700D01*
Y-9495D01*
Y-9694D01*
X-527D01*
X-523Y-9694D01*
X-500D01*
X-477D01*
X-473Y-9694D01*
X-300D01*
Y-9495D01*
Y-9297D01*
X-473D01*
X-477Y-9297D01*
D02*
G37*
G36*
X900Y-5100D02*
X717D01*
X738Y-5151D01*
X786Y-5214D01*
X849Y-5262D01*
X900Y-5283D01*
Y-5100D01*
D02*
G37*
G36*
X283D02*
X100D01*
Y-5283D01*
X151Y-5262D01*
X214Y-5214D01*
X262Y-5151D01*
X283Y-5100D01*
D02*
G37*
G36*
X1900D02*
X1717D01*
X1738Y-5151D01*
X1786Y-5214D01*
X1849Y-5262D01*
X1900Y-5283D01*
Y-5100D01*
D02*
G37*
G36*
X1283D02*
X1100D01*
Y-5283D01*
X1151Y-5262D01*
X1214Y-5214D01*
X1262Y-5151D01*
X1283Y-5100D01*
D02*
G37*
G36*
X-100D02*
X-283D01*
X-262Y-5151D01*
X-214Y-5214D01*
X-151Y-5262D01*
X-100Y-5283D01*
Y-5100D01*
D02*
G37*
G36*
X-1717D02*
X-1900D01*
Y-5283D01*
X-1849Y-5262D01*
X-1786Y-5214D01*
X-1738Y-5151D01*
X-1717Y-5100D01*
D02*
G37*
G36*
X-2100D02*
X-2283D01*
X-2262Y-5151D01*
X-2214Y-5214D01*
X-2151Y-5262D01*
X-2100Y-5283D01*
Y-5100D01*
D02*
G37*
G36*
X-717D02*
X-900D01*
Y-5283D01*
X-849Y-5262D01*
X-786Y-5214D01*
X-738Y-5151D01*
X-717Y-5100D01*
D02*
G37*
G36*
X-1100D02*
X-1283D01*
X-1262Y-5151D01*
X-1214Y-5214D01*
X-1151Y-5262D01*
X-1100Y-5283D01*
Y-5100D01*
D02*
G37*
G36*
X2283D02*
X2100D01*
Y-5283D01*
X2151Y-5262D01*
X2214Y-5214D01*
X2262Y-5151D01*
X2283Y-5100D01*
D02*
G37*
G36*
X-4100Y-4717D02*
X-4151Y-4738D01*
X-4214Y-4786D01*
X-4262Y-4849D01*
X-4283Y-4900D01*
X-4100D01*
Y-4717D01*
D02*
G37*
G36*
X-4900D02*
Y-4900D01*
X-4717D01*
X-4738Y-4849D01*
X-4786Y-4786D01*
X-4849Y-4738D01*
X-4900Y-4717D01*
D02*
G37*
G36*
X-3100D02*
X-3151Y-4738D01*
X-3214Y-4786D01*
X-3262Y-4849D01*
X-3283Y-4900D01*
X-3100D01*
Y-4717D01*
D02*
G37*
G36*
X-3900D02*
Y-4900D01*
X-3717D01*
X-3738Y-4849D01*
X-3786Y-4786D01*
X-3849Y-4738D01*
X-3900Y-4717D01*
D02*
G37*
G36*
X-5100D02*
X-5151Y-4738D01*
X-5214Y-4786D01*
X-5262Y-4849D01*
X-5283Y-4900D01*
X-5100D01*
Y-4717D01*
D02*
G37*
G36*
X3283Y-5100D02*
X3100D01*
Y-5283D01*
X3151Y-5262D01*
X3214Y-5214D01*
X3262Y-5151D01*
X3283Y-5100D01*
D02*
G37*
G36*
X2900D02*
X2717D01*
X2738Y-5151D01*
X2786Y-5214D01*
X2849Y-5262D01*
X2900Y-5283D01*
Y-5100D01*
D02*
G37*
G36*
X4283D02*
X4100D01*
Y-5283D01*
X4151Y-5262D01*
X4214Y-5214D01*
X4262Y-5151D01*
X4283Y-5100D01*
D02*
G37*
G36*
X3900D02*
X3717D01*
X3738Y-5151D01*
X3786Y-5214D01*
X3849Y-5262D01*
X3900Y-5283D01*
Y-5100D01*
D02*
G37*
G36*
X-24Y-7007D02*
X-142D01*
Y-7263D01*
X-24D01*
Y-7007D01*
D02*
G37*
G36*
X-6130Y-6047D02*
X-6250Y-6059D01*
X-6365Y-6094D01*
X-6471Y-6150D01*
X-6563Y-6227D01*
X-6640Y-6319D01*
X-6696Y-6425D01*
X-6731Y-6540D01*
X-6743Y-6660D01*
X-6731Y-6780D01*
X-6696Y-6895D01*
X-6640Y-7001D01*
X-6563Y-7093D01*
X-6471Y-7170D01*
X-6365Y-7226D01*
X-6250Y-7261D01*
X-6130Y-7273D01*
X-6010Y-7261D01*
X-5895Y-7226D01*
X-5789Y-7170D01*
X-5697Y-7093D01*
X-5620Y-7001D01*
X-5564Y-6895D01*
X-5529Y-6780D01*
X-5517Y-6660D01*
X-5529Y-6540D01*
X-5564Y-6425D01*
X-5620Y-6319D01*
X-5697Y-6227D01*
X-5789Y-6150D01*
X-5895Y-6094D01*
X-6010Y-6059D01*
X-6130Y-6047D01*
D02*
G37*
G36*
X7677Y-3677D02*
X7550Y-3690D01*
X7427Y-3727D01*
X7314Y-3787D01*
X7215Y-3868D01*
X7134Y-3968D01*
X7073Y-4081D01*
X7036Y-4203D01*
X7023Y-4331D01*
Y-5118D01*
X7036Y-5246D01*
X7073Y-5368D01*
X7134Y-5481D01*
X7215Y-5580D01*
X7314Y-5662D01*
X7427Y-5722D01*
X7463Y-5733D01*
Y-6134D01*
X6911Y-6686D01*
X6113D01*
X6031Y-6702D01*
X6002Y-6722D01*
X5797D01*
Y-7078D01*
X6002D01*
X6031Y-7098D01*
X6113Y-7114D01*
X7000D01*
X7082Y-7098D01*
X7151Y-7051D01*
X7829Y-6374D01*
X7875Y-6305D01*
X7891Y-6223D01*
Y-5733D01*
X7927Y-5722D01*
X8040Y-5662D01*
X8139Y-5580D01*
X8221Y-5481D01*
X8281Y-5368D01*
X8318Y-5246D01*
X8331Y-5118D01*
Y-4331D01*
X8318Y-4203D01*
X8281Y-4081D01*
X8221Y-3968D01*
X8139Y-3868D01*
X8040Y-3787D01*
X7927Y-3727D01*
X7805Y-3690D01*
X7677Y-3677D01*
D02*
G37*
G36*
X294Y-7007D02*
X176D01*
Y-7263D01*
X294D01*
Y-7007D01*
D02*
G37*
G36*
X2563Y-7424D02*
X2307D01*
Y-7542D01*
X2563D01*
Y-7424D01*
D02*
G37*
G36*
X-24Y-7463D02*
X-142D01*
Y-7719D01*
X-24D01*
Y-7463D01*
D02*
G37*
G36*
X4500Y-7717D02*
X4449Y-7738D01*
X4386Y-7786D01*
X4338Y-7849D01*
X4327Y-7875D01*
X4273D01*
X4262Y-7849D01*
X4214Y-7786D01*
X4151Y-7738D01*
X4100Y-7717D01*
Y-8000D01*
Y-8283D01*
X4151Y-8262D01*
X4214Y-8214D01*
X4262Y-8151D01*
X4273Y-8125D01*
X4327D01*
X4338Y-8151D01*
X4386Y-8214D01*
X4449Y-8262D01*
X4500Y-8283D01*
Y-8000D01*
Y-7717D01*
D02*
G37*
G36*
X-3096Y-7047D02*
X-3452D01*
Y-7679D01*
X-3096D01*
Y-7047D01*
D02*
G37*
G36*
X294Y-7463D02*
X176D01*
Y-7719D01*
X294D01*
Y-7463D01*
D02*
G37*
G36*
X-972Y-6871D02*
X-1328D01*
Y-7049D01*
X-2348D01*
Y-7047D01*
X-2704D01*
Y-7679D01*
X-2348D01*
Y-7380D01*
X-2292Y-7324D01*
X-1328D01*
Y-7503D01*
X-972D01*
Y-6871D01*
D02*
G37*
G36*
X-3717Y-5100D02*
X-3900D01*
Y-5283D01*
X-3849Y-5262D01*
X-3786Y-5214D01*
X-3738Y-5151D01*
X-3717Y-5100D01*
D02*
G37*
G36*
X-4100D02*
X-4283D01*
X-4262Y-5151D01*
X-4214Y-5214D01*
X-4151Y-5262D01*
X-4100Y-5283D01*
Y-5100D01*
D02*
G37*
G36*
X-2717D02*
X-2900D01*
Y-5283D01*
X-2849Y-5262D01*
X-2786Y-5214D01*
X-2738Y-5151D01*
X-2717Y-5100D01*
D02*
G37*
G36*
X-3100D02*
X-3283D01*
X-3262Y-5151D01*
X-3214Y-5214D01*
X-3151Y-5262D01*
X-3100Y-5283D01*
Y-5100D01*
D02*
G37*
G36*
X-4717D02*
X-4900D01*
Y-5283D01*
X-4849Y-5262D01*
X-4786Y-5214D01*
X-4738Y-5151D01*
X-4717Y-5100D01*
D02*
G37*
G36*
X6800Y-5988D02*
X6732Y-5997D01*
X6669Y-6023D01*
X6615Y-6065D01*
X6578Y-6112D01*
X5563D01*
X5563Y-6112D01*
X5510Y-6123D01*
X5465Y-6153D01*
X5303Y-6315D01*
X5287Y-6312D01*
X4660D01*
Y-6223D01*
X3240D01*
Y-6438D01*
X2979D01*
Y-6398D01*
X2347D01*
Y-6754D01*
X2979D01*
Y-6714D01*
X3240D01*
Y-6874D01*
X4660D01*
Y-6740D01*
X5287D01*
X5369Y-6724D01*
X5398Y-6704D01*
X5603D01*
Y-6405D01*
X5620Y-6388D01*
X6578D01*
X6615Y-6435D01*
X6669Y-6477D01*
X6732Y-6503D01*
X6800Y-6512D01*
X6868Y-6503D01*
X6931Y-6477D01*
X6985Y-6435D01*
X7027Y-6381D01*
X7053Y-6318D01*
X7062Y-6250D01*
X7053Y-6182D01*
X7027Y-6119D01*
X6985Y-6065D01*
X6931Y-6023D01*
X6868Y-5997D01*
X6800Y-5988D01*
D02*
G37*
G36*
X-1337Y-6213D02*
X-1654D01*
Y-6312D01*
X-2722D01*
Y-6221D01*
X-3078D01*
Y-6853D01*
X-2722D01*
Y-6588D01*
X-1654D01*
Y-6687D01*
X-1337D01*
Y-6213D01*
D02*
G37*
G36*
X-5100Y-5100D02*
X-5283D01*
X-5262Y-5151D01*
X-5214Y-5214D01*
X-5151Y-5262D01*
X-5100Y-5283D01*
Y-5100D01*
D02*
G37*
G36*
X5358Y-4249D02*
X5224Y-4262D01*
X5095Y-4301D01*
X4976Y-4365D01*
X4872Y-4450D01*
X4786Y-4555D01*
X4722Y-4674D01*
X4683Y-4803D01*
X4670Y-4937D01*
X4683Y-5071D01*
X4722Y-5200D01*
X4786Y-5319D01*
X4872Y-5424D01*
X4976Y-5509D01*
X5095Y-5573D01*
X5224Y-5612D01*
X5358Y-5625D01*
X5493Y-5612D01*
X5622Y-5573D01*
X5741Y-5509D01*
X5845Y-5424D01*
X5931Y-5319D01*
X5994Y-5200D01*
X6033Y-5071D01*
X6047Y-4937D01*
X6033Y-4803D01*
X5994Y-4674D01*
X5931Y-4555D01*
X5845Y-4450D01*
X5741Y-4365D01*
X5622Y-4301D01*
X5493Y-4262D01*
X5358Y-4249D01*
D02*
G37*
G36*
X-1900Y5283D02*
Y5100D01*
X-1717D01*
X-1738Y5151D01*
X-1786Y5214D01*
X-1849Y5262D01*
X-1900Y5283D01*
D02*
G37*
G36*
X-2100D02*
X-2151Y5262D01*
X-2214Y5214D01*
X-2262Y5151D01*
X-2283Y5100D01*
X-2100D01*
Y5283D01*
D02*
G37*
G36*
X-900D02*
Y5100D01*
X-717D01*
X-738Y5151D01*
X-786Y5214D01*
X-849Y5262D01*
X-900Y5283D01*
D02*
G37*
G36*
X-1100D02*
X-1151Y5262D01*
X-1214Y5214D01*
X-1262Y5151D01*
X-1283Y5100D01*
X-1100D01*
Y5283D01*
D02*
G37*
G36*
X-2900D02*
Y5100D01*
X-2717D01*
X-2738Y5151D01*
X-2786Y5214D01*
X-2849Y5262D01*
X-2900Y5283D01*
D02*
G37*
G36*
X-4100D02*
X-4151Y5262D01*
X-4214Y5214D01*
X-4262Y5151D01*
X-4283Y5100D01*
X-4100D01*
Y5283D01*
D02*
G37*
G36*
X-7577Y5802D02*
Y4824D01*
X-6983D01*
Y5118D01*
X-6997Y5253D01*
X-7036Y5384D01*
X-7100Y5504D01*
X-7187Y5609D01*
X-7292Y5695D01*
X-7412Y5759D01*
X-7542Y5799D01*
X-7577Y5802D01*
D02*
G37*
G36*
X-3100Y5283D02*
X-3151Y5262D01*
X-3214Y5214D01*
X-3262Y5151D01*
X-3283Y5100D01*
X-3100D01*
Y5283D01*
D02*
G37*
G36*
X-3900D02*
Y5100D01*
X-3717D01*
X-3738Y5151D01*
X-3786Y5214D01*
X-3849Y5262D01*
X-3900Y5283D01*
D02*
G37*
G36*
X-100D02*
X-151Y5262D01*
X-214Y5214D01*
X-262Y5151D01*
X-283Y5100D01*
X-100D01*
Y5283D01*
D02*
G37*
G36*
X3100D02*
Y5100D01*
X3283D01*
X3262Y5151D01*
X3214Y5214D01*
X3151Y5262D01*
X3100Y5283D01*
D02*
G37*
G36*
X2900D02*
X2849Y5262D01*
X2786Y5214D01*
X2738Y5151D01*
X2717Y5100D01*
X2900D01*
Y5283D01*
D02*
G37*
G36*
X4100D02*
Y5100D01*
X4283D01*
X4262Y5151D01*
X4214Y5214D01*
X4151Y5262D01*
X4100Y5283D01*
D02*
G37*
G36*
X3900D02*
X3849Y5262D01*
X3786Y5214D01*
X3738Y5151D01*
X3717Y5100D01*
X3900D01*
Y5283D01*
D02*
G37*
G36*
X2100D02*
Y5100D01*
X2283D01*
X2262Y5151D01*
X2214Y5214D01*
X2151Y5262D01*
X2100Y5283D01*
D02*
G37*
G36*
X900D02*
X849Y5262D01*
X786Y5214D01*
X738Y5151D01*
X717Y5100D01*
X900D01*
Y5283D01*
D02*
G37*
G36*
X100D02*
Y5100D01*
X283D01*
X262Y5151D01*
X214Y5214D01*
X151Y5262D01*
X100Y5283D01*
D02*
G37*
G36*
X1900D02*
X1849Y5262D01*
X1786Y5214D01*
X1738Y5151D01*
X1717Y5100D01*
X1900D01*
Y5283D01*
D02*
G37*
G36*
X1100D02*
Y5100D01*
X1283D01*
X1262Y5151D01*
X1214Y5214D01*
X1151Y5262D01*
X1100Y5283D01*
D02*
G37*
G36*
X-100Y4900D02*
X-283D01*
X-262Y4849D01*
X-214Y4786D01*
X-151Y4738D01*
X-100Y4717D01*
Y4900D01*
D02*
G37*
G36*
X-717D02*
X-900D01*
Y4717D01*
X-849Y4738D01*
X-786Y4786D01*
X-738Y4849D01*
X-717Y4900D01*
D02*
G37*
G36*
X900D02*
X717D01*
X738Y4849D01*
X786Y4786D01*
X849Y4738D01*
X900Y4717D01*
Y4900D01*
D02*
G37*
G36*
X283D02*
X100D01*
Y4717D01*
X151Y4738D01*
X214Y4786D01*
X262Y4849D01*
X283Y4900D01*
D02*
G37*
G36*
X-1100D02*
X-1283D01*
X-1262Y4849D01*
X-1214Y4786D01*
X-1151Y4738D01*
X-1100Y4717D01*
Y4900D01*
D02*
G37*
G36*
X-2717D02*
X-2900D01*
Y4717D01*
X-2849Y4738D01*
X-2786Y4786D01*
X-2738Y4849D01*
X-2717Y4900D01*
D02*
G37*
G36*
X-3100D02*
X-3283D01*
X-3262Y4849D01*
X-3214Y4786D01*
X-3151Y4738D01*
X-3100Y4717D01*
Y4900D01*
D02*
G37*
G36*
X-1717D02*
X-1900D01*
Y4717D01*
X-1849Y4738D01*
X-1786Y4786D01*
X-1738Y4849D01*
X-1717Y4900D01*
D02*
G37*
G36*
X-2100D02*
X-2283D01*
X-2262Y4849D01*
X-2214Y4786D01*
X-2151Y4738D01*
X-2100Y4717D01*
Y4900D01*
D02*
G37*
G36*
X1283D02*
X1100D01*
Y4717D01*
X1151Y4738D01*
X1214Y4786D01*
X1262Y4849D01*
X1283Y4900D01*
D02*
G37*
G36*
X4900D02*
X4717D01*
X4738Y4849D01*
X4786Y4786D01*
X4849Y4738D01*
X4900Y4717D01*
Y4900D01*
D02*
G37*
G36*
X4283D02*
X4100D01*
Y4717D01*
X4151Y4738D01*
X4214Y4786D01*
X4262Y4849D01*
X4283Y4900D01*
D02*
G37*
G36*
X-7777Y5802D02*
X-7813Y5799D01*
X-7943Y5759D01*
X-8063Y5695D01*
X-8168Y5609D01*
X-8254Y5504D01*
X-8318Y5384D01*
X-8358Y5253D01*
X-8371Y5118D01*
Y4824D01*
X-7777D01*
Y5802D01*
D02*
G37*
G36*
X5283Y4900D02*
X5100D01*
Y4717D01*
X5151Y4738D01*
X5214Y4786D01*
X5262Y4849D01*
X5283Y4900D01*
D02*
G37*
G36*
X3900D02*
X3717D01*
X3738Y4849D01*
X3786Y4786D01*
X3849Y4738D01*
X3900Y4717D01*
Y4900D01*
D02*
G37*
G36*
X2283D02*
X2100D01*
Y4717D01*
X2151Y4738D01*
X2214Y4786D01*
X2262Y4849D01*
X2283Y4900D01*
D02*
G37*
G36*
X1900D02*
X1717D01*
X1738Y4849D01*
X1786Y4786D01*
X1849Y4738D01*
X1900Y4717D01*
Y4900D01*
D02*
G37*
G36*
X3283D02*
X3100D01*
Y4717D01*
X3151Y4738D01*
X3214Y4786D01*
X3262Y4849D01*
X3283Y4900D01*
D02*
G37*
G36*
X2900D02*
X2717D01*
X2738Y4849D01*
X2786Y4786D01*
X2849Y4738D01*
X2900Y4717D01*
Y4900D01*
D02*
G37*
G36*
X3300Y9850D02*
X2800D01*
Y9350D01*
X3300D01*
Y9850D01*
D02*
G37*
G36*
X2600D02*
X2100D01*
Y9350D01*
X2600D01*
Y9850D01*
D02*
G37*
G36*
X-1217Y10150D02*
X-1400D01*
Y9967D01*
X-1349Y9988D01*
X-1286Y10036D01*
X-1238Y10099D01*
X-1217Y10150D01*
D02*
G37*
G36*
X-1600D02*
X-1783D01*
X-1762Y10099D01*
X-1714Y10036D01*
X-1651Y9988D01*
X-1600Y9967D01*
Y10150D01*
D02*
G37*
G36*
X-507Y9586D02*
X-782D01*
Y9312D01*
X-507D01*
Y9586D01*
D02*
G37*
G36*
X-200Y9294D02*
X-377D01*
Y9195D01*
X-200D01*
Y9294D01*
D02*
G37*
G36*
X177Y8995D02*
X0D01*
Y8897D01*
X177D01*
Y8995D01*
D02*
G37*
G36*
X-982Y9586D02*
X-1258D01*
Y9312D01*
X-982D01*
Y9586D01*
D02*
G37*
G36*
X177Y9294D02*
X0D01*
Y9195D01*
X177D01*
Y9294D01*
D02*
G37*
G36*
X-100Y10150D02*
X-283D01*
X-262Y10099D01*
X-214Y10036D01*
X-151Y9988D01*
X-100Y9967D01*
Y10150D01*
D02*
G37*
G36*
X100Y10533D02*
Y10350D01*
X283D01*
X262Y10401D01*
X214Y10464D01*
X151Y10512D01*
X100Y10533D01*
D02*
G37*
G36*
X-100D02*
X-151Y10512D01*
X-214Y10464D01*
X-262Y10401D01*
X-283Y10350D01*
X-100D01*
Y10533D01*
D02*
G37*
G36*
X2100D02*
Y10350D01*
X2283D01*
X2262Y10401D01*
X2214Y10464D01*
X2151Y10512D01*
X2100Y10533D01*
D02*
G37*
G36*
X1900D02*
X1849Y10512D01*
X1786Y10464D01*
X1738Y10401D01*
X1717Y10350D01*
X1900D01*
Y10533D01*
D02*
G37*
G36*
X-1400D02*
Y10350D01*
X-1217D01*
X-1238Y10401D01*
X-1286Y10464D01*
X-1349Y10512D01*
X-1400Y10533D01*
D02*
G37*
G36*
X1900Y10150D02*
X1717D01*
X1738Y10099D01*
X1786Y10036D01*
X1849Y9988D01*
X1900Y9967D01*
Y10150D01*
D02*
G37*
G36*
X283D02*
X100D01*
Y9967D01*
X151Y9988D01*
X214Y10036D01*
X262Y10099D01*
X283Y10150D01*
D02*
G37*
G36*
X-1600Y10533D02*
X-1651Y10512D01*
X-1714Y10464D01*
X-1762Y10401D01*
X-1783Y10350D01*
X-1600D01*
Y10533D01*
D02*
G37*
G36*
X2283Y10150D02*
X2100D01*
Y9967D01*
X2151Y9988D01*
X2214Y10036D01*
X2262Y10099D01*
X2283Y10150D01*
D02*
G37*
G36*
X-217Y7250D02*
X-400D01*
Y7067D01*
X-349Y7088D01*
X-286Y7136D01*
X-238Y7199D01*
X-217Y7250D01*
D02*
G37*
G36*
X-600D02*
X-783D01*
X-762Y7199D01*
X-714Y7136D01*
X-651Y7088D01*
X-600Y7067D01*
Y7250D01*
D02*
G37*
G36*
X783D02*
X600D01*
Y7067D01*
X651Y7088D01*
X714Y7136D01*
X762Y7199D01*
X783Y7250D01*
D02*
G37*
G36*
X400D02*
X217D01*
X238Y7199D01*
X286Y7136D01*
X349Y7088D01*
X400Y7067D01*
Y7250D01*
D02*
G37*
G36*
X-1281D02*
X-1478D01*
Y6955D01*
X-1281D01*
Y7250D01*
D02*
G37*
G36*
X5100Y5283D02*
Y5100D01*
X5283D01*
X5262Y5151D01*
X5214Y5214D01*
X5151Y5262D01*
X5100Y5283D01*
D02*
G37*
G36*
X4900D02*
X4849Y5262D01*
X4786Y5214D01*
X4738Y5151D01*
X4717Y5100D01*
X4900D01*
Y5283D01*
D02*
G37*
G36*
X-1678Y7250D02*
X-1874D01*
Y6955D01*
X-1678D01*
Y7250D01*
D02*
G37*
G36*
X6130Y7273D02*
X6010Y7261D01*
X5895Y7226D01*
X5789Y7170D01*
X5697Y7093D01*
X5620Y7001D01*
X5564Y6895D01*
X5529Y6780D01*
X5517Y6660D01*
X5529Y6540D01*
X5564Y6425D01*
X5620Y6319D01*
X5697Y6227D01*
X5789Y6150D01*
X5895Y6094D01*
X6010Y6059D01*
X6130Y6047D01*
X6250Y6059D01*
X6365Y6094D01*
X6471Y6150D01*
X6563Y6227D01*
X6640Y6319D01*
X6696Y6425D01*
X6731Y6540D01*
X6743Y6660D01*
X6731Y6780D01*
X6696Y6895D01*
X6640Y7001D01*
X6563Y7093D01*
X6471Y7170D01*
X6365Y7226D01*
X6250Y7261D01*
X6130Y7273D01*
D02*
G37*
G36*
X-1678Y7745D02*
X-1874D01*
Y7450D01*
X-1678D01*
Y7745D01*
D02*
G37*
G36*
X3300Y9150D02*
X2800D01*
Y8650D01*
X3300D01*
Y9150D01*
D02*
G37*
G36*
X2600D02*
X2100D01*
Y8650D01*
X2600D01*
Y9150D01*
D02*
G37*
G36*
X-200Y8995D02*
X-377D01*
Y8897D01*
X-200D01*
Y8995D01*
D02*
G37*
G36*
X1610Y9810D02*
X490D01*
Y8719D01*
X-100D01*
X-182Y8703D01*
X-183Y8702D01*
X-511D01*
X-547Y8737D01*
Y8789D01*
X-547Y8814D01*
X-544Y8816D01*
X-543Y8817D01*
X-507Y8839D01*
Y8839D01*
X-507Y8842D01*
X-507Y8843D01*
X-507Y8843D01*
Y8843D01*
Y8844D01*
X-507Y8844D01*
X-507Y8845D01*
Y8845D01*
Y8845D01*
Y8845D01*
Y8846D01*
Y8846D01*
D01*
X-507Y8893D01*
Y9112D01*
X-1258D01*
Y8846D01*
X-1258Y8846D01*
X-1258D01*
Y8846D01*
Y8839D01*
X-1221Y8816D01*
X-1221Y8816D01*
X-1220Y8816D01*
X-1218Y8814D01*
X-1218Y8789D01*
Y8154D01*
X-547D01*
Y8274D01*
X-117D01*
X-35Y8290D01*
X-34Y8291D01*
X700D01*
X782Y8307D01*
X851Y8353D01*
X1188Y8690D01*
X1610D01*
Y9810D01*
D02*
G37*
G36*
X600Y7633D02*
Y7450D01*
X783D01*
X762Y7501D01*
X714Y7564D01*
X651Y7612D01*
X600Y7633D01*
D02*
G37*
G36*
X-600D02*
X-651Y7612D01*
X-714Y7564D01*
X-762Y7501D01*
X-783Y7450D01*
X-600D01*
Y7633D01*
D02*
G37*
G36*
X-1281Y7745D02*
X-1478D01*
Y7450D01*
X-1281D01*
Y7745D01*
D02*
G37*
G36*
X400Y7633D02*
X349Y7612D01*
X286Y7564D01*
X238Y7501D01*
X217Y7450D01*
X400D01*
Y7633D01*
D02*
G37*
G36*
X-400D02*
Y7450D01*
X-217D01*
X-238Y7501D01*
X-286Y7564D01*
X-349Y7612D01*
X-400Y7633D01*
D02*
G37*
G36*
X-3717Y4900D02*
X-3900D01*
Y4717D01*
X-3849Y4738D01*
X-3786Y4786D01*
X-3738Y4849D01*
X-3717Y4900D01*
D02*
G37*
G36*
X-4900Y2283D02*
Y2100D01*
X-4717D01*
X-4738Y2151D01*
X-4786Y2214D01*
X-4849Y2262D01*
X-4900Y2283D01*
D02*
G37*
G36*
X-5100D02*
X-5151Y2262D01*
X-5214Y2214D01*
X-5262Y2151D01*
X-5283Y2100D01*
X-5100D01*
Y2283D01*
D02*
G37*
G36*
X5100D02*
Y2100D01*
X5283D01*
X5262Y2151D01*
X5214Y2214D01*
X5151Y2262D01*
X5100Y2283D01*
D02*
G37*
G36*
X4900D02*
X4849Y2262D01*
X4786Y2214D01*
X4738Y2151D01*
X4717Y2100D01*
X4900D01*
Y2283D01*
D02*
G37*
G36*
X-8300Y1983D02*
Y1800D01*
X-8117D01*
X-8138Y1851D01*
X-8186Y1914D01*
X-8249Y1962D01*
X-8300Y1983D01*
D02*
G37*
G36*
X4900Y1900D02*
X4717D01*
X4738Y1849D01*
X4786Y1786D01*
X4849Y1738D01*
X4900Y1717D01*
Y1900D01*
D02*
G37*
G36*
X-4717D02*
X-4900D01*
Y1717D01*
X-4849Y1738D01*
X-4786Y1786D01*
X-4738Y1849D01*
X-4717Y1900D01*
D02*
G37*
G36*
X-8500Y1983D02*
X-8551Y1962D01*
X-8614Y1914D01*
X-8662Y1851D01*
X-8683Y1800D01*
X-8500D01*
Y1983D01*
D02*
G37*
G36*
X5283Y1900D02*
X5100D01*
Y1717D01*
X5151Y1738D01*
X5214Y1786D01*
X5262Y1849D01*
X5283Y1900D01*
D02*
G37*
G36*
X-10000Y2400D02*
X-10183D01*
X-10162Y2349D01*
X-10114Y2286D01*
X-10051Y2238D01*
X-10000Y2217D01*
Y2400D01*
D02*
G37*
G36*
X-9800Y2783D02*
Y2600D01*
X-9617D01*
X-9638Y2651D01*
X-9686Y2714D01*
X-9749Y2762D01*
X-9800Y2783D01*
D02*
G37*
G36*
X-10000D02*
X-10051Y2762D01*
X-10114Y2714D01*
X-10162Y2651D01*
X-10183Y2600D01*
X-10000D01*
Y2783D01*
D02*
G37*
G36*
X-9100D02*
Y2600D01*
X-8917D01*
X-8938Y2651D01*
X-8986Y2714D01*
X-9049Y2762D01*
X-9100Y2783D01*
D02*
G37*
G36*
X-9300D02*
X-9351Y2762D01*
X-9414Y2714D01*
X-9462Y2651D01*
X-9483Y2600D01*
X-9300D01*
Y2783D01*
D02*
G37*
G36*
X-8117Y2400D02*
X-8300D01*
Y2217D01*
X-8249Y2238D01*
X-8186Y2286D01*
X-8138Y2349D01*
X-8117Y2400D01*
D02*
G37*
G36*
X-9300D02*
X-9483D01*
X-9462Y2349D01*
X-9414Y2286D01*
X-9351Y2238D01*
X-9300Y2217D01*
Y2400D01*
D02*
G37*
G36*
X-9617D02*
X-9800D01*
Y2217D01*
X-9749Y2238D01*
X-9686Y2286D01*
X-9638Y2349D01*
X-9617Y2400D01*
D02*
G37*
G36*
X-8500D02*
X-8683D01*
X-8662Y2349D01*
X-8614Y2286D01*
X-8551Y2238D01*
X-8500Y2217D01*
Y2400D01*
D02*
G37*
G36*
X-8917D02*
X-9100D01*
Y2217D01*
X-9049Y2238D01*
X-8986Y2286D01*
X-8938Y2349D01*
X-8917Y2400D01*
D02*
G37*
G36*
X4900Y900D02*
X4717D01*
X4738Y849D01*
X4786Y786D01*
X4849Y738D01*
X4900Y717D01*
Y900D01*
D02*
G37*
G36*
X-4717D02*
X-4900D01*
Y717D01*
X-4849Y738D01*
X-4786Y786D01*
X-4738Y849D01*
X-4717Y900D01*
D02*
G37*
G36*
X-9850Y1400D02*
X-10600D01*
Y900D01*
X-9850D01*
Y1400D01*
D02*
G37*
G36*
X5283Y900D02*
X5100D01*
Y717D01*
X5151Y738D01*
X5214Y786D01*
X5262Y849D01*
X5283Y900D01*
D02*
G37*
G36*
X-5100D02*
X-5283D01*
X-5262Y849D01*
X-5214Y786D01*
X-5151Y738D01*
X-5100Y717D01*
Y900D01*
D02*
G37*
G36*
X-4900Y283D02*
Y100D01*
X-4717D01*
X-4738Y151D01*
X-4786Y214D01*
X-4849Y262D01*
X-4900Y283D01*
D02*
G37*
G36*
X-5100D02*
X-5151Y262D01*
X-5214Y214D01*
X-5262Y151D01*
X-5283Y100D01*
X-5100D01*
Y283D01*
D02*
G37*
G36*
X8100D02*
Y100D01*
X8283D01*
X8262Y151D01*
X8214Y214D01*
X8151Y262D01*
X8100Y283D01*
D02*
G37*
G36*
X7900D02*
X7849Y262D01*
X7786Y214D01*
X7738Y151D01*
X7717Y100D01*
X7900D01*
Y283D01*
D02*
G37*
G36*
X-8900Y1400D02*
X-9650D01*
Y900D01*
X-8900D01*
Y1400D01*
D02*
G37*
G36*
X-9850Y2100D02*
X-10600D01*
Y1600D01*
X-9850D01*
Y2100D01*
D02*
G37*
G36*
X-8117Y1600D02*
X-8300D01*
Y1417D01*
X-8249Y1438D01*
X-8186Y1486D01*
X-8138Y1549D01*
X-8117Y1600D01*
D02*
G37*
G36*
X-5100Y1900D02*
X-5283D01*
X-5262Y1849D01*
X-5214Y1786D01*
X-5151Y1738D01*
X-5100Y1717D01*
Y1900D01*
D02*
G37*
G36*
X-8900Y2100D02*
X-9650D01*
Y1600D01*
X-8900D01*
Y2100D01*
D02*
G37*
G36*
X-8500Y1600D02*
X-8683D01*
X-8662Y1549D01*
X-8614Y1486D01*
X-8551Y1438D01*
X-8500Y1417D01*
Y1600D01*
D02*
G37*
G36*
X-4900Y1283D02*
Y1100D01*
X-4717D01*
X-4738Y1151D01*
X-4786Y1214D01*
X-4849Y1262D01*
X-4900Y1283D01*
D02*
G37*
G36*
X-5100D02*
X-5151Y1262D01*
X-5214Y1214D01*
X-5262Y1151D01*
X-5283Y1100D01*
X-5100D01*
Y1283D01*
D02*
G37*
G36*
X5100D02*
Y1100D01*
X5283D01*
X5262Y1151D01*
X5214Y1214D01*
X5151Y1262D01*
X5100Y1283D01*
D02*
G37*
G36*
X4900D02*
X4849Y1262D01*
X4786Y1214D01*
X4738Y1151D01*
X4717Y1100D01*
X4900D01*
Y1283D01*
D02*
G37*
G36*
X-9300Y3900D02*
X-9483D01*
X-9462Y3849D01*
X-9414Y3786D01*
X-9351Y3738D01*
X-9300Y3717D01*
Y3900D01*
D02*
G37*
G36*
X-9617D02*
X-9800D01*
Y3717D01*
X-9749Y3738D01*
X-9686Y3786D01*
X-9638Y3849D01*
X-9617Y3900D01*
D02*
G37*
G36*
X-5100D02*
X-5283D01*
X-5262Y3849D01*
X-5214Y3786D01*
X-5151Y3738D01*
X-5100Y3717D01*
Y3900D01*
D02*
G37*
G36*
X-8917D02*
X-9100D01*
Y3717D01*
X-9049Y3738D01*
X-8986Y3786D01*
X-8938Y3849D01*
X-8917Y3900D01*
D02*
G37*
G36*
X-6983Y4624D02*
X-7577D01*
Y3647D01*
X-7542Y3650D01*
X-7412Y3690D01*
X-7292Y3754D01*
X-7187Y3840D01*
X-7100Y3945D01*
X-7036Y4065D01*
X-6997Y4195D01*
X-6983Y4331D01*
Y4624D01*
D02*
G37*
G36*
X-8500Y3483D02*
X-8551Y3462D01*
X-8614Y3414D01*
X-8662Y3351D01*
X-8683Y3300D01*
X-8500D01*
Y3483D01*
D02*
G37*
G36*
X-9100D02*
Y3300D01*
X-8917D01*
X-8938Y3351D01*
X-8986Y3414D01*
X-9049Y3462D01*
X-9100Y3483D01*
D02*
G37*
G36*
X-7777Y4624D02*
X-8371D01*
Y4331D01*
X-8358Y4195D01*
X-8318Y4065D01*
X-8254Y3945D01*
X-8168Y3840D01*
X-8063Y3754D01*
X-7943Y3690D01*
X-7813Y3650D01*
X-7777Y3647D01*
Y4624D01*
D02*
G37*
G36*
X-8300Y3483D02*
Y3300D01*
X-8117D01*
X-8138Y3351D01*
X-8186Y3414D01*
X-8249Y3462D01*
X-8300Y3483D01*
D02*
G37*
G36*
X-4717Y3900D02*
X-4900D01*
Y3717D01*
X-4849Y3738D01*
X-4786Y3786D01*
X-4738Y3849D01*
X-4717Y3900D01*
D02*
G37*
G36*
X4900Y4283D02*
X4849Y4262D01*
X4786Y4214D01*
X4738Y4151D01*
X4717Y4100D01*
X4900D01*
Y4283D01*
D02*
G37*
G36*
X-5358Y5625D02*
X-5493Y5612D01*
X-5622Y5573D01*
X-5741Y5509D01*
X-5845Y5424D01*
X-5931Y5319D01*
X-5994Y5200D01*
X-6033Y5071D01*
X-6047Y4937D01*
X-6033Y4803D01*
X-5994Y4674D01*
X-5931Y4555D01*
X-5845Y4450D01*
X-5741Y4365D01*
X-5622Y4301D01*
X-5493Y4262D01*
X-5358Y4249D01*
X-5235Y4261D01*
X-5216Y4228D01*
X-5213Y4214D01*
X-5214Y4214D01*
X-5262Y4151D01*
X-5283Y4100D01*
X-4717D01*
X-4738Y4151D01*
X-4786Y4214D01*
X-4849Y4262D01*
X-4922Y4292D01*
X-4989Y4301D01*
X-5001Y4338D01*
X-5002Y4351D01*
X-4976Y4365D01*
X-4872Y4450D01*
X-4786Y4555D01*
X-4722Y4674D01*
X-4683Y4803D01*
X-4670Y4937D01*
X-4683Y5071D01*
X-4722Y5200D01*
X-4786Y5319D01*
X-4872Y5424D01*
X-4976Y5509D01*
X-5095Y5573D01*
X-5224Y5612D01*
X-5358Y5625D01*
D02*
G37*
G36*
X-4100Y4900D02*
X-4283D01*
X-4262Y4849D01*
X-4214Y4786D01*
X-4151Y4738D01*
X-4100Y4717D01*
Y4900D01*
D02*
G37*
G36*
X5100Y4283D02*
Y4100D01*
X5283D01*
X5262Y4151D01*
X5214Y4214D01*
X5151Y4262D01*
X5100Y4283D01*
D02*
G37*
G36*
X-9100D02*
Y4100D01*
X-8917D01*
X-8938Y4151D01*
X-8986Y4214D01*
X-9049Y4262D01*
X-9100Y4283D01*
D02*
G37*
G36*
X5283Y3900D02*
X5100D01*
Y3717D01*
X5151Y3738D01*
X5214Y3786D01*
X5262Y3849D01*
X5283Y3900D01*
D02*
G37*
G36*
X4900D02*
X4717D01*
X4738Y3849D01*
X4786Y3786D01*
X4849Y3738D01*
X4900Y3717D01*
Y3900D01*
D02*
G37*
G36*
X-9300Y4283D02*
X-9351Y4262D01*
X-9414Y4214D01*
X-9462Y4151D01*
X-9483Y4100D01*
X-9300D01*
Y4283D01*
D02*
G37*
G36*
X-9800D02*
Y4100D01*
X-9617D01*
X-9638Y4151D01*
X-9686Y4214D01*
X-9749Y4262D01*
X-9800Y4283D01*
D02*
G37*
G36*
X-10000Y3100D02*
X-10183D01*
X-10162Y3049D01*
X-10114Y2986D01*
X-10051Y2938D01*
X-10000Y2917D01*
Y3100D01*
D02*
G37*
G36*
X5283Y2900D02*
X5100D01*
Y2717D01*
X5151Y2738D01*
X5214Y2786D01*
X5262Y2849D01*
X5283Y2900D01*
D02*
G37*
G36*
X-9300Y3100D02*
X-9483D01*
X-9462Y3049D01*
X-9414Y2986D01*
X-9351Y2938D01*
X-9300Y2917D01*
Y3100D01*
D02*
G37*
G36*
X-9617D02*
X-9800D01*
Y2917D01*
X-9749Y2938D01*
X-9686Y2986D01*
X-9638Y3049D01*
X-9617Y3100D01*
D02*
G37*
G36*
X4900Y2900D02*
X4717D01*
X4738Y2849D01*
X4786Y2786D01*
X4849Y2738D01*
X4900Y2717D01*
Y2900D01*
D02*
G37*
G36*
X-8300Y2783D02*
Y2600D01*
X-8117D01*
X-8138Y2651D01*
X-8186Y2714D01*
X-8249Y2762D01*
X-8300Y2783D01*
D02*
G37*
G36*
X-8500D02*
X-8551Y2762D01*
X-8614Y2714D01*
X-8662Y2651D01*
X-8683Y2600D01*
X-8500D01*
Y2783D01*
D02*
G37*
G36*
X-4717Y2900D02*
X-4900D01*
Y2717D01*
X-4849Y2738D01*
X-4786Y2786D01*
X-4738Y2849D01*
X-4717Y2900D01*
D02*
G37*
G36*
X-5100D02*
X-5283D01*
X-5262Y2849D01*
X-5214Y2786D01*
X-5151Y2738D01*
X-5100Y2717D01*
Y2900D01*
D02*
G37*
G36*
X-8917Y3100D02*
X-9100D01*
Y2917D01*
X-9049Y2938D01*
X-8986Y2986D01*
X-8938Y3049D01*
X-8917Y3100D01*
D02*
G37*
G36*
X-10000Y3483D02*
X-10051Y3462D01*
X-10114Y3414D01*
X-10162Y3351D01*
X-10183Y3300D01*
X-10000D01*
Y3483D01*
D02*
G37*
G36*
X5100Y3283D02*
Y3100D01*
X5283D01*
X5262Y3151D01*
X5214Y3214D01*
X5151Y3262D01*
X5100Y3283D01*
D02*
G37*
G36*
X-9300Y3483D02*
X-9351Y3462D01*
X-9414Y3414D01*
X-9462Y3351D01*
X-9483Y3300D01*
X-9300D01*
Y3483D01*
D02*
G37*
G36*
X-9800D02*
Y3300D01*
X-9617D01*
X-9638Y3351D01*
X-9686Y3414D01*
X-9749Y3462D01*
X-9800Y3483D01*
D02*
G37*
G36*
X4900Y3283D02*
X4849Y3262D01*
X4786Y3214D01*
X4738Y3151D01*
X4717Y3100D01*
X4900D01*
Y3283D01*
D02*
G37*
G36*
X-8117Y3100D02*
X-8300D01*
Y2917D01*
X-8249Y2938D01*
X-8186Y2986D01*
X-8138Y3049D01*
X-8117Y3100D01*
D02*
G37*
G36*
X-8500D02*
X-8683D01*
X-8662Y3049D01*
X-8614Y2986D01*
X-8551Y2938D01*
X-8500Y2917D01*
Y3100D01*
D02*
G37*
G36*
X-4900Y3283D02*
Y3100D01*
X-4717D01*
X-4738Y3151D01*
X-4786Y3214D01*
X-4849Y3262D01*
X-4900Y3283D01*
D02*
G37*
G36*
X-5100D02*
X-5151Y3262D01*
X-5214Y3214D01*
X-5262Y3151D01*
X-5283Y3100D01*
X-5100D01*
Y3283D01*
D02*
G37*
%LPD*%
D10*
X450Y-8661D02*
X794Y-8317D01*
X450Y-9750D02*
Y-8661D01*
X5250Y-7311D02*
X5287Y-7274D01*
X5250Y-8100D02*
Y-7311D01*
X5287Y-6526D02*
X5563Y-6250D01*
X6800D01*
X1039Y-10288D02*
X1050Y-10278D01*
Y-9183D01*
X2663Y-6576D02*
X3922D01*
X3950Y-6548D01*
X450Y-6537D02*
X1423D01*
X1837Y-6950D01*
X-818Y-6537D02*
X450D01*
X-2813Y-6450D02*
X-1495D01*
X-2526Y-7363D02*
X-2349Y-7187D01*
X-1150D01*
X-1524Y-8781D02*
Y-8013D01*
Y-8781D02*
X-1400Y-8905D01*
X-800D01*
X-200D01*
X-2409Y-8217D02*
X-1728D01*
X-1524Y-8013D01*
X794Y-8317D02*
Y-7393D01*
X824Y-7363D01*
X-776Y-8013D02*
X491D01*
X794Y-8317D01*
X2383D02*
X2400Y-8300D01*
X1306Y-8317D02*
X2383D01*
X1837Y-6950D02*
X2950D01*
X3274Y-7274D01*
X5287D01*
D12*
X0Y0D02*
D03*
D13*
X-5358Y4937D02*
D03*
X5358Y-4937D02*
D03*
D14*
X-6130Y-6660D02*
D03*
X6130Y6660D02*
D03*
D15*
X450Y-9750D02*
D03*
X5250Y-8100D02*
D03*
X6800Y-6250D02*
D03*
X0Y0D02*
D03*
X787D02*
D03*
X1575D02*
D03*
X2362D02*
D03*
X-787D02*
D03*
X-1575D02*
D03*
X-2362D02*
D03*
Y-787D02*
D03*
X-1575D02*
D03*
X-787D02*
D03*
X2362D02*
D03*
X1575D02*
D03*
X787D02*
D03*
X0D02*
D03*
X-2362Y-1575D02*
D03*
X-1575D02*
D03*
X-787D02*
D03*
X2362D02*
D03*
X1575D02*
D03*
X787D02*
D03*
X0D02*
D03*
X-2362Y787D02*
D03*
X-1575D02*
D03*
X-787D02*
D03*
X2362D02*
D03*
X1575D02*
D03*
X787D02*
D03*
X0D02*
D03*
X-2362Y1575D02*
D03*
X-1575D02*
D03*
X-787D02*
D03*
X2362D02*
D03*
X1575D02*
D03*
X787D02*
D03*
X0D02*
D03*
X-2362Y2362D02*
D03*
X-1575D02*
D03*
X-787D02*
D03*
X2362D02*
D03*
X1575D02*
D03*
X787D02*
D03*
X0D02*
D03*
X-2362Y-2362D02*
D03*
X-1575D02*
D03*
X-787D02*
D03*
X2362D02*
D03*
X1575D02*
D03*
X787D02*
D03*
X0D02*
D03*
X1039Y-10288D02*
D03*
X2400Y-8300D02*
D03*
X-8400Y3200D02*
D03*
Y2500D02*
D03*
Y1700D02*
D03*
X-9200Y2500D02*
D03*
Y4000D02*
D03*
Y3200D02*
D03*
X-9900D02*
D03*
Y4000D02*
D03*
Y2500D02*
D03*
X-5000Y-2000D02*
D03*
Y-3000D02*
D03*
Y-4000D02*
D03*
Y-1000D02*
D03*
X-8500Y0D02*
D03*
Y-1000D02*
D03*
Y-2000D02*
D03*
X3400Y-8000D02*
D03*
X8000Y-1000D02*
D03*
Y-2000D02*
D03*
Y0D02*
D03*
X4600Y-8000D02*
D03*
X4000D02*
D03*
X-500Y7350D02*
D03*
X500D02*
D03*
X0Y10250D02*
D03*
X-1500D02*
D03*
X2000D02*
D03*
X-1500Y-10500D02*
D03*
X0D02*
D03*
X-4000Y-5000D02*
D03*
X-5000D02*
D03*
X4000D02*
D03*
X0D02*
D03*
X1000D02*
D03*
X2000D02*
D03*
X3000D02*
D03*
X-1000D02*
D03*
X-2000D02*
D03*
X-3000D02*
D03*
X-5000Y0D02*
D03*
Y1000D02*
D03*
Y2000D02*
D03*
Y3000D02*
D03*
Y4000D02*
D03*
X-4000Y5000D02*
D03*
X-3000D02*
D03*
X-2000D02*
D03*
X-1000D02*
D03*
X0D02*
D03*
X1000D02*
D03*
X2000D02*
D03*
X3000D02*
D03*
X4000D02*
D03*
X5000D02*
D03*
Y4000D02*
D03*
Y3000D02*
D03*
Y2000D02*
D03*
Y1000D02*
D03*
Y-500D02*
D03*
Y-1500D02*
D03*
Y-2500D02*
D03*
Y-3500D02*
D03*
D16*
X-7671Y-6715D02*
G03*
X-4628Y-9084I7671J6715D01*
G01*
X-7576Y-6822D02*
G03*
X-7456Y-6953I7576J6822D01*
G01*
X-7677Y-6721D02*
Y4724D01*
Y-6721D02*
X-7576Y-6822D01*
X-100Y8505D02*
X700D01*
X1050Y8855D01*
Y9250D01*
X6113Y-6900D02*
X7000D01*
X7677Y-6223D01*
Y-4724D01*
X3972Y-6526D02*
X5287D01*
X3950Y-6548D02*
X3972Y-6526D01*
X-3098Y-9148D02*
X-3000Y-9050D01*
X-4702Y-9148D02*
X-4600D01*
X-3098D01*
X-7677Y4724D02*
X-3552Y8850D01*
X-2450D01*
Y7422D02*
Y8850D01*
X-882Y8488D02*
X-117D01*
D17*
X2700Y9250D02*
D03*
X1050D02*
D03*
D18*
X-9750Y-1500D02*
D03*
Y1500D02*
D03*
D19*
X-2522Y7350D02*
D03*
X-1578D02*
D03*
D20*
X-882Y8488D02*
D03*
Y9212D02*
D03*
D21*
X-2450Y8850D02*
D03*
D22*
X-100Y8505D02*
D03*
Y9095D02*
D03*
X-1400Y-8905D02*
D03*
Y-9495D02*
D03*
X-800Y-8905D02*
D03*
Y-9495D02*
D03*
X-200Y-8905D02*
D03*
Y-9495D02*
D03*
X1900Y-8305D02*
D03*
Y-8895D02*
D03*
D23*
X-4600Y-9148D02*
D03*
Y-8203D02*
D03*
D24*
X-3591Y-8217D02*
D03*
X-2409D02*
D03*
D25*
X-3000Y-8296D02*
D03*
D26*
X-2900Y-6537D02*
D03*
X-3274Y-7363D02*
D03*
X-2526D02*
D03*
X-1150Y-7187D02*
D03*
X-1524Y-8013D02*
D03*
X-776D02*
D03*
X450Y-6537D02*
D03*
X76Y-7363D02*
D03*
X824D02*
D03*
D27*
X-1495Y-6450D02*
D03*
X-905D02*
D03*
D28*
X1306Y-9183D02*
D03*
X1050D02*
D03*
X794D02*
D03*
Y-8317D02*
D03*
X1306D02*
D03*
D29*
X1837Y-6950D02*
D03*
X2663Y-7324D02*
D03*
Y-6576D02*
D03*
X6113Y-6900D02*
D03*
X5287Y-6526D02*
D03*
Y-7274D02*
D03*
D30*
X3950Y-6548D02*
D03*
Y-8852D02*
D03*
D31*
X-7677Y4724D02*
D03*
X7677Y-4724D02*
D03*
M02*
