%FSLAX24Y24*%
%MOIN*%
G70*
G01*
G75*
G04 Layer_Physical_Order=1*
G04 Layer_Color=255*
%ADD10C,0.0150*%
%ADD11R,0.1000X0.0291*%
%ADD12R,0.8661X0.8661*%
%ADD13O,0.0669X0.1102*%
%ADD14C,0.1100*%
%ADD15C,0.0400*%
G36*
X659Y10895D02*
X1316Y10835D01*
X1967Y10736D01*
X2612Y10598D01*
X3247Y10421D01*
X3871Y10206D01*
X4480Y9953D01*
X5072Y9665D01*
X5647Y9341D01*
X6200Y8983D01*
X6731Y8592D01*
X7238Y8170D01*
X7718Y7718D01*
X8170Y7238D01*
X8592Y6731D01*
X8983Y6200D01*
X9341Y5647D01*
X9665Y5072D01*
X9953Y4480D01*
X10206Y3871D01*
X10421Y3247D01*
X10598Y2612D01*
X10736Y1967D01*
X10835Y1316D01*
X10895Y659D01*
X10915Y0D01*
X10895Y-659D01*
X10835Y-1316D01*
X10736Y-1967D01*
X10598Y-2612D01*
X10421Y-3247D01*
X10206Y-3871D01*
X9953Y-4480D01*
X9665Y-5072D01*
X9341Y-5647D01*
X8983Y-6200D01*
X8592Y-6731D01*
X8170Y-7238D01*
X7718Y-7718D01*
X7238Y-8170D01*
X6731Y-8592D01*
X6200Y-8983D01*
X5647Y-9341D01*
X5072Y-9665D01*
X4480Y-9953D01*
X3871Y-10206D01*
X3247Y-10421D01*
X2612Y-10598D01*
X1967Y-10736D01*
X1316Y-10835D01*
X659Y-10895D01*
X0Y-10915D01*
X-659Y-10895D01*
X-1316Y-10835D01*
X-1374Y-10827D01*
X-1380Y-10775D01*
X-1349Y-10762D01*
X-1286Y-10714D01*
X-1238Y-10651D01*
X-1217Y-10600D01*
X-1783D01*
X-1762Y-10651D01*
X-1714Y-10714D01*
X-1697Y-10727D01*
X-1718Y-10774D01*
X-1967Y-10736D01*
X-2612Y-10598D01*
X-3247Y-10421D01*
X-3871Y-10206D01*
X-4480Y-9953D01*
X-5072Y-9665D01*
X-5647Y-9341D01*
X-6200Y-8983D01*
X-6731Y-8592D01*
X-7238Y-8170D01*
X-7718Y-7718D01*
X-8170Y-7238D01*
X-8592Y-6731D01*
X-8983Y-6200D01*
X-9341Y-5647D01*
X-9665Y-5072D01*
X-9953Y-4480D01*
X-10206Y-3871D01*
X-10421Y-3247D01*
X-10598Y-2612D01*
X-10736Y-1967D01*
X-10835Y-1316D01*
X-10895Y-659D01*
X-10915Y0D01*
X-10895Y650D01*
X-10895Y650D01*
X-10868Y676D01*
X-10863Y679D01*
X-10850Y685D01*
X-7798D01*
X-7795Y686D01*
X-7792Y685D01*
X-7744Y690D01*
X-7724Y700D01*
X-7704Y708D01*
X-7703Y711D01*
X-7700Y713D01*
X-7693Y734D01*
X-7685Y754D01*
X-7685Y794D01*
X-6954D01*
X-6950Y746D01*
X-6950Y746D01*
X-6950Y746D01*
Y600D01*
X-5750D01*
Y746D01*
X-6182D01*
X-6185Y750D01*
Y5815D01*
X-6204Y5861D01*
X-6239Y5896D01*
X-6285Y5915D01*
X-9115Y5915D01*
X-9139Y5959D01*
X-8983Y6200D01*
X-8592Y6731D01*
X-8170Y7238D01*
X-7718Y7718D01*
X-7238Y8170D01*
X-6731Y8592D01*
X-6200Y8983D01*
X-5647Y9341D01*
X-5072Y9665D01*
X-4480Y9953D01*
X-3871Y10206D01*
X-3247Y10421D01*
X-2612Y10598D01*
X-1967Y10736D01*
X-1316Y10835D01*
X-659Y10895D01*
X0Y10915D01*
X659Y10895D01*
D02*
G37*
G36*
X-6250Y5815D02*
Y750D01*
X-6501D01*
X-6550Y754D01*
X-6550Y800D01*
Y900D01*
X-7750D01*
Y800D01*
X-7750Y754D01*
X-7798Y750D01*
X-10850D01*
X-10883Y787D01*
X-10835Y1316D01*
X-10736Y1967D01*
X-10598Y2612D01*
X-10421Y3247D01*
X-10215Y3845D01*
X-10169Y3848D01*
X-10161Y3847D01*
X-10114Y3786D01*
X-10051Y3738D01*
X-10000Y3717D01*
Y4000D01*
Y4309D01*
X-10017Y4326D01*
X-9953Y4480D01*
X-9665Y5072D01*
X-9341Y5647D01*
X-9209Y5850D01*
X-6285Y5850D01*
X-6250Y5815D01*
D02*
G37*
%LPC*%
G36*
X7900Y-1100D02*
X7717D01*
X7738Y-1151D01*
X7786Y-1214D01*
X7849Y-1262D01*
X7900Y-1283D01*
Y-1100D01*
D02*
G37*
G36*
X-5100D02*
X-5283D01*
X-5262Y-1151D01*
X-5214Y-1214D01*
X-5151Y-1262D01*
X-5100Y-1283D01*
Y-1100D01*
D02*
G37*
G36*
X-4717D02*
X-4900D01*
Y-1283D01*
X-4849Y-1262D01*
X-4786Y-1214D01*
X-4738Y-1151D01*
X-4717Y-1100D01*
D02*
G37*
G36*
X5100Y-1217D02*
Y-1400D01*
X5283D01*
X5262Y-1349D01*
X5214Y-1286D01*
X5151Y-1238D01*
X5100Y-1217D01*
D02*
G37*
G36*
X5283Y-1600D02*
X5100D01*
Y-1783D01*
X5151Y-1762D01*
X5214Y-1714D01*
X5262Y-1651D01*
X5283Y-1600D01*
D02*
G37*
G36*
X-8217Y-1100D02*
X-8400D01*
Y-1283D01*
X-8349Y-1262D01*
X-8286Y-1214D01*
X-8238Y-1151D01*
X-8217Y-1100D01*
D02*
G37*
G36*
X-8600D02*
X-8783D01*
X-8762Y-1151D01*
X-8714Y-1214D01*
X-8651Y-1262D01*
X-8600Y-1283D01*
Y-1100D01*
D02*
G37*
G36*
Y-717D02*
X-8651Y-738D01*
X-8714Y-786D01*
X-8762Y-849D01*
X-8783Y-900D01*
X-8600D01*
Y-717D01*
D02*
G37*
G36*
X6950Y-1100D02*
X6450D01*
Y-1246D01*
X6950D01*
Y-1100D01*
D02*
G37*
G36*
X-7250Y-754D02*
X-7750D01*
Y-900D01*
X-7250D01*
Y-754D01*
D02*
G37*
G36*
X-8400Y-717D02*
Y-900D01*
X-8217D01*
X-8238Y-849D01*
X-8286Y-786D01*
X-8349Y-738D01*
X-8400Y-717D01*
D02*
G37*
G36*
X-7250Y-1100D02*
X-7750D01*
Y-1246D01*
X-7250D01*
Y-1100D01*
D02*
G37*
G36*
X8283D02*
X8100D01*
Y-1283D01*
X8151Y-1262D01*
X8214Y-1214D01*
X8262Y-1151D01*
X8283Y-1100D01*
D02*
G37*
G36*
X6250D02*
X5750D01*
Y-1246D01*
X6250D01*
Y-1100D01*
D02*
G37*
G36*
X-6550D02*
X-7050D01*
Y-1246D01*
X-6550D01*
Y-1100D01*
D02*
G37*
G36*
X-8217Y-2100D02*
X-8400D01*
Y-2283D01*
X-8349Y-2262D01*
X-8286Y-2214D01*
X-8238Y-2151D01*
X-8217Y-2100D01*
D02*
G37*
G36*
X-5100D02*
X-5283D01*
X-5262Y-2151D01*
X-5214Y-2214D01*
X-5151Y-2262D01*
X-5100Y-2283D01*
Y-2100D01*
D02*
G37*
G36*
X-4717D02*
X-4900D01*
Y-2283D01*
X-4849Y-2262D01*
X-4786Y-2214D01*
X-4738Y-2151D01*
X-4717Y-2100D01*
D02*
G37*
G36*
X-8600D02*
X-8783D01*
X-8762Y-2151D01*
X-8714Y-2214D01*
X-8651Y-2262D01*
X-8600Y-2283D01*
Y-2100D01*
D02*
G37*
G36*
X-4900Y-2717D02*
Y-2900D01*
X-4717D01*
X-4738Y-2849D01*
X-4786Y-2786D01*
X-4849Y-2738D01*
X-4900Y-2717D01*
D02*
G37*
G36*
X5283Y-2600D02*
X5100D01*
Y-2783D01*
X5151Y-2762D01*
X5214Y-2714D01*
X5262Y-2651D01*
X5283Y-2600D01*
D02*
G37*
G36*
X5100Y-2217D02*
Y-2400D01*
X5283D01*
X5262Y-2349D01*
X5214Y-2286D01*
X5151Y-2238D01*
X5100Y-2217D01*
D02*
G37*
G36*
X7900Y-2100D02*
X7717D01*
X7738Y-2151D01*
X7786Y-2214D01*
X7849Y-2262D01*
X7900Y-2283D01*
Y-2100D01*
D02*
G37*
G36*
X-4900Y-1717D02*
Y-1900D01*
X-4717D01*
X-4738Y-1849D01*
X-4786Y-1786D01*
X-4849Y-1738D01*
X-4900Y-1717D01*
D02*
G37*
G36*
X7900D02*
X7849Y-1738D01*
X7786Y-1786D01*
X7738Y-1849D01*
X7717Y-1900D01*
X7900D01*
Y-1717D01*
D02*
G37*
G36*
X8100D02*
Y-1900D01*
X8283D01*
X8262Y-1849D01*
X8214Y-1786D01*
X8151Y-1738D01*
X8100Y-1717D01*
D02*
G37*
G36*
X-5100D02*
X-5151Y-1738D01*
X-5214Y-1786D01*
X-5262Y-1849D01*
X-5283Y-1900D01*
X-5100D01*
Y-1717D01*
D02*
G37*
G36*
X8283Y-2100D02*
X8100D01*
Y-2283D01*
X8151Y-2262D01*
X8214Y-2214D01*
X8262Y-2151D01*
X8283Y-2100D01*
D02*
G37*
G36*
X-8600Y-1717D02*
X-8651Y-1738D01*
X-8714Y-1786D01*
X-8762Y-1849D01*
X-8783Y-1900D01*
X-8600D01*
Y-1717D01*
D02*
G37*
G36*
X-8400D02*
Y-1900D01*
X-8217D01*
X-8238Y-1849D01*
X-8286Y-1786D01*
X-8349Y-1738D01*
X-8400Y-1717D01*
D02*
G37*
G36*
X-8600Y283D02*
X-8651Y262D01*
X-8714Y214D01*
X-8762Y151D01*
X-8783Y100D01*
X-8600D01*
Y283D01*
D02*
G37*
G36*
X-8400D02*
Y100D01*
X-8217D01*
X-8238Y151D01*
X-8286Y214D01*
X-8349Y262D01*
X-8400Y283D01*
D02*
G37*
G36*
X-7250Y246D02*
X-7750D01*
Y100D01*
X-7250D01*
Y246D01*
D02*
G37*
G36*
X6910Y206D02*
X5790D01*
Y-206D01*
X6910D01*
Y206D01*
D02*
G37*
G36*
X7900Y-100D02*
X7717D01*
X7738Y-151D01*
X7786Y-214D01*
X7849Y-262D01*
X7900Y-283D01*
Y-100D01*
D02*
G37*
G36*
X8283D02*
X8100D01*
Y-283D01*
X8151Y-262D01*
X8214Y-214D01*
X8262Y-151D01*
X8283Y-100D01*
D02*
G37*
G36*
X-7250D02*
X-7750D01*
Y-246D01*
X-7250D01*
Y-100D01*
D02*
G37*
G36*
X-6450Y400D02*
X-6950D01*
Y296D01*
X-6950Y254D01*
X-6997Y246D01*
X-6997D01*
X-7050D01*
Y100D01*
X-6550D01*
Y204D01*
X-6550Y246D01*
X-6503Y254D01*
X-6450D01*
Y400D01*
D02*
G37*
G36*
X-5750D02*
X-6250D01*
Y254D01*
X-5750D01*
Y400D01*
D02*
G37*
G36*
X-5100Y900D02*
X-5283D01*
X-5262Y849D01*
X-5214Y786D01*
X-5151Y738D01*
X-5100Y717D01*
Y900D01*
D02*
G37*
G36*
X-4717D02*
X-4900D01*
Y717D01*
X-4849Y738D01*
X-4786Y786D01*
X-4738Y849D01*
X-4717Y900D01*
D02*
G37*
G36*
X8100Y283D02*
Y100D01*
X8283D01*
X8262Y151D01*
X8214Y214D01*
X8151Y262D01*
X8100Y283D01*
D02*
G37*
G36*
X-5100D02*
X-5151Y262D01*
X-5214Y214D01*
X-5262Y151D01*
X-5283Y100D01*
X-5100D01*
Y283D01*
D02*
G37*
G36*
X-4900D02*
Y100D01*
X-4717D01*
X-4738Y151D01*
X-4786Y214D01*
X-4849Y262D01*
X-4900Y283D01*
D02*
G37*
G36*
X7900D02*
X7849Y262D01*
X7786Y214D01*
X7738Y151D01*
X7717Y100D01*
X7900D01*
Y283D01*
D02*
G37*
G36*
X-4717Y-100D02*
X-4900D01*
Y-283D01*
X-4849Y-262D01*
X-4786Y-214D01*
X-4738Y-151D01*
X-4717Y-100D01*
D02*
G37*
G36*
X7710Y-294D02*
X6590D01*
Y-704D01*
X6590Y-706D01*
X6586Y-754D01*
X6450D01*
Y-900D01*
X6950D01*
Y-756D01*
X6950Y-754D01*
X6954Y-706D01*
X7710D01*
Y-294D01*
D02*
G37*
G36*
X7900Y-717D02*
X7849Y-738D01*
X7786Y-786D01*
X7738Y-849D01*
X7717Y-900D01*
X7900D01*
Y-717D01*
D02*
G37*
G36*
X8100D02*
Y-900D01*
X8283D01*
X8262Y-849D01*
X8214Y-786D01*
X8151Y-738D01*
X8100Y-717D01*
D02*
G37*
G36*
X6250Y-754D02*
X5750D01*
Y-900D01*
X6250D01*
Y-754D01*
D02*
G37*
G36*
X-6450Y-600D02*
X-6950D01*
Y-704D01*
X-6950Y-746D01*
X-6997Y-754D01*
X-6997D01*
X-7050D01*
Y-900D01*
X-6550D01*
Y-796D01*
X-6550Y-754D01*
X-6503Y-746D01*
X-6450D01*
Y-600D01*
D02*
G37*
G36*
X-5100Y-717D02*
X-5151Y-738D01*
X-5214Y-786D01*
X-5262Y-849D01*
X-5283Y-900D01*
X-5100D01*
Y-717D01*
D02*
G37*
G36*
X-4900D02*
Y-900D01*
X-4717D01*
X-4738Y-849D01*
X-4786Y-786D01*
X-4849Y-738D01*
X-4900Y-717D01*
D02*
G37*
G36*
X5283Y-600D02*
X5100D01*
Y-783D01*
X5151Y-762D01*
X5214Y-714D01*
X5262Y-651D01*
X5283Y-600D01*
D02*
G37*
G36*
X-8600Y-100D02*
X-8783D01*
X-8762Y-151D01*
X-8714Y-214D01*
X-8651Y-262D01*
X-8600Y-283D01*
Y-100D01*
D02*
G37*
G36*
X-8217D02*
X-8400D01*
Y-283D01*
X-8349Y-262D01*
X-8286Y-214D01*
X-8238Y-151D01*
X-8217Y-100D01*
D02*
G37*
G36*
X-5100D02*
X-5283D01*
X-5262Y-151D01*
X-5214Y-214D01*
X-5151Y-262D01*
X-5100Y-283D01*
Y-100D01*
D02*
G37*
G36*
X5100Y-217D02*
Y-400D01*
X5283D01*
X5262Y-349D01*
X5214Y-286D01*
X5151Y-238D01*
X5100Y-217D01*
D02*
G37*
G36*
X-5750Y-600D02*
X-6250D01*
Y-746D01*
X-5750D01*
Y-600D01*
D02*
G37*
G36*
X-6550Y-100D02*
X-7050D01*
Y-246D01*
X-6997D01*
X-6950Y-254D01*
X-6950Y-296D01*
Y-400D01*
X-6450D01*
Y-254D01*
X-6503D01*
X-6550Y-246D01*
X-6550Y-204D01*
Y-100D01*
D02*
G37*
G36*
X-5750Y-254D02*
X-6250D01*
Y-400D01*
X-5750D01*
Y-254D01*
D02*
G37*
G36*
X-2100Y-5100D02*
X-2283D01*
X-2262Y-5151D01*
X-2214Y-5214D01*
X-2151Y-5262D01*
X-2100Y-5283D01*
Y-5100D01*
D02*
G37*
G36*
X-1717D02*
X-1900D01*
Y-5283D01*
X-1849Y-5262D01*
X-1786Y-5214D01*
X-1738Y-5151D01*
X-1717Y-5100D01*
D02*
G37*
G36*
X-1100D02*
X-1283D01*
X-1262Y-5151D01*
X-1214Y-5214D01*
X-1151Y-5262D01*
X-1100Y-5283D01*
Y-5100D01*
D02*
G37*
G36*
X-2717D02*
X-2900D01*
Y-5283D01*
X-2849Y-5262D01*
X-2786Y-5214D01*
X-2738Y-5151D01*
X-2717Y-5100D01*
D02*
G37*
G36*
X-4100D02*
X-4283D01*
X-4262Y-5151D01*
X-4214Y-5214D01*
X-4151Y-5262D01*
X-4100Y-5283D01*
Y-5100D01*
D02*
G37*
G36*
X-3717D02*
X-3900D01*
Y-5283D01*
X-3849Y-5262D01*
X-3786Y-5214D01*
X-3738Y-5151D01*
X-3717Y-5100D01*
D02*
G37*
G36*
X-3100D02*
X-3283D01*
X-3262Y-5151D01*
X-3214Y-5214D01*
X-3151Y-5262D01*
X-3100Y-5283D01*
Y-5100D01*
D02*
G37*
G36*
X-717D02*
X-900D01*
Y-5283D01*
X-849Y-5262D01*
X-786Y-5214D01*
X-738Y-5151D01*
X-717Y-5100D01*
D02*
G37*
G36*
X1900D02*
X1717D01*
X1738Y-5151D01*
X1786Y-5214D01*
X1849Y-5262D01*
X1900Y-5283D01*
Y-5100D01*
D02*
G37*
G36*
X2283D02*
X2100D01*
Y-5283D01*
X2151Y-5262D01*
X2214Y-5214D01*
X2262Y-5151D01*
X2283Y-5100D01*
D02*
G37*
G36*
X2900D02*
X2717D01*
X2738Y-5151D01*
X2786Y-5214D01*
X2849Y-5262D01*
X2900Y-5283D01*
Y-5100D01*
D02*
G37*
G36*
X1283D02*
X1100D01*
Y-5283D01*
X1151Y-5262D01*
X1214Y-5214D01*
X1262Y-5151D01*
X1283Y-5100D01*
D02*
G37*
G36*
X-100D02*
X-283D01*
X-262Y-5151D01*
X-214Y-5214D01*
X-151Y-5262D01*
X-100Y-5283D01*
Y-5100D01*
D02*
G37*
G36*
X283D02*
X100D01*
Y-5283D01*
X151Y-5262D01*
X214Y-5214D01*
X262Y-5151D01*
X283Y-5100D01*
D02*
G37*
G36*
X900D02*
X717D01*
X738Y-5151D01*
X786Y-5214D01*
X849Y-5262D01*
X900Y-5283D01*
Y-5100D01*
D02*
G37*
G36*
X-4717D02*
X-4900D01*
Y-5283D01*
X-4849Y-5262D01*
X-4786Y-5214D01*
X-4738Y-5151D01*
X-4717Y-5100D01*
D02*
G37*
G36*
X-100Y-10217D02*
X-151Y-10238D01*
X-214Y-10286D01*
X-262Y-10349D01*
X-283Y-10400D01*
X-100D01*
Y-10217D01*
D02*
G37*
G36*
X100D02*
Y-10400D01*
X283D01*
X262Y-10349D01*
X214Y-10286D01*
X151Y-10238D01*
X100Y-10217D01*
D02*
G37*
G36*
X7710Y706D02*
X6590D01*
Y294D01*
X7710D01*
Y362D01*
X8393D01*
X8662Y93D01*
Y-5390D01*
X8399Y-5797D01*
X8033Y-6294D01*
X7639Y-6767D01*
X7216Y-7216D01*
X6767Y-7639D01*
X6294Y-8033D01*
X5797Y-8399D01*
X5280Y-8734D01*
X4743Y-9036D01*
X4188Y-9306D01*
X3619Y-9542D01*
X3036Y-9743D01*
X2442Y-9909D01*
X1840Y-10038D01*
X1244Y-10129D01*
X1225Y-10103D01*
X1170Y-10061D01*
X1107Y-10035D01*
X1039Y-10026D01*
X971Y-10035D01*
X908Y-10061D01*
X854Y-10103D01*
X812Y-10157D01*
X786Y-10220D01*
X777Y-10288D01*
X786Y-10356D01*
X812Y-10419D01*
X854Y-10474D01*
X908Y-10515D01*
X971Y-10542D01*
X1039Y-10551D01*
X1107Y-10542D01*
X1170Y-10515D01*
X1225Y-10474D01*
X1266Y-10419D01*
X1273Y-10403D01*
X1889Y-10309D01*
X2508Y-10176D01*
X3118Y-10006D01*
X3716Y-9799D01*
X4301Y-9557D01*
X4871Y-9280D01*
X5422Y-8969D01*
X5954Y-8625D01*
X6464Y-8250D01*
X6950Y-7845D01*
X7411Y-7411D01*
X7845Y-6950D01*
X8250Y-6464D01*
X8625Y-5954D01*
X8736Y-5783D01*
X8763Y-5741D01*
X8763Y-5741D01*
X8790Y-5699D01*
X8848Y-5609D01*
X8897Y-5560D01*
X8897Y-5560D01*
X8927Y-5515D01*
X8937Y-5467D01*
X8941Y-5461D01*
X8951Y-5408D01*
X8941Y-5356D01*
X8938Y-5351D01*
Y150D01*
X8938Y150D01*
X8927Y203D01*
X8897Y247D01*
X8547Y597D01*
X8503Y627D01*
X8450Y638D01*
X7710D01*
Y706D01*
D02*
G37*
G36*
X-1400Y-10217D02*
Y-10400D01*
X-1217D01*
X-1238Y-10349D01*
X-1286Y-10286D01*
X-1349Y-10238D01*
X-1400Y-10217D01*
D02*
G37*
G36*
X-100Y-10600D02*
X-283D01*
X-262Y-10651D01*
X-214Y-10714D01*
X-151Y-10762D01*
X-100Y-10783D01*
Y-10600D01*
D02*
G37*
G36*
X283D02*
X100D01*
Y-10783D01*
X151Y-10762D01*
X214Y-10714D01*
X262Y-10651D01*
X283Y-10600D01*
D02*
G37*
G36*
X-1600Y-10217D02*
X-1651Y-10238D01*
X-1714Y-10286D01*
X-1762Y-10349D01*
X-1783Y-10400D01*
X-1600D01*
Y-10217D01*
D02*
G37*
G36*
X3300Y-8100D02*
X3117D01*
X3138Y-8151D01*
X3186Y-8214D01*
X3249Y-8262D01*
X3300Y-8283D01*
Y-8100D01*
D02*
G37*
G36*
X4500Y-7717D02*
X4449Y-7738D01*
X4386Y-7786D01*
X4338Y-7849D01*
X4327Y-7875D01*
X4273D01*
X4262Y-7849D01*
X4214Y-7786D01*
X4151Y-7738D01*
X4100Y-7717D01*
Y-8000D01*
Y-8283D01*
X4151Y-8262D01*
X4214Y-8214D01*
X4262Y-8151D01*
X4273Y-8125D01*
X4327D01*
X4338Y-8151D01*
X4386Y-8214D01*
X4449Y-8262D01*
X4500Y-8283D01*
Y-8000D01*
Y-7717D01*
D02*
G37*
G36*
X-6130Y-6047D02*
X-6250Y-6059D01*
X-6365Y-6094D01*
X-6471Y-6150D01*
X-6563Y-6227D01*
X-6640Y-6319D01*
X-6696Y-6425D01*
X-6731Y-6540D01*
X-6743Y-6660D01*
X-6731Y-6780D01*
X-6696Y-6895D01*
X-6640Y-7001D01*
X-6563Y-7093D01*
X-6471Y-7170D01*
X-6365Y-7226D01*
X-6250Y-7261D01*
X-6130Y-7273D01*
X-6010Y-7261D01*
X-5895Y-7226D01*
X-5789Y-7170D01*
X-5697Y-7093D01*
X-5620Y-7001D01*
X-5564Y-6895D01*
X-5529Y-6780D01*
X-5517Y-6660D01*
X-5529Y-6540D01*
X-5564Y-6425D01*
X-5620Y-6319D01*
X-5697Y-6227D01*
X-5789Y-6150D01*
X-5895Y-6094D01*
X-6010Y-6059D01*
X-6130Y-6047D01*
D02*
G37*
G36*
X-5100Y-5100D02*
X-5283D01*
X-5262Y-5151D01*
X-5214Y-5214D01*
X-5151Y-5262D01*
X-5100Y-5283D01*
Y-5100D01*
D02*
G37*
G36*
X3900Y-7717D02*
X3849Y-7738D01*
X3786Y-7786D01*
X3738Y-7849D01*
X3727Y-7875D01*
X3673D01*
X3662Y-7849D01*
X3614Y-7786D01*
X3551Y-7738D01*
X3500Y-7717D01*
Y-8000D01*
Y-8283D01*
X3551Y-8262D01*
X3614Y-8214D01*
X3662Y-8151D01*
X3673Y-8125D01*
X3727D01*
X3738Y-8151D01*
X3786Y-8214D01*
X3849Y-8262D01*
X3900Y-8283D01*
Y-8000D01*
Y-7717D01*
D02*
G37*
G36*
X4883Y-8100D02*
X4700D01*
Y-8283D01*
X4751Y-8262D01*
X4814Y-8214D01*
X4862Y-8151D01*
X4883Y-8100D01*
D02*
G37*
G36*
X3300Y-7717D02*
X3249Y-7738D01*
X3186Y-7786D01*
X3138Y-7849D01*
X3117Y-7900D01*
X3300D01*
Y-7717D01*
D02*
G37*
G36*
X4700D02*
Y-7900D01*
X4883D01*
X4862Y-7849D01*
X4814Y-7786D01*
X4751Y-7738D01*
X4700Y-7717D01*
D02*
G37*
G36*
X3283Y-5100D02*
X3100D01*
Y-5283D01*
X3151Y-5262D01*
X3214Y-5214D01*
X3262Y-5151D01*
X3283Y-5100D01*
D02*
G37*
G36*
X3900Y-4717D02*
X3849Y-4738D01*
X3786Y-4786D01*
X3738Y-4849D01*
X3717Y-4900D01*
X3900D01*
Y-4717D01*
D02*
G37*
G36*
X4100D02*
Y-4900D01*
X4283D01*
X4262Y-4849D01*
X4214Y-4786D01*
X4151Y-4738D01*
X4100Y-4717D01*
D02*
G37*
G36*
X-5100Y-4100D02*
X-5283D01*
X-5262Y-4151D01*
X-5214Y-4214D01*
X-5151Y-4262D01*
X-5100Y-4283D01*
Y-4100D01*
D02*
G37*
G36*
X3100Y-4717D02*
Y-4900D01*
X3283D01*
X3262Y-4849D01*
X3214Y-4786D01*
X3151Y-4738D01*
X3100Y-4717D01*
D02*
G37*
G36*
X1900D02*
X1849Y-4738D01*
X1786Y-4786D01*
X1738Y-4849D01*
X1717Y-4900D01*
X1900D01*
Y-4717D01*
D02*
G37*
G36*
X2100D02*
Y-4900D01*
X2283D01*
X2262Y-4849D01*
X2214Y-4786D01*
X2151Y-4738D01*
X2100Y-4717D01*
D02*
G37*
G36*
X2900D02*
X2849Y-4738D01*
X2786Y-4786D01*
X2738Y-4849D01*
X2717Y-4900D01*
X2900D01*
Y-4717D01*
D02*
G37*
G36*
X-4717Y-4100D02*
X-4900D01*
Y-4283D01*
X-4849Y-4262D01*
X-4786Y-4214D01*
X-4738Y-4151D01*
X-4717Y-4100D01*
D02*
G37*
G36*
X-5100Y-3100D02*
X-5283D01*
X-5262Y-3151D01*
X-5214Y-3214D01*
X-5151Y-3262D01*
X-5100Y-3283D01*
Y-3100D01*
D02*
G37*
G36*
X-4717D02*
X-4900D01*
Y-3283D01*
X-4849Y-3262D01*
X-4786Y-3214D01*
X-4738Y-3151D01*
X-4717Y-3100D01*
D02*
G37*
G36*
X-5100Y-2717D02*
X-5151Y-2738D01*
X-5214Y-2786D01*
X-5262Y-2849D01*
X-5283Y-2900D01*
X-5100D01*
Y-2717D01*
D02*
G37*
G36*
X5100Y-3217D02*
Y-3400D01*
X5283D01*
X5262Y-3349D01*
X5214Y-3286D01*
X5151Y-3238D01*
X5100Y-3217D01*
D02*
G37*
G36*
X-5100Y-3717D02*
X-5151Y-3738D01*
X-5214Y-3786D01*
X-5262Y-3849D01*
X-5283Y-3900D01*
X-5100D01*
Y-3717D01*
D02*
G37*
G36*
X-4900D02*
Y-3900D01*
X-4717D01*
X-4738Y-3849D01*
X-4786Y-3786D01*
X-4849Y-3738D01*
X-4900Y-3717D01*
D02*
G37*
G36*
X5283Y-3600D02*
X5100D01*
Y-3783D01*
X5151Y-3762D01*
X5214Y-3714D01*
X5262Y-3651D01*
X5283Y-3600D01*
D02*
G37*
G36*
X1100Y-4717D02*
Y-4900D01*
X1283D01*
X1262Y-4849D01*
X1214Y-4786D01*
X1151Y-4738D01*
X1100Y-4717D01*
D02*
G37*
G36*
X-4100D02*
X-4151Y-4738D01*
X-4214Y-4786D01*
X-4262Y-4849D01*
X-4283Y-4900D01*
X-4100D01*
Y-4717D01*
D02*
G37*
G36*
X-3900D02*
Y-4900D01*
X-3717D01*
X-3738Y-4849D01*
X-3786Y-4786D01*
X-3849Y-4738D01*
X-3900Y-4717D01*
D02*
G37*
G36*
X-3100D02*
X-3151Y-4738D01*
X-3214Y-4786D01*
X-3262Y-4849D01*
X-3283Y-4900D01*
X-3100D01*
Y-4717D01*
D02*
G37*
G36*
X-4900D02*
Y-4900D01*
X-4717D01*
X-4738Y-4849D01*
X-4786Y-4786D01*
X-4849Y-4738D01*
X-4900Y-4717D01*
D02*
G37*
G36*
X3900Y-5100D02*
X3717D01*
X3738Y-5151D01*
X3786Y-5214D01*
X3849Y-5262D01*
X3900Y-5283D01*
Y-5100D01*
D02*
G37*
G36*
X4283D02*
X4100D01*
Y-5283D01*
X4151Y-5262D01*
X4214Y-5214D01*
X4262Y-5151D01*
X4283Y-5100D01*
D02*
G37*
G36*
X-5100Y-4717D02*
X-5151Y-4738D01*
X-5214Y-4786D01*
X-5262Y-4849D01*
X-5283Y-4900D01*
X-5100D01*
Y-4717D01*
D02*
G37*
G36*
X-2900D02*
Y-4900D01*
X-2717D01*
X-2738Y-4849D01*
X-2786Y-4786D01*
X-2849Y-4738D01*
X-2900Y-4717D01*
D02*
G37*
G36*
X-100D02*
X-151Y-4738D01*
X-214Y-4786D01*
X-262Y-4849D01*
X-283Y-4900D01*
X-100D01*
Y-4717D01*
D02*
G37*
G36*
X100D02*
Y-4900D01*
X283D01*
X262Y-4849D01*
X214Y-4786D01*
X151Y-4738D01*
X100Y-4717D01*
D02*
G37*
G36*
X900D02*
X849Y-4738D01*
X786Y-4786D01*
X738Y-4849D01*
X717Y-4900D01*
X900D01*
Y-4717D01*
D02*
G37*
G36*
X-900D02*
Y-4900D01*
X-717D01*
X-738Y-4849D01*
X-786Y-4786D01*
X-849Y-4738D01*
X-900Y-4717D01*
D02*
G37*
G36*
X-2100D02*
X-2151Y-4738D01*
X-2214Y-4786D01*
X-2262Y-4849D01*
X-2283Y-4900D01*
X-2100D01*
Y-4717D01*
D02*
G37*
G36*
X-1900D02*
Y-4900D01*
X-1717D01*
X-1738Y-4849D01*
X-1786Y-4786D01*
X-1849Y-4738D01*
X-1900Y-4717D01*
D02*
G37*
G36*
X-1100D02*
X-1151Y-4738D01*
X-1214Y-4786D01*
X-1262Y-4849D01*
X-1283Y-4900D01*
X-1100D01*
Y-4717D01*
D02*
G37*
G36*
X4900Y900D02*
X4717D01*
X4738Y849D01*
X4786Y786D01*
X4849Y738D01*
X4900Y717D01*
Y900D01*
D02*
G37*
G36*
X5283Y4900D02*
X5100D01*
Y4717D01*
X5151Y4738D01*
X5214Y4786D01*
X5262Y4849D01*
X5283Y4900D01*
D02*
G37*
G36*
X-4100Y5283D02*
X-4151Y5262D01*
X-4214Y5214D01*
X-4262Y5151D01*
X-4283Y5100D01*
X-4100D01*
Y5283D01*
D02*
G37*
G36*
X-3900D02*
Y5100D01*
X-3717D01*
X-3738Y5151D01*
X-3786Y5214D01*
X-3849Y5262D01*
X-3900Y5283D01*
D02*
G37*
G36*
X4900Y4900D02*
X4717D01*
X4738Y4849D01*
X4786Y4786D01*
X4849Y4738D01*
X4900Y4717D01*
Y4900D01*
D02*
G37*
G36*
X3283D02*
X3100D01*
Y4717D01*
X3151Y4738D01*
X3214Y4786D01*
X3262Y4849D01*
X3283Y4900D01*
D02*
G37*
G36*
X3900D02*
X3717D01*
X3738Y4849D01*
X3786Y4786D01*
X3849Y4738D01*
X3900Y4717D01*
Y4900D01*
D02*
G37*
G36*
X4283D02*
X4100D01*
Y4717D01*
X4151Y4738D01*
X4214Y4786D01*
X4262Y4849D01*
X4283Y4900D01*
D02*
G37*
G36*
X-3100Y5283D02*
X-3151Y5262D01*
X-3214Y5214D01*
X-3262Y5151D01*
X-3283Y5100D01*
X-3100D01*
Y5283D01*
D02*
G37*
G36*
X-900D02*
Y5100D01*
X-717D01*
X-738Y5151D01*
X-786Y5214D01*
X-849Y5262D01*
X-900Y5283D01*
D02*
G37*
G36*
X-100D02*
X-151Y5262D01*
X-214Y5214D01*
X-262Y5151D01*
X-283Y5100D01*
X-100D01*
Y5283D01*
D02*
G37*
G36*
X100D02*
Y5100D01*
X283D01*
X262Y5151D01*
X214Y5214D01*
X151Y5262D01*
X100Y5283D01*
D02*
G37*
G36*
X-1100D02*
X-1151Y5262D01*
X-1214Y5214D01*
X-1262Y5151D01*
X-1283Y5100D01*
X-1100D01*
Y5283D01*
D02*
G37*
G36*
X-2900D02*
Y5100D01*
X-2717D01*
X-2738Y5151D01*
X-2786Y5214D01*
X-2849Y5262D01*
X-2900Y5283D01*
D02*
G37*
G36*
X-2100D02*
X-2151Y5262D01*
X-2214Y5214D01*
X-2262Y5151D01*
X-2283Y5100D01*
X-2100D01*
Y5283D01*
D02*
G37*
G36*
X-1900D02*
Y5100D01*
X-1717D01*
X-1738Y5151D01*
X-1786Y5214D01*
X-1849Y5262D01*
X-1900Y5283D01*
D02*
G37*
G36*
X2900Y4900D02*
X2717D01*
X2738Y4849D01*
X2786Y4786D01*
X2849Y4738D01*
X2900Y4717D01*
Y4900D01*
D02*
G37*
G36*
X-2717D02*
X-2900D01*
Y4717D01*
X-2849Y4738D01*
X-2786Y4786D01*
X-2738Y4849D01*
X-2717Y4900D01*
D02*
G37*
G36*
X-2100D02*
X-2283D01*
X-2262Y4849D01*
X-2214Y4786D01*
X-2151Y4738D01*
X-2100Y4717D01*
Y4900D01*
D02*
G37*
G36*
X-1717D02*
X-1900D01*
Y4717D01*
X-1849Y4738D01*
X-1786Y4786D01*
X-1738Y4849D01*
X-1717Y4900D01*
D02*
G37*
G36*
X-3100D02*
X-3283D01*
X-3262Y4849D01*
X-3214Y4786D01*
X-3151Y4738D01*
X-3100Y4717D01*
Y4900D01*
D02*
G37*
G36*
X5100Y4283D02*
Y4100D01*
X5283D01*
X5262Y4151D01*
X5214Y4214D01*
X5151Y4262D01*
X5100Y4283D01*
D02*
G37*
G36*
X-4100Y4900D02*
X-4283D01*
X-4262Y4849D01*
X-4214Y4786D01*
X-4151Y4738D01*
X-4100Y4717D01*
Y4900D01*
D02*
G37*
G36*
X-3717D02*
X-3900D01*
Y4717D01*
X-3849Y4738D01*
X-3786Y4786D01*
X-3738Y4849D01*
X-3717Y4900D01*
D02*
G37*
G36*
X-1100D02*
X-1283D01*
X-1262Y4849D01*
X-1214Y4786D01*
X-1151Y4738D01*
X-1100Y4717D01*
Y4900D01*
D02*
G37*
G36*
X1283D02*
X1100D01*
Y4717D01*
X1151Y4738D01*
X1214Y4786D01*
X1262Y4849D01*
X1283Y4900D01*
D02*
G37*
G36*
X1900D02*
X1717D01*
X1738Y4849D01*
X1786Y4786D01*
X1849Y4738D01*
X1900Y4717D01*
Y4900D01*
D02*
G37*
G36*
X2283D02*
X2100D01*
Y4717D01*
X2151Y4738D01*
X2214Y4786D01*
X2262Y4849D01*
X2283Y4900D01*
D02*
G37*
G36*
X900D02*
X717D01*
X738Y4849D01*
X786Y4786D01*
X849Y4738D01*
X900Y4717D01*
Y4900D01*
D02*
G37*
G36*
X-717D02*
X-900D01*
Y4717D01*
X-849Y4738D01*
X-786Y4786D01*
X-738Y4849D01*
X-717Y4900D01*
D02*
G37*
G36*
X-100D02*
X-283D01*
X-262Y4849D01*
X-214Y4786D01*
X-151Y4738D01*
X-100Y4717D01*
Y4900D01*
D02*
G37*
G36*
X283D02*
X100D01*
Y4717D01*
X151Y4738D01*
X214Y4786D01*
X262Y4849D01*
X283Y4900D01*
D02*
G37*
G36*
X-1217Y10150D02*
X-1400D01*
Y9967D01*
X-1349Y9988D01*
X-1286Y10036D01*
X-1238Y10099D01*
X-1217Y10150D01*
D02*
G37*
G36*
X-100D02*
X-283D01*
X-262Y10099D01*
X-214Y10036D01*
X-151Y9988D01*
X-100Y9967D01*
Y10150D01*
D02*
G37*
G36*
X283D02*
X100D01*
Y9967D01*
X151Y9988D01*
X214Y10036D01*
X262Y10099D01*
X283Y10150D01*
D02*
G37*
G36*
X-1600D02*
X-1783D01*
X-1762Y10099D01*
X-1714Y10036D01*
X-1651Y9988D01*
X-1600Y9967D01*
Y10150D01*
D02*
G37*
G36*
X-400Y7633D02*
Y7450D01*
X-217D01*
X-238Y7501D01*
X-286Y7564D01*
X-349Y7612D01*
X-400Y7633D01*
D02*
G37*
G36*
X400D02*
X349Y7612D01*
X286Y7564D01*
X238Y7501D01*
X217Y7450D01*
X400D01*
Y7633D01*
D02*
G37*
G36*
X600D02*
Y7450D01*
X783D01*
X762Y7501D01*
X714Y7564D01*
X651Y7612D01*
X600Y7633D01*
D02*
G37*
G36*
X1900Y10150D02*
X1717D01*
X1738Y10099D01*
X1786Y10036D01*
X1849Y9988D01*
X1900Y9967D01*
Y10150D01*
D02*
G37*
G36*
X100Y10533D02*
Y10350D01*
X283D01*
X262Y10401D01*
X214Y10464D01*
X151Y10512D01*
X100Y10533D01*
D02*
G37*
G36*
X1900D02*
X1849Y10512D01*
X1786Y10464D01*
X1738Y10401D01*
X1717Y10350D01*
X1900D01*
Y10533D01*
D02*
G37*
G36*
X2100D02*
Y10350D01*
X2283D01*
X2262Y10401D01*
X2214Y10464D01*
X2151Y10512D01*
X2100Y10533D01*
D02*
G37*
G36*
X-100D02*
X-151Y10512D01*
X-214Y10464D01*
X-262Y10401D01*
X-283Y10350D01*
X-100D01*
Y10533D01*
D02*
G37*
G36*
X2283Y10150D02*
X2100D01*
Y9967D01*
X2151Y9988D01*
X2214Y10036D01*
X2262Y10099D01*
X2283Y10150D01*
D02*
G37*
G36*
X-1600Y10533D02*
X-1651Y10512D01*
X-1714Y10464D01*
X-1762Y10401D01*
X-1783Y10350D01*
X-1600D01*
Y10533D01*
D02*
G37*
G36*
X-1400D02*
Y10350D01*
X-1217D01*
X-1238Y10401D01*
X-1286Y10464D01*
X-1349Y10512D01*
X-1400Y10533D01*
D02*
G37*
G36*
X-600Y7633D02*
X-651Y7612D01*
X-714Y7564D01*
X-762Y7501D01*
X-783Y7450D01*
X-600D01*
Y7633D01*
D02*
G37*
G36*
X2900Y5283D02*
X2849Y5262D01*
X2786Y5214D01*
X2738Y5151D01*
X2717Y5100D01*
X2900D01*
Y5283D01*
D02*
G37*
G36*
X3100D02*
Y5100D01*
X3283D01*
X3262Y5151D01*
X3214Y5214D01*
X3151Y5262D01*
X3100Y5283D01*
D02*
G37*
G36*
X3900D02*
X3849Y5262D01*
X3786Y5214D01*
X3738Y5151D01*
X3717Y5100D01*
X3900D01*
Y5283D01*
D02*
G37*
G36*
X2100D02*
Y5100D01*
X2283D01*
X2262Y5151D01*
X2214Y5214D01*
X2151Y5262D01*
X2100Y5283D01*
D02*
G37*
G36*
X900D02*
X849Y5262D01*
X786Y5214D01*
X738Y5151D01*
X717Y5100D01*
X900D01*
Y5283D01*
D02*
G37*
G36*
X1100D02*
Y5100D01*
X1283D01*
X1262Y5151D01*
X1214Y5214D01*
X1151Y5262D01*
X1100Y5283D01*
D02*
G37*
G36*
X1900D02*
X1849Y5262D01*
X1786Y5214D01*
X1738Y5151D01*
X1717Y5100D01*
X1900D01*
Y5283D01*
D02*
G37*
G36*
X4100D02*
Y5100D01*
X4283D01*
X4262Y5151D01*
X4214Y5214D01*
X4151Y5262D01*
X4100Y5283D01*
D02*
G37*
G36*
X-217Y7250D02*
X-400D01*
Y7067D01*
X-349Y7088D01*
X-286Y7136D01*
X-238Y7199D01*
X-217Y7250D01*
D02*
G37*
G36*
X400D02*
X217D01*
X238Y7199D01*
X286Y7136D01*
X349Y7088D01*
X400Y7067D01*
Y7250D01*
D02*
G37*
G36*
X783D02*
X600D01*
Y7067D01*
X651Y7088D01*
X714Y7136D01*
X762Y7199D01*
X783Y7250D01*
D02*
G37*
G36*
X-600D02*
X-783D01*
X-762Y7199D01*
X-714Y7136D01*
X-651Y7088D01*
X-600Y7067D01*
Y7250D01*
D02*
G37*
G36*
X4900Y5283D02*
X4849Y5262D01*
X4786Y5214D01*
X4738Y5151D01*
X4717Y5100D01*
X4900D01*
Y5283D01*
D02*
G37*
G36*
X5100D02*
Y5100D01*
X5283D01*
X5262Y5151D01*
X5214Y5214D01*
X5151Y5262D01*
X5100Y5283D01*
D02*
G37*
G36*
X6130Y7273D02*
X6010Y7261D01*
X5895Y7226D01*
X5789Y7170D01*
X5697Y7093D01*
X5620Y7001D01*
X5564Y6895D01*
X5529Y6780D01*
X5517Y6660D01*
X5529Y6540D01*
X5564Y6425D01*
X5620Y6319D01*
X5697Y6227D01*
X5789Y6150D01*
X5895Y6094D01*
X6010Y6059D01*
X6130Y6047D01*
X6250Y6059D01*
X6365Y6094D01*
X6471Y6150D01*
X6563Y6227D01*
X6640Y6319D01*
X6696Y6425D01*
X6731Y6540D01*
X6743Y6660D01*
X6731Y6780D01*
X6696Y6895D01*
X6640Y7001D01*
X6563Y7093D01*
X6471Y7170D01*
X6365Y7226D01*
X6250Y7261D01*
X6130Y7273D01*
D02*
G37*
G36*
X4900Y4283D02*
X4849Y4262D01*
X4786Y4214D01*
X4738Y4151D01*
X4717Y4100D01*
X4900D01*
Y4283D01*
D02*
G37*
G36*
X-9617Y2400D02*
X-9800D01*
Y2217D01*
X-9749Y2238D01*
X-9686Y2286D01*
X-9638Y2349D01*
X-9617Y2400D01*
D02*
G37*
G36*
X-9300D02*
X-9483D01*
X-9462Y2349D01*
X-9414Y2286D01*
X-9351Y2238D01*
X-9300Y2217D01*
Y2400D01*
D02*
G37*
G36*
X-8917D02*
X-9100D01*
Y2217D01*
X-9049Y2238D01*
X-8986Y2286D01*
X-8938Y2349D01*
X-8917Y2400D01*
D02*
G37*
G36*
X-10000D02*
X-10183D01*
X-10162Y2349D01*
X-10114Y2286D01*
X-10051Y2238D01*
X-10000Y2217D01*
Y2400D01*
D02*
G37*
G36*
X-4900Y2283D02*
Y2100D01*
X-4717D01*
X-4738Y2151D01*
X-4786Y2214D01*
X-4849Y2262D01*
X-4900Y2283D01*
D02*
G37*
G36*
X4900D02*
X4849Y2262D01*
X4786Y2214D01*
X4738Y2151D01*
X4717Y2100D01*
X4900D01*
Y2283D01*
D02*
G37*
G36*
X5100D02*
Y2100D01*
X5283D01*
X5262Y2151D01*
X5214Y2214D01*
X5151Y2262D01*
X5100Y2283D01*
D02*
G37*
G36*
X-8500Y2400D02*
X-8683D01*
X-8662Y2349D01*
X-8614Y2286D01*
X-8551Y2238D01*
X-8500Y2217D01*
Y2400D01*
D02*
G37*
G36*
X-9100Y2783D02*
Y2600D01*
X-8917D01*
X-8938Y2651D01*
X-8986Y2714D01*
X-9049Y2762D01*
X-9100Y2783D01*
D02*
G37*
G36*
X-8500D02*
X-8551Y2762D01*
X-8614Y2714D01*
X-8662Y2651D01*
X-8683Y2600D01*
X-8500D01*
Y2783D01*
D02*
G37*
G36*
X-8300D02*
Y2600D01*
X-8117D01*
X-8138Y2651D01*
X-8186Y2714D01*
X-8249Y2762D01*
X-8300Y2783D01*
D02*
G37*
G36*
X-9300D02*
X-9351Y2762D01*
X-9414Y2714D01*
X-9462Y2651D01*
X-9483Y2600D01*
X-9300D01*
Y2783D01*
D02*
G37*
G36*
X-8117Y2400D02*
X-8300D01*
Y2217D01*
X-8249Y2238D01*
X-8186Y2286D01*
X-8138Y2349D01*
X-8117Y2400D01*
D02*
G37*
G36*
X-10000Y2783D02*
X-10051Y2762D01*
X-10114Y2714D01*
X-10162Y2651D01*
X-10183Y2600D01*
X-10000D01*
Y2783D01*
D02*
G37*
G36*
X-9800D02*
Y2600D01*
X-9617D01*
X-9638Y2651D01*
X-9686Y2714D01*
X-9749Y2762D01*
X-9800Y2783D01*
D02*
G37*
G36*
X-5100Y2283D02*
X-5151Y2262D01*
X-5214Y2214D01*
X-5262Y2151D01*
X-5283Y2100D01*
X-5100D01*
Y2283D01*
D02*
G37*
G36*
X-4900Y1283D02*
Y1100D01*
X-4717D01*
X-4738Y1151D01*
X-4786Y1214D01*
X-4849Y1262D01*
X-4900Y1283D01*
D02*
G37*
G36*
X4900D02*
X4849Y1262D01*
X4786Y1214D01*
X4738Y1151D01*
X4717Y1100D01*
X4900D01*
Y1283D01*
D02*
G37*
G36*
X5100D02*
Y1100D01*
X5283D01*
X5262Y1151D01*
X5214Y1214D01*
X5151Y1262D01*
X5100Y1283D01*
D02*
G37*
G36*
X-5100D02*
X-5151Y1262D01*
X-5214Y1214D01*
X-5262Y1151D01*
X-5283Y1100D01*
X-5100D01*
Y1283D01*
D02*
G37*
G36*
X4391Y4391D02*
X-4391D01*
Y-4391D01*
X4362D01*
X4391Y-4391D01*
X4412Y-4432D01*
Y-4432D01*
Y-6093D01*
X2460Y-8046D01*
X2400Y-8038D01*
X2332Y-8047D01*
X2269Y-8073D01*
X2215Y-8115D01*
X2173Y-8169D01*
X2147Y-8232D01*
X2138Y-8300D01*
X2147Y-8368D01*
X2173Y-8431D01*
X2215Y-8485D01*
X2269Y-8527D01*
X2332Y-8553D01*
X2400Y-8562D01*
X2468Y-8553D01*
X2531Y-8527D01*
X2585Y-8485D01*
X2627Y-8431D01*
X2653Y-8368D01*
X2662Y-8300D01*
X2654Y-8240D01*
X4647Y-6247D01*
X4677Y-6203D01*
X4688Y-6150D01*
Y-5242D01*
X4738Y-5229D01*
X4786Y-5319D01*
X4872Y-5424D01*
X4976Y-5509D01*
X5095Y-5573D01*
X5224Y-5612D01*
X5358Y-5625D01*
X5493Y-5612D01*
X5622Y-5573D01*
X5741Y-5509D01*
X5845Y-5424D01*
X5931Y-5319D01*
X5994Y-5200D01*
X6033Y-5071D01*
X6047Y-4937D01*
X6033Y-4803D01*
X5994Y-4674D01*
X5931Y-4555D01*
X5845Y-4450D01*
X5741Y-4365D01*
X5622Y-4301D01*
X5493Y-4262D01*
X5358Y-4249D01*
X5224Y-4262D01*
X5095Y-4301D01*
X4976Y-4365D01*
X4872Y-4450D01*
X4786Y-4555D01*
X4738Y-4645D01*
X4688Y-4632D01*
Y-3661D01*
X4738Y-3651D01*
X4738Y-3651D01*
X4786Y-3714D01*
X4849Y-3762D01*
X4900Y-3783D01*
Y-3500D01*
Y-3217D01*
X4849Y-3238D01*
X4786Y-3286D01*
X4738Y-3349D01*
X4738Y-3349D01*
X4688Y-3340D01*
Y-2661D01*
X4738Y-2651D01*
X4738Y-2651D01*
X4786Y-2714D01*
X4849Y-2762D01*
X4900Y-2783D01*
Y-2500D01*
Y-2217D01*
X4849Y-2238D01*
X4786Y-2286D01*
X4738Y-2349D01*
X4738Y-2349D01*
X4688Y-2340D01*
Y-1661D01*
X4738Y-1651D01*
X4738Y-1651D01*
X4786Y-1714D01*
X4849Y-1762D01*
X4900Y-1783D01*
Y-1500D01*
Y-1217D01*
X4849Y-1238D01*
X4786Y-1286D01*
X4738Y-1349D01*
X4738Y-1349D01*
X4688Y-1339D01*
Y-661D01*
X4738Y-651D01*
X4738Y-651D01*
X4786Y-714D01*
X4849Y-762D01*
X4900Y-783D01*
Y-500D01*
Y-217D01*
X4849Y-238D01*
X4786Y-286D01*
X4738Y-349D01*
X4738Y-349D01*
X4688Y-340D01*
Y-157D01*
X5707Y862D01*
X5790D01*
Y794D01*
X6910D01*
Y1206D01*
X5790D01*
Y1138D01*
X5650D01*
X5597Y1127D01*
X5553Y1097D01*
X5325Y869D01*
X5282Y898D01*
X5283Y900D01*
X5100D01*
Y717D01*
X5102Y718D01*
X5131Y675D01*
X4453Y-3D01*
X4441Y-21D01*
X4391Y-5D01*
Y4391D01*
D02*
G37*
G36*
X-7250Y1246D02*
X-7750D01*
Y1100D01*
X-7250D01*
Y1246D01*
D02*
G37*
G36*
X-6550D02*
X-7050D01*
Y1100D01*
X-6550D01*
Y1246D01*
D02*
G37*
G36*
X-8500Y1600D02*
X-8683D01*
X-8662Y1549D01*
X-8614Y1486D01*
X-8551Y1438D01*
X-8500Y1417D01*
Y1600D01*
D02*
G37*
G36*
X5283Y1900D02*
X5100D01*
Y1717D01*
X5151Y1738D01*
X5214Y1786D01*
X5262Y1849D01*
X5283Y1900D01*
D02*
G37*
G36*
X-8500Y1983D02*
X-8551Y1962D01*
X-8614Y1914D01*
X-8662Y1851D01*
X-8683Y1800D01*
X-8500D01*
Y1983D01*
D02*
G37*
G36*
X-8300D02*
Y1800D01*
X-8117D01*
X-8138Y1851D01*
X-8186Y1914D01*
X-8249Y1962D01*
X-8300Y1983D01*
D02*
G37*
G36*
X4900Y1900D02*
X4717D01*
X4738Y1849D01*
X4786Y1786D01*
X4849Y1738D01*
X4900Y1717D01*
Y1900D01*
D02*
G37*
G36*
X-8117Y1600D02*
X-8300D01*
Y1417D01*
X-8249Y1438D01*
X-8186Y1486D01*
X-8138Y1549D01*
X-8117Y1600D01*
D02*
G37*
G36*
X-5100Y1900D02*
X-5283D01*
X-5262Y1849D01*
X-5214Y1786D01*
X-5151Y1738D01*
X-5100Y1717D01*
Y1900D01*
D02*
G37*
G36*
X-4717D02*
X-4900D01*
Y1717D01*
X-4849Y1738D01*
X-4786Y1786D01*
X-4738Y1849D01*
X-4717Y1900D01*
D02*
G37*
G36*
X-9617Y3900D02*
X-9800D01*
Y3717D01*
X-9749Y3738D01*
X-9686Y3786D01*
X-9638Y3849D01*
X-9617Y3900D01*
D02*
G37*
G36*
X-9300D02*
X-9483D01*
X-9462Y3849D01*
X-9414Y3786D01*
X-9351Y3738D01*
X-9300Y3717D01*
Y3900D01*
D02*
G37*
G36*
X-8917D02*
X-9100D01*
Y3717D01*
X-9049Y3738D01*
X-8986Y3786D01*
X-8938Y3849D01*
X-8917Y3900D01*
D02*
G37*
G36*
X-8300Y3483D02*
Y3300D01*
X-8117D01*
X-8138Y3351D01*
X-8186Y3414D01*
X-8249Y3462D01*
X-8300Y3483D01*
D02*
G37*
G36*
X-9300D02*
X-9351Y3462D01*
X-9414Y3414D01*
X-9462Y3351D01*
X-9483Y3300D01*
X-9300D01*
Y3483D01*
D02*
G37*
G36*
X-9100D02*
Y3300D01*
X-8917D01*
X-8938Y3351D01*
X-8986Y3414D01*
X-9049Y3462D01*
X-9100Y3483D01*
D02*
G37*
G36*
X-8500D02*
X-8551Y3462D01*
X-8614Y3414D01*
X-8662Y3351D01*
X-8683Y3300D01*
X-8500D01*
Y3483D01*
D02*
G37*
G36*
X-5100Y3900D02*
X-5283D01*
X-5262Y3849D01*
X-5214Y3786D01*
X-5151Y3738D01*
X-5100Y3717D01*
Y3900D01*
D02*
G37*
G36*
X-9300Y4283D02*
X-9351Y4262D01*
X-9414Y4214D01*
X-9462Y4151D01*
X-9483Y4100D01*
X-9300D01*
Y4283D01*
D02*
G37*
G36*
X-9100D02*
Y4100D01*
X-8917D01*
X-8938Y4151D01*
X-8986Y4214D01*
X-9049Y4262D01*
X-9100Y4283D01*
D02*
G37*
G36*
X-5358Y5625D02*
X-5493Y5612D01*
X-5622Y5573D01*
X-5741Y5509D01*
X-5845Y5424D01*
X-5931Y5319D01*
X-5994Y5200D01*
X-6033Y5071D01*
X-6047Y4937D01*
X-6033Y4803D01*
X-5994Y4674D01*
X-5931Y4555D01*
X-5845Y4450D01*
X-5741Y4365D01*
X-5622Y4301D01*
X-5493Y4262D01*
X-5358Y4249D01*
X-5235Y4261D01*
X-5216Y4228D01*
X-5213Y4214D01*
X-5214Y4214D01*
X-5262Y4151D01*
X-5283Y4100D01*
X-4717D01*
X-4738Y4151D01*
X-4786Y4214D01*
X-4849Y4262D01*
X-4922Y4292D01*
X-4989Y4301D01*
X-5001Y4338D01*
X-5002Y4351D01*
X-4976Y4365D01*
X-4872Y4450D01*
X-4786Y4555D01*
X-4722Y4674D01*
X-4683Y4803D01*
X-4670Y4937D01*
X-4683Y5071D01*
X-4722Y5200D01*
X-4786Y5319D01*
X-4872Y5424D01*
X-4976Y5509D01*
X-5095Y5573D01*
X-5224Y5612D01*
X-5358Y5625D01*
D02*
G37*
G36*
X-9800Y4283D02*
Y4100D01*
X-9617D01*
X-9638Y4151D01*
X-9686Y4214D01*
X-9749Y4262D01*
X-9800Y4283D01*
D02*
G37*
G36*
X-4717Y3900D02*
X-4900D01*
Y3717D01*
X-4849Y3738D01*
X-4786Y3786D01*
X-4738Y3849D01*
X-4717Y3900D01*
D02*
G37*
G36*
X4900D02*
X4717D01*
X4738Y3849D01*
X4786Y3786D01*
X4849Y3738D01*
X4900Y3717D01*
Y3900D01*
D02*
G37*
G36*
X5283D02*
X5100D01*
Y3717D01*
X5151Y3738D01*
X5214Y3786D01*
X5262Y3849D01*
X5283Y3900D01*
D02*
G37*
G36*
X-9800Y3483D02*
Y3300D01*
X-9617D01*
X-9638Y3351D01*
X-9686Y3414D01*
X-9749Y3462D01*
X-9800Y3483D01*
D02*
G37*
G36*
X-10000Y3100D02*
X-10183D01*
X-10162Y3049D01*
X-10114Y2986D01*
X-10051Y2938D01*
X-10000Y2917D01*
Y3100D01*
D02*
G37*
G36*
X-9617D02*
X-9800D01*
Y2917D01*
X-9749Y2938D01*
X-9686Y2986D01*
X-9638Y3049D01*
X-9617Y3100D01*
D02*
G37*
G36*
X-9300D02*
X-9483D01*
X-9462Y3049D01*
X-9414Y2986D01*
X-9351Y2938D01*
X-9300Y2917D01*
Y3100D01*
D02*
G37*
G36*
X5283Y2900D02*
X5100D01*
Y2717D01*
X5151Y2738D01*
X5214Y2786D01*
X5262Y2849D01*
X5283Y2900D01*
D02*
G37*
G36*
X-5100D02*
X-5283D01*
X-5262Y2849D01*
X-5214Y2786D01*
X-5151Y2738D01*
X-5100Y2717D01*
Y2900D01*
D02*
G37*
G36*
X-4717D02*
X-4900D01*
Y2717D01*
X-4849Y2738D01*
X-4786Y2786D01*
X-4738Y2849D01*
X-4717Y2900D01*
D02*
G37*
G36*
X4900D02*
X4717D01*
X4738Y2849D01*
X4786Y2786D01*
X4849Y2738D01*
X4900Y2717D01*
Y2900D01*
D02*
G37*
G36*
X-8917Y3100D02*
X-9100D01*
Y2917D01*
X-9049Y2938D01*
X-8986Y2986D01*
X-8938Y3049D01*
X-8917Y3100D01*
D02*
G37*
G36*
X4900Y3283D02*
X4849Y3262D01*
X4786Y3214D01*
X4738Y3151D01*
X4717Y3100D01*
X4900D01*
Y3283D01*
D02*
G37*
G36*
X5100D02*
Y3100D01*
X5283D01*
X5262Y3151D01*
X5214Y3214D01*
X5151Y3262D01*
X5100Y3283D01*
D02*
G37*
G36*
X-10000Y3483D02*
X-10051Y3462D01*
X-10114Y3414D01*
X-10162Y3351D01*
X-10183Y3300D01*
X-10000D01*
Y3483D01*
D02*
G37*
G36*
X-4900Y3283D02*
Y3100D01*
X-4717D01*
X-4738Y3151D01*
X-4786Y3214D01*
X-4849Y3262D01*
X-4900Y3283D01*
D02*
G37*
G36*
X-8500Y3100D02*
X-8683D01*
X-8662Y3049D01*
X-8614Y2986D01*
X-8551Y2938D01*
X-8500Y2917D01*
Y3100D01*
D02*
G37*
G36*
X-8117D02*
X-8300D01*
Y2917D01*
X-8249Y2938D01*
X-8186Y2986D01*
X-8138Y3049D01*
X-8117Y3100D01*
D02*
G37*
G36*
X-5100Y3283D02*
X-5151Y3262D01*
X-5214Y3214D01*
X-5262Y3151D01*
X-5283Y3100D01*
X-5100D01*
Y3283D01*
D02*
G37*
%LPD*%
D10*
X8650Y-5667D02*
G03*
X8747Y-5515I-8650J5667D01*
G01*
X1039Y-10288D02*
G03*
X8814Y-5408I-1039J10288D01*
G01*
X7150Y500D02*
X8450D01*
X8800Y150D01*
Y-5462D02*
Y150D01*
X8747Y-5515D02*
X8747Y-5515D01*
X8800Y-5462D01*
X5650Y1000D02*
X6350D01*
X4550Y-100D02*
X5650Y1000D01*
X4550Y-6150D02*
Y-100D01*
X2400Y-8300D02*
X4550Y-6150D01*
D11*
X-7150Y-1000D02*
D03*
X-6350Y-500D02*
D03*
X-7150Y0D02*
D03*
X-6350Y500D02*
D03*
X-7150Y1000D02*
D03*
X6350Y-1000D02*
D03*
X7150Y-500D02*
D03*
X6350Y0D02*
D03*
X7150Y500D02*
D03*
X6350Y1000D02*
D03*
D12*
X0Y0D02*
D03*
D13*
X-5358Y4937D02*
D03*
X5358Y-4937D02*
D03*
D14*
X-6130Y-6660D02*
D03*
X6130Y6660D02*
D03*
D15*
X0Y0D02*
D03*
X787D02*
D03*
X1575D02*
D03*
X2362D02*
D03*
X-787D02*
D03*
X-1575D02*
D03*
X-2362D02*
D03*
Y-787D02*
D03*
X-1575D02*
D03*
X-787D02*
D03*
X2362D02*
D03*
X1575D02*
D03*
X787D02*
D03*
X0D02*
D03*
X-2362Y-1575D02*
D03*
X-1575D02*
D03*
X-787D02*
D03*
X2362D02*
D03*
X1575D02*
D03*
X787D02*
D03*
X0D02*
D03*
X-2362Y787D02*
D03*
X-1575D02*
D03*
X-787D02*
D03*
X2362D02*
D03*
X1575D02*
D03*
X787D02*
D03*
X0D02*
D03*
X-2362Y1575D02*
D03*
X-1575D02*
D03*
X-787D02*
D03*
X2362D02*
D03*
X1575D02*
D03*
X787D02*
D03*
X0D02*
D03*
X-2362Y2362D02*
D03*
X-1575D02*
D03*
X-787D02*
D03*
X2362D02*
D03*
X1575D02*
D03*
X787D02*
D03*
X0D02*
D03*
X-2362Y-2362D02*
D03*
X-1575D02*
D03*
X-787D02*
D03*
X2362D02*
D03*
X1575D02*
D03*
X787D02*
D03*
X0D02*
D03*
X1039Y-10288D02*
D03*
X2400Y-8300D02*
D03*
X-8400Y3200D02*
D03*
Y2500D02*
D03*
Y1700D02*
D03*
X-9200Y2500D02*
D03*
Y4000D02*
D03*
Y3200D02*
D03*
X-9900D02*
D03*
Y4000D02*
D03*
Y2500D02*
D03*
X-5000Y-2000D02*
D03*
Y-3000D02*
D03*
Y-4000D02*
D03*
Y-1000D02*
D03*
X-8500Y0D02*
D03*
Y-1000D02*
D03*
Y-2000D02*
D03*
X3400Y-8000D02*
D03*
X8000Y-1000D02*
D03*
Y-2000D02*
D03*
Y0D02*
D03*
X4600Y-8000D02*
D03*
X4000D02*
D03*
X-500Y7350D02*
D03*
X500D02*
D03*
X0Y10250D02*
D03*
X-1500D02*
D03*
X2000D02*
D03*
X-1500Y-10500D02*
D03*
X0D02*
D03*
X-4000Y-5000D02*
D03*
X-5000D02*
D03*
X4000D02*
D03*
X0D02*
D03*
X1000D02*
D03*
X2000D02*
D03*
X3000D02*
D03*
X-1000D02*
D03*
X-2000D02*
D03*
X-3000D02*
D03*
X-5000Y0D02*
D03*
Y1000D02*
D03*
Y2000D02*
D03*
Y3000D02*
D03*
Y4000D02*
D03*
X-4000Y5000D02*
D03*
X-3000D02*
D03*
X-2000D02*
D03*
X-1000D02*
D03*
X0D02*
D03*
X1000D02*
D03*
X2000D02*
D03*
X3000D02*
D03*
X4000D02*
D03*
X5000D02*
D03*
Y4000D02*
D03*
Y3000D02*
D03*
Y2000D02*
D03*
Y1000D02*
D03*
Y-500D02*
D03*
Y-1500D02*
D03*
Y-2500D02*
D03*
Y-3500D02*
D03*
M02*
