M48
;Layer_Color=9474304
;FILE_FORMAT=2:4
INCH,LZ
;TYPE=PLATED
T1F00S00C0.0079
T2F00S00C0.0080
T3F00S00C0.0120
T4F00S00C0.0157
T5F00S00C0.0472
;TYPE=NON_PLATED
T6F00S00C0.0390
%
T01
X-00322Y-002296
Y-00143
Y-000564
X-002787Y-000997
Y-001863
Y-002729
X-002354Y-002296
Y-00143
Y-000564
X00172Y-000893
Y-00176
X002153Y-001327
Y-00046
X002587Y-000893
Y-00176
X00302Y-001327
Y-00046
X-004086Y-000564
X-004519Y-000997
Y-001863
Y-002729
X-004086Y-002296
Y-00143
X-003653Y-001863
Y-002729
Y-000997
X-004073Y003594
Y00446
X-00364Y004893
X-004073Y005326
X-00364Y004027
X-003207Y00446
Y005326
Y003594
T02
X01255Y-00235
X01355
X0128Y0011
Y0015
X01225
Y0011
X01155Y-00235
X01055
X00955
X0091Y-00195
X00935Y-0012
Y-0007
X008Y-00095
Y-00145
X00615Y-0007
X0057Y-00115
Y-0002
X00575Y00025
X0038Y00005
X003432Y000032
X0039Y-00095
Y-00125
Y-00155
X0036Y-00255
X0032Y-00335
X00295Y-0039
X0021Y-004
Y-00455
X00135Y-0053
X0005Y-0045
X0009Y-004
X0007Y-0031
X0014
X00115Y-00255
X0009Y-00205
Y-00175
X0005Y-00225
X0002Y-00235
Y-00345
X-00029Y-00394
X-00075Y-004
X-00125
X-0019Y-00405
Y-00325
X-00235Y-00355
X-0027
X-003335
X-00225Y-0049
X-00165
X-0012
X-0006
X-0001
X-00146Y-002331
X-00128Y-00208
X-00125Y-0015
X-00131Y-00076
X-001528Y-000958
X-001532Y-00054
X-0019Y0
X-0008Y-00005
X-0005Y00025
X-00075Y0005
X-00105Y0008
X-001Y002
X0Y0015
X001113Y002135
X00175Y00175
X002Y0015
X002606Y0011
X00295Y00135
X00275Y00275
X00225
X0004Y00285
Y-0001
X00125Y00005
X00209Y-00263
X00425Y-0041
X0038Y-00465
X0052Y-005
X00575Y-00445
X0063Y-00375
X0067Y-003
X-002944Y000244
X-00286Y00052
X-00285Y00175
X-0025
X-00325
X-00265Y0029
X-0036
X-0047
X-00495Y0027
X-00485Y00195
X-0052
X-00605
X-00645
X-007Y0015
X-00655Y00095
X-00745Y0007
X-0063Y-0005
X-004982Y-000158
X-003929Y000241
X-00393Y0008
X-00531Y-00216
X-00575Y-00215
X-00615Y-0032
X-004982Y-003138
X-005Y-00445
X-00585Y-00435
X-00415Y-0038
X-00395Y-00355
X-0105Y-00185
X-0121Y-00175
X-0125
X-01285Y-0015
X-01275Y-00215
X-0136Y-0021
X-01445Y-00155
X-01495Y00025
X-0153Y00085
Y00135
X-01485
X-0144
Y0022
X-0134
X-0124
X-0114
X-0104
X-011Y001
X-00625Y00345
X-00565
X-00439Y00632
X-0036Y006
Y00685
X-002823Y006977
X-0031Y006
X-002Y00615
X-002005Y0065
X-00175Y00485
X-0018Y0039
X-00155Y00315
X0015Y00325
X00225
Y00375
X00275
X00325
X00275Y00325
X00395Y0051
Y00555
Y006
X00445
Y00555
Y0051
X00495
Y00555
X00545Y0051
X00032Y00569
X-00013
X-00008Y00674
X00027
T03
X0149Y-00075
X-00125Y00325
X00067Y00519
X00072Y00569
T04
X-00028Y00419
T05
X-00128Y00729
X00122
T06
X0076Y-0022
X0084
X008Y-0002
M30
