%FSLAX24Y24*%
%MOIN*%
G70*
G01*
G75*
G04 Layer_Color=65535*
%ADD10R,0.0236X0.0512*%
%ADD11R,0.0276X0.0354*%
%ADD12R,0.0217X0.0512*%
%ADD13R,0.0354X0.0315*%
%ADD14R,0.0433X0.1024*%
%ADD15C,0.0300*%
%ADD16C,0.0200*%
%ADD17R,0.0866X0.0866*%
%ADD18C,0.0630*%
%ADD19C,0.0709*%
%ADD20C,0.0492*%
%ADD21C,0.0098*%
%ADD22C,0.0050*%
%ADD23C,0.0100*%
%ADD24C,0.0079*%
%ADD25C,0.0080*%
%ADD26C,0.0060*%
D21*
X16608Y11763D02*
G03*
X16608Y11763I-49J0D01*
G01*
X19599Y12713D02*
G03*
X19599Y12713I-49J0D01*
G01*
D22*
X19329Y16256D02*
G03*
X19330Y13893I-314J-1181D01*
G01*
X15600Y17400D02*
Y18500D01*
X14000Y19650D02*
X15000D01*
X14000Y17650D02*
X15000D01*
Y19650D01*
X14000Y17650D02*
Y19650D01*
X19500Y18750D02*
Y19750D01*
X17500Y18750D02*
Y19750D01*
Y18750D02*
X19500D01*
X17500Y19750D02*
X19500D01*
X14000Y10350D02*
X15000D01*
X14000Y12350D02*
X15000D01*
X14000Y10350D02*
Y12350D01*
X15000Y10350D02*
Y12350D01*
X19500Y10250D02*
Y11250D01*
X17500Y10250D02*
Y11250D01*
Y10250D02*
X19500D01*
X17500Y11250D02*
X19500D01*
X10530Y10259D02*
Y12441D01*
X12970Y10259D02*
Y12441D01*
X10530Y10259D02*
X12970D01*
X10530Y12441D02*
X12970D01*
X10530Y17559D02*
Y19741D01*
X12970Y17559D02*
Y19741D01*
X10530Y17559D02*
X12970D01*
X10530Y19741D02*
X12970D01*
X19500Y17500D02*
Y18500D01*
X17500Y17500D02*
Y18500D01*
Y17500D02*
X19500D01*
X17500Y18500D02*
X19500D01*
X19330Y13893D02*
Y16256D01*
D23*
X14800Y12988D02*
X16493D01*
Y17043D01*
X10587D02*
X16493D01*
X10587Y12988D02*
Y17043D01*
Y12988D02*
X14800D01*
D24*
X16441Y11074D02*
Y11350D01*
X16126Y11074D02*
X16441D01*
X15259D02*
Y11350D01*
Y11074D02*
X15574D01*
X17321Y11888D02*
X17479D01*
X17321Y11612D02*
X17479D01*
X19510Y12162D02*
Y12438D01*
X18290Y12162D02*
Y12438D01*
X19510D01*
X18290Y12162D02*
X19510D01*
X18871Y13638D02*
X19029D01*
X18871Y13362D02*
X19029D01*
X16343Y18422D02*
X16657D01*
X16343Y17478D02*
X16657D01*
D25*
X17467Y17183D02*
X17400Y17250D01*
X17267D01*
X17200Y17183D01*
Y16917D01*
X17267Y16850D01*
X17400D01*
X17467Y16917D01*
Y17050D01*
X17333D01*
X17600Y16850D02*
Y17250D01*
X17866Y16850D01*
Y17250D01*
X18000D02*
Y16850D01*
X18200D01*
X18266Y16917D01*
Y17183D01*
X18200Y17250D01*
X18000D01*
X15800Y19700D02*
Y19433D01*
X15933Y19300D01*
X16067Y19433D01*
Y19700D01*
X16466Y19633D02*
X16400Y19700D01*
X16267D01*
X16200Y19633D01*
Y19367D01*
X16267Y19300D01*
X16400D01*
X16466Y19367D01*
X16866Y19633D02*
X16800Y19700D01*
X16666D01*
X16600Y19633D01*
Y19367D01*
X16666Y19300D01*
X16800D01*
X16866Y19367D01*
X17266Y19700D02*
X17000D01*
Y19500D01*
X17133Y19567D01*
X17200D01*
X17266Y19500D01*
Y19367D01*
X17200Y19300D01*
X17066D01*
X17000Y19367D01*
X16467Y10800D02*
X16200D01*
Y10400D01*
X16467D01*
X16200Y10600D02*
X16333D01*
X16600Y10800D02*
X16866Y10400D01*
Y10800D02*
X16600Y10400D01*
X17000Y10800D02*
X17266D01*
X17133D01*
Y10400D01*
X13500Y12200D02*
Y11933D01*
X13633Y12067D02*
X13367D01*
X13300Y11800D02*
Y11667D01*
Y11733D01*
X13700D01*
Y11800D01*
X13300Y11267D02*
Y11400D01*
X13367Y11467D01*
X13500D01*
X13567Y11400D01*
Y11267D01*
X13500Y11200D01*
X13433D01*
Y11467D01*
X13700Y10800D02*
X13300D01*
Y11000D01*
X13367Y11067D01*
X13500D01*
X13567Y11000D01*
Y10800D01*
X13500Y10667D02*
Y10401D01*
Y19550D02*
Y19283D01*
X13633Y19417D02*
X13367D01*
X13700Y19150D02*
X13433D01*
X13300Y19017D01*
X13433Y18884D01*
X13700D01*
X13300Y18750D02*
Y18617D01*
Y18684D01*
X13567D01*
Y18750D01*
X13300Y18417D02*
X13567D01*
Y18217D01*
X13500Y18150D01*
X13300D01*
X13500Y18017D02*
Y17751D01*
D26*
X15790Y12360D02*
Y12600D01*
X15730Y12660D01*
X15610D01*
X15550Y12600D01*
Y12360D01*
X15610Y12300D01*
X15730D01*
X15670Y12420D02*
X15790Y12300D01*
X15730D02*
X15790Y12360D01*
X15910Y12300D02*
X16030D01*
X15970D01*
Y12660D01*
X15910Y12600D01*
X17250Y12150D02*
Y12510D01*
X17430D01*
X17490Y12450D01*
Y12330D01*
X17430Y12270D01*
X17250D01*
X17370D02*
X17490Y12150D01*
X17610D02*
X17730D01*
X17670D01*
Y12510D01*
X17610Y12450D01*
X17650Y13060D02*
Y12760D01*
X17710Y12700D01*
X17830D01*
X17890Y12760D01*
Y13060D01*
X18010Y12700D02*
X18130D01*
X18070D01*
Y13060D01*
X18010Y13000D01*
X16750Y14240D02*
X16690Y14180D01*
Y14060D01*
X16750Y14000D01*
X16990D01*
X17050Y14060D01*
Y14180D01*
X16990Y14240D01*
X17050Y14360D02*
Y14480D01*
Y14420D01*
X16690D01*
X16750Y14360D01*
X17650Y13300D02*
Y13660D01*
X17830D01*
X17890Y13600D01*
Y13480D01*
X17830Y13420D01*
X17650D01*
X17770D02*
X17890Y13300D01*
X18250D02*
X18010D01*
X18250Y13540D01*
Y13600D01*
X18190Y13660D01*
X18070D01*
X18010Y13600D01*
X16750Y15740D02*
X16690Y15680D01*
Y15560D01*
X16750Y15500D01*
X16990D01*
X17050Y15560D01*
Y15680D01*
X16990Y15740D01*
X17050Y16100D02*
Y15860D01*
X16810Y16100D01*
X16750D01*
X16690Y16040D01*
Y15920D01*
X16750Y15860D01*
X18550Y16860D02*
Y16560D01*
X18610Y16500D01*
X18730D01*
X18790Y16560D01*
Y16860D01*
X19150Y16500D02*
X18910D01*
X19150Y16740D01*
Y16800D01*
X19090Y16860D01*
X18970D01*
X18910Y16800D01*
X16440Y18950D02*
X16380Y19010D01*
X16260D01*
X16200Y18950D01*
Y18710D01*
X16260Y18650D01*
X16380D01*
X16440Y18710D01*
X16560Y18950D02*
X16620Y19010D01*
X16740D01*
X16800Y18950D01*
Y18890D01*
X16740Y18830D01*
X16680D01*
X16740D01*
X16800Y18770D01*
Y18710D01*
X16740Y18650D01*
X16620D01*
X16560Y18710D01*
M02*
