%FSLAX24Y24*%
%MOIN*%
G70*
G01*
G75*
G04 Layer_Color=16711935*
%ADD10R,0.0500X0.0299*%
%ADD11R,0.0551X0.0236*%
%ADD12R,0.0709X0.0236*%
%ADD13R,0.0315X0.0354*%
%ADD14R,0.0500X0.1000*%
%ADD15R,0.0512X0.0217*%
%ADD16R,0.0354X0.0315*%
%ADD17R,0.0472X0.0551*%
%ADD18R,0.0354X0.0276*%
%ADD19R,0.0217X0.0394*%
%ADD20R,0.0276X0.0354*%
%ADD21R,0.0217X0.0512*%
%ADD22R,0.0512X0.0236*%
%ADD23R,0.1500X0.1000*%
G04:AMPARAMS|DCode=24|XSize=60mil|YSize=40mil|CornerRadius=0mil|HoleSize=0mil|Usage=FLASHONLY|Rotation=45.000|XOffset=0mil|YOffset=0mil|HoleType=Round|Shape=Rectangle|*
%AMROTATEDRECTD24*
4,1,4,-0.0071,-0.0354,-0.0354,-0.0071,0.0071,0.0354,0.0354,0.0071,-0.0071,-0.0354,0.0*
%
%ADD24ROTATEDRECTD24*%

%ADD25O,0.1181X0.3150*%
%ADD26R,0.8661X0.8661*%
%ADD27C,0.0120*%
%ADD28C,0.0200*%
%ADD29C,0.0150*%
%ADD30C,0.0300*%
%ADD31O,0.0669X0.1102*%
%ADD32C,0.1100*%
%ADD33C,0.0400*%
%ADD34C,0.0098*%
%ADD35C,0.0079*%
%ADD36C,0.0080*%
%ADD37C,0.0100*%
%ADD38C,0.0060*%
%ADD39R,0.0560X0.0359*%
%ADD40R,0.0611X0.0296*%
%ADD41R,0.0769X0.0296*%
%ADD42R,0.0375X0.0414*%
%ADD43R,0.0560X0.1060*%
%ADD44R,0.0572X0.0277*%
%ADD45R,0.0414X0.0375*%
%ADD46R,0.0532X0.0611*%
%ADD47R,0.0414X0.0336*%
%ADD48R,0.0277X0.0454*%
%ADD49R,0.0336X0.0414*%
%ADD50R,0.0277X0.0572*%
%ADD51R,0.0572X0.0296*%
%ADD52R,0.1560X0.1060*%
G04:AMPARAMS|DCode=53|XSize=66mil|YSize=46mil|CornerRadius=0mil|HoleSize=0mil|Usage=FLASHONLY|Rotation=45.000|XOffset=0mil|YOffset=0mil|HoleType=Round|Shape=Rectangle|*
%AMROTATEDRECTD53*
4,1,4,-0.0071,-0.0396,-0.0396,-0.0071,0.0071,0.0396,0.0396,0.0071,-0.0071,-0.0396,0.0*
%
%ADD53ROTATEDRECTD53*%

%ADD54O,0.1241X0.3210*%
%ADD55R,0.8721X0.8721*%
%ADD56O,0.0729X0.1162*%
%ADD57C,0.0700*%
%ADD58C,0.0460*%
%ADD59R,0.8700X0.8700*%
D56*
X-5358Y-4937D02*
D03*
X5358Y4937D02*
D03*
D57*
X6130Y-6660D02*
D03*
X-6130Y6660D02*
D03*
D58*
X0Y0D02*
D03*
X787D02*
D03*
X1575D02*
D03*
X2362D02*
D03*
X-787D02*
D03*
X-1575D02*
D03*
X-2362D02*
D03*
Y787D02*
D03*
X-1575D02*
D03*
X-787D02*
D03*
X2362D02*
D03*
X1575D02*
D03*
X787D02*
D03*
X0D02*
D03*
X-2362Y1575D02*
D03*
X-1575D02*
D03*
X-787D02*
D03*
X2362D02*
D03*
X1575D02*
D03*
X787D02*
D03*
X0D02*
D03*
X-2362Y-787D02*
D03*
X-1575D02*
D03*
X-787D02*
D03*
X2362D02*
D03*
X1575D02*
D03*
X787D02*
D03*
X0D02*
D03*
X-2362Y-1575D02*
D03*
X-1575D02*
D03*
X-787D02*
D03*
X2362D02*
D03*
X1575D02*
D03*
X787D02*
D03*
X0D02*
D03*
X-2362Y-2362D02*
D03*
X-1575D02*
D03*
X-787D02*
D03*
X2362D02*
D03*
X1575D02*
D03*
X787D02*
D03*
X0D02*
D03*
X-2362Y2362D02*
D03*
X-1575D02*
D03*
X-787D02*
D03*
X2362D02*
D03*
X1575D02*
D03*
X787D02*
D03*
X0D02*
D03*
D59*
Y0D02*
D03*
M02*
