%FSLAX24Y24*%
%MOIN*%
G70*
G01*
G75*
G04 Layer_Color=8388736*
%ADD10R,0.0276X0.0354*%
%ADD11R,0.0512X0.0236*%
%ADD12R,0.0354X0.0276*%
%ADD13R,0.0315X0.0354*%
%ADD14R,0.0217X0.0394*%
%ADD15R,0.0472X0.0551*%
%ADD16R,0.0500X0.0299*%
%ADD17R,0.0217X0.0512*%
%ADD18C,0.0120*%
%ADD19C,0.0140*%
%ADD20C,0.0200*%
%ADD21C,0.0492*%
%ADD22R,0.0866X0.0866*%
%ADD23C,0.0709*%
%ADD24C,0.0630*%
%ADD25C,0.1063*%
%ADD26C,0.0882*%
%ADD27C,0.0400*%
%ADD28C,0.0098*%
%ADD29C,0.0050*%
%ADD30C,0.0079*%
%ADD31C,0.0100*%
%ADD32C,0.0080*%
%ADD33R,0.0336X0.0414*%
%ADD34R,0.0572X0.0296*%
%ADD35R,0.0414X0.0336*%
%ADD36R,0.0375X0.0414*%
%ADD37R,0.0277X0.0454*%
%ADD38R,0.0532X0.0611*%
%ADD39R,0.0560X0.0359*%
%ADD40R,0.0277X0.0572*%
%ADD41C,0.0552*%
%ADD42R,0.0926X0.0926*%
%ADD43C,0.0060*%
%ADD44C,0.0769*%
%ADD45C,0.0690*%
%ADD46C,0.1123*%
%ADD47C,0.0942*%
%ADD48C,0.0100*%
D33*
X10505Y2700D02*
D03*
X11095D02*
D03*
X5095Y5500D02*
D03*
X4505D02*
D03*
X4495Y4900D02*
D03*
X3905D02*
D03*
D34*
X12013Y1350D02*
D03*
X11187Y976D02*
D03*
Y1724D02*
D03*
D35*
X8800Y1645D02*
D03*
Y1055D02*
D03*
X6750Y7195D02*
D03*
Y6605D02*
D03*
X6100Y6605D02*
D03*
Y7195D02*
D03*
D36*
X5074Y4900D02*
D03*
X5626D02*
D03*
X2676Y4850D02*
D03*
X2124D02*
D03*
X724Y4850D02*
D03*
X1276D02*
D03*
D37*
X5374Y7172D02*
D03*
X5000D02*
D03*
X4626D02*
D03*
Y6228D02*
D03*
X5000D02*
D03*
X5374D02*
D03*
D38*
X1554Y7400D02*
D03*
X846D02*
D03*
X1554Y8300D02*
D03*
X846D02*
D03*
X1554Y9200D02*
D03*
X846D02*
D03*
X1554Y10100D02*
D03*
X846D02*
D03*
D39*
X2650Y8000D02*
D03*
Y8500D02*
D03*
Y9000D02*
D03*
Y9500D02*
D03*
X5650D02*
D03*
Y9000D02*
D03*
Y8500D02*
D03*
Y8000D02*
D03*
D40*
X9526Y1792D02*
D03*
X10274D02*
D03*
Y808D02*
D03*
X9900D02*
D03*
X9526D02*
D03*
D41*
X2487Y5850D02*
D03*
X1700D02*
D03*
X913D02*
D03*
D42*
X5431Y2650D02*
D03*
X3069D02*
D03*
X4250Y800D02*
D03*
D43*
X14150Y450D02*
D03*
X13150D02*
D03*
D44*
X14150Y1450D02*
D03*
X13150D02*
D03*
D45*
X7750Y2500D02*
D03*
X6750D02*
D03*
Y750D02*
D03*
X7750D02*
D03*
D46*
X8128Y4544D02*
D03*
X13672D02*
D03*
X10900D02*
D03*
D47*
X7538Y9304D02*
D03*
X14262D02*
D03*
D48*
X3400Y4900D02*
D03*
X10700Y1350D02*
D03*
X12350Y850D02*
D03*
X11850D02*
D03*
X846Y6746D02*
D03*
X1700Y4850D02*
D03*
X6100Y4900D02*
D03*
Y6150D02*
D03*
X5000Y6700D02*
D03*
M02*
