%FSLAX24Y24*%
%MOIN*%
G70*
G01*
G75*
G04 Layer_Physical_Order=2*
G04 Layer_Color=16711680*
%ADD10R,0.0276X0.0354*%
%ADD11R,0.0512X0.0236*%
%ADD12R,0.0354X0.0276*%
%ADD13R,0.0315X0.0354*%
%ADD14R,0.0217X0.0394*%
%ADD15R,0.0472X0.0551*%
%ADD16R,0.0500X0.0299*%
%ADD17R,0.0217X0.0512*%
%ADD18C,0.0120*%
%ADD19C,0.0140*%
%ADD20C,0.0200*%
%ADD21C,0.0492*%
%ADD22R,0.0866X0.0866*%
%ADD23C,0.0709*%
%ADD24C,0.0630*%
%ADD25C,0.1063*%
%ADD26C,0.0882*%
%ADD27C,0.0400*%
G36*
X14913Y87D02*
X14278D01*
X14268Y136D01*
X14319Y157D01*
X14389Y211D01*
X14443Y281D01*
X14477Y362D01*
X14488Y450D01*
X14477Y538D01*
X14443Y619D01*
X14389Y689D01*
X14319Y743D01*
X14238Y777D01*
X14150Y788D01*
X14062Y777D01*
X13981Y743D01*
X13911Y689D01*
X13857Y619D01*
X13823Y538D01*
X13812Y450D01*
X13823Y362D01*
X13857Y281D01*
X13911Y211D01*
X13981Y157D01*
X14032Y136D01*
X14022Y87D01*
X13278D01*
X13268Y136D01*
X13319Y157D01*
X13389Y211D01*
X13443Y281D01*
X13477Y362D01*
X13488Y450D01*
X13477Y538D01*
X13443Y619D01*
X13389Y689D01*
X13319Y743D01*
X13238Y777D01*
X13150Y788D01*
X13062Y777D01*
X12981Y743D01*
X12911Y689D01*
X12857Y619D01*
X12823Y538D01*
X12812Y450D01*
X12823Y362D01*
X12857Y281D01*
X12911Y211D01*
X12981Y157D01*
X13032Y136D01*
X13022Y87D01*
X87D01*
Y10663D01*
X14913D01*
Y87D01*
D02*
G37*
%LPC*%
G36*
X10740Y1647D02*
Y1390D01*
X10997D01*
X10992Y1428D01*
X10962Y1501D01*
X10914Y1564D01*
X10851Y1612D01*
X10778Y1642D01*
X10740Y1647D01*
D02*
G37*
G36*
X3029Y2610D02*
X2536D01*
Y2117D01*
X3029D01*
Y2610D01*
D02*
G37*
G36*
X3602D02*
X3109D01*
Y2117D01*
X3602D01*
Y2610D01*
D02*
G37*
G36*
X10660Y1647D02*
X10622Y1642D01*
X10549Y1612D01*
X10486Y1564D01*
X10438Y1501D01*
X10408Y1428D01*
X10403Y1390D01*
X10660D01*
Y1647D01*
D02*
G37*
G36*
X12310Y1147D02*
X12272Y1142D01*
X12199Y1112D01*
X12136Y1064D01*
X12125Y1050D01*
X12075D01*
X12064Y1064D01*
X12001Y1112D01*
X11928Y1142D01*
X11890Y1147D01*
Y850D01*
Y553D01*
X11928Y558D01*
X12001Y588D01*
X12064Y636D01*
X12075Y650D01*
X12125D01*
X12136Y636D01*
X12199Y588D01*
X12272Y558D01*
X12310Y553D01*
Y850D01*
Y1147D01*
D02*
G37*
G36*
X10660Y1310D02*
X10403D01*
X10408Y1272D01*
X10438Y1199D01*
X10486Y1136D01*
X10549Y1088D01*
X10622Y1058D01*
X10660Y1053D01*
Y1310D01*
D02*
G37*
G36*
X10997D02*
X10740D01*
Y1053D01*
X10778Y1058D01*
X10851Y1088D01*
X10914Y1136D01*
X10962Y1199D01*
X10992Y1272D01*
X10997Y1310D01*
D02*
G37*
G36*
X8128Y5138D02*
X8012Y5127D01*
X7901Y5093D01*
X7798Y5038D01*
X7708Y4964D01*
X7634Y4874D01*
X7579Y4771D01*
X7545Y4660D01*
X7534Y4544D01*
X7545Y4428D01*
X7579Y4316D01*
X7634Y4213D01*
X7708Y4123D01*
X7798Y4050D01*
X7901Y3995D01*
X8012Y3961D01*
X8128Y3949D01*
X8244Y3961D01*
X8356Y3995D01*
X8459Y4050D01*
X8549Y4123D01*
X8623Y4213D01*
X8677Y4316D01*
X8711Y4428D01*
X8723Y4544D01*
X8711Y4660D01*
X8677Y4771D01*
X8623Y4874D01*
X8549Y4964D01*
X8459Y5038D01*
X8356Y5093D01*
X8244Y5127D01*
X8128Y5138D01*
D02*
G37*
G36*
X10900D02*
X10784Y5127D01*
X10673Y5093D01*
X10570Y5038D01*
X10480Y4964D01*
X10406Y4874D01*
X10351Y4771D01*
X10317Y4660D01*
X10306Y4544D01*
X10317Y4428D01*
X10351Y4316D01*
X10383Y4257D01*
X9689Y3563D01*
X6181D01*
X6119Y3551D01*
X6066Y3515D01*
X5693Y3143D01*
X4938D01*
Y2157D01*
X5924D01*
Y2912D01*
X6249Y3237D01*
X9756D01*
X9819Y3249D01*
X9872Y3285D01*
X10613Y4026D01*
X10673Y3995D01*
X10784Y3961D01*
X10900Y3949D01*
X11016Y3961D01*
X11127Y3995D01*
X11230Y4050D01*
X11320Y4123D01*
X11394Y4213D01*
X11449Y4316D01*
X11483Y4428D01*
X11494Y4544D01*
X11483Y4660D01*
X11449Y4771D01*
X11394Y4874D01*
X11320Y4964D01*
X11230Y5038D01*
X11127Y5093D01*
X11016Y5127D01*
X10900Y5138D01*
D02*
G37*
G36*
X2487Y6159D02*
X2407Y6148D01*
X2333Y6117D01*
X2269Y6068D01*
X2220Y6004D01*
X2189Y5930D01*
X2179Y5850D01*
X2189Y5770D01*
X2220Y5696D01*
X2269Y5632D01*
X2333Y5583D01*
X2407Y5552D01*
X2487Y5541D01*
X2556Y5550D01*
X2622Y5485D01*
X2675Y5449D01*
X2737Y5437D01*
X12548D01*
X13154Y4830D01*
X13123Y4771D01*
X13089Y4660D01*
X13077Y4544D01*
X13089Y4428D01*
X13123Y4316D01*
X13177Y4213D01*
X13251Y4123D01*
X13341Y4050D01*
X13444Y3995D01*
X13556Y3961D01*
X13672Y3949D01*
X13788Y3961D01*
X13899Y3995D01*
X14002Y4050D01*
X14092Y4123D01*
X14166Y4213D01*
X14221Y4316D01*
X14255Y4428D01*
X14266Y4544D01*
X14255Y4660D01*
X14221Y4771D01*
X14166Y4874D01*
X14092Y4964D01*
X14002Y5038D01*
X13899Y5093D01*
X13788Y5127D01*
X13672Y5138D01*
X13556Y5127D01*
X13444Y5093D01*
X13385Y5061D01*
X12731Y5715D01*
X12678Y5751D01*
X12615Y5763D01*
X2823D01*
X2790Y5801D01*
X2796Y5850D01*
X2786Y5930D01*
X2755Y6004D01*
X2706Y6068D01*
X2642Y6117D01*
X2567Y6148D01*
X2487Y6159D01*
D02*
G37*
G36*
X3602Y3183D02*
X3109D01*
Y2690D01*
X3602D01*
Y3183D01*
D02*
G37*
G36*
X6750Y2878D02*
X6652Y2865D01*
X6561Y2828D01*
X6483Y2767D01*
X6422Y2689D01*
X6385Y2598D01*
X6372Y2500D01*
X6385Y2402D01*
X6422Y2311D01*
X6483Y2233D01*
X6561Y2172D01*
X6652Y2135D01*
X6750Y2122D01*
X6848Y2135D01*
X6939Y2172D01*
X7017Y2233D01*
X7078Y2311D01*
X7115Y2402D01*
X7128Y2500D01*
X7115Y2598D01*
X7078Y2689D01*
X7017Y2767D01*
X6939Y2828D01*
X6848Y2865D01*
X6750Y2878D01*
D02*
G37*
G36*
X7750D02*
X7652Y2865D01*
X7561Y2828D01*
X7483Y2767D01*
X7422Y2689D01*
X7385Y2598D01*
X7372Y2500D01*
X7385Y2402D01*
X7422Y2311D01*
X7483Y2233D01*
X7561Y2172D01*
X7652Y2135D01*
X7750Y2122D01*
X7848Y2135D01*
X7939Y2172D01*
X8017Y2233D01*
X8078Y2311D01*
X8115Y2402D01*
X8128Y2500D01*
X8115Y2598D01*
X8078Y2689D01*
X8017Y2767D01*
X7939Y2828D01*
X7848Y2865D01*
X7750Y2878D01*
D02*
G37*
G36*
X3029Y3183D02*
X2536D01*
Y2690D01*
X3029D01*
Y3183D01*
D02*
G37*
G36*
X14150Y1868D02*
X14042Y1854D01*
X13941Y1812D01*
X13855Y1745D01*
X13788Y1659D01*
X13746Y1558D01*
X13732Y1450D01*
X13746Y1342D01*
X13788Y1241D01*
X13855Y1155D01*
X13941Y1088D01*
X14042Y1046D01*
X14150Y1032D01*
X14258Y1046D01*
X14359Y1088D01*
X14446Y1155D01*
X14512Y1241D01*
X14554Y1342D01*
X14568Y1450D01*
X14554Y1558D01*
X14512Y1659D01*
X14446Y1745D01*
X14359Y1812D01*
X14258Y1854D01*
X14150Y1868D01*
D02*
G37*
G36*
X8163Y710D02*
X7790D01*
Y337D01*
X7858Y346D01*
X7959Y388D01*
X8046Y454D01*
X8112Y541D01*
X8154Y642D01*
X8163Y710D01*
D02*
G37*
G36*
X11810Y810D02*
X11553D01*
X11558Y772D01*
X11588Y699D01*
X11636Y636D01*
X11699Y588D01*
X11772Y558D01*
X11810Y553D01*
Y810D01*
D02*
G37*
G36*
X12647D02*
X12390D01*
Y553D01*
X12428Y558D01*
X12501Y588D01*
X12564Y636D01*
X12612Y699D01*
X12642Y772D01*
X12647Y810D01*
D02*
G37*
G36*
X7710Y710D02*
X7337D01*
X7346Y642D01*
X7388Y541D01*
X7454Y454D01*
X7541Y388D01*
X7642Y346D01*
X7710Y337D01*
Y710D01*
D02*
G37*
G36*
X4743Y1293D02*
X3757D01*
Y307D01*
X4743D01*
Y1293D01*
D02*
G37*
G36*
X6710Y710D02*
X6337D01*
X6346Y642D01*
X6388Y541D01*
X6454Y454D01*
X6541Y388D01*
X6642Y346D01*
X6710Y337D01*
Y710D01*
D02*
G37*
G36*
X7163D02*
X6790D01*
Y337D01*
X6858Y346D01*
X6959Y388D01*
X7046Y454D01*
X7112Y541D01*
X7154Y642D01*
X7163Y710D01*
D02*
G37*
G36*
X11810Y1147D02*
X11772Y1142D01*
X11699Y1112D01*
X11636Y1064D01*
X11588Y1001D01*
X11558Y928D01*
X11553Y890D01*
X11810D01*
Y1147D01*
D02*
G37*
G36*
X12390D02*
Y890D01*
X12647D01*
X12642Y928D01*
X12612Y1001D01*
X12564Y1064D01*
X12501Y1112D01*
X12428Y1142D01*
X12390Y1147D01*
D02*
G37*
G36*
X13150Y1868D02*
X13042Y1854D01*
X12941Y1812D01*
X12854Y1745D01*
X12788Y1659D01*
X12746Y1558D01*
X12732Y1450D01*
X12746Y1342D01*
X12788Y1241D01*
X12854Y1155D01*
X12941Y1088D01*
X13042Y1046D01*
X13150Y1032D01*
X13258Y1046D01*
X13359Y1088D01*
X13446Y1155D01*
X13512Y1241D01*
X13554Y1342D01*
X13568Y1450D01*
X13554Y1558D01*
X13512Y1659D01*
X13446Y1745D01*
X13359Y1812D01*
X13258Y1854D01*
X13150Y1868D01*
D02*
G37*
G36*
X7790Y1163D02*
Y790D01*
X8163D01*
X8154Y858D01*
X8112Y959D01*
X8046Y1046D01*
X7959Y1112D01*
X7858Y1154D01*
X7790Y1163D01*
D02*
G37*
G36*
X6710D02*
X6642Y1154D01*
X6541Y1112D01*
X6454Y1046D01*
X6388Y959D01*
X6346Y858D01*
X6337Y790D01*
X6710D01*
Y1163D01*
D02*
G37*
G36*
X6790D02*
Y790D01*
X7163D01*
X7154Y858D01*
X7112Y959D01*
X7046Y1046D01*
X6959Y1112D01*
X6858Y1154D01*
X6790Y1163D01*
D02*
G37*
G36*
X7710D02*
X7642Y1154D01*
X7541Y1112D01*
X7454Y1046D01*
X7388Y959D01*
X7346Y858D01*
X7337Y790D01*
X7710D01*
Y1163D01*
D02*
G37*
G36*
X1660Y4810D02*
X1403D01*
X1408Y4772D01*
X1438Y4699D01*
X1486Y4636D01*
X1549Y4588D01*
X1622Y4558D01*
X1660Y4553D01*
Y4810D01*
D02*
G37*
G36*
X6140Y6447D02*
Y6190D01*
X6397D01*
X6392Y6228D01*
X6362Y6301D01*
X6314Y6364D01*
X6251Y6412D01*
X6178Y6442D01*
X6140Y6447D01*
D02*
G37*
G36*
X4960Y6660D02*
X4703D01*
X4708Y6622D01*
X4738Y6549D01*
X4786Y6486D01*
X4849Y6438D01*
X4922Y6408D01*
X4960Y6403D01*
Y6660D01*
D02*
G37*
G36*
X5297D02*
X5040D01*
Y6403D01*
X5078Y6408D01*
X5151Y6438D01*
X5214Y6486D01*
X5262Y6549D01*
X5292Y6622D01*
X5297Y6660D01*
D02*
G37*
G36*
X6060Y6447D02*
X6022Y6442D01*
X5949Y6412D01*
X5886Y6364D01*
X5838Y6301D01*
X5808Y6228D01*
X5803Y6190D01*
X6060D01*
Y6447D01*
D02*
G37*
G36*
X6397Y6110D02*
X6140D01*
Y5853D01*
X6178Y5858D01*
X6251Y5888D01*
X6314Y5936D01*
X6362Y5999D01*
X6392Y6072D01*
X6397Y6110D01*
D02*
G37*
G36*
X1660Y6194D02*
X1610Y6187D01*
X1525Y6152D01*
X1453Y6097D01*
X1398Y6025D01*
X1363Y5940D01*
X1356Y5890D01*
X1660D01*
Y6194D01*
D02*
G37*
G36*
X1740D02*
Y5890D01*
X2044D01*
X2037Y5940D01*
X2002Y6025D01*
X1947Y6097D01*
X1875Y6152D01*
X1790Y6187D01*
X1740Y6194D01*
D02*
G37*
G36*
X806Y6706D02*
X548D01*
X553Y6667D01*
X584Y6594D01*
X632Y6532D01*
X694Y6484D01*
X767Y6453D01*
X806Y6448D01*
Y6706D01*
D02*
G37*
G36*
X886Y7043D02*
Y6786D01*
X1143D01*
X1138Y6824D01*
X1108Y6897D01*
X1060Y6960D01*
X997Y7008D01*
X924Y7038D01*
X886Y7043D01*
D02*
G37*
G36*
X7538Y9809D02*
X7407Y9792D01*
X7285Y9741D01*
X7181Y9661D01*
X7100Y9556D01*
X7050Y9434D01*
X7033Y9304D01*
X7050Y9173D01*
X7100Y9051D01*
X7181Y8946D01*
X7285Y8866D01*
X7407Y8815D01*
X7538Y8798D01*
X7669Y8815D01*
X7790Y8866D01*
X7895Y8946D01*
X7975Y9051D01*
X8026Y9173D01*
X8043Y9304D01*
X8026Y9434D01*
X7975Y9556D01*
X7895Y9661D01*
X7790Y9741D01*
X7669Y9792D01*
X7538Y9809D01*
D02*
G37*
G36*
X14262D02*
X14131Y9792D01*
X14010Y9741D01*
X13905Y9661D01*
X13825Y9556D01*
X13774Y9434D01*
X13757Y9304D01*
X13774Y9173D01*
X13825Y9051D01*
X13905Y8946D01*
X14010Y8866D01*
X14131Y8815D01*
X14262Y8798D01*
X14393Y8815D01*
X14515Y8866D01*
X14619Y8946D01*
X14700Y9051D01*
X14750Y9173D01*
X14767Y9304D01*
X14750Y9434D01*
X14700Y9556D01*
X14619Y9661D01*
X14515Y9741D01*
X14393Y9792D01*
X14262Y9809D01*
D02*
G37*
G36*
X806Y7043D02*
X767Y7038D01*
X694Y7008D01*
X632Y6960D01*
X584Y6897D01*
X553Y6824D01*
X548Y6786D01*
X806D01*
Y7043D01*
D02*
G37*
G36*
X1143Y6706D02*
X886D01*
Y6448D01*
X924Y6453D01*
X997Y6484D01*
X1060Y6532D01*
X1108Y6594D01*
X1138Y6667D01*
X1143Y6706D01*
D02*
G37*
G36*
X4960Y6997D02*
X4922Y6992D01*
X4849Y6962D01*
X4786Y6914D01*
X4738Y6851D01*
X4708Y6778D01*
X4703Y6740D01*
X4960D01*
Y6997D01*
D02*
G37*
G36*
X5040D02*
Y6740D01*
X5297D01*
X5292Y6778D01*
X5262Y6851D01*
X5214Y6914D01*
X5151Y6962D01*
X5078Y6992D01*
X5040Y6997D01*
D02*
G37*
G36*
X3697Y4860D02*
X3440D01*
Y4603D01*
X3478Y4608D01*
X3551Y4638D01*
X3614Y4686D01*
X3662Y4749D01*
X3692Y4822D01*
X3697Y4860D01*
D02*
G37*
G36*
X1660Y5147D02*
X1622Y5142D01*
X1549Y5112D01*
X1486Y5064D01*
X1438Y5001D01*
X1408Y4928D01*
X1403Y4890D01*
X1660D01*
Y5147D01*
D02*
G37*
G36*
X1740D02*
Y4890D01*
X1997D01*
X1992Y4928D01*
X1962Y5001D01*
X1914Y5064D01*
X1851Y5112D01*
X1778Y5142D01*
X1740Y5147D01*
D02*
G37*
G36*
X3360Y4860D02*
X3103D01*
X3108Y4822D01*
X3138Y4749D01*
X3186Y4686D01*
X3249Y4638D01*
X3322Y4608D01*
X3360Y4603D01*
Y4860D01*
D02*
G37*
G36*
X1997Y4810D02*
X1740D01*
Y4553D01*
X1778Y4558D01*
X1851Y4588D01*
X1914Y4636D01*
X1962Y4699D01*
X1992Y4772D01*
X1997Y4810D01*
D02*
G37*
G36*
X6060Y4860D02*
X5803D01*
X5808Y4822D01*
X5838Y4749D01*
X5886Y4686D01*
X5949Y4638D01*
X6022Y4608D01*
X6060Y4603D01*
Y4860D01*
D02*
G37*
G36*
X6397D02*
X6140D01*
Y4603D01*
X6178Y4608D01*
X6251Y4638D01*
X6314Y4686D01*
X6362Y4749D01*
X6392Y4822D01*
X6397Y4860D01*
D02*
G37*
G36*
X6060Y5197D02*
X6022Y5192D01*
X5949Y5162D01*
X5886Y5114D01*
X5838Y5051D01*
X5808Y4978D01*
X5803Y4940D01*
X6060D01*
Y5197D01*
D02*
G37*
G36*
X2044Y5810D02*
X1740D01*
Y5506D01*
X1790Y5513D01*
X1875Y5548D01*
X1947Y5603D01*
X2002Y5675D01*
X2037Y5760D01*
X2044Y5810D01*
D02*
G37*
G36*
X913Y6159D02*
X833Y6148D01*
X758Y6117D01*
X694Y6068D01*
X645Y6004D01*
X614Y5930D01*
X604Y5850D01*
X614Y5770D01*
X645Y5696D01*
X694Y5632D01*
X758Y5583D01*
X833Y5552D01*
X913Y5541D01*
X993Y5552D01*
X1067Y5583D01*
X1131Y5632D01*
X1180Y5696D01*
X1211Y5770D01*
X1221Y5850D01*
X1211Y5930D01*
X1180Y6004D01*
X1131Y6068D01*
X1067Y6117D01*
X993Y6148D01*
X913Y6159D01*
D02*
G37*
G36*
X6060Y6110D02*
X5803D01*
X5808Y6072D01*
X5838Y5999D01*
X5886Y5936D01*
X5949Y5888D01*
X6022Y5858D01*
X6060Y5853D01*
Y6110D01*
D02*
G37*
G36*
X1660Y5810D02*
X1356D01*
X1363Y5760D01*
X1398Y5675D01*
X1453Y5603D01*
X1525Y5548D01*
X1610Y5513D01*
X1660Y5506D01*
Y5810D01*
D02*
G37*
G36*
X6140Y5197D02*
Y4940D01*
X6397D01*
X6392Y4978D01*
X6362Y5051D01*
X6314Y5114D01*
X6251Y5162D01*
X6178Y5192D01*
X6140Y5197D01*
D02*
G37*
G36*
X3360Y5197D02*
X3322Y5192D01*
X3249Y5162D01*
X3186Y5114D01*
X3138Y5051D01*
X3108Y4978D01*
X3103Y4940D01*
X3360D01*
Y5197D01*
D02*
G37*
G36*
X3440D02*
Y4940D01*
X3697D01*
X3692Y4978D01*
X3662Y5051D01*
X3614Y5114D01*
X3551Y5162D01*
X3478Y5192D01*
X3440Y5197D01*
D02*
G37*
%LPD*%
D20*
X2487Y5850D02*
X2737Y5600D01*
X12615D01*
X13672Y4544D01*
X5431Y2650D02*
X6181Y3400D01*
X9756D01*
X10900Y4544D01*
D21*
X2487Y5850D02*
D03*
X1700D02*
D03*
X913D02*
D03*
D22*
X5431Y2650D02*
D03*
X3069D02*
D03*
X4250Y800D02*
D03*
D23*
X14150Y1450D02*
D03*
X13150D02*
D03*
D24*
X7750Y2500D02*
D03*
X6750D02*
D03*
Y750D02*
D03*
X7750D02*
D03*
D25*
X8128Y4544D02*
D03*
X13672D02*
D03*
X10900D02*
D03*
D26*
X7538Y9304D02*
D03*
X14262D02*
D03*
D27*
X3400Y4900D02*
D03*
X10700Y1350D02*
D03*
X12350Y850D02*
D03*
X11850D02*
D03*
X846Y6746D02*
D03*
X1700Y4850D02*
D03*
X6100Y4900D02*
D03*
Y6150D02*
D03*
X5000Y6700D02*
D03*
M02*
