%FSLAX24Y24*%
%MOIN*%
G70*
G01*
G75*
G04 Layer_Color=8388736*
%ADD10R,0.0236X0.0512*%
%ADD11R,0.0276X0.0354*%
%ADD12R,0.0217X0.0512*%
%ADD13R,0.0354X0.0315*%
%ADD14R,0.0433X0.1024*%
%ADD15C,0.0300*%
%ADD16C,0.0200*%
%ADD17R,0.0866X0.0866*%
%ADD18C,0.0630*%
%ADD19C,0.0709*%
%ADD20C,0.0492*%
%ADD21C,0.0098*%
%ADD22C,0.0050*%
%ADD23C,0.0100*%
%ADD24C,0.0079*%
%ADD25C,0.0080*%
%ADD26C,0.0060*%
%ADD27R,0.0296X0.0572*%
%ADD28R,0.0336X0.0414*%
%ADD29R,0.0277X0.0572*%
%ADD30R,0.0414X0.0375*%
%ADD31R,0.0493X0.1084*%
%ADD32R,0.0926X0.0926*%
%ADD33C,0.0690*%
%ADD34C,0.0769*%
%ADD35C,0.0060*%
%ADD36C,0.0552*%
D27*
X16224Y11763D02*
D03*
X15476D02*
D03*
X15850Y10937D02*
D03*
D28*
X17105Y11750D02*
D03*
X17695D02*
D03*
X18655Y13500D02*
D03*
X19245D02*
D03*
D29*
X19274Y12792D02*
D03*
X18900D02*
D03*
X18526D02*
D03*
Y11808D02*
D03*
X19274D02*
D03*
D30*
X17450Y14600D02*
D03*
Y14049D02*
D03*
X17450Y15549D02*
D03*
Y16100D02*
D03*
D31*
X15969Y17950D02*
D03*
X17032D02*
D03*
D32*
X14800Y13500D02*
D03*
X13619Y15350D02*
D03*
X15981D02*
D03*
D33*
X14500Y18150D02*
D03*
Y19150D02*
D03*
X18000Y19250D02*
D03*
X19000D02*
D03*
X14500Y11850D02*
D03*
Y10850D02*
D03*
X18000Y10750D02*
D03*
X19000D02*
D03*
X18000Y18000D02*
D03*
X19000D02*
D03*
D34*
X11750Y11850D02*
D03*
Y10850D02*
D03*
Y19150D02*
D03*
Y18150D02*
D03*
D35*
X10750Y11850D02*
D03*
Y10850D02*
D03*
Y19150D02*
D03*
Y18150D02*
D03*
D36*
X18700Y14287D02*
D03*
Y15074D02*
D03*
Y15862D02*
D03*
M02*
