%FSLAX24Y24*%
%MOIN*%
G70*
G01*
G75*
G04 Layer_Physical_Order=1*
G04 Layer_Color=255*
%ADD10R,0.0276X0.0354*%
%ADD11R,0.0512X0.0236*%
%ADD12R,0.0354X0.0276*%
%ADD13R,0.0315X0.0354*%
%ADD14R,0.0217X0.0394*%
%ADD15R,0.0472X0.0551*%
%ADD16R,0.0500X0.0299*%
%ADD17R,0.0217X0.0512*%
%ADD18C,0.0120*%
%ADD19C,0.0140*%
%ADD20C,0.0200*%
%ADD21C,0.0492*%
%ADD22R,0.0866X0.0866*%
%ADD23C,0.0709*%
%ADD24C,0.0630*%
%ADD25C,0.1063*%
%ADD26C,0.0882*%
%ADD27C,0.0400*%
G36*
X14913Y87D02*
X14278D01*
X14268Y136D01*
X14319Y157D01*
X14389Y211D01*
X14443Y281D01*
X14477Y362D01*
X14488Y450D01*
X14477Y538D01*
X14443Y619D01*
X14389Y689D01*
X14319Y743D01*
X14238Y777D01*
X14150Y788D01*
X14062Y777D01*
X13981Y743D01*
X13911Y689D01*
X13857Y619D01*
X13823Y538D01*
X13812Y450D01*
X13823Y362D01*
X13857Y281D01*
X13911Y211D01*
X13981Y157D01*
X14032Y136D01*
X14022Y87D01*
X13278D01*
X13268Y136D01*
X13319Y157D01*
X13389Y211D01*
X13443Y281D01*
X13477Y362D01*
X13488Y450D01*
X13477Y538D01*
X13443Y619D01*
X13389Y689D01*
X13319Y743D01*
X13238Y777D01*
X13150Y788D01*
X13062Y777D01*
X12981Y743D01*
X12911Y689D01*
X12857Y619D01*
X12823Y538D01*
X12812Y450D01*
X12823Y362D01*
X12857Y281D01*
X12911Y211D01*
X12981Y157D01*
X13032Y136D01*
X13022Y87D01*
X87D01*
Y10663D01*
X14913D01*
Y87D01*
D02*
G37*
%LPC*%
G36*
X8128Y5138D02*
X8012Y5127D01*
X7901Y5093D01*
X7798Y5038D01*
X7708Y4964D01*
X7634Y4874D01*
X7579Y4771D01*
X7545Y4660D01*
X7534Y4544D01*
X7545Y4428D01*
X7579Y4316D01*
X7634Y4213D01*
X7708Y4123D01*
X7798Y4050D01*
X7901Y3995D01*
X8012Y3961D01*
X8128Y3949D01*
X8244Y3961D01*
X8356Y3995D01*
X8459Y4050D01*
X8549Y4123D01*
X8623Y4213D01*
X8677Y4316D01*
X8711Y4428D01*
X8723Y4544D01*
X8711Y4660D01*
X8677Y4771D01*
X8623Y4874D01*
X8549Y4964D01*
X8459Y5038D01*
X8356Y5093D01*
X8244Y5127D01*
X8128Y5138D01*
D02*
G37*
G36*
X10900D02*
X10784Y5127D01*
X10673Y5093D01*
X10570Y5038D01*
X10480Y4964D01*
X10406Y4874D01*
X10351Y4771D01*
X10317Y4660D01*
X10306Y4544D01*
X10317Y4428D01*
X10351Y4316D01*
X10406Y4213D01*
X10480Y4123D01*
X10570Y4050D01*
X10673Y3995D01*
X10784Y3961D01*
X10900Y3949D01*
X11016Y3961D01*
X11127Y3995D01*
X11230Y4050D01*
X11320Y4123D01*
X11394Y4213D01*
X11449Y4316D01*
X11483Y4428D01*
X11494Y4544D01*
X11483Y4660D01*
X11449Y4771D01*
X11394Y4874D01*
X11320Y4964D01*
X11230Y5038D01*
X11127Y5093D01*
X11016Y5127D01*
X10900Y5138D01*
D02*
G37*
G36*
X5924Y3143D02*
X4938D01*
Y2157D01*
X5924D01*
Y3143D01*
D02*
G37*
G36*
X9486Y2148D02*
X9318D01*
Y1832D01*
X9486D01*
Y2148D01*
D02*
G37*
G36*
X3562Y3143D02*
X2576D01*
Y2157D01*
X3562D01*
Y3143D01*
D02*
G37*
G36*
X684Y4810D02*
X467D01*
Y4573D01*
X684D01*
Y4810D01*
D02*
G37*
G36*
X5332Y4860D02*
X5114D01*
Y4623D01*
X5332D01*
Y4860D01*
D02*
G37*
G36*
X3400Y5162D02*
X3332Y5153D01*
X3269Y5127D01*
X3215Y5085D01*
X3173Y5031D01*
X3147Y4968D01*
X3138Y4900D01*
X3147Y4832D01*
X3173Y4769D01*
X3215Y4715D01*
X3269Y4673D01*
X3332Y4647D01*
X3400Y4638D01*
X3468Y4647D01*
X3531Y4673D01*
X3585Y4715D01*
X3627Y4769D01*
X3631Y4778D01*
X3707D01*
Y4663D01*
X4103D01*
Y5137D01*
X3707D01*
Y5022D01*
X3631D01*
X3627Y5031D01*
X3585Y5085D01*
X3531Y5127D01*
X3468Y5153D01*
X3400Y5162D01*
D02*
G37*
G36*
X5034Y4860D02*
X4817D01*
Y4623D01*
X5034D01*
Y4860D01*
D02*
G37*
G36*
X982Y4810D02*
X764D01*
Y4573D01*
X982D01*
Y4810D01*
D02*
G37*
G36*
X2487Y6159D02*
X2407Y6148D01*
X2333Y6117D01*
X2269Y6068D01*
X2220Y6004D01*
X2189Y5930D01*
X2179Y5850D01*
X2189Y5770D01*
X2220Y5696D01*
X2269Y5632D01*
X2333Y5583D01*
X2407Y5552D01*
X2487Y5541D01*
X2505Y5544D01*
X2543Y5511D01*
Y5087D01*
X2458D01*
Y4613D01*
X2893D01*
Y5087D01*
X2808D01*
Y5662D01*
X2798Y5713D01*
X2776Y5746D01*
X2786Y5770D01*
X2796Y5850D01*
X2786Y5930D01*
X2755Y6004D01*
X2706Y6068D01*
X2642Y6117D01*
X2567Y6148D01*
X2487Y6159D01*
D02*
G37*
G36*
X13672Y5138D02*
X13556Y5127D01*
X13444Y5093D01*
X13341Y5038D01*
X13251Y4964D01*
X13177Y4874D01*
X13123Y4771D01*
X13089Y4660D01*
X13077Y4544D01*
X13089Y4428D01*
X13123Y4316D01*
X13177Y4213D01*
X13251Y4123D01*
X13341Y4050D01*
X13444Y3995D01*
X13556Y3961D01*
X13672Y3949D01*
X13788Y3961D01*
X13899Y3995D01*
X13944Y4019D01*
X13987Y3993D01*
Y1831D01*
X13941Y1812D01*
X13855Y1745D01*
X13788Y1659D01*
X13746Y1558D01*
X13732Y1450D01*
X13746Y1342D01*
X13788Y1241D01*
X13855Y1155D01*
X13941Y1088D01*
X14042Y1046D01*
X14150Y1032D01*
X14258Y1046D01*
X14359Y1088D01*
X14446Y1155D01*
X14512Y1241D01*
X14554Y1342D01*
X14568Y1450D01*
X14554Y1558D01*
X14512Y1659D01*
X14446Y1745D01*
X14359Y1812D01*
X14313Y1831D01*
Y4065D01*
X14301Y4128D01*
X14265Y4181D01*
X14189Y4257D01*
X14221Y4316D01*
X14255Y4428D01*
X14266Y4544D01*
X14255Y4660D01*
X14221Y4771D01*
X14166Y4874D01*
X14092Y4964D01*
X14002Y5038D01*
X13899Y5093D01*
X13788Y5127D01*
X13672Y5138D01*
D02*
G37*
G36*
X8760Y1605D02*
X8523D01*
Y1407D01*
X8760D01*
Y1605D01*
D02*
G37*
G36*
X7750Y1128D02*
X7652Y1115D01*
X7561Y1078D01*
X7483Y1017D01*
X7422Y939D01*
X7385Y848D01*
X7372Y750D01*
X7385Y652D01*
X7422Y561D01*
X7483Y483D01*
X7561Y422D01*
X7652Y385D01*
X7750Y372D01*
X7848Y385D01*
X7939Y422D01*
X8017Y483D01*
X8078Y561D01*
X8115Y652D01*
X8128Y750D01*
X8115Y848D01*
X8078Y939D01*
X8017Y1017D01*
X7939Y1078D01*
X7848Y1115D01*
X7750Y1128D01*
D02*
G37*
G36*
X4743Y1293D02*
X3757D01*
Y307D01*
X4743D01*
Y1293D01*
D02*
G37*
G36*
X6750Y1128D02*
X6652Y1115D01*
X6561Y1078D01*
X6483Y1017D01*
X6422Y939D01*
X6385Y848D01*
X6372Y750D01*
X6385Y652D01*
X6422Y561D01*
X6483Y483D01*
X6561Y422D01*
X6652Y385D01*
X6750Y372D01*
X6848Y385D01*
X6939Y422D01*
X7017Y483D01*
X7078Y561D01*
X7115Y652D01*
X7128Y750D01*
X7115Y848D01*
X7078Y939D01*
X7017Y1017D01*
X6939Y1078D01*
X6848Y1115D01*
X6750Y1128D01*
D02*
G37*
G36*
X9077Y1605D02*
X8840D01*
Y1407D01*
X9077D01*
Y1605D01*
D02*
G37*
G36*
X8760Y1883D02*
X8523D01*
Y1685D01*
X8760D01*
Y1883D01*
D02*
G37*
G36*
X9077D02*
X8840D01*
Y1685D01*
X9077D01*
Y1883D01*
D02*
G37*
G36*
X11293Y2937D02*
X10897D01*
Y2463D01*
X10973D01*
Y1902D01*
X10871D01*
Y1606D01*
X10829Y1578D01*
X10768Y1603D01*
X10700Y1612D01*
X10632Y1603D01*
X10569Y1577D01*
X10515Y1535D01*
X10490Y1503D01*
X10458Y1514D01*
Y1514D01*
X10442Y1519D01*
Y2108D01*
X10396D01*
Y2419D01*
X10441Y2463D01*
X10703D01*
Y2937D01*
X10307D01*
Y2675D01*
X10187Y2556D01*
X10161Y2516D01*
X10152Y2469D01*
Y2108D01*
X10106D01*
Y1476D01*
X10426D01*
D01*
X10427Y1474D01*
X10427D01*
X10454Y1435D01*
X10447Y1418D01*
X10438Y1350D01*
X10447Y1282D01*
X10450Y1273D01*
X10301Y1124D01*
X10106D01*
D01*
D01*
X10106Y1124D01*
X10068D01*
D01*
X10022Y1124D01*
Y2400D01*
X10013Y2447D01*
X9987Y2487D01*
X9887Y2587D01*
X9847Y2613D01*
X9800Y2622D01*
X8105D01*
X8078Y2689D01*
X8017Y2767D01*
X7939Y2828D01*
X7848Y2865D01*
X7750Y2878D01*
X7652Y2865D01*
X7561Y2828D01*
X7483Y2767D01*
X7422Y2689D01*
X7385Y2598D01*
X7372Y2500D01*
X7385Y2402D01*
X7422Y2311D01*
X7483Y2233D01*
X7561Y2172D01*
X7652Y2135D01*
X7750Y2122D01*
X7848Y2135D01*
X7939Y2172D01*
X8017Y2233D01*
X8078Y2311D01*
X8105Y2378D01*
X9749D01*
X9778Y2349D01*
Y2148D01*
X9734D01*
Y2148D01*
X9566D01*
Y1792D01*
Y1436D01*
X9734D01*
Y1436D01*
X9742D01*
X9778Y1401D01*
Y1124D01*
X9732Y1124D01*
D01*
X9694D01*
Y1124D01*
X9358D01*
Y930D01*
X9098D01*
X9037Y991D01*
Y1253D01*
X8563D01*
Y857D01*
X8825D01*
X8960Y721D01*
X9000Y695D01*
X9047Y686D01*
X9358D01*
Y492D01*
X9694D01*
Y492D01*
X9694D01*
X9694Y492D01*
X9732D01*
Y492D01*
X10068D01*
Y492D01*
X10068D01*
X10068Y492D01*
X10106D01*
Y492D01*
X10442D01*
Y919D01*
X10623Y1100D01*
X10632Y1097D01*
X10700Y1088D01*
X10768Y1097D01*
X10829Y1122D01*
X10871Y1094D01*
Y798D01*
X11503D01*
Y854D01*
X11585D01*
X11588Y850D01*
X11597Y782D01*
X11623Y719D01*
X11665Y665D01*
X11719Y623D01*
X11782Y597D01*
X11850Y588D01*
X11918Y597D01*
X11981Y623D01*
X12035Y665D01*
X12075Y716D01*
X12125D01*
X12165Y665D01*
X12219Y623D01*
X12282Y597D01*
X12350Y588D01*
X12418Y597D01*
X12481Y623D01*
X12535Y665D01*
X12577Y719D01*
X12603Y782D01*
X12612Y850D01*
X12603Y918D01*
X12577Y981D01*
X12535Y1035D01*
X12481Y1077D01*
X12418Y1103D01*
X12350Y1112D01*
X12282Y1103D01*
X12219Y1077D01*
X12165Y1035D01*
X12125Y984D01*
X12075D01*
X12035Y1035D01*
X11981Y1077D01*
X11918Y1103D01*
X11850Y1112D01*
X11782Y1103D01*
X11753Y1091D01*
X11726Y1096D01*
X11686D01*
X11676Y1098D01*
X11503D01*
Y1154D01*
X10934D01*
X10912Y1199D01*
X10927Y1219D01*
X10953Y1282D01*
X10962Y1350D01*
X10953Y1418D01*
X10927Y1481D01*
X10912Y1501D01*
X10934Y1546D01*
X11503D01*
Y1902D01*
X11218D01*
Y2463D01*
X11293D01*
Y2937D01*
D02*
G37*
G36*
X9486Y1752D02*
X9318D01*
Y1436D01*
X9486D01*
Y1752D01*
D02*
G37*
G36*
X13150Y1868D02*
X13042Y1854D01*
X12941Y1812D01*
X12854Y1745D01*
X12788Y1659D01*
X12746Y1558D01*
X12735Y1472D01*
X12329D01*
Y1528D01*
X11697D01*
Y1172D01*
X12329D01*
Y1228D01*
X12798D01*
X12854Y1155D01*
X12941Y1088D01*
X13042Y1046D01*
X13150Y1032D01*
X13258Y1046D01*
X13359Y1088D01*
X13446Y1155D01*
X13512Y1241D01*
X13554Y1342D01*
X13568Y1450D01*
X13554Y1558D01*
X13512Y1659D01*
X13446Y1745D01*
X13359Y1812D01*
X13258Y1854D01*
X13150Y1868D01*
D02*
G37*
G36*
X684Y5127D02*
X467D01*
Y4890D01*
X684D01*
Y5127D01*
D02*
G37*
G36*
X7027Y6843D02*
X6790D01*
Y6645D01*
X7027D01*
Y6843D01*
D02*
G37*
G36*
X2960Y8210D02*
X2340D01*
Y7877D01*
X1995Y7533D01*
X1851D01*
Y7736D01*
X1258D01*
Y7064D01*
X1851D01*
Y7267D01*
X2050D01*
X2101Y7278D01*
X2144Y7306D01*
X2628Y7790D01*
X2960D01*
Y8210D01*
D02*
G37*
G36*
X6710Y6843D02*
X6473D01*
Y6645D01*
X6710D01*
Y6843D01*
D02*
G37*
G36*
X7027Y6565D02*
X6790D01*
Y6367D01*
X7027D01*
Y6565D01*
D02*
G37*
G36*
X1142Y10436D02*
X549D01*
Y9764D01*
X683D01*
Y9536D01*
X549D01*
Y8864D01*
X683D01*
Y8636D01*
X549D01*
Y7964D01*
X683D01*
Y7736D01*
X549D01*
Y7064D01*
X683D01*
Y6948D01*
X660Y6931D01*
X619Y6877D01*
X592Y6814D01*
X583Y6746D01*
X592Y6678D01*
X619Y6615D01*
X660Y6560D01*
X715Y6519D01*
X778Y6492D01*
X846Y6483D01*
X914Y6492D01*
X977Y6519D01*
X1031Y6560D01*
X1073Y6615D01*
X1099Y6678D01*
X1108Y6746D01*
X1099Y6814D01*
X1073Y6877D01*
X1031Y6931D01*
X1009Y6948D01*
Y7064D01*
X1142D01*
Y7736D01*
X1009D01*
Y7964D01*
X1142D01*
Y8636D01*
X1009D01*
Y8864D01*
X1142D01*
Y9536D01*
X1009D01*
Y9764D01*
X1142D01*
Y10436D01*
D02*
G37*
G36*
X5960Y9710D02*
X5340D01*
Y9290D01*
X5517D01*
Y9210D01*
X5340D01*
Y8790D01*
X5517D01*
Y8710D01*
X5340D01*
Y8290D01*
X5517D01*
Y8210D01*
X5340D01*
Y8133D01*
X4850D01*
X4799Y8122D01*
X4756Y8094D01*
X4532Y7870D01*
X4504Y7827D01*
X4493Y7776D01*
Y7429D01*
X4458D01*
Y6916D01*
X4781D01*
X4803Y6871D01*
X4773Y6831D01*
X4747Y6768D01*
X4738Y6700D01*
X4747Y6632D01*
X4773Y6569D01*
X4798Y6537D01*
X4792Y6524D01*
X4792D01*
X4792Y6524D01*
Y6506D01*
X4781Y6484D01*
X4458D01*
Y5971D01*
X4493D01*
Y5737D01*
X4307D01*
Y5263D01*
X4363D01*
Y5137D01*
X4297D01*
Y4663D01*
X4693D01*
Y5137D01*
X4628D01*
Y5263D01*
X4703D01*
Y5510D01*
X4720Y5528D01*
X4748Y5571D01*
X4759Y5621D01*
Y5931D01*
X4792D01*
Y5931D01*
X4960D01*
Y6228D01*
X5040D01*
Y5931D01*
X5208D01*
Y5971D01*
X5443D01*
X6236Y5178D01*
X6208Y5137D01*
X6168Y5153D01*
X6100Y5162D01*
X6032Y5153D01*
X5969Y5127D01*
X5915Y5085D01*
X5890Y5054D01*
X5843Y5070D01*
Y5137D01*
X5408D01*
Y4663D01*
X5843D01*
Y4730D01*
X5890Y4746D01*
X5915Y4715D01*
X5969Y4673D01*
X6032Y4647D01*
X6100Y4638D01*
X6168Y4647D01*
X6231Y4673D01*
X6285Y4715D01*
X6327Y4769D01*
X6353Y4832D01*
X6362Y4900D01*
X6353Y4968D01*
X6337Y5008D01*
X6378Y5036D01*
X6506Y4908D01*
X6549Y4879D01*
X6549Y4879D01*
X6628Y4801D01*
Y2855D01*
X6561Y2828D01*
X6483Y2767D01*
X6422Y2689D01*
X6385Y2598D01*
X6372Y2500D01*
X6385Y2402D01*
X6422Y2311D01*
X6483Y2233D01*
X6561Y2172D01*
X6652Y2135D01*
X6750Y2122D01*
X6848Y2135D01*
X6939Y2172D01*
X7017Y2233D01*
X7078Y2311D01*
X7115Y2402D01*
X7128Y2500D01*
X7115Y2598D01*
X7078Y2689D01*
X7017Y2767D01*
X6939Y2828D01*
X6872Y2855D01*
Y4852D01*
X6863Y4898D01*
X6837Y4938D01*
X6722Y5052D01*
X6722Y5052D01*
X6694Y5095D01*
X5542Y6247D01*
Y6484D01*
X5219D01*
X5208Y6506D01*
Y6524D01*
X5208Y6524D01*
X5208D01*
X5202Y6537D01*
X5227Y6569D01*
X5253Y6632D01*
X5262Y6700D01*
X5253Y6768D01*
X5227Y6831D01*
X5197Y6871D01*
X5219Y6916D01*
X5542D01*
Y7040D01*
X5863D01*
Y6997D01*
X6337D01*
Y7040D01*
X6513D01*
Y6997D01*
X6987D01*
Y7393D01*
X6513D01*
Y7305D01*
X6337D01*
Y7393D01*
X5863D01*
Y7305D01*
X5542D01*
Y7429D01*
X5206D01*
D01*
D01*
X5206Y7429D01*
X5168D01*
Y7429D01*
X4832D01*
D01*
D01*
X4832Y7429D01*
X4794D01*
D01*
X4759Y7429D01*
Y7721D01*
X4905Y7867D01*
X5340D01*
Y7790D01*
X5960D01*
Y8210D01*
X5783D01*
Y8290D01*
X5960D01*
Y8710D01*
X5783D01*
Y8790D01*
X5960D01*
Y9210D01*
X5783D01*
Y9290D01*
X5960D01*
Y9710D01*
D02*
G37*
G36*
X14262Y9809D02*
X14131Y9792D01*
X14010Y9741D01*
X13905Y9661D01*
X13825Y9556D01*
X13774Y9434D01*
X13757Y9304D01*
X13774Y9173D01*
X13825Y9051D01*
X13905Y8946D01*
X14010Y8866D01*
X14131Y8815D01*
X14262Y8798D01*
X14393Y8815D01*
X14515Y8866D01*
X14619Y8946D01*
X14700Y9051D01*
X14750Y9173D01*
X14767Y9304D01*
X14750Y9434D01*
X14700Y9556D01*
X14619Y9661D01*
X14515Y9741D01*
X14393Y9792D01*
X14262Y9809D01*
D02*
G37*
G36*
X1851Y10436D02*
X1258D01*
Y9764D01*
X1851D01*
Y9967D01*
X1995D01*
X2340Y9623D01*
Y9290D01*
X2960D01*
Y9710D01*
X2628D01*
X2144Y10194D01*
X2101Y10222D01*
X2050Y10233D01*
X1851D01*
Y10436D01*
D02*
G37*
G36*
X7538Y9809D02*
X7407Y9792D01*
X7285Y9741D01*
X7181Y9661D01*
X7100Y9556D01*
X7050Y9434D01*
X7033Y9304D01*
X7050Y9173D01*
X7100Y9051D01*
X7181Y8946D01*
X7285Y8866D01*
X7407Y8815D01*
X7538Y8798D01*
X7669Y8815D01*
X7790Y8866D01*
X7895Y8946D01*
X7975Y9051D01*
X8026Y9173D01*
X8043Y9304D01*
X8026Y9434D01*
X7975Y9556D01*
X7895Y9661D01*
X7790Y9741D01*
X7669Y9792D01*
X7538Y9809D01*
D02*
G37*
G36*
X2960Y8710D02*
X2340D01*
Y8633D01*
X1851D01*
Y8636D01*
X1258D01*
Y7964D01*
X1851D01*
Y8367D01*
X2340D01*
Y8290D01*
X2960D01*
Y8710D01*
D02*
G37*
G36*
X1851Y9536D02*
X1258D01*
Y8864D01*
X1851D01*
Y8867D01*
X2340D01*
Y8790D01*
X2960D01*
Y9210D01*
X2340D01*
Y9133D01*
X1851D01*
Y9536D01*
D02*
G37*
G36*
X6710Y6565D02*
X6473D01*
Y6367D01*
X6710D01*
Y6565D01*
D02*
G37*
G36*
X873Y5810D02*
X569D01*
X575Y5760D01*
X610Y5675D01*
X666Y5603D01*
X738Y5548D01*
X822Y5513D01*
X873Y5506D01*
Y5810D01*
D02*
G37*
G36*
X1256D02*
X953D01*
Y5506D01*
X1003Y5513D01*
X1087Y5548D01*
X1159Y5603D01*
X1215Y5675D01*
X1250Y5760D01*
X1256Y5810D01*
D02*
G37*
G36*
X1700Y5112D02*
X1632Y5103D01*
X1569Y5077D01*
X1538Y5053D01*
X1493Y5075D01*
Y5087D01*
X1058D01*
Y4613D01*
X1493D01*
Y4625D01*
X1538Y4647D01*
X1569Y4623D01*
X1632Y4597D01*
X1700Y4588D01*
X1768Y4597D01*
X1831Y4623D01*
X1862Y4647D01*
X1907Y4625D01*
Y4613D01*
X2342D01*
Y5087D01*
X1907D01*
Y5075D01*
X1862Y5053D01*
X1831Y5077D01*
X1768Y5103D01*
X1700Y5112D01*
D02*
G37*
G36*
X982Y5127D02*
X764D01*
Y4890D01*
X982D01*
Y5127D01*
D02*
G37*
G36*
X5333Y5460D02*
X4857D01*
Y5223D01*
X4857D01*
Y5213D01*
X4822Y5177D01*
X4817D01*
Y4940D01*
X5332D01*
Y5177D01*
X5332D01*
Y5222D01*
X5333Y5223D01*
X5333D01*
Y5460D01*
D02*
G37*
G36*
X5055Y5777D02*
X4857D01*
Y5540D01*
X5055D01*
Y5777D01*
D02*
G37*
G36*
X873Y6194D02*
X822Y6187D01*
X738Y6152D01*
X666Y6097D01*
X610Y6025D01*
X575Y5940D01*
X569Y5890D01*
X873D01*
Y6194D01*
D02*
G37*
G36*
X953D02*
Y5890D01*
X1256D01*
X1250Y5940D01*
X1215Y6025D01*
X1159Y6097D01*
X1087Y6152D01*
X1003Y6187D01*
X953Y6194D01*
D02*
G37*
G36*
X6337Y6803D02*
X5863D01*
Y6407D01*
X5930D01*
X5946Y6360D01*
X5915Y6335D01*
X5873Y6281D01*
X5847Y6218D01*
X5838Y6150D01*
X5847Y6082D01*
X5873Y6019D01*
X5915Y5965D01*
X5969Y5923D01*
X6032Y5897D01*
X6100Y5888D01*
X6168Y5897D01*
X6231Y5923D01*
X6285Y5965D01*
X6327Y6019D01*
X6353Y6082D01*
X6362Y6150D01*
X6353Y6218D01*
X6327Y6281D01*
X6285Y6335D01*
X6254Y6360D01*
X6270Y6407D01*
X6337D01*
Y6803D01*
D02*
G37*
G36*
X5333Y5777D02*
X5135D01*
Y5540D01*
X5333D01*
Y5777D01*
D02*
G37*
G36*
X1700Y6159D02*
X1620Y6148D01*
X1546Y6117D01*
X1482Y6068D01*
X1433Y6004D01*
X1402Y5930D01*
X1391Y5850D01*
X1402Y5770D01*
X1433Y5696D01*
X1482Y5632D01*
X1546Y5583D01*
X1620Y5552D01*
X1700Y5541D01*
X1780Y5552D01*
X1854Y5583D01*
X1918Y5632D01*
X1967Y5696D01*
X1998Y5770D01*
X2009Y5850D01*
X1998Y5930D01*
X1967Y6004D01*
X1918Y6068D01*
X1854Y6117D01*
X1780Y6148D01*
X1700Y6159D01*
D02*
G37*
%LPD*%
D10*
X10505Y2700D02*
D03*
X11095D02*
D03*
X5095Y5500D02*
D03*
X4505D02*
D03*
X4495Y4900D02*
D03*
X3905D02*
D03*
D11*
X12013Y1350D02*
D03*
X11187Y976D02*
D03*
Y1724D02*
D03*
D12*
X8800Y1645D02*
D03*
Y1055D02*
D03*
X6750Y7195D02*
D03*
Y6605D02*
D03*
X6100Y6605D02*
D03*
Y7195D02*
D03*
D13*
X5074Y4900D02*
D03*
X5626D02*
D03*
X2676Y4850D02*
D03*
X2124D02*
D03*
X724Y4850D02*
D03*
X1276D02*
D03*
D14*
X5374Y7172D02*
D03*
X5000D02*
D03*
X4626D02*
D03*
Y6228D02*
D03*
X5000D02*
D03*
X5374D02*
D03*
D15*
X1554Y7400D02*
D03*
X846D02*
D03*
X1554Y8300D02*
D03*
X846D02*
D03*
X1554Y9200D02*
D03*
X846D02*
D03*
X1554Y10100D02*
D03*
X846D02*
D03*
D16*
X2650Y8000D02*
D03*
Y8500D02*
D03*
Y9000D02*
D03*
Y9500D02*
D03*
X5650D02*
D03*
Y9000D02*
D03*
Y8500D02*
D03*
Y8000D02*
D03*
D17*
X9526Y1792D02*
D03*
X10274D02*
D03*
Y808D02*
D03*
X9900D02*
D03*
X9526D02*
D03*
D18*
X3400Y4900D02*
X3905D01*
X7750Y2500D02*
X9800D01*
X9900Y2400D01*
Y808D02*
Y2400D01*
X10274Y924D02*
X10700Y1350D01*
X10274Y808D02*
Y924D01*
X6600Y5002D02*
X6750Y4852D01*
Y2500D02*
Y4852D01*
X11187Y976D02*
X11676D01*
X11850Y850D02*
X12350D01*
X11726Y974D02*
X11850Y850D01*
X11676Y974D02*
X11726D01*
X11676D02*
Y976D01*
X13050Y1350D02*
X13150Y1450D01*
X12013Y1350D02*
X13050D01*
X11095Y1815D02*
X11187Y1724D01*
X11095Y1815D02*
Y2700D01*
X10274Y2469D02*
X10505Y2700D01*
X10274Y1792D02*
Y2469D01*
X9047Y808D02*
X9526D01*
X8800Y1055D02*
X9047Y808D01*
D19*
X5374Y6228D02*
X6600Y5002D01*
X1700Y4850D02*
X2124D01*
X1700Y4850D02*
X1700Y4850D01*
X1276Y4850D02*
X1700D01*
X2676Y4850D02*
Y5662D01*
X2487Y5850D02*
X2676Y5662D01*
X5626Y4900D02*
X6100D01*
X4505Y5500D02*
X4626Y5621D01*
X4495Y5491D02*
X4505Y5500D01*
X4626Y5621D02*
Y6228D01*
X4495Y4900D02*
Y5491D01*
X6100Y6150D02*
Y6605D01*
X5374Y7172D02*
X6727D01*
X5000Y6700D02*
Y7172D01*
X5650Y9000D02*
Y9500D01*
Y8500D02*
Y9000D01*
Y8000D02*
Y8500D01*
X4626Y7172D02*
Y7776D01*
X4850Y8000D01*
X5650D01*
X1554Y7400D02*
X2050D01*
X2650Y8000D01*
X1554Y8300D02*
X1754Y8500D01*
X2650D01*
X1554Y9200D02*
X1754Y9000D01*
X2650D01*
X1554Y10100D02*
X2050D01*
X2650Y9500D01*
D20*
X846Y6746D02*
Y7400D01*
Y8300D01*
Y9200D01*
Y10100D01*
X13672Y4544D02*
X14150Y4065D01*
Y1450D02*
Y4065D01*
D21*
X2487Y5850D02*
D03*
X1700D02*
D03*
X913D02*
D03*
D22*
X5431Y2650D02*
D03*
X3069D02*
D03*
X4250Y800D02*
D03*
D23*
X14150Y1450D02*
D03*
X13150D02*
D03*
D24*
X7750Y2500D02*
D03*
X6750D02*
D03*
Y750D02*
D03*
X7750D02*
D03*
D25*
X8128Y4544D02*
D03*
X13672D02*
D03*
X10900D02*
D03*
D26*
X7538Y9304D02*
D03*
X14262D02*
D03*
D27*
X3400Y4900D02*
D03*
X10700Y1350D02*
D03*
X12350Y850D02*
D03*
X11850D02*
D03*
X846Y6746D02*
D03*
X1700Y4850D02*
D03*
X6100Y4900D02*
D03*
Y6150D02*
D03*
X5000Y6700D02*
D03*
M02*
