%FSLAX24Y24*%
%MOIN*%
G70*
G01*
G75*
G04 Layer_Color=32896*
%ADD10R,0.0236X0.0512*%
%ADD11R,0.0276X0.0354*%
%ADD12R,0.0217X0.0512*%
%ADD13R,0.0354X0.0315*%
%ADD14R,0.0433X0.1024*%
%ADD15C,0.0300*%
%ADD16C,0.0200*%
%ADD17R,0.0866X0.0866*%
%ADD18C,0.0630*%
%ADD19C,0.0709*%
%ADD20C,0.0492*%
%ADD21C,0.0098*%
%ADD22C,0.0050*%
%ADD23C,0.0100*%
%ADD24C,0.0079*%
%ADD25C,0.0080*%
%ADD26C,0.0060*%
%ADD27R,0.0296X0.0572*%
%ADD28R,0.0336X0.0414*%
%ADD29R,0.0277X0.0572*%
%ADD30R,0.0414X0.0375*%
%ADD31R,0.0493X0.1084*%
%ADD32R,0.0926X0.0926*%
%ADD33C,0.0690*%
%ADD34C,0.0769*%
%ADD35C,0.0060*%
%ADD36C,0.0552*%
G36*
X12860Y15718D02*
X12710D01*
Y15100D01*
X12860D01*
Y14690D01*
X12092D01*
Y15100D01*
X12248D01*
Y15471D01*
X11868Y14937D01*
X11842D01*
X11455Y15471D01*
Y15100D01*
X11611D01*
Y14690D01*
X10844D01*
Y15100D01*
X11000D01*
Y15718D01*
X10844D01*
Y16127D01*
X11452D01*
X11842Y15588D01*
X11861D01*
X12252Y16127D01*
X12860D01*
Y15718D01*
D02*
G37*
D25*
X14200Y14450D02*
Y14050D01*
Y14183D01*
X13933Y14450D01*
X14133Y14250D01*
X13933Y14050D01*
X13800Y14317D02*
Y14117D01*
X13733Y14050D01*
X13534D01*
Y14317D01*
X13334Y14050D02*
X13200D01*
X13134Y14117D01*
Y14250D01*
X13200Y14317D01*
X13334D01*
X13400Y14250D01*
Y14117D01*
X13334Y14050D01*
X12601Y14383D02*
X12534Y14450D01*
X12401D01*
X12334Y14383D01*
Y14117D01*
X12401Y14050D01*
X12534D01*
X12601Y14117D01*
Y14383D01*
X11934Y14450D02*
X12201D01*
Y14250D01*
X12067Y14317D01*
X12001D01*
X11934Y14250D01*
Y14117D01*
X12001Y14050D01*
X12134D01*
X12201Y14117D01*
X11801Y14050D02*
X11534Y14317D01*
X11401Y14050D02*
X11268D01*
X11334D01*
Y14450D01*
X11401Y14383D01*
X10868Y14050D02*
Y14450D01*
X11068Y14250D01*
X10801D01*
M02*
