%FSLAX24Y24*%
%MOIN*%
G70*
G01*
G75*
G04 Layer_Color=65535*
%ADD10R,0.0276X0.0354*%
%ADD11R,0.0512X0.0236*%
%ADD12R,0.0354X0.0276*%
%ADD13R,0.0315X0.0354*%
%ADD14R,0.0217X0.0394*%
%ADD15R,0.0472X0.0551*%
%ADD16R,0.0500X0.0299*%
%ADD17R,0.0217X0.0512*%
%ADD18C,0.0120*%
%ADD19C,0.0140*%
%ADD20C,0.0200*%
%ADD21C,0.0492*%
%ADD22R,0.0866X0.0866*%
%ADD23C,0.0709*%
%ADD24C,0.0630*%
%ADD25C,0.1063*%
%ADD26C,0.0882*%
%ADD27C,0.0400*%
%ADD28C,0.0098*%
%ADD29C,0.0050*%
%ADD30C,0.0079*%
%ADD31C,0.0100*%
%ADD32C,0.0080*%
D28*
X11236Y2059D02*
G03*
X11236Y2059I-49J0D01*
G01*
X5748Y7172D02*
G03*
X5748Y7172I-49J0D01*
G01*
X9300Y887D02*
G03*
X9300Y887I-49J0D01*
G01*
D29*
X2881Y5221D02*
G03*
X519Y5220I-1181J314D01*
G01*
Y5220D02*
X2881D01*
X12559Y230D02*
Y2670D01*
X14741Y230D02*
Y2670D01*
X12559D02*
X14741D01*
X12559Y230D02*
X14741D01*
X6250Y2000D02*
Y3000D01*
X8250Y2000D02*
Y3000D01*
X6250D02*
X8250D01*
X6250Y2000D02*
X8250D01*
Y250D02*
Y1250D01*
X6250Y250D02*
Y1250D01*
Y250D02*
X8250D01*
X6250Y1250D02*
X8250D01*
X11550Y2700D02*
Y3000D01*
X11700D01*
X11750Y2950D01*
Y2850D01*
X11700Y2800D01*
X11550D01*
X11650D02*
X11750Y2700D01*
X11850Y2950D02*
X11900Y3000D01*
X12000D01*
X12050Y2950D01*
Y2900D01*
X12000Y2850D01*
X11950D01*
X12000D01*
X12050Y2800D01*
Y2750D01*
X12000Y2700D01*
X11900D01*
X11850Y2750D01*
X11750Y2250D02*
Y2450D01*
X11700Y2500D01*
X11600D01*
X11550Y2450D01*
Y2250D01*
X11600Y2200D01*
X11700D01*
X11650Y2300D02*
X11750Y2200D01*
X11700D02*
X11750Y2250D01*
X11850Y2200D02*
X11950D01*
X11900D01*
Y2500D01*
X11850Y2450D01*
X8900Y2050D02*
X8600D01*
Y2200D01*
X8650Y2250D01*
X8750D01*
X8800Y2200D01*
Y2050D01*
Y2150D02*
X8900Y2250D01*
Y2350D02*
Y2450D01*
Y2400D01*
X8600D01*
X8650Y2350D01*
X3700Y5800D02*
Y6100D01*
X3850D01*
X3900Y6050D01*
Y5950D01*
X3850Y5900D01*
X3700D01*
X3800D02*
X3900Y5800D01*
X4200Y6100D02*
X4000D01*
Y5950D01*
X4100Y6000D01*
X4150D01*
X4200Y5950D01*
Y5850D01*
X4150Y5800D01*
X4050D01*
X4000Y5850D01*
X5650Y5500D02*
X5600Y5550D01*
X5500D01*
X5450Y5500D01*
Y5300D01*
X5500Y5250D01*
X5600D01*
X5650Y5300D01*
X5950Y5550D02*
X5750D01*
Y5400D01*
X5850Y5450D01*
X5900D01*
X5950Y5400D01*
Y5300D01*
X5900Y5250D01*
X5800D01*
X5750Y5300D01*
X3550Y5300D02*
Y5600D01*
X3700D01*
X3750Y5550D01*
Y5450D01*
X3700Y5400D01*
X3550D01*
X3650D02*
X3750Y5300D01*
X4050Y5600D02*
X3950Y5550D01*
X3850Y5450D01*
Y5350D01*
X3900Y5300D01*
X4000D01*
X4050Y5350D01*
Y5400D01*
X4000Y5450D01*
X3850D01*
X6950Y7600D02*
X6650D01*
Y7750D01*
X6700Y7800D01*
X6800D01*
X6850Y7750D01*
Y7600D01*
Y7700D02*
X6950Y7800D01*
Y8100D02*
Y7900D01*
X6750Y8100D01*
X6700D01*
X6650Y8050D01*
Y7950D01*
X6700Y7900D01*
X6400Y7600D02*
X6100D01*
Y7750D01*
X6150Y7800D01*
X6250D01*
X6300Y7750D01*
Y7600D01*
Y7700D02*
X6400Y7800D01*
Y8050D02*
X6100D01*
X6250Y7900D01*
Y8100D01*
X4626Y8000D02*
Y7750D01*
X4676Y7700D01*
X4776D01*
X4826Y7750D01*
Y8000D01*
X4926Y7950D02*
X4976Y8000D01*
X5076D01*
X5126Y7950D01*
Y7900D01*
X5076Y7850D01*
X5026D01*
X5076D01*
X5126Y7800D01*
Y7750D01*
X5076Y7700D01*
X4976D01*
X4926Y7750D01*
X3150Y7300D02*
Y7600D01*
X3300D01*
X3350Y7550D01*
Y7450D01*
X3300Y7400D01*
X3150D01*
X3250D02*
X3350Y7300D01*
X3450Y7600D02*
X3650D01*
Y7550D01*
X3450Y7350D01*
Y7300D01*
X3150Y8150D02*
Y8450D01*
X3300D01*
X3350Y8400D01*
Y8300D01*
X3300Y8250D01*
X3150D01*
X3250D02*
X3350Y8150D01*
X3450Y8400D02*
X3500Y8450D01*
X3600D01*
X3650Y8400D01*
Y8350D01*
X3600Y8300D01*
X3650Y8250D01*
Y8200D01*
X3600Y8150D01*
X3500D01*
X3450Y8200D01*
Y8250D01*
X3500Y8300D01*
X3450Y8350D01*
Y8400D01*
X3500Y8300D02*
X3600D01*
X3150Y9050D02*
Y9350D01*
X3300D01*
X3350Y9300D01*
Y9200D01*
X3300Y9150D01*
X3150D01*
X3250D02*
X3350Y9050D01*
X3450Y9100D02*
X3500Y9050D01*
X3600D01*
X3650Y9100D01*
Y9300D01*
X3600Y9350D01*
X3500D01*
X3450Y9300D01*
Y9250D01*
X3500Y9200D01*
X3650D01*
X2400Y4100D02*
X2350Y4150D01*
X2250D01*
X2200Y4100D01*
Y3900D01*
X2250Y3850D01*
X2350D01*
X2400Y3900D01*
X2500Y3850D02*
X2600D01*
X2550D01*
Y4150D01*
X2500Y4100D01*
X950D02*
X900Y4150D01*
X800D01*
X750Y4100D01*
Y3900D01*
X800Y3850D01*
X900D01*
X950Y3900D01*
X1250Y3850D02*
X1050D01*
X1250Y4050D01*
Y4100D01*
X1200Y4150D01*
X1100D01*
X1050Y4100D01*
X2950Y6700D02*
Y6450D01*
X3000Y6400D01*
X3100D01*
X3150Y6450D01*
Y6700D01*
X3250Y6400D02*
X3350D01*
X3300D01*
Y6700D01*
X3250Y6650D01*
X3150Y9950D02*
Y10250D01*
X3300D01*
X3350Y10200D01*
Y10100D01*
X3300Y10050D01*
X3150D01*
X3250D02*
X3350Y9950D01*
X3450D02*
X3550D01*
X3500D01*
Y10250D01*
X3450Y10200D01*
X3700D02*
X3750Y10250D01*
X3850D01*
X3900Y10200D01*
Y10000D01*
X3850Y9950D01*
X3750D01*
X3700Y10000D01*
Y10200D01*
X9200Y2660D02*
Y2410D01*
X9250Y2360D01*
X9350D01*
X9400Y2410D01*
Y2660D01*
X9650Y2360D02*
Y2660D01*
X9500Y2510D01*
X9700D01*
D30*
X10721Y2838D02*
X10879D01*
X10721Y2562D02*
X10879D01*
X11876Y759D02*
Y1074D01*
X11600Y759D02*
X11876D01*
Y1626D02*
Y1941D01*
X11600D02*
X11876D01*
X8938Y1271D02*
Y1429D01*
X8662Y1271D02*
Y1429D01*
X4721Y5362D02*
X4879D01*
X4721Y5638D02*
X4879D01*
X4121Y4762D02*
X4279D01*
X4121Y5038D02*
X4279D01*
X6888Y6821D02*
Y6979D01*
X6612Y6821D02*
Y6979D01*
X5962Y6821D02*
Y6979D01*
X6238Y6821D02*
Y6979D01*
X5591Y6582D02*
Y6818D01*
X4409Y6582D02*
Y6818D01*
X5591D01*
X4409Y6582D02*
X5591D01*
X1200Y7164D02*
Y7636D01*
Y8064D02*
Y8536D01*
Y8964D02*
Y9436D01*
Y9864D02*
Y10336D01*
X9290Y1438D02*
X10510D01*
X9290Y1162D02*
X10510D01*
Y1438D01*
X9290Y1162D02*
Y1438D01*
X7248Y3412D02*
Y8865D01*
Y3412D02*
X14552D01*
Y8865D01*
Y9741D02*
Y10449D01*
X7248Y9741D02*
Y10449D01*
X14552D01*
D31*
X37Y288D02*
X4250D01*
X37D02*
Y4343D01*
X5943D01*
Y288D02*
Y4343D01*
X4250Y288D02*
X5943D01*
D32*
X6917Y1733D02*
X6850Y1800D01*
X6717D01*
X6650Y1733D01*
Y1467D01*
X6717Y1400D01*
X6850D01*
X6917Y1467D01*
Y1600D01*
X6783D01*
X7050Y1400D02*
Y1800D01*
X7316Y1400D01*
Y1800D01*
X7450D02*
Y1400D01*
X7650D01*
X7716Y1467D01*
Y1733D01*
X7650Y1800D01*
X7450D01*
X6367Y3600D02*
X6100D01*
Y3200D01*
X6367D01*
X6100Y3400D02*
X6233D01*
X6500Y3600D02*
X6766Y3200D01*
Y3600D02*
X6500Y3200D01*
X6900Y3600D02*
X7166D01*
X7033D01*
Y3200D01*
M02*
