%FSLAX24Y24*%
%MOIN*%
G70*
G01*
G75*
G04 Layer_Color=65535*
%ADD10R,0.0500X0.0299*%
%ADD11R,0.0551X0.0236*%
%ADD12R,0.0709X0.0236*%
%ADD13R,0.0315X0.0354*%
%ADD14R,0.0500X0.1000*%
%ADD15R,0.0512X0.0217*%
%ADD16R,0.0354X0.0315*%
%ADD17R,0.0472X0.0551*%
%ADD18R,0.0354X0.0276*%
%ADD19R,0.0217X0.0394*%
%ADD20R,0.0276X0.0354*%
%ADD21R,0.0217X0.0512*%
%ADD22R,0.0512X0.0236*%
%ADD23R,0.1500X0.1000*%
G04:AMPARAMS|DCode=24|XSize=60mil|YSize=40mil|CornerRadius=0mil|HoleSize=0mil|Usage=FLASHONLY|Rotation=45.000|XOffset=0mil|YOffset=0mil|HoleType=Round|Shape=Rectangle|*
%AMROTATEDRECTD24*
4,1,4,-0.0071,-0.0354,-0.0354,-0.0071,0.0071,0.0354,0.0354,0.0071,-0.0071,-0.0354,0.0*
%
%ADD24ROTATEDRECTD24*%

%ADD25O,0.1181X0.3150*%
%ADD26R,0.8661X0.8661*%
%ADD27C,0.0120*%
%ADD28C,0.0200*%
%ADD29C,0.0150*%
%ADD30C,0.0300*%
%ADD31O,0.0669X0.1102*%
%ADD32C,0.1100*%
%ADD33C,0.0400*%
%ADD34C,0.0098*%
%ADD35C,0.0079*%
%ADD36C,0.0080*%
%ADD37C,0.0100*%
%ADD38C,0.0060*%
G36*
X2142Y9480D02*
X1814D01*
Y8181D01*
X2142D01*
Y7320D01*
X529D01*
Y8181D01*
X857D01*
Y8961D01*
X43Y7839D01*
X-12D01*
X-812Y8961D01*
Y8181D01*
X-483D01*
Y7320D01*
X-2097D01*
Y8181D01*
X-1783D01*
Y9480D01*
X-2097D01*
Y10342D01*
X-819D01*
X2Y9207D01*
X43D01*
X864Y10342D01*
X2142D01*
Y9480D01*
D02*
G37*
D34*
X-9392Y-3725D02*
G03*
X-9392Y-3725I-49J0D01*
G01*
X-6314Y-7750D02*
G03*
X-6314Y-7750I-49J0D01*
G01*
X4248Y-7478D02*
G03*
X4248Y-7478I-49J0D01*
G01*
X9650Y287D02*
G03*
X9650Y287I-49J0D01*
G01*
X9813Y3691D02*
G03*
X9813Y3691I-49J0D01*
G01*
D35*
X-10721Y-2269D02*
Y-1894D01*
X-9697D01*
X-10721Y-3706D02*
Y-3331D01*
Y-3706D02*
X-9697D01*
X-5812Y-9010D02*
Y-7790D01*
X-6088Y-9010D02*
Y-7790D01*
Y-9010D02*
X-5812D01*
X-6088Y-7790D02*
X-5812D01*
X-3150Y-10236D02*
Y-9764D01*
Y-9136D02*
Y-8664D01*
Y-8036D02*
Y-7564D01*
Y-6936D02*
Y-6464D01*
X2488Y-8929D02*
Y-8771D01*
X2212Y-8929D02*
Y-8771D01*
X3138Y-9579D02*
Y-9421D01*
X2862Y-9579D02*
Y-9421D01*
X4091Y-8068D02*
Y-7832D01*
X2909Y-8068D02*
Y-7832D01*
X4091D01*
X2909Y-8068D02*
X4091D01*
X4512Y-7779D02*
Y-7621D01*
X4788Y-7779D02*
Y-7621D01*
X4271Y-6888D02*
X4429D01*
X4271Y-6612D02*
X4429D01*
X9288Y321D02*
Y479D01*
X9012Y321D02*
Y479D01*
X9640Y838D02*
X10860D01*
X9640Y562D02*
X10860D01*
Y838D01*
X9640Y562D02*
Y838D01*
X10221Y2212D02*
X10379D01*
X10221Y2488D02*
X10379D01*
X9074Y4676D02*
Y4991D01*
X9350D01*
X9074Y3809D02*
Y4124D01*
Y3809D02*
X9350D01*
D36*
X-8580Y-1100D02*
X-8660Y-1020D01*
X-8820D01*
X-8900Y-1100D01*
Y-1420D01*
X-8820Y-1500D01*
X-8660D01*
X-8580Y-1420D01*
X-8420Y-1500D02*
X-8260D01*
X-8340D01*
Y-1020D01*
X-8420Y-1100D01*
X-10680Y-4150D02*
X-10760Y-4070D01*
X-10920D01*
X-11000Y-4150D01*
Y-4470D01*
X-10920Y-4550D01*
X-10760D01*
X-10680Y-4470D01*
X-10200Y-4550D02*
X-10520D01*
X-10200Y-4230D01*
Y-4150D01*
X-10280Y-4070D01*
X-10440D01*
X-10520Y-4150D01*
X4150Y-9630D02*
X4070Y-9710D01*
Y-9870D01*
X4150Y-9950D01*
X4470D01*
X4550Y-9870D01*
Y-9710D01*
X4470Y-9630D01*
X4070Y-9150D02*
Y-9470D01*
X4310D01*
X4230Y-9310D01*
Y-9230D01*
X4310Y-9150D01*
X4470D01*
X4550Y-9230D01*
Y-9390D01*
X4470Y-9470D01*
X9670Y5570D02*
X9350D01*
X9270Y5490D01*
Y5330D01*
X9350Y5250D01*
X9670D01*
X9750Y5330D01*
Y5490D01*
X9590Y5410D02*
X9750Y5570D01*
Y5490D02*
X9670Y5570D01*
X9750Y5730D02*
Y5890D01*
Y5810D01*
X9270D01*
X9350Y5730D01*
X8750Y50D02*
X8270D01*
Y290D01*
X8350Y370D01*
X8510D01*
X8590Y290D01*
Y50D01*
Y210D02*
X8750Y370D01*
Y530D02*
Y690D01*
Y610D01*
X8270D01*
X8350Y530D01*
X5550Y-8100D02*
X5070D01*
Y-7860D01*
X5150Y-7780D01*
X5310D01*
X5390Y-7860D01*
Y-8100D01*
Y-7940D02*
X5550Y-7780D01*
Y-7300D02*
Y-7620D01*
X5230Y-7300D01*
X5150D01*
X5070Y-7380D01*
Y-7540D01*
X5150Y-7620D01*
X8850Y2100D02*
Y2580D01*
X9090D01*
X9170Y2500D01*
Y2340D01*
X9090Y2260D01*
X8850D01*
X9010D02*
X9170Y2100D01*
X9330Y2500D02*
X9410Y2580D01*
X9570D01*
X9650Y2500D01*
Y2420D01*
X9570Y2340D01*
X9490D01*
X9570D01*
X9650Y2260D01*
Y2180D01*
X9570Y2100D01*
X9410D01*
X9330Y2180D01*
X4000Y-6350D02*
Y-5870D01*
X4240D01*
X4320Y-5950D01*
Y-6110D01*
X4240Y-6190D01*
X4000D01*
X4160D02*
X4320Y-6350D01*
X4720D02*
Y-5870D01*
X4480Y-6110D01*
X4800D01*
X2450Y-10300D02*
X1970D01*
Y-10060D01*
X2050Y-9980D01*
X2210D01*
X2290Y-10060D01*
Y-10300D01*
Y-10140D02*
X2450Y-9980D01*
X1970Y-9500D02*
Y-9820D01*
X2210D01*
X2130Y-9660D01*
Y-9580D01*
X2210Y-9500D01*
X2370D01*
X2450Y-9580D01*
Y-9740D01*
X2370Y-9820D01*
X3250Y-11000D02*
X2770D01*
Y-10760D01*
X2850Y-10680D01*
X3010D01*
X3090Y-10760D01*
Y-11000D01*
Y-10840D02*
X3250Y-10680D01*
X2770Y-10200D02*
X2850Y-10360D01*
X3010Y-10520D01*
X3170D01*
X3250Y-10440D01*
Y-10280D01*
X3170Y-10200D01*
X3090D01*
X3010Y-10280D01*
Y-10520D01*
X-4800Y-10250D02*
Y-9770D01*
X-4560D01*
X-4480Y-9850D01*
Y-10010D01*
X-4560Y-10090D01*
X-4800D01*
X-4640D02*
X-4480Y-10250D01*
X-4320Y-9770D02*
X-4000D01*
Y-9850D01*
X-4320Y-10170D01*
Y-10250D01*
X-4850Y-9150D02*
Y-8670D01*
X-4610D01*
X-4530Y-8750D01*
Y-8910D01*
X-4610Y-8990D01*
X-4850D01*
X-4690D02*
X-4530Y-9150D01*
X-4370Y-8750D02*
X-4290Y-8670D01*
X-4130D01*
X-4050Y-8750D01*
Y-8830D01*
X-4130Y-8910D01*
X-4050Y-8990D01*
Y-9070D01*
X-4130Y-9150D01*
X-4290D01*
X-4370Y-9070D01*
Y-8990D01*
X-4290Y-8910D01*
X-4370Y-8830D01*
Y-8750D01*
X-4290Y-8910D02*
X-4130D01*
X-3750Y-6050D02*
Y-5570D01*
X-3510D01*
X-3430Y-5650D01*
Y-5810D01*
X-3510Y-5890D01*
X-3750D01*
X-3590D02*
X-3430Y-6050D01*
X-3270Y-5970D02*
X-3190Y-6050D01*
X-3030D01*
X-2950Y-5970D01*
Y-5650D01*
X-3030Y-5570D01*
X-3190D01*
X-3270Y-5650D01*
Y-5730D01*
X-3190Y-5810D01*
X-2950D01*
X-3750Y-5150D02*
Y-4670D01*
X-3510D01*
X-3430Y-4750D01*
Y-4910D01*
X-3510Y-4990D01*
X-3750D01*
X-3590D02*
X-3430Y-5150D01*
X-3270D02*
X-3110D01*
X-3190D01*
Y-4670D01*
X-3270Y-4750D01*
X-2870D02*
X-2790Y-4670D01*
X-2630D01*
X-2550Y-4750D01*
Y-5070D01*
X-2630Y-5150D01*
X-2790D01*
X-2870Y-5070D01*
Y-4750D01*
X-1580Y-6740D02*
X-1660Y-6660D01*
X-1820D01*
X-1900Y-6740D01*
Y-6820D01*
X-1820Y-6900D01*
X-1660D01*
X-1580Y-6980D01*
Y-7060D01*
X-1660Y-7140D01*
X-1820D01*
X-1900Y-7060D01*
X-1420Y-6660D02*
Y-7140D01*
X-1260Y-6980D01*
X-1100Y-7140D01*
Y-6660D01*
X-620Y-7140D02*
X-940D01*
X-620Y-6820D01*
Y-6740D01*
X-700Y-6660D01*
X-860D01*
X-940Y-6740D01*
X-11210Y-1030D02*
Y-1430D01*
X-11130Y-1510D01*
X-10970D01*
X-10890Y-1430D01*
Y-1030D01*
X-10730Y-1510D02*
X-10570D01*
X-10650D01*
Y-1030D01*
X-10730Y-1110D01*
X2900Y-6420D02*
Y-6820D01*
X2980Y-6900D01*
X3140D01*
X3220Y-6820D01*
Y-6420D01*
X3380Y-6500D02*
X3460Y-6420D01*
X3620D01*
X3700Y-6500D01*
Y-6580D01*
X3620Y-6660D01*
X3540D01*
X3620D01*
X3700Y-6740D01*
Y-6820D01*
X3620Y-6900D01*
X3460D01*
X3380Y-6820D01*
X9900Y-320D02*
Y-720D01*
X9980Y-800D01*
X10140D01*
X10220Y-720D01*
Y-320D01*
X10620Y-800D02*
Y-320D01*
X10380Y-560D01*
X10700D01*
X-6240Y-6430D02*
X-6320Y-6350D01*
X-6480D01*
X-6560Y-6430D01*
Y-6750D01*
X-6480Y-6830D01*
X-6320D01*
X-6240Y-6750D01*
X-6080Y-6430D02*
X-6000Y-6350D01*
X-5840D01*
X-5760Y-6430D01*
Y-6510D01*
X-5840Y-6590D01*
X-5920D01*
X-5840D01*
X-5760Y-6670D01*
Y-6750D01*
X-5840Y-6830D01*
X-6000D01*
X-6080Y-6750D01*
X-4550Y-6470D02*
X-4470Y-6390D01*
Y-6230D01*
X-4550Y-6150D01*
X-4870D01*
X-4950Y-6230D01*
Y-6390D01*
X-4870Y-6470D01*
X-4950Y-6870D02*
X-4470D01*
X-4710Y-6630D01*
Y-6950D01*
X-7750Y-7770D02*
Y-8170D01*
X-7670Y-8250D01*
X-7510D01*
X-7430Y-8170D01*
Y-7770D01*
X-6950Y-8250D02*
X-7270D01*
X-6950Y-7930D01*
Y-7850D01*
X-7030Y-7770D01*
X-7190D01*
X-7270Y-7850D01*
X-9450Y130D02*
Y-190D01*
X-9290Y-350D01*
X-9130Y-190D01*
Y130D01*
X-8970D02*
X-8810D01*
X-8890D01*
Y-350D01*
X-8970D01*
X-8810D01*
X-8570D02*
Y130D01*
X-8250Y-350D01*
Y130D01*
X-9130Y1900D02*
X-9210Y1980D01*
X-9370D01*
X-9450Y1900D01*
Y1580D01*
X-9370Y1500D01*
X-9210D01*
X-9130Y1580D01*
Y1740D01*
X-9290D01*
X-8970Y1500D02*
Y1980D01*
X-8650Y1500D01*
Y1980D01*
X-8490D02*
Y1500D01*
X-8250D01*
X-8170Y1580D01*
Y1900D01*
X-8250Y1980D01*
X-8490D01*
X-10050Y-6100D02*
X-9937Y-5987D01*
X-9993Y-6043D01*
X-10333Y-5704D01*
Y-5817D01*
X-9541Y-5591D02*
X-9767Y-5817D01*
Y-5365D01*
X-9824Y-5308D01*
X-9937D01*
X-10050Y-5421D01*
Y-5534D01*
X-9767Y-5139D02*
X-9541Y-5365D01*
X-9315D01*
X-9315Y-5139D01*
X-9541Y-4912D01*
X-8707Y-7341D02*
X-8820Y-7341D01*
X-8933Y-7454D01*
Y-7567D01*
X-8707Y-7793D01*
X-8593D01*
X-8480Y-7680D01*
X-8480Y-7567D01*
X-8593Y-7454D01*
X-8707Y-7567D01*
X-8311Y-7511D02*
X-8650Y-7171D01*
X-8084Y-7285D01*
X-8424Y-6945D01*
X-8311Y-6832D02*
X-7971Y-7171D01*
X-7802Y-7002D01*
Y-6889D01*
X-8028Y-6662D01*
X-8141Y-6662D01*
X-8311Y-6832D01*
X10850Y-3130D02*
X10770Y-3210D01*
Y-3370D01*
X10850Y-3450D01*
X11170D01*
X11250Y-3370D01*
Y-3210D01*
X11170Y-3130D01*
X11010D01*
Y-3290D01*
X11250Y-2970D02*
X10770D01*
X11250Y-2650D01*
X10770D01*
Y-2490D02*
X11250D01*
Y-2250D01*
X11170Y-2170D01*
X10850D01*
X10770Y-2250D01*
Y-2490D01*
X8400Y-3280D02*
X8320Y-3360D01*
Y-3520D01*
X8400Y-3600D01*
X8720D01*
X8800Y-3520D01*
Y-3360D01*
X8720Y-3280D01*
X8320Y-3120D02*
Y-2800D01*
Y-2960D01*
X8800D01*
Y-2640D02*
X8320D01*
Y-2400D01*
X8400Y-2320D01*
X8560D01*
X8640Y-2400D01*
Y-2640D01*
Y-2480D02*
X8800Y-2320D01*
X8320Y-2160D02*
X8800D01*
Y-1841D01*
X3800Y6830D02*
Y6350D01*
Y6510D01*
X4120Y6830D01*
X3880Y6590D01*
X4120Y6350D01*
X4280Y6670D02*
Y6430D01*
X4360Y6350D01*
X4600D01*
Y6670D01*
X4840Y6350D02*
X5000D01*
X5080Y6430D01*
Y6590D01*
X5000Y6670D01*
X4840D01*
X4760Y6590D01*
Y6430D01*
X4840Y6350D01*
X5320Y6270D02*
X5399Y6350D01*
Y6430D01*
X5320D01*
Y6350D01*
X5399D01*
X5320Y6270D01*
X5240Y6190D01*
X6199Y6750D02*
X6279Y6830D01*
X6439D01*
X6519Y6750D01*
Y6430D01*
X6439Y6350D01*
X6279D01*
X6199Y6430D01*
Y6750D01*
X6679Y6830D02*
X6999D01*
Y6750D01*
X6679Y6430D01*
Y6350D01*
X7159D02*
X7479Y6670D01*
X7639Y6350D02*
X7799D01*
X7719D01*
Y6830D01*
X7639Y6750D01*
X8279Y6350D02*
Y6830D01*
X8039Y6590D01*
X8359D01*
D37*
X-2200Y6900D02*
Y6300D01*
X-1800D01*
X-1600Y6700D02*
Y6400D01*
X-1500Y6300D01*
X-1200D01*
Y6700D01*
X-1000D02*
X-601Y6300D01*
X-800Y6500D01*
X-601Y6700D01*
X-1000Y6300D01*
X-301Y6700D02*
X-101D01*
X-1Y6600D01*
Y6300D01*
X-301D01*
X-401Y6400D01*
X-301Y6500D01*
X-1D01*
X199Y6100D02*
Y6700D01*
X499D01*
X599Y6600D01*
Y6400D01*
X499Y6300D01*
X199D01*
X899D02*
X1099D01*
X1199Y6400D01*
Y6600D01*
X1099Y6700D01*
X899D01*
X799Y6600D01*
Y6400D01*
X899Y6300D01*
X1399D02*
X1699D01*
X1799Y6400D01*
X1699Y6500D01*
X1499D01*
X1399Y6600D01*
X1499Y6700D01*
X1799D01*
X2299Y6300D02*
X2099D01*
X1999Y6400D01*
Y6600D01*
X2099Y6700D01*
X2299D01*
X2399Y6600D01*
Y6500D01*
X1999D01*
X4750Y8250D02*
X4650Y8350D01*
X4450D01*
X4350Y8250D01*
Y7850D01*
X4450Y7750D01*
X4650D01*
X4750Y7850D01*
X4950Y7750D02*
Y8350D01*
X5250D01*
X5350Y8250D01*
Y8050D01*
X5250Y7950D01*
X4950D01*
X5150D02*
X5350Y7750D01*
X5949Y8350D02*
X5550D01*
Y7750D01*
X5949D01*
X5550Y8050D02*
X5750D01*
X6549Y8350D02*
X6149D01*
Y7750D01*
X6549D01*
X6149Y8050D02*
X6349D01*
D38*
X4540Y7400D02*
X4480Y7460D01*
X4360D01*
X4300Y7400D01*
Y7160D01*
X4360Y7100D01*
X4480D01*
X4540Y7160D01*
X4660Y7460D02*
X4900Y7100D01*
Y7460D02*
X4660Y7100D01*
X5020D02*
Y7340D01*
X5140Y7460D01*
X5260Y7340D01*
Y7100D01*
Y7280D01*
X5020D01*
X5620Y7100D02*
X5380D01*
X5620Y7340D01*
Y7400D01*
X5560Y7460D01*
X5440D01*
X5380Y7400D01*
X5979Y7460D02*
X5740D01*
Y7280D01*
X5860Y7340D01*
X5919D01*
X5979Y7280D01*
Y7160D01*
X5919Y7100D01*
X5800D01*
X5740Y7160D01*
X6279Y7100D02*
Y7460D01*
X6099Y7280D01*
X6339D01*
X6459Y7400D02*
X6519Y7460D01*
X6639D01*
X6699Y7400D01*
Y7160D01*
X6639Y7100D01*
X6519D01*
X6459Y7160D01*
Y7400D01*
M02*
