M48
;Layer_Color=9474304
;FILE_FORMAT=2:4
INCH,LZ
;TYPE=PLATED
T1F00S00C0.0079
T2F00S00C0.0200
T3F00S00C0.0630
T4F00S00C0.1200
T5F00S00C0.1250
T6F00S00C0.1496
%
T01
X002233Y007617
Y00805
Y008483
X002667
Y00805
Y007617
T02
X0095Y-00275
X01025
X011
X01175
X0125
X01325
X014
X01Y-00175
Y-001
X00925
Y-00175
Y-00025
X01
X01025Y0005
X0095
X00925Y00135
Y002
Y00265
X01
Y002
Y00135
X01075Y00265
X0115
X01125Y0035
X0105
X00975
X012
X00875Y0005
X005Y0
Y-001
Y-002
Y-003
Y-004
Y-005
X004
X003
X002
X001
X0
X-001
X-002
X-003
X-004
X-005Y-004
Y-003
Y-002
Y-001
Y0
Y001
Y002
Y003
Y004
X-002362Y002362
Y001575
Y000787
Y0
X-001575
X-000787
X0
X000787
X001575
X002362
Y-000787
Y-001575
X001575
Y-000787
X000787
Y-001575
X0
Y-000787
X-000787
X-001575
Y-001575
X-000787
Y-002362
X-001575
X-002362
Y-001575
Y-000787
X-001575Y000787
X-000787
Y001575
X-001575
Y002362
X-000787
X0
Y001575
Y000787
X000787
X001575
Y001575
X000787
Y002362
X001575
X002362
Y001575
Y000787
X005Y001
Y002
Y003
Y004
X002362Y-002362
X001575
X000787
X0
X-0085Y-00275
Y-0035
X-011Y-004
X-0125
X-01325
Y-00475
Y-0055
X-0125Y-00675
X-01175
X-011
X-01025
X-0095
Y-00075
Y0
Y00075
Y0015
Y00225
Y003
X-01325Y-003
X-005Y005
X-004
X-003
X-002
X-001
X0
X001
X002
X003
X004
X0018Y0069
X0025Y00905
X00385
X0048
X00795Y0088
Y00955
X00875
Y0088
Y008
X00795
X-00325Y01
X-004
X-00475
X-0055
X-00625
X00945Y00955
Y0088
Y008
T03
X0Y-013431
Y-011069
X00185Y-01225
T04
X-001Y0116
T05
X-005358Y-004937
X005358Y004937
T06
X00335Y-00825
X-00335Y00835
M30
