%FSLAX24Y24*%
%MOIN*%
G70*
G01*
G75*
G04 Layer_Color=8388736*
%ADD10R,0.0354X0.0276*%
%ADD11R,0.0354X0.0315*%
%ADD12R,0.0217X0.0512*%
%ADD13R,0.0236X0.0512*%
%ADD14R,0.0512X0.0217*%
%ADD15R,0.0276X0.0354*%
%ADD16R,0.0394X0.0217*%
%ADD17C,0.0300*%
%ADD18C,0.0200*%
%ADD19C,0.0630*%
%ADD20C,0.0709*%
%ADD21C,0.0492*%
%ADD22C,0.1063*%
%ADD23C,0.0882*%
%ADD24R,0.0866X0.0866*%
%ADD25C,0.0433*%
%ADD26C,0.0400*%
%ADD27C,0.0050*%
%ADD28C,0.0098*%
%ADD29C,0.0079*%
%ADD30C,0.0100*%
%ADD31R,0.0414X0.0336*%
%ADD32R,0.0414X0.0375*%
%ADD33R,0.0277X0.0572*%
%ADD34R,0.0296X0.0572*%
%ADD35R,0.0572X0.0277*%
%ADD36R,0.0336X0.0414*%
%ADD37R,0.0454X0.0277*%
%ADD38C,0.0690*%
%ADD39C,0.0060*%
%ADD40C,0.0769*%
%ADD41C,0.0552*%
%ADD42C,0.1123*%
%ADD43C,0.0942*%
%ADD44R,0.0926X0.0926*%
%ADD45C,0.0493*%
%ADD46C,0.0460*%
D31*
X14700Y12055D02*
D03*
Y12645D02*
D03*
X20100Y11295D02*
D03*
Y10705D02*
D03*
D32*
X11600Y15826D02*
D03*
Y15274D02*
D03*
X13750Y14724D02*
D03*
Y15276D02*
D03*
X16650Y15776D02*
D03*
Y15224D02*
D03*
X17100Y12626D02*
D03*
Y12074D02*
D03*
X16650Y13724D02*
D03*
Y14276D02*
D03*
D33*
X12276Y15792D02*
D03*
X13024D02*
D03*
Y14808D02*
D03*
X12650D02*
D03*
X12276D02*
D03*
D34*
X21100Y11713D02*
D03*
X21474Y10887D02*
D03*
X20726D02*
D03*
D35*
X18842Y11524D02*
D03*
Y10776D02*
D03*
X17858D02*
D03*
Y11150D02*
D03*
Y11524D02*
D03*
D36*
X18845Y12250D02*
D03*
X18255D02*
D03*
D37*
X15428Y12924D02*
D03*
Y12550D02*
D03*
Y12176D02*
D03*
X16372D02*
D03*
Y12550D02*
D03*
Y12924D02*
D03*
D38*
X16400Y11000D02*
D03*
X15400D02*
D03*
D39*
X23900Y10750D02*
D03*
X22900D02*
D03*
D40*
X23900Y11750D02*
D03*
X22900D02*
D03*
D41*
X15550Y15537D02*
D03*
Y14750D02*
D03*
Y13963D02*
D03*
D42*
X18078Y14594D02*
D03*
X23622D02*
D03*
X20850D02*
D03*
D43*
X17488Y19354D02*
D03*
X24212D02*
D03*
D44*
X15881Y18750D02*
D03*
X13519D02*
D03*
X14700Y16900D02*
D03*
D45*
X11400Y12400D02*
D03*
X12400Y11400D02*
D03*
X13400Y12400D02*
D03*
D46*
X22000Y11200D02*
D03*
Y10450D02*
D03*
X16650Y14750D02*
D03*
X12650Y15300D02*
D03*
X11600Y14800D02*
D03*
X14205Y12645D02*
D03*
X16372Y11778D02*
D03*
X17858Y10408D02*
D03*
X13750Y15850D02*
D03*
M02*
