%FSLAX24Y24*%
%MOIN*%
G70*
G01*
G75*
G04 Layer_Color=65535*
%ADD10R,0.0354X0.0276*%
%ADD11R,0.0354X0.0315*%
%ADD12R,0.0217X0.0512*%
%ADD13R,0.0236X0.0512*%
%ADD14R,0.0512X0.0217*%
%ADD15R,0.0276X0.0354*%
%ADD16R,0.0394X0.0217*%
%ADD17C,0.0300*%
%ADD18C,0.0200*%
%ADD19C,0.0630*%
%ADD20C,0.0709*%
%ADD21C,0.0492*%
%ADD22C,0.1063*%
%ADD23C,0.0882*%
%ADD24R,0.0866X0.0866*%
%ADD25C,0.0433*%
%ADD26C,0.0400*%
%ADD27C,0.0050*%
%ADD28C,0.0098*%
%ADD29C,0.0079*%
%ADD30C,0.0100*%
D27*
X16179Y15931D02*
G03*
X16180Y13569I-314J-1181D01*
G01*
X14900Y10500D02*
Y11500D01*
X16900Y10500D02*
Y11500D01*
X14900D02*
X16900D01*
X14900Y10500D02*
X16900D01*
X22309Y10530D02*
Y12970D01*
X24491Y10530D02*
Y12970D01*
X22309D02*
X24491D01*
X22309Y10530D02*
X24491D01*
X16180Y13569D02*
Y15931D01*
X16700Y17200D02*
X16650Y17150D01*
Y17050D01*
X16700Y17000D01*
X16900D01*
X16950Y17050D01*
Y17150D01*
X16900Y17200D01*
X16950Y17300D02*
Y17400D01*
Y17350D01*
X16650D01*
X16700Y17300D01*
Y16300D02*
X16650Y16250D01*
Y16150D01*
X16700Y16100D01*
X16900D01*
X16950Y16150D01*
Y16250D01*
X16900Y16300D01*
X16950Y16600D02*
Y16400D01*
X16750Y16600D01*
X16700D01*
X16650Y16550D01*
Y16450D01*
X16700Y16400D01*
X13750Y14350D02*
X13700Y14400D01*
X13600D01*
X13550Y14350D01*
Y14150D01*
X13600Y14100D01*
X13700D01*
X13750Y14150D01*
X13850Y14350D02*
X13900Y14400D01*
X14000D01*
X14050Y14350D01*
Y14300D01*
X14000Y14250D01*
X13950D01*
X14000D01*
X14050Y14200D01*
Y14150D01*
X14000Y14100D01*
X13900D01*
X13850Y14150D01*
X11200Y15500D02*
X11250Y15550D01*
Y15650D01*
X11200Y15700D01*
X11000D01*
X10950Y15650D01*
Y15550D01*
X11000Y15500D01*
X10950Y15250D02*
X11250D01*
X11100Y15400D01*
Y15200D01*
X17700Y12400D02*
X17750Y12450D01*
Y12550D01*
X17700Y12600D01*
X17500D01*
X17450Y12550D01*
Y12450D01*
X17500Y12400D01*
X17750Y12100D02*
Y12300D01*
X17600D01*
X17650Y12200D01*
Y12150D01*
X17600Y12100D01*
X17500D01*
X17450Y12150D01*
Y12250D01*
X17500Y12300D01*
X21050Y12400D02*
Y12600D01*
X21000Y12650D01*
X20900D01*
X20850Y12600D01*
Y12400D01*
X20900Y12350D01*
X21000D01*
X20950Y12450D02*
X21050Y12350D01*
X21000D02*
X21050Y12400D01*
X21150Y12350D02*
X21250D01*
X21200D01*
Y12650D01*
X21150Y12600D01*
X18200Y12600D02*
Y12900D01*
X18350D01*
X18400Y12850D01*
Y12750D01*
X18350Y12700D01*
X18200D01*
X18300D02*
X18400Y12600D01*
X18500D02*
X18600D01*
X18550D01*
Y12900D01*
X18500Y12850D01*
X11900Y12200D02*
Y12500D01*
X12050D01*
X12100Y12450D01*
Y12350D01*
X12050Y12300D01*
X11900D01*
X12000D02*
X12100Y12200D01*
X12400D02*
X12200D01*
X12400Y12400D01*
Y12450D01*
X12350Y12500D01*
X12250D01*
X12200Y12450D01*
X20300Y11750D02*
X20000D01*
Y11900D01*
X20050Y11950D01*
X20150D01*
X20200Y11900D01*
Y11750D01*
Y11850D02*
X20300Y11950D01*
X20050Y12050D02*
X20000Y12100D01*
Y12200D01*
X20050Y12250D01*
X20100D01*
X20150Y12200D01*
Y12150D01*
Y12200D01*
X20200Y12250D01*
X20250D01*
X20300Y12200D01*
Y12100D01*
X20250Y12050D01*
X14550Y13400D02*
X14850D01*
Y13250D01*
X14800Y13200D01*
X14700D01*
X14650Y13250D01*
Y13400D01*
Y13300D02*
X14550Y13200D01*
Y12950D02*
X14850D01*
X14700Y13100D01*
Y12900D01*
X12250Y14050D02*
Y13800D01*
X12300Y13750D01*
X12400D01*
X12450Y13800D01*
Y14050D01*
X12750Y13750D02*
X12550D01*
X12750Y13950D01*
Y14000D01*
X12700Y14050D01*
X12600D01*
X12550Y14000D01*
X14400Y16150D02*
Y15900D01*
X14450Y15850D01*
X14550D01*
X14600Y15900D01*
Y16150D01*
X14700Y16100D02*
X14750Y16150D01*
X14850D01*
X14900Y16100D01*
Y16050D01*
X14850Y16000D01*
X14800D01*
X14850D01*
X14900Y15950D01*
Y15900D01*
X14850Y15850D01*
X14750D01*
X14700Y15900D01*
X18700Y10500D02*
Y10250D01*
X18750Y10200D01*
X18850D01*
X18900Y10250D01*
Y10500D01*
X19150Y10200D02*
Y10500D01*
X19000Y10350D01*
X19200D01*
D28*
X12050Y14887D02*
G03*
X12050Y14887I-49J0D01*
G01*
X20441Y10887D02*
G03*
X20441Y10887I-49J0D01*
G01*
X17986Y11800D02*
G03*
X17986Y11800I-49J0D01*
G01*
X15477Y13249D02*
G03*
X15477Y13249I-49J0D01*
G01*
D29*
X17198Y13462D02*
Y18915D01*
Y13462D02*
X24502D01*
Y18915D01*
Y19791D02*
Y20499D01*
X17198Y19791D02*
Y20499D01*
X24502D01*
X14562Y12271D02*
Y12429D01*
X14838Y12271D02*
Y12429D01*
X12040Y15438D02*
X13260D01*
X12040Y15162D02*
X13260D01*
Y15438D01*
X12040Y15162D02*
Y15438D01*
X21376Y11576D02*
X21691D01*
Y11300D02*
Y11576D01*
X20509D02*
X20824D01*
X20509Y11300D02*
Y11576D01*
X20238Y10921D02*
Y11079D01*
X19962Y10921D02*
Y11079D01*
X18488Y10540D02*
Y11760D01*
X18212Y10540D02*
Y11760D01*
Y10540D02*
X18488D01*
X18212Y11760D02*
X18488D01*
X18471Y12112D02*
X18629D01*
X18471Y12388D02*
X18629D01*
X15782Y13141D02*
X16018D01*
X15782Y11959D02*
X16018D01*
X15782D02*
Y13141D01*
X16018Y11959D02*
Y13141D01*
D30*
X10487Y16388D02*
X14700D01*
X10487D02*
Y20443D01*
X16393D01*
Y16388D02*
Y20443D01*
X14700Y16388D02*
X16393D01*
M02*
