%FSLAX24Y24*%
%MOIN*%
G70*
G01*
G75*
G04 Layer_Color=32896*
%ADD10R,0.0354X0.0276*%
%ADD11R,0.0354X0.0315*%
%ADD12R,0.0217X0.0512*%
%ADD13R,0.0236X0.0512*%
%ADD14R,0.0512X0.0217*%
%ADD15R,0.0276X0.0354*%
%ADD16R,0.0394X0.0217*%
%ADD17C,0.0300*%
%ADD18C,0.0200*%
%ADD19C,0.0630*%
%ADD20C,0.0709*%
%ADD21C,0.0492*%
%ADD22C,0.1063*%
%ADD23C,0.0882*%
%ADD24R,0.0866X0.0866*%
%ADD25C,0.0433*%
%ADD26C,0.0400*%
%ADD27C,0.0050*%
%ADD28C,0.0098*%
%ADD29C,0.0079*%
%ADD30C,0.0100*%
%ADD31R,0.0414X0.0336*%
%ADD32R,0.0414X0.0375*%
%ADD33R,0.0277X0.0572*%
%ADD34R,0.0296X0.0572*%
%ADD35R,0.0572X0.0277*%
%ADD36R,0.0336X0.0414*%
%ADD37R,0.0454X0.0277*%
%ADD38C,0.0690*%
%ADD39C,0.0060*%
%ADD40C,0.0769*%
%ADD41C,0.0552*%
%ADD42C,0.1123*%
%ADD43C,0.0942*%
%ADD44R,0.0926X0.0926*%
%ADD45C,0.0493*%
%ADD46C,0.0460*%
%ADD47C,0.0080*%
G36*
X23211Y19447D02*
X23062D01*
Y18829D01*
X23211D01*
Y18420D01*
X22444D01*
Y18829D01*
X22600D01*
Y19200D01*
X22220Y18667D01*
X22194D01*
X21807Y19200D01*
Y18829D01*
X21963D01*
Y18420D01*
X21196D01*
Y18829D01*
X21352D01*
Y19447D01*
X21196D01*
Y19857D01*
X21804D01*
X22194Y19317D01*
X22213D01*
X22603Y19857D01*
X23211D01*
Y19447D01*
D02*
G37*
D47*
X23633Y18033D02*
X23700Y18100D01*
X23833D01*
X23900Y18033D01*
Y17767D01*
X23833Y17700D01*
X23700D01*
X23633Y17767D01*
X23500Y17700D02*
Y18100D01*
X23300D01*
X23234Y18033D01*
Y17900D01*
X23300Y17833D01*
X23500D01*
X23367D02*
X23234Y17700D01*
X22834Y18100D02*
X23100D01*
Y17700D01*
X22834D01*
X23100Y17900D02*
X22967D01*
X22434Y18100D02*
X22700D01*
Y17700D01*
X22434D01*
X22700Y17900D02*
X22567D01*
X21901Y18100D02*
Y17700D01*
X21634D01*
X21434Y17967D02*
X21301D01*
X21234Y17900D01*
Y17700D01*
X21434D01*
X21501Y17767D01*
X21434Y17833D01*
X21234D01*
X21101Y17700D02*
Y17967D01*
X21034D01*
X20968Y17900D01*
Y17700D01*
Y17900D01*
X20901Y17967D01*
X20834Y17900D01*
Y17700D01*
X20701Y17567D02*
Y17967D01*
X20501D01*
X20434Y17900D01*
Y17767D01*
X20501Y17700D01*
X20701D01*
X23900Y17400D02*
Y17000D01*
Y17133D01*
X23633Y17400D01*
X23833Y17200D01*
X23633Y17000D01*
X23500Y17267D02*
Y17067D01*
X23433Y17000D01*
X23234D01*
Y17267D01*
X23034Y17000D02*
X22900D01*
X22834Y17067D01*
Y17200D01*
X22900Y17267D01*
X23034D01*
X23100Y17200D01*
Y17067D01*
X23034Y17000D01*
X22301Y17333D02*
X22234Y17400D01*
X22101D01*
X22034Y17333D01*
Y17067D01*
X22101Y17000D01*
X22234D01*
X22301Y17067D01*
Y17333D01*
X21634Y17400D02*
X21901D01*
Y17200D01*
X21767Y17267D01*
X21701D01*
X21634Y17200D01*
Y17067D01*
X21701Y17000D01*
X21834D01*
X21901Y17067D01*
X21501Y17000D02*
X21234Y17267D01*
X21101Y17000D02*
X20968D01*
X21034D01*
Y17400D01*
X21101Y17333D01*
X20568Y17000D02*
Y17400D01*
X20768Y17200D01*
X20501D01*
M02*
