%FSLAX24Y24*%
%MOIN*%
G70*
G01*
G75*
G04 Layer_Color=65535*
%ADD10R,0.1000X0.0291*%
%ADD11R,0.1250X0.0500*%
%ADD12C,0.0120*%
%ADD13C,0.0400*%
%ADD14C,0.0039*%
%ADD15C,0.0100*%
%ADD16R,0.0315X0.0540*%
D14*
X-7656Y-1890D02*
X-5844D01*
Y1890D01*
X-7656D02*
X-5844D01*
X-7656Y-1890D02*
Y1890D01*
X5844Y-1890D02*
X7656D01*
Y1890D01*
X5844D02*
X7656D01*
X5844Y-1890D02*
Y1890D01*
D15*
X2950Y2250D02*
X2850Y2350D01*
X2650D01*
X2550Y2250D01*
Y1850D01*
X2650Y1750D01*
X2850D01*
X2950Y1850D01*
Y2050D01*
X2750D01*
X3150Y1750D02*
Y2350D01*
X3550Y1750D01*
Y2350D01*
X3750D02*
Y1750D01*
X4050D01*
X4149Y1850D01*
Y2250D01*
X4050Y2350D01*
X3750D01*
X2950Y1250D02*
X2850Y1350D01*
X2650D01*
X2550Y1250D01*
Y850D01*
X2650Y750D01*
X2850D01*
X2950Y850D01*
X3150Y1350D02*
X3550D01*
X3350D01*
Y750D01*
X3750D02*
Y1350D01*
X4050D01*
X4149Y1250D01*
Y1050D01*
X4050Y950D01*
X3750D01*
X3950D02*
X4149Y750D01*
X4349Y1350D02*
Y750D01*
X4749D01*
X2650Y300D02*
X2850D01*
X2750D01*
Y-300D01*
X2650D01*
X2850D01*
X3150D02*
Y300D01*
X3550Y-300D01*
Y300D01*
X3750D02*
X4150D01*
X3950D01*
Y-300D01*
X2950Y-800D02*
X2850Y-700D01*
X2650D01*
X2550Y-800D01*
Y-1200D01*
X2650Y-1300D01*
X2850D01*
X2950Y-1200D01*
X3550Y-800D02*
X3450Y-700D01*
X3250D01*
X3150Y-800D01*
Y-900D01*
X3250Y-1000D01*
X3450D01*
X3550Y-1100D01*
Y-1200D01*
X3450Y-1300D01*
X3250D01*
X3150Y-1200D01*
X2600Y-1700D02*
Y-2100D01*
X2800Y-2300D01*
X3000Y-2100D01*
Y-1700D01*
X3600Y-1800D02*
X3500Y-1700D01*
X3300D01*
X3200Y-1800D01*
Y-2200D01*
X3300Y-2300D01*
X3500D01*
X3600Y-2200D01*
X4199Y-1800D02*
X4100Y-1700D01*
X3900D01*
X3800Y-1800D01*
Y-2200D01*
X3900Y-2300D01*
X4100D01*
X4199Y-2200D01*
X4399Y-1800D02*
X4499Y-1700D01*
X4699D01*
X4799Y-1800D01*
Y-1900D01*
X4699Y-2000D01*
X4599D01*
X4699D01*
X4799Y-2100D01*
Y-2200D01*
X4699Y-2300D01*
X4499D01*
X4399Y-2200D01*
X4999Y-2300D02*
Y-2200D01*
X5099D01*
Y-2300D01*
X4999D01*
X5499Y-1800D02*
X5599Y-1700D01*
X5799D01*
X5899Y-1800D01*
Y-1900D01*
X5799Y-2000D01*
X5699D01*
X5799D01*
X5899Y-2100D01*
Y-2200D01*
X5799Y-2300D01*
X5599D01*
X5499Y-2200D01*
X-3350Y-1800D02*
X-3450Y-1700D01*
X-3650D01*
X-3750Y-1800D01*
Y-2200D01*
X-3650Y-2300D01*
X-3450D01*
X-3350Y-2200D01*
Y-2000D01*
X-3550D01*
X-3150Y-2300D02*
Y-1700D01*
X-2750Y-2300D01*
Y-1700D01*
X-2550D02*
Y-2300D01*
X-2250D01*
X-2151Y-2200D01*
Y-1800D01*
X-2250Y-1700D01*
X-2550D01*
X-4250Y-1300D02*
Y-700D01*
X-4050Y-900D01*
X-3850Y-700D01*
Y-1300D01*
X-3650Y-700D02*
X-3450D01*
X-3550D01*
Y-1300D01*
X-3650D01*
X-3450D01*
X-2750Y-800D02*
X-2850Y-700D01*
X-3050D01*
X-3150Y-800D01*
Y-900D01*
X-3050Y-1000D01*
X-2850D01*
X-2750Y-1100D01*
Y-1200D01*
X-2850Y-1300D01*
X-3050D01*
X-3150Y-1200D01*
X-2251Y-700D02*
X-2451D01*
X-2551Y-800D01*
Y-1200D01*
X-2451Y-1300D01*
X-2251D01*
X-2151Y-1200D01*
Y-800D01*
X-2251Y-700D01*
X-4200Y-250D02*
Y350D01*
X-4000Y150D01*
X-3800Y350D01*
Y-250D01*
X-3300Y350D02*
X-3500D01*
X-3600Y250D01*
Y-150D01*
X-3500Y-250D01*
X-3300D01*
X-3200Y-150D01*
Y250D01*
X-3300Y350D01*
X-2601Y250D02*
X-2700Y350D01*
X-2900D01*
X-3000Y250D01*
Y150D01*
X-2900Y50D01*
X-2700D01*
X-2601Y-50D01*
Y-150D01*
X-2700Y-250D01*
X-2900D01*
X-3000Y-150D01*
X-2401Y350D02*
X-2201D01*
X-2301D01*
Y-250D01*
X-2401D01*
X-2201D01*
X-3350Y1200D02*
X-3450Y1300D01*
X-3650D01*
X-3750Y1200D01*
Y800D01*
X-3650Y700D01*
X-3450D01*
X-3350Y800D01*
X-3150Y1300D02*
Y700D01*
X-2750D01*
X-2550Y1300D02*
Y700D01*
Y900D01*
X-2151Y1300D01*
X-2450Y1000D01*
X-2151Y700D01*
X-3650Y2300D02*
Y1900D01*
X-3450Y1700D01*
X-3250Y1900D01*
Y2300D01*
X-3050D02*
X-2850D01*
X-2950D01*
Y1700D01*
X-3050D01*
X-2850D01*
X-2550D02*
Y2300D01*
X-2150Y1700D01*
Y2300D01*
D16*
X-7508Y1630D02*
D03*
X5992D02*
D03*
M02*
