%FSLAX24Y24*%
%MOIN*%
G70*
G01*
G75*
G04 Layer_Physical_Order=2*
G04 Layer_Color=16711680*
%ADD10R,0.1000X0.0291*%
%ADD11R,0.1250X0.0500*%
%ADD12C,0.0120*%
%ADD13C,0.0400*%
G36*
X7888Y-2638D02*
X-7888D01*
Y2638D01*
X7888D01*
Y-2638D01*
D02*
G37*
%LPC*%
G36*
X-5750Y-1040D02*
X-6950D01*
Y-1246D01*
X-6473D01*
Y-1376D01*
X-6501Y-1388D01*
X-6564Y-1436D01*
X-6612Y-1499D01*
X-6642Y-1572D01*
X-6647Y-1610D01*
X-6053D01*
X-6058Y-1572D01*
X-6088Y-1499D01*
X-6136Y-1436D01*
X-6199Y-1388D01*
X-6228Y-1376D01*
Y-1246D01*
X-5750D01*
Y-1040D01*
D02*
G37*
G36*
X-1115D02*
X-1800D01*
Y-1350D01*
X-1115D01*
Y-1040D01*
D02*
G37*
G36*
X-350D02*
X-1035D01*
Y-1350D01*
X-350D01*
Y-1040D01*
D02*
G37*
G36*
X-6053Y-1690D02*
X-6310D01*
Y-1947D01*
X-6272Y-1942D01*
X-6199Y-1912D01*
X-6136Y-1864D01*
X-6088Y-1801D01*
X-6058Y-1728D01*
X-6053Y-1690D01*
D02*
G37*
G36*
X-7190Y-1353D02*
X-7228Y-1358D01*
X-7301Y-1388D01*
X-7364Y-1436D01*
X-7412Y-1499D01*
X-7442Y-1572D01*
X-7447Y-1610D01*
X-7190D01*
Y-1353D01*
D02*
G37*
G36*
X-7110D02*
Y-1610D01*
X-6853D01*
X-6858Y-1572D01*
X-6888Y-1499D01*
X-6936Y-1436D01*
X-6999Y-1388D01*
X-7072Y-1358D01*
X-7110Y-1353D01*
D02*
G37*
G36*
X-5750Y-754D02*
X-6310D01*
Y-960D01*
X-5750D01*
Y-754D01*
D02*
G37*
G36*
X-1115Y-650D02*
X-1800D01*
Y-960D01*
X-1115D01*
Y-650D01*
D02*
G37*
G36*
X-350D02*
X-1035D01*
Y-960D01*
X-350D01*
Y-650D01*
D02*
G37*
G36*
X7260Y-1040D02*
X7003D01*
X7008Y-1078D01*
X7038Y-1151D01*
X7086Y-1214D01*
X7149Y-1262D01*
X7222Y-1292D01*
X7260Y-1297D01*
Y-1040D01*
D02*
G37*
G36*
X7597D02*
X7340D01*
Y-1297D01*
X7378Y-1292D01*
X7451Y-1262D01*
X7514Y-1214D01*
X7562Y-1151D01*
X7592Y-1078D01*
X7597Y-1040D01*
D02*
G37*
G36*
X-6590Y-294D02*
X-7710D01*
Y-706D01*
X-6950D01*
Y-754D01*
X-6950D01*
Y-960D01*
X-6390D01*
Y-754D01*
X-6590D01*
Y-706D01*
X-6590D01*
Y-622D01*
X-5801D01*
X-5500Y-923D01*
X-5503Y-932D01*
X-5512Y-1000D01*
X-5503Y-1068D01*
X-5477Y-1131D01*
X-5435Y-1185D01*
X-5381Y-1227D01*
X-5318Y-1253D01*
X-5250Y-1262D01*
X-5182Y-1253D01*
X-5119Y-1227D01*
X-5065Y-1185D01*
X-5023Y-1131D01*
X-4997Y-1068D01*
X-4988Y-1000D01*
X-4997Y-932D01*
X-5023Y-869D01*
X-5065Y-815D01*
X-5119Y-773D01*
X-5182Y-747D01*
X-5250Y-738D01*
X-5318Y-747D01*
X-5327Y-750D01*
X-5663Y-413D01*
X-5703Y-387D01*
X-5750Y-378D01*
X-6590D01*
Y-294D01*
D02*
G37*
G36*
X-6390Y-1690D02*
X-6647D01*
X-6642Y-1728D01*
X-6612Y-1801D01*
X-6564Y-1864D01*
X-6501Y-1912D01*
X-6428Y-1942D01*
X-6390Y-1947D01*
Y-1690D01*
D02*
G37*
G36*
X-40Y-2040D02*
X-297D01*
X-292Y-2078D01*
X-262Y-2151D01*
X-214Y-2214D01*
X-151Y-2262D01*
X-78Y-2292D01*
X-40Y-2297D01*
Y-2040D01*
D02*
G37*
G36*
X297D02*
X40D01*
Y-2297D01*
X78Y-2292D01*
X151Y-2262D01*
X214Y-2214D01*
X262Y-2151D01*
X292Y-2078D01*
X297Y-2040D01*
D02*
G37*
G36*
X6910Y-794D02*
X5790D01*
Y-1206D01*
X6228D01*
Y-1519D01*
X6219Y-1523D01*
X6165Y-1564D01*
X6123Y-1618D01*
X6097Y-1682D01*
X6088Y-1750D01*
X6097Y-1817D01*
X6123Y-1881D01*
X6165Y-1935D01*
X6219Y-1977D01*
X6283Y-2003D01*
X6350Y-2012D01*
X6418Y-2003D01*
X6482Y-1977D01*
X6536Y-1935D01*
X6578Y-1881D01*
X6604Y-1817D01*
X6613Y-1750D01*
X6604Y-1682D01*
X6578Y-1618D01*
X6536Y-1564D01*
X6482Y-1523D01*
X6473Y-1519D01*
Y-1206D01*
X6910D01*
Y-794D01*
D02*
G37*
G36*
X1035Y-2040D02*
X350D01*
Y-2350D01*
X1035D01*
Y-2040D01*
D02*
G37*
G36*
X1800D02*
X1115D01*
Y-2350D01*
X1800D01*
Y-2040D01*
D02*
G37*
G36*
X-5250Y2262D02*
X-5318Y2253D01*
X-5381Y2227D01*
X-5435Y2185D01*
X-5477Y2131D01*
X-5503Y2068D01*
X-5511Y2013D01*
X-6318Y1206D01*
X-6910D01*
Y794D01*
X-5790D01*
Y1206D01*
X-5906D01*
X-5925Y1252D01*
X-5394Y1783D01*
X-5381Y1773D01*
X-5318Y1747D01*
X-5250Y1738D01*
X-5182Y1747D01*
X-5173Y1750D01*
X-4872Y1449D01*
Y-1500D01*
X-4863Y-1547D01*
X-4837Y-1587D01*
X-4337Y-2087D01*
X-4297Y-2113D01*
X-4250Y-2122D01*
X-1760D01*
Y-2310D01*
X-390D01*
Y-1690D01*
X-1760D01*
Y-1878D01*
X-4199D01*
X-4628Y-1449D01*
Y1500D01*
X-4637Y1547D01*
X-4663Y1587D01*
X-5000Y1923D01*
X-4997Y1932D01*
X-4988Y2000D01*
X-4997Y2068D01*
X-5023Y2131D01*
X-5065Y2185D01*
X-5119Y2227D01*
X-5182Y2253D01*
X-5250Y2262D01*
D02*
G37*
G36*
X1800Y-1650D02*
X1115D01*
Y-1960D01*
X1800D01*
Y-1650D01*
D02*
G37*
G36*
X-7190Y-1690D02*
X-7447D01*
X-7442Y-1728D01*
X-7412Y-1801D01*
X-7364Y-1864D01*
X-7301Y-1912D01*
X-7228Y-1942D01*
X-7190Y-1947D01*
Y-1690D01*
D02*
G37*
G36*
X-6853D02*
X-7110D01*
Y-1947D01*
X-7072Y-1942D01*
X-6999Y-1912D01*
X-6936Y-1864D01*
X-6888Y-1801D01*
X-6858Y-1728D01*
X-6853Y-1690D01*
D02*
G37*
G36*
X-40Y-1703D02*
X-78Y-1708D01*
X-151Y-1738D01*
X-214Y-1786D01*
X-262Y-1849D01*
X-292Y-1922D01*
X-297Y-1960D01*
X-40D01*
Y-1703D01*
D02*
G37*
G36*
X40D02*
Y-1960D01*
X297D01*
X292Y-1922D01*
X262Y-1849D01*
X214Y-1786D01*
X151Y-1738D01*
X78Y-1708D01*
X40Y-1703D01*
D02*
G37*
G36*
X1035Y-1650D02*
X350D01*
Y-1960D01*
X1035D01*
Y-1650D01*
D02*
G37*
G36*
X6950Y1246D02*
X6390D01*
Y1040D01*
X6950D01*
Y1246D01*
D02*
G37*
G36*
X-1115Y1960D02*
X-1800D01*
Y1650D01*
X-1115D01*
Y1960D01*
D02*
G37*
G36*
X-350D02*
X-1035D01*
Y1650D01*
X-350D01*
Y1960D01*
D02*
G37*
G36*
X-1115Y1350D02*
X-1800D01*
Y1040D01*
X-1115D01*
Y1350D01*
D02*
G37*
G36*
X-350D02*
X-1035D01*
Y1040D01*
X-350D01*
Y1350D01*
D02*
G37*
G36*
X6310Y1246D02*
X5750D01*
Y1040D01*
X6310D01*
Y1246D01*
D02*
G37*
G36*
X-40Y1960D02*
X-297D01*
X-292Y1922D01*
X-262Y1849D01*
X-214Y1786D01*
X-151Y1738D01*
X-78Y1708D01*
X-40Y1703D01*
Y1960D01*
D02*
G37*
G36*
X-350Y2350D02*
X-1035D01*
Y2040D01*
X-350D01*
Y2350D01*
D02*
G37*
G36*
X-40Y2297D02*
X-78Y2292D01*
X-151Y2262D01*
X-214Y2214D01*
X-262Y2151D01*
X-292Y2078D01*
X-297Y2040D01*
X-40D01*
Y2297D01*
D02*
G37*
G36*
X40D02*
Y2040D01*
X297D01*
X292Y2078D01*
X262Y2151D01*
X214Y2214D01*
X151Y2262D01*
X78Y2292D01*
X40Y2297D01*
D02*
G37*
G36*
X297Y1960D02*
X40D01*
Y1703D01*
X78Y1708D01*
X151Y1738D01*
X214Y1786D01*
X262Y1849D01*
X292Y1922D01*
X297Y1960D01*
D02*
G37*
G36*
X1760Y2310D02*
X390D01*
Y1690D01*
X1760D01*
Y1878D01*
X1819D01*
X1823Y1869D01*
X1865Y1815D01*
X1919Y1773D01*
X1982Y1747D01*
X2050Y1738D01*
X2118Y1747D01*
X2181Y1773D01*
X2235Y1815D01*
X2277Y1869D01*
X2303Y1932D01*
X2312Y2000D01*
X2303Y2068D01*
X2277Y2131D01*
X2235Y2185D01*
X2181Y2227D01*
X2118Y2253D01*
X2050Y2262D01*
X1982Y2253D01*
X1919Y2227D01*
X1865Y2185D01*
X1823Y2131D01*
X1819Y2122D01*
X1760D01*
Y2310D01*
D02*
G37*
G36*
X-1115Y2350D02*
X-1800D01*
Y2040D01*
X-1115D01*
Y2350D01*
D02*
G37*
G36*
X4750Y262D02*
X4682Y253D01*
X4619Y227D01*
X4565Y185D01*
X4523Y131D01*
X4497Y68D01*
X4488Y0D01*
X4497Y-68D01*
X4523Y-131D01*
X4565Y-185D01*
X4619Y-227D01*
X4682Y-253D01*
X4750Y-262D01*
X4818Y-253D01*
X4881Y-227D01*
X4935Y-185D01*
X4977Y-131D01*
X4981Y-122D01*
X5790D01*
Y-206D01*
X6910D01*
Y206D01*
X5790D01*
Y122D01*
X4981D01*
X4977Y131D01*
X4935Y185D01*
X4881Y227D01*
X4818Y253D01*
X4750Y262D01*
D02*
G37*
G36*
X-1115Y350D02*
X-1800D01*
Y40D01*
X-1115D01*
Y350D01*
D02*
G37*
G36*
X-350D02*
X-1035D01*
Y40D01*
X-350D01*
Y350D01*
D02*
G37*
G36*
X5250Y-238D02*
X5182Y-247D01*
X5119Y-273D01*
X5065Y-315D01*
X5023Y-369D01*
X4997Y-432D01*
X4988Y-500D01*
X4997Y-568D01*
X5000Y-577D01*
X4699Y-878D01*
X1760D01*
Y-690D01*
X390D01*
Y-1310D01*
X1760D01*
Y-1122D01*
X4750D01*
X4797Y-1113D01*
X4837Y-1087D01*
X4931Y-992D01*
X4988Y-1000D01*
X4997Y-1068D01*
X5023Y-1131D01*
X5065Y-1185D01*
X5119Y-1227D01*
X5182Y-1253D01*
X5250Y-1262D01*
X5318Y-1253D01*
X5381Y-1227D01*
X5435Y-1185D01*
X5477Y-1131D01*
X5503Y-1068D01*
X5512Y-1000D01*
X5503Y-932D01*
X5500Y-923D01*
X5801Y-622D01*
X6590D01*
Y-706D01*
X7113D01*
X7129Y-753D01*
X7086Y-786D01*
X7038Y-849D01*
X7008Y-922D01*
X7003Y-960D01*
X7597D01*
X7592Y-922D01*
X7562Y-849D01*
X7514Y-786D01*
X7471Y-753D01*
X7487Y-706D01*
X7710D01*
Y-294D01*
X6590D01*
Y-378D01*
X5750D01*
X5703Y-387D01*
X5663Y-413D01*
X5569Y-508D01*
X5512Y-500D01*
X5503Y-432D01*
X5477Y-369D01*
X5435Y-315D01*
X5381Y-273D01*
X5318Y-247D01*
X5250Y-238D01*
D02*
G37*
G36*
X-1115Y-40D02*
X-1800D01*
Y-350D01*
X-1115D01*
Y-40D01*
D02*
G37*
G36*
X-350D02*
X-1035D01*
Y-350D01*
X-350D01*
Y-40D01*
D02*
G37*
G36*
X-5250Y262D02*
X-5318Y253D01*
X-5381Y227D01*
X-5435Y185D01*
X-5477Y131D01*
X-5481Y122D01*
X-5790D01*
Y206D01*
X-6910D01*
Y-206D01*
X-5790D01*
Y-122D01*
X-5481D01*
X-5477Y-131D01*
X-5435Y-185D01*
X-5381Y-227D01*
X-5318Y-253D01*
X-5250Y-262D01*
X-5182Y-253D01*
X-5119Y-227D01*
X-5065Y-185D01*
X-5023Y-131D01*
X-4997Y-68D01*
X-4988Y0D01*
X-4997Y68D01*
X-5023Y131D01*
X-5065Y185D01*
X-5119Y227D01*
X-5182Y253D01*
X-5250Y262D01*
D02*
G37*
G36*
X-350Y960D02*
X-1035D01*
Y650D01*
X-350D01*
Y960D01*
D02*
G37*
G36*
X-5250Y1262D02*
X-5318Y1253D01*
X-5381Y1227D01*
X-5435Y1185D01*
X-5477Y1131D01*
X-5503Y1068D01*
X-5512Y1000D01*
X-5503Y932D01*
X-5500Y923D01*
X-5801Y622D01*
X-6590D01*
Y706D01*
X-7710D01*
Y294D01*
X-6590D01*
Y378D01*
X-5750D01*
X-5703Y387D01*
X-5663Y413D01*
X-5327Y750D01*
X-5318Y747D01*
X-5250Y738D01*
X-5182Y747D01*
X-5119Y773D01*
X-5065Y815D01*
X-5023Y869D01*
X-4997Y932D01*
X-4988Y1000D01*
X-4997Y1068D01*
X-5023Y1131D01*
X-5065Y1185D01*
X-5119Y1227D01*
X-5182Y1253D01*
X-5250Y1262D01*
D02*
G37*
G36*
X6310Y960D02*
X5750D01*
Y754D01*
X6310D01*
Y960D01*
D02*
G37*
G36*
X4250Y762D02*
X4182Y753D01*
X4119Y727D01*
X4065Y685D01*
X4023Y631D01*
X3997Y568D01*
X3988Y500D01*
X3997Y432D01*
X4000Y423D01*
X3699Y122D01*
X1760D01*
Y310D01*
X390D01*
Y-310D01*
X1760D01*
Y-122D01*
X3750D01*
X3797Y-113D01*
X3837Y-87D01*
X4173Y250D01*
X4182Y247D01*
X4250Y238D01*
X4318Y247D01*
X4381Y273D01*
X4435Y315D01*
X4477Y369D01*
X4503Y432D01*
X4512Y500D01*
X4503Y568D01*
X4477Y631D01*
X4435Y685D01*
X4381Y727D01*
X4318Y753D01*
X4250Y762D01*
D02*
G37*
G36*
X1760Y1310D02*
X390D01*
Y690D01*
X1760D01*
Y878D01*
X4699D01*
X5000Y577D01*
X4997Y568D01*
X4988Y500D01*
X4997Y432D01*
X5023Y369D01*
X5065Y315D01*
X5119Y273D01*
X5182Y247D01*
X5250Y238D01*
X5318Y247D01*
X5381Y273D01*
X5435Y315D01*
X5477Y369D01*
X5503Y432D01*
X5512Y500D01*
X5569Y508D01*
X5663Y413D01*
X5703Y387D01*
X5750Y378D01*
X6590D01*
Y294D01*
X7710D01*
Y706D01*
X6950D01*
Y754D01*
X6950D01*
Y960D01*
X6390D01*
Y754D01*
X6590D01*
Y706D01*
X6590D01*
Y622D01*
X5801D01*
X5500Y923D01*
X5503Y932D01*
X5512Y1000D01*
X5503Y1068D01*
X5477Y1131D01*
X5435Y1185D01*
X5381Y1227D01*
X5318Y1253D01*
X5250Y1262D01*
X5182Y1253D01*
X5119Y1227D01*
X5065Y1185D01*
X5023Y1131D01*
X4997Y1068D01*
X4988Y1000D01*
X4931Y992D01*
X4837Y1087D01*
X4797Y1113D01*
X4750Y1122D01*
X1760D01*
Y1310D01*
D02*
G37*
G36*
X-1115Y960D02*
X-1800D01*
Y650D01*
X-1115D01*
Y960D01*
D02*
G37*
%LPD*%
D10*
X-6350Y1000D02*
D03*
X-7150Y500D02*
D03*
X-6350Y0D02*
D03*
X-7150Y-500D02*
D03*
X-6350Y-1000D02*
D03*
X6350D02*
D03*
X7150Y-500D02*
D03*
X6350Y0D02*
D03*
X7150Y500D02*
D03*
X6350Y1000D02*
D03*
D11*
X1075Y-2000D02*
D03*
Y-1000D02*
D03*
Y0D02*
D03*
Y1000D02*
D03*
Y2000D02*
D03*
X-1075Y-2000D02*
D03*
Y-1000D02*
D03*
Y0D02*
D03*
Y1000D02*
D03*
Y2000D02*
D03*
D12*
X-7150Y500D02*
X-5750D01*
X-5250Y1000D01*
X-6350Y0D02*
X-5250D01*
X-7150Y-500D02*
X-5750D01*
X-5250Y-1000D01*
X-6350Y1000D02*
X-5350Y2000D01*
X-5250D01*
X5750Y-500D02*
X7150D01*
X5250Y-1000D02*
X5750Y-500D01*
Y500D02*
X7150D01*
X5250Y1000D02*
X5750Y500D01*
X6350Y-1750D02*
Y-1000D01*
X-6350Y-1650D02*
Y-1000D01*
Y-1650D02*
X-6350Y-1650D01*
X1075Y1000D02*
X4750D01*
X5250Y500D01*
X4750Y-1000D02*
X5250Y-500D01*
X1000Y-1000D02*
X4750D01*
Y0D02*
X6350D01*
X3750D02*
X4250Y500D01*
X1075Y0D02*
X3750D01*
X1075Y2000D02*
X2050D01*
X-4250Y-2000D02*
X-1075D01*
X-4750Y-1500D02*
X-4250Y-2000D01*
X-4750Y-1500D02*
Y1500D01*
X-5250Y2000D02*
X-4750Y1500D01*
D13*
X7300Y-1000D02*
D03*
X-5250Y1000D02*
D03*
Y0D02*
D03*
Y-1000D02*
D03*
Y2000D02*
D03*
X5250Y-1000D02*
D03*
Y1000D02*
D03*
X6350Y-1750D02*
D03*
X0Y2000D02*
D03*
Y-2000D02*
D03*
X-6350Y-1650D02*
D03*
X-7150D02*
D03*
X5250Y500D02*
D03*
Y-500D02*
D03*
X4750Y0D02*
D03*
X4250Y500D02*
D03*
X2050Y2000D02*
D03*
M02*
