%FSLAX24Y24*%
%MOIN*%
G70*
G01*
G75*
G04 Layer_Color=32896*
%ADD10R,0.1000X0.0291*%
%ADD11R,0.1250X0.0500*%
%ADD12C,0.0120*%
%ADD13C,0.0400*%
%ADD14C,0.0039*%
%ADD15C,0.0100*%
%ADD16R,0.0315X0.0540*%
%ADD17R,0.1060X0.0351*%
%ADD18R,0.1310X0.0560*%
D14*
X-7656Y-1890D02*
X-5844D01*
X-7656D02*
Y1890D01*
X-5844D01*
Y-1890D02*
Y1890D01*
X5844D02*
X7656D01*
Y-1890D02*
Y1890D01*
X5844Y-1890D02*
X7656D01*
X5844D02*
Y1890D01*
D15*
X-2550Y-800D02*
X-2450Y-700D01*
X-2250D01*
X-2150Y-800D01*
Y-1200D01*
X-2250Y-1300D01*
X-2450D01*
X-2550Y-1200D01*
Y-1000D01*
X-2350D01*
X-2750Y-1300D02*
Y-700D01*
X-3150Y-1300D01*
Y-700D01*
X-3350D02*
Y-1300D01*
X-3650D01*
X-3749Y-1200D01*
Y-800D01*
X-3650Y-700D01*
X-3350D01*
X-2550Y250D02*
X-2450Y350D01*
X-2250D01*
X-2150Y250D01*
Y-150D01*
X-2250Y-250D01*
X-2450D01*
X-2550Y-150D01*
Y50D01*
X-2350D01*
X-2750Y-250D02*
Y350D01*
X-3150Y-250D01*
Y350D01*
X-3350D02*
Y-250D01*
X-3650D01*
X-3749Y-150D01*
Y250D01*
X-3650Y350D01*
X-3350D01*
X-2550Y1200D02*
X-2450Y1300D01*
X-2250D01*
X-2150Y1200D01*
Y800D01*
X-2250Y700D01*
X-2450D01*
X-2550Y800D01*
Y1000D01*
X-2350D01*
X-2750Y700D02*
Y1300D01*
X-3150Y700D01*
Y1300D01*
X-3350D02*
Y700D01*
X-3650D01*
X-3749Y800D01*
Y1200D01*
X-3650Y1300D01*
X-3350D01*
X-2550Y2200D02*
X-2450Y2300D01*
X-2250D01*
X-2150Y2200D01*
Y1800D01*
X-2250Y1700D01*
X-2450D01*
X-2550Y1800D01*
Y2000D01*
X-2350D01*
X-2750Y1700D02*
Y2300D01*
X-3150Y1700D01*
Y2300D01*
X-3350D02*
Y1700D01*
X-3650D01*
X-3749Y1800D01*
Y2200D01*
X-3650Y2300D01*
X-3350D01*
X-2150Y-1700D02*
Y-2100D01*
X-2350Y-2300D01*
X-2550Y-2100D01*
Y-1700D01*
X-2750D02*
X-2950D01*
X-2850D01*
Y-2300D01*
X-2750D01*
X-2950D01*
X-3250D02*
Y-1700D01*
X-3650Y-2300D01*
Y-1700D01*
X3800Y-1750D02*
X3900Y-1650D01*
X4100D01*
X4200Y-1750D01*
Y-2150D01*
X4100Y-2250D01*
X3900D01*
X3800Y-2150D01*
Y-1950D01*
X4000D01*
X3600Y-2250D02*
Y-1650D01*
X3200Y-2250D01*
Y-1650D01*
X3000D02*
Y-2250D01*
X2700D01*
X2601Y-2150D01*
Y-1750D01*
X2700Y-1650D01*
X3000D01*
X4750Y-700D02*
Y-1300D01*
X4350D01*
X3750Y-700D02*
X4150D01*
Y-1300D01*
X3750D01*
X4150Y-1000D02*
X3950D01*
X3550Y-700D02*
Y-1300D01*
X3250D01*
X3151Y-1200D01*
Y-800D01*
X3250Y-700D01*
X3550D01*
X2551Y-1300D02*
X2951D01*
X2551Y-900D01*
Y-800D01*
X2651Y-700D01*
X2851D01*
X2951Y-800D01*
X4650Y350D02*
Y-250D01*
X4250D01*
X3650Y350D02*
X4050D01*
Y-250D01*
X3650D01*
X4050Y50D02*
X3850D01*
X3450Y350D02*
Y-250D01*
X3150D01*
X3051Y-150D01*
Y250D01*
X3150Y350D01*
X3450D01*
X2851Y-250D02*
X2651D01*
X2751D01*
Y350D01*
X2851Y250D01*
X4750Y1350D02*
Y750D01*
X4350D01*
X3750Y1350D02*
X4150D01*
Y750D01*
X3750D01*
X4150Y1050D02*
X3950D01*
X3550Y1350D02*
Y750D01*
X3250D01*
X3151Y850D01*
Y1250D01*
X3250Y1350D01*
X3550D01*
X2951Y1250D02*
X2851Y1350D01*
X2651D01*
X2551Y1250D01*
Y850D01*
X2651Y750D01*
X2851D01*
X2951Y850D01*
Y1250D01*
X5850Y2350D02*
Y1950D01*
X5650Y1750D01*
X5450Y1950D01*
Y2350D01*
X4850Y2250D02*
X4950Y2350D01*
X5150D01*
X5250Y2250D01*
Y1850D01*
X5150Y1750D01*
X4950D01*
X4850Y1850D01*
X4251Y2250D02*
X4350Y2350D01*
X4550D01*
X4650Y2250D01*
Y1850D01*
X4550Y1750D01*
X4350D01*
X4251Y1850D01*
X4051Y2250D02*
X3951Y2350D01*
X3751D01*
X3651Y2250D01*
Y2150D01*
X3751Y2050D01*
X3851D01*
X3751D01*
X3651Y1950D01*
Y1850D01*
X3751Y1750D01*
X3951D01*
X4051Y1850D01*
X3451Y1750D02*
Y1850D01*
X3351D01*
Y1750D01*
X3451D01*
X2951Y2250D02*
X2851Y2350D01*
X2651D01*
X2551Y2250D01*
Y2150D01*
X2651Y2050D01*
X2751D01*
X2651D01*
X2551Y1950D01*
Y1850D01*
X2651Y1750D01*
X2851D01*
X2951Y1850D01*
D16*
X-5992Y1630D02*
D03*
X5992Y-1630D02*
D03*
M02*
