M48
;Layer_Color=9474304
;FILE_FORMAT=2:4
INCH,LZ
;TYPE=PLATED
T1F00S00C0.0200
T2F00S00C0.0900
T3F00S00C0.1250
%
T01
X001575Y-002362
Y-001575
Y-000787
Y0
X002362
Y000787
X001575
X002362Y-000787
Y-001575
Y-002362
X000787
Y-001575
Y-000787
Y0
X0
X-000787
X-001575
X-002362
Y000787
X-001575
X-000787
X0
X000787
X0Y-000787
Y-001575
X-000787
Y-000787
X-001575
Y-001575
X-002362
Y-000787
Y-002362
X-001575
X-000787
X0
Y001575
X-000787
X-001575
X-002362
Y002362
X-001575
X-000787
X0
X000787
Y001575
X001575
X002362
Y002362
X001575
T02
X00613Y-00666
X-00613Y00666
T03
X-005358Y-004937
X005358Y004937
M30
