%FSLAX24Y24*%
%MOIN*%
G70*
G01*
G75*
G04 Layer_Physical_Order=1*
G04 Layer_Color=255*
%ADD10R,0.0500X0.0299*%
%ADD11R,0.0551X0.0236*%
%ADD12R,0.0709X0.0236*%
%ADD13R,0.0315X0.0354*%
%ADD14R,0.0500X0.1000*%
%ADD15R,0.0512X0.0217*%
%ADD16R,0.0354X0.0315*%
%ADD17R,0.0472X0.0551*%
%ADD18R,0.0354X0.0276*%
%ADD19R,0.0217X0.0394*%
%ADD20R,0.0276X0.0354*%
%ADD21R,0.0217X0.0512*%
%ADD22R,0.0512X0.0236*%
%ADD23R,0.1500X0.1000*%
G04:AMPARAMS|DCode=24|XSize=60mil|YSize=40mil|CornerRadius=0mil|HoleSize=0mil|Usage=FLASHONLY|Rotation=45.000|XOffset=0mil|YOffset=0mil|HoleType=Round|Shape=Rectangle|*
%AMROTATEDRECTD24*
4,1,4,-0.0071,-0.0354,-0.0354,-0.0071,0.0071,0.0354,0.0354,0.0071,-0.0071,-0.0354,0.0*
%
%ADD24ROTATEDRECTD24*%

%ADD25O,0.1181X0.3150*%
%ADD26R,0.8661X0.8661*%
%ADD27C,0.0120*%
%ADD28C,0.0200*%
%ADD29C,0.0150*%
%ADD30C,0.0300*%
%ADD31O,0.0669X0.1102*%
%ADD32C,0.1100*%
%ADD33C,0.0400*%
G36*
X668Y11896D02*
X1334Y11840D01*
X1996Y11746D01*
X2651Y11616D01*
X3298Y11449D01*
X3935Y11246D01*
X4560Y11008D01*
X5170Y10735D01*
X5763Y10428D01*
X6339Y10088D01*
X6895Y9717D01*
X7429Y9315D01*
X7939Y8884D01*
X8425Y8425D01*
X8884Y7939D01*
X9315Y7429D01*
X9717Y6895D01*
X10088Y6339D01*
X10428Y5763D01*
X10735Y5170D01*
X11008Y4560D01*
X11246Y3935D01*
X11449Y3298D01*
X11616Y2651D01*
X11746Y1996D01*
X11840Y1334D01*
X11896Y668D01*
X11915Y0D01*
X11896Y-668D01*
X11840Y-1334D01*
X11746Y-1996D01*
X11616Y-2651D01*
X11449Y-3298D01*
X11246Y-3935D01*
X11008Y-4560D01*
X10735Y-5170D01*
X10428Y-5763D01*
X10088Y-6339D01*
X9717Y-6895D01*
X9315Y-7429D01*
X8884Y-7939D01*
X8425Y-8425D01*
X7939Y-8884D01*
X7429Y-9315D01*
X6895Y-9717D01*
X6339Y-10088D01*
X5763Y-10428D01*
X5170Y-10735D01*
X4560Y-11008D01*
X3935Y-11246D01*
X3298Y-11449D01*
X2651Y-11616D01*
X1996Y-11746D01*
X1334Y-11840D01*
X668Y-11896D01*
X0Y-11915D01*
X-668Y-11896D01*
X-1334Y-11840D01*
X-1996Y-11746D01*
X-2651Y-11616D01*
X-3298Y-11449D01*
X-3935Y-11246D01*
X-4560Y-11008D01*
X-5170Y-10735D01*
X-5763Y-10428D01*
X-6339Y-10088D01*
X-6895Y-9717D01*
X-7429Y-9315D01*
X-7939Y-8884D01*
X-8425Y-8425D01*
X-8884Y-7939D01*
X-9315Y-7429D01*
X-9717Y-6895D01*
X-10088Y-6339D01*
X-10428Y-5763D01*
X-10735Y-5170D01*
X-11008Y-4560D01*
X-11246Y-3935D01*
X-11449Y-3298D01*
X-11616Y-2651D01*
X-11746Y-1996D01*
X-11840Y-1334D01*
X-11896Y-668D01*
X-11915Y0D01*
X-11896Y668D01*
X-11840Y1334D01*
X-11746Y1996D01*
X-11616Y2651D01*
X-11449Y3298D01*
X-11246Y3935D01*
X-11008Y4560D01*
X-10735Y5170D01*
X-10428Y5763D01*
X-10088Y6339D01*
X-9717Y6895D01*
X-9315Y7429D01*
X-8884Y7939D01*
X-8425Y8425D01*
X-7939Y8884D01*
X-7429Y9315D01*
X-6895Y9717D01*
X-6339Y10088D01*
X-5763Y10428D01*
X-5170Y10735D01*
X-4560Y11008D01*
X-3935Y11246D01*
X-3298Y11449D01*
X-2651Y11616D01*
X-1996Y11746D01*
X-1334Y11840D01*
X-668Y11896D01*
X0Y11915D01*
X668Y11896D01*
D02*
G37*
%LPC*%
G36*
X-5934Y-7410D02*
X-6132D01*
Y-7627D01*
X-5934D01*
Y-7410D01*
D02*
G37*
G36*
X-4423Y-7434D02*
X-4640D01*
Y-7632D01*
X-4423D01*
Y-7434D01*
D02*
G37*
G36*
X-5617Y-7410D02*
X-5814D01*
Y-7627D01*
X-5617D01*
Y-7410D01*
D02*
G37*
G36*
X-4423Y-7117D02*
X-4640D01*
Y-7314D01*
X-4423D01*
Y-7117D01*
D02*
G37*
G36*
X-4760D02*
X-4977D01*
Y-7314D01*
X-4760D01*
Y-7117D01*
D02*
G37*
G36*
X-2499Y-6364D02*
X-3092D01*
Y-7036D01*
X-2499D01*
X-2499Y-7036D01*
Y-7036D01*
X-2496Y-7034D01*
X-2010Y-7521D01*
Y-7810D01*
X-1390D01*
Y-7390D01*
X-1679D01*
X-2485Y-6585D01*
X-2499Y-6575D01*
Y-6364D01*
D02*
G37*
G36*
X-3168Y-7860D02*
X-3444D01*
Y-8176D01*
X-3168D01*
Y-7860D01*
D02*
G37*
G36*
X-3564Y-7424D02*
X-3841D01*
Y-7740D01*
X-3564D01*
Y-7424D01*
D02*
G37*
G36*
X-4760Y-7434D02*
X-4977D01*
Y-7632D01*
X-4760D01*
Y-7434D01*
D02*
G37*
G36*
X-3168Y-7424D02*
X-3444D01*
Y-7740D01*
X-3168D01*
Y-7424D01*
D02*
G37*
G36*
X-5934Y-7073D02*
X-6132D01*
Y-7290D01*
X-5934D01*
Y-7073D01*
D02*
G37*
G36*
X4293Y-6810D02*
X4115D01*
Y-7027D01*
X4293D01*
Y-6810D01*
D02*
G37*
G36*
X3995D02*
X3817D01*
Y-7027D01*
X3995D01*
Y-6810D01*
D02*
G37*
G36*
X-9155Y-6530D02*
X-9395Y-6771D01*
X-9225Y-6940D01*
X-8985Y-6700D01*
X-9155Y-6530D01*
D02*
G37*
G36*
X3995Y-6473D02*
X3817D01*
Y-6690D01*
X3995D01*
Y-6473D01*
D02*
G37*
G36*
X-8575Y-6460D02*
X-8815Y-6700D01*
X-8645Y-6870D01*
X-8405Y-6629D01*
X-8575Y-6460D01*
D02*
G37*
G36*
X6130Y-6047D02*
X6010Y-6059D01*
X5895Y-6094D01*
X5789Y-6150D01*
X5697Y-6227D01*
X5620Y-6319D01*
X5564Y-6425D01*
X5529Y-6540D01*
X5517Y-6660D01*
X5529Y-6780D01*
X5564Y-6895D01*
X5620Y-7001D01*
X5697Y-7093D01*
X5789Y-7170D01*
X5895Y-7226D01*
X6010Y-7261D01*
X6130Y-7273D01*
X6250Y-7261D01*
X6365Y-7226D01*
X6471Y-7170D01*
X6563Y-7093D01*
X6640Y-7001D01*
X6696Y-6895D01*
X6731Y-6780D01*
X6743Y-6660D01*
X6731Y-6540D01*
X6696Y-6425D01*
X6640Y-6319D01*
X6563Y-6227D01*
X6471Y-6150D01*
X6365Y-6094D01*
X6250Y-6059D01*
X6130Y-6047D01*
D02*
G37*
G36*
X-5617Y-7073D02*
X-5814D01*
Y-7290D01*
X-5617D01*
Y-7073D01*
D02*
G37*
G36*
X-8900Y-6785D02*
X-9140Y-7025D01*
X-8971Y-7195D01*
X-8730Y-6955D01*
X-8900Y-6785D01*
D02*
G37*
G36*
X-3168Y-6760D02*
X-3444D01*
Y-7076D01*
X-3168D01*
Y-6760D01*
D02*
G37*
G36*
X-3564D02*
X-3841D01*
Y-7076D01*
X-3564D01*
Y-6760D01*
D02*
G37*
G36*
Y-7860D02*
X-3841D01*
Y-8176D01*
X-3564D01*
Y-7860D01*
D02*
G37*
G36*
Y-9624D02*
X-3841D01*
Y-9940D01*
X-3564D01*
Y-9624D01*
D02*
G37*
G36*
X3927Y-9836D02*
X3710D01*
Y-10033D01*
X3927D01*
Y-9836D01*
D02*
G37*
G36*
X-3168Y-9624D02*
X-3444D01*
Y-9940D01*
X-3168D01*
Y-9624D01*
D02*
G37*
G36*
X3277Y-9557D02*
X3060D01*
Y-9735D01*
X3277D01*
Y-9557D01*
D02*
G37*
G36*
X2940D02*
X2723D01*
Y-9735D01*
X2940D01*
Y-9557D01*
D02*
G37*
G36*
X-3168Y-10060D02*
X-3444D01*
Y-10376D01*
X-3168D01*
Y-10060D01*
D02*
G37*
G36*
X-3564D02*
X-3841D01*
Y-10376D01*
X-3564D01*
Y-10060D01*
D02*
G37*
G36*
X2940Y-9855D02*
X2723D01*
Y-10033D01*
X2940D01*
Y-9855D01*
D02*
G37*
G36*
X3590Y-9836D02*
X3373D01*
Y-10033D01*
X3590D01*
Y-9836D01*
D02*
G37*
G36*
X3277Y-9855D02*
X3060D01*
Y-10033D01*
X3277D01*
Y-9855D01*
D02*
G37*
G36*
X3590Y-9518D02*
X3373D01*
Y-9716D01*
X3590D01*
Y-9518D01*
D02*
G37*
G36*
X-3564Y-8524D02*
X-3841D01*
Y-8840D01*
X-3564D01*
Y-8524D01*
D02*
G37*
G36*
X-5142Y-8606D02*
X-5774D01*
Y-8942D01*
X-5142D01*
Y-8606D01*
D02*
G37*
G36*
X-3168Y-8524D02*
X-3444D01*
Y-8840D01*
X-3168D01*
Y-8524D01*
D02*
G37*
G36*
X-2499Y-7464D02*
X-3092D01*
Y-8136D01*
X-2691D01*
X-2611Y-8215D01*
X-2611D01*
X-2611Y-8215D01*
X-2611Y-8215D01*
Y-8215D01*
X-2558Y-8251D01*
X-2496Y-8263D01*
X-2010D01*
Y-8310D01*
X-1390D01*
Y-7890D01*
X-2010D01*
Y-7937D01*
X-2428D01*
X-2499Y-7866D01*
Y-7464D01*
D02*
G37*
G36*
X-1390Y-8390D02*
X-2010D01*
Y-8437D01*
X-2496D01*
X-2558Y-8449D01*
X-2611Y-8485D01*
X-2691Y-8564D01*
X-3092D01*
Y-9236D01*
X-2499D01*
Y-8834D01*
X-2428Y-8763D01*
X-2010D01*
Y-8810D01*
X-1390D01*
Y-8390D01*
D02*
G37*
G36*
Y-8890D02*
X-2010D01*
Y-9179D01*
X-2496Y-9666D01*
X-2499Y-9664D01*
Y-9664D01*
X-2499Y-9664D01*
X-3092D01*
Y-10336D01*
X-2499D01*
Y-10125D01*
X-2485Y-10115D01*
X-1679Y-9310D01*
X-1390D01*
Y-8890D01*
D02*
G37*
G36*
X3927Y-9518D02*
X3710D01*
Y-9716D01*
X3927D01*
Y-9518D01*
D02*
G37*
G36*
X-3564Y-8960D02*
X-3841D01*
Y-9276D01*
X-3564D01*
Y-8960D01*
D02*
G37*
G36*
X-9156Y-3212D02*
X-9827D01*
Y-3569D01*
X-9544D01*
X-9488Y-3625D01*
Y-4063D01*
X-9542D01*
Y-4537D01*
X-9488D01*
Y-4826D01*
X-9488Y-4826D01*
X-9488D01*
X-9475Y-4888D01*
X-9440Y-4941D01*
X-8931Y-5450D01*
X-9286Y-5805D01*
X-9379Y-5712D01*
X-9888Y-6221D01*
X-9521Y-6588D01*
X-9012Y-6079D01*
X-9055Y-6036D01*
X-8700Y-5681D01*
X-6915Y-7465D01*
X-6862Y-7501D01*
X-6800Y-7513D01*
X-6643D01*
Y-7587D01*
X-6589D01*
Y-7858D01*
X-6758D01*
Y-7888D01*
X-6926D01*
X-6979Y-7899D01*
X-7023Y-7929D01*
X-7147Y-8053D01*
X-7177Y-8097D01*
X-7188Y-8150D01*
Y-8650D01*
X-7188Y-8650D01*
X-7188D01*
X-7177Y-8703D01*
X-7147Y-8747D01*
X-7023Y-8871D01*
X-7023Y-8871D01*
X-6979Y-8901D01*
X-6926Y-8912D01*
X-6926Y-8912D01*
X-6758D01*
Y-8942D01*
X-6126D01*
Y-8608D01*
X-6086D01*
Y-8460D01*
X-6442D01*
Y-8340D01*
X-6086D01*
Y-8192D01*
X-6126D01*
Y-7858D01*
X-6262D01*
Y-7587D01*
X-6208D01*
Y-7113D01*
X-6643D01*
Y-7187D01*
X-6732D01*
X-8585Y-5335D01*
X-9161Y-4758D01*
Y-4537D01*
X-9107D01*
Y-4063D01*
X-9161D01*
Y-3569D01*
X-9156D01*
Y-3212D01*
D02*
G37*
G36*
X-3168Y-8960D02*
X-3444D01*
Y-9276D01*
X-3168D01*
Y-8960D01*
D02*
G37*
G36*
X10564Y564D02*
X10416D01*
Y524D01*
X10082D01*
D01*
D01*
X10082Y524D01*
X10044D01*
Y524D01*
X9708D01*
Y346D01*
X9253D01*
X9253Y346D01*
X9200Y335D01*
X9156Y305D01*
X9153Y303D01*
X8913D01*
Y-93D01*
X9387D01*
Y70D01*
X9708D01*
Y-108D01*
X10044D01*
Y-108D01*
X10044D01*
X10044Y-108D01*
X10082D01*
D01*
X10112Y-108D01*
Y-293D01*
X9240Y-1165D01*
X8990D01*
Y-2285D01*
X9610D01*
Y-1185D01*
X10347Y-447D01*
X10377Y-403D01*
X10388Y-350D01*
X10388Y-350D01*
X10388Y-350D01*
Y-350D01*
Y-148D01*
X10416D01*
Y-148D01*
X10564D01*
Y208D01*
Y564D01*
D02*
G37*
G36*
X10832D02*
X10684D01*
Y268D01*
X10832D01*
Y564D01*
D02*
G37*
G36*
X10793Y2587D02*
X10397D01*
Y2113D01*
X10486D01*
Y1508D01*
X10456D01*
Y876D01*
X10792D01*
Y1508D01*
X10762D01*
Y2113D01*
X10793D01*
Y2587D01*
D02*
G37*
G36*
X-9650Y1690D02*
X-10440D01*
Y1150D01*
X-9650D01*
Y1690D01*
D02*
G37*
G36*
X-10560D02*
X-11350D01*
Y1150D01*
X-10560D01*
Y1690D01*
D02*
G37*
G36*
X10832Y148D02*
X10684D01*
Y-148D01*
X10832D01*
Y148D01*
D02*
G37*
G36*
X-9936Y-1360D02*
X-10133D01*
Y-1577D01*
X-9936D01*
Y-1360D01*
D02*
G37*
G36*
X10650Y-1125D02*
X10360D01*
Y-1665D01*
X10650D01*
Y-1125D01*
D02*
G37*
G36*
X-9618Y-1360D02*
X-9816D01*
Y-1577D01*
X-9618D01*
Y-1360D01*
D02*
G37*
G36*
Y-1023D02*
X-9816D01*
Y-1240D01*
X-9618D01*
Y-1023D01*
D02*
G37*
G36*
X-9936D02*
X-10133D01*
Y-1240D01*
X-9936D01*
Y-1023D01*
D02*
G37*
G36*
X10119Y4714D02*
X9823D01*
Y4556D01*
X10119D01*
Y4714D01*
D02*
G37*
G36*
X9703D02*
X9407D01*
Y4556D01*
X9703D01*
Y4714D01*
D02*
G37*
G36*
Y4992D02*
X9407D01*
Y4834D01*
X9703D01*
Y4992D01*
D02*
G37*
G36*
X-6130Y7273D02*
X-6250Y7261D01*
X-6365Y7226D01*
X-6471Y7170D01*
X-6563Y7093D01*
X-6640Y7001D01*
X-6696Y6895D01*
X-6731Y6780D01*
X-6743Y6660D01*
X-6731Y6540D01*
X-6696Y6425D01*
X-6640Y6319D01*
X-6563Y6227D01*
X-6471Y6150D01*
X-6365Y6094D01*
X-6250Y6059D01*
X-6130Y6047D01*
X-6010Y6059D01*
X-5895Y6094D01*
X-5789Y6150D01*
X-5697Y6227D01*
X-5620Y6319D01*
X-5564Y6425D01*
X-5529Y6540D01*
X-5517Y6660D01*
X-5529Y6780D01*
X-5564Y6895D01*
X-5620Y7001D01*
X-5697Y7093D01*
X-5789Y7170D01*
X-5895Y7226D01*
X-6010Y7261D01*
X-6130Y7273D01*
D02*
G37*
G36*
X10119Y4992D02*
X9823D01*
Y4834D01*
X10119D01*
Y4992D01*
D02*
G37*
G36*
X5358Y5625D02*
X5224Y5612D01*
X5095Y5573D01*
X4976Y5509D01*
X4872Y5424D01*
X4786Y5319D01*
X4722Y5200D01*
X4683Y5071D01*
X4670Y4937D01*
X4683Y4803D01*
X4722Y4674D01*
X4786Y4555D01*
X4872Y4450D01*
X4976Y4365D01*
X5095Y4301D01*
X5224Y4262D01*
X5358Y4249D01*
X5493Y4262D01*
X5622Y4301D01*
X5741Y4365D01*
X5845Y4450D01*
X5931Y4555D01*
X5994Y4674D01*
X6033Y4803D01*
X6047Y4937D01*
X6033Y5071D01*
X5994Y5200D01*
X5931Y5319D01*
X5845Y5424D01*
X5741Y5509D01*
X5622Y5573D01*
X5493Y5612D01*
X5358Y5625D01*
D02*
G37*
G36*
X-10560Y2350D02*
X-11350D01*
Y1810D01*
X-10560D01*
Y2350D01*
D02*
G37*
G36*
X10044Y1508D02*
X9708D01*
Y1330D01*
X9342D01*
X9342Y1330D01*
X9289Y1319D01*
X9245Y1289D01*
X9245Y1289D01*
X9053Y1097D01*
X9023Y1053D01*
X9012Y1000D01*
Y893D01*
X8913D01*
Y833D01*
X8695D01*
X8695Y833D01*
X8643Y822D01*
X8598Y793D01*
X8053Y247D01*
X8023Y203D01*
X8012Y150D01*
Y-6243D01*
X6398Y-7858D01*
X4887D01*
Y-7797D01*
X4644D01*
X4607Y-7773D01*
X4555Y-7762D01*
X4042D01*
Y-7734D01*
X4042D01*
Y-7527D01*
X4413D01*
Y-7603D01*
X4887D01*
Y-7207D01*
X4772D01*
Y-6987D01*
X4843D01*
Y-6513D01*
X4447D01*
Y-6987D01*
X4528D01*
Y-7207D01*
X4413D01*
Y-7282D01*
X4042D01*
Y-7221D01*
X3708D01*
Y-7181D01*
X3560D01*
Y-7478D01*
X3440D01*
Y-7181D01*
X3292D01*
Y-7221D01*
X2958D01*
Y-7314D01*
X1422D01*
X1360Y-7327D01*
X1307Y-7362D01*
X1279Y-7390D01*
X990D01*
Y-7810D01*
X1137D01*
Y-7890D01*
X990D01*
Y-8310D01*
X1137D01*
Y-8390D01*
X990D01*
Y-8810D01*
X1137D01*
Y-8890D01*
X990D01*
Y-9310D01*
X1610D01*
Y-8890D01*
X1463D01*
Y-8810D01*
X1610D01*
Y-8390D01*
X1463D01*
Y-8310D01*
X1610D01*
Y-7890D01*
X1463D01*
Y-7810D01*
X1610D01*
Y-7641D01*
X2958D01*
Y-7734D01*
D01*
Y-7734D01*
X2930Y-7762D01*
X2550D01*
X2497Y-7773D01*
X2453Y-7803D01*
X2253Y-8003D01*
X2223Y-8047D01*
X2212Y-8100D01*
Y-8357D01*
X2113D01*
Y-8753D01*
X2587D01*
Y-8357D01*
X2488D01*
Y-8157D01*
X2607Y-8038D01*
X3362D01*
Y-8166D01*
X3332Y-8166D01*
D01*
X3294D01*
Y-8166D01*
X2958D01*
Y-8679D01*
X3004D01*
Y-9007D01*
X2763D01*
Y-9082D01*
X2587D01*
Y-8947D01*
X2113D01*
Y-9343D01*
X2587D01*
Y-9327D01*
X2763D01*
Y-9403D01*
X3237D01*
Y-9128D01*
X3239Y-9126D01*
X3248Y-9079D01*
Y-8679D01*
X3294Y-8679D01*
D01*
D01*
X3332D01*
D01*
X3362Y-8679D01*
Y-9074D01*
X3362Y-9074D01*
X3362D01*
X3373Y-9127D01*
X3403Y-9172D01*
X3413Y-9182D01*
Y-9442D01*
X3887D01*
Y-9362D01*
X4067D01*
X4112Y-9407D01*
Y-10193D01*
X3693Y-10612D01*
X-3943D01*
X-4562Y-9993D01*
Y-8143D01*
X-4463D01*
Y-7708D01*
X-4937D01*
Y-7888D01*
X-5142D01*
Y-7858D01*
X-5774D01*
Y-8194D01*
X-5142D01*
Y-8164D01*
X-4838D01*
Y-10050D01*
X-4838Y-10050D01*
X-4838D01*
X-4827Y-10103D01*
X-4797Y-10147D01*
X-4097Y-10847D01*
X-4053Y-10877D01*
X-4000Y-10888D01*
X3750D01*
X3803Y-10877D01*
X3847Y-10847D01*
X4347Y-10347D01*
X4377Y-10303D01*
X4388Y-10250D01*
X4388Y-10250D01*
Y-9350D01*
X4377Y-9297D01*
X4347Y-9253D01*
X4347Y-9253D01*
X4222Y-9127D01*
X4177Y-9097D01*
X4124Y-9087D01*
X3887D01*
Y-9007D01*
X3638D01*
Y-8679D01*
X3668Y-8679D01*
D01*
D01*
X3706D01*
Y-8679D01*
X3936D01*
X4104Y-8847D01*
X4104Y-8847D01*
X4131Y-8865D01*
X4149Y-8877D01*
X4202Y-8888D01*
X6800D01*
X6853Y-8877D01*
X6897Y-8847D01*
X9397Y-6347D01*
X9427Y-6303D01*
X9438Y-6250D01*
X9438Y-6250D01*
X9438Y-6250D01*
Y-6250D01*
Y-4435D01*
X9610D01*
Y-3315D01*
X8990D01*
Y-4435D01*
X9162D01*
Y-6193D01*
X6743Y-8612D01*
X4259D01*
X4042Y-8396D01*
Y-8166D01*
X3706D01*
D01*
D01*
X3706Y-8166D01*
X3668D01*
D01*
X3638Y-8166D01*
Y-8038D01*
X4413D01*
Y-8193D01*
X4887D01*
Y-8133D01*
X6455D01*
X6507Y-8122D01*
X6552Y-8093D01*
X8247Y-6397D01*
X8247Y-6397D01*
X8265Y-6371D01*
X8277Y-6353D01*
X8288Y-6300D01*
X8288Y-6300D01*
X8288Y-6300D01*
Y-6300D01*
Y93D01*
X8752Y558D01*
X8913D01*
Y497D01*
X9387D01*
Y893D01*
X9288D01*
Y943D01*
X9399Y1054D01*
X9708D01*
Y876D01*
X10044D01*
Y1508D01*
D02*
G37*
G36*
X-9650Y2350D02*
X-10440D01*
Y1810D01*
X-9650D01*
Y2350D01*
D02*
G37*
G36*
X7677Y5732D02*
X7550Y5720D01*
X7427Y5683D01*
X7314Y5622D01*
X7215Y5541D01*
X7134Y5442D01*
X7073Y5329D01*
X7036Y5206D01*
X7023Y5079D01*
Y3110D01*
X7036Y2983D01*
X7073Y2860D01*
X7134Y2747D01*
X7215Y2648D01*
X7314Y2567D01*
X7427Y2506D01*
X7550Y2469D01*
X7677Y2457D01*
X7805Y2469D01*
X7927Y2506D01*
X8040Y2567D01*
X8139Y2648D01*
X8221Y2747D01*
X8281Y2860D01*
X8318Y2983D01*
X8331Y3110D01*
Y4186D01*
X8937D01*
X9019Y4202D01*
X9048Y4222D01*
X9253D01*
Y4578D01*
X9048D01*
X9019Y4598D01*
X8937Y4614D01*
X8331D01*
Y5079D01*
X8318Y5206D01*
X8281Y5329D01*
X8221Y5442D01*
X8139Y5541D01*
X8040Y5622D01*
X7927Y5683D01*
X7805Y5720D01*
X7677Y5732D01*
D02*
G37*
G36*
X10079Y4204D02*
X9447D01*
Y3848D01*
X9711D01*
X9842Y3717D01*
Y2587D01*
X9807D01*
Y2113D01*
X10203D01*
Y2587D01*
X10168D01*
Y3785D01*
X10155Y3847D01*
X10120Y3900D01*
X10079Y3941D01*
Y4204D01*
D02*
G37*
G36*
X-9618Y-4360D02*
X-9816D01*
Y-4577D01*
X-9618D01*
Y-4360D01*
D02*
G37*
G36*
X-9936D02*
X-10133D01*
Y-4577D01*
X-9936D01*
Y-4360D01*
D02*
G37*
G36*
X10240Y-3935D02*
X9950D01*
Y-4475D01*
X10240D01*
Y-3935D01*
D02*
G37*
G36*
X4391Y4391D02*
X-4391D01*
Y-4391D01*
X4391D01*
Y4391D01*
D02*
G37*
G36*
X10650Y-3935D02*
X10360D01*
Y-4475D01*
X10650D01*
Y-3935D01*
D02*
G37*
G36*
X-5358Y-4249D02*
X-5493Y-4262D01*
X-5622Y-4301D01*
X-5741Y-4365D01*
X-5845Y-4450D01*
X-5931Y-4555D01*
X-5994Y-4674D01*
X-6033Y-4803D01*
X-6047Y-4937D01*
X-6033Y-5071D01*
X-5994Y-5200D01*
X-5931Y-5319D01*
X-5845Y-5424D01*
X-5741Y-5509D01*
X-5622Y-5573D01*
X-5493Y-5612D01*
X-5358Y-5625D01*
X-5224Y-5612D01*
X-5095Y-5573D01*
X-4976Y-5509D01*
X-4872Y-5424D01*
X-4786Y-5319D01*
X-4722Y-5200D01*
X-4683Y-5071D01*
X-4670Y-4937D01*
X-4683Y-4803D01*
X-4722Y-4674D01*
X-4786Y-4555D01*
X-4872Y-4450D01*
X-4976Y-4365D01*
X-5095Y-4301D01*
X-5224Y-4262D01*
X-5358Y-4249D01*
D02*
G37*
G36*
X-3564Y-6324D02*
X-3841D01*
Y-6640D01*
X-3564D01*
Y-6324D01*
D02*
G37*
G36*
X4293Y-6473D02*
X4115D01*
Y-6690D01*
X4293D01*
Y-6473D01*
D02*
G37*
G36*
X-3168Y-6324D02*
X-3444D01*
Y-6640D01*
X-3168D01*
Y-6324D01*
D02*
G37*
G36*
X-9690Y560D02*
X-11310D01*
Y-560D01*
X-9690D01*
Y-214D01*
X-9488D01*
Y-1063D01*
X-9542D01*
Y-1537D01*
X-9488D01*
Y-1975D01*
X-9544Y-2031D01*
X-9827D01*
Y-2388D01*
X-9156D01*
Y-2031D01*
X-9161D01*
Y-1537D01*
X-9107D01*
Y-1063D01*
X-9161D01*
Y-214D01*
X-8039D01*
X-7891Y-362D01*
Y-2495D01*
X-7927Y-2506D01*
X-8040Y-2567D01*
X-8139Y-2648D01*
X-8221Y-2747D01*
X-8281Y-2860D01*
X-8318Y-2983D01*
X-8331Y-3110D01*
Y-5079D01*
X-8318Y-5206D01*
X-8281Y-5329D01*
X-8221Y-5442D01*
X-8139Y-5541D01*
X-8040Y-5622D01*
X-7927Y-5683D01*
X-7805Y-5720D01*
X-7677Y-5732D01*
X-7550Y-5720D01*
X-7427Y-5683D01*
X-7314Y-5622D01*
X-7215Y-5541D01*
X-7134Y-5442D01*
X-7073Y-5329D01*
X-7036Y-5206D01*
X-7023Y-5079D01*
Y-3110D01*
X-7036Y-2983D01*
X-7073Y-2860D01*
X-7134Y-2747D01*
X-7215Y-2648D01*
X-7314Y-2567D01*
X-7427Y-2506D01*
X-7463Y-2495D01*
Y-273D01*
X-7479Y-191D01*
X-7526Y-121D01*
X-7799Y151D01*
X-7868Y198D01*
X-7950Y214D01*
X-9690D01*
Y560D01*
D02*
G37*
G36*
X-8829Y-6205D02*
X-9070Y-6445D01*
X-8900Y-6615D01*
X-8660Y-6375D01*
X-8829Y-6205D01*
D02*
G37*
G36*
X-9116Y-2582D02*
X-9510D01*
Y-2740D01*
X-9116D01*
Y-2582D01*
D02*
G37*
G36*
X-9630D02*
X-10024D01*
Y-2582D01*
X-9924Y-2682D01*
Y-2740D01*
X-9630D01*
Y-2582D01*
D02*
G37*
G36*
X10240Y-1785D02*
X9950D01*
Y-2325D01*
X10240D01*
Y-1785D01*
D02*
G37*
G36*
Y-1125D02*
X9950D01*
Y-1665D01*
X10240D01*
Y-1125D01*
D02*
G37*
G36*
X10650Y-1785D02*
X10360D01*
Y-2325D01*
X10650D01*
Y-1785D01*
D02*
G37*
G36*
X-9116Y-2860D02*
X-9510D01*
Y-3018D01*
X-9116D01*
Y-2860D01*
D02*
G37*
G36*
X-9618Y-4023D02*
X-9816D01*
Y-4240D01*
X-9618D01*
Y-4023D01*
D02*
G37*
G36*
X-9936D02*
X-10133D01*
Y-4240D01*
X-9936D01*
Y-4023D01*
D02*
G37*
G36*
X10240Y-3275D02*
X9950D01*
Y-3815D01*
X10240D01*
Y-3275D01*
D02*
G37*
G36*
X-9630Y-2860D02*
X-9924D01*
Y-2918D01*
X-10024Y-3018D01*
Y-3018D01*
X-9630D01*
Y-2860D01*
D02*
G37*
G36*
X10650Y-3275D02*
X10360D01*
Y-3815D01*
X10650D01*
Y-3275D01*
D02*
G37*
%LPD*%
D10*
X-1700Y-9100D02*
D03*
Y-8600D02*
D03*
Y-8100D02*
D03*
Y-7600D02*
D03*
X1300D02*
D03*
Y-8100D02*
D03*
Y-8600D02*
D03*
Y-9100D02*
D03*
D11*
X-9491Y-2209D02*
D03*
Y-3391D02*
D03*
D12*
X-9570Y-2800D02*
D03*
D13*
X-6426Y-7350D02*
D03*
X-5874D02*
D03*
X-9324Y-4300D02*
D03*
X-9876D02*
D03*
X-9324Y-1300D02*
D03*
X-9876D02*
D03*
D14*
X10300Y-1725D02*
D03*
Y-3875D02*
D03*
X9300Y-1725D02*
D03*
Y-3875D02*
D03*
D15*
X-5458Y-8026D02*
D03*
Y-8774D02*
D03*
X-6442D02*
D03*
Y-8400D02*
D03*
Y-8026D02*
D03*
D16*
X-4700Y-7926D02*
D03*
Y-7374D02*
D03*
X3650Y-9224D02*
D03*
Y-9776D02*
D03*
D17*
X-2796Y-10000D02*
D03*
X-3504D02*
D03*
X-2796Y-8900D02*
D03*
X-3504D02*
D03*
X-2796Y-7800D02*
D03*
X-3504D02*
D03*
X-2796Y-6700D02*
D03*
X-3504D02*
D03*
D18*
X2350Y-8555D02*
D03*
Y-9145D02*
D03*
X3000Y-9205D02*
D03*
Y-9795D02*
D03*
X4650Y-7995D02*
D03*
Y-7405D02*
D03*
X9150Y695D02*
D03*
Y105D02*
D03*
D19*
X3874Y-7478D02*
D03*
X3500D02*
D03*
X3126D02*
D03*
Y-8422D02*
D03*
X3500D02*
D03*
X3874D02*
D03*
D20*
X4645Y-6750D02*
D03*
X4055D02*
D03*
X10595Y2350D02*
D03*
X10005D02*
D03*
D21*
X9876Y1192D02*
D03*
X10624D02*
D03*
Y208D02*
D03*
X10250D02*
D03*
X9876D02*
D03*
D22*
X8937Y4400D02*
D03*
X9763Y4774D02*
D03*
Y4026D02*
D03*
D23*
X-10500Y1750D02*
D03*
Y0D02*
D03*
D24*
X-9450Y-6150D02*
D03*
X-8900Y-6700D02*
D03*
D25*
X-7677Y-4094D02*
D03*
X7677Y4094D02*
D03*
D26*
X0Y0D02*
D03*
D27*
X4650Y-7405D02*
Y-6755D01*
X3126Y-9079D02*
Y-8422D01*
X3000Y-9205D02*
X3126Y-9079D01*
X2350Y-9205D02*
X3000D01*
X2350Y-9205D02*
X2350Y-9205D01*
X3874Y-7478D02*
X3947Y-7405D01*
X4650D01*
D28*
X-9324Y-2043D02*
Y-1300D01*
X-9491Y-2209D02*
X-9324Y-2043D01*
X-9491Y-3391D02*
X-9324Y-3557D01*
Y-4300D02*
Y-3557D01*
X-6426Y-8009D02*
Y-7350D01*
X-2796Y-10000D02*
X-2600D01*
X-1700Y-9100D01*
X-2796Y-8900D02*
X-2496Y-8600D01*
X-1700D01*
X-2796Y-7800D02*
X-2496Y-8100D01*
X-1700D01*
X-2796Y-6700D02*
X-2600D01*
X-1700Y-7600D01*
X1300Y-9100D02*
Y-8600D01*
Y-8100D01*
Y-7600D01*
X1422Y-7478D01*
X3126D01*
X-9324Y-4826D02*
Y-4300D01*
X-6800Y-7350D02*
X-6426D01*
X-9324Y-4826D02*
X-8700Y-5450D01*
X-6800Y-7350D01*
X-9450Y-6150D02*
X-9400D01*
X-8700Y-5450D01*
X10005Y2350D02*
Y3785D01*
X9763Y4026D02*
X10005Y3785D01*
X-9324Y-1300D02*
Y-24D01*
X-9300Y0D01*
D29*
X-5458Y-8026D02*
X-4800D01*
X-4700Y-7926D01*
Y-10050D02*
Y-7926D01*
X4250Y-10250D02*
Y-9350D01*
X4124Y-9224D02*
X4250Y-9350D01*
X3650Y-9224D02*
X4124D01*
X3500Y-9074D02*
Y-8422D01*
Y-9074D02*
X3650Y-9224D01*
X9342Y1192D02*
X9876D01*
X9150Y1000D02*
X9342Y1192D01*
X9150Y695D02*
Y1000D01*
X3500Y-8422D02*
Y-7950D01*
X2550Y-7900D02*
X4555D01*
X4650Y-7995D01*
X3874Y-8422D02*
X4202Y-8750D01*
X6800D01*
X9300Y-6250D01*
Y-3875D01*
Y-1725D02*
Y-1300D01*
X10250Y-350D01*
Y208D01*
X9253D02*
X9876D01*
X9150Y105D02*
X9253Y208D01*
X10624Y1192D02*
Y2321D01*
X-4700Y-10050D02*
X-4000Y-10750D01*
X3750D01*
X4250Y-10250D01*
X2350Y-8555D02*
Y-8100D01*
X2550Y-7900D01*
X4650Y-7995D02*
X6455D01*
X8150Y-6300D01*
Y150D01*
X8695Y695D01*
X9150D01*
X-6926Y-8026D02*
X-6442D01*
X-7050Y-8150D02*
X-6926Y-8026D01*
X-7050Y-8650D02*
Y-8150D01*
Y-8650D02*
X-6926Y-8774D01*
X-6442D01*
D30*
X7983Y4400D02*
X8937D01*
X7677Y4094D02*
X7983Y4400D01*
X-7950Y0D02*
X-7677Y-273D01*
Y-4094D02*
Y-273D01*
X-10500Y0D02*
X-9300D01*
X-7950D01*
D31*
X-5358Y-4937D02*
D03*
X5358Y4937D02*
D03*
D32*
X6130Y-6660D02*
D03*
X-6130Y6660D02*
D03*
D33*
X0Y0D02*
D03*
X787D02*
D03*
X1575D02*
D03*
X2362D02*
D03*
X-787D02*
D03*
X-1575D02*
D03*
X-2362D02*
D03*
Y787D02*
D03*
X-1575D02*
D03*
X-787D02*
D03*
X2362D02*
D03*
X1575D02*
D03*
X787D02*
D03*
X0D02*
D03*
X-2362Y1575D02*
D03*
X-1575D02*
D03*
X-787D02*
D03*
X2362D02*
D03*
X1575D02*
D03*
X787D02*
D03*
X0D02*
D03*
X-2362Y-787D02*
D03*
X-1575D02*
D03*
X-787D02*
D03*
X2362D02*
D03*
X1575D02*
D03*
X787D02*
D03*
X0D02*
D03*
X-2362Y-1575D02*
D03*
X-1575D02*
D03*
X-787D02*
D03*
X2362D02*
D03*
X1575D02*
D03*
X787D02*
D03*
X0D02*
D03*
X-2362Y-2362D02*
D03*
X-1575D02*
D03*
X-787D02*
D03*
X2362D02*
D03*
X1575D02*
D03*
X787D02*
D03*
X0D02*
D03*
X-2362Y2362D02*
D03*
X-1575D02*
D03*
X-787D02*
D03*
X2362D02*
D03*
X1575D02*
D03*
X787D02*
D03*
X0D02*
D03*
M02*
