G04 Layer_Physical_Order=4*
G04 Layer_Color=16711680*
%FSLAX24Y24*%
%MOIN*%
G70*
G01*
G75*
%ADD10R,0.0157X0.0236*%
%ADD14R,0.0354X0.0197*%
%ADD19R,0.0236X0.0157*%
%ADD41C,0.0080*%
%ADD42C,0.0120*%
%ADD46C,0.0630*%
%ADD47C,0.0390*%
%ADD48C,0.0200*%
%ADD49C,0.0217*%
%ADD50C,0.0197*%
%ADD51C,0.0260*%
%ADD52C,0.0240*%
%ADD53C,0.0315*%
%ADD54R,0.0579X0.0291*%
%ADD55O,0.0098X0.0315*%
%ADD56R,0.1299X0.1299*%
%ADD57O,0.0315X0.0098*%
%ADD58R,0.0630X0.0394*%
G36*
X-12650Y-1349D02*
X-12700Y-1364D01*
X-12706Y-1356D01*
X-12772Y-1312D01*
X-12790Y-1308D01*
Y-1500D01*
Y-1692D01*
X-12772Y-1688D01*
X-12716Y-1651D01*
X-12673Y-1660D01*
X-12660Y-1666D01*
X-12651Y-1688D01*
X-12663Y-1750D01*
X-12651Y-1812D01*
X-12650Y-1813D01*
Y-1921D01*
X-12690Y-1949D01*
Y-2150D01*
Y-2351D01*
X-12650Y-2379D01*
Y-2500D01*
X-15300D01*
Y-400D01*
X-14765D01*
Y-456D01*
X-14066D01*
Y-400D01*
X-13529D01*
X-13494Y-435D01*
Y-454D01*
X-13494Y-456D01*
X-13497Y-504D01*
X-13534D01*
Y-690D01*
X-12755D01*
Y-504D01*
X-12792D01*
X-12795Y-456D01*
X-12795Y-454D01*
Y-400D01*
X-12650D01*
Y-1349D01*
D02*
G37*
G36*
X515Y7861D02*
X1028Y7810D01*
X1537Y7726D01*
X2000Y7618D01*
Y4611D01*
X1957Y4594D01*
Y4594D01*
X1735D01*
X1670Y4659D01*
Y5512D01*
X1686D01*
Y5868D01*
X1408D01*
Y5512D01*
X1425D01*
Y4608D01*
X1424Y4608D01*
X950D01*
X919Y4658D01*
X924Y4682D01*
X915Y4725D01*
X912Y4730D01*
X920Y4771D01*
X952Y4819D01*
X704D01*
Y4939D01*
X952D01*
X920Y4987D01*
X871Y5020D01*
X833Y5027D01*
X813Y5074D01*
X813Y5081D01*
X840Y5120D01*
X854Y5190D01*
X840Y5260D01*
X800Y5320D01*
X740Y5360D01*
X670Y5374D01*
X600Y5360D01*
X561Y5334D01*
X553Y5332D01*
X505Y5342D01*
X498Y5346D01*
X488Y5361D01*
X452Y5385D01*
X409Y5394D01*
X366Y5385D01*
X364Y5384D01*
X314Y5411D01*
Y5522D01*
X320Y5527D01*
X382Y5539D01*
X435Y5575D01*
X471Y5628D01*
X483Y5690D01*
X471Y5752D01*
X456Y5774D01*
X483Y5824D01*
X498D01*
Y6102D01*
X142D01*
Y5824D01*
X157D01*
X184Y5774D01*
X169Y5752D01*
X157Y5690D01*
X160Y5674D01*
X140Y5654D01*
X131Y5641D01*
X124Y5637D01*
X77Y5632D01*
X71Y5634D01*
X30Y5674D01*
X33Y5690D01*
X21Y5752D01*
X6Y5774D01*
X33Y5824D01*
X48D01*
Y6102D01*
X-308D01*
Y5824D01*
X-293D01*
X-266Y5774D01*
X-281Y5752D01*
X-293Y5690D01*
X-281Y5628D01*
X-245Y5575D01*
X-192Y5539D01*
X-130Y5527D01*
X-126Y5528D01*
X-87Y5493D01*
Y5411D01*
X-137Y5384D01*
X-139Y5385D01*
X-182Y5394D01*
X-224Y5385D01*
X-246Y5371D01*
X-280Y5365D01*
X-314Y5371D01*
X-336Y5385D01*
X-378Y5394D01*
X-421Y5385D01*
X-443Y5371D01*
X-477Y5365D01*
X-511Y5371D01*
X-533Y5385D01*
X-575Y5394D01*
X-618Y5385D01*
X-640Y5371D01*
X-674Y5365D01*
X-708Y5371D01*
X-730Y5385D01*
X-772Y5394D01*
X-815Y5385D01*
X-837Y5371D01*
X-871Y5365D01*
X-905Y5371D01*
X-926Y5385D01*
X-969Y5394D01*
X-1012Y5385D01*
X-1048Y5361D01*
X-1072Y5325D01*
X-1080Y5283D01*
Y5066D01*
X-1072Y5023D01*
X-1061Y5007D01*
X-1097Y4971D01*
X-1113Y4982D01*
X-1156Y4990D01*
X-1373D01*
X-1415Y4982D01*
X-1451Y4958D01*
X-1475Y4922D01*
X-1484Y4879D01*
X-1475Y4836D01*
X-1461Y4815D01*
X-1455Y4781D01*
X-1461Y4747D01*
X-1475Y4725D01*
X-1484Y4682D01*
X-1475Y4640D01*
X-1461Y4618D01*
X-1455Y4584D01*
X-1461Y4550D01*
X-1475Y4528D01*
X-1484Y4485D01*
X-1475Y4443D01*
X-1461Y4421D01*
X-1455Y4387D01*
X-1461Y4353D01*
X-1475Y4331D01*
X-1484Y4288D01*
X-1475Y4246D01*
X-1472Y4241D01*
X-1480Y4199D01*
X-1512Y4152D01*
X-1264D01*
Y4032D01*
X-1512D01*
X-1480Y3984D01*
X-1472Y3943D01*
X-1475Y3937D01*
X-1484Y3895D01*
X-1475Y3852D01*
X-1474Y3850D01*
X-1501Y3800D01*
X-1556D01*
X-1640Y3884D01*
X-1637Y3900D01*
X-1649Y3962D01*
X-1685Y4015D01*
X-1738Y4051D01*
X-1800Y4063D01*
X-1862Y4051D01*
X-1915Y4015D01*
X-1951Y3962D01*
X-1963Y3900D01*
X-1960Y3884D01*
X-2004Y3840D01*
X-2050Y3860D01*
Y5957D01*
X-2011Y5989D01*
X-2000Y5987D01*
X-1938Y5999D01*
X-1885Y6035D01*
X-1849Y6088D01*
X-1837Y6150D01*
X-1840Y6166D01*
X-1758Y6248D01*
X-1245D01*
X-1206Y6256D01*
X-1173Y6278D01*
X-753Y6698D01*
X-235D01*
X-231Y6678D01*
X-195Y6625D01*
X-182Y6616D01*
Y6456D01*
X-308D01*
Y6178D01*
X48D01*
Y6456D01*
X22D01*
Y6616D01*
X35Y6625D01*
X69Y6675D01*
X90Y6678D01*
X100D01*
X121Y6675D01*
X155Y6625D01*
X168Y6616D01*
Y6456D01*
X142D01*
Y6178D01*
X498D01*
Y6456D01*
X372D01*
Y6616D01*
X385Y6625D01*
X421Y6678D01*
X433Y6740D01*
X421Y6802D01*
X385Y6855D01*
X332Y6891D01*
X270Y6903D01*
X245Y6898D01*
X92Y7052D01*
X58Y7074D01*
X19Y7082D01*
X-863D01*
X-880Y7098D01*
X-898Y7127D01*
X-876Y7182D01*
X-869Y7230D01*
X-1220D01*
Y6879D01*
X-1180Y6885D01*
X-1164Y6865D01*
X-1155Y6840D01*
X-1392Y6602D01*
X-1880D01*
X-1889Y6615D01*
X-1942Y6651D01*
X-2005Y6663D01*
X-2011Y6662D01*
X-2050Y6694D01*
Y7606D01*
X-2039Y7609D01*
X-1537Y7726D01*
X-1028Y7810D01*
X-515Y7861D01*
X0Y7877D01*
X515Y7861D01*
D02*
G37*
G36*
X-13900Y1394D02*
X-13922Y1372D01*
X-13944Y1339D01*
X-13952Y1300D01*
Y450D01*
X-14018D01*
X-14023Y456D01*
X-14026Y504D01*
X-14026D01*
Y690D01*
X-14805D01*
Y504D01*
X-14805D01*
X-14809Y456D01*
X-14814Y450D01*
X-15600D01*
Y1700D01*
X-13900D01*
Y1394D01*
D02*
G37*
G36*
X13650Y602D02*
X13534D01*
Y690D01*
X12755D01*
Y602D01*
X11850D01*
Y1748D01*
X12216D01*
X12216Y1748D01*
X12284D01*
X12284Y1748D01*
X12766D01*
X12766Y1748D01*
X12834D01*
X12834Y1748D01*
X13650D01*
Y602D01*
D02*
G37*
G36*
X1002Y4173D02*
X1220D01*
Y4113D01*
X1280D01*
Y3934D01*
X1438Y3934D01*
X1441Y3905D01*
X1720D01*
Y3845D01*
X1780D01*
Y3646D01*
X1997Y3646D01*
X2000Y3597D01*
Y2700D01*
X600D01*
X574Y2750D01*
X588Y2772D01*
X592Y2790D01*
X400D01*
Y2910D01*
X592D01*
X588Y2928D01*
X544Y2994D01*
X521Y3010D01*
X512Y3055D01*
X520Y3097D01*
Y3314D01*
X520Y3317D01*
X563Y3355D01*
X596Y3349D01*
X644D01*
Y3501D01*
X704D01*
Y3561D01*
X952D01*
X920Y3609D01*
X912Y3650D01*
X915Y3655D01*
X924Y3698D01*
X915Y3740D01*
X891Y3777D01*
Y3816D01*
X915Y3852D01*
X924Y3895D01*
X915Y3937D01*
X891Y3973D01*
Y4013D01*
X915Y4049D01*
X924Y4092D01*
X915Y4134D01*
X912Y4139D01*
X913Y4147D01*
X941Y4186D01*
X1002D01*
Y4173D01*
D02*
G37*
%LPC*%
G36*
X13534Y996D02*
X13204D01*
Y810D01*
X13534D01*
Y996D01*
D02*
G37*
G36*
X12190Y1040D02*
X12058D01*
X12062Y1022D01*
X12106Y956D01*
X12172Y912D01*
X12190Y908D01*
Y1040D01*
D02*
G37*
G36*
X12442D02*
X12310D01*
Y908D01*
X12328Y912D01*
X12394Y956D01*
X12438Y1022D01*
X12442Y1040D01*
D02*
G37*
G36*
X12997D02*
X12608D01*
X12612Y1022D01*
X12656Y956D01*
X12722Y912D01*
X12755Y905D01*
Y810D01*
X13084D01*
Y996D01*
X13026D01*
X12997Y1040D01*
D02*
G37*
G36*
X-14476Y996D02*
X-14805D01*
Y810D01*
X-14476D01*
Y996D01*
D02*
G37*
G36*
X-14026D02*
X-14356D01*
Y810D01*
X-14026D01*
Y996D01*
D02*
G37*
G36*
X-12810Y-2210D02*
X-12942D01*
X-12938Y-2228D01*
X-12894Y-2294D01*
X-12828Y-2338D01*
X-12810Y-2342D01*
Y-2210D01*
D02*
G37*
G36*
X-15360Y1042D02*
X-15378Y1038D01*
X-15444Y994D01*
X-15488Y928D01*
X-15492Y910D01*
X-15360D01*
Y1042D01*
D02*
G37*
G36*
X-14658Y1290D02*
X-14790D01*
Y1158D01*
X-14772Y1162D01*
X-14706Y1206D01*
X-14662Y1272D01*
X-14658Y1290D01*
D02*
G37*
G36*
X-14460D02*
X-14592D01*
X-14588Y1272D01*
X-14544Y1206D01*
X-14478Y1162D01*
X-14460Y1158D01*
Y1290D01*
D02*
G37*
G36*
X-14208D02*
X-14340D01*
Y1158D01*
X-14322Y1162D01*
X-14256Y1206D01*
X-14212Y1272D01*
X-14208Y1290D01*
D02*
G37*
G36*
X-14910D02*
X-15042D01*
X-15038Y1272D01*
X-14994Y1206D01*
X-14928Y1162D01*
X-14910Y1158D01*
Y1290D01*
D02*
G37*
G36*
X-15240Y1042D02*
Y910D01*
X-15108D01*
X-15112Y928D01*
X-15156Y994D01*
X-15222Y1038D01*
X-15240Y1042D01*
D02*
G37*
G36*
X-15360Y1290D02*
X-15492D01*
X-15488Y1272D01*
X-15444Y1206D01*
X-15378Y1162D01*
X-15360Y1158D01*
Y1290D01*
D02*
G37*
G36*
X-15108D02*
X-15240D01*
Y1158D01*
X-15222Y1162D01*
X-15156Y1206D01*
X-15112Y1272D01*
X-15108Y1290D01*
D02*
G37*
G36*
Y790D02*
X-15240D01*
Y658D01*
X-15222Y662D01*
X-15156Y706D01*
X-15112Y772D01*
X-15108Y790D01*
D02*
G37*
G36*
X-13660Y-1908D02*
X-13678Y-1912D01*
X-13744Y-1956D01*
X-13788Y-2022D01*
X-13792Y-2040D01*
X-13660D01*
Y-1908D01*
D02*
G37*
G36*
X-14510Y-1358D02*
X-14528Y-1362D01*
X-14594Y-1406D01*
X-14638Y-1472D01*
X-14642Y-1490D01*
X-14510D01*
Y-1358D01*
D02*
G37*
G36*
X-14390D02*
Y-1490D01*
X-14258D01*
X-14262Y-1472D01*
X-14306Y-1406D01*
X-14372Y-1362D01*
X-14390Y-1358D01*
D02*
G37*
G36*
X-12910Y-1560D02*
X-13042D01*
X-13038Y-1578D01*
X-12994Y-1644D01*
X-12928Y-1688D01*
X-12910Y-1692D01*
Y-1560D01*
D02*
G37*
G36*
X-13540Y-1908D02*
Y-2040D01*
X-13408D01*
X-13412Y-2022D01*
X-13456Y-1956D01*
X-13522Y-1912D01*
X-13540Y-1908D01*
D02*
G37*
G36*
X-14510Y-1610D02*
X-14642D01*
X-14638Y-1628D01*
X-14594Y-1694D01*
X-14528Y-1738D01*
X-14510Y-1742D01*
Y-1610D01*
D02*
G37*
G36*
X-14258D02*
X-14390D01*
Y-1742D01*
X-14372Y-1738D01*
X-14306Y-1694D01*
X-14262Y-1628D01*
X-14258Y-1610D01*
D02*
G37*
G36*
X-12910Y-1308D02*
X-12928Y-1312D01*
X-12994Y-1356D01*
X-13038Y-1422D01*
X-13042Y-1440D01*
X-12910D01*
Y-1308D01*
D02*
G37*
G36*
X-13408Y-2160D02*
X-13540D01*
Y-2292D01*
X-13522Y-2288D01*
X-13456Y-2244D01*
X-13412Y-2178D01*
X-13408Y-2160D01*
D02*
G37*
G36*
X-13660D02*
X-13792D01*
X-13788Y-2178D01*
X-13744Y-2244D01*
X-13678Y-2288D01*
X-13660Y-2292D01*
Y-2160D01*
D02*
G37*
G36*
X-15360Y790D02*
X-15492D01*
X-15488Y772D01*
X-15444Y706D01*
X-15378Y662D01*
X-15360Y658D01*
Y790D01*
D02*
G37*
G36*
X-12810Y-1958D02*
X-12828Y-1962D01*
X-12894Y-2006D01*
X-12938Y-2072D01*
X-12942Y-2090D01*
X-12810D01*
Y-1958D01*
D02*
G37*
G36*
X-13204Y-810D02*
X-13534D01*
Y-996D01*
X-13204D01*
Y-810D01*
D02*
G37*
G36*
X-12755D02*
X-13084D01*
Y-996D01*
X-12755D01*
Y-810D01*
D02*
G37*
G36*
X-14066Y-544D02*
X-14765D01*
Y-956D01*
X-14066D01*
Y-544D01*
D02*
G37*
G36*
X-1690Y5042D02*
Y4910D01*
X-1558D01*
X-1562Y4928D01*
X-1606Y4994D01*
X-1672Y5038D01*
X-1690Y5042D01*
D02*
G37*
G36*
X-1810D02*
X-1828Y5038D01*
X-1894Y4994D01*
X-1938Y4928D01*
X-1942Y4910D01*
X-1810D01*
Y5042D01*
D02*
G37*
G36*
X710Y6696D02*
X552D01*
Y6577D01*
X710D01*
Y6696D01*
D02*
G37*
G36*
X1110D02*
X830D01*
Y6517D01*
X770D01*
Y6457D01*
X552D01*
Y6338D01*
X560D01*
X592Y6302D01*
X592Y6288D01*
Y6024D01*
X598D01*
Y5825D01*
X590Y5820D01*
X550Y5760D01*
X536Y5690D01*
X550Y5620D01*
X590Y5560D01*
X650Y5520D01*
X720Y5506D01*
X790Y5520D01*
X850Y5560D01*
X855Y5568D01*
X1054D01*
Y5512D01*
X1332D01*
Y5868D01*
X1315D01*
Y6024D01*
X1348D01*
Y6288D01*
X1348Y6302D01*
X1380Y6338D01*
X1388D01*
Y6457D01*
X1170D01*
Y6517D01*
X1110D01*
Y6696D01*
D02*
G37*
G36*
X1160Y4053D02*
X1002D01*
Y3934D01*
X1160D01*
Y4053D01*
D02*
G37*
G36*
X1660Y3785D02*
X1443D01*
Y3646D01*
X1660D01*
Y3785D01*
D02*
G37*
G36*
X-1558Y4790D02*
X-1690D01*
Y4658D01*
X-1672Y4662D01*
X-1606Y4706D01*
X-1562Y4772D01*
X-1558Y4790D01*
D02*
G37*
G36*
X-1810D02*
X-1942D01*
X-1938Y4772D01*
X-1894Y4706D01*
X-1828Y4662D01*
X-1810Y4658D01*
Y4790D01*
D02*
G37*
G36*
X-1220Y7701D02*
Y7350D01*
X-869D01*
X-876Y7398D01*
X-918Y7499D01*
X-984Y7586D01*
X-1071Y7652D01*
X-1172Y7694D01*
X-1220Y7701D01*
D02*
G37*
G36*
X-1340D02*
X-1388Y7694D01*
X-1489Y7652D01*
X-1576Y7586D01*
X-1642Y7499D01*
X-1684Y7398D01*
X-1691Y7350D01*
X-1340D01*
Y7701D01*
D02*
G37*
G36*
X1280D02*
Y7350D01*
X1631D01*
X1624Y7398D01*
X1582Y7499D01*
X1516Y7586D01*
X1429Y7652D01*
X1328Y7694D01*
X1280Y7701D01*
D02*
G37*
G36*
X1160D02*
X1112Y7694D01*
X1011Y7652D01*
X924Y7586D01*
X858Y7499D01*
X816Y7398D01*
X809Y7350D01*
X1160D01*
Y7701D01*
D02*
G37*
G36*
X-1340Y7230D02*
X-1691D01*
X-1684Y7182D01*
X-1642Y7081D01*
X-1576Y6994D01*
X-1489Y6928D01*
X-1388Y6886D01*
X-1340Y6879D01*
Y7230D01*
D02*
G37*
G36*
X1388Y6696D02*
X1230D01*
Y6577D01*
X1388D01*
Y6696D01*
D02*
G37*
G36*
X1631Y7230D02*
X1280D01*
Y6879D01*
X1328Y6886D01*
X1429Y6928D01*
X1516Y6994D01*
X1582Y7081D01*
X1624Y7182D01*
X1631Y7230D01*
D02*
G37*
G36*
X1160D02*
X809D01*
X816Y7182D01*
X858Y7081D01*
X924Y6994D01*
X1011Y6928D01*
X1112Y6886D01*
X1160Y6879D01*
Y7230D01*
D02*
G37*
G36*
X952Y3441D02*
X764D01*
Y3349D01*
X813D01*
X871Y3360D01*
X920Y3393D01*
X952Y3441D01*
D02*
G37*
G36*
X-14790Y1542D02*
Y1410D01*
X-14658D01*
X-14662Y1428D01*
X-14706Y1494D01*
X-14772Y1538D01*
X-14790Y1542D01*
D02*
G37*
G36*
X-14910D02*
X-14928Y1538D01*
X-14994Y1494D01*
X-15038Y1428D01*
X-15042Y1410D01*
X-14910D01*
Y1542D01*
D02*
G37*
G36*
X-14340D02*
Y1410D01*
X-14208D01*
X-14212Y1428D01*
X-14256Y1494D01*
X-14322Y1538D01*
X-14340Y1542D01*
D02*
G37*
G36*
X-14460D02*
X-14478Y1538D01*
X-14544Y1494D01*
X-14588Y1428D01*
X-14592Y1410D01*
X-14460D01*
Y1542D01*
D02*
G37*
G36*
X12992Y1440D02*
X12608D01*
X12612Y1422D01*
X12656Y1356D01*
X12694Y1330D01*
Y1270D01*
X12656Y1244D01*
X12612Y1178D01*
X12608Y1160D01*
X12992D01*
X12988Y1178D01*
X12944Y1244D01*
X12906Y1270D01*
Y1330D01*
X12944Y1356D01*
X12988Y1422D01*
X12992Y1440D01*
D02*
G37*
G36*
X12442D02*
X12058D01*
X12062Y1422D01*
X12106Y1356D01*
X12144Y1330D01*
Y1270D01*
X12106Y1244D01*
X12062Y1178D01*
X12058Y1160D01*
X12442D01*
X12438Y1178D01*
X12394Y1244D01*
X12356Y1270D01*
Y1330D01*
X12394Y1356D01*
X12438Y1422D01*
X12442Y1440D01*
D02*
G37*
G36*
X-15240Y1542D02*
Y1410D01*
X-15108D01*
X-15112Y1428D01*
X-15156Y1494D01*
X-15222Y1538D01*
X-15240Y1542D01*
D02*
G37*
G36*
X-15360D02*
X-15378Y1538D01*
X-15444Y1494D01*
X-15488Y1428D01*
X-15492Y1410D01*
X-15360D01*
Y1542D01*
D02*
G37*
G36*
X1692Y3190D02*
X1560D01*
Y3058D01*
X1578Y3062D01*
X1644Y3106D01*
X1688Y3172D01*
X1692Y3190D01*
D02*
G37*
G36*
X1440D02*
X1308D01*
X1312Y3172D01*
X1356Y3106D01*
X1422Y3062D01*
X1440Y3058D01*
Y3190D01*
D02*
G37*
G36*
X1560Y3442D02*
Y3310D01*
X1692D01*
X1688Y3328D01*
X1644Y3394D01*
X1578Y3438D01*
X1560Y3442D01*
D02*
G37*
G36*
X1440D02*
X1422Y3438D01*
X1356Y3394D01*
X1312Y3328D01*
X1308Y3310D01*
X1440D01*
Y3442D01*
D02*
G37*
G36*
X12310Y1692D02*
Y1560D01*
X12442D01*
X12438Y1578D01*
X12394Y1644D01*
X12328Y1688D01*
X12310Y1692D01*
D02*
G37*
G36*
X12190D02*
X12172Y1688D01*
X12106Y1644D01*
X12062Y1578D01*
X12058Y1560D01*
X12190D01*
Y1692D01*
D02*
G37*
G36*
X12860D02*
Y1560D01*
X12992D01*
X12988Y1578D01*
X12944Y1644D01*
X12878Y1688D01*
X12860Y1692D01*
D02*
G37*
G36*
X12740D02*
X12722Y1688D01*
X12656Y1644D01*
X12612Y1578D01*
X12608Y1560D01*
X12740D01*
Y1692D01*
D02*
G37*
%LPD*%
D10*
X-1527Y-200D02*
D03*
X-1173D02*
D03*
X-4273Y450D02*
D03*
X-4627D02*
D03*
X-4277Y3050D02*
D03*
X-3923D02*
D03*
X-4077Y6450D02*
D03*
X-3723D02*
D03*
X1547Y5690D02*
D03*
X1193D02*
D03*
X-1473Y2700D02*
D03*
X-1827D02*
D03*
X4293Y-1610D02*
D03*
X4647D02*
D03*
X1777Y-2550D02*
D03*
X1423D02*
D03*
X-5223D02*
D03*
X-5577D02*
D03*
X-5473Y-3200D02*
D03*
X-5827D02*
D03*
Y-3650D02*
D03*
X-5473D02*
D03*
X-5323Y-100D02*
D03*
X-5677D02*
D03*
D14*
X1720Y4435D02*
D03*
Y3845D02*
D03*
D19*
X770Y6517D02*
D03*
Y6163D02*
D03*
X320Y6317D02*
D03*
Y5963D02*
D03*
X-130Y6317D02*
D03*
Y5963D02*
D03*
X1170Y6163D02*
D03*
Y6517D02*
D03*
X1220Y4467D02*
D03*
Y4113D02*
D03*
X-1800Y3477D02*
D03*
Y3123D02*
D03*
X1400Y2127D02*
D03*
Y1773D02*
D03*
X-4150Y-4123D02*
D03*
Y-4477D02*
D03*
X-3750Y-3823D02*
D03*
Y-4177D02*
D03*
X-3327Y-3829D02*
D03*
Y-4184D02*
D03*
X-2727Y-3829D02*
D03*
Y-4184D02*
D03*
X-2250Y-3823D02*
D03*
Y-4177D02*
D03*
D41*
X9100Y-1950D02*
X9300D01*
X9650Y-1600D01*
Y-250D01*
X9150Y250D02*
X9650Y-250D01*
X6450Y250D02*
X9150D01*
X5250Y-950D02*
X6450Y250D01*
X3900Y-950D02*
X5250D01*
X5700Y-700D02*
X6150D01*
X5150Y-1250D02*
X5700Y-700D01*
X3900Y-1250D02*
X5150D01*
X-13600Y950D02*
X-13550Y1000D01*
X-11000D01*
X-2027Y-4177D02*
X-1900Y-4050D01*
X-2250Y-4177D02*
X-2027D01*
X-5650Y3450D02*
X-3100Y6000D01*
X-6250Y3450D02*
X-6244D01*
X-3694Y6000D01*
X-3600D01*
X-7000Y1500D02*
X0D01*
X2000D01*
X13144Y250D02*
X13500D01*
X13750Y0D01*
X14800D01*
X15150Y350D01*
Y1200D01*
X2000Y1500D02*
X2500D01*
X3050Y2050D01*
X14300D01*
X15150Y1200D01*
X-13850Y1300D02*
X-13450Y1700D01*
X-13850Y0D02*
Y1300D01*
X-13450Y1700D02*
X-3300D01*
X400Y-100D02*
X750Y250D01*
X-1159Y2200D02*
X-575Y2784D01*
Y3206D01*
X212Y3038D02*
X400Y2850D01*
X212Y3038D02*
Y3206D01*
X1044Y4288D02*
X1220Y4113D01*
X704Y4288D02*
X1044D01*
X5240Y-1610D02*
X5700Y-1150D01*
X4647Y-1610D02*
X5240D01*
X-5500Y450D02*
X-4627D01*
X-5677Y273D02*
X-5500Y450D01*
X-5677Y-100D02*
Y273D01*
X-1900Y-2900D02*
Y0D01*
X-2200Y-3200D02*
X-1900Y-2900D01*
X-4050Y-3200D02*
X-2200D01*
X-4150Y-3300D02*
X-4050Y-3200D01*
X-4150Y-3800D02*
Y-3300D01*
X14166Y500D02*
X14416Y750D01*
Y250D02*
X14750D01*
X14950Y450D01*
Y1000D01*
X13721Y-250D02*
X14416D01*
X13475Y-4D02*
X13721Y-250D01*
X11154Y-4D02*
X13475D01*
X10300Y850D02*
X11154Y-4D01*
X11050Y-250D02*
X13144D01*
X10200Y600D02*
X11050Y-250D01*
X3200Y1100D02*
X3350Y1250D01*
X2606Y1100D02*
X3200D01*
X750Y250D02*
X5750D01*
X800Y-1750D02*
X900D01*
X700Y-1850D02*
X800Y-1750D01*
X700Y-2133D02*
Y-1850D01*
Y-2133D02*
X817Y-2250D01*
X900Y-2050D02*
X5300D01*
X-1660Y-1910D02*
X-1250Y-1500D01*
X400Y-100D02*
X500Y-200D01*
Y-2250D02*
Y-200D01*
X-14100Y-250D02*
X-13850Y0D01*
X-13600Y-100D02*
Y950D01*
Y-100D02*
X-13450Y-250D01*
X-14416D02*
X-14100D01*
X-13450D02*
X-13144D01*
X-12650Y750D02*
X-12100Y200D01*
Y-1750D02*
Y200D01*
X-12650Y250D02*
X-12500Y100D01*
Y-1750D02*
Y100D01*
X-13144Y250D02*
X-12650D01*
X-13144Y750D02*
X-12650D01*
X-14950Y250D02*
X-14416D01*
X-6300Y-3050D02*
X-6150Y-3200D01*
X-6300Y-3050D02*
Y-500D01*
X-6200Y1300D02*
X2900D01*
X-6550Y950D02*
X-6200Y1300D01*
X-6000Y1100D02*
X2606D01*
X-6400Y700D02*
X-6000Y1100D01*
X-7450Y700D02*
X-6400D01*
X-4950Y2650D02*
X-2400D01*
X-6450Y1950D02*
X-5900Y2500D01*
X-2027D01*
X-6050Y1950D02*
X-5660Y2340D01*
X-5200Y1950D02*
Y2000D01*
X-5000Y2200D01*
X-772Y2928D02*
Y3206D01*
X-1360Y2340D02*
X-772Y2928D01*
X-5660Y2340D02*
X-1360D01*
X-5000Y2200D02*
X-1159D01*
X-2400Y2650D02*
X-2200Y2850D01*
Y3500D01*
X-1800Y3900D01*
X-2027Y2500D02*
X-1827Y2700D01*
X-1473D02*
X-1297D01*
X-2600Y2000D02*
X-1000D01*
X-1773Y3150D02*
X-1550D01*
X-1800Y3123D02*
X-1773Y3150D01*
X-1776Y3501D02*
X-1264D01*
X-1800Y3477D02*
X-1776Y3501D01*
X-1264Y3264D02*
X-1250Y3250D01*
X-1264Y3264D02*
Y3501D01*
X-1800Y3900D02*
X-1598Y3698D01*
X-1264D01*
X-3300Y1700D02*
X-3250Y1750D01*
X-2850D02*
X-2600Y2000D01*
X383Y850D02*
X10300D01*
X500Y600D02*
X10200D01*
X-1060Y-960D02*
X500Y600D01*
X-1525Y-960D02*
X-1060D01*
X-1528Y-958D02*
X-1525Y-960D01*
X-1227Y-760D02*
X383Y850D01*
X-1310Y-760D02*
X-1227D01*
X-1023Y-50D02*
X-800D01*
X-1173Y-200D02*
X-1023Y-50D01*
X-1532Y-205D02*
X-1527Y-200D01*
X-1532Y-540D02*
Y-205D01*
X-2944Y244D02*
X-2939Y250D01*
X-500D01*
X1727Y1773D02*
X1750Y1750D01*
X1400Y1773D02*
X1727D01*
X1392Y2135D02*
X1400Y2127D01*
X1113Y2135D02*
X1392D01*
X-2257Y-4184D02*
X-2250Y-4177D01*
X-2727Y-4184D02*
X-2257D01*
X-3333Y-4177D02*
X-3327Y-4184D01*
X-3750Y-4177D02*
X-3333D01*
X-4150Y-4477D02*
X-4050D01*
X-3750Y-4177D01*
X-5000Y-4450D02*
X-4973Y-4477D01*
X-4150D01*
X-3750Y-3823D02*
Y-3750D01*
X-3950Y-3550D02*
X-3750Y-3750D01*
X-4150Y-4123D02*
Y-3800D01*
X-2350Y-3723D02*
X-2250Y-3823D01*
X-2350Y-3723D02*
Y-3550D01*
X-2727Y-3829D02*
Y-3577D01*
X-2700Y-3550D01*
X-3335Y-3821D02*
X-3327Y-3829D01*
X-3335Y-3821D02*
Y-3550D01*
X-770Y520D02*
X-750Y500D01*
X-2860Y520D02*
X-770D01*
X-4500Y800D02*
X-3930D01*
X-4627Y673D02*
X-4500Y800D01*
X-4627Y450D02*
Y673D01*
X-4137Y450D02*
X-3929Y241D01*
X-4273Y450D02*
X-4137D01*
X-5040Y-100D02*
X-4982Y-158D01*
X-5323Y-100D02*
X-5040D01*
X-140Y6800D02*
X-80Y6740D01*
X-795Y6800D02*
X-140D01*
X-1245Y6350D02*
X-795Y6800D01*
X-870Y6980D02*
X19D01*
X-1800Y6350D02*
X-1245D01*
X-2000Y6150D02*
X-1800Y6350D01*
X-2005Y6500D02*
X-1350D01*
X-870Y6980D01*
X270Y6367D02*
Y6740D01*
X19Y6980D02*
X259Y6740D01*
X270Y6367D02*
X320Y6317D01*
X-80Y6367D02*
Y6740D01*
X-130Y6317D02*
X-80Y6367D01*
X-5310Y-2160D02*
X-5223Y-2247D01*
Y-2550D02*
Y-2247D01*
X-5473Y-3650D02*
Y-3200D01*
X-5044D01*
X-4982Y-3138D01*
X320Y5690D02*
Y5963D01*
X-130Y5690D02*
Y5963D01*
X212Y5582D02*
X320Y5690D01*
X212Y5174D02*
Y5582D01*
X-130Y5690D02*
X15Y5545D01*
Y5174D02*
Y5545D01*
X409Y5174D02*
X654D01*
X670Y5190D01*
X-969Y3028D02*
Y3206D01*
X-1297Y2700D02*
X-969Y3028D01*
X-3750Y3050D02*
X-3600Y2900D01*
X-3923Y3050D02*
X-3750D01*
X-4550D02*
X-4277D01*
X-4700Y2900D02*
X-4550Y3050D01*
X-4390Y6320D02*
X-4260Y6450D01*
X-4077D01*
X-3723D02*
Y6677D01*
X-3600Y6800D01*
Y6850D01*
X-5827Y-4327D02*
Y-3650D01*
X-5850Y-4350D02*
X-5827Y-4327D01*
X-5577Y-2550D02*
Y-2323D01*
X-5750Y-2150D02*
X-5577Y-2323D01*
X-5827Y-2800D02*
X-5577Y-2550D01*
X-5827Y-3200D02*
Y-2800D01*
X1777Y-2550D02*
X2010D01*
X2090Y-2630D01*
X1150Y-2550D02*
X1423D01*
X-1460Y-2331D02*
X-1369D01*
X-1280Y-2080D02*
X-530Y-2830D01*
X5300Y-2050D02*
X6550Y-800D01*
Y-450D01*
X6839Y-161D01*
X7272D01*
X5350Y-2250D02*
X6690Y-910D01*
Y-660D01*
X817Y-2250D02*
X5350D01*
X9200Y-850D02*
X9350Y-700D01*
X8728Y-850D02*
X9200D01*
X-530Y-2830D02*
X5981D01*
X7272Y-1539D01*
X7272Y-850D02*
X7622Y-1200D01*
X9350D01*
X-1369Y-2331D02*
X0Y-3700D01*
X5400D01*
X-1660Y-3940D02*
Y-1910D01*
Y-3940D02*
X-1300Y-4300D01*
X3450D01*
X3800Y-4650D01*
X3350Y1250D02*
X10300D01*
X11050Y500D01*
X14166D01*
X2950Y1350D02*
X3450Y1850D01*
X14100D01*
X14950Y1000D01*
X3900Y-1550D02*
X4233D01*
X4293Y-1610D01*
X5400Y-3700D02*
X7264Y-1836D01*
X8432D01*
X8728Y-1539D01*
X6690Y-660D02*
X6800Y-550D01*
X8339D01*
X8728Y-161D01*
D42*
X1170Y6163D02*
X1193Y6140D01*
Y5690D02*
Y6140D01*
X720Y6113D02*
X770Y6163D01*
X720Y5690D02*
Y6113D01*
Y5690D02*
X1193D01*
X704Y4485D02*
X1670D01*
X1720Y4435D01*
X1547Y4608D02*
X1670Y4485D01*
X1547Y4608D02*
Y5690D01*
X14416Y-750D02*
X14900D01*
D46*
X-1280Y7290D02*
D03*
X1220D02*
D03*
D47*
X7600Y-2200D02*
D03*
X8400D02*
D03*
X8000Y-200D02*
D03*
D48*
X-1750Y4850D02*
D03*
X1500Y3250D02*
D03*
X9100Y-1950D02*
D03*
X6150Y-700D02*
D03*
X3900Y-1250D02*
D03*
Y-950D02*
D03*
X-11000Y1000D02*
D03*
X5450Y5100D02*
D03*
X4950D02*
D03*
X4450D02*
D03*
X3950D02*
D03*
X4950Y5550D02*
D03*
X4450D02*
D03*
X3950D02*
D03*
X4450Y6000D02*
D03*
X3950D02*
D03*
X-5650Y3450D02*
D03*
X-6250D02*
D03*
X-3100Y6000D02*
D03*
X-3600D02*
D03*
X-7000Y1500D02*
D03*
X0D02*
D03*
X2000D02*
D03*
X1250Y50D02*
D03*
X-12850Y-1500D02*
D03*
X-14450Y-1550D02*
D03*
X13550Y-2350D02*
D03*
X12550D02*
D03*
X11550D02*
D03*
X10550D02*
D03*
X9550D02*
D03*
X3600Y-2550D02*
D03*
X-10500Y-1850D02*
D03*
X-12750Y-2150D02*
D03*
X-13600Y-2100D02*
D03*
X-10400Y2200D02*
D03*
X-11400D02*
D03*
X-12400D02*
D03*
X-13400D02*
D03*
X-14400D02*
D03*
X-1900Y0D02*
D03*
X-15300Y850D02*
D03*
X-14400Y1350D02*
D03*
X-14850D02*
D03*
X-15300D02*
D03*
X3800Y50D02*
D03*
X-1250Y-1500D02*
D03*
X5750Y250D02*
D03*
X400Y-100D02*
D03*
X500Y-2250D02*
D03*
X-12100Y-1750D02*
D03*
X-12500D02*
D03*
X-14950Y250D02*
D03*
X-6150Y-3200D02*
D03*
X-6300Y-500D02*
D03*
X-6550Y950D02*
D03*
X-7450Y700D02*
D03*
X-4950Y2700D02*
D03*
X-6450Y1950D02*
D03*
X-6050D02*
D03*
X-5200D02*
D03*
X-1000Y2000D02*
D03*
X-2650Y2900D02*
D03*
X-3600D02*
D03*
X-1550Y3150D02*
D03*
X-1800Y3900D02*
D03*
X-4850Y1950D02*
D03*
X-2850Y1750D02*
D03*
X-3250D02*
D03*
X400Y2850D02*
D03*
X-800Y-50D02*
D03*
X-500Y250D02*
D03*
X1750Y1750D02*
D03*
X1113Y2135D02*
D03*
X200Y-2350D02*
D03*
X3200Y-3350D02*
D03*
X-5000Y-4450D02*
D03*
X-4150Y-3800D02*
D03*
X-3950Y-3550D02*
D03*
X-2350D02*
D03*
X-2700D02*
D03*
X-3335D02*
D03*
X-1900Y-3250D02*
D03*
X-1050Y800D02*
D03*
X-2500Y1750D02*
D03*
X-2823Y6977D02*
D03*
X-750Y500D02*
D03*
X3900Y-1550D02*
D03*
X5700Y-1150D02*
D03*
Y-200D02*
D03*
X3432Y32D02*
D03*
X2606Y1100D02*
D03*
X2950Y1350D02*
D03*
X-3930Y800D02*
D03*
X-2000Y6150D02*
D03*
X-2005Y6500D02*
D03*
X270Y6740D02*
D03*
X-80D02*
D03*
X-4982Y-3138D02*
D03*
X-5310Y-2160D02*
D03*
X-4982Y-158D02*
D03*
X-2860Y520D02*
D03*
X-2944Y244D02*
D03*
X-3929Y241D02*
D03*
X-4390Y6320D02*
D03*
X-1532Y-540D02*
D03*
X-1310Y-760D02*
D03*
X-1528Y-958D02*
D03*
X-1280Y-2080D02*
D03*
X-1460Y-2331D02*
D03*
X900Y-2050D02*
D03*
Y-1750D02*
D03*
X320Y5690D02*
D03*
X-130D02*
D03*
X2090Y-2630D02*
D03*
X-4700Y2900D02*
D03*
X-3600Y6850D02*
D03*
X-5850Y-4350D02*
D03*
X-5750Y-2150D02*
D03*
X2250Y3750D02*
D03*
X2750D02*
D03*
X3250D02*
D03*
X2250Y3250D02*
D03*
X2750D02*
D03*
X2250Y2750D02*
D03*
X2750D02*
D03*
X1150Y-2550D02*
D03*
X-2250Y-4900D02*
D03*
X-1650D02*
D03*
X-1200D02*
D03*
X-600D02*
D03*
X-100D02*
D03*
X-1250Y-4000D02*
D03*
X-1900Y-4050D02*
D03*
X-750Y-4000D02*
D03*
X-290Y-3940D02*
D03*
X900Y-4000D02*
D03*
X200Y-3450D02*
D03*
X500Y-4500D02*
D03*
X1400Y-3100D02*
D03*
X700D02*
D03*
X1350Y-5300D02*
D03*
X9350Y-700D02*
D03*
Y-1200D02*
D03*
X8000Y-950D02*
D03*
X4250Y-4100D02*
D03*
X3800Y-4650D02*
D03*
X2100Y-4550D02*
D03*
Y-4000D02*
D03*
X2950Y-3900D02*
D03*
X8000Y-1450D02*
D03*
X12250Y1500D02*
D03*
X12800D02*
D03*
X12250Y1100D02*
D03*
X12800D02*
D03*
X5200Y-5000D02*
D03*
X5750Y-4450D02*
D03*
X6300Y-3750D02*
D03*
X6700Y-3000D02*
D03*
D49*
X-3640Y4893D02*
D03*
X-4073Y5326D02*
D03*
X-3207D02*
D03*
X-4073Y4460D02*
D03*
X-3207D02*
D03*
X-3640Y4027D02*
D03*
X-4073Y3594D02*
D03*
X-3207D02*
D03*
X-4519Y-2729D02*
D03*
Y-1863D02*
D03*
Y-997D02*
D03*
X-4086Y-2296D02*
D03*
Y-1430D02*
D03*
Y-564D02*
D03*
X-3653Y-2729D02*
D03*
Y-1863D02*
D03*
Y-997D02*
D03*
X-3220Y-2296D02*
D03*
Y-1430D02*
D03*
Y-564D02*
D03*
X-2787Y-2729D02*
D03*
Y-1863D02*
D03*
Y-997D02*
D03*
X-2354Y-2296D02*
D03*
Y-1430D02*
D03*
Y-564D02*
D03*
D50*
X1720Y-1760D02*
D03*
Y-893D02*
D03*
X2153Y-1327D02*
D03*
Y-460D02*
D03*
X2587Y-1760D02*
D03*
Y-893D02*
D03*
X3020Y-1327D02*
D03*
Y-460D02*
D03*
D51*
X-1250Y3250D02*
D03*
X14900Y-750D02*
D03*
D52*
X720Y5690D02*
D03*
X670Y5190D02*
D03*
D53*
X-280Y4190D02*
D03*
D54*
X14416Y-750D02*
D03*
Y-250D02*
D03*
Y250D02*
D03*
Y750D02*
D03*
X13144D02*
D03*
Y250D02*
D03*
Y-250D02*
D03*
Y-750D02*
D03*
X-13144D02*
D03*
Y-250D02*
D03*
Y250D02*
D03*
Y750D02*
D03*
X-14416D02*
D03*
Y250D02*
D03*
Y-250D02*
D03*
Y-750D02*
D03*
D55*
X15Y5174D02*
D03*
X212D02*
D03*
X-969Y3206D02*
D03*
X-772D02*
D03*
X-575D02*
D03*
X-378D02*
D03*
X-182D02*
D03*
X15D02*
D03*
X212D02*
D03*
X409D02*
D03*
Y5174D02*
D03*
X-182D02*
D03*
X-378D02*
D03*
X-575D02*
D03*
X-772D02*
D03*
X-969D02*
D03*
D56*
X-280Y4190D02*
D03*
D57*
X704Y3501D02*
D03*
Y3698D02*
D03*
Y3895D02*
D03*
Y4092D02*
D03*
Y4288D02*
D03*
Y4485D02*
D03*
Y4682D02*
D03*
Y4879D02*
D03*
X-1264D02*
D03*
Y4682D02*
D03*
Y4485D02*
D03*
Y4288D02*
D03*
Y4092D02*
D03*
Y3895D02*
D03*
Y3698D02*
D03*
Y3501D02*
D03*
D58*
X8728Y-1539D02*
D03*
X8728Y-850D02*
D03*
Y-161D02*
D03*
X7272D02*
D03*
X7272Y-850D02*
D03*
X7272Y-1539D02*
D03*
M02*
