G04 Layer_Physical_Order=2*
G04 Layer_Color=36540*
%FSLAX24Y24*%
%MOIN*%
G70*
G01*
G75*
%ADD46C,0.0630*%
%ADD48C,0.0200*%
%ADD49C,0.0217*%
%ADD50C,0.0197*%
%ADD51C,0.0260*%
%ADD53C,0.0315*%
G36*
X515Y7861D02*
X1028Y7810D01*
X1537Y7726D01*
X2039Y7609D01*
X2532Y7459D01*
X3015Y7278D01*
X3484Y7065D01*
X3939Y6822D01*
X4376Y6550D01*
X4796Y6250D01*
X5194Y5923D01*
X5570Y5570D01*
X5923Y5194D01*
X6250Y4796D01*
X6550Y4376D01*
X6822Y3939D01*
X7065Y3484D01*
X7278Y3015D01*
X7392Y2711D01*
X7392Y2711D01*
X7392D01*
X7419Y2673D01*
X7421Y2671D01*
X7457Y2646D01*
X7500Y2638D01*
X15888D01*
Y-2638D01*
X7500D01*
X7457Y-2646D01*
X7421Y-2671D01*
X7419Y-2673D01*
X7392Y-2711D01*
X7392D01*
X7392Y-2711D01*
X7278Y-3015D01*
X7065Y-3484D01*
X6822Y-3939D01*
X6550Y-4376D01*
X6250Y-4796D01*
X5923Y-5194D01*
X5730Y-5400D01*
X1579D01*
X1551Y-5360D01*
X1149D01*
X1121Y-5400D01*
X-5730D01*
X-5923Y-5194D01*
X-6250Y-4796D01*
X-6550Y-4376D01*
X-6822Y-3939D01*
X-7065Y-3484D01*
X-7278Y-3015D01*
X-7392Y-2711D01*
X-7392Y-2711D01*
X-7392D01*
X-7419Y-2673D01*
X-7421Y-2671D01*
X-7457Y-2646D01*
X-7500Y-2638D01*
X-15888D01*
Y2638D01*
X-7500D01*
X-7457Y2646D01*
X-7421Y2671D01*
X-7419Y2673D01*
X-7392Y2711D01*
X-7392D01*
X-7392Y2711D01*
X-7278Y3015D01*
X-7065Y3484D01*
X-6822Y3939D01*
X-6550Y4376D01*
X-6250Y4796D01*
X-5923Y5194D01*
X-5570Y5570D01*
X-5194Y5923D01*
X-4796Y6250D01*
X-4584Y6401D01*
X-4582Y6400D01*
X-4543Y6369D01*
X-4553Y6320D01*
X-4541Y6258D01*
X-4505Y6205D01*
X-4452Y6169D01*
X-4390Y6157D01*
X-4328Y6169D01*
X-4275Y6205D01*
X-4239Y6258D01*
X-4227Y6320D01*
X-4239Y6382D01*
X-4275Y6435D01*
X-4328Y6471D01*
X-4385Y6482D01*
X-4393Y6497D01*
X-4402Y6532D01*
X-4376Y6550D01*
X-3939Y6822D01*
X-3847Y6871D01*
X-3802Y6839D01*
X-3788Y6772D01*
X-3744Y6706D01*
X-3678Y6662D01*
X-3660Y6658D01*
Y6850D01*
X-3600D01*
Y6910D01*
X-3408D01*
X-3412Y6928D01*
X-3456Y6994D01*
X-3480Y7010D01*
X-3483Y7049D01*
X-3477Y7068D01*
X-3015Y7278D01*
X-2532Y7459D01*
X-2039Y7609D01*
X-1537Y7726D01*
X-1028Y7810D01*
X-515Y7861D01*
X0Y7877D01*
X515Y7861D01*
D02*
G37*
%LPC*%
G36*
X-3160Y-2096D02*
Y-2236D01*
X-3020D01*
X-3024Y-2215D01*
X-3070Y-2146D01*
X-3139Y-2100D01*
X-3160Y-2096D01*
D02*
G37*
G36*
X-4026D02*
Y-2236D01*
X-3886D01*
X-3890Y-2215D01*
X-3936Y-2146D01*
X-4005Y-2100D01*
X-4026Y-2096D01*
D02*
G37*
G36*
X-3280D02*
X-3301Y-2100D01*
X-3370Y-2146D01*
X-3416Y-2215D01*
X-3420Y-2236D01*
X-3280D01*
Y-2096D01*
D02*
G37*
G36*
X900Y-1587D02*
X838Y-1599D01*
X785Y-1635D01*
X749Y-1688D01*
X737Y-1750D01*
X749Y-1812D01*
X785Y-1865D01*
X799Y-1875D01*
Y-1925D01*
X785Y-1935D01*
X749Y-1988D01*
X737Y-2050D01*
X749Y-2112D01*
X785Y-2165D01*
X838Y-2201D01*
X900Y-2213D01*
X962Y-2201D01*
X1015Y-2165D01*
X1051Y-2112D01*
X1063Y-2050D01*
X1051Y-1988D01*
X1015Y-1935D01*
X1001Y-1925D01*
Y-1875D01*
X1015Y-1865D01*
X1051Y-1812D01*
X1063Y-1750D01*
X1051Y-1688D01*
X1015Y-1635D01*
X962Y-1599D01*
X900Y-1587D01*
D02*
G37*
G36*
X500Y-2087D02*
X438Y-2099D01*
X385Y-2135D01*
X367Y-2161D01*
X307Y-2178D01*
X301Y-2177D01*
X278Y-2162D01*
X260Y-2158D01*
Y-2350D01*
Y-2542D01*
X278Y-2538D01*
X344Y-2494D01*
X388Y-2428D01*
X390Y-2419D01*
X425Y-2405D01*
X445Y-2402D01*
X500Y-2413D01*
X562Y-2401D01*
X615Y-2365D01*
X651Y-2312D01*
X663Y-2250D01*
X651Y-2188D01*
X615Y-2135D01*
X562Y-2099D01*
X500Y-2087D01*
D02*
G37*
G36*
X-2414Y-2096D02*
X-2435Y-2100D01*
X-2504Y-2146D01*
X-2550Y-2215D01*
X-2554Y-2236D01*
X-2414D01*
Y-2096D01*
D02*
G37*
G36*
X-2294D02*
Y-2236D01*
X-2153D01*
X-2158Y-2215D01*
X-2204Y-2146D01*
X-2273Y-2100D01*
X-2294Y-2096D01*
D02*
G37*
G36*
X11610Y-2158D02*
Y-2290D01*
X11742D01*
X11738Y-2272D01*
X11694Y-2206D01*
X11628Y-2162D01*
X11610Y-2158D01*
D02*
G37*
G36*
X12490D02*
X12472Y-2162D01*
X12406Y-2206D01*
X12362Y-2272D01*
X12358Y-2290D01*
X12490D01*
Y-2158D01*
D02*
G37*
G36*
X10610D02*
Y-2290D01*
X10742D01*
X10738Y-2272D01*
X10694Y-2206D01*
X10628Y-2162D01*
X10610Y-2158D01*
D02*
G37*
G36*
X11490D02*
X11472Y-2162D01*
X11406Y-2206D01*
X11362Y-2272D01*
X11358Y-2290D01*
X11490D01*
Y-2158D01*
D02*
G37*
G36*
X13610D02*
Y-2290D01*
X13742D01*
X13738Y-2272D01*
X13694Y-2206D01*
X13628Y-2162D01*
X13610Y-2158D01*
D02*
G37*
G36*
X-4146Y-2096D02*
X-4167Y-2100D01*
X-4236Y-2146D01*
X-4282Y-2215D01*
X-4287Y-2236D01*
X-4146D01*
Y-2096D01*
D02*
G37*
G36*
X12610Y-2158D02*
Y-2290D01*
X12742D01*
X12738Y-2272D01*
X12694Y-2206D01*
X12628Y-2162D01*
X12610Y-2158D01*
D02*
G37*
G36*
X13490D02*
X13472Y-2162D01*
X13406Y-2206D01*
X13362Y-2272D01*
X13358Y-2290D01*
X13490D01*
Y-2158D01*
D02*
G37*
G36*
X-2587Y-1923D02*
X-2727D01*
Y-2063D01*
X-2706Y-2059D01*
X-2637Y-2013D01*
X-2591Y-1944D01*
X-2587Y-1923D01*
D02*
G37*
G36*
X-2847D02*
X-2987D01*
X-2983Y-1944D01*
X-2937Y-2013D01*
X-2868Y-2059D01*
X-2847Y-2063D01*
Y-1923D01*
D02*
G37*
G36*
X-3453D02*
X-3593D01*
Y-2063D01*
X-3572Y-2059D01*
X-3503Y-2013D01*
X-3457Y-1944D01*
X-3453Y-1923D01*
D02*
G37*
G36*
X-10560Y-1910D02*
X-10692D01*
X-10688Y-1928D01*
X-10644Y-1994D01*
X-10578Y-2038D01*
X-10560Y-2042D01*
Y-1910D01*
D02*
G37*
G36*
X-13540Y-1908D02*
Y-2040D01*
X-13408D01*
X-13412Y-2022D01*
X-13456Y-1956D01*
X-13522Y-1912D01*
X-13540Y-1908D01*
D02*
G37*
G36*
X-13660D02*
X-13678Y-1912D01*
X-13744Y-1956D01*
X-13788Y-2022D01*
X-13792Y-2040D01*
X-13660D01*
Y-1908D01*
D02*
G37*
G36*
X-10308Y-1910D02*
X-10440D01*
Y-2042D01*
X-10422Y-2038D01*
X-10356Y-1994D01*
X-10312Y-1928D01*
X-10308Y-1910D01*
D02*
G37*
G36*
X-3713Y-1923D02*
X-3853D01*
X-3849Y-1944D01*
X-3803Y-2013D01*
X-3734Y-2059D01*
X-3713Y-2063D01*
Y-1923D01*
D02*
G37*
G36*
X-12690Y-1958D02*
Y-2090D01*
X-12558D01*
X-12562Y-2072D01*
X-12606Y-2006D01*
X-12672Y-1962D01*
X-12690Y-1958D01*
D02*
G37*
G36*
X-12810D02*
X-12828Y-1962D01*
X-12894Y-2006D01*
X-12938Y-2072D01*
X-12942Y-2090D01*
X-12810D01*
Y-1958D01*
D02*
G37*
G36*
X9100Y-1787D02*
X9038Y-1799D01*
X8985Y-1835D01*
X8949Y-1888D01*
X8937Y-1950D01*
X8949Y-2012D01*
X8985Y-2065D01*
X9038Y-2101D01*
X9100Y-2113D01*
X9162Y-2101D01*
X9215Y-2065D01*
X9251Y-2012D01*
X9263Y-1950D01*
X9251Y-1888D01*
X9215Y-1835D01*
X9162Y-1799D01*
X9100Y-1787D01*
D02*
G37*
G36*
X-5810Y-1958D02*
X-5828Y-1962D01*
X-5894Y-2006D01*
X-5938Y-2072D01*
X-5942Y-2090D01*
X-5810D01*
Y-1958D01*
D02*
G37*
G36*
X-4319Y-1923D02*
X-4459D01*
Y-2063D01*
X-4438Y-2059D01*
X-4369Y-2013D01*
X-4323Y-1944D01*
X-4319Y-1923D01*
D02*
G37*
G36*
X-4579D02*
X-4720D01*
X-4715Y-1944D01*
X-4669Y-2013D01*
X-4600Y-2059D01*
X-4579Y-2063D01*
Y-1923D01*
D02*
G37*
G36*
X-5690Y-1958D02*
Y-2090D01*
X-5558D01*
X-5562Y-2072D01*
X-5606Y-2006D01*
X-5672Y-1962D01*
X-5690Y-1958D01*
D02*
G37*
G36*
X-4146Y-2356D02*
X-4287D01*
X-4282Y-2377D01*
X-4236Y-2446D01*
X-4167Y-2492D01*
X-4146Y-2497D01*
Y-2356D01*
D02*
G37*
G36*
X8400Y-1902D02*
X8323Y-1913D01*
X8251Y-1942D01*
X8190Y-1990D01*
X8142Y-2051D01*
X8113Y-2123D01*
X8102Y-2200D01*
X8113Y-2277D01*
X8142Y-2349D01*
X8190Y-2410D01*
X8251Y-2458D01*
X8323Y-2487D01*
X8400Y-2498D01*
X8477Y-2487D01*
X8549Y-2458D01*
X8610Y-2410D01*
X8658Y-2349D01*
X8687Y-2277D01*
X8698Y-2200D01*
X8687Y-2123D01*
X8658Y-2051D01*
X8610Y-1990D01*
X8549Y-1942D01*
X8477Y-1913D01*
X8400Y-1902D01*
D02*
G37*
G36*
X7600D02*
X7523Y-1913D01*
X7451Y-1942D01*
X7390Y-1990D01*
X7342Y-2051D01*
X7313Y-2123D01*
X7302Y-2200D01*
X7313Y-2277D01*
X7342Y-2349D01*
X7390Y-2410D01*
X7451Y-2458D01*
X7523Y-2487D01*
X7600Y-2498D01*
X7677Y-2487D01*
X7749Y-2458D01*
X7810Y-2410D01*
X7858Y-2349D01*
X7887Y-2277D01*
X7898Y-2200D01*
X7887Y-2123D01*
X7858Y-2051D01*
X7810Y-1990D01*
X7749Y-1942D01*
X7677Y-1913D01*
X7600Y-1902D01*
D02*
G37*
G36*
X-3886Y-2356D02*
X-4026D01*
Y-2497D01*
X-4005Y-2492D01*
X-3936Y-2446D01*
X-3890Y-2377D01*
X-3886Y-2356D01*
D02*
G37*
G36*
X-2414D02*
X-2554D01*
X-2550Y-2377D01*
X-2504Y-2446D01*
X-2435Y-2492D01*
X-2414Y-2497D01*
Y-2356D01*
D02*
G37*
G36*
X-3020D02*
X-3160D01*
Y-2497D01*
X-3139Y-2492D01*
X-3070Y-2446D01*
X-3024Y-2377D01*
X-3020Y-2356D01*
D02*
G37*
G36*
X-3280D02*
X-3420D01*
X-3416Y-2377D01*
X-3370Y-2446D01*
X-3301Y-2492D01*
X-3280Y-2497D01*
Y-2356D01*
D02*
G37*
G36*
X13742Y-2410D02*
X13610D01*
Y-2542D01*
X13628Y-2538D01*
X13694Y-2494D01*
X13738Y-2428D01*
X13742Y-2410D01*
D02*
G37*
G36*
X11490D02*
X11358D01*
X11362Y-2428D01*
X11406Y-2494D01*
X11472Y-2538D01*
X11490Y-2542D01*
Y-2410D01*
D02*
G37*
G36*
X10742D02*
X10610D01*
Y-2542D01*
X10628Y-2538D01*
X10694Y-2494D01*
X10738Y-2428D01*
X10742Y-2410D01*
D02*
G37*
G36*
X10490D02*
X10358D01*
X10362Y-2428D01*
X10406Y-2494D01*
X10472Y-2538D01*
X10490Y-2542D01*
Y-2410D01*
D02*
G37*
G36*
X11742D02*
X11610D01*
Y-2542D01*
X11628Y-2538D01*
X11694Y-2494D01*
X11738Y-2428D01*
X11742Y-2410D01*
D02*
G37*
G36*
X13490D02*
X13358D01*
X13362Y-2428D01*
X13406Y-2494D01*
X13472Y-2538D01*
X13490Y-2542D01*
Y-2410D01*
D02*
G37*
G36*
X12742D02*
X12610D01*
Y-2542D01*
X12628Y-2538D01*
X12694Y-2494D01*
X12738Y-2428D01*
X12742Y-2410D01*
D02*
G37*
G36*
X12490D02*
X12358D01*
X12362Y-2428D01*
X12406Y-2494D01*
X12472Y-2538D01*
X12490Y-2542D01*
Y-2410D01*
D02*
G37*
G36*
X-13408Y-2160D02*
X-13540D01*
Y-2292D01*
X-13522Y-2288D01*
X-13456Y-2244D01*
X-13412Y-2178D01*
X-13408Y-2160D01*
D02*
G37*
G36*
X-13660D02*
X-13792D01*
X-13788Y-2178D01*
X-13744Y-2244D01*
X-13678Y-2288D01*
X-13660Y-2292D01*
Y-2160D01*
D02*
G37*
G36*
X-5310Y-1997D02*
X-5372Y-2009D01*
X-5425Y-2045D01*
X-5461Y-2098D01*
X-5473Y-2160D01*
X-5461Y-2222D01*
X-5425Y-2275D01*
X-5372Y-2311D01*
X-5310Y-2323D01*
X-5248Y-2311D01*
X-5195Y-2275D01*
X-5159Y-2222D01*
X-5147Y-2160D01*
X-5159Y-2098D01*
X-5195Y-2045D01*
X-5248Y-2009D01*
X-5310Y-1997D01*
D02*
G37*
G36*
X140Y-2158D02*
X122Y-2162D01*
X56Y-2206D01*
X12Y-2272D01*
X8Y-2290D01*
X140D01*
Y-2158D01*
D02*
G37*
G36*
X10490D02*
X10472Y-2162D01*
X10406Y-2206D01*
X10362Y-2272D01*
X10358Y-2290D01*
X10490D01*
Y-2158D01*
D02*
G37*
G36*
X9610D02*
Y-2290D01*
X9742D01*
X9738Y-2272D01*
X9694Y-2206D01*
X9628Y-2162D01*
X9610Y-2158D01*
D02*
G37*
G36*
X9490D02*
X9472Y-2162D01*
X9406Y-2206D01*
X9362Y-2272D01*
X9358Y-2290D01*
X9490D01*
Y-2158D01*
D02*
G37*
G36*
X-5558Y-2210D02*
X-5690D01*
Y-2342D01*
X-5672Y-2338D01*
X-5606Y-2294D01*
X-5562Y-2228D01*
X-5558Y-2210D01*
D02*
G37*
G36*
X1090Y-2358D02*
X1072Y-2362D01*
X1006Y-2406D01*
X962Y-2472D01*
X958Y-2490D01*
X1090D01*
Y-2358D01*
D02*
G37*
G36*
X-1280Y-1917D02*
X-1342Y-1929D01*
X-1395Y-1965D01*
X-1431Y-2018D01*
X-1443Y-2080D01*
X-1435Y-2122D01*
X-1455Y-2159D01*
X-1472Y-2170D01*
X-1522Y-2180D01*
X-1575Y-2216D01*
X-1611Y-2269D01*
X-1623Y-2331D01*
X-1611Y-2393D01*
X-1575Y-2446D01*
X-1522Y-2482D01*
X-1460Y-2494D01*
X-1398Y-2482D01*
X-1345Y-2446D01*
X-1309Y-2393D01*
X-1297Y-2331D01*
X-1305Y-2289D01*
X-1285Y-2252D01*
X-1268Y-2241D01*
X-1218Y-2231D01*
X-1165Y-2195D01*
X-1129Y-2142D01*
X-1117Y-2080D01*
X-1129Y-2018D01*
X-1165Y-1965D01*
X-1218Y-1929D01*
X-1280Y-1917D01*
D02*
G37*
G36*
X-2153Y-2356D02*
X-2294D01*
Y-2497D01*
X-2273Y-2492D01*
X-2204Y-2446D01*
X-2158Y-2377D01*
X-2153Y-2356D01*
D02*
G37*
G36*
X1210Y-2358D02*
Y-2490D01*
X1342D01*
X1338Y-2472D01*
X1294Y-2406D01*
X1228Y-2362D01*
X1210Y-2358D01*
D02*
G37*
G36*
X-5810Y-2210D02*
X-5942D01*
X-5938Y-2228D01*
X-5894Y-2294D01*
X-5828Y-2338D01*
X-5810Y-2342D01*
Y-2210D01*
D02*
G37*
G36*
X-12558D02*
X-12690D01*
Y-2342D01*
X-12672Y-2338D01*
X-12606Y-2294D01*
X-12562Y-2228D01*
X-12558Y-2210D01*
D02*
G37*
G36*
X-12810D02*
X-12942D01*
X-12938Y-2228D01*
X-12894Y-2294D01*
X-12828Y-2338D01*
X-12810Y-2342D01*
Y-2210D01*
D02*
G37*
G36*
X1660Y-1820D02*
X1530D01*
X1533Y-1837D01*
X1577Y-1903D01*
X1643Y-1947D01*
X1660Y-1950D01*
Y-1820D01*
D02*
G37*
G36*
X8060Y-1258D02*
Y-1390D01*
X8192D01*
X8188Y-1372D01*
X8144Y-1306D01*
X8078Y-1262D01*
X8060Y-1258D01*
D02*
G37*
G36*
X7940D02*
X7922Y-1262D01*
X7856Y-1306D01*
X7812Y-1372D01*
X7808Y-1390D01*
X7940D01*
Y-1258D01*
D02*
G37*
G36*
X-12790Y-1308D02*
Y-1440D01*
X-12658D01*
X-12662Y-1422D01*
X-12706Y-1356D01*
X-12772Y-1312D01*
X-12790Y-1308D01*
D02*
G37*
G36*
X-4146Y-1230D02*
X-4167Y-1234D01*
X-4236Y-1280D01*
X-4282Y-1349D01*
X-4287Y-1370D01*
X-4146D01*
Y-1230D01*
D02*
G37*
G36*
X-3160D02*
Y-1370D01*
X-3020D01*
X-3024Y-1349D01*
X-3070Y-1280D01*
X-3139Y-1234D01*
X-3160Y-1230D01*
D02*
G37*
G36*
X-3280D02*
X-3301Y-1234D01*
X-3370Y-1280D01*
X-3416Y-1349D01*
X-3420Y-1370D01*
X-3280D01*
Y-1230D01*
D02*
G37*
G36*
X-4026D02*
Y-1370D01*
X-3886D01*
X-3890Y-1349D01*
X-3936Y-1280D01*
X-4005Y-1234D01*
X-4026Y-1230D01*
D02*
G37*
G36*
X-12910Y-1308D02*
X-12928Y-1312D01*
X-12994Y-1356D01*
X-13038Y-1422D01*
X-13042Y-1440D01*
X-12910D01*
Y-1308D01*
D02*
G37*
G36*
X2344Y-1387D02*
X2213D01*
Y-1517D01*
X2231Y-1513D01*
X2297Y-1470D01*
X2340Y-1404D01*
X2344Y-1387D01*
D02*
G37*
G36*
X2093D02*
X1963D01*
X1967Y-1404D01*
X2010Y-1470D01*
X2076Y-1513D01*
X2093Y-1517D01*
Y-1387D01*
D02*
G37*
G36*
X-2153Y-1490D02*
X-2294D01*
Y-1630D01*
X-2273Y-1626D01*
X-2204Y-1580D01*
X-2158Y-1511D01*
X-2153Y-1490D01*
D02*
G37*
G36*
X2960Y-1387D02*
X2829D01*
X2833Y-1404D01*
X2877Y-1470D01*
X2942Y-1513D01*
X2960Y-1517D01*
Y-1387D01*
D02*
G37*
G36*
X-14390Y-1358D02*
Y-1490D01*
X-14258D01*
X-14262Y-1472D01*
X-14306Y-1406D01*
X-14372Y-1362D01*
X-14390Y-1358D01*
D02*
G37*
G36*
X-14510D02*
X-14528Y-1362D01*
X-14594Y-1406D01*
X-14638Y-1472D01*
X-14642Y-1490D01*
X-14510D01*
Y-1358D01*
D02*
G37*
G36*
X3210Y-1387D02*
X3080D01*
Y-1517D01*
X3097Y-1513D01*
X3163Y-1470D01*
X3207Y-1404D01*
X3210Y-1387D01*
D02*
G37*
G36*
X-4319Y-1057D02*
X-4459D01*
Y-1197D01*
X-4438Y-1193D01*
X-4369Y-1147D01*
X-4323Y-1078D01*
X-4319Y-1057D01*
D02*
G37*
G36*
X-4579D02*
X-4720D01*
X-4715Y-1078D01*
X-4669Y-1147D01*
X-4600Y-1193D01*
X-4579Y-1197D01*
Y-1057D01*
D02*
G37*
G36*
X3080Y-1136D02*
Y-1267D01*
X3210D01*
X3207Y-1249D01*
X3163Y-1183D01*
X3097Y-1140D01*
X3080Y-1136D01*
D02*
G37*
G36*
X-3713Y-1057D02*
X-3853D01*
X-3849Y-1078D01*
X-3803Y-1147D01*
X-3734Y-1193D01*
X-3713Y-1197D01*
Y-1057D01*
D02*
G37*
G36*
X-2587D02*
X-2727D01*
Y-1197D01*
X-2706Y-1193D01*
X-2637Y-1147D01*
X-2591Y-1078D01*
X-2587Y-1057D01*
D02*
G37*
G36*
X-2847D02*
X-2987D01*
X-2983Y-1078D01*
X-2937Y-1147D01*
X-2868Y-1193D01*
X-2847Y-1197D01*
Y-1057D01*
D02*
G37*
G36*
X-3453D02*
X-3593D01*
Y-1197D01*
X-3572Y-1193D01*
X-3503Y-1147D01*
X-3457Y-1078D01*
X-3453Y-1057D01*
D02*
G37*
G36*
X2960Y-1136D02*
X2942Y-1140D01*
X2877Y-1183D01*
X2833Y-1249D01*
X2829Y-1267D01*
X2960D01*
Y-1136D01*
D02*
G37*
G36*
X9350Y-1037D02*
X9288Y-1049D01*
X9235Y-1085D01*
X9199Y-1138D01*
X9187Y-1200D01*
X9199Y-1262D01*
X9235Y-1315D01*
X9288Y-1351D01*
X9350Y-1363D01*
X9412Y-1351D01*
X9465Y-1315D01*
X9501Y-1262D01*
X9513Y-1200D01*
X9501Y-1138D01*
X9465Y-1085D01*
X9412Y-1049D01*
X9350Y-1037D01*
D02*
G37*
G36*
X-2294Y-1230D02*
Y-1370D01*
X-2153D01*
X-2158Y-1349D01*
X-2204Y-1280D01*
X-2273Y-1234D01*
X-2294Y-1230D01*
D02*
G37*
G36*
X-2414D02*
X-2435Y-1234D01*
X-2504Y-1280D01*
X-2550Y-1349D01*
X-2554Y-1370D01*
X-2414D01*
Y-1230D01*
D02*
G37*
G36*
X5640Y-1210D02*
X5508D01*
X5512Y-1228D01*
X5556Y-1294D01*
X5622Y-1338D01*
X5640Y-1342D01*
Y-1210D01*
D02*
G37*
G36*
X2213Y-1136D02*
Y-1267D01*
X2344D01*
X2340Y-1249D01*
X2297Y-1183D01*
X2231Y-1140D01*
X2213Y-1136D01*
D02*
G37*
G36*
X2093D02*
X2076Y-1140D01*
X2010Y-1183D01*
X1967Y-1249D01*
X1963Y-1267D01*
X2093D01*
Y-1136D01*
D02*
G37*
G36*
X5892Y-1210D02*
X5760D01*
Y-1342D01*
X5778Y-1338D01*
X5844Y-1294D01*
X5888Y-1228D01*
X5892Y-1210D01*
D02*
G37*
G36*
X-2727Y-1663D02*
Y-1803D01*
X-2587D01*
X-2591Y-1782D01*
X-2637Y-1713D01*
X-2706Y-1667D01*
X-2727Y-1663D01*
D02*
G37*
G36*
X-2847D02*
X-2868Y-1667D01*
X-2937Y-1713D01*
X-2983Y-1782D01*
X-2987Y-1803D01*
X-2847D01*
Y-1663D01*
D02*
G37*
G36*
X-3593D02*
Y-1803D01*
X-3453D01*
X-3457Y-1782D01*
X-3503Y-1713D01*
X-3572Y-1667D01*
X-3593Y-1663D01*
D02*
G37*
G36*
X-10560Y-1658D02*
X-10578Y-1662D01*
X-10644Y-1706D01*
X-10688Y-1772D01*
X-10692Y-1790D01*
X-10560D01*
Y-1658D01*
D02*
G37*
G36*
X-14258Y-1610D02*
X-14390D01*
Y-1742D01*
X-14372Y-1738D01*
X-14306Y-1694D01*
X-14262Y-1628D01*
X-14258Y-1610D01*
D02*
G37*
G36*
X-14510D02*
X-14642D01*
X-14638Y-1628D01*
X-14594Y-1694D01*
X-14528Y-1738D01*
X-14510Y-1742D01*
Y-1610D01*
D02*
G37*
G36*
X-10440Y-1658D02*
Y-1790D01*
X-10308D01*
X-10312Y-1772D01*
X-10356Y-1706D01*
X-10422Y-1662D01*
X-10440Y-1658D01*
D02*
G37*
G36*
X-3713Y-1663D02*
X-3734Y-1667D01*
X-3803Y-1713D01*
X-3849Y-1782D01*
X-3853Y-1803D01*
X-3713D01*
Y-1663D01*
D02*
G37*
G36*
X2777Y-1820D02*
X2647D01*
Y-1950D01*
X2664Y-1947D01*
X2730Y-1903D01*
X2773Y-1837D01*
X2777Y-1820D01*
D02*
G37*
G36*
X2527D02*
X2396D01*
X2400Y-1837D01*
X2443Y-1903D01*
X2509Y-1947D01*
X2527Y-1950D01*
Y-1820D01*
D02*
G37*
G36*
X1911D02*
X1780D01*
Y-1950D01*
X1798Y-1947D01*
X1863Y-1903D01*
X1907Y-1837D01*
X1911Y-1820D01*
D02*
G37*
G36*
X-12500Y-1587D02*
X-12562Y-1599D01*
X-12615Y-1635D01*
X-12651Y-1688D01*
X-12663Y-1750D01*
X-12651Y-1812D01*
X-12615Y-1865D01*
X-12562Y-1901D01*
X-12500Y-1913D01*
X-12438Y-1901D01*
X-12385Y-1865D01*
X-12349Y-1812D01*
X-12337Y-1750D01*
X-12349Y-1688D01*
X-12385Y-1635D01*
X-12438Y-1599D01*
X-12500Y-1587D01*
D02*
G37*
G36*
X-4459Y-1663D02*
Y-1803D01*
X-4319D01*
X-4323Y-1782D01*
X-4369Y-1713D01*
X-4438Y-1667D01*
X-4459Y-1663D01*
D02*
G37*
G36*
X-4579D02*
X-4600Y-1667D01*
X-4669Y-1713D01*
X-4715Y-1782D01*
X-4720Y-1803D01*
X-4579D01*
Y-1663D01*
D02*
G37*
G36*
X-12100Y-1587D02*
X-12162Y-1599D01*
X-12215Y-1635D01*
X-12251Y-1688D01*
X-12263Y-1750D01*
X-12251Y-1812D01*
X-12215Y-1865D01*
X-12162Y-1901D01*
X-12100Y-1913D01*
X-12038Y-1901D01*
X-11985Y-1865D01*
X-11949Y-1812D01*
X-11937Y-1750D01*
X-11949Y-1688D01*
X-11985Y-1635D01*
X-12038Y-1599D01*
X-12100Y-1587D01*
D02*
G37*
G36*
X-4146Y-1490D02*
X-4287D01*
X-4282Y-1511D01*
X-4236Y-1580D01*
X-4167Y-1626D01*
X-4146Y-1630D01*
Y-1490D01*
D02*
G37*
G36*
X8192Y-1510D02*
X8060D01*
Y-1642D01*
X8078Y-1638D01*
X8144Y-1594D01*
X8188Y-1528D01*
X8192Y-1510D01*
D02*
G37*
G36*
X7940D02*
X7808D01*
X7812Y-1528D01*
X7856Y-1594D01*
X7922Y-1638D01*
X7940Y-1642D01*
Y-1510D01*
D02*
G37*
G36*
X-3886Y-1490D02*
X-4026D01*
Y-1630D01*
X-4005Y-1626D01*
X-3936Y-1580D01*
X-3890Y-1511D01*
X-3886Y-1490D01*
D02*
G37*
G36*
X-2414D02*
X-2554D01*
X-2550Y-1511D01*
X-2504Y-1580D01*
X-2435Y-1626D01*
X-2414Y-1630D01*
Y-1490D01*
D02*
G37*
G36*
X-3020D02*
X-3160D01*
Y-1630D01*
X-3139Y-1626D01*
X-3070Y-1580D01*
X-3024Y-1511D01*
X-3020Y-1490D01*
D02*
G37*
G36*
X-3280D02*
X-3420D01*
X-3416Y-1511D01*
X-3370Y-1580D01*
X-3301Y-1626D01*
X-3280Y-1630D01*
Y-1490D01*
D02*
G37*
G36*
X-1250Y-1337D02*
X-1312Y-1349D01*
X-1365Y-1385D01*
X-1401Y-1438D01*
X-1413Y-1500D01*
X-1401Y-1562D01*
X-1365Y-1615D01*
X-1312Y-1651D01*
X-1250Y-1663D01*
X-1188Y-1651D01*
X-1135Y-1615D01*
X-1099Y-1562D01*
X-1087Y-1500D01*
X-1099Y-1438D01*
X-1135Y-1385D01*
X-1188Y-1349D01*
X-1250Y-1337D01*
D02*
G37*
G36*
X1780Y-1569D02*
Y-1700D01*
X1911D01*
X1907Y-1682D01*
X1863Y-1617D01*
X1798Y-1573D01*
X1780Y-1569D01*
D02*
G37*
G36*
X1660D02*
X1643Y-1573D01*
X1577Y-1617D01*
X1533Y-1682D01*
X1530Y-1700D01*
X1660D01*
Y-1569D01*
D02*
G37*
G36*
X3900Y-787D02*
X3838Y-799D01*
X3785Y-835D01*
X3749Y-888D01*
X3737Y-950D01*
X3749Y-1012D01*
X3785Y-1065D01*
X3799Y-1075D01*
Y-1125D01*
X3785Y-1135D01*
X3749Y-1188D01*
X3737Y-1250D01*
X3749Y-1312D01*
X3785Y-1365D01*
X3799Y-1375D01*
Y-1425D01*
X3785Y-1435D01*
X3749Y-1488D01*
X3737Y-1550D01*
X3749Y-1612D01*
X3785Y-1665D01*
X3838Y-1701D01*
X3900Y-1713D01*
X3962Y-1701D01*
X4015Y-1665D01*
X4051Y-1612D01*
X4063Y-1550D01*
X4051Y-1488D01*
X4015Y-1435D01*
X4001Y-1425D01*
Y-1375D01*
X4015Y-1365D01*
X4051Y-1312D01*
X4063Y-1250D01*
X4051Y-1188D01*
X4015Y-1135D01*
X4001Y-1125D01*
Y-1075D01*
X4015Y-1065D01*
X4051Y-1012D01*
X4063Y-950D01*
X4051Y-888D01*
X4015Y-835D01*
X3962Y-799D01*
X3900Y-787D01*
D02*
G37*
G36*
X2527Y-1569D02*
X2509Y-1573D01*
X2443Y-1617D01*
X2400Y-1682D01*
X2396Y-1700D01*
X2527D01*
Y-1569D01*
D02*
G37*
G36*
X-12658Y-1560D02*
X-12790D01*
Y-1692D01*
X-12772Y-1688D01*
X-12706Y-1644D01*
X-12662Y-1578D01*
X-12658Y-1560D01*
D02*
G37*
G36*
X-12910D02*
X-13042D01*
X-13038Y-1578D01*
X-12994Y-1644D01*
X-12928Y-1688D01*
X-12910Y-1692D01*
Y-1560D01*
D02*
G37*
G36*
X2647Y-1569D02*
Y-1700D01*
X2777D01*
X2773Y-1682D01*
X2730Y-1617D01*
X2664Y-1573D01*
X2647Y-1569D01*
D02*
G37*
G36*
X9742Y-2410D02*
X9610D01*
Y-2542D01*
X9628Y-2538D01*
X9694Y-2494D01*
X9738Y-2428D01*
X9742Y-2410D01*
D02*
G37*
G36*
X-5060Y-4258D02*
X-5078Y-4262D01*
X-5144Y-4306D01*
X-5188Y-4372D01*
X-5192Y-4390D01*
X-5060D01*
Y-4258D01*
D02*
G37*
G36*
X560Y-4308D02*
Y-4440D01*
X692D01*
X688Y-4422D01*
X644Y-4356D01*
X578Y-4312D01*
X560Y-4308D01*
D02*
G37*
G36*
X440D02*
X422Y-4312D01*
X356Y-4356D01*
X312Y-4422D01*
X308Y-4440D01*
X440D01*
Y-4308D01*
D02*
G37*
G36*
X-4940Y-4258D02*
Y-4390D01*
X-4808D01*
X-4812Y-4372D01*
X-4856Y-4306D01*
X-4922Y-4262D01*
X-4940Y-4258D01*
D02*
G37*
G36*
X4250Y-3937D02*
X4188Y-3949D01*
X4135Y-3985D01*
X4099Y-4038D01*
X4087Y-4100D01*
X4099Y-4162D01*
X4135Y-4215D01*
X4188Y-4251D01*
X4250Y-4263D01*
X4312Y-4251D01*
X4365Y-4215D01*
X4401Y-4162D01*
X4413Y-4100D01*
X4401Y-4038D01*
X4365Y-3985D01*
X4312Y-3949D01*
X4250Y-3937D01*
D02*
G37*
G36*
X5810Y-4258D02*
Y-4390D01*
X5942D01*
X5938Y-4372D01*
X5894Y-4306D01*
X5828Y-4262D01*
X5810Y-4258D01*
D02*
G37*
G36*
X5690D02*
X5672Y-4262D01*
X5606Y-4306D01*
X5562Y-4372D01*
X5558Y-4390D01*
X5690D01*
Y-4258D01*
D02*
G37*
G36*
X2160Y-4358D02*
Y-4490D01*
X2292D01*
X2288Y-4472D01*
X2244Y-4406D01*
X2178Y-4362D01*
X2160Y-4358D01*
D02*
G37*
G36*
X-4808Y-4510D02*
X-4940D01*
Y-4642D01*
X-4922Y-4638D01*
X-4856Y-4594D01*
X-4812Y-4528D01*
X-4808Y-4510D01*
D02*
G37*
G36*
X-5060D02*
X-5192D01*
X-5188Y-4528D01*
X-5144Y-4594D01*
X-5078Y-4638D01*
X-5060Y-4642D01*
Y-4510D01*
D02*
G37*
G36*
X692Y-4560D02*
X560D01*
Y-4692D01*
X578Y-4688D01*
X644Y-4644D01*
X688Y-4578D01*
X692Y-4560D01*
D02*
G37*
G36*
X5690Y-4510D02*
X5558D01*
X5562Y-4528D01*
X5606Y-4594D01*
X5672Y-4638D01*
X5690Y-4642D01*
Y-4510D01*
D02*
G37*
G36*
X2040Y-4358D02*
X2022Y-4362D01*
X1956Y-4406D01*
X1912Y-4472D01*
X1908Y-4490D01*
X2040D01*
Y-4358D01*
D02*
G37*
G36*
X-5850Y-4187D02*
X-5912Y-4199D01*
X-5965Y-4235D01*
X-6001Y-4288D01*
X-6013Y-4350D01*
X-6001Y-4412D01*
X-5965Y-4465D01*
X-5912Y-4501D01*
X-5850Y-4513D01*
X-5788Y-4501D01*
X-5735Y-4465D01*
X-5699Y-4412D01*
X-5687Y-4350D01*
X-5699Y-4288D01*
X-5735Y-4235D01*
X-5788Y-4199D01*
X-5850Y-4187D01*
D02*
G37*
G36*
X5942Y-4510D02*
X5810D01*
Y-4642D01*
X5828Y-4638D01*
X5894Y-4594D01*
X5938Y-4528D01*
X5942Y-4510D01*
D02*
G37*
G36*
X-350Y-4000D02*
X-482D01*
X-478Y-4018D01*
X-434Y-4084D01*
X-368Y-4128D01*
X-350Y-4132D01*
Y-4000D01*
D02*
G37*
G36*
X2292Y-4060D02*
X2160D01*
Y-4192D01*
X2178Y-4188D01*
X2244Y-4144D01*
X2288Y-4078D01*
X2292Y-4060D01*
D02*
G37*
G36*
X2040D02*
X1908D01*
X1912Y-4078D01*
X1956Y-4144D01*
X2022Y-4188D01*
X2040Y-4192D01*
Y-4060D01*
D02*
G37*
G36*
X-98Y-4000D02*
X-230D01*
Y-4132D01*
X-212Y-4128D01*
X-146Y-4084D01*
X-102Y-4018D01*
X-98Y-4000D01*
D02*
G37*
G36*
X-1960Y-3858D02*
X-1978Y-3862D01*
X-2044Y-3906D01*
X-2088Y-3972D01*
X-2092Y-3990D01*
X-1960D01*
Y-3858D01*
D02*
G37*
G36*
X3142Y-3960D02*
X3010D01*
Y-4092D01*
X3028Y-4088D01*
X3094Y-4044D01*
X3138Y-3978D01*
X3142Y-3960D01*
D02*
G37*
G36*
X2890D02*
X2758D01*
X2762Y-3978D01*
X2806Y-4044D01*
X2872Y-4088D01*
X2890Y-4092D01*
Y-3960D01*
D02*
G37*
G36*
X1092Y-4060D02*
X960D01*
Y-4192D01*
X978Y-4188D01*
X1044Y-4144D01*
X1088Y-4078D01*
X1092Y-4060D01*
D02*
G37*
G36*
X-1310D02*
X-1442D01*
X-1438Y-4078D01*
X-1394Y-4144D01*
X-1328Y-4188D01*
X-1310Y-4192D01*
Y-4060D01*
D02*
G37*
G36*
X-1708Y-4110D02*
X-1840D01*
Y-4242D01*
X-1822Y-4238D01*
X-1756Y-4194D01*
X-1712Y-4128D01*
X-1708Y-4110D01*
D02*
G37*
G36*
X-1960D02*
X-2092D01*
X-2088Y-4128D01*
X-2044Y-4194D01*
X-1978Y-4238D01*
X-1960Y-4242D01*
Y-4110D01*
D02*
G37*
G36*
X-1058Y-4060D02*
X-1190D01*
Y-4192D01*
X-1172Y-4188D01*
X-1106Y-4144D01*
X-1062Y-4078D01*
X-1058Y-4060D01*
D02*
G37*
G36*
X840D02*
X708D01*
X712Y-4078D01*
X756Y-4144D01*
X822Y-4188D01*
X840Y-4192D01*
Y-4060D01*
D02*
G37*
G36*
X-558D02*
X-690D01*
Y-4192D01*
X-672Y-4188D01*
X-606Y-4144D01*
X-562Y-4078D01*
X-558Y-4060D01*
D02*
G37*
G36*
X-810D02*
X-942D01*
X-938Y-4078D01*
X-894Y-4144D01*
X-828Y-4188D01*
X-810Y-4192D01*
Y-4060D01*
D02*
G37*
G36*
X-660Y-4960D02*
X-792D01*
X-788Y-4978D01*
X-744Y-5044D01*
X-678Y-5088D01*
X-660Y-5092D01*
Y-4960D01*
D02*
G37*
G36*
X-1008D02*
X-1140D01*
Y-5092D01*
X-1122Y-5088D01*
X-1056Y-5044D01*
X-1012Y-4978D01*
X-1008Y-4960D01*
D02*
G37*
G36*
X-1260D02*
X-1392D01*
X-1388Y-4978D01*
X-1344Y-5044D01*
X-1278Y-5088D01*
X-1260Y-5092D01*
Y-4960D01*
D02*
G37*
G36*
X-408D02*
X-540D01*
Y-5092D01*
X-522Y-5088D01*
X-456Y-5044D01*
X-412Y-4978D01*
X-408Y-4960D01*
D02*
G37*
G36*
X5140Y-4808D02*
X5122Y-4812D01*
X5056Y-4856D01*
X5012Y-4922D01*
X5008Y-4940D01*
X5140D01*
Y-4808D01*
D02*
G37*
G36*
X92Y-4960D02*
X-40D01*
Y-5092D01*
X-22Y-5088D01*
X44Y-5044D01*
X88Y-4978D01*
X92Y-4960D01*
D02*
G37*
G36*
X-160D02*
X-292D01*
X-288Y-4978D01*
X-244Y-5044D01*
X-178Y-5088D01*
X-160Y-5092D01*
Y-4960D01*
D02*
G37*
G36*
X-1458D02*
X-1590D01*
Y-5092D01*
X-1572Y-5088D01*
X-1506Y-5044D01*
X-1462Y-4978D01*
X-1458Y-4960D01*
D02*
G37*
G36*
X5140Y-5060D02*
X5008D01*
X5012Y-5078D01*
X5056Y-5144D01*
X5122Y-5188D01*
X5140Y-5192D01*
Y-5060D01*
D02*
G37*
G36*
X1410Y-5108D02*
Y-5240D01*
X1542D01*
X1538Y-5222D01*
X1494Y-5156D01*
X1428Y-5112D01*
X1410Y-5108D01*
D02*
G37*
G36*
X1290D02*
X1272Y-5112D01*
X1206Y-5156D01*
X1162Y-5222D01*
X1158Y-5240D01*
X1290D01*
Y-5108D01*
D02*
G37*
G36*
X5392Y-5060D02*
X5260D01*
Y-5192D01*
X5278Y-5188D01*
X5344Y-5144D01*
X5388Y-5078D01*
X5392Y-5060D01*
D02*
G37*
G36*
X-1710Y-4960D02*
X-1842D01*
X-1838Y-4978D01*
X-1794Y-5044D01*
X-1728Y-5088D01*
X-1710Y-5092D01*
Y-4960D01*
D02*
G37*
G36*
X-2058D02*
X-2190D01*
Y-5092D01*
X-2172Y-5088D01*
X-2106Y-5044D01*
X-2062Y-4978D01*
X-2058Y-4960D01*
D02*
G37*
G36*
X-2310D02*
X-2442D01*
X-2438Y-4978D01*
X-2394Y-5044D01*
X-2328Y-5088D01*
X-2310Y-5092D01*
Y-4960D01*
D02*
G37*
G36*
X-40Y-4708D02*
Y-4840D01*
X92D01*
X88Y-4822D01*
X44Y-4756D01*
X-22Y-4712D01*
X-40Y-4708D01*
D02*
G37*
G36*
X-160D02*
X-178Y-4712D01*
X-244Y-4756D01*
X-288Y-4822D01*
X-292Y-4840D01*
X-160D01*
Y-4708D01*
D02*
G37*
G36*
X-540D02*
Y-4840D01*
X-408D01*
X-412Y-4822D01*
X-456Y-4756D01*
X-522Y-4712D01*
X-540Y-4708D01*
D02*
G37*
G36*
X3800Y-4487D02*
X3738Y-4499D01*
X3685Y-4535D01*
X3649Y-4588D01*
X3637Y-4650D01*
X3649Y-4712D01*
X3685Y-4765D01*
X3738Y-4801D01*
X3800Y-4813D01*
X3862Y-4801D01*
X3915Y-4765D01*
X3951Y-4712D01*
X3963Y-4650D01*
X3951Y-4588D01*
X3915Y-4535D01*
X3862Y-4499D01*
X3800Y-4487D01*
D02*
G37*
G36*
X440Y-4560D02*
X308D01*
X312Y-4578D01*
X356Y-4644D01*
X422Y-4688D01*
X440Y-4692D01*
Y-4560D01*
D02*
G37*
G36*
X2292Y-4610D02*
X2160D01*
Y-4742D01*
X2178Y-4738D01*
X2244Y-4694D01*
X2288Y-4628D01*
X2292Y-4610D01*
D02*
G37*
G36*
X2040D02*
X1908D01*
X1912Y-4628D01*
X1956Y-4694D01*
X2022Y-4738D01*
X2040Y-4742D01*
Y-4610D01*
D02*
G37*
G36*
X-660Y-4708D02*
X-678Y-4712D01*
X-744Y-4756D01*
X-788Y-4822D01*
X-792Y-4840D01*
X-660D01*
Y-4708D01*
D02*
G37*
G36*
X-2190D02*
Y-4840D01*
X-2058D01*
X-2062Y-4822D01*
X-2106Y-4756D01*
X-2172Y-4712D01*
X-2190Y-4708D01*
D02*
G37*
G36*
X-2310D02*
X-2328Y-4712D01*
X-2394Y-4756D01*
X-2438Y-4822D01*
X-2442Y-4840D01*
X-2310D01*
Y-4708D01*
D02*
G37*
G36*
X5260Y-4808D02*
Y-4940D01*
X5392D01*
X5388Y-4922D01*
X5344Y-4856D01*
X5278Y-4812D01*
X5260Y-4808D01*
D02*
G37*
G36*
X-1710Y-4708D02*
X-1728Y-4712D01*
X-1794Y-4756D01*
X-1838Y-4822D01*
X-1842Y-4840D01*
X-1710D01*
Y-4708D01*
D02*
G37*
G36*
X-1140D02*
Y-4840D01*
X-1008D01*
X-1012Y-4822D01*
X-1056Y-4756D01*
X-1122Y-4712D01*
X-1140Y-4708D01*
D02*
G37*
G36*
X-1260D02*
X-1278Y-4712D01*
X-1344Y-4756D01*
X-1388Y-4822D01*
X-1392Y-4840D01*
X-1260D01*
Y-4708D01*
D02*
G37*
G36*
X-1590D02*
Y-4840D01*
X-1458D01*
X-1462Y-4822D01*
X-1506Y-4756D01*
X-1572Y-4712D01*
X-1590Y-4708D01*
D02*
G37*
G36*
X-1840Y-3858D02*
Y-3990D01*
X-1708D01*
X-1712Y-3972D01*
X-1756Y-3906D01*
X-1822Y-3862D01*
X-1840Y-3858D01*
D02*
G37*
G36*
X6640Y-2808D02*
X6622Y-2812D01*
X6556Y-2856D01*
X6512Y-2922D01*
X6508Y-2940D01*
X6640D01*
Y-2808D01*
D02*
G37*
G36*
X1460Y-2908D02*
Y-3040D01*
X1592D01*
X1588Y-3022D01*
X1544Y-2956D01*
X1478Y-2912D01*
X1460Y-2908D01*
D02*
G37*
G36*
X1340D02*
X1322Y-2912D01*
X1256Y-2956D01*
X1212Y-3022D01*
X1208Y-3040D01*
X1340D01*
Y-2908D01*
D02*
G37*
G36*
X6760Y-2808D02*
Y-2940D01*
X6892D01*
X6888Y-2922D01*
X6844Y-2856D01*
X6778Y-2812D01*
X6760Y-2808D01*
D02*
G37*
G36*
X-3713Y-2789D02*
X-3853D01*
X-3849Y-2810D01*
X-3803Y-2879D01*
X-3734Y-2925D01*
X-3713Y-2930D01*
Y-2789D01*
D02*
G37*
G36*
X-4319D02*
X-4459D01*
Y-2930D01*
X-4438Y-2925D01*
X-4369Y-2879D01*
X-4323Y-2810D01*
X-4319Y-2789D01*
D02*
G37*
G36*
X-4579D02*
X-4720D01*
X-4715Y-2810D01*
X-4669Y-2879D01*
X-4600Y-2925D01*
X-4579Y-2930D01*
Y-2789D01*
D02*
G37*
G36*
X760Y-2908D02*
Y-3040D01*
X892D01*
X888Y-3022D01*
X844Y-2956D01*
X778Y-2912D01*
X760Y-2908D01*
D02*
G37*
G36*
X3140Y-3158D02*
X3122Y-3162D01*
X3056Y-3206D01*
X3012Y-3272D01*
X3008Y-3290D01*
X3140D01*
Y-3158D01*
D02*
G37*
G36*
X1592Y-3160D02*
X1460D01*
Y-3292D01*
X1478Y-3288D01*
X1544Y-3244D01*
X1588Y-3178D01*
X1592Y-3160D01*
D02*
G37*
G36*
X1340D02*
X1208D01*
X1212Y-3178D01*
X1256Y-3244D01*
X1322Y-3288D01*
X1340Y-3292D01*
Y-3160D01*
D02*
G37*
G36*
X3260Y-3158D02*
Y-3290D01*
X3392D01*
X3388Y-3272D01*
X3344Y-3206D01*
X3278Y-3162D01*
X3260Y-3158D01*
D02*
G37*
G36*
X640Y-2908D02*
X622Y-2912D01*
X556Y-2956D01*
X512Y-3022D01*
X508Y-3040D01*
X640D01*
Y-2908D01*
D02*
G37*
G36*
X6892Y-3060D02*
X6760D01*
Y-3192D01*
X6778Y-3188D01*
X6844Y-3144D01*
X6888Y-3078D01*
X6892Y-3060D01*
D02*
G37*
G36*
X6640D02*
X6508D01*
X6512Y-3078D01*
X6556Y-3144D01*
X6622Y-3188D01*
X6640Y-3192D01*
Y-3060D01*
D02*
G37*
G36*
X-3593Y-2529D02*
Y-2669D01*
X-3453D01*
X-3457Y-2648D01*
X-3503Y-2579D01*
X-3572Y-2533D01*
X-3593Y-2529D01*
D02*
G37*
G36*
X-3713D02*
X-3734Y-2533D01*
X-3803Y-2579D01*
X-3849Y-2648D01*
X-3853Y-2669D01*
X-3713D01*
Y-2529D01*
D02*
G37*
G36*
X-4459D02*
Y-2669D01*
X-4319D01*
X-4323Y-2648D01*
X-4369Y-2579D01*
X-4438Y-2533D01*
X-4459Y-2529D01*
D02*
G37*
G36*
X-2847D02*
X-2868Y-2533D01*
X-2937Y-2579D01*
X-2983Y-2648D01*
X-2987Y-2669D01*
X-2847D01*
Y-2529D01*
D02*
G37*
G36*
X9490Y-2410D02*
X9358D01*
X9362Y-2428D01*
X9406Y-2494D01*
X9472Y-2538D01*
X9490Y-2542D01*
Y-2410D01*
D02*
G37*
G36*
X140D02*
X8D01*
X12Y-2428D01*
X56Y-2494D01*
X122Y-2538D01*
X140Y-2542D01*
Y-2410D01*
D02*
G37*
G36*
X-2727Y-2529D02*
Y-2669D01*
X-2587D01*
X-2591Y-2648D01*
X-2637Y-2579D01*
X-2706Y-2533D01*
X-2727Y-2529D01*
D02*
G37*
G36*
X-4579D02*
X-4600Y-2533D01*
X-4669Y-2579D01*
X-4715Y-2648D01*
X-4720Y-2669D01*
X-4579D01*
Y-2529D01*
D02*
G37*
G36*
X-2587Y-2789D02*
X-2727D01*
Y-2930D01*
X-2706Y-2925D01*
X-2637Y-2879D01*
X-2591Y-2810D01*
X-2587Y-2789D01*
D02*
G37*
G36*
X-2847D02*
X-2987D01*
X-2983Y-2810D01*
X-2937Y-2879D01*
X-2868Y-2925D01*
X-2847Y-2930D01*
Y-2789D01*
D02*
G37*
G36*
X-3453D02*
X-3593D01*
Y-2930D01*
X-3572Y-2925D01*
X-3503Y-2879D01*
X-3457Y-2810D01*
X-3453Y-2789D01*
D02*
G37*
G36*
X2090Y-2467D02*
X2028Y-2479D01*
X1975Y-2515D01*
X1939Y-2568D01*
X1927Y-2630D01*
X1939Y-2692D01*
X1975Y-2745D01*
X2028Y-2781D01*
X2090Y-2793D01*
X2152Y-2781D01*
X2205Y-2745D01*
X2241Y-2692D01*
X2253Y-2630D01*
X2241Y-2568D01*
X2205Y-2515D01*
X2152Y-2479D01*
X2090Y-2467D01*
D02*
G37*
G36*
X3600Y-2387D02*
X3538Y-2399D01*
X3485Y-2435D01*
X3449Y-2488D01*
X3437Y-2550D01*
X3449Y-2612D01*
X3485Y-2665D01*
X3538Y-2701D01*
X3600Y-2713D01*
X3662Y-2701D01*
X3715Y-2665D01*
X3751Y-2612D01*
X3763Y-2550D01*
X3751Y-2488D01*
X3715Y-2435D01*
X3662Y-2399D01*
X3600Y-2387D01*
D02*
G37*
G36*
X1342Y-2610D02*
X1210D01*
Y-2742D01*
X1228Y-2738D01*
X1294Y-2694D01*
X1338Y-2628D01*
X1342Y-2610D01*
D02*
G37*
G36*
X1090D02*
X958D01*
X962Y-2628D01*
X1006Y-2694D01*
X1072Y-2738D01*
X1090Y-2742D01*
Y-2610D01*
D02*
G37*
G36*
X-350Y-3748D02*
X-368Y-3752D01*
X-434Y-3796D01*
X-478Y-3862D01*
X-482Y-3880D01*
X-350D01*
Y-3748D01*
D02*
G37*
G36*
X2160Y-3808D02*
Y-3940D01*
X2292D01*
X2288Y-3922D01*
X2244Y-3856D01*
X2178Y-3812D01*
X2160Y-3808D01*
D02*
G37*
G36*
X2040D02*
X2022Y-3812D01*
X1956Y-3856D01*
X1912Y-3922D01*
X1908Y-3940D01*
X2040D01*
Y-3808D01*
D02*
G37*
G36*
X-230Y-3748D02*
Y-3880D01*
X-98D01*
X-102Y-3862D01*
X-146Y-3796D01*
X-212Y-3752D01*
X-230Y-3748D01*
D02*
G37*
G36*
X-3335Y-3387D02*
X-3397Y-3399D01*
X-3450Y-3435D01*
X-3486Y-3488D01*
X-3498Y-3550D01*
X-3486Y-3612D01*
X-3450Y-3665D01*
X-3397Y-3701D01*
X-3335Y-3713D01*
X-3273Y-3701D01*
X-3220Y-3665D01*
X-3184Y-3612D01*
X-3172Y-3550D01*
X-3184Y-3488D01*
X-3220Y-3435D01*
X-3273Y-3399D01*
X-3335Y-3387D01*
D02*
G37*
G36*
X3010Y-3708D02*
Y-3840D01*
X3142D01*
X3138Y-3822D01*
X3094Y-3756D01*
X3028Y-3712D01*
X3010Y-3708D01*
D02*
G37*
G36*
X2890D02*
X2872Y-3712D01*
X2806Y-3756D01*
X2762Y-3822D01*
X2758Y-3840D01*
X2890D01*
Y-3708D01*
D02*
G37*
G36*
X960Y-3808D02*
Y-3940D01*
X1092D01*
X1088Y-3922D01*
X1044Y-3856D01*
X978Y-3812D01*
X960Y-3808D01*
D02*
G37*
G36*
X-1310D02*
X-1328Y-3812D01*
X-1394Y-3856D01*
X-1438Y-3922D01*
X-1442Y-3940D01*
X-1310D01*
Y-3808D01*
D02*
G37*
G36*
X6492Y-3810D02*
X6360D01*
Y-3942D01*
X6378Y-3938D01*
X6444Y-3894D01*
X6488Y-3828D01*
X6492Y-3810D01*
D02*
G37*
G36*
X6240D02*
X6108D01*
X6112Y-3828D01*
X6156Y-3894D01*
X6222Y-3938D01*
X6240Y-3942D01*
Y-3810D01*
D02*
G37*
G36*
X-1190Y-3808D02*
Y-3940D01*
X-1058D01*
X-1062Y-3922D01*
X-1106Y-3856D01*
X-1172Y-3812D01*
X-1190Y-3808D01*
D02*
G37*
G36*
X840D02*
X822Y-3812D01*
X756Y-3856D01*
X712Y-3922D01*
X708Y-3940D01*
X840D01*
Y-3808D01*
D02*
G37*
G36*
X-690D02*
Y-3940D01*
X-558D01*
X-562Y-3922D01*
X-606Y-3856D01*
X-672Y-3812D01*
X-690Y-3808D01*
D02*
G37*
G36*
X-810D02*
X-828Y-3812D01*
X-894Y-3856D01*
X-938Y-3922D01*
X-942Y-3940D01*
X-810D01*
Y-3808D01*
D02*
G37*
G36*
X260Y-3258D02*
Y-3390D01*
X392D01*
X388Y-3372D01*
X344Y-3306D01*
X278Y-3262D01*
X260Y-3258D01*
D02*
G37*
G36*
X140D02*
X122Y-3262D01*
X56Y-3306D01*
X12Y-3372D01*
X8Y-3390D01*
X140D01*
Y-3258D01*
D02*
G37*
G36*
X-1900Y-3087D02*
X-1962Y-3099D01*
X-2015Y-3135D01*
X-2051Y-3188D01*
X-2063Y-3250D01*
X-2051Y-3312D01*
X-2015Y-3365D01*
X-1962Y-3401D01*
X-1900Y-3413D01*
X-1838Y-3401D01*
X-1785Y-3365D01*
X-1749Y-3312D01*
X-1737Y-3250D01*
X-1749Y-3188D01*
X-1785Y-3135D01*
X-1838Y-3099D01*
X-1900Y-3087D01*
D02*
G37*
G36*
X-6150Y-3037D02*
X-6212Y-3049D01*
X-6265Y-3085D01*
X-6301Y-3138D01*
X-6313Y-3200D01*
X-6301Y-3262D01*
X-6265Y-3315D01*
X-6212Y-3351D01*
X-6150Y-3363D01*
X-6088Y-3351D01*
X-6035Y-3315D01*
X-5999Y-3262D01*
X-5987Y-3200D01*
X-5999Y-3138D01*
X-6035Y-3085D01*
X-6088Y-3049D01*
X-6150Y-3037D01*
D02*
G37*
G36*
X892Y-3160D02*
X760D01*
Y-3292D01*
X778Y-3288D01*
X844Y-3244D01*
X888Y-3178D01*
X892Y-3160D01*
D02*
G37*
G36*
X640D02*
X508D01*
X512Y-3178D01*
X556Y-3244D01*
X622Y-3288D01*
X640Y-3292D01*
Y-3160D01*
D02*
G37*
G36*
X-4982Y-2975D02*
X-5044Y-2987D01*
X-5097Y-3023D01*
X-5133Y-3076D01*
X-5145Y-3138D01*
X-5133Y-3201D01*
X-5097Y-3254D01*
X-5044Y-3289D01*
X-4982Y-3301D01*
X-4919Y-3289D01*
X-4866Y-3254D01*
X-4831Y-3201D01*
X-4819Y-3138D01*
X-4831Y-3076D01*
X-4866Y-3023D01*
X-4919Y-2987D01*
X-4982Y-2975D01*
D02*
G37*
G36*
X-2350Y-3387D02*
X-2412Y-3399D01*
X-2465Y-3435D01*
X-2499Y-3485D01*
X-2520Y-3488D01*
X-2530D01*
X-2551Y-3485D01*
X-2585Y-3435D01*
X-2638Y-3399D01*
X-2700Y-3387D01*
X-2762Y-3399D01*
X-2815Y-3435D01*
X-2851Y-3488D01*
X-2863Y-3550D01*
X-2851Y-3612D01*
X-2815Y-3665D01*
X-2762Y-3701D01*
X-2700Y-3713D01*
X-2638Y-3701D01*
X-2585Y-3665D01*
X-2551Y-3615D01*
X-2530Y-3612D01*
X-2520D01*
X-2499Y-3615D01*
X-2465Y-3665D01*
X-2412Y-3701D01*
X-2350Y-3713D01*
X-2288Y-3701D01*
X-2235Y-3665D01*
X-2199Y-3612D01*
X-2187Y-3550D01*
X-2199Y-3488D01*
X-2235Y-3435D01*
X-2288Y-3399D01*
X-2350Y-3387D01*
D02*
G37*
G36*
X140Y-3510D02*
X8D01*
X12Y-3528D01*
X56Y-3594D01*
X122Y-3638D01*
X140Y-3642D01*
Y-3510D01*
D02*
G37*
G36*
X6360Y-3558D02*
Y-3690D01*
X6492D01*
X6488Y-3672D01*
X6444Y-3606D01*
X6378Y-3562D01*
X6360Y-3558D01*
D02*
G37*
G36*
X6240D02*
X6222Y-3562D01*
X6156Y-3606D01*
X6112Y-3672D01*
X6108Y-3690D01*
X6240D01*
Y-3558D01*
D02*
G37*
G36*
X392Y-3510D02*
X260D01*
Y-3642D01*
X278Y-3638D01*
X344Y-3594D01*
X388Y-3528D01*
X392Y-3510D01*
D02*
G37*
G36*
X3392Y-3410D02*
X3260D01*
Y-3542D01*
X3278Y-3538D01*
X3344Y-3494D01*
X3388Y-3428D01*
X3392Y-3410D01*
D02*
G37*
G36*
X3140D02*
X3008D01*
X3012Y-3428D01*
X3056Y-3494D01*
X3122Y-3538D01*
X3140Y-3542D01*
Y-3410D01*
D02*
G37*
G36*
X-3950Y-3387D02*
X-4012Y-3399D01*
X-4065Y-3435D01*
X-4101Y-3488D01*
X-4113Y-3550D01*
X-4104Y-3595D01*
X-4133Y-3633D01*
X-4143Y-3638D01*
X-4150Y-3637D01*
X-4212Y-3649D01*
X-4265Y-3685D01*
X-4301Y-3738D01*
X-4313Y-3800D01*
X-4301Y-3862D01*
X-4265Y-3915D01*
X-4212Y-3951D01*
X-4150Y-3963D01*
X-4088Y-3951D01*
X-4035Y-3915D01*
X-3999Y-3862D01*
X-3987Y-3800D01*
X-3996Y-3755D01*
X-3967Y-3717D01*
X-3957Y-3712D01*
X-3950Y-3713D01*
X-3888Y-3701D01*
X-3835Y-3665D01*
X-3799Y-3612D01*
X-3787Y-3550D01*
X-3799Y-3488D01*
X-3835Y-3435D01*
X-3888Y-3399D01*
X-3950Y-3387D01*
D02*
G37*
G36*
X-3580Y4227D02*
Y4087D01*
X-3440D01*
X-3444Y4108D01*
X-3490Y4177D01*
X-3559Y4223D01*
X-3580Y4227D01*
D02*
G37*
G36*
X-3700D02*
X-3721Y4223D01*
X-3790Y4177D01*
X-3836Y4108D01*
X-3840Y4087D01*
X-3700D01*
Y4227D01*
D02*
G37*
G36*
X-28Y4130D02*
X-220D01*
Y3938D01*
X-213Y3939D01*
X-150Y3965D01*
X-96Y4006D01*
X-55Y4060D01*
X-29Y4123D01*
X-28Y4130D01*
D02*
G37*
G36*
X-340Y4442D02*
X-347Y4441D01*
X-410Y4415D01*
X-464Y4374D01*
X-505Y4320D01*
X-531Y4257D01*
X-532Y4250D01*
X-340D01*
Y4442D01*
D02*
G37*
G36*
X-3873Y4400D02*
X-4013D01*
Y4260D01*
X-3992Y4264D01*
X-3923Y4310D01*
X-3877Y4379D01*
X-3873Y4400D01*
D02*
G37*
G36*
X-4133D02*
X-4273D01*
X-4269Y4379D01*
X-4223Y4310D01*
X-4154Y4264D01*
X-4133Y4260D01*
Y4400D01*
D02*
G37*
G36*
X-220Y4442D02*
Y4250D01*
X-28D01*
X-29Y4257D01*
X-55Y4320D01*
X-96Y4374D01*
X-150Y4415D01*
X-213Y4441D01*
X-220Y4442D01*
D02*
G37*
G36*
X-340Y4130D02*
X-532D01*
X-531Y4123D01*
X-505Y4060D01*
X-464Y4006D01*
X-410Y3965D01*
X-347Y3939D01*
X-340Y3938D01*
Y4130D01*
D02*
G37*
G36*
X-3267Y3794D02*
X-3288Y3790D01*
X-3357Y3744D01*
X-3403Y3675D01*
X-3407Y3654D01*
X-3267D01*
Y3794D01*
D02*
G37*
G36*
X-4013D02*
Y3654D01*
X-3873D01*
X-3877Y3675D01*
X-3923Y3744D01*
X-3992Y3790D01*
X-4013Y3794D01*
D02*
G37*
G36*
X-4133D02*
X-4154Y3790D01*
X-4223Y3744D01*
X-4269Y3675D01*
X-4273Y3654D01*
X-4133D01*
Y3794D01*
D02*
G37*
G36*
X-3147D02*
Y3654D01*
X-3007D01*
X-3011Y3675D01*
X-3057Y3744D01*
X-3126Y3790D01*
X-3147Y3794D01*
D02*
G37*
G36*
X-3440Y3967D02*
X-3580D01*
Y3827D01*
X-3559Y3831D01*
X-3490Y3877D01*
X-3444Y3946D01*
X-3440Y3967D01*
D02*
G37*
G36*
X-3700D02*
X-3840D01*
X-3836Y3946D01*
X-3790Y3877D01*
X-3721Y3831D01*
X-3700Y3827D01*
Y3967D01*
D02*
G37*
G36*
X-1800Y4063D02*
X-1862Y4051D01*
X-1915Y4015D01*
X-1951Y3962D01*
X-1963Y3900D01*
X-1951Y3838D01*
X-1915Y3785D01*
X-1862Y3749D01*
X-1800Y3737D01*
X-1738Y3749D01*
X-1685Y3785D01*
X-1649Y3838D01*
X-1637Y3900D01*
X-1649Y3962D01*
X-1685Y4015D01*
X-1738Y4051D01*
X-1800Y4063D01*
D02*
G37*
G36*
X3890Y5040D02*
X3758D01*
X3762Y5022D01*
X3806Y4956D01*
X3872Y4912D01*
X3890Y4908D01*
Y5040D01*
D02*
G37*
G36*
X-3440Y4833D02*
X-3580D01*
Y4693D01*
X-3559Y4697D01*
X-3490Y4743D01*
X-3444Y4812D01*
X-3440Y4833D01*
D02*
G37*
G36*
X-3700D02*
X-3840D01*
X-3836Y4812D01*
X-3790Y4743D01*
X-3721Y4697D01*
X-3700Y4693D01*
Y4833D01*
D02*
G37*
G36*
X4142Y5040D02*
X4010D01*
Y4908D01*
X4028Y4912D01*
X4094Y4956D01*
X4138Y5022D01*
X4142Y5040D01*
D02*
G37*
G36*
X4890D02*
X4758D01*
X4762Y5022D01*
X4806Y4956D01*
X4872Y4912D01*
X4890Y4908D01*
Y5040D01*
D02*
G37*
G36*
X4642D02*
X4510D01*
Y4908D01*
X4528Y4912D01*
X4594Y4956D01*
X4638Y5022D01*
X4642Y5040D01*
D02*
G37*
G36*
X4390D02*
X4258D01*
X4262Y5022D01*
X4306Y4956D01*
X4372Y4912D01*
X4390Y4908D01*
Y5040D01*
D02*
G37*
G36*
X-1558Y4790D02*
X-1690D01*
Y4658D01*
X-1672Y4662D01*
X-1606Y4706D01*
X-1562Y4772D01*
X-1558Y4790D01*
D02*
G37*
G36*
X-4133Y4660D02*
X-4154Y4656D01*
X-4223Y4610D01*
X-4269Y4541D01*
X-4273Y4520D01*
X-4133D01*
Y4660D01*
D02*
G37*
G36*
X-3007Y4400D02*
X-3147D01*
Y4260D01*
X-3126Y4264D01*
X-3057Y4310D01*
X-3011Y4379D01*
X-3007Y4400D01*
D02*
G37*
G36*
X-3267D02*
X-3407D01*
X-3403Y4379D01*
X-3357Y4310D01*
X-3288Y4264D01*
X-3267Y4260D01*
Y4400D01*
D02*
G37*
G36*
X-4013Y4660D02*
Y4520D01*
X-3873D01*
X-3877Y4541D01*
X-3923Y4610D01*
X-3992Y4656D01*
X-4013Y4660D01*
D02*
G37*
G36*
X-1810Y4790D02*
X-1942D01*
X-1938Y4772D01*
X-1894Y4706D01*
X-1828Y4662D01*
X-1810Y4658D01*
Y4790D01*
D02*
G37*
G36*
X-3147Y4660D02*
Y4520D01*
X-3007D01*
X-3011Y4541D01*
X-3057Y4610D01*
X-3126Y4656D01*
X-3147Y4660D01*
D02*
G37*
G36*
X-3267D02*
X-3288Y4656D01*
X-3357Y4610D01*
X-3403Y4541D01*
X-3407Y4520D01*
X-3267D01*
Y4660D01*
D02*
G37*
G36*
X-1610Y3090D02*
X-1742D01*
X-1738Y3072D01*
X-1694Y3006D01*
X-1628Y2962D01*
X-1610Y2958D01*
Y3090D01*
D02*
G37*
G36*
X460Y3042D02*
Y2910D01*
X592D01*
X588Y2928D01*
X544Y2994D01*
X478Y3038D01*
X460Y3042D01*
D02*
G37*
G36*
X340D02*
X322Y3038D01*
X256Y2994D01*
X212Y2928D01*
X208Y2910D01*
X340D01*
Y3042D01*
D02*
G37*
G36*
X-2710Y3092D02*
X-2728Y3088D01*
X-2794Y3044D01*
X-2838Y2978D01*
X-2842Y2960D01*
X-2710D01*
Y3092D01*
D02*
G37*
G36*
X1692Y3190D02*
X1560D01*
Y3058D01*
X1578Y3062D01*
X1644Y3106D01*
X1688Y3172D01*
X1692Y3190D01*
D02*
G37*
G36*
X1440D02*
X1308D01*
X1312Y3172D01*
X1356Y3106D01*
X1422Y3062D01*
X1440Y3058D01*
Y3190D01*
D02*
G37*
G36*
X-2590Y3092D02*
Y2960D01*
X-2458D01*
X-2462Y2978D01*
X-2506Y3044D01*
X-2572Y3088D01*
X-2590Y3092D01*
D02*
G37*
G36*
X-4700Y3063D02*
X-4762Y3051D01*
X-4815Y3015D01*
X-4851Y2962D01*
X-4863Y2900D01*
X-4862Y2893D01*
X-4867Y2883D01*
X-4905Y2854D01*
X-4950Y2863D01*
X-5012Y2851D01*
X-5065Y2815D01*
X-5101Y2762D01*
X-5113Y2700D01*
X-5101Y2638D01*
X-5065Y2585D01*
X-5012Y2549D01*
X-4950Y2537D01*
X-4888Y2549D01*
X-4835Y2585D01*
X-4799Y2638D01*
X-4787Y2700D01*
X-4788Y2707D01*
X-4783Y2717D01*
X-4745Y2746D01*
X-4700Y2737D01*
X-4638Y2749D01*
X-4585Y2785D01*
X-4549Y2838D01*
X-4537Y2900D01*
X-4549Y2962D01*
X-4585Y3015D01*
X-4638Y3051D01*
X-4700Y3063D01*
D02*
G37*
G36*
X340Y2790D02*
X208D01*
X212Y2772D01*
X256Y2706D01*
X322Y2662D01*
X340Y2658D01*
Y2790D01*
D02*
G37*
G36*
X2750Y2913D02*
X2688Y2901D01*
X2635Y2865D01*
X2599Y2812D01*
X2587Y2750D01*
X2599Y2688D01*
X2635Y2635D01*
X2688Y2599D01*
X2750Y2587D01*
X2812Y2599D01*
X2865Y2635D01*
X2901Y2688D01*
X2913Y2750D01*
X2901Y2812D01*
X2865Y2865D01*
X2812Y2901D01*
X2750Y2913D01*
D02*
G37*
G36*
X2250D02*
X2188Y2901D01*
X2135Y2865D01*
X2099Y2812D01*
X2087Y2750D01*
X2099Y2688D01*
X2135Y2635D01*
X2188Y2599D01*
X2250Y2587D01*
X2312Y2599D01*
X2365Y2635D01*
X2401Y2688D01*
X2413Y2750D01*
X2401Y2812D01*
X2365Y2865D01*
X2312Y2901D01*
X2250Y2913D01*
D02*
G37*
G36*
X592Y2790D02*
X460D01*
Y2658D01*
X478Y2662D01*
X544Y2706D01*
X588Y2772D01*
X592Y2790D01*
D02*
G37*
G36*
X-3600Y3063D02*
X-3662Y3051D01*
X-3715Y3015D01*
X-3751Y2962D01*
X-3763Y2900D01*
X-3751Y2838D01*
X-3715Y2785D01*
X-3662Y2749D01*
X-3600Y2737D01*
X-3538Y2749D01*
X-3485Y2785D01*
X-3449Y2838D01*
X-3437Y2900D01*
X-3449Y2962D01*
X-3485Y3015D01*
X-3538Y3051D01*
X-3600Y3063D01*
D02*
G37*
G36*
X-2458Y2840D02*
X-2590D01*
Y2708D01*
X-2572Y2712D01*
X-2506Y2756D01*
X-2462Y2822D01*
X-2458Y2840D01*
D02*
G37*
G36*
X-2710D02*
X-2842D01*
X-2838Y2822D01*
X-2794Y2756D01*
X-2728Y2712D01*
X-2710Y2708D01*
Y2840D01*
D02*
G37*
G36*
X-3267Y3534D02*
X-3407D01*
X-3403Y3513D01*
X-3357Y3444D01*
X-3288Y3398D01*
X-3267Y3393D01*
Y3534D01*
D02*
G37*
G36*
X-3873D02*
X-4013D01*
Y3393D01*
X-3992Y3398D01*
X-3923Y3444D01*
X-3877Y3513D01*
X-3873Y3534D01*
D02*
G37*
G36*
X-4133D02*
X-4273D01*
X-4269Y3513D01*
X-4223Y3444D01*
X-4154Y3398D01*
X-4133Y3393D01*
Y3534D01*
D02*
G37*
G36*
X-3007D02*
X-3147D01*
Y3393D01*
X-3126Y3398D01*
X-3057Y3444D01*
X-3011Y3513D01*
X-3007Y3534D01*
D02*
G37*
G36*
X3250Y3913D02*
X3188Y3901D01*
X3135Y3865D01*
X3099Y3812D01*
X3087Y3750D01*
X3099Y3688D01*
X3135Y3635D01*
X3188Y3599D01*
X3250Y3587D01*
X3312Y3599D01*
X3365Y3635D01*
X3401Y3688D01*
X3413Y3750D01*
X3401Y3812D01*
X3365Y3865D01*
X3312Y3901D01*
X3250Y3913D01*
D02*
G37*
G36*
X2750D02*
X2688Y3901D01*
X2635Y3865D01*
X2599Y3812D01*
X2587Y3750D01*
X2599Y3688D01*
X2635Y3635D01*
X2688Y3599D01*
X2750Y3587D01*
X2812Y3599D01*
X2865Y3635D01*
X2901Y3688D01*
X2913Y3750D01*
X2901Y3812D01*
X2865Y3865D01*
X2812Y3901D01*
X2750Y3913D01*
D02*
G37*
G36*
X2250D02*
X2188Y3901D01*
X2135Y3865D01*
X2099Y3812D01*
X2087Y3750D01*
X2099Y3688D01*
X2135Y3635D01*
X2188Y3599D01*
X2250Y3587D01*
X2312Y3599D01*
X2365Y3635D01*
X2401Y3688D01*
X2413Y3750D01*
X2401Y3812D01*
X2365Y3865D01*
X2312Y3901D01*
X2250Y3913D01*
D02*
G37*
G36*
X-1250Y3444D02*
X-1324Y3429D01*
X-1387Y3387D01*
X-1429Y3324D01*
X-1442Y3319D01*
X-1472Y3338D01*
X-1490Y3342D01*
Y3150D01*
Y2958D01*
X-1472Y2962D01*
X-1406Y3006D01*
X-1378Y3047D01*
X-1327Y3070D01*
X-1311Y3068D01*
X-1250Y3056D01*
X-1176Y3071D01*
X-1113Y3113D01*
X-1071Y3176D01*
X-1056Y3250D01*
X-1071Y3324D01*
X-1113Y3387D01*
X-1176Y3429D01*
X-1250Y3444D01*
D02*
G37*
G36*
X-1610Y3342D02*
X-1628Y3338D01*
X-1694Y3294D01*
X-1738Y3228D01*
X-1742Y3210D01*
X-1610D01*
Y3342D01*
D02*
G37*
G36*
X2750Y3413D02*
X2688Y3401D01*
X2635Y3365D01*
X2599Y3312D01*
X2587Y3250D01*
X2599Y3188D01*
X2635Y3135D01*
X2688Y3099D01*
X2750Y3087D01*
X2812Y3099D01*
X2865Y3135D01*
X2901Y3188D01*
X2913Y3250D01*
X2901Y3312D01*
X2865Y3365D01*
X2812Y3401D01*
X2750Y3413D01*
D02*
G37*
G36*
X2250D02*
X2188Y3401D01*
X2135Y3365D01*
X2099Y3312D01*
X2087Y3250D01*
X2099Y3188D01*
X2135Y3135D01*
X2188Y3099D01*
X2250Y3087D01*
X2312Y3099D01*
X2365Y3135D01*
X2401Y3188D01*
X2413Y3250D01*
X2401Y3312D01*
X2365Y3365D01*
X2312Y3401D01*
X2250Y3413D01*
D02*
G37*
G36*
X-6250Y3613D02*
X-6312Y3601D01*
X-6365Y3565D01*
X-6401Y3512D01*
X-6413Y3450D01*
X-6401Y3388D01*
X-6365Y3335D01*
X-6312Y3299D01*
X-6250Y3287D01*
X-6188Y3299D01*
X-6135Y3335D01*
X-6099Y3388D01*
X-6087Y3450D01*
X-6099Y3512D01*
X-6135Y3565D01*
X-6188Y3601D01*
X-6250Y3613D01*
D02*
G37*
G36*
X1560Y3442D02*
Y3310D01*
X1692D01*
X1688Y3328D01*
X1644Y3394D01*
X1578Y3438D01*
X1560Y3442D01*
D02*
G37*
G36*
X1440D02*
X1422Y3438D01*
X1356Y3394D01*
X1312Y3328D01*
X1308Y3310D01*
X1440D01*
Y3442D01*
D02*
G37*
G36*
X-5650Y3613D02*
X-5712Y3601D01*
X-5765Y3565D01*
X-5801Y3512D01*
X-5813Y3450D01*
X-5801Y3388D01*
X-5765Y3335D01*
X-5712Y3299D01*
X-5650Y3287D01*
X-5588Y3299D01*
X-5535Y3335D01*
X-5499Y3388D01*
X-5487Y3450D01*
X-5499Y3512D01*
X-5535Y3565D01*
X-5588Y3601D01*
X-5650Y3613D01*
D02*
G37*
G36*
X5142Y5040D02*
X5010D01*
Y4908D01*
X5028Y4912D01*
X5094Y4956D01*
X5138Y5022D01*
X5142Y5040D01*
D02*
G37*
G36*
X3890Y5940D02*
X3758D01*
X3762Y5922D01*
X3806Y5856D01*
X3872Y5812D01*
X3890Y5808D01*
Y5940D01*
D02*
G37*
G36*
X4642D02*
X4510D01*
Y5808D01*
X4528Y5812D01*
X4594Y5856D01*
X4638Y5922D01*
X4642Y5940D01*
D02*
G37*
G36*
X4142D02*
X4010D01*
Y5808D01*
X4028Y5812D01*
X4094Y5856D01*
X4138Y5922D01*
X4142Y5940D01*
D02*
G37*
G36*
X4390D02*
X4258D01*
X4262Y5922D01*
X4306Y5856D01*
X4372Y5812D01*
X4390Y5808D01*
Y5940D01*
D02*
G37*
G36*
X-2005Y6663D02*
X-2067Y6651D01*
X-2120Y6615D01*
X-2155Y6562D01*
X-2168Y6500D01*
X-2155Y6438D01*
X-2120Y6385D01*
X-2069Y6350D01*
X-2065Y6324D01*
X-2064Y6319D01*
X-2066Y6298D01*
X-2115Y6265D01*
X-2151Y6212D01*
X-2163Y6150D01*
X-2151Y6088D01*
X-2115Y6035D01*
X-2062Y5999D01*
X-2000Y5987D01*
X-1938Y5999D01*
X-1885Y6035D01*
X-1849Y6088D01*
X-1837Y6150D01*
X-1849Y6212D01*
X-1885Y6265D01*
X-1936Y6300D01*
X-1940Y6326D01*
X-1940Y6331D01*
X-1938Y6352D01*
X-1889Y6385D01*
X-1854Y6438D01*
X-1841Y6500D01*
X-1854Y6562D01*
X-1889Y6615D01*
X-1942Y6651D01*
X-2005Y6663D01*
D02*
G37*
G36*
X-3100Y6163D02*
X-3162Y6151D01*
X-3215Y6115D01*
X-3251Y6062D01*
X-3263Y6000D01*
X-3251Y5938D01*
X-3215Y5885D01*
X-3162Y5849D01*
X-3100Y5837D01*
X-3038Y5849D01*
X-2985Y5885D01*
X-2949Y5938D01*
X-2937Y6000D01*
X-2949Y6062D01*
X-2985Y6115D01*
X-3038Y6151D01*
X-3100Y6163D01*
D02*
G37*
G36*
X-3600D02*
X-3662Y6151D01*
X-3715Y6115D01*
X-3751Y6062D01*
X-3763Y6000D01*
X-3751Y5938D01*
X-3715Y5885D01*
X-3662Y5849D01*
X-3600Y5837D01*
X-3538Y5849D01*
X-3485Y5885D01*
X-3449Y5938D01*
X-3437Y6000D01*
X-3449Y6062D01*
X-3485Y6115D01*
X-3538Y6151D01*
X-3600Y6163D01*
D02*
G37*
G36*
X5010Y5742D02*
Y5610D01*
X5142D01*
X5138Y5628D01*
X5094Y5694D01*
X5028Y5738D01*
X5010Y5742D01*
D02*
G37*
G36*
X3890D02*
X3872Y5738D01*
X3806Y5694D01*
X3762Y5628D01*
X3758Y5610D01*
X3890D01*
Y5742D01*
D02*
G37*
G36*
X320Y5853D02*
X258Y5841D01*
X205Y5805D01*
X169Y5752D01*
X157Y5690D01*
X169Y5628D01*
X205Y5575D01*
X258Y5539D01*
X320Y5527D01*
X382Y5539D01*
X435Y5575D01*
X471Y5628D01*
X483Y5690D01*
X471Y5752D01*
X435Y5805D01*
X382Y5841D01*
X320Y5853D01*
D02*
G37*
G36*
X-130D02*
X-192Y5841D01*
X-245Y5805D01*
X-281Y5752D01*
X-293Y5690D01*
X-281Y5628D01*
X-245Y5575D01*
X-192Y5539D01*
X-130Y5527D01*
X-68Y5539D01*
X-15Y5575D01*
X21Y5628D01*
X33Y5690D01*
X21Y5752D01*
X-15Y5805D01*
X-68Y5841D01*
X-130Y5853D01*
D02*
G37*
G36*
X4010Y5742D02*
Y5610D01*
X4142D01*
X4138Y5628D01*
X4094Y5694D01*
X4028Y5738D01*
X4010Y5742D01*
D02*
G37*
G36*
X4890D02*
X4872Y5738D01*
X4806Y5694D01*
X4762Y5628D01*
X4758Y5610D01*
X4890D01*
Y5742D01*
D02*
G37*
G36*
X4510D02*
Y5610D01*
X4642D01*
X4638Y5628D01*
X4594Y5694D01*
X4528Y5738D01*
X4510Y5742D01*
D02*
G37*
G36*
X4390D02*
X4372Y5738D01*
X4306Y5694D01*
X4262Y5628D01*
X4258Y5610D01*
X4390D01*
Y5742D01*
D02*
G37*
G36*
X1631Y7230D02*
X1280D01*
Y6879D01*
X1328Y6886D01*
X1429Y6928D01*
X1516Y6994D01*
X1582Y7081D01*
X1624Y7182D01*
X1631Y7230D01*
D02*
G37*
G36*
X1160D02*
X809D01*
X816Y7182D01*
X858Y7081D01*
X924Y6994D01*
X1011Y6928D01*
X1112Y6886D01*
X1160Y6879D01*
Y7230D01*
D02*
G37*
G36*
X-869D02*
X-1220D01*
Y6879D01*
X-1172Y6886D01*
X-1071Y6928D01*
X-984Y6994D01*
X-918Y7081D01*
X-876Y7182D01*
X-869Y7230D01*
D02*
G37*
G36*
X-1340Y7701D02*
X-1388Y7694D01*
X-1489Y7652D01*
X-1576Y7586D01*
X-1642Y7499D01*
X-1684Y7398D01*
X-1691Y7350D01*
X-1340D01*
Y7701D01*
D02*
G37*
G36*
X1280D02*
Y7350D01*
X1631D01*
X1624Y7398D01*
X1582Y7499D01*
X1516Y7586D01*
X1429Y7652D01*
X1328Y7694D01*
X1280Y7701D01*
D02*
G37*
G36*
X1160D02*
X1112Y7694D01*
X1011Y7652D01*
X924Y7586D01*
X858Y7499D01*
X816Y7398D01*
X809Y7350D01*
X1160D01*
Y7701D01*
D02*
G37*
G36*
X-1220D02*
Y7350D01*
X-869D01*
X-876Y7398D01*
X-918Y7499D01*
X-984Y7586D01*
X-1071Y7652D01*
X-1172Y7694D01*
X-1220Y7701D01*
D02*
G37*
G36*
X-1340Y7230D02*
X-1691D01*
X-1684Y7182D01*
X-1642Y7081D01*
X-1576Y6994D01*
X-1489Y6928D01*
X-1388Y6886D01*
X-1340Y6879D01*
Y7230D01*
D02*
G37*
G36*
X4390Y6192D02*
X4372Y6188D01*
X4306Y6144D01*
X4262Y6078D01*
X4258Y6060D01*
X4390D01*
Y6192D01*
D02*
G37*
G36*
X4010D02*
Y6060D01*
X4142D01*
X4138Y6078D01*
X4094Y6144D01*
X4028Y6188D01*
X4010Y6192D01*
D02*
G37*
G36*
X3890D02*
X3872Y6188D01*
X3806Y6144D01*
X3762Y6078D01*
X3758Y6060D01*
X3890D01*
Y6192D01*
D02*
G37*
G36*
X4510D02*
Y6060D01*
X4642D01*
X4638Y6078D01*
X4594Y6144D01*
X4528Y6188D01*
X4510Y6192D01*
D02*
G37*
G36*
X-2823Y7140D02*
X-2885Y7128D01*
X-2938Y7093D01*
X-2974Y7040D01*
X-2986Y6977D01*
X-2974Y6915D01*
X-2938Y6862D01*
X-2885Y6826D01*
X-2823Y6814D01*
X-2760Y6826D01*
X-2707Y6862D01*
X-2672Y6915D01*
X-2660Y6977D01*
X-2672Y7040D01*
X-2707Y7093D01*
X-2760Y7128D01*
X-2823Y7140D01*
D02*
G37*
G36*
X270Y6903D02*
X208Y6891D01*
X155Y6855D01*
X121Y6805D01*
X100Y6802D01*
X90D01*
X69Y6805D01*
X35Y6855D01*
X-18Y6891D01*
X-80Y6903D01*
X-142Y6891D01*
X-195Y6855D01*
X-231Y6802D01*
X-243Y6740D01*
X-231Y6678D01*
X-195Y6625D01*
X-142Y6589D01*
X-80Y6577D01*
X-18Y6589D01*
X35Y6625D01*
X69Y6675D01*
X90Y6678D01*
X100D01*
X121Y6675D01*
X155Y6625D01*
X208Y6589D01*
X270Y6577D01*
X332Y6589D01*
X385Y6625D01*
X421Y6678D01*
X433Y6740D01*
X421Y6802D01*
X385Y6855D01*
X332Y6891D01*
X270Y6903D01*
D02*
G37*
G36*
X-3408Y6790D02*
X-3540D01*
Y6658D01*
X-3522Y6662D01*
X-3456Y6706D01*
X-3412Y6772D01*
X-3408Y6790D01*
D02*
G37*
G36*
X-3007Y5266D02*
X-3147D01*
Y5126D01*
X-3126Y5130D01*
X-3057Y5176D01*
X-3011Y5245D01*
X-3007Y5266D01*
D02*
G37*
G36*
X-3267D02*
X-3407D01*
X-3403Y5245D01*
X-3357Y5176D01*
X-3288Y5130D01*
X-3267Y5126D01*
Y5266D01*
D02*
G37*
G36*
X-3873D02*
X-4013D01*
Y5126D01*
X-3992Y5130D01*
X-3923Y5176D01*
X-3877Y5245D01*
X-3873Y5266D01*
D02*
G37*
G36*
X3890Y5292D02*
X3872Y5288D01*
X3806Y5244D01*
X3762Y5178D01*
X3758Y5160D01*
X3890D01*
Y5292D01*
D02*
G37*
G36*
X4510D02*
Y5160D01*
X4642D01*
X4638Y5178D01*
X4594Y5244D01*
X4528Y5288D01*
X4510Y5292D01*
D02*
G37*
G36*
X4390D02*
X4372Y5288D01*
X4306Y5244D01*
X4262Y5178D01*
X4258Y5160D01*
X4390D01*
Y5292D01*
D02*
G37*
G36*
X4010D02*
Y5160D01*
X4142D01*
X4138Y5178D01*
X4094Y5244D01*
X4028Y5288D01*
X4010Y5292D01*
D02*
G37*
G36*
X-4133Y5266D02*
X-4273D01*
X-4269Y5245D01*
X-4223Y5176D01*
X-4154Y5130D01*
X-4133Y5126D01*
Y5266D01*
D02*
G37*
G36*
X-1810Y5042D02*
X-1828Y5038D01*
X-1894Y4994D01*
X-1938Y4928D01*
X-1942Y4910D01*
X-1810D01*
Y5042D01*
D02*
G37*
G36*
X5642Y5040D02*
X5510D01*
Y4908D01*
X5528Y4912D01*
X5594Y4956D01*
X5638Y5022D01*
X5642Y5040D01*
D02*
G37*
G36*
X5390D02*
X5258D01*
X5262Y5022D01*
X5306Y4956D01*
X5372Y4912D01*
X5390Y4908D01*
Y5040D01*
D02*
G37*
G36*
X-1690Y5042D02*
Y4910D01*
X-1558D01*
X-1562Y4928D01*
X-1606Y4994D01*
X-1672Y5038D01*
X-1690Y5042D01*
D02*
G37*
G36*
X670Y5374D02*
X600Y5360D01*
X540Y5320D01*
X500Y5260D01*
X486Y5190D01*
X500Y5120D01*
X540Y5060D01*
X600Y5020D01*
X670Y5006D01*
X740Y5020D01*
X800Y5060D01*
X840Y5120D01*
X854Y5190D01*
X840Y5260D01*
X800Y5320D01*
X740Y5360D01*
X670Y5374D01*
D02*
G37*
G36*
X-3580Y5093D02*
Y4953D01*
X-3440D01*
X-3444Y4974D01*
X-3490Y5043D01*
X-3559Y5089D01*
X-3580Y5093D01*
D02*
G37*
G36*
X-3700D02*
X-3721Y5089D01*
X-3790Y5043D01*
X-3836Y4974D01*
X-3840Y4953D01*
X-3700D01*
Y5093D01*
D02*
G37*
G36*
X-4133Y5527D02*
X-4154Y5522D01*
X-4223Y5476D01*
X-4269Y5407D01*
X-4273Y5386D01*
X-4133D01*
Y5527D01*
D02*
G37*
G36*
X4890Y5490D02*
X4758D01*
X4762Y5472D01*
X4806Y5406D01*
X4872Y5362D01*
X4890Y5358D01*
Y5490D01*
D02*
G37*
G36*
X4390D02*
X4258D01*
X4262Y5472D01*
X4306Y5406D01*
X4372Y5362D01*
X4390Y5358D01*
Y5490D01*
D02*
G37*
G36*
X-4013Y5527D02*
Y5386D01*
X-3873D01*
X-3877Y5407D01*
X-3923Y5476D01*
X-3992Y5522D01*
X-4013Y5527D01*
D02*
G37*
G36*
X720Y5874D02*
X650Y5860D01*
X590Y5820D01*
X550Y5760D01*
X536Y5690D01*
X550Y5620D01*
X590Y5560D01*
X650Y5520D01*
X720Y5506D01*
X790Y5520D01*
X850Y5560D01*
X890Y5620D01*
X904Y5690D01*
X890Y5760D01*
X850Y5820D01*
X790Y5860D01*
X720Y5874D01*
D02*
G37*
G36*
X-3147Y5527D02*
Y5386D01*
X-3007D01*
X-3011Y5407D01*
X-3057Y5476D01*
X-3126Y5522D01*
X-3147Y5527D01*
D02*
G37*
G36*
X-3267D02*
X-3288Y5522D01*
X-3357Y5476D01*
X-3403Y5407D01*
X-3407Y5386D01*
X-3267D01*
Y5527D01*
D02*
G37*
G36*
X3890Y5490D02*
X3758D01*
X3762Y5472D01*
X3806Y5406D01*
X3872Y5362D01*
X3890Y5358D01*
Y5490D01*
D02*
G37*
G36*
X5390Y5292D02*
X5372Y5288D01*
X5306Y5244D01*
X5262Y5178D01*
X5258Y5160D01*
X5390D01*
Y5292D01*
D02*
G37*
G36*
X5010D02*
Y5160D01*
X5142D01*
X5138Y5178D01*
X5094Y5244D01*
X5028Y5288D01*
X5010Y5292D01*
D02*
G37*
G36*
X4890D02*
X4872Y5288D01*
X4806Y5244D01*
X4762Y5178D01*
X4758Y5160D01*
X4890D01*
Y5292D01*
D02*
G37*
G36*
X5510D02*
Y5160D01*
X5642D01*
X5638Y5178D01*
X5594Y5244D01*
X5528Y5288D01*
X5510Y5292D01*
D02*
G37*
G36*
X5142Y5490D02*
X5010D01*
Y5358D01*
X5028Y5362D01*
X5094Y5406D01*
X5138Y5472D01*
X5142Y5490D01*
D02*
G37*
G36*
X4642D02*
X4510D01*
Y5358D01*
X4528Y5362D01*
X4594Y5406D01*
X4638Y5472D01*
X4642Y5490D01*
D02*
G37*
G36*
X4142D02*
X4010D01*
Y5358D01*
X4028Y5362D01*
X4094Y5406D01*
X4138Y5472D01*
X4142Y5490D01*
D02*
G37*
G36*
X-10340Y2392D02*
Y2260D01*
X-10208D01*
X-10212Y2278D01*
X-10256Y2344D01*
X-10322Y2388D01*
X-10340Y2392D01*
D02*
G37*
G36*
X-2294Y-363D02*
Y-504D01*
X-2153D01*
X-2158Y-483D01*
X-2204Y-414D01*
X-2273Y-368D01*
X-2294Y-363D01*
D02*
G37*
G36*
X-2414D02*
X-2435Y-368D01*
X-2504Y-414D01*
X-2550Y-483D01*
X-2554Y-504D01*
X-2414D01*
Y-363D01*
D02*
G37*
G36*
X-3160D02*
Y-504D01*
X-3020D01*
X-3024Y-483D01*
X-3070Y-414D01*
X-3139Y-368D01*
X-3160Y-363D01*
D02*
G37*
G36*
X8000Y98D02*
X7923Y87D01*
X7851Y58D01*
X7790Y10D01*
X7742Y-51D01*
X7713Y-123D01*
X7702Y-200D01*
X7713Y-277D01*
X7742Y-349D01*
X7790Y-410D01*
X7851Y-458D01*
X7923Y-487D01*
X8000Y-498D01*
X8077Y-487D01*
X8149Y-458D01*
X8210Y-410D01*
X8258Y-349D01*
X8287Y-277D01*
X8298Y-200D01*
X8287Y-123D01*
X8258Y-51D01*
X8210Y10D01*
X8149Y58D01*
X8077Y87D01*
X8000Y98D01*
D02*
G37*
G36*
X2960Y-270D02*
X2942Y-273D01*
X2877Y-317D01*
X2833Y-383D01*
X2829Y-400D01*
X2960D01*
Y-270D01*
D02*
G37*
G36*
X2213D02*
Y-400D01*
X2344D01*
X2340Y-383D01*
X2297Y-317D01*
X2231Y-273D01*
X2213Y-270D01*
D02*
G37*
G36*
X2093D02*
X2076Y-273D01*
X2010Y-317D01*
X1967Y-383D01*
X1963Y-400D01*
X2093D01*
Y-270D01*
D02*
G37*
G36*
X-3280Y-363D02*
X-3301Y-368D01*
X-3370Y-414D01*
X-3416Y-483D01*
X-3420Y-504D01*
X-3280D01*
Y-363D01*
D02*
G37*
G36*
X2344Y-520D02*
X2213D01*
Y-651D01*
X2231Y-647D01*
X2297Y-603D01*
X2340Y-538D01*
X2344Y-520D01*
D02*
G37*
G36*
X2093D02*
X1963D01*
X1967Y-538D01*
X2010Y-603D01*
X2076Y-647D01*
X2093Y-651D01*
Y-520D01*
D02*
G37*
G36*
X-6300Y-337D02*
X-6362Y-349D01*
X-6415Y-385D01*
X-6451Y-438D01*
X-6463Y-500D01*
X-6451Y-562D01*
X-6415Y-615D01*
X-6362Y-651D01*
X-6300Y-663D01*
X-6238Y-651D01*
X-6185Y-615D01*
X-6149Y-562D01*
X-6137Y-500D01*
X-6149Y-438D01*
X-6185Y-385D01*
X-6238Y-349D01*
X-6300Y-337D01*
D02*
G37*
G36*
X2960Y-520D02*
X2829D01*
X2833Y-538D01*
X2877Y-603D01*
X2942Y-647D01*
X2960Y-651D01*
Y-520D01*
D02*
G37*
G36*
X-4026Y-363D02*
Y-504D01*
X-3886D01*
X-3890Y-483D01*
X-3936Y-414D01*
X-4005Y-368D01*
X-4026Y-363D01*
D02*
G37*
G36*
X-4146D02*
X-4167Y-368D01*
X-4236Y-414D01*
X-4282Y-483D01*
X-4287Y-504D01*
X-4146D01*
Y-363D01*
D02*
G37*
G36*
X3210Y-520D02*
X3080D01*
Y-651D01*
X3097Y-647D01*
X3163Y-603D01*
X3207Y-538D01*
X3210Y-520D01*
D02*
G37*
G36*
X5760Y-8D02*
Y-140D01*
X5892D01*
X5888Y-122D01*
X5844Y-56D01*
X5778Y-12D01*
X5760Y-8D01*
D02*
G37*
G36*
X5640D02*
X5622Y-12D01*
X5556Y-56D01*
X5512Y-122D01*
X5508Y-140D01*
X5640D01*
Y-8D01*
D02*
G37*
G36*
X3992Y-10D02*
X3860D01*
Y-142D01*
X3878Y-138D01*
X3944Y-94D01*
X3988Y-28D01*
X3992Y-10D01*
D02*
G37*
G36*
X1250Y213D02*
X1188Y201D01*
X1135Y165D01*
X1099Y112D01*
X1087Y50D01*
X1099Y-12D01*
X1135Y-65D01*
X1188Y-101D01*
X1250Y-113D01*
X1312Y-101D01*
X1365Y-65D01*
X1401Y-12D01*
X1413Y50D01*
X1401Y112D01*
X1365Y165D01*
X1312Y201D01*
X1250Y213D01*
D02*
G37*
G36*
X-3929Y404D02*
X-3991Y392D01*
X-4044Y357D01*
X-4079Y304D01*
X-4092Y241D01*
X-4079Y179D01*
X-4044Y126D01*
X-3991Y91D01*
X-3929Y78D01*
X-3866Y91D01*
X-3813Y126D01*
X-3778Y179D01*
X-3766Y241D01*
X-3778Y304D01*
X-3813Y357D01*
X-3866Y392D01*
X-3929Y404D01*
D02*
G37*
G36*
X-740Y142D02*
Y10D01*
X-608D01*
X-612Y28D01*
X-656Y94D01*
X-722Y138D01*
X-740Y142D01*
D02*
G37*
G36*
X-860D02*
X-878Y138D01*
X-944Y94D01*
X-988Y28D01*
X-992Y10D01*
X-860D01*
Y142D01*
D02*
G37*
G36*
X-1900Y163D02*
X-1962Y151D01*
X-2015Y115D01*
X-2051Y62D01*
X-2063Y0D01*
X-2051Y-62D01*
X-2015Y-115D01*
X-1962Y-151D01*
X-1900Y-163D01*
X-1838Y-151D01*
X-1785Y-115D01*
X-1749Y-62D01*
X-1737Y0D01*
X-1749Y62D01*
X-1785Y115D01*
X-1838Y151D01*
X-1900Y163D01*
D02*
G37*
G36*
X5892Y-260D02*
X5760D01*
Y-392D01*
X5778Y-388D01*
X5844Y-344D01*
X5888Y-278D01*
X5892Y-260D01*
D02*
G37*
G36*
X5640D02*
X5508D01*
X5512Y-278D01*
X5556Y-344D01*
X5622Y-388D01*
X5640Y-392D01*
Y-260D01*
D02*
G37*
G36*
X3080Y-270D02*
Y-400D01*
X3210D01*
X3207Y-383D01*
X3163Y-317D01*
X3097Y-273D01*
X3080Y-270D01*
D02*
G37*
G36*
X-4982Y5D02*
X-5044Y-7D01*
X-5097Y-43D01*
X-5133Y-96D01*
X-5145Y-158D01*
X-5133Y-221D01*
X-5097Y-274D01*
X-5044Y-309D01*
X-4982Y-321D01*
X-4919Y-309D01*
X-4866Y-274D01*
X-4831Y-221D01*
X-4819Y-158D01*
X-4831Y-96D01*
X-4866Y-43D01*
X-4919Y-7D01*
X-4982Y5D01*
D02*
G37*
G36*
X-608Y-110D02*
X-740D01*
Y-242D01*
X-722Y-238D01*
X-656Y-194D01*
X-612Y-128D01*
X-608Y-110D01*
D02*
G37*
G36*
X-860D02*
X-992D01*
X-988Y-128D01*
X-944Y-194D01*
X-878Y-238D01*
X-860Y-242D01*
Y-110D01*
D02*
G37*
G36*
X400Y63D02*
X338Y51D01*
X285Y15D01*
X249Y-38D01*
X237Y-100D01*
X249Y-162D01*
X285Y-215D01*
X338Y-251D01*
X400Y-263D01*
X462Y-251D01*
X515Y-215D01*
X551Y-162D01*
X563Y-100D01*
X551Y-38D01*
X515Y15D01*
X462Y51D01*
X400Y63D01*
D02*
G37*
G36*
X-4459Y-797D02*
Y-937D01*
X-4319D01*
X-4323Y-916D01*
X-4369Y-847D01*
X-4438Y-801D01*
X-4459Y-797D01*
D02*
G37*
G36*
X-4579D02*
X-4600Y-801D01*
X-4669Y-847D01*
X-4715Y-916D01*
X-4720Y-937D01*
X-4579D01*
Y-797D01*
D02*
G37*
G36*
X15123Y-810D02*
X14960D01*
Y-973D01*
X14990Y-967D01*
X15066Y-916D01*
X15117Y-840D01*
X15123Y-810D01*
D02*
G37*
G36*
X-3713Y-797D02*
X-3734Y-801D01*
X-3803Y-847D01*
X-3849Y-916D01*
X-3853Y-937D01*
X-3713D01*
Y-797D01*
D02*
G37*
G36*
X-2727D02*
Y-937D01*
X-2587D01*
X-2591Y-916D01*
X-2637Y-847D01*
X-2706Y-801D01*
X-2727Y-797D01*
D02*
G37*
G36*
X-2847D02*
X-2868Y-801D01*
X-2937Y-847D01*
X-2983Y-916D01*
X-2987Y-937D01*
X-2847D01*
Y-797D01*
D02*
G37*
G36*
X-3593D02*
Y-937D01*
X-3453D01*
X-3457Y-916D01*
X-3503Y-847D01*
X-3572Y-801D01*
X-3593Y-797D01*
D02*
G37*
G36*
X14840Y-810D02*
X14677D01*
X14683Y-840D01*
X14734Y-916D01*
X14810Y-967D01*
X14840Y-973D01*
Y-810D01*
D02*
G37*
G36*
X5760Y-958D02*
Y-1090D01*
X5892D01*
X5888Y-1072D01*
X5844Y-1006D01*
X5778Y-962D01*
X5760Y-958D01*
D02*
G37*
G36*
X5640D02*
X5622Y-962D01*
X5556Y-1006D01*
X5512Y-1072D01*
X5508Y-1090D01*
X5640D01*
Y-958D01*
D02*
G37*
G36*
X8000Y-787D02*
X7938Y-799D01*
X7885Y-835D01*
X7849Y-888D01*
X7837Y-950D01*
X7849Y-1012D01*
X7885Y-1065D01*
X7938Y-1101D01*
X8000Y-1113D01*
X8062Y-1101D01*
X8115Y-1065D01*
X8151Y-1012D01*
X8163Y-950D01*
X8151Y-888D01*
X8115Y-835D01*
X8062Y-799D01*
X8000Y-787D01*
D02*
G37*
G36*
X1660Y-953D02*
X1530D01*
X1533Y-971D01*
X1577Y-1037D01*
X1643Y-1080D01*
X1660Y-1084D01*
Y-953D01*
D02*
G37*
G36*
X2777D02*
X2647D01*
Y-1084D01*
X2664Y-1080D01*
X2730Y-1037D01*
X2773Y-971D01*
X2777Y-953D01*
D02*
G37*
G36*
X2527D02*
X2396D01*
X2400Y-971D01*
X2443Y-1037D01*
X2509Y-1080D01*
X2527Y-1084D01*
Y-953D01*
D02*
G37*
G36*
X1911D02*
X1780D01*
Y-1084D01*
X1798Y-1080D01*
X1863Y-1037D01*
X1907Y-971D01*
X1911Y-953D01*
D02*
G37*
G36*
X-3020Y-624D02*
X-3160D01*
Y-764D01*
X-3139Y-760D01*
X-3070Y-714D01*
X-3024Y-645D01*
X-3020Y-624D01*
D02*
G37*
G36*
X-3280D02*
X-3420D01*
X-3416Y-645D01*
X-3370Y-714D01*
X-3301Y-760D01*
X-3280Y-764D01*
Y-624D01*
D02*
G37*
G36*
X-3886D02*
X-4026D01*
Y-764D01*
X-4005Y-760D01*
X-3936Y-714D01*
X-3890Y-645D01*
X-3886Y-624D01*
D02*
G37*
G36*
X-2414D02*
X-2554D01*
X-2550Y-645D01*
X-2504Y-714D01*
X-2435Y-760D01*
X-2414Y-764D01*
Y-624D01*
D02*
G37*
G36*
X14960Y-527D02*
Y-690D01*
X15123D01*
X15117Y-660D01*
X15066Y-584D01*
X14990Y-533D01*
X14960Y-527D01*
D02*
G37*
G36*
X14840D02*
X14810Y-533D01*
X14734Y-584D01*
X14683Y-660D01*
X14677Y-690D01*
X14840D01*
Y-527D01*
D02*
G37*
G36*
X-2153Y-624D02*
X-2294D01*
Y-764D01*
X-2273Y-760D01*
X-2204Y-714D01*
X-2158Y-645D01*
X-2153Y-624D01*
D02*
G37*
G36*
X-4146D02*
X-4287D01*
X-4282Y-645D01*
X-4236Y-714D01*
X-4167Y-760D01*
X-4146Y-764D01*
Y-624D01*
D02*
G37*
G36*
X9350Y-537D02*
X9288Y-549D01*
X9235Y-585D01*
X9199Y-638D01*
X9187Y-700D01*
X9199Y-762D01*
X9235Y-815D01*
X9288Y-851D01*
X9350Y-863D01*
X9412Y-851D01*
X9465Y-815D01*
X9501Y-762D01*
X9513Y-700D01*
X9501Y-638D01*
X9465Y-585D01*
X9412Y-549D01*
X9350Y-537D01*
D02*
G37*
G36*
X6150D02*
X6088Y-549D01*
X6035Y-585D01*
X5999Y-638D01*
X5987Y-700D01*
X5999Y-762D01*
X6035Y-815D01*
X6088Y-851D01*
X6150Y-863D01*
X6212Y-851D01*
X6265Y-815D01*
X6301Y-762D01*
X6313Y-700D01*
X6301Y-638D01*
X6265Y-585D01*
X6212Y-549D01*
X6150Y-537D01*
D02*
G37*
G36*
X-1532Y-377D02*
X-1595Y-389D01*
X-1648Y-425D01*
X-1683Y-478D01*
X-1695Y-540D01*
X-1683Y-602D01*
X-1648Y-655D01*
X-1595Y-691D01*
X-1532Y-703D01*
X-1495Y-743D01*
X-1496Y-755D01*
X-1528Y-794D01*
X-1590Y-807D01*
X-1643Y-842D01*
X-1678Y-895D01*
X-1691Y-958D01*
X-1678Y-1020D01*
X-1643Y-1073D01*
X-1590Y-1108D01*
X-1528Y-1121D01*
X-1465Y-1108D01*
X-1412Y-1073D01*
X-1377Y-1020D01*
X-1364Y-958D01*
X-1321Y-921D01*
X-1310Y-923D01*
X-1248Y-911D01*
X-1195Y-875D01*
X-1159Y-822D01*
X-1147Y-760D01*
X-1159Y-698D01*
X-1195Y-645D01*
X-1248Y-609D01*
X-1310Y-597D01*
X-1330Y-601D01*
X-1373Y-558D01*
X-1369Y-540D01*
X-1382Y-478D01*
X-1417Y-425D01*
X-1470Y-389D01*
X-1532Y-377D01*
D02*
G37*
G36*
X1660Y-703D02*
X1643Y-707D01*
X1577Y-750D01*
X1533Y-816D01*
X1530Y-833D01*
X1660D01*
Y-703D01*
D02*
G37*
G36*
X2647D02*
Y-833D01*
X2777D01*
X2773Y-816D01*
X2730Y-750D01*
X2664Y-707D01*
X2647Y-703D01*
D02*
G37*
G36*
X2527D02*
X2509Y-707D01*
X2443Y-750D01*
X2400Y-816D01*
X2396Y-833D01*
X2527D01*
Y-703D01*
D02*
G37*
G36*
X1780D02*
Y-833D01*
X1911D01*
X1907Y-816D01*
X1863Y-750D01*
X1798Y-707D01*
X1780Y-703D01*
D02*
G37*
G36*
X-2860Y683D02*
X-2922Y671D01*
X-2975Y635D01*
X-3011Y582D01*
X-3023Y520D01*
X-3011Y458D01*
X-3004Y447D01*
X-3007Y395D01*
X-3019Y387D01*
X-3060Y360D01*
X-3095Y307D01*
X-3108Y244D01*
X-3095Y182D01*
X-3060Y129D01*
X-3007Y94D01*
X-2944Y81D01*
X-2882Y94D01*
X-2829Y129D01*
X-2794Y182D01*
X-2781Y244D01*
X-2794Y307D01*
X-2801Y318D01*
X-2798Y369D01*
X-2785Y377D01*
X-2745Y405D01*
X-2709Y458D01*
X-2697Y520D01*
X-2709Y582D01*
X-2745Y635D01*
X-2798Y671D01*
X-2860Y683D01*
D02*
G37*
G36*
X-14460Y2140D02*
X-14592D01*
X-14588Y2122D01*
X-14544Y2056D01*
X-14478Y2012D01*
X-14460Y2008D01*
Y2140D01*
D02*
G37*
G36*
X1113Y2298D02*
X1050Y2286D01*
X997Y2250D01*
X962Y2197D01*
X949Y2135D01*
X962Y2073D01*
X997Y2020D01*
X1050Y1984D01*
X1113Y1972D01*
X1175Y1984D01*
X1228Y2020D01*
X1263Y2073D01*
X1276Y2135D01*
X1263Y2197D01*
X1228Y2250D01*
X1175Y2286D01*
X1113Y2298D01*
D02*
G37*
G36*
X-2560Y1942D02*
X-2578Y1938D01*
X-2644Y1894D01*
X-2669Y1857D01*
X-2729D01*
X-2735Y1865D01*
X-2788Y1901D01*
X-2850Y1913D01*
X-2912Y1901D01*
X-2965Y1865D01*
X-3001Y1812D01*
X-3013Y1750D01*
X-3001Y1688D01*
X-2965Y1635D01*
X-2912Y1599D01*
X-2850Y1587D01*
X-2788Y1599D01*
X-2735Y1635D01*
X-2729Y1643D01*
X-2669D01*
X-2644Y1606D01*
X-2578Y1562D01*
X-2560Y1558D01*
Y1750D01*
Y1942D01*
D02*
G37*
G36*
X-14208Y2140D02*
X-14340D01*
Y2008D01*
X-14322Y2012D01*
X-14256Y2056D01*
X-14212Y2122D01*
X-14208Y2140D01*
D02*
G37*
G36*
X-12460D02*
X-12592D01*
X-12588Y2122D01*
X-12544Y2056D01*
X-12478Y2012D01*
X-12460Y2008D01*
Y2140D01*
D02*
G37*
G36*
X-13208D02*
X-13340D01*
Y2008D01*
X-13322Y2012D01*
X-13256Y2056D01*
X-13212Y2122D01*
X-13208Y2140D01*
D02*
G37*
G36*
X-13460D02*
X-13592D01*
X-13588Y2122D01*
X-13544Y2056D01*
X-13478Y2012D01*
X-13460Y2008D01*
Y2140D01*
D02*
G37*
G36*
X-1000Y2163D02*
X-1062Y2151D01*
X-1115Y2115D01*
X-1151Y2062D01*
X-1163Y2000D01*
X-1151Y1938D01*
X-1115Y1885D01*
X-1062Y1849D01*
X-1000Y1837D01*
X-938Y1849D01*
X-885Y1885D01*
X-849Y1938D01*
X-837Y2000D01*
X-849Y2062D01*
X-885Y2115D01*
X-938Y2151D01*
X-1000Y2163D01*
D02*
G37*
G36*
X-6450Y2113D02*
X-6512Y2101D01*
X-6565Y2065D01*
X-6601Y2012D01*
X-6613Y1950D01*
X-6601Y1888D01*
X-6565Y1835D01*
X-6512Y1799D01*
X-6450Y1787D01*
X-6388Y1799D01*
X-6335Y1835D01*
X-6299Y1888D01*
X-6287Y1950D01*
X-6299Y2012D01*
X-6335Y2065D01*
X-6388Y2101D01*
X-6450Y2113D01*
D02*
G37*
G36*
X-3250Y1913D02*
X-3312Y1901D01*
X-3365Y1865D01*
X-3401Y1812D01*
X-3413Y1750D01*
X-3401Y1688D01*
X-3365Y1635D01*
X-3312Y1599D01*
X-3250Y1587D01*
X-3188Y1599D01*
X-3135Y1635D01*
X-3099Y1688D01*
X-3087Y1750D01*
X-3099Y1812D01*
X-3135Y1865D01*
X-3188Y1901D01*
X-3250Y1913D01*
D02*
G37*
G36*
X1690Y1690D02*
X1558D01*
X1562Y1672D01*
X1606Y1606D01*
X1672Y1562D01*
X1690Y1558D01*
Y1690D01*
D02*
G37*
G36*
X-6050Y2113D02*
X-6112Y2101D01*
X-6165Y2065D01*
X-6201Y2012D01*
X-6213Y1950D01*
X-6201Y1888D01*
X-6165Y1835D01*
X-6112Y1799D01*
X-6050Y1787D01*
X-5988Y1799D01*
X-5935Y1835D01*
X-5899Y1888D01*
X-5887Y1950D01*
X-5899Y2012D01*
X-5935Y2065D01*
X-5988Y2101D01*
X-6050Y2113D01*
D02*
G37*
G36*
X1810Y1942D02*
Y1810D01*
X1942D01*
X1938Y1828D01*
X1894Y1894D01*
X1828Y1938D01*
X1810Y1942D01*
D02*
G37*
G36*
X1690D02*
X1672Y1938D01*
X1606Y1894D01*
X1562Y1828D01*
X1558Y1810D01*
X1690D01*
Y1942D01*
D02*
G37*
G36*
X-2440D02*
Y1810D01*
X-2308D01*
X-2312Y1828D01*
X-2356Y1894D01*
X-2422Y1938D01*
X-2440Y1942D01*
D02*
G37*
G36*
X-12460Y2392D02*
X-12478Y2388D01*
X-12544Y2344D01*
X-12588Y2278D01*
X-12592Y2260D01*
X-12460D01*
Y2392D01*
D02*
G37*
G36*
X-13340D02*
Y2260D01*
X-13208D01*
X-13212Y2278D01*
X-13256Y2344D01*
X-13322Y2388D01*
X-13340Y2392D01*
D02*
G37*
G36*
X-13460D02*
X-13478Y2388D01*
X-13544Y2344D01*
X-13588Y2278D01*
X-13592Y2260D01*
X-13460D01*
Y2392D01*
D02*
G37*
G36*
X-12340D02*
Y2260D01*
X-12208D01*
X-12212Y2278D01*
X-12256Y2344D01*
X-12322Y2388D01*
X-12340Y2392D01*
D02*
G37*
G36*
X-10460D02*
X-10478Y2388D01*
X-10544Y2344D01*
X-10588Y2278D01*
X-10592Y2260D01*
X-10460D01*
Y2392D01*
D02*
G37*
G36*
X-11340D02*
Y2260D01*
X-11208D01*
X-11212Y2278D01*
X-11256Y2344D01*
X-11322Y2388D01*
X-11340Y2392D01*
D02*
G37*
G36*
X-11460D02*
X-11478Y2388D01*
X-11544Y2344D01*
X-11588Y2278D01*
X-11592Y2260D01*
X-11460D01*
Y2392D01*
D02*
G37*
G36*
X-14340D02*
Y2260D01*
X-14208D01*
X-14212Y2278D01*
X-14256Y2344D01*
X-14322Y2388D01*
X-14340Y2392D01*
D02*
G37*
G36*
X-11208Y2140D02*
X-11340D01*
Y2008D01*
X-11322Y2012D01*
X-11256Y2056D01*
X-11212Y2122D01*
X-11208Y2140D01*
D02*
G37*
G36*
X-11460D02*
X-11592D01*
X-11588Y2122D01*
X-11544Y2056D01*
X-11478Y2012D01*
X-11460Y2008D01*
Y2140D01*
D02*
G37*
G36*
X-12208D02*
X-12340D01*
Y2008D01*
X-12322Y2012D01*
X-12256Y2056D01*
X-12212Y2122D01*
X-12208Y2140D01*
D02*
G37*
G36*
X-10460D02*
X-10592D01*
X-10588Y2122D01*
X-10544Y2056D01*
X-10478Y2012D01*
X-10460Y2008D01*
Y2140D01*
D02*
G37*
G36*
X-14460Y2392D02*
X-14478Y2388D01*
X-14544Y2344D01*
X-14588Y2278D01*
X-14592Y2260D01*
X-14460D01*
Y2392D01*
D02*
G37*
G36*
X-4850Y2113D02*
X-4912Y2101D01*
X-4965Y2065D01*
X-4999Y2015D01*
X-5020Y2012D01*
X-5030D01*
X-5051Y2015D01*
X-5085Y2065D01*
X-5138Y2101D01*
X-5200Y2113D01*
X-5262Y2101D01*
X-5315Y2065D01*
X-5351Y2012D01*
X-5363Y1950D01*
X-5351Y1888D01*
X-5315Y1835D01*
X-5262Y1799D01*
X-5200Y1787D01*
X-5138Y1799D01*
X-5085Y1835D01*
X-5051Y1885D01*
X-5030Y1888D01*
X-5020D01*
X-4999Y1885D01*
X-4965Y1835D01*
X-4912Y1799D01*
X-4850Y1787D01*
X-4788Y1799D01*
X-4735Y1835D01*
X-4699Y1888D01*
X-4687Y1950D01*
X-4699Y2012D01*
X-4735Y2065D01*
X-4788Y2101D01*
X-4850Y2113D01*
D02*
G37*
G36*
X-10208Y2140D02*
X-10340D01*
Y2008D01*
X-10322Y2012D01*
X-10256Y2056D01*
X-10212Y2122D01*
X-10208Y2140D01*
D02*
G37*
G36*
X-15300Y1013D02*
X-15362Y1001D01*
X-15415Y965D01*
X-15451Y912D01*
X-15463Y850D01*
X-15451Y788D01*
X-15415Y735D01*
X-15362Y699D01*
X-15300Y687D01*
X-15238Y699D01*
X-15185Y735D01*
X-15149Y788D01*
X-15137Y850D01*
X-15149Y912D01*
X-15185Y965D01*
X-15238Y1001D01*
X-15300Y1013D01*
D02*
G37*
G36*
X-858Y740D02*
X-990D01*
Y608D01*
X-972Y612D01*
X-906Y656D01*
X-862Y722D01*
X-858Y740D01*
D02*
G37*
G36*
X-1110D02*
X-1242D01*
X-1238Y722D01*
X-1194Y656D01*
X-1128Y612D01*
X-1110Y608D01*
Y740D01*
D02*
G37*
G36*
X-6550Y1113D02*
X-6612Y1101D01*
X-6665Y1065D01*
X-6701Y1012D01*
X-6713Y950D01*
X-6701Y888D01*
X-6665Y835D01*
X-6612Y799D01*
X-6550Y787D01*
X-6488Y799D01*
X-6435Y835D01*
X-6399Y888D01*
X-6387Y950D01*
X-6399Y1012D01*
X-6435Y1065D01*
X-6488Y1101D01*
X-6550Y1113D01*
D02*
G37*
G36*
X-3870Y992D02*
Y860D01*
X-3738D01*
X-3742Y878D01*
X-3786Y944D01*
X-3852Y988D01*
X-3870Y992D01*
D02*
G37*
G36*
X-3990D02*
X-4008Y988D01*
X-4074Y944D01*
X-4118Y878D01*
X-4122Y860D01*
X-3990D01*
Y992D01*
D02*
G37*
G36*
X-11000Y1163D02*
X-11062Y1151D01*
X-11115Y1115D01*
X-11151Y1062D01*
X-11163Y1000D01*
X-11151Y938D01*
X-11115Y885D01*
X-11062Y849D01*
X-11000Y837D01*
X-10938Y849D01*
X-10885Y885D01*
X-10849Y938D01*
X-10837Y1000D01*
X-10849Y1062D01*
X-10885Y1115D01*
X-10938Y1151D01*
X-11000Y1163D01*
D02*
G37*
G36*
X-3738Y740D02*
X-3870D01*
Y608D01*
X-3852Y612D01*
X-3786Y656D01*
X-3742Y722D01*
X-3738Y740D01*
D02*
G37*
G36*
X5750Y413D02*
X5688Y401D01*
X5635Y365D01*
X5599Y312D01*
X5587Y250D01*
X5599Y188D01*
X5635Y135D01*
X5688Y99D01*
X5750Y87D01*
X5812Y99D01*
X5865Y135D01*
X5901Y188D01*
X5913Y250D01*
X5901Y312D01*
X5865Y365D01*
X5812Y401D01*
X5750Y413D01*
D02*
G37*
G36*
X-750Y663D02*
X-812Y651D01*
X-865Y615D01*
X-901Y562D01*
X-913Y500D01*
X-901Y438D01*
X-865Y385D01*
X-812Y349D01*
X-750Y337D01*
X-688Y349D01*
X-685Y351D01*
X-649Y315D01*
X-651Y312D01*
X-663Y250D01*
X-651Y188D01*
X-615Y135D01*
X-562Y99D01*
X-500Y87D01*
X-438Y99D01*
X-385Y135D01*
X-349Y188D01*
X-337Y250D01*
X-349Y312D01*
X-385Y365D01*
X-438Y401D01*
X-500Y413D01*
X-562Y401D01*
X-565Y399D01*
X-601Y435D01*
X-599Y438D01*
X-587Y500D01*
X-599Y562D01*
X-635Y615D01*
X-688Y651D01*
X-750Y663D01*
D02*
G37*
G36*
X-14950Y413D02*
X-15012Y401D01*
X-15065Y365D01*
X-15101Y312D01*
X-15113Y250D01*
X-15101Y188D01*
X-15065Y135D01*
X-15012Y99D01*
X-14950Y87D01*
X-14888Y99D01*
X-14835Y135D01*
X-14799Y188D01*
X-14787Y250D01*
X-14799Y312D01*
X-14835Y365D01*
X-14888Y401D01*
X-14950Y413D01*
D02*
G37*
G36*
X3860Y242D02*
Y110D01*
X3992D01*
X3988Y128D01*
X3944Y194D01*
X3878Y238D01*
X3860Y242D01*
D02*
G37*
G36*
X-3990Y740D02*
X-4122D01*
X-4118Y722D01*
X-4074Y656D01*
X-4008Y612D01*
X-3990Y608D01*
Y740D01*
D02*
G37*
G36*
X-7450Y863D02*
X-7512Y851D01*
X-7565Y815D01*
X-7601Y762D01*
X-7613Y700D01*
X-7601Y638D01*
X-7565Y585D01*
X-7512Y549D01*
X-7450Y537D01*
X-7388Y549D01*
X-7335Y585D01*
X-7299Y638D01*
X-7287Y700D01*
X-7299Y762D01*
X-7335Y815D01*
X-7388Y851D01*
X-7450Y863D01*
D02*
G37*
G36*
X3740Y242D02*
X3722Y238D01*
X3656Y194D01*
X3616Y134D01*
X3586Y128D01*
X3560Y127D01*
X3547Y147D01*
X3494Y182D01*
X3432Y195D01*
X3369Y182D01*
X3316Y147D01*
X3281Y94D01*
X3269Y32D01*
X3281Y-31D01*
X3316Y-84D01*
X3369Y-119D01*
X3432Y-131D01*
X3494Y-119D01*
X3547Y-84D01*
X3569Y-51D01*
X3626Y-49D01*
X3656Y-94D01*
X3722Y-138D01*
X3740Y-142D01*
Y50D01*
Y242D01*
D02*
G37*
G36*
X0Y1663D02*
X-62Y1651D01*
X-115Y1615D01*
X-151Y1562D01*
X-163Y1500D01*
X-151Y1438D01*
X-115Y1385D01*
X-62Y1349D01*
X0Y1337D01*
X62Y1349D01*
X115Y1385D01*
X151Y1438D01*
X163Y1500D01*
X151Y1562D01*
X115Y1615D01*
X62Y1651D01*
X0Y1663D01*
D02*
G37*
G36*
X-7000D02*
X-7062Y1651D01*
X-7115Y1615D01*
X-7151Y1562D01*
X-7163Y1500D01*
X-7151Y1438D01*
X-7115Y1385D01*
X-7062Y1349D01*
X-7000Y1337D01*
X-6938Y1349D01*
X-6885Y1385D01*
X-6849Y1438D01*
X-6837Y1500D01*
X-6849Y1562D01*
X-6885Y1615D01*
X-6938Y1651D01*
X-7000Y1663D01*
D02*
G37*
G36*
X2950Y1513D02*
X2888Y1501D01*
X2835Y1465D01*
X2799Y1412D01*
X2787Y1350D01*
X2799Y1288D01*
X2835Y1235D01*
X2888Y1199D01*
X2950Y1187D01*
X3012Y1199D01*
X3065Y1235D01*
X3101Y1288D01*
X3113Y1350D01*
X3101Y1412D01*
X3065Y1465D01*
X3012Y1501D01*
X2950Y1513D01*
D02*
G37*
G36*
X1957Y1690D02*
X1810D01*
Y1543D01*
X1840Y1514D01*
X1837Y1500D01*
X1849Y1438D01*
X1885Y1385D01*
X1938Y1349D01*
X2000Y1337D01*
X2062Y1349D01*
X2115Y1385D01*
X2151Y1438D01*
X2163Y1500D01*
X2151Y1562D01*
X2115Y1615D01*
X2062Y1651D01*
X2000Y1663D01*
X1986Y1660D01*
X1957Y1690D01*
D02*
G37*
G36*
X-2308D02*
X-2440D01*
Y1558D01*
X-2422Y1562D01*
X-2356Y1606D01*
X-2312Y1672D01*
X-2308Y1690D01*
D02*
G37*
G36*
X12800Y1663D02*
X12738Y1651D01*
X12685Y1615D01*
X12649Y1562D01*
X12637Y1500D01*
X12649Y1438D01*
X12685Y1385D01*
X12738Y1349D01*
X12800Y1337D01*
X12862Y1349D01*
X12915Y1385D01*
X12951Y1438D01*
X12963Y1500D01*
X12951Y1562D01*
X12915Y1615D01*
X12862Y1651D01*
X12800Y1663D01*
D02*
G37*
G36*
X12250D02*
X12188Y1651D01*
X12135Y1615D01*
X12099Y1562D01*
X12087Y1500D01*
X12099Y1438D01*
X12135Y1385D01*
X12188Y1349D01*
X12250Y1337D01*
X12312Y1349D01*
X12365Y1385D01*
X12401Y1438D01*
X12413Y1500D01*
X12401Y1562D01*
X12365Y1615D01*
X12312Y1651D01*
X12250Y1663D01*
D02*
G37*
G36*
X-14400Y1513D02*
X-14462Y1501D01*
X-14515Y1465D01*
X-14551Y1412D01*
X-14563Y1350D01*
X-14551Y1288D01*
X-14515Y1235D01*
X-14462Y1199D01*
X-14400Y1187D01*
X-14338Y1199D01*
X-14285Y1235D01*
X-14249Y1288D01*
X-14237Y1350D01*
X-14249Y1412D01*
X-14285Y1465D01*
X-14338Y1501D01*
X-14400Y1513D01*
D02*
G37*
G36*
X2606Y1263D02*
X2544Y1251D01*
X2491Y1215D01*
X2456Y1162D01*
X2443Y1100D01*
X2456Y1038D01*
X2491Y985D01*
X2544Y949D01*
X2606Y937D01*
X2669Y949D01*
X2722Y985D01*
X2757Y1038D01*
X2769Y1100D01*
X2757Y1162D01*
X2722Y1215D01*
X2669Y1251D01*
X2606Y1263D01*
D02*
G37*
G36*
X-990Y992D02*
Y860D01*
X-858D01*
X-862Y878D01*
X-906Y944D01*
X-972Y988D01*
X-990Y992D01*
D02*
G37*
G36*
X-1110D02*
X-1128Y988D01*
X-1194Y944D01*
X-1238Y878D01*
X-1242Y860D01*
X-1110D01*
Y992D01*
D02*
G37*
G36*
X12250Y1263D02*
X12188Y1251D01*
X12135Y1215D01*
X12099Y1162D01*
X12087Y1100D01*
X12099Y1038D01*
X12135Y985D01*
X12188Y949D01*
X12250Y937D01*
X12312Y949D01*
X12365Y985D01*
X12401Y1038D01*
X12413Y1100D01*
X12401Y1162D01*
X12365Y1215D01*
X12312Y1251D01*
X12250Y1263D01*
D02*
G37*
G36*
X-14850Y1513D02*
X-14912Y1501D01*
X-14965Y1465D01*
X-15001Y1412D01*
X-15013Y1350D01*
X-15001Y1288D01*
X-14965Y1235D01*
X-14912Y1199D01*
X-14850Y1187D01*
X-14788Y1199D01*
X-14735Y1235D01*
X-14699Y1288D01*
X-14687Y1350D01*
X-14699Y1412D01*
X-14735Y1465D01*
X-14788Y1501D01*
X-14850Y1513D01*
D02*
G37*
G36*
X-15300D02*
X-15362Y1501D01*
X-15415Y1465D01*
X-15451Y1412D01*
X-15463Y1350D01*
X-15451Y1288D01*
X-15415Y1235D01*
X-15362Y1199D01*
X-15300Y1187D01*
X-15238Y1199D01*
X-15185Y1235D01*
X-15149Y1288D01*
X-15137Y1350D01*
X-15149Y1412D01*
X-15185Y1465D01*
X-15238Y1501D01*
X-15300Y1513D01*
D02*
G37*
G36*
X12800Y1263D02*
X12738Y1251D01*
X12685Y1215D01*
X12649Y1162D01*
X12637Y1100D01*
X12649Y1038D01*
X12685Y985D01*
X12738Y949D01*
X12800Y937D01*
X12862Y949D01*
X12915Y985D01*
X12951Y1038D01*
X12963Y1100D01*
X12951Y1162D01*
X12915Y1215D01*
X12862Y1251D01*
X12800Y1263D01*
D02*
G37*
%LPD*%
D46*
X-1280Y7290D02*
D03*
X1220D02*
D03*
D48*
X-1750Y4850D02*
D03*
X1500Y3250D02*
D03*
X5450Y5100D02*
D03*
X4950D02*
D03*
X4450D02*
D03*
X3950D02*
D03*
X4950Y5550D02*
D03*
X4450D02*
D03*
X3950D02*
D03*
X4450Y6000D02*
D03*
X3950D02*
D03*
X-12850Y-1500D02*
D03*
X-14450Y-1550D02*
D03*
X13550Y-2350D02*
D03*
X12550D02*
D03*
X11550D02*
D03*
X10550D02*
D03*
X9550D02*
D03*
X-10500Y-1850D02*
D03*
X-12750Y-2150D02*
D03*
X-13600Y-2100D02*
D03*
X-10400Y2200D02*
D03*
X-11400D02*
D03*
X-12400D02*
D03*
X-13400D02*
D03*
X-14400D02*
D03*
X3800Y50D02*
D03*
X-2650Y2900D02*
D03*
X-1550Y3150D02*
D03*
X400Y2850D02*
D03*
X-800Y-50D02*
D03*
X1750Y1750D02*
D03*
X200Y-2350D02*
D03*
X3200Y-3350D02*
D03*
X-5000Y-4450D02*
D03*
X-1050Y800D02*
D03*
X-2500Y1750D02*
D03*
X5700Y-1150D02*
D03*
Y-200D02*
D03*
X-3930Y800D02*
D03*
X-3600Y6850D02*
D03*
X-5750Y-2150D02*
D03*
X1150Y-2550D02*
D03*
X-2250Y-4900D02*
D03*
X-1650D02*
D03*
X-1200D02*
D03*
X-600D02*
D03*
X-100D02*
D03*
X-1250Y-4000D02*
D03*
X-1900Y-4050D02*
D03*
X-750Y-4000D02*
D03*
X-290Y-3940D02*
D03*
X900Y-4000D02*
D03*
X200Y-3450D02*
D03*
X500Y-4500D02*
D03*
X1400Y-3100D02*
D03*
X700D02*
D03*
X1350Y-5300D02*
D03*
X2100Y-4550D02*
D03*
Y-4000D02*
D03*
X2950Y-3900D02*
D03*
X8000Y-1450D02*
D03*
X5200Y-5000D02*
D03*
X5750Y-4450D02*
D03*
X6300Y-3750D02*
D03*
X6700Y-3000D02*
D03*
D49*
X-3640Y4893D02*
D03*
X-4073Y5326D02*
D03*
X-3207D02*
D03*
X-4073Y4460D02*
D03*
X-3207D02*
D03*
X-3640Y4027D02*
D03*
X-4073Y3594D02*
D03*
X-3207D02*
D03*
X-4519Y-2729D02*
D03*
Y-1863D02*
D03*
Y-997D02*
D03*
X-4086Y-2296D02*
D03*
Y-1430D02*
D03*
Y-564D02*
D03*
X-3653Y-2729D02*
D03*
Y-1863D02*
D03*
Y-997D02*
D03*
X-3220Y-2296D02*
D03*
Y-1430D02*
D03*
Y-564D02*
D03*
X-2787Y-2729D02*
D03*
Y-1863D02*
D03*
Y-997D02*
D03*
X-2354Y-2296D02*
D03*
Y-1430D02*
D03*
Y-564D02*
D03*
D50*
X1720Y-1760D02*
D03*
Y-893D02*
D03*
X2153Y-1327D02*
D03*
Y-460D02*
D03*
X2587Y-1760D02*
D03*
Y-893D02*
D03*
X3020Y-1327D02*
D03*
Y-460D02*
D03*
D51*
X14900Y-750D02*
D03*
D53*
X-280Y4190D02*
D03*
M02*
