G04 Layer_Physical_Order=1*
G04 Layer_Color=255*
%FSLAX24Y24*%
%MOIN*%
G70*
G01*
G75*
%ADD10R,0.0157X0.0236*%
%ADD11R,0.0394X0.0197*%
%ADD12R,0.0591X0.1024*%
%ADD13R,0.0197X0.0354*%
%ADD14R,0.0354X0.0197*%
%ADD15O,0.0276X0.0098*%
%ADD16R,0.0650X0.0937*%
%ADD17R,0.0098X0.0256*%
%ADD18R,0.0551X0.0315*%
%ADD19R,0.0236X0.0157*%
%ADD20O,0.0157X0.0315*%
%ADD21R,0.1890X0.2362*%
%ADD22R,0.0315X0.0197*%
%ADD23R,0.1811X0.1811*%
%ADD24O,0.0335X0.0079*%
%ADD25O,0.0079X0.0335*%
%ADD26C,0.0087*%
%ADD27R,0.0138X0.0217*%
%ADD28R,0.0748X0.0551*%
%ADD29R,0.0394X0.0472*%
%ADD30R,0.0354X0.0157*%
%ADD31R,0.0374X0.0335*%
%ADD32R,0.2598X0.2598*%
%ADD33O,0.0354X0.0098*%
%ADD34O,0.0098X0.0354*%
%ADD35R,0.0335X0.0118*%
%ADD36R,0.0157X0.0532*%
%ADD37R,0.0748X0.0630*%
%ADD38R,0.0630X0.0551*%
%ADD39R,0.0874X0.0402*%
%ADD40C,0.0310*%
%ADD41C,0.0080*%
%ADD42C,0.0120*%
%ADD43C,0.0060*%
%ADD44C,0.0197*%
%ADD45C,0.0180*%
%ADD46C,0.0630*%
%ADD47C,0.0390*%
%ADD48C,0.0200*%
%ADD49C,0.0217*%
%ADD50C,0.0197*%
%ADD51C,0.0260*%
%ADD52C,0.0240*%
%ADD53C,0.0315*%
G36*
X-4824Y3033D02*
X-4819Y3010D01*
X-4851Y2962D01*
X-4863Y2900D01*
X-4862Y2893D01*
X-4867Y2883D01*
X-4905Y2854D01*
X-4950Y2863D01*
X-5012Y2851D01*
X-5065Y2815D01*
X-5101Y2762D01*
X-5105Y2739D01*
X-5846Y1999D01*
X-5899Y2012D01*
X-5901Y2014D01*
X-5935Y2065D01*
X-5988Y2101D01*
X-6050Y2113D01*
X-6112Y2101D01*
X-6165Y2065D01*
X-6201Y2012D01*
X-6213Y1950D01*
X-6201Y1888D01*
X-6165Y1835D01*
X-6152Y1826D01*
Y1467D01*
X-6202Y1446D01*
X-6348Y1592D01*
Y1826D01*
X-6335Y1835D01*
X-6299Y1888D01*
X-6287Y1950D01*
X-6299Y2012D01*
X-6335Y2065D01*
X-6388Y2101D01*
X-6427Y2108D01*
X-6444Y2161D01*
X-5545Y3060D01*
X-4838D01*
X-4824Y3033D01*
D02*
G37*
G36*
X4000Y4015D02*
Y3855D01*
X3962Y3829D01*
X3950Y3825D01*
X3939Y3828D01*
X3898Y3836D01*
X3869D01*
Y3684D01*
X3809D01*
Y3624D01*
X3581D01*
X3613Y3576D01*
X3621Y3535D01*
X3618Y3529D01*
X3609Y3487D01*
X3618Y3444D01*
X3642Y3408D01*
Y3369D01*
X3618Y3333D01*
X3609Y3290D01*
X3618Y3247D01*
X3642Y3211D01*
Y3172D01*
X3618Y3136D01*
X3609Y3093D01*
X3618Y3051D01*
X3621Y3045D01*
X3613Y3004D01*
X3581Y2956D01*
X3809D01*
Y2896D01*
X3869D01*
Y2744D01*
X3898D01*
X3920Y2749D01*
X3939Y2752D01*
X3950Y2755D01*
X3962Y2751D01*
X4000Y2725D01*
Y2500D01*
X2775D01*
X2770Y2550D01*
X2778Y2552D01*
X2828Y2562D01*
X2894Y2606D01*
X2901Y2616D01*
X2943Y2637D01*
X3160D01*
Y2835D01*
Y3034D01*
X2943D01*
Y2911D01*
X2901Y2897D01*
X2893Y2895D01*
X2828Y2938D01*
X2810Y2942D01*
Y2750D01*
X2750D01*
Y2690D01*
X2558D01*
X2562Y2672D01*
X2606Y2606D01*
X2672Y2562D01*
X2722Y2552D01*
X2730Y2550D01*
X2725Y2500D01*
X2275D01*
X2270Y2550D01*
X2278Y2552D01*
X2328Y2562D01*
X2394Y2606D01*
X2438Y2672D01*
X2442Y2690D01*
X2058D01*
X2062Y2672D01*
X2106Y2606D01*
X2172Y2562D01*
X2222Y2552D01*
X2230Y2550D01*
X2225Y2500D01*
X1985D01*
X1950Y2535D01*
X1950Y4050D01*
X3965D01*
X4000Y4015D01*
D02*
G37*
G36*
X2565Y5655D02*
Y5546D01*
X2714D01*
Y5486D01*
X2774D01*
Y5258D01*
X2848D01*
Y5167D01*
X2725D01*
Y4890D01*
Y4613D01*
X2864D01*
Y4740D01*
X5635D01*
X5670Y4705D01*
X5670Y4117D01*
X5535D01*
Y3840D01*
X5475D01*
Y3780D01*
X5276D01*
Y3664D01*
X5235Y3628D01*
X5204Y3631D01*
X5170Y3676D01*
X5172Y3684D01*
X5160Y3742D01*
X5127Y3791D01*
X5078Y3824D01*
X5020Y3836D01*
X4991D01*
Y3684D01*
X4871D01*
Y3836D01*
X4842D01*
X4820Y3831D01*
X4801Y3828D01*
X4755Y3819D01*
X4755Y3819D01*
X4755Y3819D01*
X4700D01*
Y4190D01*
X2270Y4190D01*
Y5690D01*
X2400D01*
Y5700D01*
X2565D01*
Y5655D01*
D02*
G37*
G36*
X-4618Y1408D02*
X-4281D01*
X-4262Y1408D01*
X-4231Y1371D01*
Y1369D01*
X-4262Y1332D01*
X-4281Y1332D01*
X-4618D01*
Y1054D01*
X-4542D01*
Y989D01*
X-4615D01*
Y712D01*
X-4282D01*
X-4258Y712D01*
X-4232Y673D01*
X-4258Y635D01*
X-4615D01*
Y530D01*
X-4665Y503D01*
X-4668Y506D01*
Y635D01*
X-5025D01*
Y478D01*
X-5075Y452D01*
X-5078Y454D01*
Y635D01*
X-5414D01*
X-5436Y673D01*
X-5414Y712D01*
X-5078D01*
Y989D01*
X-5158D01*
Y1054D01*
X-5082D01*
Y1332D01*
X-5413Y1332D01*
X-5436Y1370D01*
X-5413Y1408D01*
X-5082D01*
Y1445D01*
X-5028D01*
Y1408D01*
X-4672D01*
Y1445D01*
X-4618D01*
Y1408D01*
D02*
G37*
G36*
X-2352Y2533D02*
Y1952D01*
X-2402Y1925D01*
X-2422Y1938D01*
X-2440Y1942D01*
Y1750D01*
X-2560D01*
Y1942D01*
X-2578Y1938D01*
X-2644Y1894D01*
X-2669Y1857D01*
X-2729D01*
X-2735Y1865D01*
X-2788Y1901D01*
X-2850Y1913D01*
X-2912Y1901D01*
X-2965Y1865D01*
X-3001Y1812D01*
X-3013Y1750D01*
X-3001Y1688D01*
X-2965Y1635D01*
X-2912Y1599D01*
X-2902Y1597D01*
Y1416D01*
X-2978D01*
Y1138D01*
X-2635D01*
X-2613Y1100D01*
X-2635Y1062D01*
X-2978D01*
Y889D01*
X-3026Y841D01*
X-3072Y860D01*
Y1062D01*
X-3399D01*
X-3422Y1100D01*
X-3399Y1138D01*
X-3072D01*
Y1416D01*
X-3148D01*
Y1626D01*
X-3135Y1635D01*
X-3099Y1688D01*
X-3087Y1750D01*
X-3099Y1812D01*
X-3135Y1865D01*
X-3188Y1901D01*
X-3250Y1913D01*
X-3312Y1901D01*
X-3365Y1865D01*
X-3383Y1839D01*
X-3433Y1854D01*
Y2023D01*
X-3248Y2208D01*
X-2790D01*
X-2751Y2216D01*
X-2718Y2238D01*
X-2402Y2554D01*
X-2352Y2533D01*
D02*
G37*
G36*
X6750Y2965D02*
X6750Y2150D01*
X8650Y2150D01*
X10900Y-100D01*
X14215Y-100D01*
X14250Y-135D01*
X14250Y-1950D01*
X10750D01*
X10750Y-900D01*
X8250Y1600D01*
X6250Y1600D01*
Y2500D01*
X4750D01*
Y2718D01*
X4759Y2728D01*
X4800Y2753D01*
X4801Y2752D01*
X4842Y2744D01*
X4871D01*
Y2896D01*
X4991D01*
Y2744D01*
X5020D01*
X5078Y2756D01*
X5127Y2789D01*
X5143Y2812D01*
X5193Y2797D01*
Y2687D01*
X5410D01*
Y2885D01*
X5470D01*
Y2945D01*
X5747D01*
Y3000D01*
X6715D01*
X6750Y2965D01*
D02*
G37*
G36*
X-4523Y2786D02*
X-4521Y2772D01*
X-4492Y2729D01*
Y2600D01*
X-4484Y2561D01*
X-4462Y2528D01*
X-4231Y2296D01*
Y1723D01*
X-4262Y1686D01*
X-4281Y1686D01*
X-4618D01*
Y1649D01*
X-4672D01*
Y1686D01*
X-4748D01*
Y1826D01*
X-4735Y1835D01*
X-4699Y1888D01*
X-4687Y1950D01*
X-4699Y2012D01*
X-4735Y2065D01*
X-4788Y2101D01*
X-4850Y2113D01*
X-4912Y2101D01*
X-4965Y2065D01*
X-4999Y2015D01*
X-5020Y2012D01*
X-5030D01*
X-5051Y2015D01*
X-5085Y2065D01*
X-5138Y2101D01*
X-5200Y2113D01*
X-5262Y2101D01*
X-5315Y2065D01*
X-5324Y2052D01*
X-5400D01*
X-5439Y2044D01*
X-5445Y2040D01*
X-5477Y2079D01*
X-5008Y2548D01*
X-4950Y2537D01*
X-4888Y2549D01*
X-4835Y2585D01*
X-4799Y2638D01*
X-4787Y2700D01*
X-4788Y2707D01*
X-4783Y2717D01*
X-4745Y2746D01*
X-4700Y2737D01*
X-4638Y2749D01*
X-4585Y2785D01*
X-4577Y2797D01*
X-4523Y2786D01*
D02*
G37*
G36*
X-4031Y2902D02*
Y2826D01*
X-4021Y2772D01*
X-3990Y2726D01*
X-3944Y2695D01*
X-3890Y2685D01*
X-3836Y2695D01*
X-3790Y2726D01*
X-3763Y2766D01*
X-3742Y2774D01*
X-3707Y2779D01*
X-3662Y2749D01*
X-3600Y2737D01*
X-3538Y2749D01*
X-3532Y2753D01*
X-3492Y2720D01*
Y2632D01*
X-3801Y2323D01*
X-3823Y2290D01*
X-3831Y2251D01*
Y1030D01*
X-3870Y1002D01*
Y800D01*
X-3990D01*
Y1003D01*
X-4028Y1031D01*
Y1262D01*
X-4027Y1269D01*
Y2339D01*
X-4034Y2378D01*
X-4057Y2411D01*
X-4288Y2642D01*
Y2729D01*
X-4259Y2772D01*
X-4249Y2826D01*
Y2984D01*
X-4252Y3000D01*
X-4220Y3043D01*
X-4175Y3046D01*
X-4031Y2902D01*
D02*
G37*
G36*
X-6293Y-2801D02*
X-6260Y-2823D01*
X-6221Y-2831D01*
X-5238D01*
X-5211Y-2881D01*
X-5213Y-2883D01*
X-5221Y-2926D01*
X-5213Y-2969D01*
X-5189Y-3005D01*
X-5152Y-3029D01*
X-5144Y-3048D01*
X-5162Y-3084D01*
X-5180Y-3098D01*
X-5334D01*
Y-3022D01*
X-5612D01*
Y-3378D01*
X-5334D01*
Y-3302D01*
X-5044D01*
X-5011Y-3295D01*
X-4982Y-3301D01*
X-4919Y-3289D01*
X-4877Y-3261D01*
X-4839Y-3274D01*
X-4828Y-3282D01*
X-4827Y-3298D01*
Y-3320D01*
X-4826Y-3329D01*
X-4825Y-3331D01*
X-5042Y-3548D01*
X-5334D01*
Y-3472D01*
X-5612D01*
Y-3798D01*
X-5688D01*
Y-3472D01*
X-5966D01*
Y-3548D01*
X-6108D01*
X-6398Y-3258D01*
Y-2767D01*
X-6348Y-2746D01*
X-6293Y-2801D01*
D02*
G37*
G36*
X515Y7861D02*
X1028Y7810D01*
X1537Y7726D01*
X2039Y7609D01*
X2532Y7459D01*
X3015Y7278D01*
X3107Y7236D01*
X3096Y7187D01*
X3057D01*
Y6970D01*
X3454D01*
Y7029D01*
X3504Y7055D01*
X3939Y6822D01*
X4376Y6550D01*
X4796Y6250D01*
X5194Y5923D01*
X5570Y5570D01*
X5923Y5194D01*
X6250Y4796D01*
X6550Y4376D01*
X6822Y3939D01*
X7065Y3484D01*
X7278Y3015D01*
X7392Y2711D01*
X7392Y2711D01*
X7392D01*
X7419Y2673D01*
X7421Y2671D01*
X7457Y2646D01*
X7500Y2638D01*
X15888D01*
Y-2638D01*
X7500D01*
X7457Y-2646D01*
X7421Y-2671D01*
X7419Y-2673D01*
X7392Y-2711D01*
X7392D01*
X7392Y-2711D01*
X7278Y-3015D01*
X7065Y-3484D01*
X6822Y-3939D01*
X6550Y-4376D01*
X6250Y-4796D01*
X5923Y-5194D01*
X5730Y-5400D01*
X2178D01*
Y-5188D01*
X2078D01*
X2066Y-5181D01*
X2059Y-5155D01*
X2056Y-5126D01*
X2075Y-5112D01*
X2178D01*
Y-4834D01*
X2074D01*
X2036Y-4809D01*
X1977Y-4797D01*
X1713D01*
X1553Y-4637D01*
Y-4582D01*
X1785D01*
Y-4452D01*
X1869D01*
X1897Y-4490D01*
X2303D01*
X2331Y-4452D01*
X2385D01*
X2422Y-4484D01*
Y-4748D01*
X2422Y-4762D01*
X2390Y-4798D01*
X2382D01*
Y-4917D01*
X2818D01*
Y-4802D01*
X2818Y-4798D01*
X2827Y-4752D01*
X3090D01*
Y-4846D01*
X3644D01*
Y-4794D01*
X3660Y-4783D01*
X3694Y-4772D01*
X3738Y-4801D01*
X3800Y-4813D01*
X3862Y-4801D01*
X3915Y-4765D01*
X3951Y-4712D01*
X3963Y-4650D01*
X3951Y-4588D01*
X3915Y-4535D01*
X3862Y-4499D01*
X3800Y-4487D01*
X3738Y-4499D01*
X3685Y-4535D01*
X3676Y-4548D01*
X3604D01*
Y-4302D01*
X3700D01*
X3739Y-4294D01*
X3772Y-4272D01*
X4023Y-4021D01*
X4059Y-4024D01*
X4092Y-4072D01*
X4087Y-4100D01*
X4099Y-4162D01*
X4128Y-4205D01*
X4116Y-4255D01*
X3996D01*
Y-4533D01*
X4470D01*
Y-4255D01*
X4394D01*
X4384Y-4241D01*
X4372Y-4205D01*
X4401Y-4162D01*
X4413Y-4100D01*
X4408Y-4073D01*
X4454Y-4048D01*
X4598Y-4192D01*
Y-4558D01*
X4389Y-4767D01*
X3996D01*
Y-5045D01*
X4470D01*
Y-4974D01*
X4772Y-4672D01*
X4794Y-4639D01*
X4802Y-4600D01*
Y-4150D01*
X4794Y-4111D01*
X4772Y-4078D01*
X4522Y-3828D01*
X4489Y-3806D01*
X4450Y-3798D01*
X4000D01*
X3961Y-3806D01*
X3928Y-3828D01*
X3658Y-4098D01*
X3104D01*
X3088Y-4048D01*
X3094Y-4044D01*
X3138Y-3978D01*
X3142Y-3960D01*
X2758D01*
X2762Y-3978D01*
X2806Y-4044D01*
X2812Y-4048D01*
X2796Y-4098D01*
X2331D01*
X2303Y-4060D01*
X1897D01*
X1869Y-4098D01*
X1200D01*
X1161Y-4106D01*
X1128Y-4128D01*
X1090Y-4166D01*
X1051Y-4134D01*
X1066Y-4112D01*
X1088Y-4078D01*
X1092Y-4060D01*
X960D01*
Y-4192D01*
X978Y-4188D01*
X1014Y-4164D01*
X1036Y-4150D01*
X1072Y-4184D01*
X1050Y-4217D01*
X1044Y-4245D01*
X1015D01*
Y-4582D01*
X1042D01*
Y-4708D01*
X1013Y-4732D01*
X966Y-4722D01*
Y-4722D01*
X702D01*
X688Y-4722D01*
X683Y-4717D01*
X652Y-4682D01*
X652Y-4632D01*
X688Y-4578D01*
X692Y-4560D01*
X308D01*
X312Y-4578D01*
X348Y-4632D01*
X329Y-4682D01*
X294D01*
Y-4840D01*
X473D01*
Y-4900D01*
X533D01*
Y-5118D01*
X652D01*
Y-5110D01*
X688Y-5078D01*
X702Y-5078D01*
X966D01*
Y-5002D01*
X1000D01*
X1039Y-4994D01*
X1072Y-4972D01*
X1216Y-4828D01*
X1231Y-4806D01*
X1272Y-4800D01*
X1288Y-4802D01*
X1292Y-4808D01*
X1542Y-5058D01*
X1591Y-5091D01*
X1650Y-5103D01*
X1822D01*
Y-5112D01*
X1925D01*
X1944Y-5126D01*
X1941Y-5155D01*
X1934Y-5181D01*
X1922Y-5188D01*
X1822D01*
Y-5400D01*
X1579D01*
X1551Y-5360D01*
X1149D01*
X1121Y-5400D01*
X-3282D01*
Y-5287D01*
X-3718D01*
Y-5400D01*
X-4732D01*
Y-5337D01*
X-5168D01*
Y-5400D01*
X-5730D01*
X-5923Y-5194D01*
X-6250Y-4796D01*
X-6550Y-4376D01*
X-6822Y-3939D01*
X-7065Y-3484D01*
X-7278Y-3015D01*
X-7392Y-2711D01*
X-7392Y-2711D01*
X-7392D01*
X-7419Y-2673D01*
X-7421Y-2671D01*
X-7457Y-2646D01*
X-7500Y-2638D01*
X-15888D01*
Y2638D01*
X-7500D01*
X-7457Y2646D01*
X-7421Y2671D01*
X-7419Y2673D01*
X-7392Y2711D01*
X-7392D01*
X-7392Y2711D01*
X-7278Y3015D01*
X-7065Y3484D01*
X-6822Y3939D01*
X-6550Y4376D01*
X-6250Y4796D01*
X-5923Y5194D01*
X-5570Y5570D01*
X-5194Y5923D01*
X-4796Y6250D01*
X-4584Y6401D01*
X-4582Y6400D01*
X-4543Y6369D01*
X-4553Y6320D01*
X-4541Y6258D01*
X-4505Y6205D01*
X-4517Y6154D01*
X-4521Y6148D01*
X-4531Y6094D01*
Y5936D01*
X-4521Y5882D01*
X-4490Y5836D01*
X-4444Y5806D01*
X-4390Y5795D01*
X-4336Y5806D01*
X-4290Y5836D01*
X-4259Y5882D01*
X-4249Y5936D01*
Y6094D01*
X-4259Y6148D01*
X-4263Y6154D01*
X-4275Y6205D01*
X-4239Y6258D01*
X-4227Y6320D01*
X-4239Y6382D01*
X-4275Y6435D01*
X-4328Y6471D01*
X-4385Y6482D01*
X-4393Y6497D01*
X-4402Y6532D01*
X-4376Y6550D01*
X-3939Y6822D01*
X-3847Y6871D01*
X-3802Y6839D01*
X-3788Y6772D01*
X-3744Y6706D01*
X-3726Y6693D01*
X-3721Y6644D01*
X-3962Y6402D01*
X-3984Y6369D01*
X-3992Y6330D01*
Y6191D01*
X-4021Y6148D01*
X-4031Y6094D01*
Y5936D01*
X-4021Y5882D01*
X-3990Y5836D01*
X-3944Y5806D01*
X-3890Y5795D01*
X-3836Y5806D01*
X-3790Y5836D01*
X-3767Y5871D01*
X-3729Y5881D01*
X-3709Y5880D01*
X-3662Y5849D01*
X-3600Y5837D01*
X-3538Y5849D01*
X-3511Y5867D01*
X-3490Y5836D01*
X-3444Y5806D01*
X-3390Y5795D01*
X-3336Y5806D01*
X-3290Y5836D01*
X-3267Y5871D01*
X-3229Y5881D01*
X-3209Y5880D01*
X-3162Y5849D01*
X-3100Y5837D01*
X-3038Y5849D01*
X-3011Y5867D01*
X-2990Y5836D01*
X-2944Y5806D01*
X-2890Y5795D01*
X-2836Y5806D01*
X-2790Y5836D01*
X-2759Y5882D01*
X-2749Y5936D01*
Y6094D01*
X-2759Y6148D01*
X-2790Y6194D01*
X-2836Y6225D01*
X-2890Y6235D01*
X-2944Y6225D01*
X-2990Y6194D01*
X-3021Y6148D01*
X-3070Y6157D01*
X-3100Y6163D01*
X-3162Y6151D01*
X-3203Y6123D01*
X-3245Y6133D01*
X-3258Y6141D01*
X-3259Y6148D01*
X-3290Y6194D01*
X-3336Y6225D01*
X-3390Y6235D01*
X-3444Y6225D01*
X-3490Y6194D01*
X-3521Y6148D01*
X-3570Y6157D01*
X-3600Y6163D01*
X-3662Y6151D01*
X-3703Y6123D01*
X-3745Y6133D01*
X-3758Y6141D01*
X-3759Y6148D01*
X-3788Y6191D01*
Y6288D01*
X-3555Y6521D01*
X-3328D01*
Y6484D01*
X-2972D01*
Y6521D01*
X-2815D01*
X-2552Y6258D01*
Y5758D01*
X-2595Y5741D01*
Y5741D01*
X-3580D01*
Y4460D01*
Y3179D01*
X-3009D01*
X-2994Y3129D01*
X-3019Y3112D01*
X-3058Y3053D01*
X-3072Y2984D01*
Y2965D01*
X-2890D01*
Y2905D01*
X-2830D01*
Y2656D01*
X-2820Y2658D01*
X-2761Y2697D01*
X-2755Y2706D01*
X-2728Y2712D01*
X-2710Y2708D01*
Y2900D01*
X-2590D01*
Y2664D01*
X-2586Y2658D01*
X-2832Y2412D01*
X-3290D01*
X-3329Y2404D01*
X-3362Y2382D01*
X-3546Y2199D01*
X-3600Y2215D01*
X-3603Y2233D01*
X-3318Y2518D01*
X-3296Y2551D01*
X-3288Y2590D01*
Y2729D01*
X-3259Y2772D01*
X-3249Y2826D01*
Y2984D01*
X-3259Y3038D01*
X-3290Y3084D01*
X-3336Y3114D01*
X-3390Y3125D01*
X-3444Y3114D01*
X-3490Y3084D01*
X-3520Y3039D01*
X-3538Y3051D01*
X-3600Y3063D01*
X-3662Y3051D01*
X-3705Y3022D01*
X-3746Y3031D01*
X-3759Y3038D01*
X-3790Y3084D01*
X-3836Y3114D01*
X-3890Y3125D01*
X-3926Y3118D01*
X-3936Y3129D01*
X-3915Y3179D01*
X-3700D01*
Y4400D01*
X-4685D01*
Y3264D01*
X-5550D01*
X-5565Y3314D01*
X-5535Y3335D01*
X-5499Y3388D01*
X-5487Y3450D01*
X-5499Y3512D01*
X-5535Y3565D01*
X-5588Y3601D01*
X-5650Y3613D01*
X-5712Y3601D01*
X-5765Y3565D01*
X-5801Y3512D01*
X-5813Y3450D01*
X-5810Y3434D01*
X-7072Y2172D01*
X-7094Y2139D01*
X-7102Y2100D01*
Y1624D01*
X-7115Y1615D01*
X-7151Y1562D01*
X-7163Y1500D01*
X-7151Y1438D01*
X-7115Y1385D01*
X-7102Y1376D01*
Y416D01*
X-7178D01*
Y138D01*
X-6822D01*
Y416D01*
X-6898D01*
Y1376D01*
X-6885Y1385D01*
X-6849Y1438D01*
X-6837Y1500D01*
X-6849Y1562D01*
X-6885Y1615D01*
X-6898Y1624D01*
Y2058D01*
X-6779Y2177D01*
X-6740Y2145D01*
X-6744Y2139D01*
X-6752Y2100D01*
Y1050D01*
X-6744Y1011D01*
X-6722Y978D01*
X-6710Y966D01*
X-6713Y950D01*
X-6701Y888D01*
X-6665Y835D01*
X-6652Y826D01*
Y416D01*
X-6728D01*
Y138D01*
X-6385D01*
X-6363Y100D01*
X-6385Y62D01*
X-6728D01*
Y-216D01*
X-6652D01*
Y-439D01*
X-6698Y-458D01*
X-6890Y-266D01*
X-6878Y-216D01*
X-6822D01*
Y62D01*
X-7178D01*
Y-140D01*
X-7224Y-159D01*
X-7272Y-111D01*
Y62D01*
X-7628D01*
Y-216D01*
X-7455D01*
X-6113Y-1558D01*
X-6130Y-1612D01*
X-6141Y-1614D01*
X-6878Y-878D01*
X-6911Y-856D01*
X-6950Y-848D01*
X-9008D01*
X-10840Y984D01*
X-10837Y1000D01*
X-10849Y1062D01*
X-10885Y1115D01*
X-10935Y1149D01*
X-10936Y1153D01*
X-10919Y1199D01*
X-10851D01*
Y1440D01*
X-11328D01*
Y1199D01*
X-11081D01*
X-11064Y1153D01*
X-11065Y1149D01*
X-11115Y1115D01*
X-11151Y1062D01*
X-11163Y1000D01*
X-11151Y938D01*
X-11115Y885D01*
X-11062Y849D01*
X-11000Y837D01*
X-10984Y840D01*
X-10951Y807D01*
X-10970Y761D01*
X-11885D01*
Y239D01*
X-10891D01*
Y331D01*
X-10845Y350D01*
X-9222Y-1272D01*
X-9189Y-1294D01*
X-9170Y-1298D01*
X-9175Y-1348D01*
X-9258D01*
X-10678Y72D01*
X-10711Y94D01*
X-10750Y102D01*
X-11858D01*
X-12328Y572D01*
X-12361Y594D01*
X-12400Y602D01*
X-13115D01*
Y761D01*
X-14109D01*
Y239D01*
X-13115D01*
Y398D01*
X-12442D01*
X-11972Y-72D01*
X-11939Y-94D01*
X-11900Y-102D01*
X-10792D01*
X-9402Y-1492D01*
X-9420Y-1538D01*
X-9463Y-1543D01*
X-10528Y-478D01*
X-10561Y-456D01*
X-10600Y-448D01*
X-10891D01*
Y-239D01*
X-11885D01*
Y-761D01*
X-10891D01*
Y-652D01*
X-10642D01*
X-9596Y-1698D01*
X-9617Y-1748D01*
X-9808D01*
X-10578Y-978D01*
X-10611Y-956D01*
X-10650Y-948D01*
X-12108D01*
X-12628Y-428D01*
X-12661Y-406D01*
X-12700Y-398D01*
X-13115D01*
Y-239D01*
X-14109D01*
Y-761D01*
X-13115D01*
Y-602D01*
X-12742D01*
X-12222Y-1122D01*
X-12189Y-1144D01*
X-12150Y-1152D01*
X-11931D01*
X-11925Y-1199D01*
X-11925D01*
Y-1440D01*
X-10851D01*
Y-1199D01*
X-10851D01*
X-10844Y-1152D01*
X-10692D01*
X-9922Y-1922D01*
X-9889Y-1944D01*
X-9870Y-1948D01*
X-9875Y-1998D01*
X-10298D01*
X-10325Y-1948D01*
X-10312Y-1928D01*
X-10308Y-1910D01*
X-10692D01*
X-10688Y-1928D01*
X-10675Y-1948D01*
X-10702Y-1998D01*
X-11708D01*
X-11859Y-1847D01*
X-11840Y-1801D01*
X-11448D01*
Y-1560D01*
X-11925D01*
Y-1634D01*
X-11975Y-1649D01*
X-11985Y-1635D01*
X-12038Y-1599D01*
X-12100Y-1587D01*
X-12162Y-1599D01*
X-12215Y-1635D01*
X-12251Y-1688D01*
X-12263Y-1750D01*
X-12258Y-1777D01*
X-12304Y-1802D01*
X-12340Y-1766D01*
X-12337Y-1750D01*
X-12349Y-1688D01*
X-12385Y-1635D01*
X-12438Y-1599D01*
X-12500Y-1587D01*
X-12562Y-1599D01*
X-12615Y-1635D01*
X-12651Y-1688D01*
X-12663Y-1750D01*
X-12651Y-1812D01*
X-12615Y-1865D01*
X-12562Y-1901D01*
X-12500Y-1913D01*
X-12484Y-1910D01*
X-12142Y-2252D01*
X-12161Y-2298D01*
X-12548D01*
X-12575Y-2248D01*
X-12562Y-2228D01*
X-12558Y-2210D01*
X-12942D01*
X-12938Y-2228D01*
X-12925Y-2248D01*
X-12952Y-2298D01*
X-13446D01*
X-13462Y-2248D01*
X-13456Y-2244D01*
X-13412Y-2178D01*
X-13408Y-2160D01*
X-13792D01*
X-13788Y-2178D01*
X-13744Y-2244D01*
X-13738Y-2248D01*
X-13754Y-2298D01*
X-14208D01*
X-14848Y-1658D01*
Y126D01*
X-14835Y135D01*
X-14799Y188D01*
X-14787Y250D01*
X-14799Y312D01*
X-14835Y365D01*
X-14888Y401D01*
X-14950Y413D01*
X-15012Y401D01*
X-15065Y365D01*
X-15101Y312D01*
X-15113Y250D01*
X-15101Y188D01*
X-15065Y135D01*
X-15052Y126D01*
Y-1700D01*
X-15044Y-1739D01*
X-15022Y-1772D01*
X-14322Y-2472D01*
X-14289Y-2494D01*
X-14250Y-2502D01*
X-7342D01*
X-6902Y-2942D01*
Y-3498D01*
X-6894Y-3537D01*
X-6872Y-3570D01*
X-6270Y-4172D01*
X-6237Y-4194D01*
X-6198Y-4202D01*
X-6000D01*
X-5977Y-4252D01*
X-6001Y-4288D01*
X-6013Y-4350D01*
X-6001Y-4412D01*
X-5965Y-4465D01*
X-5912Y-4501D01*
X-5850Y-4513D01*
X-5788Y-4501D01*
X-5735Y-4465D01*
X-5699Y-4412D01*
X-5687Y-4350D01*
X-5699Y-4288D01*
X-5723Y-4252D01*
X-5700Y-4202D01*
X-5034D01*
X-5030Y-4252D01*
X-5078Y-4262D01*
X-5144Y-4306D01*
X-5188Y-4372D01*
X-5192Y-4390D01*
X-5000D01*
Y-4450D01*
X-4940D01*
Y-4642D01*
X-4922Y-4638D01*
X-4856Y-4594D01*
X-4841Y-4572D01*
X-4772D01*
Y-4691D01*
X-4732D01*
Y-4759D01*
X-4772Y-4784D01*
X-5128D01*
Y-5062D01*
X-5160Y-5098D01*
X-5168D01*
Y-5217D01*
X-4732D01*
Y-5139D01*
X-4697Y-5104D01*
X-4238D01*
X-4202Y-5135D01*
Y-5144D01*
X-3975D01*
Y-4876D01*
X-3855D01*
Y-5144D01*
X-3718D01*
Y-5167D01*
X-3282D01*
Y-5048D01*
X-3290D01*
X-3322Y-5012D01*
Y-4734D01*
X-3445D01*
X-3522Y-4658D01*
X-3503Y-4611D01*
X-3362D01*
Y-4452D01*
X-3302D01*
Y-4392D01*
X-2993D01*
X-2989Y-4389D01*
X-2978Y-4391D01*
Y-4572D01*
X-2843D01*
X-2809Y-4594D01*
X-2751Y-4605D01*
X-1566D01*
Y-4628D01*
X-1288D01*
Y-4512D01*
X-1286Y-4509D01*
X-1274Y-4450D01*
X-1286Y-4391D01*
X-1288Y-4388D01*
Y-4272D01*
X-1566D01*
Y-4299D01*
X-1873D01*
X-1873Y-4299D01*
X-1927D01*
X-1927Y-4299D01*
X-2484D01*
Y-4257D01*
X-2751D01*
Y-4137D01*
X-2484D01*
Y-4037D01*
X-2524D01*
Y-3822D01*
X-2726D01*
X-2798Y-3750D01*
X-2796Y-3738D01*
X-2790Y-3731D01*
X-2741Y-3705D01*
X-2700Y-3713D01*
X-2638Y-3701D01*
X-2585Y-3665D01*
X-2551Y-3615D01*
X-2530Y-3612D01*
X-2520D01*
X-2499Y-3615D01*
X-2465Y-3665D01*
X-2412Y-3701D01*
X-2350Y-3713D01*
X-2288Y-3701D01*
X-2235Y-3665D01*
X-2187Y-3684D01*
X-2116Y-3755D01*
Y-3928D01*
X-2112D01*
X-2095Y-3959D01*
X-2090Y-3978D01*
X-2092Y-3990D01*
X-1683D01*
Y-3750D01*
Y-3532D01*
X-1802D01*
Y-3540D01*
X-1838Y-3572D01*
X-2011D01*
X-2048Y-3535D01*
Y-3400D01*
X-1998Y-3377D01*
X-1962Y-3401D01*
X-1900Y-3413D01*
X-1838Y-3401D01*
X-1785Y-3365D01*
X-1776Y-3352D01*
X-1516D01*
Y-3478D01*
X-1252D01*
X-1238Y-3478D01*
X-1202Y-3510D01*
Y-3518D01*
X-1083D01*
Y-3300D01*
Y-3082D01*
X-1202D01*
Y-3090D01*
X-1238Y-3122D01*
X-1252Y-3122D01*
X-1516D01*
Y-3148D01*
X-1776D01*
X-1785Y-3135D01*
X-1789Y-3132D01*
Y-3037D01*
X-1763D01*
X-1721Y-3029D01*
X-1685Y-3005D01*
X-1660Y-2969D01*
X-1652Y-2926D01*
X-1660Y-2883D01*
X-1662Y-2881D01*
X-1635Y-2831D01*
X-1273D01*
Y-3011D01*
X-760D01*
Y-2955D01*
X-692D01*
Y-3035D01*
X-656D01*
Y-3108D01*
X-692D01*
Y-3465D01*
X-415D01*
Y-3108D01*
X-424D01*
X-443Y-3061D01*
X-423Y-3054D01*
X-378Y-3075D01*
Y-3075D01*
X-374D01*
X-338Y-3108D01*
Y-3465D01*
X-61D01*
Y-3422D01*
X-48Y-3416D01*
X-4Y-3448D01*
X-4Y-3450D01*
X12Y-3528D01*
X56Y-3594D01*
X122Y-3638D01*
X140Y-3642D01*
Y-3450D01*
Y-3214D01*
X136Y-3208D01*
X572Y-2772D01*
X594Y-2739D01*
X602Y-2700D01*
Y-2374D01*
X615Y-2365D01*
X651Y-2312D01*
X663Y-2250D01*
X651Y-2188D01*
X615Y-2135D01*
X562Y-2099D01*
X500Y-2087D01*
X438Y-2099D01*
X385Y-2135D01*
X367Y-2161D01*
X307Y-2178D01*
X301Y-2177D01*
X278Y-2162D01*
X253Y-2157D01*
X244Y-2104D01*
X262Y-2092D01*
X735Y-1620D01*
X773Y-1652D01*
X749Y-1688D01*
X737Y-1750D01*
X749Y-1812D01*
X785Y-1865D01*
X799Y-1875D01*
Y-1925D01*
X785Y-1935D01*
X749Y-1988D01*
X737Y-2050D01*
X749Y-2112D01*
X785Y-2165D01*
X838Y-2201D01*
X900Y-2213D01*
X962Y-2201D01*
X1015Y-2165D01*
X1051Y-2112D01*
X1058Y-2078D01*
X1228D01*
X1231Y-2077D01*
X1356D01*
X1364Y-2084D01*
Y-2116D01*
X1396D01*
X1403Y-2124D01*
Y-2380D01*
X1410Y-2418D01*
X1432Y-2451D01*
X1465Y-2473D01*
X1504Y-2481D01*
X1543Y-2473D01*
X1544Y-2473D01*
X1583Y-2455D01*
X1621Y-2473D01*
X1623Y-2473D01*
X1661Y-2481D01*
X1700Y-2473D01*
X1733Y-2451D01*
X1747D01*
X1780Y-2473D01*
X1819Y-2481D01*
X1858Y-2473D01*
X1859Y-2473D01*
X1898Y-2455D01*
X1936Y-2473D01*
X1938Y-2473D01*
X1946Y-2475D01*
X1952Y-2483D01*
X1965Y-2530D01*
X1939Y-2568D01*
X1927Y-2630D01*
X1937Y-2682D01*
X1918Y-2717D01*
X1906Y-2732D01*
X1833D01*
Y-2950D01*
Y-3168D01*
X1952D01*
Y-3160D01*
X1988Y-3128D01*
X2002Y-3128D01*
X2266D01*
Y-2988D01*
X2348D01*
X2389Y-3038D01*
X2385Y-3057D01*
Y-3493D01*
X2374Y-3550D01*
X2386Y-3609D01*
X2388Y-3612D01*
Y-3728D01*
X2666D01*
Y-3618D01*
X2680Y-3597D01*
X2691Y-3539D01*
Y-3057D01*
X2686Y-3031D01*
X2693Y-3021D01*
X2740Y-2990D01*
X2769Y-2946D01*
X2643D01*
X2637Y-2942D01*
Y-2826D01*
X2769D01*
X2740Y-2783D01*
X2727Y-2774D01*
X2711Y-2724D01*
X2734Y-2690D01*
X2742Y-2650D01*
X2739Y-2633D01*
Y-2568D01*
X2739Y-2567D01*
X2764Y-2522D01*
X2818Y-2511D01*
X2842Y-2495D01*
X2867Y-2511D01*
X2921Y-2522D01*
X2927Y-2521D01*
X2977Y-2562D01*
Y-2601D01*
X2984Y-2641D01*
X3007Y-2674D01*
X3022Y-2689D01*
Y-2848D01*
X3022Y-2862D01*
X2990Y-2898D01*
X2982D01*
Y-3017D01*
X3418D01*
Y-2898D01*
X3410D01*
X3378Y-2862D01*
X3378Y-2848D01*
Y-2584D01*
X3338D01*
Y-2498D01*
X3384Y-2478D01*
X3440Y-2534D01*
X3437Y-2550D01*
X3449Y-2612D01*
X3485Y-2665D01*
X3538Y-2701D01*
X3600Y-2713D01*
X3662Y-2701D01*
X3715Y-2665D01*
X3751Y-2612D01*
X3763Y-2550D01*
X3751Y-2488D01*
X3715Y-2435D01*
X3662Y-2399D01*
X3600Y-2387D01*
X3584Y-2390D01*
X3374Y-2180D01*
X3353Y-2166D01*
X3366Y-2116D01*
X3376D01*
Y-2084D01*
X3384Y-2077D01*
X3483D01*
X3709Y-2303D01*
X3739Y-2323D01*
X3774Y-2330D01*
X4017D01*
Y-2901D01*
X4254D01*
Y-2565D01*
X4374D01*
Y-2901D01*
X4611D01*
Y-2861D01*
X5083D01*
Y-2656D01*
X5234D01*
Y-2728D01*
X5498D01*
X5512Y-2728D01*
X5548Y-2760D01*
Y-2768D01*
X5667D01*
Y-2550D01*
Y-2332D01*
X5548D01*
Y-2340D01*
X5512Y-2372D01*
X5498Y-2372D01*
X5234D01*
Y-2473D01*
X5118D01*
X5083Y-2438D01*
Y-2268D01*
X5114Y-2232D01*
X5123D01*
Y-1955D01*
X4826D01*
Y-1835D01*
X5123D01*
Y-1642D01*
X5206D01*
X5241Y-1680D01*
X5234Y-1722D01*
X5234D01*
Y-2078D01*
X5498D01*
X5512Y-2078D01*
X5548Y-2110D01*
Y-2118D01*
X5667D01*
Y-1900D01*
Y-1682D01*
X5548D01*
Y-1686D01*
X5510Y-1719D01*
X5507Y-1718D01*
X5465Y-1686D01*
Y-1673D01*
X5458Y-1638D01*
X5438Y-1608D01*
X5315Y-1485D01*
X5285Y-1465D01*
X5250Y-1458D01*
X4884D01*
Y-1244D01*
X4934D01*
Y-1328D01*
X5198D01*
X5212Y-1328D01*
X5248Y-1360D01*
Y-1368D01*
X5367D01*
Y-1150D01*
Y-932D01*
X5248D01*
Y-940D01*
X5212Y-972D01*
X5198Y-972D01*
X4934D01*
Y-1040D01*
X4884D01*
Y-807D01*
X4368D01*
X4222Y-661D01*
X4214Y-598D01*
X4319Y-493D01*
X4884D01*
Y-260D01*
X4934D01*
Y-378D01*
X5198D01*
X5212Y-378D01*
X5248Y-410D01*
Y-418D01*
X5367D01*
Y-200D01*
Y18D01*
X5248D01*
Y18D01*
X5204Y-3D01*
X5189Y2D01*
X5175Y18D01*
Y72D01*
X5212D01*
Y428D01*
X4934D01*
Y72D01*
X4971D01*
Y-22D01*
X4934D01*
Y-56D01*
X4884D01*
Y178D01*
X4016D01*
Y177D01*
X3966Y162D01*
X3944Y194D01*
X3929Y204D01*
Y282D01*
X4006D01*
Y440D01*
X3827D01*
Y500D01*
X3767D01*
Y718D01*
X3648D01*
Y710D01*
X3612Y678D01*
X3598Y678D01*
X3334D01*
Y481D01*
X3330Y459D01*
Y277D01*
X3280Y250D01*
X3275Y253D01*
X3236Y261D01*
X3197Y253D01*
X3196Y253D01*
X3157Y235D01*
X3119Y253D01*
X3117Y253D01*
X3079Y261D01*
X3040Y253D01*
X3039Y253D01*
X3000Y235D01*
X2961Y253D01*
X2960Y253D01*
X2921Y261D01*
X2916Y260D01*
X2866Y298D01*
Y471D01*
X3022Y628D01*
X3044Y661D01*
X3052Y700D01*
Y1226D01*
X3065Y1235D01*
X3101Y1288D01*
X3113Y1350D01*
X3101Y1412D01*
X3065Y1465D01*
X3012Y1501D01*
X2950Y1513D01*
X2934Y1510D01*
X2055Y2389D01*
X2074Y2435D01*
X2225D01*
X2246Y2443D01*
X2250Y2445D01*
X2254Y2443D01*
X2275Y2435D01*
X2725D01*
X2746Y2443D01*
X2750Y2445D01*
X2754Y2443D01*
X2775Y2435D01*
X2943D01*
Y2305D01*
X3497D01*
Y2435D01*
X4000D01*
X4046Y2454D01*
X4065Y2500D01*
Y2722D01*
X4310D01*
Y3290D01*
X4430D01*
Y2722D01*
X4683D01*
X4685Y2718D01*
Y2500D01*
X4704Y2454D01*
X4750Y2435D01*
X5193D01*
Y2355D01*
X5747D01*
Y2435D01*
X6185D01*
Y1600D01*
X6204Y1554D01*
X6250Y1535D01*
X8223Y1535D01*
X10685Y-927D01*
X10685Y-1950D01*
X10704Y-1996D01*
X10750Y-2015D01*
X14250D01*
X14296Y-1996D01*
X14315Y-1950D01*
X14315Y-135D01*
X14296Y-89D01*
X14261Y-54D01*
X14215Y-35D01*
X10927Y-35D01*
X8696Y2196D01*
X8650Y2215D01*
X6850Y2215D01*
X6815Y2250D01*
X6815Y2965D01*
X6796Y3011D01*
X6761Y3046D01*
X6715Y3065D01*
X5747D01*
X5701Y3046D01*
X5700Y3044D01*
X5592D01*
Y3240D01*
X5583Y3287D01*
X5557Y3327D01*
X5330Y3553D01*
X5351Y3603D01*
X5633D01*
Y4052D01*
X5670D01*
X5716Y4071D01*
X5735Y4117D01*
X5735Y4705D01*
X5716Y4751D01*
X5681Y4786D01*
X5635Y4805D01*
X3576D01*
Y4930D01*
X3397D01*
Y5050D01*
X3576D01*
Y5208D01*
X3218D01*
Y5200D01*
X3182Y5168D01*
X3092D01*
Y5258D01*
X3375D01*
Y5426D01*
X3226D01*
Y5546D01*
X3375D01*
Y5714D01*
X3346D01*
Y5830D01*
X2594D01*
Y5785D01*
X2565Y5765D01*
X2400D01*
X2376Y5755D01*
X2270D01*
X2224Y5736D01*
X2205Y5690D01*
Y5167D01*
X2135D01*
Y4890D01*
Y4613D01*
X2205D01*
Y4190D01*
X2215Y4165D01*
X2188Y4115D01*
X1950D01*
X1904Y4096D01*
X1885Y4050D01*
X1885Y2624D01*
X1839Y2605D01*
X1436Y3008D01*
X1440Y3014D01*
Y3190D01*
X1285D01*
X1260Y3173D01*
X1259Y3174D01*
X1220Y3182D01*
X1051D01*
Y3238D01*
X616D01*
Y2977D01*
X566Y2962D01*
X544Y2994D01*
X478Y3038D01*
X460Y3042D01*
Y2850D01*
Y2658D01*
X478Y2662D01*
X544Y2706D01*
X566Y2738D01*
X616Y2723D01*
Y2545D01*
X611Y2544D01*
X578Y2522D01*
X328Y2272D01*
X306Y2239D01*
X298Y2200D01*
Y24D01*
X285Y15D01*
X249Y-38D01*
X237Y-100D01*
X249Y-162D01*
X285Y-215D01*
X338Y-251D01*
X400Y-263D01*
X462Y-251D01*
X515Y-215D01*
X551Y-162D01*
X563Y-100D01*
X551Y-38D01*
X515Y15D01*
X502Y24D01*
Y2158D01*
X569Y2225D01*
X616Y2206D01*
Y1977D01*
Y1662D01*
X1051D01*
Y1718D01*
X1222D01*
Y1634D01*
X1559Y1634D01*
X1600Y1613D01*
X1606Y1606D01*
X1672Y1562D01*
X1690Y1558D01*
Y1750D01*
X1750D01*
Y1810D01*
X1942D01*
X1938Y1828D01*
X1901Y1884D01*
X1940Y1916D01*
X2504Y1352D01*
Y1224D01*
X2491Y1215D01*
X2456Y1162D01*
X2443Y1100D01*
X2456Y1038D01*
X2491Y985D01*
X2504Y976D01*
Y655D01*
X2458Y636D01*
X2102Y992D01*
Y1376D01*
X2115Y1385D01*
X2151Y1438D01*
X2163Y1500D01*
X2151Y1562D01*
X2115Y1615D01*
X2062Y1651D01*
X2000Y1663D01*
X1986Y1660D01*
X1957Y1690D01*
X1810D01*
Y1543D01*
X1840Y1514D01*
X1837Y1500D01*
X1849Y1438D01*
X1885Y1385D01*
X1898Y1376D01*
Y950D01*
X1906Y911D01*
X1928Y878D01*
X2347Y459D01*
Y298D01*
X2297Y260D01*
X2291Y261D01*
X2252Y253D01*
X2220Y231D01*
X2205D01*
X2173Y253D01*
X2134Y261D01*
X2095Y253D01*
X2094Y253D01*
X2055Y235D01*
X2016Y253D01*
X2015Y253D01*
X1976Y261D01*
X1938Y253D01*
X1936Y253D01*
X1898Y235D01*
X1859Y253D01*
X1858Y253D01*
X1819Y261D01*
X1780Y253D01*
X1747Y231D01*
X1733D01*
X1700Y253D01*
X1661Y261D01*
X1623Y253D01*
X1621Y253D01*
X1583Y235D01*
X1544Y253D01*
X1543Y253D01*
X1504Y261D01*
X1465Y253D01*
X1432Y231D01*
X1413Y203D01*
X1372Y189D01*
X1362Y186D01*
X1329Y212D01*
Y334D01*
X1428D01*
Y598D01*
X1428Y612D01*
X1460Y648D01*
X1468D01*
Y767D01*
X1032D01*
Y648D01*
X1040D01*
X1072Y612D01*
X1072Y598D01*
Y334D01*
X1125D01*
Y151D01*
X1099Y112D01*
X1087Y50D01*
X1099Y-12D01*
X1126Y-52D01*
X1108Y-96D01*
X1103Y-102D01*
X1100D01*
X1046Y-113D01*
X1000Y-143D01*
X973Y-184D01*
X1228D01*
Y-300D01*
X1100D01*
X1081Y-304D01*
X973D01*
X1000Y-344D01*
X1004Y-347D01*
X1007Y-363D01*
X999Y-401D01*
X1007Y-440D01*
X1007Y-441D01*
X1025Y-480D01*
X1007Y-519D01*
X1007Y-520D01*
X999Y-559D01*
X1007Y-598D01*
X1007Y-599D01*
X1025Y-638D01*
X1007Y-676D01*
X1007Y-678D01*
X999Y-716D01*
X1000Y-722D01*
X962Y-772D01*
X-437D01*
X-454Y-755D01*
Y-582D01*
X-732D01*
Y-938D01*
X-601D01*
X-599Y-939D01*
X-579Y-988D01*
X-593Y-1002D01*
X-732D01*
Y-1358D01*
X-454D01*
Y-1185D01*
X-402Y-1133D01*
X657D01*
X676Y-1179D01*
X358Y-1498D01*
X-454D01*
Y-1422D01*
X-732D01*
Y-1778D01*
X-454D01*
Y-1702D01*
X299D01*
X318Y-1748D01*
X148Y-1918D01*
X-444D01*
Y-1842D01*
X-722D01*
Y-2198D01*
X-716D01*
X-692Y-2238D01*
Y-2318D01*
X-760D01*
Y-2262D01*
X-1174D01*
X-1189Y-2212D01*
X-1165Y-2195D01*
X-1129Y-2142D01*
X-1126Y-2125D01*
X-1076Y-2130D01*
Y-2198D01*
X-798D01*
Y-1842D01*
X-926D01*
X-936Y-1828D01*
X-909Y-1778D01*
X-808D01*
Y-1422D01*
X-1086D01*
X-1126Y-1398D01*
X-1135Y-1385D01*
X-1164Y-1365D01*
X-1177Y-1307D01*
X-1175Y-1302D01*
X-1160Y-1282D01*
X-1086D01*
Y-1358D01*
X-808D01*
Y-1002D01*
X-999D01*
X-1026Y-952D01*
X-1016Y-938D01*
X-808D01*
Y-582D01*
X-1086D01*
Y-674D01*
X-1103Y-691D01*
X-1127Y-707D01*
X-1163Y-691D01*
X-1195Y-645D01*
X-1248Y-609D01*
X-1310Y-597D01*
X-1330Y-601D01*
X-1373Y-558D01*
X-1369Y-540D01*
X-1382Y-478D01*
X-1417Y-425D01*
X-1470Y-389D01*
X-1532Y-377D01*
X-1595Y-389D01*
X-1607Y-398D01*
X-1652Y-367D01*
X-1652Y-367D01*
X-1660Y-324D01*
X-1678Y-298D01*
X-1614Y-234D01*
X-1566Y-228D01*
Y-228D01*
X-1566Y-228D01*
X-1302D01*
X-1288Y-228D01*
X-1252Y-260D01*
Y-268D01*
X-1133D01*
Y-50D01*
Y168D01*
X-1252D01*
Y160D01*
X-1288Y128D01*
X-1302Y128D01*
X-1566D01*
Y52D01*
X-1574D01*
X-1613Y44D01*
X-1646Y22D01*
X-1690Y-22D01*
X-1729Y-4D01*
X-1737Y2D01*
X-1749Y62D01*
X-1785Y115D01*
X-1838Y151D01*
X-1856Y154D01*
X-1873Y209D01*
X-1698Y383D01*
X-1676Y416D01*
X-1668Y455D01*
Y609D01*
X-1633Y645D01*
X-1572D01*
X-1558Y645D01*
X-1522Y613D01*
Y605D01*
X-1403D01*
Y823D01*
Y1041D01*
X-1472D01*
X-1482Y1087D01*
X-1482Y1091D01*
Y1364D01*
X-1838D01*
Y1087D01*
X-1813D01*
X-1799Y1070D01*
Y1001D01*
X-1836D01*
Y860D01*
X-1886Y838D01*
X-1914Y865D01*
Y1001D01*
X-1951D01*
Y1060D01*
X-1937Y1077D01*
X-1912D01*
Y1354D01*
X-2268D01*
Y1077D01*
X-2302Y1041D01*
X-2398D01*
Y1578D01*
X-2356Y1606D01*
X-2318Y1662D01*
X-2268Y1654D01*
Y1431D01*
X-1912D01*
Y1709D01*
X-1992D01*
X-1996Y1728D01*
X-2018Y1761D01*
X-2148Y1891D01*
Y1972D01*
X-2098Y1993D01*
X-1863Y1758D01*
X-1838Y1719D01*
X-1838D01*
X-1838Y1719D01*
Y1441D01*
X-1482D01*
Y1719D01*
X-1562D01*
X-1566Y1738D01*
X-1588Y1771D01*
X-1968Y2151D01*
Y3774D01*
X-1918Y3789D01*
X-1915Y3785D01*
X-1862Y3749D01*
X-1800Y3737D01*
X-1738Y3749D01*
X-1685Y3785D01*
X-1649Y3838D01*
X-1637Y3900D01*
X-1649Y3962D01*
X-1685Y4015D01*
X-1738Y4051D01*
X-1800Y4063D01*
X-1862Y4051D01*
X-1915Y4015D01*
X-1918Y4011D01*
X-1968Y4026D01*
Y4726D01*
X-1918Y4742D01*
X-1894Y4706D01*
X-1828Y4662D01*
X-1810Y4658D01*
Y4850D01*
Y5042D01*
X-1828Y5038D01*
X-1894Y4994D01*
X-1918Y4958D01*
X-1968Y4974D01*
Y5993D01*
X-1938Y5999D01*
X-1885Y6035D01*
X-1849Y6088D01*
X-1837Y6150D01*
X-1849Y6212D01*
X-1885Y6265D01*
X-1936Y6300D01*
X-1940Y6326D01*
X-1940Y6331D01*
X-1938Y6352D01*
X-1889Y6385D01*
X-1854Y6438D01*
X-1841Y6500D01*
X-1854Y6562D01*
X-1889Y6615D01*
X-1942Y6651D01*
X-2005Y6663D01*
X-2067Y6651D01*
X-2120Y6615D01*
X-2155Y6562D01*
X-2168Y6500D01*
X-2165Y6484D01*
X-2306Y6343D01*
X-2320Y6342D01*
X-2358Y6349D01*
X-2365Y6353D01*
X-2378Y6372D01*
X-2701Y6695D01*
X-2734Y6717D01*
X-2773Y6725D01*
X-2972D01*
Y6762D01*
X-3328D01*
Y6725D01*
X-3386D01*
X-3411Y6766D01*
X-3411Y6775D01*
X-3408Y6790D01*
X-3600D01*
Y6910D01*
X-3408D01*
X-3412Y6928D01*
X-3456Y6994D01*
X-3480Y7010D01*
X-3483Y7049D01*
X-3477Y7068D01*
X-3378Y7113D01*
X-3328Y7081D01*
Y6838D01*
X-2972D01*
X-2972Y6838D01*
X-2922Y6851D01*
X-2885Y6826D01*
X-2823Y6814D01*
X-2760Y6826D01*
X-2707Y6862D01*
X-2672Y6915D01*
X-2660Y6977D01*
X-2672Y7040D01*
X-2707Y7093D01*
X-2760Y7128D01*
X-2823Y7140D01*
X-2885Y7128D01*
X-2922Y7103D01*
X-2972Y7116D01*
Y7116D01*
X-2972Y7116D01*
X-3251D01*
X-3262Y7166D01*
X-3015Y7278D01*
X-2532Y7459D01*
X-2039Y7609D01*
X-1537Y7726D01*
X-1028Y7810D01*
X-515Y7861D01*
X0Y7877D01*
X515Y7861D01*
D02*
G37*
%LPC*%
G36*
X11328Y-1560D02*
X10851D01*
Y-1801D01*
X11328D01*
Y-1560D01*
D02*
G37*
G36*
X12610Y-2158D02*
Y-2290D01*
X12742D01*
X12738Y-2272D01*
X12694Y-2206D01*
X12628Y-2162D01*
X12610Y-2158D01*
D02*
G37*
G36*
X6760Y-2808D02*
Y-2940D01*
X6892D01*
X6888Y-2922D01*
X6844Y-2856D01*
X6778Y-2812D01*
X6760Y-2808D01*
D02*
G37*
G36*
X13490Y-2158D02*
X13472Y-2162D01*
X13406Y-2206D01*
X13362Y-2272D01*
X13358Y-2290D01*
X13490D01*
Y-2158D01*
D02*
G37*
G36*
X12490D02*
X12472Y-2162D01*
X12406Y-2206D01*
X12362Y-2272D01*
X12358Y-2290D01*
X12490D01*
Y-2158D01*
D02*
G37*
G36*
X5906Y-2610D02*
X5787D01*
Y-2768D01*
X5906D01*
Y-2610D01*
D02*
G37*
G36*
X10610Y-2158D02*
Y-2290D01*
X10742D01*
X10738Y-2272D01*
X10694Y-2206D01*
X10628Y-2162D01*
X10610Y-2158D01*
D02*
G37*
G36*
X11610D02*
Y-2290D01*
X11742D01*
X11738Y-2272D01*
X11694Y-2206D01*
X11628Y-2162D01*
X11610Y-2158D01*
D02*
G37*
G36*
X11490D02*
X11472Y-2162D01*
X11406Y-2206D01*
X11362Y-2272D01*
X11358Y-2290D01*
X11490D01*
Y-2158D01*
D02*
G37*
G36*
X-13540Y-1908D02*
Y-2040D01*
X-13408D01*
X-13412Y-2022D01*
X-13456Y-1956D01*
X-13522Y-1912D01*
X-13540Y-1908D01*
D02*
G37*
G36*
X-13660D02*
X-13678Y-1912D01*
X-13744Y-1956D01*
X-13788Y-2022D01*
X-13792Y-2040D01*
X-13660D01*
Y-1908D01*
D02*
G37*
G36*
X-13672Y-1560D02*
X-14149D01*
Y-1801D01*
X-13672D01*
Y-1560D01*
D02*
G37*
G36*
X5906Y-1682D02*
X5787D01*
Y-1840D01*
X5906D01*
Y-1682D01*
D02*
G37*
G36*
X-12690Y-1958D02*
Y-2090D01*
X-12558D01*
X-12562Y-2072D01*
X-12606Y-2006D01*
X-12672Y-1962D01*
X-12690Y-1958D01*
D02*
G37*
G36*
X-10851Y-1560D02*
X-11328D01*
Y-1801D01*
X-10851D01*
Y-1560D01*
D02*
G37*
G36*
X13610Y-2158D02*
Y-2290D01*
X13742D01*
X13738Y-2272D01*
X13694Y-2206D01*
X13628Y-2162D01*
X13610Y-2158D01*
D02*
G37*
G36*
X-12810Y-1958D02*
X-12828Y-1962D01*
X-12894Y-2006D01*
X-12938Y-2072D01*
X-12942Y-2090D01*
X-12810D01*
Y-1958D01*
D02*
G37*
G36*
X5906Y-1960D02*
X5787D01*
Y-2118D01*
X5906D01*
Y-1960D01*
D02*
G37*
G36*
X12490Y-2410D02*
X12358D01*
X12362Y-2428D01*
X12406Y-2494D01*
X12472Y-2538D01*
X12490Y-2542D01*
Y-2410D01*
D02*
G37*
G36*
X11742D02*
X11610D01*
Y-2542D01*
X11628Y-2538D01*
X11694Y-2494D01*
X11738Y-2428D01*
X11742Y-2410D01*
D02*
G37*
G36*
X13490D02*
X13358D01*
X13362Y-2428D01*
X13406Y-2494D01*
X13472Y-2538D01*
X13490Y-2542D01*
Y-2410D01*
D02*
G37*
G36*
X12742D02*
X12610D01*
Y-2542D01*
X12628Y-2538D01*
X12694Y-2494D01*
X12738Y-2428D01*
X12742Y-2410D01*
D02*
G37*
G36*
X11490D02*
X11358D01*
X11362Y-2428D01*
X11406Y-2494D01*
X11472Y-2538D01*
X11490Y-2542D01*
Y-2410D01*
D02*
G37*
G36*
X9742D02*
X9610D01*
Y-2542D01*
X9628Y-2538D01*
X9694Y-2494D01*
X9738Y-2428D01*
X9742Y-2410D01*
D02*
G37*
G36*
X9490D02*
X9358D01*
X9362Y-2428D01*
X9406Y-2494D01*
X9472Y-2538D01*
X9490Y-2542D01*
Y-2410D01*
D02*
G37*
G36*
X10742D02*
X10610D01*
Y-2542D01*
X10628Y-2538D01*
X10694Y-2494D01*
X10738Y-2428D01*
X10742Y-2410D01*
D02*
G37*
G36*
X10490D02*
X10358D01*
X10362Y-2428D01*
X10406Y-2494D01*
X10472Y-2538D01*
X10490Y-2542D01*
Y-2410D01*
D02*
G37*
G36*
X9610Y-2158D02*
Y-2290D01*
X9742D01*
X9738Y-2272D01*
X9694Y-2206D01*
X9628Y-2162D01*
X9610Y-2158D01*
D02*
G37*
G36*
X9490D02*
X9472Y-2162D01*
X9406Y-2206D01*
X9362Y-2272D01*
X9358Y-2290D01*
X9490D01*
Y-2158D01*
D02*
G37*
G36*
X1090Y-2610D02*
X958D01*
X962Y-2628D01*
X1006Y-2694D01*
X1072Y-2738D01*
X1090Y-2742D01*
Y-2610D01*
D02*
G37*
G36*
X10490Y-2158D02*
X10472Y-2162D01*
X10406Y-2206D01*
X10362Y-2272D01*
X10358Y-2290D01*
X10490D01*
Y-2158D01*
D02*
G37*
G36*
X5906Y-2332D02*
X5787D01*
Y-2490D01*
X5906D01*
Y-2332D01*
D02*
G37*
G36*
X1090Y-2358D02*
X1072Y-2362D01*
X1006Y-2406D01*
X962Y-2472D01*
X958Y-2490D01*
X1090D01*
Y-2358D01*
D02*
G37*
G36*
X13742Y-2410D02*
X13610D01*
Y-2542D01*
X13628Y-2538D01*
X13694Y-2494D01*
X13738Y-2428D01*
X13742Y-2410D01*
D02*
G37*
G36*
X1342Y-2610D02*
X1210D01*
Y-2742D01*
X1228Y-2738D01*
X1294Y-2694D01*
X1338Y-2628D01*
X1342Y-2610D01*
D02*
G37*
G36*
X1210Y-2358D02*
Y-2490D01*
X1342D01*
X1338Y-2472D01*
X1294Y-2406D01*
X1228Y-2362D01*
X1210Y-2358D01*
D02*
G37*
G36*
X11925Y-1560D02*
X11448D01*
Y-1801D01*
X11925D01*
Y-1560D01*
D02*
G37*
G36*
X8000Y98D02*
X7923Y87D01*
X7851Y58D01*
X7790Y10D01*
X7742Y-51D01*
X7713Y-123D01*
X7702Y-200D01*
X7713Y-277D01*
X7742Y-349D01*
X7790Y-410D01*
X7838Y-447D01*
X7816Y-494D01*
X7750Y-481D01*
X7666Y-497D01*
X7595Y-545D01*
X7547Y-616D01*
X7531Y-700D01*
X7547Y-784D01*
X7595Y-855D01*
X7666Y-903D01*
X7750Y-919D01*
Y-981D01*
X7666Y-997D01*
X7595Y-1045D01*
X7560Y-1098D01*
X6692D01*
X6310Y-716D01*
X6313Y-700D01*
X6301Y-638D01*
X6265Y-585D01*
X6212Y-549D01*
X6150Y-537D01*
X6088Y-549D01*
X6035Y-585D01*
X5999Y-638D01*
X5987Y-700D01*
X5999Y-762D01*
X6035Y-815D01*
X6088Y-851D01*
X6150Y-863D01*
X6166Y-860D01*
X6578Y-1272D01*
X6611Y-1294D01*
X6650Y-1302D01*
X7560D01*
X7595Y-1355D01*
X7666Y-1403D01*
X7674Y-1404D01*
Y-1455D01*
X7650Y-1460D01*
X7566Y-1516D01*
X7510Y-1601D01*
X7490Y-1700D01*
X7510Y-1799D01*
X7549Y-1859D01*
X7526Y-1912D01*
X7523Y-1913D01*
X7451Y-1942D01*
X7390Y-1990D01*
X7342Y-2051D01*
X7313Y-2123D01*
X7302Y-2200D01*
X7313Y-2277D01*
X7342Y-2349D01*
X7390Y-2410D01*
X7451Y-2458D01*
X7523Y-2487D01*
X7600Y-2498D01*
X7677Y-2487D01*
X7749Y-2458D01*
X7810Y-2410D01*
X7858Y-2349D01*
X7887Y-2277D01*
X7898Y-2200D01*
X7887Y-2123D01*
X7858Y-2051D01*
X7817Y-1998D01*
X7825Y-1945D01*
X7850Y-1940D01*
X7934Y-1884D01*
X7990Y-1799D01*
X7995Y-1776D01*
X8046D01*
X8047Y-1784D01*
X8095Y-1855D01*
X8166Y-1903D01*
X8210Y-1911D01*
X8222Y-1965D01*
X8190Y-1990D01*
X8142Y-2051D01*
X8113Y-2123D01*
X8102Y-2200D01*
X8113Y-2277D01*
X8142Y-2349D01*
X8190Y-2410D01*
X8251Y-2458D01*
X8323Y-2487D01*
X8400Y-2498D01*
X8477Y-2487D01*
X8549Y-2458D01*
X8610Y-2410D01*
X8658Y-2349D01*
X8687Y-2277D01*
X8698Y-2200D01*
X8687Y-2123D01*
X8658Y-2051D01*
X8610Y-1990D01*
X8549Y-1942D01*
X8477Y-1913D01*
X8420Y-1905D01*
X8405Y-1855D01*
X8440Y-1802D01*
X8808D01*
X8940Y-1934D01*
X8937Y-1950D01*
X8949Y-2012D01*
X8985Y-2065D01*
X9038Y-2101D01*
X9100Y-2113D01*
X9162Y-2101D01*
X9215Y-2065D01*
X9251Y-2012D01*
X9263Y-1950D01*
X9251Y-1888D01*
X9215Y-1835D01*
X9162Y-1799D01*
X9100Y-1787D01*
X9084Y-1790D01*
X8922Y-1628D01*
X8889Y-1606D01*
X8850Y-1598D01*
X8440D01*
X8405Y-1545D01*
X8334Y-1497D01*
X8250Y-1481D01*
Y-1419D01*
X8334Y-1403D01*
X8405Y-1355D01*
X8440Y-1302D01*
X9226D01*
X9235Y-1315D01*
X9288Y-1351D01*
X9350Y-1363D01*
X9412Y-1351D01*
X9465Y-1315D01*
X9501Y-1262D01*
X9513Y-1200D01*
X9501Y-1138D01*
X9465Y-1085D01*
X9412Y-1049D01*
X9350Y-1037D01*
X9288Y-1049D01*
X9235Y-1085D01*
X9226Y-1098D01*
X8440D01*
X8405Y-1045D01*
X8334Y-997D01*
X8250Y-981D01*
Y-919D01*
X8334Y-903D01*
X8405Y-855D01*
X8440Y-802D01*
X9226D01*
X9235Y-815D01*
X9288Y-851D01*
X9350Y-863D01*
X9412Y-851D01*
X9465Y-815D01*
X9501Y-762D01*
X9513Y-700D01*
X9501Y-638D01*
X9465Y-585D01*
X9412Y-549D01*
X9350Y-537D01*
X9288Y-549D01*
X9235Y-585D01*
X9226Y-598D01*
X8440D01*
X8405Y-545D01*
X8334Y-497D01*
X8250Y-481D01*
X8184Y-494D01*
X8162Y-447D01*
X8210Y-410D01*
X8258Y-349D01*
X8287Y-277D01*
X8298Y-200D01*
X8287Y-123D01*
X8258Y-51D01*
X8210Y10D01*
X8149Y58D01*
X8077Y87D01*
X8000Y98D01*
D02*
G37*
G36*
X14960Y-527D02*
Y-690D01*
X15123D01*
X15117Y-660D01*
X15066Y-584D01*
X14990Y-533D01*
X14960Y-527D01*
D02*
G37*
G36*
X11328Y-199D02*
X10851D01*
Y-440D01*
X11328D01*
Y-199D01*
D02*
G37*
G36*
X13552D02*
X13075D01*
Y-440D01*
X13552D01*
Y-199D01*
D02*
G37*
G36*
X11925D02*
X11448D01*
Y-440D01*
X11925D01*
Y-199D01*
D02*
G37*
G36*
Y-560D02*
X11448D01*
Y-801D01*
X11925D01*
Y-560D01*
D02*
G37*
G36*
X11328D02*
X10851D01*
Y-801D01*
X11328D01*
Y-560D01*
D02*
G37*
G36*
X13552D02*
X13075D01*
Y-801D01*
X13552D01*
Y-560D01*
D02*
G37*
G36*
X14840Y-527D02*
X14810Y-533D01*
X14734Y-584D01*
X14683Y-660D01*
X14677Y-690D01*
X14840D01*
Y-527D01*
D02*
G37*
G36*
X14149Y-560D02*
X13672D01*
Y-801D01*
X14149D01*
Y-560D01*
D02*
G37*
G36*
Y-199D02*
X13672D01*
Y-440D01*
X14149D01*
Y-199D01*
D02*
G37*
G36*
X5566Y428D02*
X5288D01*
Y72D01*
X5566D01*
Y148D01*
X5626D01*
X5635Y135D01*
X5688Y99D01*
X5750Y87D01*
X5812Y99D01*
X5865Y135D01*
X5901Y188D01*
X5913Y250D01*
X5901Y312D01*
X5865Y365D01*
X5812Y401D01*
X5750Y413D01*
X5688Y401D01*
X5635Y365D01*
X5626Y352D01*
X5566D01*
Y428D01*
D02*
G37*
G36*
X-740Y142D02*
Y10D01*
X-608D01*
X-612Y28D01*
X-656Y94D01*
X-722Y138D01*
X-740Y142D01*
D02*
G37*
G36*
X11328Y440D02*
X10851D01*
Y199D01*
X11328D01*
Y440D01*
D02*
G37*
G36*
X13552D02*
X13075D01*
Y199D01*
X13552D01*
Y440D01*
D02*
G37*
G36*
X11925D02*
X11448D01*
Y199D01*
X11925D01*
Y440D01*
D02*
G37*
G36*
X5892Y-260D02*
X5760D01*
Y-392D01*
X5778Y-388D01*
X5844Y-344D01*
X5888Y-278D01*
X5892Y-260D01*
D02*
G37*
G36*
X5606Y18D02*
X5606Y18D01*
X5487D01*
Y-200D01*
Y-418D01*
X5606D01*
X5606Y-418D01*
Y-418D01*
X5640Y-402D01*
Y-200D01*
Y2D01*
X5606Y18D01*
Y18D01*
D02*
G37*
G36*
X-894Y168D02*
X-894Y168D01*
X-1013D01*
Y-50D01*
Y-268D01*
X-894D01*
X-894Y-268D01*
Y-268D01*
X-860Y-252D01*
Y-50D01*
Y152D01*
X-894Y168D01*
Y168D01*
D02*
G37*
G36*
X5760Y-8D02*
Y-140D01*
X5892D01*
X5888Y-122D01*
X5844Y-56D01*
X5778Y-12D01*
X5760Y-8D01*
D02*
G37*
G36*
X-608Y-110D02*
X-740D01*
Y-242D01*
X-722Y-238D01*
X-656Y-194D01*
X-612Y-128D01*
X-608Y-110D01*
D02*
G37*
G36*
X-13075Y-1199D02*
X-13552D01*
Y-1500D01*
Y-1801D01*
X-13075D01*
Y-1613D01*
X-13025Y-1598D01*
X-12994Y-1644D01*
X-12928Y-1688D01*
X-12910Y-1692D01*
Y-1500D01*
Y-1308D01*
X-12928Y-1312D01*
X-12994Y-1356D01*
X-13025Y-1402D01*
X-13075Y-1387D01*
Y-1199D01*
D02*
G37*
G36*
X-14258Y-1610D02*
X-14390D01*
Y-1742D01*
X-14372Y-1738D01*
X-14306Y-1694D01*
X-14262Y-1628D01*
X-14258Y-1610D01*
D02*
G37*
G36*
X-12658Y-1560D02*
X-12790D01*
Y-1692D01*
X-12772Y-1688D01*
X-12706Y-1644D01*
X-12662Y-1578D01*
X-12658Y-1560D01*
D02*
G37*
G36*
X-14390Y-1358D02*
Y-1490D01*
X-14258D01*
X-14262Y-1472D01*
X-14306Y-1406D01*
X-14372Y-1362D01*
X-14390Y-1358D01*
D02*
G37*
G36*
X-14510D02*
X-14528Y-1362D01*
X-14594Y-1406D01*
X-14638Y-1472D01*
X-14642Y-1490D01*
X-14510D01*
Y-1358D01*
D02*
G37*
G36*
X14149Y-1560D02*
X13672D01*
Y-1801D01*
X14149D01*
Y-1560D01*
D02*
G37*
G36*
X13552D02*
X13075D01*
Y-1801D01*
X13552D01*
Y-1560D01*
D02*
G37*
G36*
X-10560Y-1658D02*
X-10578Y-1662D01*
X-10644Y-1706D01*
X-10688Y-1772D01*
X-10692Y-1790D01*
X-10560D01*
Y-1658D01*
D02*
G37*
G36*
X-14510Y-1610D02*
X-14642D01*
X-14638Y-1628D01*
X-14594Y-1694D01*
X-14528Y-1738D01*
X-14510Y-1742D01*
Y-1610D01*
D02*
G37*
G36*
X-10440Y-1658D02*
Y-1790D01*
X-10308D01*
X-10312Y-1772D01*
X-10356Y-1706D01*
X-10422Y-1662D01*
X-10440Y-1658D01*
D02*
G37*
G36*
X-13672Y-1199D02*
X-14149D01*
Y-1440D01*
X-13672D01*
Y-1199D01*
D02*
G37*
G36*
X5892Y-1210D02*
X5760D01*
Y-1342D01*
X5778Y-1338D01*
X5844Y-1294D01*
X5888Y-1228D01*
X5892Y-1210D01*
D02*
G37*
G36*
X5606Y-932D02*
X5606Y-932D01*
X5487D01*
Y-1150D01*
Y-1368D01*
X5606D01*
X5606Y-1368D01*
Y-1368D01*
X5640Y-1352D01*
Y-1150D01*
Y-948D01*
X5606Y-932D01*
Y-932D01*
D02*
G37*
G36*
X5760Y-958D02*
Y-1090D01*
X5892D01*
X5888Y-1072D01*
X5844Y-1006D01*
X5778Y-962D01*
X5760Y-958D01*
D02*
G37*
G36*
X15123Y-810D02*
X14960D01*
Y-973D01*
X14990Y-967D01*
X15066Y-916D01*
X15117Y-840D01*
X15123Y-810D01*
D02*
G37*
G36*
X14840D02*
X14677D01*
X14683Y-840D01*
X14734Y-916D01*
X14810Y-967D01*
X14840Y-973D01*
Y-810D01*
D02*
G37*
G36*
X11328Y-1199D02*
X10851D01*
Y-1440D01*
X11328D01*
Y-1199D01*
D02*
G37*
G36*
X-12790Y-1308D02*
Y-1440D01*
X-12658D01*
X-12662Y-1422D01*
X-12706Y-1356D01*
X-12772Y-1312D01*
X-12790Y-1308D01*
D02*
G37*
G36*
X11925Y-1199D02*
X11448D01*
Y-1440D01*
X11925D01*
Y-1199D01*
D02*
G37*
G36*
X14149D02*
X13672D01*
Y-1440D01*
X14149D01*
Y-1199D01*
D02*
G37*
G36*
X13552D02*
X13075D01*
Y-1440D01*
X13552D01*
Y-1199D01*
D02*
G37*
G36*
X6640Y-2808D02*
X6622Y-2812D01*
X6556Y-2856D01*
X6512Y-2922D01*
X6508Y-2940D01*
X6640D01*
Y-2808D01*
D02*
G37*
G36*
X-660Y-4708D02*
X-678Y-4712D01*
X-744Y-4756D01*
X-788Y-4822D01*
X-792Y-4840D01*
X-660D01*
Y-4708D01*
D02*
G37*
G36*
X-1140D02*
Y-4840D01*
X-1008D01*
X-1012Y-4822D01*
X-1056Y-4756D01*
X-1122Y-4712D01*
X-1140Y-4708D01*
D02*
G37*
G36*
X-540D02*
Y-4840D01*
X-408D01*
X-412Y-4822D01*
X-456Y-4756D01*
X-522Y-4712D01*
X-540Y-4708D01*
D02*
G37*
G36*
X-40D02*
Y-4840D01*
X92D01*
X88Y-4822D01*
X44Y-4756D01*
X-22Y-4712D01*
X-40Y-4708D01*
D02*
G37*
G36*
X-160D02*
X-178Y-4712D01*
X-244Y-4756D01*
X-288Y-4822D01*
X-292Y-4840D01*
X-160D01*
Y-4708D01*
D02*
G37*
G36*
X-2190D02*
Y-4840D01*
X-2058D01*
X-2062Y-4822D01*
X-2106Y-4756D01*
X-2172Y-4712D01*
X-2190Y-4708D01*
D02*
G37*
G36*
X-2310D02*
X-2328Y-4712D01*
X-2394Y-4756D01*
X-2438Y-4822D01*
X-2442Y-4840D01*
X-2310D01*
Y-4708D01*
D02*
G37*
G36*
X-1710D02*
X-1728Y-4712D01*
X-1794Y-4756D01*
X-1838Y-4822D01*
X-1842Y-4840D01*
X-1710D01*
Y-4708D01*
D02*
G37*
G36*
X-1260D02*
X-1278Y-4712D01*
X-1344Y-4756D01*
X-1388Y-4822D01*
X-1392Y-4840D01*
X-1260D01*
Y-4708D01*
D02*
G37*
G36*
X-1590D02*
Y-4840D01*
X-1458D01*
X-1462Y-4822D01*
X-1506Y-4756D01*
X-1572Y-4712D01*
X-1590Y-4708D01*
D02*
G37*
G36*
X2040Y-4610D02*
X1908D01*
X1912Y-4628D01*
X1956Y-4694D01*
X2022Y-4738D01*
X2040Y-4742D01*
Y-4610D01*
D02*
G37*
G36*
X560Y-4308D02*
Y-4440D01*
X692D01*
X688Y-4422D01*
X644Y-4356D01*
X578Y-4312D01*
X560Y-4308D01*
D02*
G37*
G36*
X440D02*
X422Y-4312D01*
X356Y-4356D01*
X312Y-4422D01*
X308Y-4440D01*
X440D01*
Y-4308D01*
D02*
G37*
G36*
X5690Y-4258D02*
X5672Y-4262D01*
X5606Y-4306D01*
X5562Y-4372D01*
X5558Y-4390D01*
X5690D01*
Y-4258D01*
D02*
G37*
G36*
X-1960Y-4110D02*
X-2092D01*
X-2088Y-4128D01*
X-2044Y-4194D01*
X-1978Y-4238D01*
X-1960Y-4242D01*
Y-4110D01*
D02*
G37*
G36*
X5810Y-4258D02*
Y-4390D01*
X5942D01*
X5938Y-4372D01*
X5894Y-4306D01*
X5828Y-4262D01*
X5810Y-4258D01*
D02*
G37*
G36*
X-5060Y-4510D02*
X-5192D01*
X-5188Y-4528D01*
X-5144Y-4594D01*
X-5078Y-4638D01*
X-5060Y-4642D01*
Y-4510D01*
D02*
G37*
G36*
X2292Y-4610D02*
X2160D01*
Y-4742D01*
X2178Y-4738D01*
X2244Y-4694D01*
X2288Y-4628D01*
X2292Y-4610D01*
D02*
G37*
G36*
X5690Y-4510D02*
X5558D01*
X5562Y-4528D01*
X5606Y-4594D01*
X5672Y-4638D01*
X5690Y-4642D01*
Y-4510D01*
D02*
G37*
G36*
X-3035Y-4512D02*
X-3242D01*
Y-4611D01*
X-3035D01*
Y-4512D01*
D02*
G37*
G36*
X5942Y-4510D02*
X5810D01*
Y-4642D01*
X5828Y-4638D01*
X5894Y-4594D01*
X5938Y-4528D01*
X5942Y-4510D01*
D02*
G37*
G36*
X413Y-4960D02*
X294D01*
Y-5118D01*
X413D01*
Y-4960D01*
D02*
G37*
G36*
X2818Y-5037D02*
X2660D01*
Y-5156D01*
X2818D01*
Y-5037D01*
D02*
G37*
G36*
X-2310Y-4960D02*
X-2442D01*
X-2438Y-4978D01*
X-2394Y-5044D01*
X-2328Y-5088D01*
X-2310Y-5092D01*
Y-4960D01*
D02*
G37*
G36*
X-1710D02*
X-1842D01*
X-1838Y-4978D01*
X-1794Y-5044D01*
X-1728Y-5088D01*
X-1710Y-5092D01*
Y-4960D01*
D02*
G37*
G36*
X-2058D02*
X-2190D01*
Y-5092D01*
X-2172Y-5088D01*
X-2106Y-5044D01*
X-2062Y-4978D01*
X-2058Y-4960D01*
D02*
G37*
G36*
X1410Y-5108D02*
Y-5240D01*
X1542D01*
X1538Y-5222D01*
X1494Y-5156D01*
X1428Y-5112D01*
X1410Y-5108D01*
D02*
G37*
G36*
X1290D02*
X1272Y-5112D01*
X1206Y-5156D01*
X1162Y-5222D01*
X1158Y-5240D01*
X1290D01*
Y-5108D01*
D02*
G37*
G36*
X5140Y-5060D02*
X5008D01*
X5012Y-5078D01*
X5056Y-5144D01*
X5122Y-5188D01*
X5140Y-5192D01*
Y-5060D01*
D02*
G37*
G36*
X2540Y-5037D02*
X2382D01*
Y-5156D01*
X2540D01*
Y-5037D01*
D02*
G37*
G36*
X5392Y-5060D02*
X5260D01*
Y-5192D01*
X5278Y-5188D01*
X5344Y-5144D01*
X5388Y-5078D01*
X5392Y-5060D01*
D02*
G37*
G36*
X-1458Y-4960D02*
X-1590D01*
Y-5092D01*
X-1572Y-5088D01*
X-1506Y-5044D01*
X-1462Y-4978D01*
X-1458Y-4960D01*
D02*
G37*
G36*
X3307Y-4966D02*
X3090D01*
Y-5085D01*
X3307D01*
Y-4966D01*
D02*
G37*
G36*
X92Y-4960D02*
X-40D01*
Y-5092D01*
X-22Y-5088D01*
X44Y-5044D01*
X88Y-4978D01*
X92Y-4960D01*
D02*
G37*
G36*
X3644Y-4966D02*
X3427D01*
Y-5085D01*
X3644D01*
Y-4966D01*
D02*
G37*
G36*
X5260Y-4808D02*
Y-4940D01*
X5392D01*
X5388Y-4922D01*
X5344Y-4856D01*
X5278Y-4812D01*
X5260Y-4808D01*
D02*
G37*
G36*
X5140D02*
X5122Y-4812D01*
X5056Y-4856D01*
X5012Y-4922D01*
X5008Y-4940D01*
X5140D01*
Y-4808D01*
D02*
G37*
G36*
X-1008Y-4960D02*
X-1140D01*
Y-5092D01*
X-1122Y-5088D01*
X-1056Y-5044D01*
X-1012Y-4978D01*
X-1008Y-4960D01*
D02*
G37*
G36*
X-1260D02*
X-1392D01*
X-1388Y-4978D01*
X-1344Y-5044D01*
X-1278Y-5088D01*
X-1260Y-5092D01*
Y-4960D01*
D02*
G37*
G36*
X-660D02*
X-792D01*
X-788Y-4978D01*
X-744Y-5044D01*
X-678Y-5088D01*
X-660Y-5092D01*
Y-4960D01*
D02*
G37*
G36*
X-160D02*
X-292D01*
X-288Y-4978D01*
X-244Y-5044D01*
X-178Y-5088D01*
X-160Y-5092D01*
Y-4960D01*
D02*
G37*
G36*
X-408D02*
X-540D01*
Y-5092D01*
X-522Y-5088D01*
X-456Y-5044D01*
X-412Y-4978D01*
X-408Y-4960D01*
D02*
G37*
G36*
X-1708Y-4110D02*
X-1840D01*
Y-4242D01*
X-1822Y-4238D01*
X-1756Y-4194D01*
X-1712Y-4128D01*
X-1708Y-4110D01*
D02*
G37*
G36*
X-844Y-3360D02*
X-963D01*
Y-3518D01*
X-844D01*
Y-3360D01*
D02*
G37*
G36*
X3392Y-3410D02*
X3260D01*
Y-3542D01*
X3278Y-3538D01*
X3344Y-3494D01*
X3388Y-3428D01*
X3392Y-3410D01*
D02*
G37*
G36*
X2312Y-3372D02*
X2034D01*
Y-3434D01*
X1785D01*
Y-3418D01*
X1569D01*
Y-3378D01*
X1460D01*
Y-3587D01*
Y-3795D01*
X1569D01*
Y-3755D01*
X1785D01*
Y-3740D01*
X2136D01*
X2194Y-3728D01*
X2312D01*
Y-3612D01*
X2314Y-3609D01*
X2326Y-3550D01*
X2314Y-3491D01*
X2312Y-3488D01*
Y-3372D01*
D02*
G37*
G36*
X640Y-3160D02*
X508D01*
X512Y-3178D01*
X556Y-3244D01*
X622Y-3288D01*
X640Y-3292D01*
Y-3160D01*
D02*
G37*
G36*
X260Y-3258D02*
Y-3390D01*
X392D01*
X388Y-3372D01*
X344Y-3306D01*
X278Y-3262D01*
X260Y-3258D01*
D02*
G37*
G36*
X6240Y-3558D02*
X6222Y-3562D01*
X6156Y-3606D01*
X6112Y-3672D01*
X6108Y-3690D01*
X6240D01*
Y-3558D01*
D02*
G37*
G36*
X-1444Y-3532D02*
X-1563D01*
Y-3690D01*
X-1444D01*
Y-3532D01*
D02*
G37*
G36*
X6360Y-3558D02*
Y-3690D01*
X6492D01*
X6488Y-3672D01*
X6444Y-3606D01*
X6378Y-3562D01*
X6360Y-3558D01*
D02*
G37*
G36*
X3140Y-3410D02*
X3008D01*
X3012Y-3428D01*
X3056Y-3494D01*
X3122Y-3538D01*
X3140Y-3542D01*
Y-3410D01*
D02*
G37*
G36*
X392Y-3510D02*
X260D01*
Y-3642D01*
X278Y-3638D01*
X344Y-3594D01*
X388Y-3528D01*
X392Y-3510D01*
D02*
G37*
G36*
X892Y-3160D02*
X760D01*
Y-3292D01*
X778Y-3288D01*
X844Y-3244D01*
X888Y-3178D01*
X892Y-3160D01*
D02*
G37*
G36*
X640Y-2908D02*
X622Y-2912D01*
X556Y-2956D01*
X512Y-3022D01*
X508Y-3040D01*
X640D01*
Y-2908D01*
D02*
G37*
G36*
X-5688Y-3022D02*
X-5966D01*
Y-3098D01*
X-6026D01*
X-6035Y-3085D01*
X-6088Y-3049D01*
X-6150Y-3037D01*
X-6212Y-3049D01*
X-6265Y-3085D01*
X-6301Y-3138D01*
X-6313Y-3200D01*
X-6301Y-3262D01*
X-6265Y-3315D01*
X-6212Y-3351D01*
X-6150Y-3363D01*
X-6088Y-3351D01*
X-6035Y-3315D01*
X-6026Y-3302D01*
X-5966D01*
Y-3378D01*
X-5688D01*
Y-3022D01*
D02*
G37*
G36*
X760Y-2908D02*
Y-3040D01*
X892D01*
X888Y-3022D01*
X844Y-2956D01*
X778Y-2912D01*
X760Y-2908D01*
D02*
G37*
G36*
X1713Y-2732D02*
X1594D01*
Y-2941D01*
X1544Y-2956D01*
X1478Y-2912D01*
X1460Y-2908D01*
Y-3100D01*
Y-3292D01*
X1478Y-3288D01*
X1544Y-3244D01*
X1588Y-3178D01*
X1589Y-3176D01*
X1594Y-3168D01*
X1713D01*
Y-2950D01*
Y-2732D01*
D02*
G37*
G36*
X1340Y-2908D02*
X1322Y-2912D01*
X1256Y-2956D01*
X1212Y-3022D01*
X1208Y-3040D01*
X1340D01*
Y-2908D01*
D02*
G37*
G36*
X3418Y-3137D02*
X2982D01*
Y-3256D01*
X2982Y-3256D01*
X2982D01*
X2998Y-3290D01*
X3402D01*
X3418Y-3256D01*
X3418D01*
X3418Y-3256D01*
Y-3137D01*
D02*
G37*
G36*
X1340Y-3160D02*
X1208D01*
X1212Y-3178D01*
X1256Y-3244D01*
X1322Y-3288D01*
X1340Y-3292D01*
Y-3160D01*
D02*
G37*
G36*
X-844Y-3082D02*
X-963D01*
Y-3240D01*
X-844D01*
Y-3082D01*
D02*
G37*
G36*
X6892Y-3060D02*
X6760D01*
Y-3192D01*
X6778Y-3188D01*
X6844Y-3144D01*
X6888Y-3078D01*
X6892Y-3060D01*
D02*
G37*
G36*
X6640D02*
X6508D01*
X6512Y-3078D01*
X6556Y-3144D01*
X6622Y-3188D01*
X6640Y-3192D01*
Y-3060D01*
D02*
G37*
G36*
X6240Y-3810D02*
X6108D01*
X6112Y-3828D01*
X6156Y-3894D01*
X6222Y-3938D01*
X6240Y-3942D01*
Y-3810D01*
D02*
G37*
G36*
X-98Y-4000D02*
X-230D01*
Y-4132D01*
X-212Y-4128D01*
X-146Y-4084D01*
X-102Y-4018D01*
X-98Y-4000D01*
D02*
G37*
G36*
X6492Y-3810D02*
X6360D01*
Y-3942D01*
X6378Y-3938D01*
X6444Y-3894D01*
X6488Y-3828D01*
X6492Y-3810D01*
D02*
G37*
G36*
X-810Y-3808D02*
X-828Y-3812D01*
X-894Y-3856D01*
X-938Y-3922D01*
X-942Y-3940D01*
X-810D01*
Y-3808D01*
D02*
G37*
G36*
X-1190D02*
Y-3940D01*
X-1058D01*
X-1062Y-3922D01*
X-1106Y-3856D01*
X-1172Y-3812D01*
X-1190Y-3808D01*
D02*
G37*
G36*
X-810Y-4060D02*
X-942D01*
X-938Y-4078D01*
X-894Y-4144D01*
X-828Y-4188D01*
X-810Y-4192D01*
Y-4060D01*
D02*
G37*
G36*
X-1058D02*
X-1190D01*
Y-4192D01*
X-1172Y-4188D01*
X-1106Y-4144D01*
X-1062Y-4078D01*
X-1058Y-4060D01*
D02*
G37*
G36*
X-558D02*
X-690D01*
Y-4192D01*
X-672Y-4188D01*
X-606Y-4144D01*
X-562Y-4078D01*
X-558Y-4060D01*
D02*
G37*
G36*
X-350Y-4000D02*
X-482D01*
X-478Y-4018D01*
X-434Y-4084D01*
X-368Y-4128D01*
X-350Y-4132D01*
Y-4000D01*
D02*
G37*
G36*
X840Y-4060D02*
X708D01*
X712Y-4078D01*
X756Y-4144D01*
X822Y-4188D01*
X840Y-4192D01*
Y-4060D01*
D02*
G37*
G36*
X-690Y-3808D02*
Y-3940D01*
X-558D01*
X-562Y-3922D01*
X-606Y-3856D01*
X-672Y-3812D01*
X-690Y-3808D01*
D02*
G37*
G36*
X-1310D02*
X-1328Y-3812D01*
X-1394Y-3856D01*
X-1444Y-3841D01*
Y-3810D01*
X-1563D01*
Y-3968D01*
X-1480D01*
X-1454Y-4000D01*
X-1438Y-4078D01*
X-1394Y-4144D01*
X-1328Y-4188D01*
X-1310Y-4192D01*
Y-4000D01*
Y-3808D01*
D02*
G37*
G36*
X-230Y-3748D02*
Y-3880D01*
X-98D01*
X-102Y-3862D01*
X-146Y-3796D01*
X-212Y-3752D01*
X-230Y-3748D01*
D02*
G37*
G36*
X2890Y-3708D02*
X2872Y-3712D01*
X2806Y-3756D01*
X2762Y-3822D01*
X2758Y-3840D01*
X2890D01*
Y-3708D01*
D02*
G37*
G36*
X1340Y-3378D02*
X1231D01*
Y-3418D01*
X1015D01*
Y-3434D01*
X663D01*
X605Y-3445D01*
X555Y-3478D01*
X-263Y-4297D01*
X-934D01*
Y-4272D01*
X-1212D01*
Y-4388D01*
X-1214Y-4391D01*
X-1226Y-4450D01*
X-1214Y-4509D01*
X-1212Y-4512D01*
Y-4628D01*
X-934D01*
Y-4603D01*
X-200D01*
X-141Y-4591D01*
X-92Y-4558D01*
X727Y-3740D01*
X1015D01*
Y-3755D01*
X1231D01*
Y-3795D01*
X1340D01*
Y-3587D01*
Y-3378D01*
D02*
G37*
G36*
X3010Y-3708D02*
Y-3840D01*
X3142D01*
X3138Y-3822D01*
X3094Y-3756D01*
X3028Y-3712D01*
X3010Y-3708D01*
D02*
G37*
G36*
X960Y-3808D02*
Y-3940D01*
X1092D01*
X1088Y-3922D01*
X1044Y-3856D01*
X978Y-3812D01*
X960Y-3808D01*
D02*
G37*
G36*
X840D02*
X822Y-3812D01*
X756Y-3856D01*
X712Y-3922D01*
X708Y-3940D01*
X840D01*
Y-3808D01*
D02*
G37*
G36*
X2040D02*
X2022Y-3812D01*
X1956Y-3856D01*
X1912Y-3922D01*
X1908Y-3940D01*
X2040D01*
Y-3808D01*
D02*
G37*
G36*
X-350Y-3748D02*
X-368Y-3752D01*
X-434Y-3796D01*
X-478Y-3862D01*
X-482Y-3880D01*
X-350D01*
Y-3748D01*
D02*
G37*
G36*
X2160Y-3808D02*
Y-3940D01*
X2292D01*
X2288Y-3922D01*
X2244Y-3856D01*
X2178Y-3812D01*
X2160Y-3808D01*
D02*
G37*
G36*
X14149Y440D02*
X13672D01*
Y199D01*
X14149D01*
Y440D01*
D02*
G37*
G36*
X-1558Y4790D02*
X-1690D01*
Y4658D01*
X-1672Y4662D01*
X-1606Y4706D01*
X-1562Y4772D01*
X-1558Y4790D01*
D02*
G37*
G36*
X2605Y4830D02*
X2467D01*
Y4613D01*
X2605D01*
Y4830D01*
D02*
G37*
G36*
X3890Y5040D02*
X3758D01*
X3762Y5022D01*
X3806Y4956D01*
X3872Y4912D01*
X3890Y4908D01*
Y5040D01*
D02*
G37*
G36*
X4390D02*
X4258D01*
X4262Y5022D01*
X4306Y4956D01*
X4372Y4912D01*
X4390Y4908D01*
Y5040D01*
D02*
G37*
G36*
X4142D02*
X4010D01*
Y4908D01*
X4028Y4912D01*
X4094Y4956D01*
X4138Y5022D01*
X4142Y5040D01*
D02*
G37*
G36*
X-3700Y5741D02*
X-4685D01*
Y4520D01*
X-3700D01*
Y5741D01*
D02*
G37*
G36*
X-220Y4442D02*
Y4250D01*
X-28D01*
X-29Y4257D01*
X-55Y4320D01*
X-96Y4374D01*
X-150Y4415D01*
X-213Y4441D01*
X-220Y4442D01*
D02*
G37*
G36*
X983Y4730D02*
X864D01*
Y4572D01*
X983D01*
Y4730D01*
D02*
G37*
G36*
X2015Y4830D02*
X1876D01*
Y4613D01*
X2015D01*
Y4830D01*
D02*
G37*
G36*
X670Y5374D02*
X600Y5360D01*
X540Y5320D01*
X522Y5292D01*
X-953D01*
X-992Y5284D01*
X-1025Y5262D01*
X-1336Y4951D01*
X-1358Y4918D01*
X-1366Y4879D01*
Y3401D01*
X-1387Y3387D01*
X-1429Y3324D01*
X-1442Y3319D01*
X-1472Y3338D01*
X-1490Y3342D01*
Y3150D01*
Y2958D01*
X-1472Y2962D01*
X-1406Y3006D01*
X-1402Y3012D01*
X-1352Y2996D01*
Y1700D01*
X-1344Y1661D01*
X-1322Y1628D01*
X-852Y1158D01*
Y954D01*
X-902Y938D01*
X-906Y944D01*
X-972Y988D01*
X-990Y992D01*
Y800D01*
Y608D01*
X-972Y612D01*
X-935Y637D01*
X-932Y637D01*
X-878Y615D01*
X-875Y601D01*
X-901Y562D01*
X-913Y500D01*
X-901Y438D01*
X-865Y385D01*
X-812Y349D01*
X-750Y337D01*
X-688Y349D01*
X-685Y351D01*
X-649Y315D01*
X-651Y312D01*
X-663Y250D01*
X-651Y188D01*
X-615Y135D01*
X-562Y99D01*
X-500Y87D01*
X-438Y99D01*
X-385Y135D01*
X-349Y188D01*
X-337Y250D01*
X-349Y312D01*
X-385Y365D01*
X-398Y374D01*
Y2023D01*
X-297Y2124D01*
X-251Y2105D01*
Y1662D01*
X-136D01*
X-122Y1630D01*
X-118Y1612D01*
X-151Y1562D01*
X-163Y1500D01*
X-151Y1438D01*
X-115Y1385D01*
X-62Y1349D01*
X0Y1337D01*
X62Y1349D01*
X115Y1385D01*
X151Y1438D01*
X163Y1500D01*
X151Y1562D01*
X118Y1612D01*
X122Y1630D01*
X136Y1662D01*
X184D01*
Y1977D01*
Y2292D01*
Y2723D01*
X234Y2738D01*
X256Y2706D01*
X322Y2662D01*
X340Y2658D01*
Y2850D01*
Y3104D01*
X292Y3152D01*
X259Y3174D01*
X224Y3181D01*
Y3278D01*
X27D01*
Y3080D01*
X-33D01*
Y3020D01*
X-291D01*
Y2882D01*
X-251D01*
Y2774D01*
X-899Y2125D01*
X-938Y2151D01*
X-1000Y2163D01*
X-1062Y2151D01*
X-1098Y2127D01*
X-1148Y2150D01*
Y3090D01*
X-1113Y3113D01*
X-1071Y3176D01*
X-1056Y3250D01*
X-1071Y3324D01*
X-1113Y3387D01*
X-1162Y3420D01*
Y4837D01*
X-911Y5088D01*
X522D01*
X540Y5060D01*
X600Y5020D01*
X670Y5006D01*
X740Y5020D01*
X800Y5060D01*
X818Y5088D01*
X869D01*
X881Y5076D01*
X875Y5015D01*
X864Y5008D01*
X864Y4988D01*
X864Y4988D01*
Y4850D01*
X1043D01*
Y4790D01*
X1103D01*
Y4572D01*
X1222D01*
Y4580D01*
X1258Y4612D01*
X1272Y4612D01*
X1536D01*
Y4968D01*
X1536D01*
Y5012D01*
X1536D01*
Y5368D01*
X1258D01*
Y5040D01*
X1223Y5009D01*
X1222Y5009D01*
X1182Y5039D01*
Y5368D01*
X904D01*
Y5292D01*
X818D01*
X800Y5320D01*
X740Y5360D01*
X670Y5374D01*
D02*
G37*
G36*
X2015Y5167D02*
X1876D01*
Y4950D01*
X2015D01*
Y5167D01*
D02*
G37*
G36*
X-1690Y5042D02*
Y4910D01*
X-1558D01*
X-1562Y4928D01*
X-1606Y4994D01*
X-1672Y5038D01*
X-1690Y5042D01*
D02*
G37*
G36*
X2605Y5167D02*
X2467D01*
Y4950D01*
X2605D01*
Y5167D01*
D02*
G37*
G36*
X4010Y5292D02*
Y5160D01*
X4142D01*
X4138Y5178D01*
X4094Y5244D01*
X4028Y5288D01*
X4010Y5292D01*
D02*
G37*
G36*
X3890D02*
X3872Y5288D01*
X3806Y5244D01*
X3762Y5178D01*
X3758Y5160D01*
X3890D01*
Y5292D01*
D02*
G37*
G36*
X4890Y5040D02*
X4758D01*
X4762Y5022D01*
X4806Y4956D01*
X4872Y4912D01*
X4890Y4908D01*
Y5040D01*
D02*
G37*
G36*
X4642D02*
X4510D01*
Y4908D01*
X4528Y4912D01*
X4594Y4956D01*
X4638Y5022D01*
X4642Y5040D01*
D02*
G37*
G36*
X5142D02*
X5010D01*
Y4908D01*
X5028Y4912D01*
X5094Y4956D01*
X5138Y5022D01*
X5142Y5040D01*
D02*
G37*
G36*
X5642D02*
X5510D01*
Y4908D01*
X5528Y4912D01*
X5594Y4956D01*
X5638Y5022D01*
X5642Y5040D01*
D02*
G37*
G36*
X5390D02*
X5258D01*
X5262Y5022D01*
X5306Y4956D01*
X5372Y4912D01*
X5390Y4908D01*
Y5040D01*
D02*
G37*
G36*
X6264Y3780D02*
X6125D01*
Y3563D01*
X6264D01*
Y3780D01*
D02*
G37*
G36*
X6005D02*
X5867D01*
Y3563D01*
X6005D01*
Y3780D01*
D02*
G37*
G36*
X3749Y3836D02*
X3720D01*
X3662Y3824D01*
X3613Y3791D01*
X3581Y3744D01*
X3749D01*
Y3836D01*
D02*
G37*
G36*
X2310Y3942D02*
Y3810D01*
X2442D01*
X2438Y3828D01*
X2394Y3894D01*
X2328Y3938D01*
X2324Y3939D01*
X2320Y3940D01*
X2310Y3942D01*
D02*
G37*
G36*
X2190D02*
X2180Y3940D01*
X2172Y3938D01*
X2106Y3894D01*
X2062Y3828D01*
X2058Y3810D01*
X2190D01*
Y3942D01*
D02*
G37*
G36*
X2690Y3690D02*
X2558D01*
X2562Y3672D01*
X2606Y3606D01*
X2672Y3562D01*
X2690Y3558D01*
Y3690D01*
D02*
G37*
G36*
X2442D02*
X2310D01*
Y3558D01*
X2328Y3562D01*
X2394Y3606D01*
X2438Y3672D01*
X2442Y3690D01*
D02*
G37*
G36*
X2942D02*
X2810D01*
Y3558D01*
X2828Y3562D01*
X2894Y3606D01*
X2938Y3672D01*
X2942Y3690D01*
D02*
G37*
G36*
X3442D02*
X3310D01*
Y3558D01*
X3328Y3562D01*
X3394Y3606D01*
X3438Y3672D01*
X3442Y3690D01*
D02*
G37*
G36*
X3190D02*
X3058D01*
X3062Y3672D01*
X3106Y3606D01*
X3172Y3562D01*
X3190Y3558D01*
Y3690D01*
D02*
G37*
G36*
X6264Y4117D02*
X6125D01*
Y3900D01*
X6264D01*
Y4117D01*
D02*
G37*
G36*
X6005D02*
X5867D01*
Y3900D01*
X6005D01*
Y4117D01*
D02*
G37*
G36*
X-340Y4130D02*
X-532D01*
X-531Y4123D01*
X-505Y4060D01*
X-464Y4006D01*
X-410Y3965D01*
X-347Y3939D01*
X-340Y3938D01*
Y4130D01*
D02*
G37*
G36*
Y4442D02*
X-347Y4441D01*
X-410Y4415D01*
X-464Y4374D01*
X-505Y4320D01*
X-531Y4257D01*
X-532Y4250D01*
X-340D01*
Y4442D01*
D02*
G37*
G36*
X-28Y4130D02*
X-220D01*
Y3938D01*
X-213Y3939D01*
X-150Y3965D01*
X-96Y4006D01*
X-55Y4060D01*
X-29Y4123D01*
X-28Y4130D01*
D02*
G37*
G36*
X2810Y3942D02*
Y3810D01*
X2942D01*
X2938Y3828D01*
X2894Y3894D01*
X2828Y3938D01*
X2824Y3939D01*
X2820Y3940D01*
X2810Y3942D01*
D02*
G37*
G36*
X2690D02*
X2680Y3940D01*
X2672Y3938D01*
X2606Y3894D01*
X2562Y3828D01*
X2558Y3810D01*
X2690D01*
Y3942D01*
D02*
G37*
G36*
X3190D02*
X3180Y3940D01*
X3172Y3938D01*
X3106Y3894D01*
X3062Y3828D01*
X3058Y3810D01*
X3190D01*
Y3942D01*
D02*
G37*
G36*
X5415Y4117D02*
X5276D01*
Y3900D01*
X5415D01*
Y4117D01*
D02*
G37*
G36*
X3310Y3942D02*
Y3810D01*
X3442D01*
X3438Y3828D01*
X3394Y3894D01*
X3328Y3938D01*
X3324Y3939D01*
X3320Y3940D01*
X3310Y3942D01*
D02*
G37*
G36*
X-875Y6246D02*
X-1230D01*
Y5930D01*
X-875D01*
Y6246D01*
D02*
G37*
G36*
X-1350D02*
X-1705D01*
Y5930D01*
X-1350D01*
Y6246D01*
D02*
G37*
G36*
X1645D02*
X1290D01*
Y5930D01*
X1645D01*
Y6246D01*
D02*
G37*
G36*
X4010Y6192D02*
Y6060D01*
X4142D01*
X4138Y6078D01*
X4094Y6144D01*
X4028Y6188D01*
X4010Y6192D01*
D02*
G37*
G36*
X3890D02*
X3872Y6188D01*
X3806Y6144D01*
X3762Y6078D01*
X3758Y6060D01*
X3890D01*
Y6192D01*
D02*
G37*
G36*
X4642Y5940D02*
X4510D01*
Y5808D01*
X4528Y5812D01*
X4594Y5856D01*
X4638Y5922D01*
X4642Y5940D01*
D02*
G37*
G36*
X4142D02*
X4010D01*
Y5808D01*
X4028Y5812D01*
X4094Y5856D01*
X4138Y5922D01*
X4142Y5940D01*
D02*
G37*
G36*
X3890D02*
X3758D01*
X3762Y5922D01*
X3806Y5856D01*
X3872Y5812D01*
X3890Y5808D01*
Y5940D01*
D02*
G37*
G36*
X-602Y6177D02*
X-721D01*
Y5871D01*
X-602D01*
Y6177D01*
D02*
G37*
G36*
X4390Y5940D02*
X4258D01*
X4262Y5922D01*
X4306Y5856D01*
X4372Y5812D01*
X4390Y5808D01*
Y5940D01*
D02*
G37*
G36*
X916Y7705D02*
X502D01*
Y7290D01*
X382D01*
Y7705D01*
X-442D01*
Y7290D01*
Y6875D01*
X-242D01*
X-216Y6825D01*
X-231Y6802D01*
X-243Y6740D01*
X-231Y6678D01*
X-195Y6625D01*
X-177Y6613D01*
X-192Y6563D01*
X-363D01*
Y6603D01*
X-482D01*
Y6237D01*
Y5871D01*
X-363D01*
Y5911D01*
X316D01*
X322Y5901D01*
X321Y5899D01*
X292Y5848D01*
X258Y5841D01*
X205Y5805D01*
X169Y5752D01*
X157Y5690D01*
X169Y5628D01*
X205Y5575D01*
X258Y5539D01*
X320Y5527D01*
X382Y5539D01*
X435Y5575D01*
X471Y5628D01*
X473Y5641D01*
X509Y5667D01*
X530Y5670D01*
X543Y5657D01*
X550Y5620D01*
X590Y5560D01*
X650Y5520D01*
X720Y5506D01*
X790Y5520D01*
X850Y5560D01*
X890Y5620D01*
X904Y5690D01*
X890Y5760D01*
X850Y5820D01*
X824Y5837D01*
X829Y5894D01*
X831Y5894D01*
X866Y5929D01*
X866Y5930D01*
X1170D01*
Y6306D01*
X1230D01*
Y6366D01*
X1645D01*
Y6575D01*
X2105D01*
X2105Y6090D01*
X2124Y6044D01*
X2170Y6025D01*
X2544Y6025D01*
X2594Y5987D01*
Y5950D01*
X3346D01*
Y6048D01*
X3364Y6058D01*
X3395Y6069D01*
X3396Y6069D01*
X3400Y6065D01*
X3419D01*
X3437Y6061D01*
X3443Y6065D01*
X3450D01*
X3465Y6071D01*
X3474Y6080D01*
X3486Y6085D01*
X3491Y6097D01*
X3500Y6106D01*
Y6119D01*
X3505Y6131D01*
Y6585D01*
X3486Y6631D01*
X3454Y6663D01*
Y6850D01*
X3057D01*
Y6729D01*
X3045Y6724D01*
X2995Y6758D01*
X2995Y6974D01*
X2993Y6980D01*
X2994Y6986D01*
X2983Y7002D01*
X2976Y7020D01*
X2970Y7023D01*
X2967Y7027D01*
X2919Y7062D01*
X2912Y7063D01*
X2906Y7068D01*
X2888Y7068D01*
X2870Y7072D01*
X2845Y7082D01*
X2823Y7109D01*
Y7147D01*
X2506D01*
Y7122D01*
X2456Y7094D01*
X2431Y7105D01*
X1637Y7105D01*
X1610Y7147D01*
X1624Y7182D01*
X1631Y7230D01*
X1220D01*
Y7290D01*
X1160D01*
Y7701D01*
X1112Y7694D01*
X1011Y7652D01*
X966Y7618D01*
X916Y7643D01*
Y7705D01*
D02*
G37*
G36*
X-1340Y7230D02*
X-1691D01*
X-1684Y7182D01*
X-1642Y7081D01*
X-1576Y6994D01*
X-1489Y6928D01*
X-1388Y6886D01*
X-1340Y6879D01*
Y7230D01*
D02*
G37*
G36*
Y7701D02*
X-1388Y7694D01*
X-1489Y7652D01*
X-1576Y7586D01*
X-1642Y7499D01*
X-1684Y7398D01*
X-1691Y7350D01*
X-1340D01*
Y7701D01*
D02*
G37*
G36*
X-562Y7705D02*
X-976D01*
Y7643D01*
X-1026Y7618D01*
X-1071Y7652D01*
X-1172Y7694D01*
X-1220Y7701D01*
Y7290D01*
Y6879D01*
X-1172Y6886D01*
X-1071Y6928D01*
X-1026Y6962D01*
X-976Y6937D01*
Y6875D01*
X-562D01*
Y7290D01*
Y7705D01*
D02*
G37*
G36*
X1280Y7701D02*
Y7350D01*
X1631D01*
X1624Y7398D01*
X1582Y7499D01*
X1516Y7586D01*
X1429Y7652D01*
X1328Y7694D01*
X1280Y7701D01*
D02*
G37*
G36*
X4510Y6192D02*
Y6060D01*
X4642D01*
X4638Y6078D01*
X4594Y6144D01*
X4528Y6188D01*
X4510Y6192D01*
D02*
G37*
G36*
X4390D02*
X4372Y6188D01*
X4306Y6144D01*
X4262Y6078D01*
X4258Y6060D01*
X4390D01*
Y6192D01*
D02*
G37*
G36*
X-602Y6603D02*
X-721D01*
Y6297D01*
X-602D01*
Y6603D01*
D02*
G37*
G36*
X-875Y6681D02*
X-1230D01*
Y6366D01*
X-875D01*
Y6681D01*
D02*
G37*
G36*
X-1350D02*
X-1705D01*
Y6366D01*
X-1350D01*
Y6681D01*
D02*
G37*
G36*
X2654Y5426D02*
X2565D01*
Y5258D01*
X2654D01*
Y5426D01*
D02*
G37*
G36*
X5510Y5292D02*
Y5160D01*
X5642D01*
X5638Y5178D01*
X5594Y5244D01*
X5528Y5288D01*
X5510Y5292D01*
D02*
G37*
G36*
X4142Y5490D02*
X4010D01*
Y5358D01*
X4028Y5362D01*
X4094Y5406D01*
X4138Y5472D01*
X4142Y5490D01*
D02*
G37*
G36*
X5142D02*
X5010D01*
Y5358D01*
X5028Y5362D01*
X5094Y5406D01*
X5138Y5472D01*
X5142Y5490D01*
D02*
G37*
G36*
X4642D02*
X4510D01*
Y5358D01*
X4528Y5362D01*
X4594Y5406D01*
X4638Y5472D01*
X4642Y5490D01*
D02*
G37*
G36*
X4510Y5292D02*
Y5160D01*
X4642D01*
X4638Y5178D01*
X4594Y5244D01*
X4528Y5288D01*
X4510Y5292D01*
D02*
G37*
G36*
X4390D02*
X4372Y5288D01*
X4306Y5244D01*
X4262Y5178D01*
X4258Y5160D01*
X4390D01*
Y5292D01*
D02*
G37*
G36*
X4890D02*
X4872Y5288D01*
X4806Y5244D01*
X4762Y5178D01*
X4758Y5160D01*
X4890D01*
Y5292D01*
D02*
G37*
G36*
X5390D02*
X5372Y5288D01*
X5306Y5244D01*
X5262Y5178D01*
X5258Y5160D01*
X5390D01*
Y5292D01*
D02*
G37*
G36*
X5010D02*
Y5160D01*
X5142D01*
X5138Y5178D01*
X5094Y5244D01*
X5028Y5288D01*
X5010Y5292D01*
D02*
G37*
G36*
X4390Y5742D02*
X4372Y5738D01*
X4306Y5694D01*
X4262Y5628D01*
X4258Y5610D01*
X4390D01*
Y5742D01*
D02*
G37*
G36*
X4010D02*
Y5610D01*
X4142D01*
X4138Y5628D01*
X4094Y5694D01*
X4028Y5738D01*
X4010Y5742D01*
D02*
G37*
G36*
X4510D02*
Y5610D01*
X4642D01*
X4638Y5628D01*
X4594Y5694D01*
X4528Y5738D01*
X4510Y5742D01*
D02*
G37*
G36*
X5010D02*
Y5610D01*
X5142D01*
X5138Y5628D01*
X5094Y5694D01*
X5028Y5738D01*
X5010Y5742D01*
D02*
G37*
G36*
X4890D02*
X4872Y5738D01*
X4806Y5694D01*
X4762Y5628D01*
X4758Y5610D01*
X4890D01*
Y5742D01*
D02*
G37*
G36*
X4390Y5490D02*
X4258D01*
X4262Y5472D01*
X4306Y5406D01*
X4372Y5362D01*
X4390Y5358D01*
Y5490D01*
D02*
G37*
G36*
X3890D02*
X3758D01*
X3762Y5472D01*
X3806Y5406D01*
X3872Y5362D01*
X3890Y5358D01*
Y5490D01*
D02*
G37*
G36*
X4890D02*
X4758D01*
X4762Y5472D01*
X4806Y5406D01*
X4872Y5362D01*
X4890Y5358D01*
Y5490D01*
D02*
G37*
G36*
X3890Y5742D02*
X3872Y5738D01*
X3806Y5694D01*
X3762Y5628D01*
X3758Y5610D01*
X3890D01*
Y5742D01*
D02*
G37*
G36*
X-130Y5853D02*
X-192Y5841D01*
X-245Y5805D01*
X-281Y5752D01*
X-293Y5690D01*
X-281Y5628D01*
X-245Y5575D01*
X-192Y5539D01*
X-130Y5527D01*
X-68Y5539D01*
X-15Y5575D01*
X21Y5628D01*
X33Y5690D01*
X21Y5752D01*
X-15Y5805D01*
X-68Y5841D01*
X-130Y5853D01*
D02*
G37*
G36*
X-12460Y2140D02*
X-12592D01*
X-12588Y2122D01*
X-12544Y2056D01*
X-12478Y2012D01*
X-12460Y2008D01*
Y2140D01*
D02*
G37*
G36*
X-13208D02*
X-13340D01*
Y2008D01*
X-13322Y2012D01*
X-13256Y2056D01*
X-13212Y2122D01*
X-13208Y2140D01*
D02*
G37*
G36*
X-11460D02*
X-11592D01*
X-11588Y2122D01*
X-11544Y2056D01*
X-11478Y2012D01*
X-11460Y2008D01*
Y2140D01*
D02*
G37*
G36*
X-12208D02*
X-12340D01*
Y2008D01*
X-12322Y2012D01*
X-12256Y2056D01*
X-12212Y2122D01*
X-12208Y2140D01*
D02*
G37*
G36*
X-14460D02*
X-14592D01*
X-14588Y2122D01*
X-14544Y2056D01*
X-14478Y2012D01*
X-14460Y2008D01*
Y2140D01*
D02*
G37*
G36*
X-10851Y1801D02*
X-11328D01*
Y1560D01*
X-10851D01*
Y1801D01*
D02*
G37*
G36*
X-13460Y2140D02*
X-13592D01*
X-13588Y2122D01*
X-13544Y2056D01*
X-13478Y2012D01*
X-13460Y2008D01*
Y2140D01*
D02*
G37*
G36*
X-14208D02*
X-14340D01*
Y2008D01*
X-14322Y2012D01*
X-14256Y2056D01*
X-14212Y2122D01*
X-14208Y2140D01*
D02*
G37*
G36*
X5410Y2235D02*
X5193D01*
Y2096D01*
X5410D01*
Y2235D01*
D02*
G37*
G36*
X3497Y2185D02*
X3280D01*
Y2046D01*
X3497D01*
Y2185D01*
D02*
G37*
G36*
X-14460Y2392D02*
X-14478Y2388D01*
X-14544Y2344D01*
X-14588Y2278D01*
X-14592Y2260D01*
X-14460D01*
Y2392D01*
D02*
G37*
G36*
X5747Y2235D02*
X5530D01*
Y2096D01*
X5747D01*
Y2235D01*
D02*
G37*
G36*
X-10460Y2140D02*
X-10592D01*
X-10588Y2122D01*
X-10544Y2056D01*
X-10478Y2012D01*
X-10460Y2008D01*
Y2140D01*
D02*
G37*
G36*
X-11208D02*
X-11340D01*
Y2008D01*
X-11322Y2012D01*
X-11256Y2056D01*
X-11212Y2122D01*
X-11208Y2140D01*
D02*
G37*
G36*
X3160Y2185D02*
X2943D01*
Y2046D01*
X3160D01*
Y2185D01*
D02*
G37*
G36*
X-10208Y2140D02*
X-10340D01*
Y2008D01*
X-10322Y2012D01*
X-10256Y2056D01*
X-10212Y2122D01*
X-10208Y2140D01*
D02*
G37*
G36*
X1190Y1006D02*
X1032D01*
Y887D01*
X1190D01*
Y1006D01*
D02*
G37*
G36*
X-4672Y1332D02*
X-5028D01*
Y1054D01*
X-4952D01*
Y989D01*
X-5025D01*
Y712D01*
X-4668D01*
Y989D01*
X-4748D01*
Y1054D01*
X-4672D01*
Y1332D01*
D02*
G37*
G36*
X-15300Y1513D02*
X-15362Y1501D01*
X-15415Y1465D01*
X-15451Y1412D01*
X-15463Y1350D01*
X-15451Y1288D01*
X-15415Y1235D01*
X-15362Y1199D01*
X-15300Y1187D01*
X-15238Y1199D01*
X-15185Y1235D01*
X-15149Y1288D01*
X-15137Y1350D01*
X-15149Y1412D01*
X-15185Y1465D01*
X-15238Y1501D01*
X-15300Y1513D01*
D02*
G37*
G36*
X1468Y1006D02*
X1310D01*
Y887D01*
X1468D01*
Y1006D01*
D02*
G37*
G36*
X14217Y1965D02*
X10750D01*
X10704Y1946D01*
X10685Y1900D01*
Y850D01*
X10704Y804D01*
X10750Y785D01*
X10851D01*
Y560D01*
X11925D01*
Y785D01*
X12225D01*
X12246Y793D01*
X12250Y795D01*
X12254Y793D01*
X12275Y785D01*
X12775D01*
X12796Y793D01*
X12800Y795D01*
X12804Y793D01*
X12825Y785D01*
X13075D01*
Y560D01*
X14149D01*
Y785D01*
X14217D01*
X14263Y804D01*
X14282Y850D01*
Y1900D01*
X14263Y1946D01*
X14217Y1965D01*
D02*
G37*
G36*
X4006Y718D02*
X3887D01*
Y560D01*
X4006D01*
Y718D01*
D02*
G37*
G36*
X-15300Y1013D02*
X-15362Y1001D01*
X-15415Y965D01*
X-15451Y912D01*
X-15463Y850D01*
X-15451Y788D01*
X-15415Y735D01*
X-15362Y699D01*
X-15300Y687D01*
X-15238Y699D01*
X-15185Y735D01*
X-15149Y788D01*
X-15137Y850D01*
X-15149Y912D01*
X-15185Y965D01*
X-15238Y1001D01*
X-15300Y1013D01*
D02*
G37*
G36*
X-1164Y1041D02*
X-1283D01*
Y823D01*
Y605D01*
X-1164D01*
X-1164Y605D01*
X-1114Y609D01*
X-1110Y608D01*
Y800D01*
Y992D01*
X-1114Y991D01*
X-1164Y1020D01*
Y1041D01*
D02*
G37*
G36*
X-13672Y1801D02*
X-14149D01*
Y1560D01*
X-13672D01*
Y1801D01*
D02*
G37*
G36*
X-11448Y1440D02*
X-11925D01*
Y1199D01*
X-11448D01*
Y1440D01*
D02*
G37*
G36*
Y1801D02*
X-11925D01*
Y1560D01*
X-11448D01*
Y1801D01*
D02*
G37*
G36*
X-13075D02*
X-13552D01*
Y1560D01*
X-13075D01*
Y1801D01*
D02*
G37*
G36*
X-14400Y1513D02*
X-14462Y1501D01*
X-14515Y1465D01*
X-14551Y1412D01*
X-14563Y1350D01*
X-14551Y1288D01*
X-14515Y1235D01*
X-14462Y1199D01*
X-14400Y1187D01*
X-14338Y1199D01*
X-14285Y1235D01*
X-14249Y1288D01*
X-14237Y1350D01*
X-14249Y1412D01*
X-14285Y1465D01*
X-14338Y1501D01*
X-14400Y1513D01*
D02*
G37*
G36*
X-14850D02*
X-14912Y1501D01*
X-14965Y1465D01*
X-15001Y1412D01*
X-15013Y1350D01*
X-15001Y1288D01*
X-14965Y1235D01*
X-14912Y1199D01*
X-14850Y1187D01*
X-14788Y1199D01*
X-14735Y1235D01*
X-14699Y1288D01*
X-14687Y1350D01*
X-14699Y1412D01*
X-14735Y1465D01*
X-14788Y1501D01*
X-14850Y1513D01*
D02*
G37*
G36*
X-13075Y1440D02*
X-13552D01*
Y1199D01*
X-13075D01*
Y1440D01*
D02*
G37*
G36*
X-13672D02*
X-14149D01*
Y1199D01*
X-13672D01*
Y1440D01*
D02*
G37*
G36*
X-14340Y2392D02*
Y2260D01*
X-14208D01*
X-14212Y2278D01*
X-14256Y2344D01*
X-14322Y2388D01*
X-14340Y2392D01*
D02*
G37*
G36*
X2690Y3190D02*
X2558D01*
X2562Y3172D01*
X2606Y3106D01*
X2672Y3062D01*
X2690Y3058D01*
Y3190D01*
D02*
G37*
G36*
X2442D02*
X2310D01*
Y3058D01*
X2328Y3062D01*
X2394Y3106D01*
X2438Y3172D01*
X2442Y3190D01*
D02*
G37*
G36*
X-93Y3278D02*
X-291D01*
Y3140D01*
X-93D01*
Y3278D01*
D02*
G37*
G36*
X2942Y3190D02*
X2810D01*
Y3058D01*
X2828Y3062D01*
X2894Y3106D01*
X2938Y3172D01*
X2942Y3190D01*
D02*
G37*
G36*
X-1610Y3090D02*
X-1742D01*
X-1738Y3072D01*
X-1694Y3006D01*
X-1628Y2962D01*
X-1610Y2958D01*
Y3090D01*
D02*
G37*
G36*
X3497Y3034D02*
X3280D01*
Y2895D01*
X3497D01*
Y3034D01*
D02*
G37*
G36*
X2190Y3190D02*
X2058D01*
X2062Y3172D01*
X2106Y3106D01*
X2172Y3062D01*
X2190Y3058D01*
Y3190D01*
D02*
G37*
G36*
X1692D02*
X1560D01*
Y3058D01*
X1578Y3062D01*
X1644Y3106D01*
X1688Y3172D01*
X1692Y3190D01*
D02*
G37*
G36*
X-1610Y3342D02*
X-1628Y3338D01*
X-1694Y3294D01*
X-1738Y3228D01*
X-1742Y3210D01*
X-1610D01*
Y3342D01*
D02*
G37*
G36*
X2690Y3442D02*
X2672Y3438D01*
X2606Y3394D01*
X2562Y3328D01*
X2558Y3310D01*
X2690D01*
Y3442D01*
D02*
G37*
G36*
X2310D02*
Y3310D01*
X2442D01*
X2438Y3328D01*
X2394Y3394D01*
X2328Y3438D01*
X2310Y3442D01*
D02*
G37*
G36*
X2190Y3690D02*
X2058D01*
X2062Y3672D01*
X2106Y3606D01*
X2172Y3562D01*
X2190Y3558D01*
Y3690D01*
D02*
G37*
G36*
X2810Y3442D02*
Y3310D01*
X2942D01*
X2938Y3328D01*
X2894Y3394D01*
X2828Y3438D01*
X2810Y3442D01*
D02*
G37*
G36*
X1440D02*
X1422Y3438D01*
X1356Y3394D01*
X1312Y3328D01*
X1308Y3310D01*
X1440D01*
Y3442D01*
D02*
G37*
G36*
X-6250Y3613D02*
X-6312Y3601D01*
X-6365Y3565D01*
X-6401Y3512D01*
X-6413Y3450D01*
X-6410Y3434D01*
X-7522Y2322D01*
X-7544Y2289D01*
X-7552Y2250D01*
Y824D01*
X-7565Y815D01*
X-7601Y762D01*
X-7613Y700D01*
X-7601Y638D01*
X-7565Y585D01*
X-7552Y576D01*
Y416D01*
X-7628D01*
Y138D01*
X-7272D01*
Y416D01*
X-7348D01*
Y576D01*
X-7335Y585D01*
X-7299Y638D01*
X-7287Y700D01*
X-7299Y762D01*
X-7335Y815D01*
X-7348Y824D01*
Y2208D01*
X-6266Y3290D01*
X-6250Y3287D01*
X-6188Y3299D01*
X-6135Y3335D01*
X-6099Y3388D01*
X-6087Y3450D01*
X-6099Y3512D01*
X-6135Y3565D01*
X-6188Y3601D01*
X-6250Y3613D01*
D02*
G37*
G36*
X2190Y3442D02*
X2172Y3438D01*
X2106Y3394D01*
X2062Y3328D01*
X2058Y3310D01*
X2190D01*
Y3442D01*
D02*
G37*
G36*
X1560D02*
Y3310D01*
X1692D01*
X1688Y3328D01*
X1644Y3394D01*
X1578Y3438D01*
X1560Y3442D01*
D02*
G37*
G36*
X-2950Y2845D02*
X-3072D01*
Y2826D01*
X-3058Y2756D01*
X-3019Y2697D01*
X-2960Y2658D01*
X-2950Y2656D01*
Y2845D01*
D02*
G37*
G36*
X3497Y2775D02*
X3280D01*
Y2637D01*
X3497D01*
Y2637D01*
Y2775D01*
D02*
G37*
G36*
X-10340Y2392D02*
Y2260D01*
X-10208D01*
X-10212Y2278D01*
X-10256Y2344D01*
X-10322Y2388D01*
X-10340Y2392D01*
D02*
G37*
G36*
X2190Y2942D02*
X2172Y2938D01*
X2106Y2894D01*
X2062Y2828D01*
X2058Y2810D01*
X2190D01*
Y2942D01*
D02*
G37*
G36*
X3749Y2836D02*
X3581D01*
X3613Y2789D01*
X3662Y2756D01*
X3720Y2744D01*
X3749D01*
Y2836D01*
D02*
G37*
G36*
X5747Y2825D02*
X5530D01*
Y2687D01*
X5747D01*
Y2825D01*
D02*
G37*
G36*
X-10460Y2392D02*
X-10478Y2388D01*
X-10544Y2344D01*
X-10588Y2278D01*
X-10592Y2260D01*
X-10460D01*
Y2392D01*
D02*
G37*
G36*
X-12460D02*
X-12478Y2388D01*
X-12544Y2344D01*
X-12588Y2278D01*
X-12592Y2260D01*
X-12460D01*
Y2392D01*
D02*
G37*
G36*
X-13340D02*
Y2260D01*
X-13208D01*
X-13212Y2278D01*
X-13256Y2344D01*
X-13322Y2388D01*
X-13340Y2392D01*
D02*
G37*
G36*
X-13460D02*
X-13478Y2388D01*
X-13544Y2344D01*
X-13588Y2278D01*
X-13592Y2260D01*
X-13460D01*
Y2392D01*
D02*
G37*
G36*
X-11340D02*
Y2260D01*
X-11208D01*
X-11212Y2278D01*
X-11256Y2344D01*
X-11322Y2388D01*
X-11340Y2392D01*
D02*
G37*
G36*
X-11460D02*
X-11478Y2388D01*
X-11544Y2344D01*
X-11588Y2278D01*
X-11592Y2260D01*
X-11460D01*
Y2392D01*
D02*
G37*
G36*
X-12340D02*
Y2260D01*
X-12208D01*
X-12212Y2278D01*
X-12256Y2344D01*
X-12322Y2388D01*
X-12340Y2392D01*
D02*
G37*
G36*
X2310Y2942D02*
Y2810D01*
X2442D01*
X2438Y2828D01*
X2394Y2894D01*
X2328Y2938D01*
X2310Y2942D01*
D02*
G37*
G36*
X2690D02*
X2672Y2938D01*
X2606Y2894D01*
X2562Y2828D01*
X2558Y2810D01*
X2690D01*
Y2942D01*
D02*
G37*
%LPD*%
G36*
X2466Y7005D02*
Y6970D01*
X2863D01*
Y7001D01*
X2882Y7008D01*
X2930Y6974D01*
X2930Y6620D01*
X3405Y6620D01*
X3440Y6585D01*
Y6131D01*
X3425Y6125D01*
X3375Y6158D01*
Y6234D01*
X3226D01*
Y6294D01*
X3166D01*
Y6521D01*
X3077D01*
Y6482D01*
X2863D01*
Y6521D01*
X2774D01*
Y6294D01*
X2714D01*
Y6234D01*
X2565D01*
Y6090D01*
X2170Y6090D01*
X2170Y6640D01*
X1605D01*
Y6641D01*
X869Y6641D01*
X855Y6641D01*
X820Y6640D01*
X820Y6606D01*
X820Y5975D01*
X785Y5940D01*
X661D01*
Y6177D01*
X482D01*
Y6237D01*
X422D01*
Y6619D01*
X404Y6653D01*
X421Y6678D01*
X433Y6740D01*
X421Y6802D01*
X385Y6855D01*
X370Y6866D01*
Y6915D01*
X876D01*
Y7040D01*
X939D01*
X953Y7023D01*
X1031Y6962D01*
X1122Y6925D01*
X1220Y6912D01*
X1318Y6925D01*
X1409Y6962D01*
X1487Y7023D01*
X1501Y7040D01*
X2431Y7040D01*
X2466Y7005D01*
D02*
G37*
G36*
X14217Y850D02*
X12825D01*
X12820Y900D01*
X12828Y902D01*
X12878Y912D01*
X12944Y956D01*
X12988Y1022D01*
X12992Y1040D01*
X12608D01*
X12612Y1022D01*
X12656Y956D01*
X12722Y912D01*
X12772Y902D01*
X12780Y900D01*
X12775Y850D01*
X12275D01*
X12270Y900D01*
X12278Y902D01*
X12328Y912D01*
X12394Y956D01*
X12438Y1022D01*
X12442Y1040D01*
X12058D01*
X12062Y1022D01*
X12106Y956D01*
X12172Y912D01*
X12222Y902D01*
X12230Y900D01*
X12225Y850D01*
X10750D01*
Y1900D01*
X14217D01*
Y850D01*
D02*
G37*
%LPC*%
G36*
X2605Y6850D02*
X2466D01*
Y6633D01*
X2605D01*
Y6850D01*
D02*
G37*
G36*
X2863D02*
X2725D01*
Y6633D01*
X2863D01*
Y6850D01*
D02*
G37*
G36*
X11328Y1801D02*
X10851D01*
Y1560D01*
X11328D01*
Y1801D01*
D02*
G37*
G36*
X12310Y1692D02*
Y1560D01*
X12442D01*
X12438Y1578D01*
X12394Y1644D01*
X12328Y1688D01*
X12310Y1692D01*
D02*
G37*
G36*
X12860D02*
Y1560D01*
X12992D01*
X12988Y1578D01*
X12944Y1644D01*
X12878Y1688D01*
X12860Y1692D01*
D02*
G37*
G36*
X12740D02*
X12722Y1688D01*
X12656Y1644D01*
X12612Y1578D01*
X12608Y1560D01*
X12740D01*
Y1692D01*
D02*
G37*
G36*
X11925Y1801D02*
X11448D01*
Y1560D01*
X11925D01*
Y1801D01*
D02*
G37*
G36*
X12190Y1692D02*
X12172Y1688D01*
X12106Y1644D01*
X12062Y1578D01*
X12058Y1560D01*
X12190D01*
Y1692D01*
D02*
G37*
G36*
X3375Y6521D02*
X3286D01*
Y6354D01*
X3375D01*
Y6521D01*
D02*
G37*
G36*
X14149Y1440D02*
X13672D01*
Y1199D01*
X14149D01*
Y1440D01*
D02*
G37*
G36*
Y1801D02*
X13672D01*
Y1560D01*
X14149D01*
Y1801D01*
D02*
G37*
G36*
X13552Y1440D02*
X13075D01*
Y1199D01*
X13552D01*
Y1440D01*
D02*
G37*
G36*
X11328D02*
X10851D01*
Y1199D01*
X11328D01*
Y1440D01*
D02*
G37*
G36*
X11925D02*
X11448D01*
Y1199D01*
X11925D01*
Y1440D01*
D02*
G37*
G36*
X661Y6603D02*
X542D01*
Y6297D01*
X661D01*
Y6603D01*
D02*
G37*
G36*
X2654Y6521D02*
X2565D01*
Y6354D01*
X2654D01*
Y6521D01*
D02*
G37*
G36*
X13552Y1801D02*
X13075D01*
Y1560D01*
X13552D01*
Y1801D01*
D02*
G37*
G36*
X12992Y1440D02*
X12608D01*
X12612Y1422D01*
X12656Y1356D01*
X12694Y1330D01*
Y1270D01*
X12656Y1244D01*
X12612Y1178D01*
X12608Y1160D01*
X12992D01*
X12988Y1178D01*
X12944Y1244D01*
X12906Y1270D01*
Y1330D01*
X12944Y1356D01*
X12988Y1422D01*
X12992Y1440D01*
D02*
G37*
G36*
X12442D02*
X12058D01*
X12062Y1422D01*
X12106Y1356D01*
X12144Y1330D01*
Y1270D01*
X12106Y1244D01*
X12062Y1178D01*
X12058Y1160D01*
X12442D01*
X12438Y1178D01*
X12394Y1244D01*
X12356Y1270D01*
Y1330D01*
X12394Y1356D01*
X12438Y1422D01*
X12442Y1440D01*
D02*
G37*
%LPD*%
D10*
X-554Y-2417D02*
D03*
X-199D02*
D03*
X-554Y-2857D02*
D03*
X-199D02*
D03*
X-554Y-3287D02*
D03*
X-199D02*
D03*
X-1377Y-3300D02*
D03*
X-1023D02*
D03*
X3043Y4990D02*
D03*
X3397D02*
D03*
X1397Y5190D02*
D03*
X1043D02*
D03*
X1397Y4790D02*
D03*
X1043D02*
D03*
X3473Y500D02*
D03*
X3827D02*
D03*
X2127Y-2950D02*
D03*
X1773D02*
D03*
X5073Y250D02*
D03*
X5427D02*
D03*
X5073Y-200D02*
D03*
X5427D02*
D03*
X5073Y-1150D02*
D03*
X5427D02*
D03*
X5727Y-1900D02*
D03*
X5373D02*
D03*
X5727Y-2550D02*
D03*
X5373D02*
D03*
X2527Y-3550D02*
D03*
X2173D02*
D03*
X827Y-4900D02*
D03*
X473D02*
D03*
X-1427Y-4450D02*
D03*
X-1073D02*
D03*
X-1977Y-3750D02*
D03*
X-1623D02*
D03*
X-5473Y-3650D02*
D03*
X-5827D02*
D03*
X-5473Y-3200D02*
D03*
X-5827D02*
D03*
X-937Y-2020D02*
D03*
X-583D02*
D03*
X-947Y-1600D02*
D03*
X-593D02*
D03*
X-947Y-1180D02*
D03*
X-593D02*
D03*
X-947Y-760D02*
D03*
X-593D02*
D03*
X-1427Y-50D02*
D03*
X-1073D02*
D03*
X-1697Y823D02*
D03*
X-1343D02*
D03*
X-2053D02*
D03*
X-2407D02*
D03*
D11*
X-1017Y-2420D02*
D03*
Y-2853D02*
D03*
D12*
X1027Y-7111D02*
D03*
X-1001D02*
D03*
D13*
X2665Y6910D02*
D03*
X3255D02*
D03*
X5475Y3840D02*
D03*
X6065D02*
D03*
X2665Y4890D02*
D03*
X2075D02*
D03*
D14*
X3220Y2835D02*
D03*
Y2245D02*
D03*
X5470Y2885D02*
D03*
Y2295D02*
D03*
D15*
X4931Y2896D02*
D03*
Y3093D02*
D03*
Y3290D02*
D03*
Y3487D02*
D03*
Y3684D02*
D03*
X3809D02*
D03*
Y3487D02*
D03*
Y3290D02*
D03*
Y3093D02*
D03*
Y2896D02*
D03*
D16*
X4370Y3290D02*
D03*
D17*
X2714Y5486D02*
D03*
X2970D02*
D03*
X3226D02*
D03*
X2714Y6294D02*
D03*
X2970D02*
D03*
X3226D02*
D03*
D18*
X2970Y5890D02*
D03*
D19*
X-3150Y6977D02*
D03*
Y6623D02*
D03*
X1400Y2127D02*
D03*
Y1773D02*
D03*
X1250Y473D02*
D03*
Y827D02*
D03*
X3200Y-2723D02*
D03*
Y-3077D02*
D03*
X2600Y-4977D02*
D03*
Y-4623D02*
D03*
X2000Y-4973D02*
D03*
Y-5327D02*
D03*
X-3500Y-5227D02*
D03*
Y-4873D02*
D03*
X-4950Y-5277D02*
D03*
Y-4923D02*
D03*
X-1660Y1580D02*
D03*
Y1226D02*
D03*
X-2090Y1570D02*
D03*
Y1216D02*
D03*
X-2800Y1277D02*
D03*
Y923D02*
D03*
X-3250Y1277D02*
D03*
Y923D02*
D03*
X-4440Y1547D02*
D03*
Y1193D02*
D03*
X-4850Y1547D02*
D03*
Y1193D02*
D03*
X-5260Y1547D02*
D03*
Y1193D02*
D03*
X-4437Y496D02*
D03*
Y851D02*
D03*
X-4847Y496D02*
D03*
Y851D02*
D03*
X-5257Y496D02*
D03*
Y851D02*
D03*
X-6550Y277D02*
D03*
Y-77D02*
D03*
X-7000Y277D02*
D03*
Y-77D02*
D03*
X-7450Y277D02*
D03*
Y-77D02*
D03*
D20*
X-4390Y2905D02*
D03*
X-3890D02*
D03*
X-3390D02*
D03*
X-2890D02*
D03*
Y6015D02*
D03*
X-3390D02*
D03*
X-3890D02*
D03*
X-4390D02*
D03*
D21*
X-3640Y4460D02*
D03*
D22*
X833Y1820D02*
D03*
Y2135D02*
D03*
Y2450D02*
D03*
Y2765D02*
D03*
Y3080D02*
D03*
X-33Y1820D02*
D03*
Y2135D02*
D03*
Y2450D02*
D03*
Y2765D02*
D03*
Y3080D02*
D03*
D23*
X2370Y-1110D02*
D03*
D24*
X3512Y-244D02*
D03*
Y-401D02*
D03*
Y-559D02*
D03*
Y-716D02*
D03*
Y-874D02*
D03*
Y-1031D02*
D03*
Y-1189D02*
D03*
Y-1346D02*
D03*
Y-1504D02*
D03*
Y-1661D02*
D03*
Y-1819D02*
D03*
Y-1976D02*
D03*
X1228D02*
D03*
Y-1819D02*
D03*
Y-1661D02*
D03*
Y-1504D02*
D03*
Y-1346D02*
D03*
Y-1189D02*
D03*
Y-1031D02*
D03*
Y-874D02*
D03*
Y-716D02*
D03*
Y-559D02*
D03*
Y-401D02*
D03*
Y-244D02*
D03*
D25*
X3236Y-2252D02*
D03*
X3079D02*
D03*
X2921D02*
D03*
X2764D02*
D03*
X2606D02*
D03*
X2449D02*
D03*
X2291D02*
D03*
X2134D02*
D03*
X1976D02*
D03*
X1819D02*
D03*
X1661D02*
D03*
X1504D02*
D03*
Y32D02*
D03*
X1661D02*
D03*
X1819D02*
D03*
X1976D02*
D03*
X2134D02*
D03*
X2291D02*
D03*
X2449D02*
D03*
X2606D02*
D03*
X2764D02*
D03*
X2921D02*
D03*
X3079D02*
D03*
X3236D02*
D03*
D26*
X2538Y-3057D02*
D03*
X2637Y-2886D02*
D03*
X2440D02*
D03*
X2637Y-2650D02*
D03*
X2440D02*
D03*
D27*
X1656Y-3587D02*
D03*
X1400D02*
D03*
X1144D02*
D03*
Y-4413D02*
D03*
X1400D02*
D03*
X1656D02*
D03*
D28*
X4450Y-1142D02*
D03*
Y-158D02*
D03*
D29*
X4826Y-2565D02*
D03*
Y-1895D02*
D03*
X4314D02*
D03*
Y-2565D02*
D03*
D30*
X4233Y-4394D02*
D03*
Y-4906D02*
D03*
X3367D02*
D03*
Y-4650D02*
D03*
Y-4394D02*
D03*
D31*
X-4485Y-4424D02*
D03*
X-3915D02*
D03*
Y-4876D02*
D03*
X-4485D02*
D03*
D32*
X-3437Y-1647D02*
D03*
D33*
X-1891Y-367D02*
D03*
Y-564D02*
D03*
Y-761D02*
D03*
Y-958D02*
D03*
Y-1154D02*
D03*
Y-1351D02*
D03*
Y-1548D02*
D03*
Y-1745D02*
D03*
Y-1942D02*
D03*
Y-2139D02*
D03*
Y-2336D02*
D03*
Y-2532D02*
D03*
Y-2729D02*
D03*
Y-2926D02*
D03*
X-4982D02*
D03*
Y-2729D02*
D03*
Y-2532D02*
D03*
Y-2336D02*
D03*
Y-2139D02*
D03*
Y-1942D02*
D03*
Y-1745D02*
D03*
Y-1548D02*
D03*
Y-1351D02*
D03*
Y-1154D02*
D03*
Y-958D02*
D03*
Y-761D02*
D03*
Y-564D02*
D03*
Y-367D02*
D03*
D34*
X-2157Y-3192D02*
D03*
X-2354D02*
D03*
X-2551D02*
D03*
X-2748D02*
D03*
X-2944D02*
D03*
X-3141D02*
D03*
X-3338D02*
D03*
X-3535D02*
D03*
X-3732D02*
D03*
X-3929D02*
D03*
X-4126D02*
D03*
X-4322D02*
D03*
X-4519D02*
D03*
X-4716D02*
D03*
Y-101D02*
D03*
X-4519D02*
D03*
X-4322D02*
D03*
X-4126D02*
D03*
X-3929D02*
D03*
X-3732D02*
D03*
X-3535D02*
D03*
X-3338D02*
D03*
X-3141D02*
D03*
X-2944D02*
D03*
X-2748D02*
D03*
X-2551D02*
D03*
X-2354D02*
D03*
X-2157D02*
D03*
D35*
X-3302Y-3941D02*
D03*
Y-4197D02*
D03*
Y-4452D02*
D03*
X-2751Y-3941D02*
D03*
Y-4197D02*
D03*
Y-4452D02*
D03*
D36*
X226Y6237D02*
D03*
X-30D02*
D03*
X482D02*
D03*
X-542D02*
D03*
X-286D02*
D03*
D37*
X-502Y7290D02*
D03*
X442D02*
D03*
D38*
X-1290Y6306D02*
D03*
X1230D02*
D03*
D39*
X13612Y-1500D02*
D03*
Y-500D02*
D03*
Y500D02*
D03*
Y1500D02*
D03*
X11388D02*
D03*
Y-1500D02*
D03*
Y-500D02*
D03*
Y500D02*
D03*
X-11388Y-1500D02*
D03*
Y-500D02*
D03*
Y500D02*
D03*
Y1500D02*
D03*
X-13612D02*
D03*
Y-1500D02*
D03*
Y-500D02*
D03*
Y500D02*
D03*
D40*
X8250Y-700D02*
D03*
Y-1200D02*
D03*
Y-1700D02*
D03*
X7750D02*
D03*
Y-1200D02*
D03*
Y-700D02*
D03*
D41*
X8850Y-1700D02*
X9100Y-1950D01*
X8250Y-1700D02*
X8850D01*
X6150Y-700D02*
X6650Y-1200D01*
X7750D01*
X3850Y-1250D02*
X3900D01*
X3754Y-1346D02*
X3850Y-1250D01*
X3512Y-1346D02*
X3754D01*
X3824Y-874D02*
X3900Y-950D01*
X3512Y-874D02*
X3824D01*
X-9050Y-950D02*
X-6950D01*
X-11000Y1000D02*
X-9050Y-950D01*
X-2700Y-3550D02*
X-2551Y-3401D01*
Y-3192D01*
X-3302Y-4452D02*
Y-4197D01*
X-2751D01*
X-7450Y2250D02*
X-6250Y3450D01*
X-7450Y700D02*
Y2250D01*
X-7000Y1500D02*
Y2100D01*
X-5650Y3450D01*
X-3100Y6000D02*
X-3085Y6015D01*
X-2890D01*
X-3600Y6000D02*
X-3585Y6015D01*
X-3390D01*
X-7000Y277D02*
Y1500D01*
X-33Y1820D02*
X0Y1787D01*
X2449Y32D02*
Y501D01*
X2000Y950D02*
Y1500D01*
Y950D02*
X2449Y501D01*
X0Y1500D02*
Y1787D01*
X-6650Y2100D02*
X-5588Y3162D01*
X-6650Y1050D02*
Y2100D01*
Y1050D02*
X-6550Y950D01*
X-5588Y3162D02*
X-4147D01*
X-4973Y-3900D02*
X-4519Y-3446D01*
X-6150Y-3900D02*
X-4973D01*
X-6650Y-3400D02*
X-6150Y-3900D01*
X-6650Y-3400D02*
Y-2800D01*
X-6800Y-3498D02*
Y-2900D01*
X-7300Y-2400D02*
X-6800Y-2900D01*
X-14250Y-2400D02*
X-7300D01*
X-6800Y-3498D02*
X-6198Y-4100D01*
X-7200Y-2250D02*
X-6650Y-2800D01*
X-12000Y-2250D02*
X-7200D01*
X-14950Y-1700D02*
X-14250Y-2400D01*
X-12500Y-1750D02*
X-12000Y-2250D01*
X-7100Y-2100D02*
X-6500Y-2700D01*
X-11750Y-2100D02*
X-7100D01*
X-12100Y-1750D02*
X-11750Y-2100D01*
X1227Y73D02*
Y500D01*
Y73D02*
X1250Y50D01*
X1268Y32D01*
X1504D01*
X3302Y-2252D02*
X3600Y-2550D01*
X3236Y-2252D02*
X3302D01*
X2921D02*
Y-1661D01*
X2764Y-1504D02*
X2921Y-1661D01*
X2764Y-2252D02*
Y-1504D01*
X-2354Y-564D02*
X-2168Y-378D01*
X-2787Y-997D02*
X-2354Y-564D01*
X-3220Y-1430D02*
X-2787Y-997D01*
X-3437Y-1647D02*
X-3220Y-1430D01*
X-2168Y-378D02*
Y-113D01*
X-2157Y-101D01*
X-2551D02*
Y204D01*
X-2325Y430D01*
X-2050D02*
X-1950Y530D01*
Y720D01*
X-2053Y823D02*
X-1950Y720D01*
X-2325Y430D02*
X-2050D01*
X-2354Y-101D02*
Y146D01*
X-1975Y250D02*
X-1770Y455D01*
Y750D01*
X-1697Y823D01*
X-2250Y250D02*
X-1975D01*
X-2354Y146D02*
X-2250Y250D01*
X-1660Y1107D02*
Y1226D01*
X-1697Y1070D02*
X-1660Y1107D01*
X-1697Y823D02*
Y1070D01*
X-2090Y1097D02*
X-2053Y1060D01*
Y823D02*
Y1060D01*
X-2090Y1097D02*
Y1216D01*
X-1900Y-358D02*
X-1891Y-367D01*
X-1900Y-358D02*
Y0D01*
X3800Y50D02*
X3827Y77D01*
Y500D01*
X-1891Y-2131D02*
X-1331D01*
X-1298Y-1548D02*
X-1250Y-1500D01*
X-1891Y-1548D02*
X-1298D01*
X5427Y250D02*
X5750D01*
X400Y-100D02*
Y2200D01*
X650Y2450D01*
X833D01*
X-14950Y-1700D02*
Y250D01*
X-13612Y-500D02*
X-12700D01*
X-12150Y-1050D01*
X-10650D01*
X-9850Y-1850D01*
X-7100D02*
X-6221Y-2729D01*
X-9850Y-1850D02*
X-7100D01*
X-11388Y-500D02*
X-11338Y-550D01*
X-10600D01*
X-9500Y-1650D01*
X-13612Y500D02*
X-12400D01*
X-11900Y0D01*
X-10750D01*
X-9300Y-1450D01*
X-11388Y500D02*
X-10850D01*
X-9150Y-1200D01*
X-7100Y-1650D02*
X-6218Y-2532D01*
X-9500Y-1650D02*
X-7100D01*
X-7102Y-1450D02*
X-6192Y-2360D01*
X-9300Y-1450D02*
X-7102D01*
X-7100Y-1200D02*
X-6358Y-1942D01*
X-9150Y-1200D02*
X-7100D01*
X-6950Y-950D02*
X-6155Y-1745D01*
X-4982D01*
X-6358Y-1942D02*
X-4982D01*
X-5977Y-1550D02*
X-4984D01*
X-7450Y-77D02*
X-5977Y-1550D01*
X-5949Y-1351D02*
X-4982D01*
X-7000Y-300D02*
X-5949Y-1351D01*
X-7000Y-300D02*
Y-77D01*
X-5946Y-1154D02*
X-4982D01*
X-6550Y-550D02*
X-5946Y-1154D01*
X-6550Y-550D02*
Y-77D01*
X-6192Y-2360D02*
X-4982D01*
Y-2336D01*
X-6218Y-2532D02*
X-4982D01*
X-6221Y-2729D02*
X-4982D01*
X-6500Y-3300D02*
Y-2700D01*
Y-3300D02*
X-6150Y-3650D01*
X-5827D01*
X-6250Y-500D02*
Y1350D01*
X-6450Y1550D02*
X-6250Y1350D01*
X-6450Y1550D02*
Y1950D01*
X-6150Y-3200D02*
X-5827D01*
X-6300Y-500D02*
X-6250D01*
X-6550Y277D02*
Y950D01*
X-7450Y277D02*
Y700D01*
X-4984Y-1550D02*
X-4982Y-1548D01*
X-5000Y2700D02*
X-4950D01*
X-5800Y1900D02*
X-5000Y2700D01*
X-6050Y-550D02*
Y1950D01*
X-5400D02*
X-5200D01*
X-5550Y1800D02*
X-5400Y1950D01*
X-5800Y-500D02*
Y1900D01*
Y-500D02*
X-5542Y-758D01*
X-6050Y-550D02*
X-5642Y-958D01*
X-4982D01*
X-5550Y-280D02*
Y1800D01*
X-5542Y-758D02*
X-4982D01*
X-1250Y1700D02*
Y3250D01*
X-1000Y2000D02*
X-880D01*
X-115Y2765D01*
X-2655Y2905D02*
X-2650Y2900D01*
X-2890Y2905D02*
X-2655D01*
X-3729Y2251D02*
X-3390Y2590D01*
Y2905D01*
X-3600Y2900D02*
X-3595Y2905D01*
X-3390D01*
X-1264Y3264D02*
Y4879D01*
Y3264D02*
X-1250Y3250D01*
Y1700D02*
X-750Y1200D01*
X-1264Y4879D02*
X-953Y5190D01*
X670D01*
X-4850Y1547D02*
Y1950D01*
X-750Y500D02*
Y1200D01*
X-2850Y1750D02*
X-2800Y1700D01*
Y1277D02*
Y1700D01*
X-3250Y1277D02*
Y1750D01*
X-3338Y835D02*
X-3250Y923D01*
X-3338Y-101D02*
Y835D01*
X-3144Y578D02*
X-2800Y923D01*
X-3144Y-98D02*
Y578D01*
Y-98D02*
X-3141Y-101D01*
X400Y2850D02*
Y2900D01*
X220Y3080D02*
X400Y2900D01*
X-33Y3080D02*
X220D01*
X3432Y459D02*
X3473Y500D01*
X3432Y32D02*
Y459D01*
X-1073Y-50D02*
X-800D01*
X-1574D02*
X-1427D01*
X-1891Y-367D02*
X-1574Y-50D01*
X-115Y2765D02*
X-33D01*
X-500Y250D02*
Y2065D01*
X-115Y2450D01*
X-33D01*
X1220Y3080D02*
X2950Y1350D01*
X833Y3080D02*
X1220D01*
X2606Y1100D02*
Y1394D01*
X833Y2765D02*
X848Y2750D01*
X1250D01*
X2606Y1394D01*
X-4147Y3162D02*
X-3890Y2905D01*
X1113Y2135D02*
X1392D01*
X833D02*
X1113D01*
X1353Y1820D02*
X1400Y1773D01*
X833Y1820D02*
X1353D01*
X1392Y2135D02*
X1400Y2127D01*
X-199Y-2857D02*
Y-2417D01*
X150Y-2400D02*
X200Y-2350D01*
X-183Y-2400D02*
X150D01*
X-199Y-2417D02*
X-183Y-2400D01*
X-554Y-3287D02*
Y-2857D01*
X-557Y-2853D02*
X-554Y-2857D01*
X-1017Y-2853D02*
X-557D01*
Y-2420D02*
X-554Y-2417D01*
X-1017Y-2420D02*
X-557D01*
X3200Y-3350D02*
Y-3077D01*
Y-2723D02*
X3236Y-2687D01*
Y-2252D01*
X3079Y-2601D02*
X3200Y-2723D01*
X3079Y-2601D02*
Y-2252D01*
X-4150Y-3216D02*
X-4126Y-3192D01*
X-4150Y-3800D02*
Y-3216D01*
X-4322Y-3447D02*
Y-3192D01*
X-4975Y-4100D02*
X-4322Y-3447D01*
X-4519Y-3446D02*
Y-3192D01*
X-6198Y-4100D02*
X-4975D01*
X-3950Y-3550D02*
X-3929Y-3529D01*
Y-3192D01*
X-5000Y-3650D02*
X-4716Y-3366D01*
X-2150Y-3577D02*
X-1977Y-3750D01*
X-2150Y-3577D02*
Y-3199D01*
X-2157Y-3192D02*
X-2150Y-3199D01*
X-2354Y-3546D02*
X-2350Y-3550D01*
X-2354Y-3546D02*
Y-3192D01*
X-2748Y-3502D02*
X-2700Y-3550D01*
X-2748Y-3502D02*
Y-3192D01*
X-3338Y-3547D02*
X-3335Y-3550D01*
X-3338Y-3547D02*
Y-3192D01*
X-2944Y-3351D02*
Y-3192D01*
Y-3351D02*
X-2937Y-3359D01*
X-3141Y-3409D02*
Y-3192D01*
Y-3409D02*
X-3117Y-3434D01*
Y-3755D02*
Y-3434D01*
X-2937Y-3755D02*
Y-3359D01*
Y-3755D02*
X-2751Y-3941D01*
X-3302D02*
X-3117Y-3755D01*
X-1427Y-3250D02*
X-1377Y-3300D01*
X-1900Y-3250D02*
X-1427D01*
X-1900D02*
X-1891Y-3241D01*
Y-2926D01*
X-1073Y823D02*
X-1050Y800D01*
X-1343Y823D02*
X-1073D01*
X-2500Y916D02*
Y1750D01*
Y916D02*
X-2407Y823D01*
X-3150Y6977D02*
X-2823D01*
X-2773Y6623D02*
X-2450Y6300D01*
X-3150Y6623D02*
X-2773D01*
X-3597D02*
X-3150D01*
X-3890Y6330D02*
X-3597Y6623D01*
X3789Y-1661D02*
X3900Y-1550D01*
X3512Y-1661D02*
X3789D01*
X5427Y-1150D02*
X5700D01*
X5427Y-200D02*
X5700D01*
X4450Y-1142D02*
X5065D01*
X5031Y-158D02*
X5073Y-116D01*
Y250D01*
X4450Y-158D02*
X5031D01*
X4450Y-1142D02*
Y-1033D01*
X4134Y-716D02*
X4450Y-1033D01*
Y-218D02*
Y-158D01*
X4109Y-559D02*
X4450Y-218D01*
X3512Y-716D02*
X4134D01*
X3512Y-559D02*
X4109D01*
X3236Y32D02*
X3432D01*
X3236D02*
Y86D01*
X2606Y32D02*
Y1100D01*
X2950Y700D02*
Y1350D01*
X2764Y514D02*
X2950Y700D01*
X2764Y32D02*
Y514D01*
X-2070Y6080D02*
X-2000Y6150D01*
X-2250Y6255D02*
X-2005Y6500D01*
X-2070Y2109D02*
Y6080D01*
X-2250Y1849D02*
Y6255D01*
X226Y6696D02*
X270Y6740D01*
X226Y6237D02*
Y6696D01*
X-2090Y1570D02*
Y1689D01*
X-2250Y1849D02*
X-2090Y1689D01*
X-80Y6740D02*
X-30Y6690D01*
Y6237D02*
Y6690D01*
X-1660Y1580D02*
Y1699D01*
X-2070Y2109D02*
X-1660Y1699D01*
X-2450Y2650D02*
Y6300D01*
X-2790Y2310D02*
X-2450Y2650D01*
X-3290Y2310D02*
X-2790D01*
X-5473Y-3200D02*
X-5044D01*
X-4982Y-3138D01*
X-5473Y-3650D02*
X-5000D01*
X-4716Y-3366D02*
Y-3192D01*
X-4982Y-3138D02*
Y-2926D01*
X-5310Y-2160D02*
X-5289Y-2139D01*
X-4982D01*
Y-761D02*
Y-758D01*
X-5550Y-280D02*
X-5266Y-564D01*
X-4982D01*
Y-367D02*
Y-158D01*
X-4130Y-97D02*
X-4126Y-101D01*
X-4129Y1269D02*
Y2339D01*
X-4130Y1267D02*
X-4129Y1269D01*
X-4130Y-97D02*
Y1267D01*
X-3729Y-98D02*
Y2251D01*
X-3732Y-101D02*
X-3729Y-98D01*
X-5260Y1547D02*
X-4850D01*
X-4440D01*
X-5260Y854D02*
Y1193D01*
X-4850Y854D02*
Y1193D01*
X-4440Y854D02*
Y1193D01*
X-3535Y2065D02*
X-3290Y2310D01*
X-3535Y-101D02*
Y2065D01*
X-2860Y520D02*
X-2744Y404D01*
Y-98D02*
Y404D01*
X-2748Y-101D02*
X-2744Y-98D01*
X-2944Y-101D02*
Y244D01*
X-5257Y439D02*
X-4716Y-101D01*
X-5257Y439D02*
Y496D01*
X-4847D02*
X-4519Y169D01*
Y-101D02*
Y169D01*
X-4437Y496D02*
X-4322Y382D01*
Y-101D02*
Y382D01*
X-4390Y2600D02*
X-4129Y2339D01*
X-3929Y-101D02*
Y241D01*
X-4390Y2600D02*
Y2905D01*
X-3890Y6015D02*
Y6330D01*
X-4390Y6015D02*
Y6320D01*
X-593Y-760D02*
X-479Y-874D01*
X1228D01*
X-593Y-1180D02*
X-444Y-1031D01*
X1228D01*
X-1017Y-760D02*
X-947D01*
X-1415Y-1158D02*
X-1017Y-760D01*
X-1891Y-1158D02*
X-1415D01*
X-1239Y-1180D02*
X-947D01*
X-1410Y-1351D02*
X-1239Y-1180D01*
X-1891Y-1351D02*
X-1410D01*
X-1891Y-1158D02*
Y-1154D01*
X-1556Y-564D02*
X-1532Y-540D01*
X-1891Y-564D02*
X-1556D01*
X-1891Y-758D02*
X-1445D01*
X-1442Y-760D02*
X-1310D01*
X-1445Y-758D02*
X-1442Y-760D01*
X-1891Y-761D02*
Y-758D01*
Y-958D02*
X-1528D01*
X864Y-1346D02*
X1228D01*
X190Y-2020D02*
X864Y-1346D01*
X-583Y-2020D02*
X190D01*
X811Y-1189D02*
X1228D01*
X400Y-1600D02*
X811Y-1189D01*
X-593Y-1600D02*
X400D01*
X-1891Y-1740D02*
X-1087D01*
X-947Y-1600D01*
X-1891Y-1745D02*
Y-1740D01*
X-1067Y-1880D02*
X-957Y-1990D01*
X-1363Y-1880D02*
X-1067D01*
X-1425Y-1942D02*
X-1363Y-1880D01*
X-1891Y-1942D02*
X-1425D01*
X-1331Y-2131D02*
X-1280Y-2080D01*
X-1891Y-2139D02*
Y-2131D01*
X-1464Y-2336D02*
X-1460Y-2331D01*
X-1891Y-2336D02*
X-1464D01*
X-1140Y-2729D02*
X-1017Y-2853D01*
X-1891Y-2729D02*
X-1140D01*
X-1129Y-2532D02*
X-1017Y-2420D01*
X-1891Y-2532D02*
X-1129D01*
X900Y-2050D02*
X974Y-1976D01*
X1228D01*
X900Y-1750D02*
X969Y-1819D01*
X1228D01*
X670Y5190D02*
X1043D01*
X1397Y4790D02*
Y5190D01*
X2637Y-2650D02*
Y-2567D01*
X2606Y-2536D02*
X2637Y-2567D01*
X2606Y-2536D02*
Y-2252D01*
X2440Y-2650D02*
Y-2567D01*
X2449Y-2558D01*
Y-2252D01*
X2291Y-2737D02*
Y-2252D01*
Y-2737D02*
X2440Y-2886D01*
X2134Y-2586D02*
Y-2252D01*
X2090Y-2630D02*
X2134Y-2586D01*
X2127Y-2886D02*
X2440D01*
X-199Y-3287D02*
X-87D01*
X500Y-2700D01*
Y-2250D01*
X1144Y-4756D02*
Y-4413D01*
X1000Y-4900D02*
X1144Y-4756D01*
X827Y-4900D02*
X1000D01*
X8250Y-700D02*
X9350D01*
X8250Y-1200D02*
X9350D01*
X7750Y-700D02*
X8000Y-950D01*
X2550Y-4650D02*
X3367D01*
X4233Y-4394D02*
Y-4117D01*
X4250Y-4100D01*
X3367Y-4650D02*
X3800D01*
X2550D02*
Y-4450D01*
X1144Y-4413D02*
Y-4256D01*
X4000Y-3900D02*
X4450D01*
X4700Y-4150D01*
X4394Y-4906D02*
X4700Y-4600D01*
X4233Y-4906D02*
X4394D01*
X4700Y-4600D02*
Y-4150D01*
X1656Y-4413D02*
X1719Y-4350D01*
X2450D01*
X2550Y-4450D01*
X1200Y-4200D02*
X3700D01*
X4000Y-3900D01*
X1144Y-4256D02*
X1200Y-4200D01*
X7750Y-1700D02*
X8000Y-1450D01*
D42*
X-4512Y-4450D02*
X-4485Y-4424D01*
X-5000Y-4450D02*
X-4512D01*
X482Y5928D02*
X720Y5690D01*
X482Y5928D02*
Y6237D01*
X2970Y4995D02*
Y5486D01*
Y4995D02*
X3025Y4940D01*
X4931Y3487D02*
X5223D01*
X5470Y3240D01*
Y2885D02*
Y3240D01*
X4931Y3093D02*
Y3290D01*
X4370D02*
X4931D01*
D43*
X-4950Y-4923D02*
X-4904Y-4876D01*
X-4485D01*
X-3500Y-4873D02*
Y-4809D01*
X-3886Y-4424D02*
X-3500Y-4809D01*
X-3915Y-4424D02*
X-3886D01*
X-3915D02*
X-3900Y-4409D01*
Y-4000D01*
X-3535Y-3635D01*
Y-3192D01*
X-4485Y-4876D02*
X-4376D01*
X-4192Y-4692D01*
Y-4122D01*
X-3732Y-3662D01*
Y-3192D01*
X5358Y-2565D02*
X5373Y-2550D01*
X4826Y-2565D02*
X5358D01*
X5373Y-1900D02*
Y-1673D01*
X5250Y-1550D02*
X5373Y-1673D01*
X4450Y-1550D02*
X5250D01*
X4314Y-1686D02*
X4450Y-1550D01*
X4314Y-1895D02*
Y-1686D01*
X4237Y-1819D02*
X4314Y-1895D01*
X3512Y-1819D02*
X4237D01*
X4826Y-2565D02*
Y-2516D01*
X4548Y-2238D02*
X4826Y-2516D01*
X3774Y-2238D02*
X4548D01*
X3512Y-1976D02*
X3774Y-2238D01*
D44*
X1027Y-7111D02*
X1989D01*
X2000Y-7100D01*
Y-5327D01*
D45*
X1400Y-4700D02*
Y-4413D01*
Y-4700D02*
X1650Y-4950D01*
X1977D01*
X2000Y-4973D01*
X1656Y-3587D02*
X2136D01*
X2173Y-3550D01*
X2538Y-3539D02*
Y-3057D01*
X2527Y-3550D02*
X2538Y-3539D01*
X-2751Y-4452D02*
X-1430D01*
X-1427Y-4450D01*
X-1073D02*
X-200D01*
X663Y-3587D01*
X1144D01*
D46*
X-1280Y7290D02*
D03*
X1220D02*
D03*
D47*
X7600Y-2200D02*
D03*
X8400D02*
D03*
X8000Y-200D02*
D03*
D48*
X-1750Y4850D02*
D03*
X1500Y3250D02*
D03*
X9100Y-1950D02*
D03*
X6150Y-700D02*
D03*
X3900Y-1250D02*
D03*
Y-950D02*
D03*
X-11000Y1000D02*
D03*
X5450Y5100D02*
D03*
X4950D02*
D03*
X4450D02*
D03*
X3950D02*
D03*
X4950Y5550D02*
D03*
X4450D02*
D03*
X3950D02*
D03*
X4450Y6000D02*
D03*
X3950D02*
D03*
X-5650Y3450D02*
D03*
X-6250D02*
D03*
X-3100Y6000D02*
D03*
X-3600D02*
D03*
X-7000Y1500D02*
D03*
X0D02*
D03*
X2000D02*
D03*
X1250Y50D02*
D03*
X-12850Y-1500D02*
D03*
X-14450Y-1550D02*
D03*
X13550Y-2350D02*
D03*
X12550D02*
D03*
X11550D02*
D03*
X10550D02*
D03*
X9550D02*
D03*
X3600Y-2550D02*
D03*
X-10500Y-1850D02*
D03*
X-12750Y-2150D02*
D03*
X-13600Y-2100D02*
D03*
X-10400Y2200D02*
D03*
X-11400D02*
D03*
X-12400D02*
D03*
X-13400D02*
D03*
X-14400D02*
D03*
X-1900Y0D02*
D03*
X-15300Y850D02*
D03*
X-14400Y1350D02*
D03*
X-14850D02*
D03*
X-15300D02*
D03*
X3800Y50D02*
D03*
X-1250Y-1500D02*
D03*
X5750Y250D02*
D03*
X400Y-100D02*
D03*
X500Y-2250D02*
D03*
X-12100Y-1750D02*
D03*
X-12500D02*
D03*
X-14950Y250D02*
D03*
X-6150Y-3200D02*
D03*
X-6300Y-500D02*
D03*
X-6550Y950D02*
D03*
X-7450Y700D02*
D03*
X-4950Y2700D02*
D03*
X-6450Y1950D02*
D03*
X-6050D02*
D03*
X-5200D02*
D03*
X-1000Y2000D02*
D03*
X-2650Y2900D02*
D03*
X-3600D02*
D03*
X-1550Y3150D02*
D03*
X-1800Y3900D02*
D03*
X-4850Y1950D02*
D03*
X-2850Y1750D02*
D03*
X-3250D02*
D03*
X400Y2850D02*
D03*
X-800Y-50D02*
D03*
X-500Y250D02*
D03*
X1750Y1750D02*
D03*
X1113Y2135D02*
D03*
X200Y-2350D02*
D03*
X3200Y-3350D02*
D03*
X-5000Y-4450D02*
D03*
X-4150Y-3800D02*
D03*
X-3950Y-3550D02*
D03*
X-2350D02*
D03*
X-2700D02*
D03*
X-3335D02*
D03*
X-1900Y-3250D02*
D03*
X-1050Y800D02*
D03*
X-2500Y1750D02*
D03*
X-2823Y6977D02*
D03*
X-750Y500D02*
D03*
X3900Y-1550D02*
D03*
X5700Y-1150D02*
D03*
Y-200D02*
D03*
X3432Y32D02*
D03*
X2606Y1100D02*
D03*
X2950Y1350D02*
D03*
X-3930Y800D02*
D03*
X-2000Y6150D02*
D03*
X-2005Y6500D02*
D03*
X270Y6740D02*
D03*
X-80D02*
D03*
X-4982Y-3138D02*
D03*
X-5310Y-2160D02*
D03*
X-4982Y-158D02*
D03*
X-2860Y520D02*
D03*
X-2944Y244D02*
D03*
X-3929Y241D02*
D03*
X-4390Y6320D02*
D03*
X-1532Y-540D02*
D03*
X-1310Y-760D02*
D03*
X-1528Y-958D02*
D03*
X-1280Y-2080D02*
D03*
X-1460Y-2331D02*
D03*
X900Y-2050D02*
D03*
Y-1750D02*
D03*
X320Y5690D02*
D03*
X-130D02*
D03*
X2090Y-2630D02*
D03*
X-4700Y2900D02*
D03*
X-3600Y6850D02*
D03*
X-5850Y-4350D02*
D03*
X-5750Y-2150D02*
D03*
X2250Y3750D02*
D03*
X2750D02*
D03*
X3250D02*
D03*
X2250Y3250D02*
D03*
X2750D02*
D03*
X2250Y2750D02*
D03*
X2750D02*
D03*
X1150Y-2550D02*
D03*
X-2250Y-4900D02*
D03*
X-1650D02*
D03*
X-1200D02*
D03*
X-600D02*
D03*
X-100D02*
D03*
X-1250Y-4000D02*
D03*
X-1900Y-4050D02*
D03*
X-750Y-4000D02*
D03*
X-290Y-3940D02*
D03*
X900Y-4000D02*
D03*
X200Y-3450D02*
D03*
X500Y-4500D02*
D03*
X1400Y-3100D02*
D03*
X700D02*
D03*
X1350Y-5300D02*
D03*
X9350Y-700D02*
D03*
Y-1200D02*
D03*
X8000Y-950D02*
D03*
X4250Y-4100D02*
D03*
X3800Y-4650D02*
D03*
X2100Y-4550D02*
D03*
Y-4000D02*
D03*
X2950Y-3900D02*
D03*
X8000Y-1450D02*
D03*
X12250Y1500D02*
D03*
X12800D02*
D03*
X12250Y1100D02*
D03*
X12800D02*
D03*
X5200Y-5000D02*
D03*
X5750Y-4450D02*
D03*
X6300Y-3750D02*
D03*
X6700Y-3000D02*
D03*
D49*
X-3640Y4893D02*
D03*
X-4073Y5326D02*
D03*
X-3207D02*
D03*
X-4073Y4460D02*
D03*
X-3207D02*
D03*
X-3640Y4027D02*
D03*
X-4073Y3594D02*
D03*
X-3207D02*
D03*
X-4519Y-2729D02*
D03*
Y-1863D02*
D03*
Y-997D02*
D03*
X-4086Y-2296D02*
D03*
Y-1430D02*
D03*
Y-564D02*
D03*
X-3653Y-2729D02*
D03*
Y-1863D02*
D03*
Y-997D02*
D03*
X-3220Y-2296D02*
D03*
Y-1430D02*
D03*
Y-564D02*
D03*
X-2787Y-2729D02*
D03*
Y-1863D02*
D03*
Y-997D02*
D03*
X-2354Y-2296D02*
D03*
Y-1430D02*
D03*
Y-564D02*
D03*
D50*
X1720Y-1760D02*
D03*
Y-893D02*
D03*
X2153Y-1327D02*
D03*
Y-460D02*
D03*
X2587Y-1760D02*
D03*
Y-893D02*
D03*
X3020Y-1327D02*
D03*
Y-460D02*
D03*
D51*
X-1250Y3250D02*
D03*
X14900Y-750D02*
D03*
D52*
X720Y5690D02*
D03*
X670Y5190D02*
D03*
D53*
X-280Y4190D02*
D03*
M02*
